<?xml version="1.0" encoding="utf-8"?>
<!-- Generator: Adobe Illustrator 17.1.0, SVG Export Plug-In . SVG Version: 6.00 Build 0)  -->
<!DOCTYPE svg PUBLIC "-//W3C//DTD SVG 1.1//EN" "http://www.w3.org/Graphics/SVG/1.1/DTD/svg11.dtd">
<svg version="1.1" id="Calque_1" xmlns="http://www.w3.org/2000/svg" xmlns:xlink="http://www.w3.org/1999/xlink" x="0px" y="0px"
	 viewBox="0 0 314.869 421.47" enable-background="new 0 0 314.869 421.47" xml:space="preserve">
<g>
	<g>
		<path fill="#333333" d="M74.909,421.47c-0.351-1.337-0.701-2.674-1.031-3.93c3.213,0.383,6.512,0.888,9.829,1.145
			c4.149,0.321,7.445-1.345,9.849-4.755c0.312-0.443,0.656-0.863,1.413-1.128c-0.347,0.924-0.435,2.145-1.09,2.715
			c-1.865,1.624-2.562,3.793-3.363,5.953C85.315,421.47,80.112,421.47,74.909,421.47z"/>
		<path fill="#333333" d="M140.865,24.102c0.661,2.279,1.322,4.558,2.076,7.16c0.682-0.507,1.339-0.997,1.895-1.411
			c0.883,1.212,1.905,2.617,3.253,4.468c0,2.608,0,5.663,0,8.935c0.751,0.057,1.417,0.108,2.083,0.158l-0.124-0.122
			c-0.288,1.717-0.576,3.434-0.891,5.319c3.972,1.517,5.68,4.668,6.71,8.55c-0.751,0.23-1.175,0.359-1.553,0.475
			c-0.239,0.85-0.413,1.697-0.728,2.487c-0.155,0.388-0.583,0.662-0.873,1.001c-0.963,1.127-0.205,3.308-2.041,3.781
			c-1.214,0.312-2.574,0.059-3.685,0.059c-0.95,2.257-0.503,3.836,1.09,5.292c-1.028,1.88-2.015,3.684-2.97,5.43
			c1.558,4.37-0.367,9.349,2.402,13.86c1.525-3.071,0.048-5.988,0.877-9.375c1.079-0.693,2.485-1.974,4.137-2.56
			c1.919-0.681,2.401,2.446,4.425,2.079c0.63,2.684,1.233,5.255,1.856,7.911c1.621-1.651,1.599-1.961,0.741-4.224
			c-0.639-1.686-2.16-3.201-1.086-5.615c1.249-0.168,2.696-0.362,4.357-0.585c-1.017-1.52-2.556-1.591-3.581-1.196
			c-2.851,1.098-5.515-0.467-8.292-0.212c-1.295,0.119-2.661-0.535-4.094-0.861c0.82-1.45,2.031-1.862,3.588-1.606
			c-0.032,0.161-0.025,0.273-0.076,0.347c-0.059,0.086-0.161,0.147-0.254,0.203c-0.19,0.115-0.387,0.22-0.971,0.55
			c2.067,0,3.747,0,6.147,0c-1.256-0.482-1.896-0.728-2.569-0.987c0.194-0.124,0.356-0.319,0.516-0.317
			c4.21,0.052,8.426-0.22,12.6,0.768c1.788,0.423,3.702,0.521,5.546,0.449c2.511-0.098,2.869,1.822,3.656,3.411
			c-0.803,0.103-1.606,0.208-2.409,0.313c1.856,0.272,2.728,1.696,3.987,2.614c1.227,0.895,2.955,1.102,4.462,1.612
			c-0.073,0.251-0.146,0.502-0.219,0.754c-1.136-0.215-2.271-0.429-3.388-0.64c0.282,2.027,0.571,4.103,0.958,6.885
			c0.11,0.158,0.68,0.974,1.257,1.798c0.637-0.401,1.316-0.829,2.361-1.488c1.323,2.66,2.888,5.062,3.749,7.694
			c1.894,5.791,5.175,10.847,7.93,16.188c1.799,3.486,3.516,7.031,3.912,11.049c0.114,1.156,0.673,2.261,0.897,3.415
			c0.281,1.445,0.428,2.915,0.123,4.494c0.79,1.136,1.58,2.272,2.368,3.41c0.784,1.132,0.923,2.32,0.475,3.844
			c0.753-0.584,1.505-1.168,2.349-1.823c1.141,0.743,2.302,1.499,3.569,2.324c-0.513,0.863-0.915,1.54-1.353,2.277
			c0.282,0.032,0.665,0.196,0.925,0.082c0.851-0.374,1.657-0.851,2.585-1.344c0.756,0.581,1.484,1.141,2.399,1.844
			c-0.894,1.723-1.743,3.359-2.593,4.994c1.224,0.771,2.107,0.071,3.167-0.913c0.438,0.582,0.862,1.146,1.237,1.644
			c-0.187,0.994-0.367,1.95-0.619,3.288c2.541-0.785,2.836-3.228,4.77-4.291c2.055,0.826,3.335,2.58,4.61,4.746
			c-0.505,0.95-1.046,1.967-1.586,2.985l0.112-0.1c-1.787,1.494-2.823,3.598-3.785,5.567c-2.761,5.653-5.067,11.527-7.741,17.225
			c-1.627,3.468-3.604,6.771-5.535,10.356c-1.605-0.713-2.306-3.063-4.657-1.915c0.726-2.2,1.33-4.031,1.935-5.862
			c-0.159-0.072-0.318-0.145-0.477-0.217c-0.837,1.585-1.675,3.17-2.512,4.755c-0.237-0.07-0.474-0.14-0.711-0.21
			c-0.19-3.448-0.261-6.908-0.621-10.338c-0.175-1.665-0.892-3.273-1.469-5.269c-1.718,2.583,0.068,5.567-2.278,7.511
			c-0.42-0.811-1.329-1.828-1.104-2.269c0.688-1.354-1.131-1.767-0.543-3.479c0.126-0.214,0.596-1.007,1.149-1.941
			c-0.317-0.461-0.629-0.915-1.071-1.557c0.297-1.433,0.639-3.087,0.998-4.823c-0.274-0.427-0.589-0.919-0.904-1.41
			c1.858-3.162,1.928-4.018,0.931-5.6c0.11-4.201,0.203-7.748,0.302-11.532c2.427-2.728,4.183-6.216,4.993-10.258
			c-2.176,0.656-3.135,2.411-4.277,3.922c-1.18,1.56-2.251,3.209-4.5,4.044c0.604-2.536,1.207-5.071,1.875-7.877
			c-0.959,0.106-1.736,0.193-2.626,0.291c-0.832-2.514,1.048-4.724,0.857-7.184c-4.112-2.97-3.065-8.029-4.938-12.373
			c-0.223,4.513-0.427,8.649-0.649,13.144c-1.107,0.481-2.694,1.406-2.281,3.184c0.315,1.359,1.441,2.529,2.381,4.071
			c-1.577,0.023-3.324-0.328-4.776,0.174c-1.557,0.538-2.836,1.878-3.959,2.672c-0.447,3.911,2.55,5.74,3.863,8.395
			c0.55,0,1.329,0,2.128,0c0.706-0.959,1.445-1.963,2.247-3.052c1.699,1.65,2.468,3.5,2.097,5.963
			c-2.551,2.639-6.658,1.375-9.76,3.731c-0.159,0.4-0.491,1.148-0.757,1.92c-0.673,1.95-0.102,3.448,1.167,5.135
			c2.378,3.163,3.743,3.255,1.148,7.039c-1.878-1.497-1.878-1.497-5.369-0.534c-1.599-2.55-3.428-5.161-5.912-7.098
			c0-1.678,0-3.19,0-4.981c0.786-0.069,1.631-0.143,2.932-0.257c-0.502-0.536-0.735-0.858-1.036-1.092
			c-0.595-0.464-1.228-0.88-1.865-1.33c0.912-4.44,0.62-8.578-1.35-12.722c-0.919-1.933-0.707-4.424-0.908-6.671
			c-0.113-1.264-0.02-2.547-0.02-4.086c0.59,0,1.006,0,1.421,0l-0.087-0.063c0.308,0.495,0.617,0.99,1.115,1.791
			c0.478-1.055,0.875-1.931,1.357-2.995c0.735,0.217,1.45,0.427,2.279,0.672c-0.093-0.554-0.167-0.991-0.259-1.54
			c0.569-0.192,1.155-0.391,1.728-0.585c-0.077-0.358-0.053-0.648-0.186-0.793c-0.555-0.607-1.071-1.517-1.759-1.69
			c-2.709-0.683-3.633-3.202-5.085-5.006c-0.983-1.221-0.882-3.325-1.232-5.042c-0.294-1.441-0.538-2.892-0.804-4.339
			c-0.261,0.022-0.522,0.043-0.783,0.065c0,1.723,0.058,3.449-0.013,5.17c-0.118,2.869-0.855,5.76,0.788,8.505
			c0.27,0.451-0.184,1.338-0.311,2.022c-0.125,0.675-0.576,1.509-0.33,1.992c0.694,1.367,0.077,2.538-0.313,3.691
			c-0.472,1.395-0.327,2.629-0.133,4.077c0.381,2.846,0.112,5.779,0.112,8.771c-0.864-0.111-1.406-0.181-1.948-0.25
			c-0.136,0.136-0.273,0.272-0.409,0.408c1.035,0.574,2.071,1.148,3.106,1.722c-0.2,0.258-0.399,0.516-0.599,0.774
			c-0.757-0.051-1.514-0.101-2.662-0.178c0.702,1.109,1.23,1.942,1.856,2.93c-0.338,0.221-0.669,0.565-1.06,0.661
			c-0.432,0.105-0.919-0.017-1.391-0.041c-0.675-1.525,0.911-3.395-1.104-4.866c-0.567,0.765-1.129,1.523-1.691,2.281
			c-1.211-0.91-2.817-0.906-4.056-1.772c-1.211-0.846-3.476,0.508-4.012-2.106c0.37-0.646,0.824-1.439,1.291-2.255
			c-0.125-0.345-0.177-0.72-0.373-0.989c-1.751-2.393-2.038-5.083-2.232-7.987c-0.202-3.013,0.827-6.204-0.832-9.113
			c-2.141,1.403-2.141,1.403-1.12,4.593c-0.986,0.865-2.024,1.775-2.999,2.63c-1.679-0.22-1.331-1.529-1.651-2.457
			c-0.31-0.899-0.156-2.184-1.681-2.252c-0.131-1.297-0.265-2.616-0.452-4.467c-0.79,3.266-1.431,5.92-2.073,8.573
			c-0.743-0.543-1.485-1.085-2.215-1.618c-1.262,1.194-2.442,2.354-4.889,3.023c1.01-1.528,1.59-2.405,2.317-3.505
			c-0.943-0.416-1.732-0.763-2.514-1.108c-1.465,3.086-1.465,3.086,0.727,5.681c0.795,0,1.572,0,2.456,0
			c-0.187,0.717-0.321,1.232-0.417,1.601c1.253,0.547,2.399,1.048,3.84,1.677c0.225-1.418,0.441-2.786,0.658-4.154
			c0.337,1.086,0.795,2.15,0.988,3.261c0.472,2.712,0.779,5.452,1.238,8.167c0.207,1.224,0.621,2.413,1.083,4.15
			c-0.069,0.468-0.444,1.587-0.354,2.667c0.299,3.583-0.316,7.148,0.17,10.781c0.246,1.842,0.04,3.865,0.471,5.796
			c0.125,0.561,0.184,1.25-0.028,1.754c-1.379,3.276-0.291,6.45,0.295,9.646c0.083,0.453,0.468,0.925,0.387,1.322
			c-0.787,3.871,0.971,7.827-0.367,11.894c-0.825-0.112-1.576-0.213-2.461-0.333c-0.421,0.567-0.899,1.213-1.616,2.178
			c-1.214,0-2.658,0-4.298,0c-0.168,0.547-0.399,1.303-0.659,2.151c-2.974-0.229-2.473,3.36-4.863,3.851
			c1.55,3.628,2.839,6.83,4.95,9.726c2.719,3.73,2.876,8.104,2.241,12.519c-1.496,0-2.94,0-5.159,0
			c-0.532-0.218-1.822-0.747-3.056-1.254c-0.984-1.376-1.936-2.708-2.849-3.985c2.598-7.708,1.78-15.043-1.405-22.503
			c-1.458,1.224-2.574,2.159-3.986,3.345c-0.768-2.574,0.885-4.349,0.671-6.411c1.396-0.09,2.561-0.063,3.681-0.276
			c0.661-0.126,1.25-0.631,1.901-0.982c1.005,0.256,2.012,0.513,3.162,0.806c1.662-1.215,3.324-2.43,5.006-3.659
			c0.272,0.608,0.515,1.154,0.82,1.836c0.264-0.36,0.467-0.51,0.48-0.674c0.22-2.876,0.38-5.757,0.652-8.627
			c0.053-0.56,0.685-1.06,0.757-1.625c0.067-0.527-0.255-1.103-0.35-1.453c-1.249-0.553-2.285-1.02-3.327-1.47
			c-0.935-0.404-2.263,0.943-2.824-0.586c-1.92,0.323-3.743,0.63-5.617,0.946c-1.896-2.876-4.03-5.607-4.886-8.67
			c0.952-2.07,3.043-2.063,3.923-3.894c0.62-1.291,2.892-1.788,4.677-2.779c-0.231-0.712-0.467-1.443-0.704-2.174
			c0.229-0.428,0.457-0.856,0.686-1.284c-0.124-0.05-0.249-0.1-0.374-0.149c-0.074,0.502-0.149,1.004-0.223,1.507
			c-1.457-0.293-2.549-0.785-2.862-2.573c-0.28-1.601-0.524-1.558-3.833-2.883c-4.832,1.651-2.648,6.199-3.625,9.912
			c-2.302-2.897-0.156-5.481-0.22-7.961c-0.066-2.597,0.941-5.221,1.372-7.313c1.126-1.349,1.913-2.293,2.701-3.237
			c-0.111-0.132-0.222-0.264-0.333-0.396c-0.657,0.314-1.313,0.628-1.832,0.876c-1.452-0.846-2.787-1.524-3.999-2.377
			c-0.519-0.366-1.1-1.098-1.098-1.661c0.006-1.359,0.339-2.717,0.546-4.12c1.75,0.48,3.369,0.924,4.789,1.313
			c1.816-1.579,3.333-2.897,4.606-4.004c-0.376-2.777-0.697-5.15-1.078-7.968c-2.59-0.865-4.303-4.783-8.535-2.734
			c-1.014-0.685-1.762-2.798-3.823-1.287c0-1.803,0.503-3.611-0.116-4.869c-0.969-1.972,1.155-2.63,1.122-4.152
			c-0.031-1.438-0.85-3.389,1.572-4.244c-0.041,0.615-0.072,1.095-0.126,1.921c2.093-1.336,3.964-2.529,6.151-3.924
			c0.031-0.685,0.081-1.815,0.14-3.127c1.045,0.093,1.957,0.174,3.134,0.279c0.488-0.354,1.212-0.879,1.897-1.377
			c0.173-0.964,0.333-1.856,0.507-2.823c-0.894-0.188-1.682-0.355-2.477-0.522c-0.127-0.535-0.232-0.979-0.347-1.464
			c-1.758-0.669-3.537-1.345-5.486-2.086c-0.668,0.551-1.621,1.337-2.574,2.124c-0.113-0.087-0.227-0.173-0.34-0.26
			c0.759-1.085,1.518-2.17,2.357-3.371c-0.722-1.426-1.424-2.813-2.281-4.507c1.991-2.104,4.138-4.373,6.442-6.808
			c-0.682,0.07-1.281,0.131-2.33,0.238c-0.264-1.506-0.533-3.042-0.854-4.873c-1.052-0.375-2.236-0.796-3.499-1.246
			c-0.519-2.386-0.154-2.875,3.756-4.855c2.41,0.456,2.092,2.818,3.134,4.48c1.869,0.231,3.836,0.475,6.003,0.743
			c0.345-0.759,0.716-1.572,1.122-2.464c0.315,0.192,0.783,0.316,0.835,0.537c0.25,1.065,0.388,2.157,0.615,3.537
			c1.817-1.925,4.047-1.966,6.453-1.965c0.521,2.75-1.917,3.044-3.154,4.145c-1.281,1.139-2.808,2.002-4.055,2.867
			c0.16,1.012,0.264,1.672,0.418,2.653c-1.778-1.067-3.091-1.1-3.891,0.283c1.63,0.765,3.255,1.528,5.09,2.389
			c-0.096-0.945-0.203-1.992-0.316-3.109c0.344-0.254,0.705-0.519,1.325-0.976c0.242,0.71,0.412,1.208,0.587,1.721
			c1.305,0.371,2.666,0.759,4.17,1.187c1.465-1.025-1.94-2.918,0.326-4.066c0.233,0.196,0.55,0.331,0.563,0.493
			c0.447,5.341,0.728,10.701,1.365,16.018c0.214,1.785,0.793,3.415-0.691,5.186c-0.976,0.336-2.184,0.752-3.524,1.214
			c0.104,0.411,0.208,0.827,0.414,1.642c1.089-0.786,1.951-1.409,2.9-2.093c0.883,1.596,1.65,2.982,2.486,4.493
			c1.012-0.346,1.743-0.596,2.765-0.946c-1.376-2.222,0.67-4.174,0.095-6.319c0.368,1.064,0.793,2.112,1.092,3.195
			c0.464,1.677,1.197,3.385,1.168,5.068c-0.035,2.039,1.053,2.751,2.98,3.918c-0.172-1.057-0.135-1.576-0.34-1.97
			c-1.642-3.153-1.564-6.429-0.997-9.827c0.416-2.493-0.167-5.025,0.603-7.609c0.411-1.38-0.824-3.25-1.316-4.899l0.1,0.101
			c-0.078-1.281-0.156-2.562-0.26-4.263c-0.274,0.935-0.429,1.466-0.584,1.996c-0.553-1.321-0.921-2.76,0.11-3.899
			c1.328-1.466,1.584-3.185,1.903-5.503c-1.076,0.919-1.815,1.55-2.267,1.937c-2.165-0.69-4.171-1.33-6.205-1.979
			c0,0.006-0.015-0.122,0.013-0.131c0.426-0.151,0.857-0.286,1.403-0.463c-1.248-3.94-4.607-4.47-8.067-5.109
			c-0.141-0.474-0.302-1.015-0.556-1.866c-1.46-0.387-3.084-0.818-5.003-1.327c-0.172-0.999-0.386-2.236-0.567-3.288
			c-1.628-1.397-3.131-2.685-4.767-4.089c1.804-0.89,3.355-1.655,4.894-2.414c2.14,0.683,0.985,2.955,2.103,4.16
			c1.069,1.152,1.896,2.528,3.018,4.063c1.112,0,2.448,0,3.873,0c0.1,0.391,0.243,0.947,0.45,1.756
			c0.518-0.485,0.952-0.892,1.465-1.373c0.456,0.304,0.922,0.615,1.253,0.836c1.74-1.146,3.427-2.258,5.2-3.425
			c0.753-1.221,1.591-2.581,2.535-4.112c-2.014-2.843-0.648-7.12-3.885-9.792c-0.684,0.582-1.385,1.177-2,1.7
			c-1.38-0.493-2.453-2.064-4.166-0.788c-0.178,0.132-0.63-0.041-0.93-0.146c-3.083-1.071-6.037-2.345-8.283-4.869
			c-1.516-1.703-1.57-3.823-2.217-5.981c1.324,0.389,2.33,0.685,3.542,1.041c-0.154-0.945-0.242-1.481-0.324-1.983
			c2.167-1.236,4.596,1.241,6.961-0.799c-2.653-2.349-5.65-3.879-9.047-5.003c-0.307-1.647-0.625-3.355-0.855-4.587
			c2.112-1.927,3.889-3.548,5.887-5.371c1.745-0.047,3.71-0.882,5.87-0.309c0.651,0.173,1.576-0.683,2.571-1.162
			c1.574,1.472,3.464,1.987,5.538,0.568C140.452,23.693,140.658,23.898,140.865,24.102z M184.07,113.986
			c0.966-3.096,0.551-6.931-0.447-9.067c-2.652-0.233-5.133-0.452-7.343-0.646c-0.641-0.835-1.085-1.413-1.529-1.991
			c-0.203,1.018-0.017,1.864,0.373,2.602c1.283,2.426,1.111,3.314-1.111,4.96c1.442,1.432,2.891,2.871,4.517,4.486
			c2.736-0.175,3.117-3.191,5-4.759C183.716,111.093,183.893,112.539,184.07,113.986z M168.73,91.068
			c-1.891-2.266-4.148-1.173-6.171-1.443c-1.391,3.717-1.391,3.717,1.104,6.132c-0.257,1.197-0.498,2.317-0.71,3.305
			c2.216,0,4.115,0,5.786,0c0.816-1.516,1.612-2.993,2.309-4.287C170.273,93.535,169.501,92.301,168.73,91.068z M130.672,155.174
			c2.025-0.598,3.466-1.024,5.018-1.482c0.985-2.096,0.126-4.253,0.172-6.476c-1.17-0.212-2.165-0.393-2.988-0.542
			c-1.141,1.658-2.236,3.248-3.516,5.108C129.745,152.781,130.187,153.923,130.672,155.174z M145.295,37.622
			c-0.776-1.24-1.539-1.694-2.773-1.206c-2.855,1.13-5.738,2.188-8.516,3.24c1.757,1.445,8.092,1.806,8.404,0.229
			c-0.794-0.117-1.582-0.233-2.26-0.333C141.224,37.038,143.988,40.019,145.295,37.622z M146.933,92.403
			c0.195,1.052,0.384,2.075,0.574,3.098c0.122-0.025,0.245-0.05,0.367-0.074c0-1.478,0-2.955,0-4.481c-0.962,0-1.735,0-2.759,0
			C145.876,91.555,146.409,91.983,146.933,92.403z M201.108,176.727c0.196,0.181,0.393,0.362,0.589,0.543
			c1.152-0.936,1.983-2.055,1.745-3.805C202.664,174.552,201.886,175.64,201.108,176.727z M161.908,107.72
			c0.214-2.103,0.214-2.103-1.189-3.834C160.77,105.408,160.285,106.835,161.908,107.72z M129.664,43.954
			c-0.321-0.038-0.642-0.077-0.963-0.115c-0.215,1.103-0.431,2.205-0.646,3.308c0.216,0.047,0.432,0.094,0.648,0.141
			C129.023,46.177,129.344,45.066,129.664,43.954z M139.558,124.618c0.987-0.388,1.537-0.604,2.655-1.044
			c-1.187-0.641-1.818-0.982-2.655-1.433C139.558,122.95,139.558,123.489,139.558,124.618z M148.06,101.102
			c1.393-2.067-0.403-2.993-0.925-4.19C147.412,98.163,147.688,99.415,148.06,101.102z M129.385,163.019c0-1.31,0-2.086,0-3.082
			C127.903,160.94,128.497,161.713,129.385,163.019z M144.202,117.816c0,0.919,0,1.837,0,3.295
			C145.45,119.774,145.338,118.854,144.202,117.816z M135.314,117.363c0.939-0.978,0.939-0.978-0.108-2.079
			C135.249,116.102,135.281,116.732,135.314,117.363z M119.548,78.882c-0.132-0.225-0.264-0.451-0.397-0.676
			c-0.372,0.297-0.744,0.593-1.116,0.89c0.099,0.144,0.199,0.287,0.298,0.431C118.738,79.312,119.143,79.097,119.548,78.882z
			 M149.227,117.457c-0.117,0-0.235-0.001-0.352-0.001c0,0.708,0,1.416,0,2.124c0.117,0,0.235,0.001,0.352,0.001
			C149.227,118.873,149.227,118.165,149.227,117.457z M172.076,129.602c0.188-0.099,0.376-0.199,0.564-0.298
			c-0.256-0.434-0.512-0.868-0.768-1.302c-0.162,0.085-0.324,0.17-0.486,0.255C171.616,128.706,171.846,129.154,172.076,129.602z
			 M168.061,130.612c0.144-0.084,0.288-0.168,0.431-0.251c-0.15-0.354-0.3-0.708-0.45-1.062c-0.254,0.132-0.508,0.264-0.761,0.397
			C167.54,130.001,167.801,130.306,168.061,130.612z M204.644,146.983c-0.14-0.107-0.28-0.215-0.419-0.322
			c-0.183,0.317-0.365,0.634-0.548,0.951c0.095,0.036,0.243,0.13,0.276,0.099C204.196,147.482,204.417,147.228,204.644,146.983z
			 M191.409,132.509c-0.15-0.074-0.288-0.164-0.439-0.202c-0.037-0.009-0.175,0.159-0.164,0.229c0.024,0.15,0.115,0.29,0.178,0.434
			C191.12,132.822,191.256,132.675,191.409,132.509z M115.843,91.121c-0.086-0.16-0.172-0.32-0.258-0.48
			c-0.263,0.198-0.525,0.396-0.788,0.594c0.059,0.07,0.139,0.209,0.174,0.198C115.268,91.345,115.554,91.229,115.843,91.121z"/>
		<path fill="#333333" d="M104.125,182.997c1.284,1.896,2.568,3.792,4.031,5.953c0.104,4.14-0.08,8.542-2.428,12.806
			c-0.512-0.647-0.972-1.227-1.429-1.805c0.377-1.056,0.728-2.038,1.072-3.002c-0.633-1.382-1.247-2.723-1.956-4.271
			c-0.581,0.056-1.221,0.117-2.073,0.198c-0.392-0.732-0.818-1.529-1.119-2.091c-8.089,2.778-15.738,6.385-22.041,12.164
			c-0.856-0.544-1.427-0.908-2.258-1.436c-0.364-1.474,0.179-3.716-2.22-4.446c2.171-2.867,4.802-4.906,7.978-6.36
			c1.57-0.719,2.915-1.928,4.565-3.054c-0.093-1.813-0.19-3.686-0.304-5.907c-0.603-0.3-1.507-0.749-2.794-1.39
			c1.976-1.07,3.63-1.966,5.587-3.026c-0.134-0.373-0.427-1.189-0.782-2.178c-1.348,0.473-2.646,0.928-4.05,1.421
			c-0.064-1.112-0.127-2.194-0.216-3.726c3.944-1.945,8.047-3.968,12.147-5.99c-2.66-0.183-5.019,1.256-7.313,1.81
			c-1.514-0.717-2.85-1.35-4.501-2.131c1.349-1.358,2.798-2.817,4.636-4.668c-1.601,0.242-2.737,0.414-4.011,0.607
			c0.731-1.388,1.383-2.627,2.251-4.276c0.576-0.37,1.547-0.994,2.519-1.619c-0.013-0.153-0.025-0.306-0.038-0.458
			c-1.094,0.094-2.189,0.188-3.65,0.313c0.436-0.975,0.8-1.79,1.239-2.77c-0.945-0.239-1.705-0.431-2.404-0.608
			c0.295-2.901,4.515-4.219,2.89-7.916c-0.158-0.013-0.465-0.037-0.935-0.075c-0.197-0.863-0.417-1.827-0.623-2.731
			c0.506-0.432,0.939-0.803,1.339-1.144c1.395,0,2.818,0,4.275,0c-0.199-1.771-0.363-3.23-0.531-4.728
			c3.155,1.125,5.924,2.522,7.069,6.612c0.005-0.084-0.377,0.963-0.03,1.341c1.597,1.742,2.455,3.713,2.525,5.903
			c0.7,0.655,1.299,1.214,1.996,1.866c-0.23,0.61-0.423,1.124-0.591,1.57c0.754,1.271,1.485,2.504,2.308,3.891
			c-1.031,0.409-1.657,0.657-2.072,0.822c0.905,2.771,2.121,5.44,2.588,8.234c0.435,2.605,1.745,5.473-0.627,8.057
			c0.762,2.606,1.461,5.289,1.065,8.084c-0.481,0.102-0.827,0.175-1.173,0.249c-0.938-0.245-1.875-0.491-2.813-0.736
			c-0.032,0.213-0.063,0.426-0.095,0.639C102.128,182.997,103.127,182.997,104.125,182.997z M94.075,183.113
			c-1.447-0.295-2.73,0.004-3.88,1.077c0.47,0.379,0.912,0.735,1.656,1.335c0.768-0.87,1.472-1.669,2.177-2.468
			c1.693,0,3.385,0,5.078,0C97.401,182.545,95.652,181.809,94.075,183.113z"/>
		<path fill="#333333" d="M197.958,401.27c-1.007-1.831-0.954-3.604-0.433-5.711c1.064-4.307,1.529-8.758,2.359-13.128
			c1.003-5.281,2.058-10.554,3.236-15.798c0.422-1.88,0.697-3.731,0.892-5.651c0.327-3.227,1.201-6.401,1.896-9.587
			c0.797-3.649,1.752-7.266,2.452-10.933c0.811-4.243,1.4-8.527,2.122-12.787c0.737-4.349,1.45-8.704,2.294-13.033
			c1.314-6.74,2.745-13.458,4.098-20.191c1.403-6.984,2.844-13.962,4.13-20.969c0.88-4.797,1.404-9.66,2.304-14.452
			c1.091-5.81,2.411-11.577,3.666-17.525c1.292,0.275,2.475,0.527,3.892,0.829c-0.539,3.232-1.009,6.419-1.609,9.581
			c-1.547,8.15-3.159,16.287-4.729,24.432c-1.019,5.288-2.013,10.582-3.011,15.874c-0.824,4.366-1.695,8.725-2.444,13.105
			c-1.071,6.256-1.987,12.539-3.094,18.788c-0.607,3.426-1.575,6.787-2.198,10.211c-1.921,10.552-3.669,21.137-5.647,31.678
			c-1.759,9.38-3.716,18.724-5.625,28.076C201.905,397.031,200.668,399.634,197.958,401.27z"/>
		<path fill="#333333" d="M251.65,205.871c-1.387-2.613,0.469-5.012,0.51-7.695c-1.01-0.154-2.035-0.309-3.164-0.481
			c-0.711-0.679-1.447-1.445-2.249-2.134c-1.373-1.18-2.909-1.926-4.799-1.928c-2.281-0.002-4.494-0.172-6.379-1.853
			c-0.82-0.732-2.102-0.946-3.306-1.451c-0.453-0.827-0.956-1.744-1.578-2.88c-2.368,1.73-3.528,5.121-7.088,5.34
			c-0.338-1.645-0.68-3.305-1.076-5.23c0.769,0.083,1.339,0.145,1.935,0.209c0.63-1.628-1.143-1.838-1.612-2.806
			c0.619-1.066,1.247-2.145,1.881-3.236c-0.346-1.402-0.679-2.747-1.024-4.142c-1.151-0.146-1.478-1.821-3.103-1.583
			c-0.549,0.08-1.289-1.489-2.022-2.225c-0.816-0.819-1.723-1.548-2.986-2.667c0-0.459,0-1.484,0-2.779
			c1.045-0.188,2.032-0.366,3.052-0.549c1.171-1.374-0.436-2.243-0.842-3.432c0.588-1.117,1.177-2.236,1.953-3.712
			c1.033,3.5,3.734,5.236,5.988,7.525c-0.375,1.034-0.77,2.123-1.223,3.372c0.688,0.756,1.364,1.498,2.202,2.418
			c0.794-0.739,1.457-1.358,2.226-2.074c2.321,1.718,5.133,1.136,7.941,1.473c1.03,2.302-0.074,4.85,0.539,6.915
			c5.17,2.252,10.163,4.428,14.932,6.506c0.902,3.325,1.69,6.23,2.56,9.437c-0.153,0.792-0.634,1.948-0.535,3.052
			c0.214,2.391-1.24,4.206-1.859,6.298c-0.043,0.145-0.649,0.122-0.994,0.178L251.65,205.871z M248.125,191.846
			c0.156-0.12,0.312-0.24,0.467-0.36c-0.282-0.309-0.564-0.619-0.847-0.928c-0.117,0.11-0.234,0.22-0.351,0.33
			C247.638,191.207,247.882,191.527,248.125,191.846z"/>
		<path fill="#333333" d="M187.186,234.889c-1.796-2.841-1.77-5.097-0.819-7.563c0.774-2.007,1.711-4.019,0.974-6.378
			c-0.329-1.052,0.128-2.331,0.106-3.505c-0.014-0.755-0.252-1.506-0.485-2.78c-1.577,1.769-1.201,3.391-1.249,4.926
			c-0.076,2.399-0.379,2.658-3.217,2.993c-1.383-3.049-0.682-5.697,1.888-7.622c-0.941-2.992-2.557-5.914-2.57-8.842
			c-0.011-2.548-1.548-4.212-1.957-6.408c-0.22-1.181-0.993-2.259-1.61-3.586c-1.655-0.62-3.355-0.815-4.7,0.829
			c-0.931-2.111-1.95-4.23-2.811-6.411c-1.5-3.802-0.772-7.617,0.024-11.776c1.934,0.842,3.653,1.591,5.592,2.435
			c0.432-1.035,0.772-1.847,1.2-2.87c0.537-0.055,1.208-0.125,2.082-0.215c0,0.655,0,1.174,0,1.972
			c0.82,0.253,1.754,0.542,2.601,0.804c1.104-1.598,0.139-2.393-0.727-3.24c0.6-0.987,1.193-1.961,1.811-2.977
			c-1.251-1.924-2.447-3.765-3.784-5.823c1.634-2.025,3.32-4.114,5.487-6.798c0.251,1.543,0.463,2.282,0.475,3.025
			c0.042,2.717-0.146,5.446,0.058,8.148c0.28,3.719,0.905,7.411,1.249,11.126c0.184,1.992,0.184,4.014,0.094,6.014
			c-0.101,2.271-0.475,4.531-0.569,6.802c-0.042,1.018,0.206,2.08,0.493,3.074c1.622,5.614,1.468,11.374,1.548,17.125
			c0.022,1.623,0.409,3.237,0.517,4.862c0.098,1.471,0.297,3.004,0.003,4.417C188.356,229.214,188.851,232.01,187.186,234.889z"/>
		<path fill="#333333" d="M100.503,232.724c-1.926-0.166-3.089-0.875-3.067-3.007c-0.586,0.482-1.072,0.884-1.542,1.271
			c-1.734-0.36-1.912-1.649-1.857-2.998c0.157-3.88,0.434-7.741,3.052-11.181c-1.991,0.09-3.685,0.166-5.629,0.254
			c-0.349-3.352,2.27-5.685,2.009-9.376c1.12,1.775,1.839,2.914,2.95,4.675c0-2.262,0-3.825,0-5.637
			c0.936,0.097,1.57,0.163,2.547,0.264c0.419-0.343,1.109-0.908,1.934-1.584c0.875,1.058,1.674,2.025,2.811,3.401
			c0.484-1.623,0.853-2.86,1.321-4.428c1.243,1.845-0.133,3.222-0.359,4.641c-0.222,1.391-0.628,2.752-1.06,4.58
			c0.594,0.961,1.523,2.437,2.425,3.93c1.06,1.756,0.987,2.61-0.357,4.06c-0.636,0.686-1.322,1.325-1.978,1.993
			c-1.388,1.414-2.15,3.05-1.903,5.092C101.974,230.115,101.864,231.509,100.503,232.724z"/>
		<path fill="#333333" d="M251.529,205.737c0.16,0.668,0.321,1.337,0.547,2.279c-0.278,0.687-0.668,1.649-1.151,2.841
			c0.618,0.378,1.169,0.716,1.686,1.033c0.196,1.185,0.399,2.413,0.659,3.99c-0.436,0.33-1.081,0.818-2.355,1.782
			c-0.291,1.721-2.04,3.233-4.735,4.095c0.436,0.758,0.74,1.286,1.088,1.89c-0.404,0.579-0.824,1.181-1.278,1.831
			c-0.449-0.367-0.802-0.656-1.17-0.957c-1.83,0.583-1.254,3.482-3.916,3.943c1.092-2.074,2.272-3.684,2.819-5.486
			c1.141-3.758,2.137-7.585,2.787-11.452c0.222-1.319-0.677-2.881-1.24-4.261c-0.477-1.17-1.206-2.236-1.828-3.357
			c0.088-0.667,0.189-1.427,0.333-2.518c0.678,0.746,1.196,1.315,1.748,1.921c0.24-0.193,0.56-0.452,1.088-0.878
			c1.641,1.12,3.34,2.28,5.039,3.44L251.529,205.737z M246.567,217.334c0.099,1.041,0.157,1.647,0.234,2.456
			C248.18,218.994,248.332,218.374,246.567,217.334z"/>
		<path fill="#333333" d="M173.743,254.57c-0.117-0.504-0.248-1.069-0.422-1.817c-0.509-0.065-1.058-0.135-1.742-0.223
			c-1.178-2.04-2.398-4.153-3.526-6.108c0.5-4.67,0.984-9.195,1.455-13.604c2.174,0.556,4.425,1.132,7.338,1.877
			c-1.405,0.982-2.349,1.641-3.448,2.409c0.469,0.937,0.927,1.852,1.434,2.864c-0.938,1.944-0.344,3.801,0.67,5.608
			c0.517,0.921,1.162,1.804,1.489,2.791c0.457,1.379,0.497,2.658-1.113,3.615C174.988,252.512,174.465,253.659,173.743,254.57z"/>
		<path fill="#333333" d="M140.801,222.248c-0.71-1.241-1.153-2.018-1.594-2.788c-0.817,0.435-1.67,0.889-2.732,1.455
			c-1.15-3.102-2.197-5.928-3.32-8.957c0.836-1.493,2.002-3.124,0.801-5.174c0.484-0.785,0.97-1.573,1.438-2.332
			c1.269-0.213,2.422-0.407,3.924-0.659c0.671,2.417,1.716,4.838,1.261,7.323c-0.531,2.901-1.173,5.662,0.183,8.502
			C141.033,220.187,140.801,220.997,140.801,222.248z M138.519,216.85c-0.189,0.328-0.395,0.527-0.367,0.683
			c0.027,0.149,0.298,0.253,0.462,0.376C138.587,217.603,138.56,217.297,138.519,216.85z"/>
		<path fill="#333333" d="M93.994,136.422c1.104-3.974-1.201-7.854,0.578-11.848c0.891,0,1.993,0,3.397,0
			c-0.147,1.788-0.349,3.58-0.429,5.377c-0.115,2.593,1.296,4.704,2.362,6.905c1.687,3.483,2.629,7.16,3.415,11.704
			c-1.605-3.09-2.812-5.479-4.079-7.836C98.115,138.634,96.456,137.111,93.994,136.422z"/>
		<path fill="#333333" d="M130.689,240.387c0.902-1.502,1.577-2.626,2.521-4.197c0.936,3.047,1.788,5.439,2.389,7.892
			c0.546,2.23-0.432,3.141-2.652,2.664c-1.678-0.36-3.378-0.701-4.986-1.28c-0.897-0.323-1.89-0.952-2.373-1.733
			c-0.927-1.498-1.522-3.201-2.253-4.815C125.743,239.399,128.141,239.878,130.689,240.387z"/>
		<path fill="#333333" d="M134.585,260.394c0.77,1.243,2.667,1.723,1.673,3.571c-4.201,2.147-8.49,1.403-13.001,0.447
			c-0.863-1.768-1.779-3.644-2.797-5.729c2.588-0.599,3.79,1.032,5.235,2.982C128.546,261.257,131.588,260.822,134.585,260.394z"/>
		<path fill="#333333" d="M178.194,218.762c1.168,1.487,0.276,2.456-0.989,3.411c2.761,3.298,1.868,6.77,1.005,10.428
			c-0.675-0.332-1.174-0.578-1.697-0.836c-0.149-2.521-0.292-4.942-0.427-7.223c-1.698-0.366-3.03-0.654-4.718-1.018
			c0.215-1.183,0.107-2.26,0.593-2.844c0.61-0.734,1.654-1.244,2.606-1.522C175.646,218.843,176.832,218.893,178.194,218.762z"/>
		<path fill="#333333" d="M128.187,57.061c0.998-0.134,1.683-0.227,2.426-0.326c0.067-0.397,0.131-0.776,0.251-1.481
			c1.23,0.293,2.442,0.817,3.648,0.801c1.172-0.015,2.337-0.583,3.528-0.914c0.973,2.627-0.02,4.367-3.732,6.433
			C132.359,60.137,130.474,58.747,128.187,57.061z"/>
		<path fill="#333333" d="M189.508,399.663c-1.125,1.775-1.119,4.299-3.867,4.707c-1.36,0.202-2.684,0.642-4.178,1.012
			c-0.791-0.142-1.811-0.326-3.037-0.546c-0.138-0.438-0.305-0.968-0.554-1.762c-1.247,0-2.576,0-3.906,0
			c-0.002-0.139-0.004-0.278-0.006-0.417c1.904-0.32,3.814-0.931,5.712-0.896C183.114,401.823,186.397,401.528,189.508,399.663z"/>
		<path fill="#333333" d="M150.172,43.413c0.255-3.005,0.51-6.01,0.747-8.8c2.63-2.83,2.63-2.83,4.88-3.189
			c-0.818,3.223-1.502,6.32-2.415,9.348c-0.452,1.501-1.634,2.46-3.336,2.519L150.172,43.413z"/>
		<path fill="#333333" d="M150.102,71.79c4.168-2.734,8.859-2.422,13.241-3.479c0.866-0.209,1.93,0.403,3.428,0.762
			c-2.892,2.144-5.275,3.363-8.549,2.808C155.586,71.434,152.814,71.79,150.102,71.79z"/>
		<path fill="#333333" d="M153.411,153.317c0.467-0.665,1.195-1.699,1.971-2.803c2.75,1.907-1.015,5.014,1.983,6.793
			c-1.325,1.149-2.422,2.101-3.954,3.43C153.411,158.1,153.411,156.074,153.411,153.317z"/>
		<path fill="#333333" d="M144.024,148.173c-0.758,0-1.547,0-2.566,0c0.306-0.713,0.553-1.29,0.912-2.125
			c-0.488-0.327-1.017-0.681-1.563-1.047c0.559-0.956,1.122-1.92,1.691-2.895C145.576,142.577,145.662,142.906,144.024,148.173z"/>
		<path fill="#333333" d="M153.617,178.886c0.821,2.017,1.642,4.034,2.467,6.059c1.256-0.386,2.656-0.817,4.056-1.247
			c-1.048,2.066-2.962,2.24-4.753,2.838c-2.359-2.273-1.33-5.151-1.683-7.72L153.617,178.886z"/>
		<path fill="#333333" d="M87.443,413.278c-0.666,1.105-1.234,2.047-1.889,3.133c-0.925-0.798-1.838-1.585-2.74-2.363
			C84.443,411.604,85.044,411.495,87.443,413.278z"/>
		<path fill="#333333" d="M144.707,185.096c-1.419,0.209-2.578,0.116-3.124-2.103c1.079,0.665,1.73,1.066,2.59,1.596
			c0.348-2.643,0.67-5.089,0.991-7.536C145.252,179.768,146.65,182.622,144.707,185.096z"/>
		<path fill="#333333" d="M142.997,241.171c-0.622,1.142-1.112,2.045-1.69,3.106c-0.548-0.814-1.08-1.604-1.697-2.522
			c0.371-1.108,0.764-2.284,1.33-3.975C141.777,239.158,142.345,240.096,142.997,241.171z"/>
		<path fill="#333333" d="M143.399,182.443c-1.26-1.152-1.989-1.819-2.719-2.487c0.862-1.57,1.754-3.195,2.825-5.146
			C143.39,177.424,143.548,179.719,143.399,182.443z"/>
		<path fill="#333333" d="M116.38,50.772c-1.851,0.498-1.851,0.498-3.636,2.566c-0.36-0.433-0.693-0.831-1.024-1.232
			c-0.366-0.444-0.731-0.889-1.297-1.579c0.76-0.2,1.369-0.529,1.941-0.475C113.62,50.172,114.856,50.485,116.38,50.772z"/>
		<path fill="#333333" d="M149.474,149.651c-1.674-1.271-1.674-1.271-1.029-3.879c0.88-0.072,1.851-0.152,3.255-0.267
			c-0.937,1.694-1.644,2.974-2.352,4.254L149.474,149.651z"/>
		<path fill="#333333" d="M167.259,304.132c-3.13,0.771-6.26,1.547-9.394,2.301c-0.207,0.05-0.453-0.064-0.689-0.104
			C160.934,304.651,164.393,303.801,167.259,304.132z"/>
		<path fill="#333333" d="M155.874,181.373c0.439-0.826,0.698-1.315,1.046-1.97c0.975,0.577,1.821,1.077,2.705,1.601
			c-0.642,0.695-1.15,1.246-1.8,1.949C157.165,182.418,156.579,181.944,155.874,181.373z"/>
		<path fill="#333333" d="M161.949,179.547c-0.352-1.295-0.567-2.086-0.888-3.265c0.161-0.269,0.567-0.949,0.983-1.644
			c0.757,0.722,1.188,1.693,1.449,3.377C163.114,178.391,162.617,178.883,161.949,179.547z"/>
		<path fill="#333333" d="M141.539,89.363c0.119,1.439,0.238,2.877,0.399,4.829c-0.055,0.053-0.53,0.505-1.004,0.956l0.094,0.11
			c-0.252-1.941-0.503-3.882-0.751-5.794c0.695,0,1.029,0,1.362,0L141.539,89.363z"/>
		<path fill="#333333" d="M140.575,135.008c0.768-0.917,1.492-1.782,2.547-3.04c0.249,0.959,0.676,1.65,0.488,2.058
			C143.07,135.198,142.126,135.822,140.575,135.008z"/>
		<path fill="#333333" d="M175.053,202.088c-2.184-0.847-2.184-0.847-1.836-3.29C174.964,199.311,174.841,200.685,175.053,202.088z"
			/>
		<path fill="#333333" d="M142.489,21.147c2.09-0.265,2.09-0.265,2.986,2.639C143.783,23.099,143.783,23.099,142.489,21.147z"/>
		<path fill="#333333" d="M221.65,231.492c1.988,0.784,3.976,1.569,6.011,2.372c-2.615,0.899-4.252-1.065-6.317-1.709
			C221.446,231.933,221.548,231.713,221.65,231.492z"/>
		<path fill="#333333" d="M163.395,309.451c-0.532,1.024-0.9,1.732-1.626,3.13c-0.525-1.059-0.876-1.769-1.279-2.583
			c-0.046,0.049,0.147-0.344,0.404-0.391C161.574,309.483,162.282,309.507,163.395,309.451z"/>
		<path fill="#333333" d="M140.865,24.102c-0.206-0.204-0.413-0.409-0.619-0.613c0.083-0.421,0.165-0.843,0.291-1.486
			c1.522,0.752,2.505,1.659,3.392,3.708C142.504,24.963,141.684,24.532,140.865,24.102z"/>
		<path fill="#333333" d="M87.281,217.485c0.36-0.534,0.628-1.067,1.028-1.468c0.198-0.199,0.638-0.156,1.228-0.275
			c0.23,0.862,0.448,1.68,0.721,2.709C89.216,218.113,88.281,217.81,87.281,217.485z"/>
		<path fill="#333333" d="M109.369,301.268c1.428,1.125,2.856,2.249,4.788,3.771C111.444,304.603,110.223,303.188,109.369,301.268z"
			/>
		<path fill="#333333" d="M109.504,271.424c-0.572-1.004-0.851-1.495-1.123-1.973c0.306-0.358,0.534-0.623,0.833-0.972
			c0.569,0.298,1.138,0.596,1.945,1.018C110.663,270.075,110.252,270.553,109.504,271.424z"/>
		<path fill="#333333" d="M160.123,308.007c2.067-0.882,4.166-1.584,6.509-0.843c-2.201,0.246-4.401,0.492-6.602,0.738
			L160.123,308.007z"/>
		<path fill="#333333" d="M152.286,147.593c0.438,0.366,0.693,0.579,1.135,0.948c-0.313,0.595-0.635,1.206-1.092,2.074
			c-0.6-0.553-0.991-0.913-1.56-1.438C151.309,148.614,151.791,148.11,152.286,147.593z"/>
		<path fill="#333333" d="M114.391,241.012c-0.67-0.927-0.623-1.881,0.48-3.651c0.207,1.676,0.325,2.627,0.442,3.579
			C115.005,240.964,114.698,240.988,114.391,241.012z"/>
		<path fill="#333333" d="M248.702,201.222c0.481-0.686,0.857-1.221,1.702-2.425c0.203,1.577,0.313,2.432,0.507,3.938
			C249.827,201.993,249.323,201.648,248.702,201.222z"/>
		<path fill="#333333" d="M191.856,156.833c-0.276,0.906-0.551,1.812-0.926,3.044c-1.647-1.624-0.438-2.37,0.17-3.223
			C191.352,156.713,191.604,156.773,191.856,156.833z"/>
		<path fill="#333333" d="M161.896,173.661c-1.249,0.53-2.498,1.059-3.747,1.589c-0.073-0.17-0.146-0.34-0.219-0.51
			c1.244-0.54,2.488-1.081,3.732-1.621C161.74,173.3,161.818,173.48,161.896,173.661z"/>
		<path fill="#333333" d="M135.696,90.538c-0.223-0.761-0.446-1.522-0.749-2.558c2.068,0.324,1.451,1.457,1.515,2.294
			C136.207,90.362,135.951,90.45,135.696,90.538z"/>
		<path fill="#333333" d="M145.304,161.473c-0.409-1.375-0.616-2.071-0.876-2.944C146.189,159.106,146.189,159.106,145.304,161.473z
			"/>
		<path fill="#333333" d="M115.291,268.312c-0.877,1.203-1.543,1.679-2.47,0.224c0.334-0.272,0.667-0.732,1.079-0.82
			C114.232,267.645,114.661,268.021,115.291,268.312z"/>
		<path fill="#333333" d="M116.627,239.65c0.055-0.778,0.109-1.556,0.164-2.334c0.14-0.027,0.279-0.054,0.419-0.081
			c0.077,0.38,0.159,0.759,0.228,1.14c0.073,0.398,0.133,0.799,0.199,1.198C117.301,239.598,116.964,239.624,116.627,239.65z"/>
		<path fill="#333333" d="M140.934,95.148c-0.789,0.73-1.579,1.459-2.368,2.189c0.471-1.159,0.823-2.502,2.463-2.079L140.934,95.148
			z"/>
		<path fill="#333333" d="M171.391,72.191c-1.196,0-2.391,0-3.587,0c-0.003-0.082-0.007-0.163-0.01-0.245c1.197,0,2.393,0,3.59,0
			C171.386,72.028,171.389,72.109,171.391,72.191z"/>
		<path fill="#333333" d="M153.202,66.722c0.831-0.511,1.663-1.023,2.494-1.534c0.121,0.183,0.242,0.367,0.363,0.55
			c-0.789,0.549-1.577,1.098-2.366,1.646C153.53,67.164,153.366,66.943,153.202,66.722z"/>
		<path fill="#333333" d="M251.975,221.479c-0.504-0.757-0.796-1.194-1.17-1.756C252.538,219.774,252.538,219.774,251.975,221.479z"
			/>
		<path fill="#333333" d="M116.055,56.062c-0.644-0.093-1.288-0.186-2.134-0.308c1.501-1.102,1.501-1.102,2.029,0.42L116.055,56.062
			z"/>
		<path fill="#333333" d="M149.348,149.759c0.697,0.632,1.394,1.263,2.584,2.342c-2.101-0.446-2.101-0.446-2.457-2.451
			L149.348,149.759z"/>
		<path fill="#333333" d="M107.026,308.741c0-1.119,0-1.786,0-2.648C108.257,306.794,108.562,307.436,107.026,308.741z"/>
		<path fill="#333333" d="M140.971,162.369c0.073-0.835,0.111-1.269,0.177-2.027c0.675,0.37,1.123,0.615,1.715,0.939
			C142.229,161.645,141.771,161.908,140.971,162.369z"/>
		<path fill="#333333" d="M110.475,311.425c0-0.797,0-1.224,0-1.806c0.614,0,1.13,0,1.902,0
			C111.722,310.24,111.215,310.722,110.475,311.425z"/>
		<path fill="#333333" d="M156.181,310.875c0.588,0.073,0.915,0.114,1.319,0.165c-0.186,0.679-0.354,1.293-0.633,2.316
			C156.587,312.345,156.402,311.677,156.181,310.875z"/>
		<path fill="#333333" d="M152.418,174.325c-0.229-0.533-0.457-1.066-0.686-1.6c0.138-0.069,0.276-0.139,0.413-0.208
			c0.213,0.229,0.516,0.426,0.613,0.696c0.107,0.3,0.024,0.667,0.024,1.005C152.662,174.254,152.54,174.289,152.418,174.325z"/>
		<path fill="#333333" d="M154.058,220.744c0,0.65,0,1.3,0,1.95c-0.044,0.001-0.089,0.002-0.133,0.003
			c-0.048-0.645-0.095-1.29-0.143-1.935C153.873,220.756,153.966,220.75,154.058,220.744z"/>
		<path fill="#333333" d="M247.996,227.762c0.911-0.931,1.318-2.089,2.137-0.2C249.526,227.618,248.996,227.668,247.996,227.762z"/>
		<path fill="#333333" d="M104.353,272.99c-0.048-0.389-0.204-0.807-0.107-1.156c0.063-0.229,0.491-0.358,1.031-0.713
			c-0.046,0.801-0.077,1.333-0.107,1.864C104.897,272.987,104.625,272.989,104.353,272.99z"/>
		<path fill="#333333" d="M166.885,308.701c0.046,0.69,0.081,1.223,0.15,2.26C166.031,309.987,165.111,309.513,166.885,308.701z"/>
		<path fill="#333333" d="M226.248,170.959c0.292-0.373,0.584-0.745,0.876-1.118c0.116,0.082,0.231,0.163,0.347,0.245
			c-0.266,0.394-0.532,0.788-0.797,1.182C226.532,171.165,226.39,171.062,226.248,170.959z"/>
		<path fill="#333333" d="M169.802,265.263c-0.114-0.276-0.264-0.535-0.302-0.809c-0.009-0.068,0.462-0.308,0.513-0.26
			c0.203,0.194,0.328,0.47,0.482,0.716C170.305,265.006,170.115,265.103,169.802,265.263z"/>
		<path fill="#333333" d="M152.12,170.768c-0.165,0.289-0.311,0.594-0.517,0.85c-0.028,0.035-0.357-0.173-0.547-0.268
			c0.204-0.289,0.409-0.578,0.613-0.867C151.82,170.577,151.97,170.673,152.12,170.768z"/>
		<path fill="#333333" d="M153.704,178.817c-0.276-0.734-0.553-1.468-0.829-2.202c0.199-0.051,0.398-0.103,0.598-0.154
			c0.048,0.809,0.096,1.617,0.145,2.426L153.704,178.817z"/>
		<path fill="#333333" d="M115.95,56.175c0.662,0,1.324,0,2.229,0c-1.174,1.152-1.174,1.152-2.124-0.113L115.95,56.175z"/>
		<path fill="#333333" d="M119.429,186.574c0.211,0.25,0.421,0.5,0.632,0.749c-0.098,0.078-0.195,0.157-0.293,0.235
			c-0.199-0.259-0.398-0.519-0.598-0.778C119.256,186.711,119.342,186.642,119.429,186.574z"/>
		<path fill="#333333" d="M109.285,82.975c-0.319,0.239-0.637,0.477-0.956,0.716c-0.121-0.122-0.243-0.244-0.364-0.367
			c0.277-0.299,0.555-0.598,0.832-0.897C108.959,82.61,109.122,82.792,109.285,82.975z"/>
		<path fill="#333333" d="M163.822,121.68c0.113,0.376,0.226,0.751,0.34,1.127c-0.1,0.043-0.199,0.087-0.299,0.13
			c-0.19-0.33-0.38-0.66-0.57-0.99C163.469,121.858,163.646,121.769,163.822,121.68z"/>
		<path fill="#333333" d="M103.56,372.067c0.378-0.325,0.756-0.65,1.134-0.975c0.129,0.13,0.258,0.261,0.386,0.391
			c-0.325,0.341-0.65,0.681-0.976,1.022C103.923,372.359,103.742,372.213,103.56,372.067z"/>
		<path fill="#333333" d="M142.951,140.863c-0.285,0.096-0.543,0.23-0.806,0.244c-0.09,0.005-0.196-0.294-0.294-0.453
			c0.243-0.146,0.486-0.291,0.729-0.437C142.682,140.395,142.784,140.572,142.951,140.863z"/>
		<path fill="#333333" d="M143.508,155.021c0.144-0.421,0.289-0.842,0.433-1.262c0.11,0.028,0.221,0.057,0.331,0.085
			c-0.072,0.438-0.144,0.877-0.217,1.315C143.873,155.113,143.691,155.067,143.508,155.021z"/>
		<path fill="#333333" d="M161.218,213.749c-0.023,0.395-0.046,0.789-0.069,1.184c-0.049-0.003-0.098-0.006-0.147-0.009
			c0.021-0.395,0.043-0.789,0.064-1.184C161.116,213.742,161.167,213.745,161.218,213.749z"/>
		<path fill="#333333" d="M109.204,305.745c-0.298-0.219-0.595-0.438-0.893-0.657c0.107-0.134,0.215-0.268,0.322-0.401
			c0.27,0.25,0.539,0.5,0.809,0.75C109.363,305.539,109.283,305.642,109.204,305.745z"/>
		<path fill="#333333" d="M113.081,172.804c0.174,0.044,0.347,0.089,0.519,0.134c-0.081,0.125-0.162,0.249-0.243,0.374
			C113.266,173.143,113.173,172.974,113.081,172.804z"/>
		<path fill="#333333" d="M160.03,307.902c-0.485,0.247-0.969,0.494-1.454,0.741c-0.042-0.153-0.085-0.307-0.127-0.46
			c0.558-0.059,1.116-0.118,1.674-0.176L160.03,307.902z"/>
		<path fill="#333333" d="M165.098,128.542c-0.094-0.347-0.187-0.693-0.281-1.04c0.186,0.011,0.371,0.023,0.557,0.034
			c-0.121,0.314-0.242,0.629-0.364,0.943L165.098,128.542z"/>
		<path fill="#333333" d="M86.497,169.524c-0.297-0.222-0.593-0.444-0.89-0.666c0.109-0.133,0.217-0.267,0.326-0.401
			c0.265,0.251,0.53,0.502,0.796,0.753C86.651,169.315,86.574,169.419,86.497,169.524z"/>
		<path fill="#333333" d="M113.111,264.715c0.247,0.266,0.495,0.532,0.742,0.799c-0.1,0.104-0.2,0.209-0.3,0.313
			c-0.281-0.224-0.563-0.449-0.844-0.673C112.843,265.007,112.977,264.861,113.111,264.715z"/>
		<path fill="#333333" d="M144.243,370.971c-0.413-0.074-0.702-0.125-0.992-0.177c0.168-0.145,0.335-0.29,0.503-0.434
			C143.882,370.52,144.011,370.681,144.243,370.971z"/>
		<path fill="#333333" d="M107.663,266.893c0.341-0.22,0.682-0.44,1.022-0.66c0.039,0.181,0.079,0.363,0.118,0.544
			c-0.414,0-0.828,0-1.242,0L107.663,266.893z"/>
		<path fill="#333333" d="M107.562,266.778c-0.453,0.244-0.905,0.489-1.358,0.733c-0.05-0.15-0.1-0.3-0.15-0.451
			c0.536-0.056,1.073-0.111,1.609-0.167L107.562,266.778z"/>
		<path fill="#333333" d="M131.466,17.078c-0.202,0.051-0.445,0.193-0.593,0.125c-0.166-0.075-0.246-0.339-0.363-0.521
			c0.222-0.053,0.471-0.191,0.657-0.131C131.308,16.597,131.37,16.892,131.466,17.078z"/>
		<path fill="#333333" d="M220.954,155.479c0.239,0.484,0.478,0.967,0.716,1.451c-0.134,0.053-0.267,0.107-0.401,0.16
			c-0.068-0.57-0.136-1.141-0.204-1.711L220.954,155.479z"/>
		<path fill="#333333" d="M131.524,131.341c0.875,0.195,1.156,0.258,1.437,0.32c-0.079,0.198-0.157,0.396-0.236,0.594
			C132.487,132.074,132.249,131.892,131.524,131.341z"/>
	</g>
</g>
</svg>
