<?xml version="1.0" encoding="utf-8"?>
<!-- Generator: Adobe Illustrator 17.1.0, SVG Export Plug-In . SVG Version: 6.00 Build 0)  -->
<!DOCTYPE svg PUBLIC "-//W3C//DTD SVG 1.1//EN" "http://www.w3.org/Graphics/SVG/1.1/DTD/svg11.dtd">
<svg version="1.1" id="Calque_1" xmlns="http://www.w3.org/2000/svg" xmlns:xlink="http://www.w3.org/1999/xlink" x="0px" y="0px"
	 viewBox="0 0 314.869 421.47" enable-background="new 0 0 314.869 421.47" xml:space="preserve">
<g>
	<g>
		<path fill="#333333" d="M86.484,66.357c4.531-0.484,7.668,4.113,12.673,3.166c-0.62-0.816-0.994-1.31-1.771-2.333
			c1.42,0.623,2.299,1.009,3.4,1.491c-0.779-1.425-1.042-2.003,0.946-2.478c3.443-0.823,6.657-1.51,9.821,0.979
			c0.091-0.245,0.181-0.489,0.272-0.734c-0.812-0.539-1.757-0.953-2.409-1.643c-1.735-1.838-3.603-3.631-4.933-5.748
			c-1.469-2.337-4.372-3.13-7.951-1.13c-2.092-7.191-4.144-14.247-6.45-22.177c1.553,0.683,2.57,0.864,3.215,1.454
			c8.87,8.106,17.89,16.062,26.437,24.499c4.586,4.527,8.266,9.938,9.24,17.14c-0.786-0.545-1.242-0.861-1.961-1.36
			c-0.403,2.827-1.899,4.377-4.701,4.248c0,0.921,0,1.677,0,2.671c1.171-0.07,2.348-0.14,4.258-0.254
			c-1.008,0.744-1.505,1.175-2.06,1.51c-3.726,2.241-7.393,4.595-11.23,6.628c-1.721,0.912-3.769,1.547-5.705,1.655
			c-6.261,0.348-12.174-0.941-17.208-4.939c-1.612-1.28-2.998-2.847-4.195-4.929c0.999,0.247,1.997,0.494,2.954,0.731
			c-0.035-0.464-0.352-1.281-0.08-1.607c2.248-2.695,3.299-6.556,6.865-7.933c1.836-0.709,3.995-0.582,6.123-0.847
			C97.512,71.078,91.51,69.596,86.484,66.357z"/>
		<path fill="#333333" d="M113.083,299.425c-1.089-0.43-1.684-0.664-2.34-0.923c0,0.333-0.11,0.681,0.017,0.878
			c1.442,2.236,0.94,4.363-0.078,6.618c-1.293,2.864-0.446,6.014,1.992,7.736c-0.941,0.319-1.76,0.553-2.547,0.871
			c-2.958,1.194-6.277,1.612-7.867,5.201c-0.676,1.525-2.759,2.368-3.961,3.734c-1.525,1.733-2.816,3.675-4.185,5.543
			c-0.609,0.831-1.164,1.703-1.528,2.239c0.914-0.195,2.502-0.534,4.089-0.872c0.07,0.215,0.14,0.43,0.21,0.645
			c-2.466,0.992-4.885,2.149-7.427,2.87c-0.709,0.201-2.28-0.673-2.602-1.422c-1.17-2.721-1.979-5.597-2.564-8.73
			c1.056,1.121,2.112,2.242,2.675,2.841c0.335-5.081,0.917-10.576,0.936-16.073c0.006-1.805-1.444-3.615-2.155-5.253
			c3.33,0.958,4.099,0.342,5.018-3.387c0.836-3.388,2.045-6.685,3.123-10.128c-0.132-0.02-0.939-0.144-1.738-0.267
			c4.171-4.133,9.273-7.507,14.568-4.16C110.168,289.564,114.042,293.436,113.083,299.425z"/>
		<path fill="#333333" d="M144.984,42.485c0.509,0.233,1.019,0.467,1.726,0.791c0.492-2.262,0.778-4.391,1.467-6.38
			c0.326-0.94,1.425-1.612,2.173-2.406c0.519,0.677,1.114,1.31,1.542,2.041c0.979,1.671,1.815,2.926,4.275,1.954
			c1.993-0.787,4.344-0.644,6.519-1.013c0.628-0.106,1.198-0.553,1.609-1.454c-1.048-0.119-2.096-0.237-3.144-0.356
			c-0.044-0.351-0.089-0.702-0.133-1.053c1.706-0.233,3.413-0.467,5.119-0.7c0.061-0.2,0.122-0.399,0.183-0.599
			c-1.541-0.488-3.081-0.977-4.884-1.548c1.188-0.315,2.293-0.579,3.38-0.904c2.179-0.651,3.221,0.522,3.273,2.412
			c0.108,3.881,0.403,7.829-2.13,11.276c-0.494,0.672-0.289,1.819-0.571,2.693c-0.867,2.686-1.3,5.707-2.859,7.925
			c-1.969,2.801-4.811,5.021-7.429,7.317c-0.835,0.733-2.157,0.911-3.401,1.006c1.059-0.947,2.118-1.894,3.177-2.841
			c-0.122-0.286-0.245-0.571-0.367-0.857c-4.371,2.817-7.98,1.037-11.478-1.478c-1.554-1.118-1.908-2.744-0.763-4.024
			c1.3-1.453,2.091,0.173,3.173,0.953c0.928,0.67,2.533,0.401,4.526,0.624c-2.41-1.514-4.036-2.535-5.661-3.557
			c0.472-0.399,0.945-0.798,1.775-1.499c-1.805-0.837-4.05-1.226-5.178-2.559c-1.517-1.794-2.174-4.316-3.278-6.694
			c2.669-0.956,4.821-1.727,7.408-2.654c0,1.329,0,2.482,0.003,3.637c0.003,1.983,0.003,3.964,0.003,6.319
			c1.12-0.39,1.865-0.65,2.551-0.89C146.642,45.973,145.813,44.229,144.984,42.485z M161.461,52.601
			c-0.357-0.19-0.713-0.38-1.07-0.57c-0.907,1.652-1.814,3.304-2.722,4.956c0.429,0.221,0.857,0.442,1.286,0.664
			C159.79,55.968,160.626,54.284,161.461,52.601z M151.064,52.155c1.887,0.709,4.011,1.508,6.252,2.351
			C156.738,51.464,156.171,51.294,151.064,52.155z"/>
		<path fill="#333333" d="M143.055,124.045c3.621-0.944,3.621-0.944,5.118,3.289c-0.763,0.254-1.527,0.508-2.356,0.784
			c3.191,0.926,6.349,1.843,9.111,2.645c-1.455,1.91-3,3.938-4.545,5.966c3.113-0.555,4.483-5.65,8.666-2.467
			c-1.589,1.18-3.125,2.322-4.662,3.463c-0.37,0.578-0.741,1.156-1.111,1.734c-5.7,6.879-9.593,14.232-5.96,23.618
			c-3.312-1.789-3.35-2.374-1.26-16.422c-10.217,2.482-13.252-0.949-19.974-6.914c0.908-2.616,1.849-5.326,2.815-8.111
			c-1.182-0.424-2.29-0.821-3.398-1.218c-0.003-0.326-0.006-0.653-0.009-0.979c4.665-0.737,9.329-1.474,14.003-2.212
			c-0.036-0.134-0.169-0.632-0.303-1.13C140.478,125.41,141.767,124.728,143.055,124.045z"/>
		<path fill="#333333" d="M100.308,278.112c2.134,2.365,5.749,3.03,8.131,1.723c0.541-0.297,1.031-0.998,1.199-1.608
			c0.631-2.29,1.035-4.643,1.683-6.927c0.844-2.973,0.51-3.707-2.392-4.465c0.497-1.853,0.99-3.689,1.59-5.923
			c-0.267-0.246-0.873-0.806-1.664-1.537c1.281-0.542,2.584-1.649,3.567-1.416c5.22,1.241,10.395,2.709,15.512,4.331
			c2.136,0.677,0.898,2.668,0.857,4.055c-0.033,1.114-0.558,2.214-0.881,3.38c2.302,2.644,2.149,4.549-0.746,6.698
			c-3.361,2.494-6.699,5.034-10.196,7.326c-3.784,2.48-11.624,1.822-15.413-0.971c-0.75-0.553-1.706-0.826-2.81-1.342
			C99.214,280.437,99.682,279.443,100.308,278.112z"/>
		<path fill="#333333" d="M237.313,297.237c0.788,1.942,1.576,3.885,2.268,5.588c-0.401,0.548-0.494,0.811-0.623,0.83
			c-4.29,0.622-5.21,3.853-5.718,7.383c-0.33,2.295-0.725,4.591-0.855,6.9c-0.067,1.195,0.38,2.419,0.611,3.717
			c-1.324,0.317-6.935-1.667-6.954-3.036c-0.047-3.373-3.178-5.377-3.209-9.074c1.591-0.544,3.56-1.217,5.529-1.891
			c0.019-0.142,0.038-0.285,0.057-0.427c-5.407,0-10.814,0-16.221,0c0.006-0.379,0.013-0.757,0.019-1.136
			c2.013,0,4.027-0.042,6.039,0.013c1.761,0.048,2.142-0.665,1.773-2.343c-0.781-3.552-2.227-4.72-5.481-4.121
			c7.65-4.836,11.423-12.888,16.261-20.057c0.29,0.072,0.58,0.145,0.869,0.217c1.567,4.616,3.134,9.232,4.701,13.848
			c-1.068-2.098-2.136-4.196-3.204-6.294c-0.152,0.056-0.305,0.111-0.458,0.167c0.94,4.821,1.881,9.643,2.821,14.461
			c0.989,0.113,1.955,0.223,3.17,0.362C238.221,300.56,237.767,298.898,237.313,297.237z"/>
		<path fill="#333333" d="M90.194,222.504c-1.463-1.787-2.927-3.575-4.39-5.362c0.191-0.218,0.382-0.437,0.573-0.655
			c2.466,0.118,4.933,0.24,7.4,0.352c11.645,0.529,23.145-0.657,34.714-2.038c13.268-1.583,25.966-5.105,38.649-8.913
			c4.03-1.21,8.01-2.639,11.897-4.247c2.508-1.037,4.357-0.483,5.871,1.494c2.526,3.297,3.691,7.059,3.775,11.132
			c-0.246,0.11-0.493,0.22-0.739,0.33c-0.448-0.947-0.942-1.875-1.333-2.844c-0.54-1.339-0.856-2.788-1.526-4.053
			c-2.57-4.853-3.938-4.969-9.235-3.274c-14.783,4.73-29.357,10.359-45.053,11.555c-3.056,0.233-6.161,0.24-9.143,0.847
			c-1.243,0.253-2.221,1.803-3.319,2.764c0.91,0.679,1.838,1.963,2.725,1.935c4.367-0.136,8.722-0.619,13.082-0.98
			c0.023-0.311,0.046-0.622,0.068-0.933c-0.583-0.227-1.166-0.454-1.75-0.681c-0.005-0.204-0.011-0.408-0.016-0.612
			c4.719-0.821,9.438-1.639,14.157-2.465c2.466-0.432,4.918-0.997,7.401-1.266c1.206-0.131,2.523,0.119,3.692,0.497
			c0.985,0.318,2.42,0.932,2.592,1.663c0.224,0.958-0.6,2.16-0.973,3.258c-0.239-0.032-0.478-0.064-0.717-0.096
			c-0.106-0.548-0.211-1.095-0.192-0.996c-1.611-0.405-2.908-0.945-4.222-0.993c-1.052-0.038-2.111,0.6-3.193,0.805
			c-3.521,0.667-7.06,1.242-10.581,1.911c-2.253,0.428-4.598,0.676-6.706,1.503c-5.416,2.124-11.018,1.928-16.652,1.949
			c-2.328,0.008-4.649,0.584-6.983,0.753c-1.194,0.086-2.412-0.156-3.619-0.249c-0.058,0.233-0.116,0.466-0.174,0.699
			c2.124,0.661,4.249,1.323,6.373,1.984c0.002,0.08,0.004,0.16,0.006,0.241c-1.844-0.198-3.685-0.5-5.533-0.562
			c-1.625-0.054-3.394,0.601-4.855,0.152c-1.898-0.584-3.556-1.951-5.428-3.045c-0.025,0.046-0.35,0.65-0.676,1.254
			c-0.311-0.014-0.623-0.027-0.934-0.041c-0.086-1.307-0.172-2.614-0.25-3.802c3.871-0.654,7.852-2.585,10.442-1.42
			c2.744,1.234,5.181,1.337,7.681,1.311c0.858-1.129,1.761-2.317,2.503-3.294c-8.99,0-18.221,0-27.706,0
			c0.719,1.415,1.501,2.953,2.282,4.491L90.194,222.504z"/>
		<path fill="#333333" d="M214.386,268.642c2.828-0.702,3.905,0.455,3.385,2.71c-0.514,2.226-5.05,7.121-7.205,7.929
			c-1.184-0.679-2.607-1.035-3.208-1.938c-1.224-1.841-2.273-3.896-2.907-6.009c-1.009-3.359-1.566-6.852-2.42-10.262
			c-0.469-1.871-1.319-3.656-1.679-5.54c-0.214-1.119,0.242-2.354,0.307-3.542c0.098-1.795,0.463-3.669,0.093-5.374
			c-0.589-2.716,0.359-4.423,2.617-5.628c0.83-0.443,1.753-0.713,2.634-1.063c-0.259-0.375-0.518-0.749-0.778-1.124
			c0.153,0.745,0.306,1.49,0.564,2.745c0.541-0.916,0.889-1.504,1.15-1.947c2.029,4.673,4.615,9.112,5.852,13.9
			C214.017,258.258,213.889,263.367,214.386,268.642z"/>
		<path fill="#333333" d="M161.359,119.889c0.282,0.302,0.77,0.824,1.42,1.52c0.263-0.771,0.491-1.441,0.719-2.109
			c-1.769-0.797-2.623-3.324-1.585-4.711c0.21-0.281,0.788-0.634,0.967-0.536c1.722,0.945,3.395,1.98,5.007,2.945
			c0.343-0.598,0.751-1.308,1.159-2.018c0.318,0.236,0.635,0.472,0.953,0.707c-0.042,0.583-0.083,1.165-0.118,1.66
			c2.719,1.149,5.403,2.283,8.008,3.384c1.309-1.089,2.921-2.43,4.021-3.346c1.173,1.673,2.087,2.976,3.233,4.609
			c-0.085,0.426-0.295,1.475-0.589,2.943c-0.43,0.109-1.506,0.382-2.887,0.732c0.828,0.76,1.294,1.187,1.912,1.755
			c-0.997,0.479-1.815,0.871-2.559,1.228c0.457,2.239,0.89,4.358,1.308,6.401c-1.45,0.14-2.214-0.299-2.112-2.322
			c0.132-2.602-1.308-1.896-3.178-1.878c2.075,1.639,4.213,2.914,1.345,5.416c-0.441-1.356,0.8-3.765-2.044-3.314
			c0.164,0.866,0.335,1.77,0.536,2.834c-2.022,0.177-3.866,0.339-5.898,0.517c0.003-3.086-2.519-2.068-4.375-2.644
			c-1.724-0.535-3.134-2.083-5.253-3.592c-0.098-0.125-0.579-1.003-1.294-1.603c-1.472-1.234-1.241-4.334,0.199-5.574
			C160.944,122.299,160.994,120.961,161.359,119.889z"/>
		<path fill="#333333" d="M200.071,123.235c-1.788-3.256-3.353-5.828-4.641-8.532c-1.278-2.683-1.269-5.179,0.957-7.709
			c1.217-1.383,1.456-3.627,2.045-5.232c2.463,1.211,4.508,2.395,6.683,3.251c5.314,2.092,8.668,12.155,6.655,17.349
			c-0.465,1.2-3.071,2.189-4.688,2.184C204.497,124.538,201.916,123.617,200.071,123.235z"/>
		<path fill="#333333" d="M138.565,123.765c-1.533,0.903-3.066,1.806-4.694,2.765c-2.136-8.603-2.366-8.794-13.677-11.525
			c0.459-2.014,0.919-4.033,1.432-6.28c-0.703,0-1.457,0-2.296,0c1.982-5.776,7.38-7.525,11.803-3.7
			c3.56,3.078,6.841,6.533,9.91,10.11c3.298,3.845,3.069,4.644-0.606,7.428C139.812,122.965,139.189,123.365,138.565,123.765z"/>
		<path fill="#333333" d="M38.164,212.722c2.186-2.189,4.161-3.035,6.457-2.292c6.178,2,12.617,1.694,18.939,2.433
			c4.484,0.524,9.026,2.787,13.303,2.273c5.242-0.629,6.798,3.042,9.583,5.467c3.98,3.465,7.883,7.018,11.818,10.534
			c-0.251,0.334-0.503,0.667-0.754,1.001c-1.014-0.669-2.199-1.177-3.01-2.038c-2.452-2.603-4.986-5.056-8.549-6.009
			c-1.83-0.489-3.724-0.74-5.588-1.105c-1.186-0.232-2.599-0.141-3.515-0.771c-4.744-3.262-10.37-3.376-15.667-4.633
			c-4.091-0.971-8.216-1.807-12.338-2.643c-2.614-0.53-5.254-0.932-7.876-1.427C40.234,213.374,39.524,213.11,38.164,212.722z"/>
		<path fill="#333333" d="M152.052,269.428c-0.939,0.608-1.878,1.215-2.817,1.823c-0.17-0.295-0.34-0.589-0.511-0.884
			c0.63-0.225,1.259-0.45,1.89-0.675c-0.317-4.092-0.26-4.162,4.033-4.164c-0.793-1.039-1.357-1.778-1.921-2.517l-0.057,0.081
			c1.589-0.5,3.178-0.999,5.061-1.591c-0.434-0.736-0.975-1.652-1.515-2.567l-0.043,0.074c1.45-0.704,2.9-1.409,3.814-1.853
			c0.425-1.121,0.516-2.407,1.142-2.77c1.006-0.583,2.366-0.556,3.719-0.814c-0.346-0.92-0.7-1.859-1.053-2.798l-0.061,0.048
			c1.614-0.119,3.229-0.237,5.064-0.372c-0.374-2.525-0.124-4.671,3.127-3.4c0.886-0.973,1.614-1.772,2.341-2.571
			c0.317,0.35,0.634,0.7,0.951,1.051c-1.515,1.169-3.03,2.338-4.947,3.817c-0.007,0.132-0.059,1.069-0.11,2.008
			c-1.211,0.415-2.424,0.828-3.823,1.305c-0.052,0.552-0.132,1.4-0.212,2.249c-1.175,0.243-2.351,0.486-3.607,0.746
			c-0.147,0.631-0.385,1.649-0.618,2.669c-0.489,1.209-3.555-0.057-2.421,2.977c1.067-1.805,3.678,1.31,4.326-1.757
			c1.674,1.144,0.69,2.049-0.308,2.871c-0.641,0.527-1.392,0.921-2.093,1.375c0.091,0.208,0.181,0.417,0.272,0.625
			c1.163-0.109,2.327-0.218,3.702-0.347c-1.463-4.243,2.178-3.046,4.539-3.804c-2.111-2.49-4.194-0.641-6.065-0.663
			c-0.675-0.441-1.349-0.882-2.024-1.323c1.754-0.365,3.508-0.731,5.513-1.148c-0.451-0.811-0.849-1.529-1.248-2.247
			c1.448-0.585,2.896-1.17,4.525-1.828c-0.15-0.507-0.334-1.129-0.518-1.75c1.106-0.554,2.233-1.07,3.311-1.675
			c0.745-0.418,1.421-0.957,2.515-1.708c-0.433,1.176-0.769,2.089-1.198,3.255c0.524-0.03,0.941-0.054,1.565-0.09
			c-0.246,1.048-0.48,2.041-0.794,3.378c-0.541-0.593-0.931-1.021-1.322-1.448c1.018,2.74,3.873,5.215-0.129,8.122
			c1.408,0.478,2.361,0.802,2.612,0.887c-1.05,2.253-1.945,4.174-2.964,6.359c4.995,0.995,1.922,3.685,1.561,6.211
			c-0.417-0.739-0.674-1.195-0.931-1.65l-0.066,0.069c0.391-0.7,0.781-1.399,1.172-2.099c-0.401,0.268-0.801,0.535-1.202,0.803
			c-0.761-1.344-1.523-2.687-2.284-4.03l-0.017,0.075c0.703-0.967,1.406-1.933,2.109-2.9c-0.085-0.216-0.17-0.433-0.254-0.649
			c-1.819,0.566-3.638,1.131-5.457,1.697c-0.126-0.423-0.431-1.176-0.352-1.218c1.113-0.599,2.277-1.102,3.665-1.736
			c-2.06-3.666,2.317-3.627,3.936-6.084c-2.054,0.688-3.427,1.149-4.807,1.612c0.147,3.334-0.559,4.077-3.405,4.315
			c-0.907,1.271-2.175,2.166-3.161,3.304c-1.377,1.591-2.556,3.355-3.777,5.075c-0.105,0.147,0.116,0.525,0.214,0.909
			c1.205-0.238,2.372-0.469,3.888-0.768c-1.542-2.855-0.488-3.861,2.33-3.794c0.459,0.011,0.944-1.083,1.42-1.665
			c0.197,0.764,0.78,1.973,0.513,2.206c-0.869,0.757-2.049,1.157-2.795,1.535c-0.819,1.298-1.487,2.574-2.381,3.667
			c-0.354,0.433-1.206,0.458-1.832,0.668c-0.145,0.089-0.289,0.179-0.434,0.268c-1.805-1.093-3.798-0.189-5.35,2.472
			c-0.483-0.794-0.951-1.561-1.73-2.842c1.523-0.57,2.974-1.112,4.592-1.718c-0.77-2.148-1.039-4.307,2.772-3.62
			c0.201,0.036,0.798-0.702,0.745-0.995c-0.09-0.495-0.634-1.349-0.845-1.309c-1.297,0.249-2.763,0.024-3.568,1.69
			c-0.554,1.146-1.744,1.978-2.605,2.988c-0.335,0.393-0.601,0.866-0.804,1.343c-0.719,1.691-1.426,3.342-3.976,1.697
			c0.926-0.356,1.703-0.654,2.59-0.995c-0.425-1.277-0.803-2.412-1.179-3.547c1.361-0.237,2.721-0.476,4.069-0.712
			c-0.94-3.742,2.175-2.968,3.949-3.719c-0.635-3.327-3.248-0.345-4.542-1.928c0.332,3.351-0.57,4.418-3.272,4.448
			C152.147,268.118,152.099,268.773,152.052,269.428z M173.091,251.109c-1.43,1.651-0.64,5.3-4.864,4.027
			c0.306,1.096,0.512,1.831,0.716,2.563c1.505-0.543,2.712-0.977,3.646-1.314C172.767,254.508,172.929,252.808,173.091,251.109z"/>
		<path fill="#333333" d="M254.141,186.761c1.812-4.205,5.517-5.862,9.55-7.032c6.393-1.855,12.802-3.656,19.197-5.502
			c1.715-0.495,3.531-0.847,5.061-1.697c0.862-0.478,1.235-1.837,2.178-3.366c1.088,0.498,2.546,1.165,4.131,1.891
			c0.56-0.437,1.288-1.004,2.199-1.714c-0.689-0.4-1.348-0.783-2.29-1.331c2.61-0.687,4.913-1.294,7.525-1.982
			c1.607,1.214,3.583,2.76,1.226,5.913c-0.284-0.899-0.471-1.491-0.782-2.477c-3.219,3.288-5.612,7.654-11.403,6.889
			c0.813-0.338,1.627-0.677,2.44-1.015c-0.156-0.303-0.313-0.606-0.469-0.91c-0.654-0.048-1.382-0.309-1.949-0.11
			c-5.279,1.855-10.555,3.725-15.776,5.736c-1.791,0.69-3.504,1.673-5.098,2.751c-0.876,0.592-1.429,1.661-2.199,2.602
			c-1.323-0.645-4.404,1.278-4.334-2.943c-0.949,1.197-1.537,1.938-2.321,2.927c-0.356-0.661-0.613-1.138-0.87-1.615
			c-0.205,0.01-0.411,0.019-0.616,0.029c-0.15,1.414-0.3,2.827-0.497,4.677c-1.487-0.541-3.216-1.17-4.945-1.799L254.141,186.761z"
			/>
		<path fill="#333333" d="M180.583,60.821c-3.354,0.685-2.624,4.496-4.706,6.143c-0.865,0.684-1.802,1.277-3.343,2.356
			c0.016-5.104,3.252-7.677,4.852-10.894c-1.019,0.362-2.112,0.75-3.637,1.292c0.219-1.047,0.31-1.571,0.439-2.085
			c0.317-1.26,2.217-2.374,0.341-3.875c-0.094-0.075,0.295-0.862,0.556-1.253c2.181-3.28,4.384-6.546,6.774-10.103
			c1.802,2.984,0.895,5.545-0.547,8.108c0.324,0.093,0.649,0.186,0.973,0.28c0.669-1.08,1.338-2.161,2.078-3.357
			c0.179,0.298,0.446,0.533,0.42,0.729c-0.624,4.623,1.81,6.58,6.01,7.488c2.178,0.471,4.18,1.755,6.262,2.672
			c-0.105,0.294-0.21,0.588-0.314,0.882c-2.824-0.857-5.648-1.714-8.986-2.727c0.508,3.707,5.789,4.57,4.087,8.726
			c0.923,0,1.552,0,2.181,0c0.092,0.189,0.184,0.379,0.277,0.568c-2.608,1.404-5.217,2.807-8.291,4.462
			c0.081-4.598,2.14-8.986-1.541-12.487c-1.312,1.006-2.449,1.878-3.585,2.749C180.782,60.604,180.683,60.713,180.583,60.821z"/>
		<path fill="#333333" d="M212.968,133.07c2.925,0.906,5.682,1.684,8.381,2.627c1.432,0.5,1.629,1.407,1.489,3.132
			c-0.21,2.588,0.536,5.302,1.159,7.895c0.53,2.206,1.459,4.317,2.285,6.68c0.415,0.02,1.161,0.056,2.335,0.113
			c-4.219,2.759-8.092,5.291-12.549,8.205c-0.302-1.58-0.477-2.495-0.706-3.691c-0.331-0.054-1.149-0.186-2.513-0.406
			c1.082-0.795,1.771-1.302,2.756-2.025c-0.712,0-1.147,0-1.796,0c0.191-0.811,0.355-1.505,0.581-2.468
			c-0.981,0.156-1.781,0.283-2.513,0.399c-1.192-1.338,3.406-4.169,5.846-3.618c0.58,0.131,1.266,0.896,1.434,1.5
			c0.292,1.046,0.217,2.195,0.575,3.268c1.234-2.469,0.407-4.871-0.728-6.94c-1.805-3.289-3.86-6.489-6.19-9.424
			C211.332,136.447,211.612,135.09,212.968,133.07z M215.873,138.488c-0.161,0.131-0.323,0.262-0.484,0.393
			c1.702,2.706,3.405,5.412,5.107,8.118c0.136-0.088,0.272-0.177,0.408-0.265C219.227,143.986,217.55,141.237,215.873,138.488z"/>
		<path fill="#333333" d="M187.286,163.733c0.521,0.145,1.223,0.34,2.076,0.578c-1.064,2.375-2.427,2.848-4.614,1.64
			c-2.95-1.63-6.189-2.79-8.976-4.644c-1.496-0.995-2.238-3.078-3.456-4.557c-0.61-0.74-1.55-1.201-2.301-1.834
			c-1.423-1.199-2.817-2.432-4.189-3.62c1.508-3.012,7.31-3.949,10.393-1.735c3.034,2.179,6.079,4.361,8.938,6.757
			c1.373,1.15,2.558,2.683,3.357,4.279C188.821,161.208,187.815,162.477,187.286,163.733z"/>
		<path fill="#333333" d="M248.319,421.27c0.902-0.314,1.804-0.627,2.533-0.881c-2.797-2.107-5.655-4.26-8.879-6.689
			c1.47-0.292,2.266-0.45,3.045-0.605c-0.021-0.396,0.045-0.67-0.051-0.749c-3.228-2.692-3.116-3.715,0.646-5.597
			c0.602-0.301,1.216-0.588,1.844-0.829c1.609-0.617,3.317-1.81,4.814-1.594c1.026,0.148,1.725,2.307,2.646,3.509
			c0.935,1.22,1.901,2.431,2.97,3.531c1.054,1.085,2.255,2.027,3.51,3.136c-0.755,0.615-1.245,1.014-1.952,1.591
			c1.012,0.211,1.764,0.367,2.517,0.523C257.627,419.045,253.521,421.791,248.319,421.27z"/>
		<path fill="#333333" d="M165.159,95.503c-2.104,1.802-3.967,3.397-6.134,5.253c-0.526-4.47-0.981-8.328-1.481-12.574
			c4.256-0.227,8.629-0.461,13.268-0.708c-0.19,1.228-0.305,1.973-0.392,2.536c1.476-1.913,2.971-3.85,4.459-5.778
			c3.073,1.379,3.163,3.492,1.818,6.384c-1.209-0.766-2.357-1.494-4.17-2.642c0.279,1.122,0.231,1.936,0.608,2.268
			c1.63,1.435,1.889,2.427,0.085,4.202c-1.62,1.594-2.469,3.971-4.029,6.636C167.628,98.918,166.449,97.287,165.159,95.503z"/>
		<path fill="#333333" d="M216.991,195.599c1.264-2.54,0.647-3.883-1.888-4.963c-3.971-1.693-6.446-5.038-8.526-8.605
			c-0.417-0.715,0.352-2.121,0.629-3.476c5.086-3.402,9.777-1.28,14.301,2.077c1.656,1.229,1.215,2.062-0.423,2.94
			c-1.99,1.067-3.862,2.353-5.597,3.428c1.34,1.592,3.04,2.834,3.538,4.448c0.394,1.279-0.687,3.012-1.112,4.543
			C217.606,195.86,217.298,195.73,216.991,195.599z"/>
		<path fill="#333333" d="M174.243,116.179c-3.547-1.95-6.339-3.485-9.726-5.348c1.496-1.603,2.88-2.937,4.088-4.414
			c1.833-2.242,3.476-4.641,5.328-6.867c1.505-1.809,2.649-1.607,3.144,0.607c0.327,1.464,0.086,3.053,0.12,4.586
			c0.044,1.935,0.038,3.875,0.179,5.803C177.73,115.379,177.758,115.377,174.243,116.179z"/>
		<path fill="#333333" d="M63.318,384.543c-0.608-0.47-1.107-0.857-1.742-1.348c0.412-0.261,0.632-0.52,0.856-0.524
			c3.682-0.071,7.662,2.749,8.462,5.963c0.82,3.296-1.744,8.132-5.131,9.554c-1.68,0.705-3.098,0.82-3.024-1.737
			c0.018-0.637-0.201-1.396-0.572-1.91c-1.723-2.379-2.071-6.948-0.508-9.188C61.929,384.965,62.619,384.869,63.318,384.543z"/>
		<path fill="#333333" d="M153.276,139.461c0.37-0.578,0.741-1.156,1.111-1.734c0.626-0.186,1.307-0.269,1.869-0.573
			c4.279-2.317,9.15,0.183,9.9,5.114c-0.207,0.223-0.414,0.445-0.621,0.668c-0.917,0.099-1.834,0.197-2.829,0.304
			c0.45,0.742,0.801,1.32,1.151,1.898c-0.879,0.473-1.757,0.945-2.636,1.417c-0.888,0.67-1.777,1.339-2.736,2.063
			c-0.167-0.222-0.438-0.58-1.056-1.4c0,2.203,0,3.817,0,6.297c-0.855-1.134-1.292-1.497-1.448-1.957
			c-0.71-2.083-0.751-4.794-2.137-6.154C151.648,143.251,152.434,141.526,153.276,139.461z"/>
		<path fill="#333333" d="M118.778,247.035c2.394-2.573,4.373-4.991,7.821-5.404c0.863-0.104,1.745-0.122,2.586-0.32
			c3.76-0.884,7.932,3.535,6.687,7.261c-0.277,0.828-1.304,1.915-2.071,1.988C128.585,251.055,123.748,249.71,118.778,247.035z"/>
		<path fill="#333333" d="M90.778,186.515c0.139-1.967,0.277-3.935,0.437-6.204c-0.788,0.652-1.414,1.17-1.939,1.604
			c-0.663-0.867-1.264-1.654-2.031-2.658c0.409-0.367,1.07-0.961,1.742-1.564c-0.412-0.32-0.752-0.585-1.442-1.121
			c8.512-2.292,15.27-6.239,17.78-15.269c0.383,2.91,0.766,5.82,1.181,8.974c-0.04,0.01-0.647,0.159-1.463,0.359
			c0.514,0.792,0.993,1.529,1.819,2.801C98.904,174.802,92.317,177.629,90.778,186.515z"/>
		<path fill="#333333" d="M140.106,65.194c-2.064,1.779-9.803-2.271-12.502-7.026c1.67,1.177,3.34,2.355,5.479,3.864
			c-3.172-5.532-6.031-10.518-9.109-15.887c1.342-0.063,1.855-0.088,2.443-0.116c-1.722-2.707-3.377-5.311-5.033-7.915
			c6.913,1.384,8.608,6.515,10.06,12.072c-0.887,0.072-1.601,0.129-3.429,0.277C132.375,55.775,136.243,60.489,140.106,65.194z"/>
		<path fill="#333333" d="M238.076,383.622c2.608,4.664,1.445,10.497,5.554,14.957c-1.462,1.079-3.035,2.24-4.51,3.328
			c-2.296-2.719-5.007-4.726-5.982-8.245C232.347,390.808,234.05,386.537,238.076,383.622z"/>
		<path fill="#333333" d="M157.962,250.807c-1.31,0.529-2.621,1.057-4.062,1.639c0.461,1.796,0.158,3.57-2.473,4.209
			c-0.324,0.079-0.513,0.693-0.776,1.052c-0.627,0.857-1.261,1.71-2.199,2.33c1.89-1.426-1.836-6.509,3.724-5.486
			c-0.512-3.566-3.671-0.99-5.399-2.792c1.088-0.331,1.934-0.588,2.797-0.85c0.114-3.697,0.691-4.292,3.973-3.815
			c-0.252-2.892,0.479-4.875,4.439-3.085c-1.493-5.661,3.119-3.401,5.36-4.915c-0.739,2.581-2.21,2.853-4.185,2.111
			c0.073,2.88-0.724,3.637-2.66,3.524c-1.917,2.266-3.431,4.055-5.088,6.012c1.786-0.132,3.19-0.235,4.844-0.357
			c-0.224-0.828-0.451-1.662-0.777-2.867c1.587-0.233,3.024-0.444,4.636-0.68c-0.316-0.687-0.617-1.342-1.226-2.669
			c1.819-0.357,3.429-0.672,5.728-1.123c0.415-0.379-1.068-3.923,3.011-2.285c-3.478-0.157-0.678,6.994-5.762,3.8
			c-0.679,3.916-1.558,4.658-4.245,3.616c0.099,0.915,0.195,1.8,0.292,2.686L157.962,250.807z"/>
		<path fill="#333333" d="M191.722,262.764c3.44,2.377-0.188,5.829,0.707,8.767c-0.191,0.182-0.382,0.365-0.573,0.547
			c-2.024-1.039-4.048-2.077-6.071-3.116c0.195-0.308,0.391-0.616,0.586-0.924c0.737,0.528,1.473,1.056,2.5,1.791
			c0.26-0.756,0.542-1.576,0.853-2.484c-0.804-0.587-1.955-1-2.186-1.712c-0.237-0.732,0.214-2.376,0.726-2.547
			c2.726-0.917,1.956-2.548,0.834-5.072c1.47,0.813,2.351,1.3,3.469,1.919c0.055-0.575,0.261-1.464,0.128-1.518
			c-2.787-1.133-1.878-3.78-2.366-5.812c-0.057-0.239,0.758-0.818,1.257-1.005c0.265-0.099,0.719,0.305,1.088,0.482
			c-0.095-0.549-0.152-1.109-0.295-1.646c-0.163-0.611-0.697-1.28-0.562-1.789c0.804-3.022,1.755-6.005,2.656-9.001
			c0.284,0.028,0.567,0.055,0.851,0.083c0,1.329,0.105,2.667-0.019,3.984c-0.455,4.823-0.87,9.656-1.558,14.448
			C193.531,259.66,192.505,261.046,191.722,262.764z M191.038,266.934c0.314-0.229,0.628-0.459,0.942-0.688
			c-0.422-0.703-0.693-1.652-1.312-2.032c-0.495-0.303-1.414,0.087-2.145,0.169C189.362,265.234,190.2,266.084,191.038,266.934z"/>
		<path fill="#333333" d="M184.536,86.047c6.328,20.578,6.621,41.627,5.448,62.844c-0.124-0.224-0.366-0.453-0.356-0.67
			c0.984-20.739-1.398-41.178-5.416-61.476C184.171,86.542,184.421,86.281,184.536,86.047z"/>
		<path fill="#333333" d="M90.436,72.356c-5.778-2.08-7.61,2.413-9.99,5.392c-3.084,3.859-6.633,4.897-11.924,3.085
			c4.942-3.675,9.377-7.303,14.158-10.395C85.168,68.829,87.834,70.124,90.436,72.356z"/>
		<path fill="#333333" d="M307.835,145.373c0,8.675,0,17.342,0,26.318c-1.298-1.976-2.239-3.824-3.566-5.33
			c-1.995-2.263-1.289-4.816-1.253-7.328C303.09,153.88,305.764,149.689,307.835,145.373z"/>
		<path fill="#333333" d="M93.064,242.289c-9.809,5.508-19.495,10.947-29.181,16.387c-0.131-0.175-0.263-0.35-0.394-0.525
			c0.32-0.385,0.575-0.863,0.97-1.14c5.215-3.661,10.458-7.281,15.674-10.939c2.05-1.437,3.972-3.081,6.123-4.338
			c0.702-0.41,1.944,0.107,2.94,0.199C90.36,242.04,91.524,242.147,93.064,242.289z"/>
		<path fill="#333333" d="M139.168,191.142c-4.444,1.047-8.861,2.235-13.342,3.086c-2.535,0.482-5.187,0.32-7.762,0.646
			c-0.778,0.098-2.073,0.821-2.104,1.322c-0.159,2.531-0.051,5.091,0.206,7.616c0.023,0.225,1.849,0.542,2.741,0.356
			c5.16-1.075,10.292-2.288,15.497-3.206c-5.474,2.453-11.102,4.427-17.197,4.417c-2.423-0.004-3.726-2.527-3.78-5.941
			c-0.024-1.528-0.596-3.046-0.95-4.711c8.353-1.405,17.437-2.932,26.521-4.46C139.055,190.559,139.111,190.85,139.168,191.142z"/>
		<path fill="#333333" d="M174.842,216.871c0.683-2.344,1.556-3.986,1.518-5.606c-0.036-1.508-1.043-2.993-1.572-4.357
			c0.796-0.119,2.414,0.074,3.467-0.607c2.302-1.49,3.705-0.08,4.473,1.428c0.865,1.698,0.993,3.804,1.219,5.758
			c0.031,0.265-1.206,0.763-1.906,1.008C179.92,215.238,177.776,215.91,174.842,216.871z"/>
		<path fill="#333333" d="M192.55,77.126c6.573,1.888,6.573,1.888,9.71,6.964c-4.097,3.02,2.6,4.06,1.236,6.813
			c-3.699-0.343-6.165-2.445-7.93-5.453c-0.485-0.827-1.127-2.298,1.375-2.186C195.46,81.192,194.005,79.159,192.55,77.126z"/>
		<path fill="#333333" d="M104.661,153.236c0.056,9.726-4.854,18.381-12.2,20.949c-1.854,0.648-4.085,2.367-6.285,0.045
			C99.433,167.765,98.771,167.919,104.661,153.236z"/>
		<path fill="#333333" d="M229.772,373.412c-1.09-13.366-3.138-26.499-8.889-38.803
			C225.618,338.883,231.033,353.174,229.772,373.412z"/>
		<path fill="#333333" d="M159.375,212.722c0.885-0.537,1.72-1.413,2.663-1.55c3.438-0.499,6.907-0.856,10.377-1.017
			c0.794-0.037,2.173,0.791,2.334,1.452c0.272,1.117,0.103,2.418-1.984,2.198c-0.729-0.077-1.669,1.646-2.475,2.58
			c-0.655,0.759-1.254,1.566-2.53,2.118c0-1.848,0-3.696,0-6.14c-0.86,1.17-1.409,1.916-1.761,2.395
			c-2.414-0.752-4.574-1.425-6.733-2.097L159.375,212.722z"/>
		<path fill="#333333" d="M174.327,272.942c-1.072,1.183-2.145,2.366-3.529,3.894c0.459,0.166,1.597,0.576,2.734,0.986
			c-0.345,0.28-0.689,0.561-1.034,0.841c-2.288,0.324-4.576,0.649-6.864,0.973c-0.08-0.236-0.161-0.471-0.241-0.707
			c1.083-0.409,2.166-0.818,3.615-1.365c-1.498-2.931,0.233-4.243,3.592-4.48c-0.165-0.253-0.329-0.506-0.494-0.759
			c-1.338,0-2.676,0-4.223,0c0.375,2.683-0.453,4.399-3.458,4.15c0.193,4.037,0.193,4.037-5.209,3.887
			c0.718-0.38,1.421-0.791,2.157-1.13c0.706-0.325,1.446-0.575,2.171-0.858c-0.494-0.648-0.989-1.297-1.483-1.945l-0.061,0.076
			c1.465-0.767,2.93-1.533,4.662-2.44c-0.104-0.6-0.262-1.507-0.473-2.722c1.279-0.362,2.563-0.726,3.744-1.061
			c0.075-0.971-0.018-1.942,0.285-2.768c0.15-0.409,1.028-0.55,1.577-0.813c0.044,0.353,0.088,0.706,0.132,1.059l0.017-0.075
			c0.018,0.768-0.207,1.66,0.108,2.276c0.564,1.104,1.453,2.042,2.206,3.05C174.261,273.011,174.327,272.942,174.327,272.942z"/>
		<path fill="#333333" d="M228.633,167.573c0.952,2.901,1.904,5.802,2.974,9.063c-6.644-3.849-11.867-11.907-10.115-15.661
			c2.442,2.258,4.817,4.453,7.191,6.648L228.633,167.573z"/>
		<path fill="#333333" d="M165.385,57.838c-0.383,1.934-0.759,3.869-1.152,5.8c-0.27,1.324-0.613,2.635-0.839,3.967
			c-0.78,4.59-2.174,5.371-7.436,3.596c1.613-2.255,3.291-4.284,4.606-6.526c1.363-2.324,2.373-4.855,3.537-7.296
			C164.529,57.531,164.957,57.685,165.385,57.838z"/>
		<path fill="#333333" d="M157.914,250.861c1.344-0.247,2.689-0.494,4.094-0.753c-0.202-2.676,0.752-3.47,4.45-3.028
			c-2.053-5.273,3.768-2.362,4.693-4.674c0.282,2.567-1.553,2.371-3.176,2.265c-0.233,3.532-0.798,4.038-4.055,3.672
			c-0.063,0.827-0.125,1.652-0.187,2.477l0.061-0.048c-2.377,1.866-4.755,3.732-7.408,5.814c-0.032,0.366-0.123,1.393-0.214,2.421
			l0.043-0.074c-1.017,0.441-2.035,0.881-3.107,1.346c-0.114,0.732-0.277,1.772-0.439,2.813l0.057-0.081
			c-1.3,0.233-2.6,0.466-3.9,0.7c-0.072-0.303-0.144-0.606-0.216-0.909c1.057-0.297,2.114-0.594,3.498-0.983
			c-0.608-0.833-1.058-1.451-1.837-2.518c1.491-0.557,2.826-1.056,4.412-1.648c-0.719-2.37-0.052-4.239,3.705-3.538
			c-0.165-1.279-0.296-2.294-0.427-3.308L157.914,250.861z"/>
		<path fill="#333333" d="M163.704,229.779c-1.256,0.759-2.512,1.517-3.768,2.276c-0.145-0.237-0.289-0.474-0.433-0.71
			c-0.336,0.724-0.672,1.449-1.17,2.523c-0.607-1.488-1.054-2.585-1.727-4.237c1.894,0,3.464,0,5.41,0
			c-0.396-0.966-0.688-1.675-0.957-2.331c1.059-2.921,5.338,0.65,6.042-3.497c0.58,0.976,0.971,1.635,1.293,2.177
			c1.928,0,3.783,0,5.637,0c0.106,0.3,0.212,0.601,0.318,0.901c-1.152,0.533-2.304,1.067-3.826,1.771
			c-0.68,2.598-1.527,3.094-4.541,2.137c-0.314,0.926-0.627,1.852-1.223,3.616c-0.517-2.166-0.817-3.424-1.115-4.681
			c1.677-0.119,3.352-0.24,5.127-0.368c-0.643-3.633-3.431-0.101-4.74-1.556C163.888,228.66,163.796,229.22,163.704,229.779z"/>
		<path fill="#333333" d="M190.949,88.431c4.652,3.827,11.299,2.89,14.376,8.198c-2.524,2.94-5.302,0.952-7.555-0.384
			C194.883,94.533,191.445,92.905,190.949,88.431z"/>
		<path fill="#333333" d="M236.709,183.64c-2.841-2.107-3.06-5.454-1.48-8.163c0.577-0.988,1.059-2.522,0.696-3.465
			c-0.72-1.871,0.469-2.496,1.561-2.676c0.782-0.129,2.528,0.889,2.49,1.255c-0.224,2.16,2.396,5.126-1.613,6.427
			c-0.434,0.141-0.375,1.725-0.594,2.627C237.476,180.855,237.134,182.053,236.709,183.64z"/>
		<path fill="#333333" d="M197.396,66.589c2.316,3.292,4.632,6.584,6.948,9.876c-0.146,0.154-0.292,0.307-0.438,0.461
			c-5.135-1.667-10.269-3.334-15.646-5.08c5.076-4.701,8.321-1.07,11.656,2.054c0.214-0.277,0.428-0.554,0.643-0.832
			c-1.301-1.957-2.601-3.913-3.902-5.87C196.903,66.995,197.15,66.792,197.396,66.589z"/>
		<path fill="#333333" d="M254.1,186.684c0.745,1.094,1.49,2.188,2.558,3.756c-2.096-0.621-3.801-1.126-5.878-1.741
			c0.223,2.3,0.436,4.495,0.649,6.689c-0.08,0.008-0.16,0.017-0.24,0.025c-1.69-5.119-3.38-10.238-5.07-15.358
			c0.295-0.101,0.59-0.202,0.885-0.302c0.787,1.679,1.573,3.358,2.36,5.037c0.111-0.014,0.221-0.029,0.332-0.043
			c-0.069-0.757-0.137-1.514-0.191-2.11c1.158-0.128,2.192-0.242,3.204-0.354c0.448,1.397,0.941,2.937,1.435,4.477
			C254.141,186.761,254.1,186.684,254.1,186.684z"/>
		<path fill="#333333" d="M145.355,86.042c4.034,3.176,7.468,17.54,4.886,21.279c-0.159-2.076-0.318-4.152-0.477-6.229
			c-0.179-0.029-0.358-0.059-0.536-0.088c-0.15,1.077-0.301,2.153-0.451,3.23c-0.319-0.011-0.638-0.022-0.958-0.034
			c0-1.677,0-3.354,0-4.956c-1.112,0.14-2.893,0.365-4.675,0.589c-0.037-0.229-0.075-0.457-0.112-0.686
			c0.584-0.143,1.162-0.327,1.754-0.424c3.701-0.607,4.651-1.984,3.492-5.571C147.556,90.921,146.502,88.796,145.355,86.042z"/>
		<path fill="#333333" d="M222.673,200.881c-0.658-3.415-1.181-5.817-1.544-8.242c-0.083-0.556,0.504-1.182,0.573-1.799
			c0.121-1.087,0.081-2.192,0.109-3.289c-0.91,0.048-1.82,0.096-3.039,0.161c-0.052-0.675-0.121-1.569-0.186-2.401
			c2.658-1.16,4.445-0.224,4.919,2.091c0.728,3.555,1.051,7.209,1.269,10.838C224.817,198.958,223.612,199.75,222.673,200.881z"/>
		<path fill="#333333" d="M215.856,164.67c1.354,0,2.541,0,2.981,0c3.496,4.127,6.779,8.003,10.517,12.417
			C223.619,175.716,218.714,170.96,215.856,164.67z"/>
		<path fill="#333333" d="M131.41,210.638c1.042-1.733,1.857-3.746,3.253-5.202c1.101-1.148,2.917-1.609,5.138-2.745
			c-0.304,2.854-0.488,4.975-0.798,7.077c-0.049,0.333-0.664,0.818-1.03,0.83C135.636,210.675,133.297,210.638,131.41,210.638z"/>
		<path fill="#333333" d="M192.775,179.585c0.714-3.684,1.73-7.287,4.906-9.427c2.304-1.552,7.048-1.259,8.256-0.108
			C199.886,170.905,196.822,175.795,192.775,179.585z"/>
		<path fill="#333333" d="M214.074,75.268c0-1.477,0-2.477,0-4.222c-1.036,2.024-1.739,3.396-2.442,4.768
			c-0.144-0.045-0.287-0.09-0.431-0.135c0.319-1.387,0.638-2.773,0.998-4.338c-3.879,1.053-7.37,1.307-10.593-1.129
			c5.559,0.686,11.125,1.671,13.625-5.574C216.052,68.305,217.196,71.744,214.074,75.268z"/>
		<path fill="#333333" d="M113.789,97.405c-2.328,4.946-6.945,7.572-10.652,11.119c-0.285-0.179-0.57-0.358-0.855-0.537
			c0.1-0.879-0.137-2.13,0.355-2.577c3.372-3.063,6.896-5.957,10.372-8.905C113.268,96.805,113.529,97.105,113.789,97.405z"/>
		<path fill="#333333" d="M46.553,170.9c2.008-7.427,7.393-11.533,11.687-16.581c0.525,0.489,1.141,1.062,1.643,1.529
			C55.53,160.765,51.291,165.551,46.553,170.9z"/>
		<path fill="#333333" d="M156.351,81.37c1.661-0.258,3.327-0.756,4.982-0.722c3.12,0.064,6.239,0.387,9.347,0.707
			c0.844,0.087,1.65,0.55,2.473,0.84c-0.418,0.615-0.837,1.231-1.255,1.846c-0.273-0.363-0.484-0.833-0.846-1.043
			c-0.177-0.103-0.62,0.372-0.967,0.424c-1.483,0.224-3.003,0.666-4.457,0.515c-3.102-0.321-6.171-0.96-9.253-1.469
			C156.367,82.102,156.359,81.736,156.351,81.37z"/>
		<path fill="#333333" d="M96.057,62.711c-3.435,0.7-6.584,3.292-10.546,1.231c3.02-1.341,3.723-6.334,8.61-4.796
			c-0.638,0.305-1.111,0.531-1.523,0.727c1.21,0.537,2.475,1.099,3.74,1.661C96.244,61.926,96.15,62.319,96.057,62.711z"/>
		<path fill="#333333" d="M152.248,29.139c1.717-0.273,3.486-0.368,5.14-0.856c3.307-0.976,3.355-1.038,5.387,2.189
			c-3.585,0.864-7.062,1.703-10.814,2.608c0.133-1.553,0.237-2.772,0.341-3.992L152.248,29.139z"/>
		<path fill="#333333" d="M116.153,156.166c-1.582-6.182-3.18-12.423-4.777-18.665c0.335-0.093,0.669-0.187,1.004-0.28
			c0.843,3.083,1.067,6.556,2.7,9.139c1.672,2.646,4.841,4.334,5.548,7.909c-1.131-0.54-2.127-1.015-3.123-1.49
			C117.071,153.865,116.637,154.951,116.153,156.166z"/>
		<path fill="#333333" d="M225.923,133.634c-3.681-2.416-7.046-4.625-10.569-6.938c1.051-1.181,2.185-2.456,3.319-3.729
			c3.254,2.744,3.865,4.246,2.35,5.533c1.883,1.15,3.786,2.291,5.63,3.52C226.724,132.067,226.232,132.961,225.923,133.634z"/>
		<path fill="#333333" d="M149.394,86.322c1.26,0.648,2.227,0.812,2.481,1.327c2.488,5.054,3.771,10.396,3.075,16.197
			C153.202,98.333,151.454,92.82,149.394,86.322z"/>
		<path fill="#333333" d="M218.429,147.752c-3.134,0.814-5.715,1.485-8.955,2.326c0-0.94-0.482-2.714,0.094-3.181
			c1.484-1.201,3.507-2.593,5.18-2.44C216.172,144.588,217.407,146.766,218.429,147.752z"/>
		<path fill="#333333" d="M154.159,165.084c-5.015-1.931-6.343-3.328-6.337-6.232c2.402,0.592,4.857,1.196,7.728,1.903
			c0.368,1.348,0.87,3.183,1.371,5.019c-0.268,0.093-0.536,0.187-0.804,0.28c-0.441-1.061-0.881-2.121-1.402-3.374
			C154.519,163.526,154.361,164.208,154.159,165.084z"/>
		<path fill="#333333" d="M122.793,127.398c1.905-2.589,3.551-4.827,5.407-7.349c2.711,1.132,4.211,3.713,4.322,7.349
			C129.226,127.398,126.056,127.398,122.793,127.398z M125.409,125.331c0.162,0.343,0.324,0.686,0.486,1.03c1.531,0,3.062,0,4.593,0
			c0.135-0.273,0.27-0.546,0.404-0.819c-0.834-0.581-1.67-1.625-2.502-1.622C127.395,123.922,126.403,124.82,125.409,125.331z"/>
		<path fill="#333333" d="M76.361,133.466c4.07,1.889,5.974,5.377,7.195,9.322C78.844,142.081,75.385,137.747,76.361,133.466z"/>
		<path fill="#333333" d="M180.881,60.496c1.231,0.327,3.087-1.245,3.64,0.932c0.28,1.101-0.022,2.428-0.324,3.584
			c-0.601,2.301-1.384,4.555-2.113,6.894c-1.994-1.196-1.778-5.122,0.442-7.698c-1.285,0.08-2.252,0.14-3.312,0.205
			c0.438-1.15,0.903-2.371,1.368-3.592C180.683,60.713,180.782,60.604,180.881,60.496z"/>
		<path fill="#333333" d="M215.683,228.68c-4.021-6.433-8.042-12.866-12.237-19.578c1.959-0.688,2.722-1.438,3.452,1.038
			c1.045,3.544,3.063,6.831,4.877,10.111c1.48,2.676,3.269,5.182,4.921,7.763C216.358,228.235,216.02,228.457,215.683,228.68z"/>
		<path fill="#333333" d="M82.823,351.29c-3.463,5.75-3.463,5.75-6.868,3.222C77.163,350.407,78.965,349.515,82.823,351.29z"/>
		<path fill="#333333" d="M65.113,175.79c-0.549-4.163-2.518-8.413,0.923-12.328C67.275,167.642,65.661,171.702,65.113,175.79z"/>
		<path fill="#333333" d="M152.302,29.088c-1.643,0.697-3.241,1.776-4.942,1.972c-1.419,0.164-3.066-0.499-4.407-1.192
			c-0.936-0.484-1.526-1.637-2.057-3.136c3.781,0.805,7.563,1.609,11.348,2.41C152.248,29.139,152.302,29.088,152.302,29.088z"/>
		<path fill="#333333" d="M190.367,276.945c0.311,1.058,0.962,2.147,0.868,3.167c-0.268,2.891-0.841,5.754-1.304,8.69
			c-0.697-1.465-1.473-2.775-1.925-4.188c-0.212-0.661,0.005-1.633,0.369-2.269c0.887-1.548,2.092-2.806,0.307-4.71
			c-0.494-0.527,0.374-2.331,0.618-3.549c0.432,0.135,0.863,0.27,1.295,0.405c-0.332,0.767-0.665,1.535-0.997,2.302
			C189.853,276.845,190.11,276.895,190.367,276.945z"/>
		<path fill="#333333" d="M108.171,212.949c-2.161,1.234-4.124,2.355-6.087,3.476c-0.126-0.192-0.252-0.385-0.379-0.577
			c0.952-2.679,1.905-5.358,3.067-8.628C105.924,209.161,106.87,210.756,108.171,212.949z"/>
		<path fill="#333333" d="M81.759,365.001c3.041-5.662,6.082-11.325,9.123-16.987c0.306,0.166,0.612,0.332,0.918,0.498
			c-2.991,5.69-5.981,11.379-8.972,17.069C82.472,365.388,82.116,365.195,81.759,365.001z"/>
		<path fill="#333333" d="M178.251,294.149c-2.348-0.017-4.669-0.264-3.528-3.464c0.058-0.164-0.553-0.532-0.8-0.846
			c-0.51-0.649-1.521-1.472-1.385-1.966c0.761-2.78-1.269-3.941-3.093-5.538c0.856-0.924,1.631-1.761,2.407-2.598
			c0.002,2.245-0.176,4.098,2.624,4.341c-0.465,1.352-0.804,2.337-1.235,3.59c4.165,0.084,2.379,2.868,2.206,5.081
			C176.394,293.222,177.323,293.686,178.251,294.149z"/>
		<path fill="#333333" d="M214.602,10.752c-0.915,1.809-1.831,3.619-2.91,5.752c-0.943-0.322-2.166-0.739-3.737-1.276
			c1.147-1.886,2.129-3.501,3.438-5.654c0.324,0.06,1.494,0.279,2.664,0.497C214.239,10.298,214.421,10.525,214.602,10.752z"/>
		<path fill="#333333" d="M81.039,336.604c1.029,1.649,1.796,4.329,3.155,4.673c1.514,0.383,3.556-1.38,5.389-2.161
			c0.475-0.202,1.025-0.227,1.54-0.334c0.104,0.219,0.207,0.438,0.311,0.656c-2.268,1.336-4.487,2.772-6.845,3.926
			c-0.478,0.234-1.925-0.413-2.153-0.97c-0.748-1.828-1.14-3.802-1.669-5.719C80.859,336.651,80.949,336.627,81.039,336.604z"/>
		<path fill="#333333" d="M197.311,155.358c2.931,3.324,5.861,6.647,8.942,10.141c-4.35,0.112-6.334-1.637-7.137-5.383
			c-0.341-1.592-1.44-3.021-2.194-4.524C197.052,155.514,197.181,155.436,197.311,155.358z"/>
		<path fill="#333333" d="M140.214,174.313c-6.449-1.596-12.898-3.193-19.347-4.789c0.092-0.387,0.184-0.775,0.275-1.162
			c6.423,1.605,12.846,3.209,19.269,4.814C140.346,173.555,140.28,173.934,140.214,174.313z"/>
		<path fill="#333333" d="M227.027,194.038c0.537-0.858,1.055-1.684,1.573-2.511c0.503,0.675,1.006,1.35,1.508,2.026
			c0.444,0.599,1.138,1.151,1.265,1.812c0.146,0.763-0.207,1.621-0.344,2.438c-0.823-0.138-1.954,0.007-2.4-0.477
			C227.9,196.533,227.618,195.331,227.027,194.038z"/>
		<path fill="#333333" d="M150.701,20.871c2.762,1.511,5.525,3.023,8.608,4.71C154.079,27.341,152.316,26.452,150.701,20.871z"/>
		<path fill="#333333" d="M77.997,146.977c-4.259-2.688-5.85-5.119-6.127-10.362c2.311,3.249,4.621,6.499,6.932,9.748
			C78.534,146.569,78.266,146.773,77.997,146.977z"/>
		<path fill="#333333" d="M132.905,278.509c-3.281,4.799-6.339,9.271-9.763,14.279C125.349,286.962,127.045,281.572,132.905,278.509
			z"/>
		<path fill="#333333" d="M79.269,93.368c0.936,1.14,1.475,1.796,2.166,2.638c-3.06,0.708-1.867,2.076-0.09,3.926
			c-2.101,0.523-3.822,0.952-5.097,1.27c0.489-2.245,0.759-4.07,1.321-5.801C77.815,94.642,78.654,94.074,79.269,93.368z"/>
		<path fill="#333333" d="M161.223,146.555c0.879-0.472,1.757-0.945,2.636-1.417c0.892,0.217,1.784,0.435,3.498,0.852
			c-1.779,1.8-2.998,3.214-4.423,4.376c-0.503,0.41-1.509,0.205-2.285,0.28c0.021-0.729-0.017-1.466,0.08-2.185
			C160.817,147.814,161.052,147.189,161.223,146.555z"/>
		<path fill="#333333" d="M237.346,382.025c-2.824,3.377-5.648,6.754-8.472,10.131c-0.039-0.072-0.078-0.144-0.118-0.216
			c1.153-2.359,2.103-4.85,3.529-7.031c1.004-1.534,2.655-2.645,4.017-3.945C236.65,381.318,236.998,381.671,237.346,382.025z"/>
		<path fill="#333333" d="M227.771,326.857c2.235,3.716,4.471,7.432,6.706,11.148c-0.365,0.223-0.729,0.446-1.094,0.669
			c-2.283-3.675-4.566-7.349-6.849-11.024C226.947,327.386,227.359,327.121,227.771,326.857z"/>
		<path fill="#333333" d="M195.384,206.004c1.587-3.85,0.278-6.939-3.383-7.932c0.702-0.463,1.389-0.917,2.22-1.466
			c1.489,1.436,3.848,2.684,4.22,4.37c0.344,1.56-1.441,3.589-2.289,5.411C195.896,206.26,195.64,206.132,195.384,206.004z"/>
		<path fill="#333333" d="M225.293,268.706c2.746,4.494,3.167,9.061,0.883,13.88C225.873,277.816,225.583,273.261,225.293,268.706z"
			/>
		<path fill="#333333" d="M181.022,73.741c-0.868,3.861-1.735,7.723-2.603,11.584c-0.329-0.079-0.659-0.158-0.988-0.237
			c-2.311-4.642,2.524-7.575,2.75-11.61C180.461,73.566,180.742,73.653,181.022,73.741z"/>
		<path fill="#333333" d="M84.928,139.834c2.123,3.086,4.245,6.172,6.368,9.259c-4.417-1.596-6.397-4.828-7.083-8.93
			C84.452,140.053,84.69,139.944,84.928,139.834z"/>
		<path fill="#333333" d="M184.475,167.931c-5.715-2.403-11.43-4.807-17.145-7.21C173.869,161.102,179.088,164.716,184.475,167.931z
			"/>
		<path fill="#333333" d="M71.603,248.357c3.271-3.119,6.542-6.237,9.814-9.356c0.289,0.305,0.577,0.61,0.866,0.915
			c-3.289,3.104-6.579,6.208-9.868,9.312C72.145,248.938,71.874,248.647,71.603,248.357z"/>
		<path fill="#333333" d="M145.974,92.72c0.077,1.587-1.396,1.814-3.185,1.526c-1.127-0.182-2.234-0.483-3.714-0.812
			c-0.154-0.894-0.39-2.262-0.528-3.062C140.843,91.097,143.244,91.856,145.974,92.72z"/>
		<path fill="#333333" d="M68.743,362.249c1.149-5.538,2.298-11.077,3.447-16.615c0.223,0.043,0.446,0.086,0.668,0.129
			c-1.036,5.561-2.072,11.123-3.108,16.684C69.414,362.381,69.078,362.315,68.743,362.249z"/>
		<path fill="#333333" d="M168.619,306.217c0,0.947,0.237,2.09-0.072,3.059c-0.267,0.836-1.157,1.473-2.061,2.54
			c2.057,6.69,2.057,6.69-1.815,6.806c0.478-0.547,0.757-1.07,1.192-1.33c2.188-1.312,2.202-1.288,0.055-2.873
			c-1.461-1.078-1.048-3.447,0.592-4.855C167.309,308.878,167.701,307.721,168.619,306.217z"/>
		<path fill="#333333" d="M213.557,141.935c-1.32,0.703-2.123,1.275-3.019,1.565c-0.815,0.264-1.728,0.221-2.598,0.314
			c0.066-0.982-0.236-2.347,0.289-2.853c0.703-0.677,2.062-0.95,3.11-0.888C211.994,140.112,212.595,141.085,213.557,141.935z"/>
		<path fill="#333333" d="M138.565,123.765c0.623-0.4,1.247-0.801,1.87-1.201c1.127-0.192,2.253-0.384,3.827-0.652
			c-0.595,1.051-0.901,1.592-1.208,2.133c-1.288,0.683-2.576,1.365-3.864,2.048c-0.973,0.421-1.946,0.843-2.92,1.264
			c-0.114-0.178-0.228-0.356-0.342-0.534C136.807,125.804,137.686,124.785,138.565,123.765z"/>
		<path fill="#333333" d="M171.819,299.894c-1.632-1.545-3.263-3.09-5.004-4.739c0.771-0.426,1.623-0.897,2.047-1.131
			c-0.622-1.509-1.16-2.813-1.697-4.117c1.027,0.581,2.054,1.162,3.081,1.743c-0.11,1.494-0.221,2.989-0.369,4.991
			c0.373,0.834,3.591,0.747,1.89,3.309L171.819,299.894z"/>
		<path fill="#333333" d="M170.246,291.65c-1.027-0.581-2.054-1.162-3.081-1.743c0.384-0.753,0.699-1.551,1.169-2.245
			c0.549-0.81,1.233-1.53,2.163-2.658c0.108,0.318,0.906,1.57,0.603,1.955c-1.765,2.245-0.496,2.935,1.446,3.593
			c0.294,0.1,0.349,0.903,0.547,1.477C172.008,291.885,171.127,291.767,170.246,291.65z"/>
		<path fill="#333333" d="M204.772,28.59c-0.783,2.267-1.153,3.476-1.631,4.64c-0.153,0.373-0.549,0.819-0.906,0.894
			c-0.486,0.103-1.04-0.117-1.565-0.198c0.317-1.497,0.411-3.102,1.058-4.44C201.997,28.932,203.445,28.946,204.772,28.59z"/>
		<path fill="#333333" d="M171.767,299.951c0.911-0.472,1.821-0.944,2.732-1.417c-0.382-0.253-0.763-0.507-1.145-0.76
			c-0.805-1.292-1.611-2.584-2.703-4.336c1.872,1.047,3.552,1.434,4.061,2.424c0.52,1.012-0.11,2.615-0.247,4.079
			c0.891,0.317,1.805,0.642,2.855,1.016c-1.41,1.094-1.41,1.094-5.497-1.067C171.819,299.894,171.767,299.951,171.767,299.951z"/>
		<path fill="#333333" d="M307.659,134.614c-0.541,2.594-0.541,2.594-11.183,3.747c-0.071-0.279-0.143-0.559-0.214-0.838
			C299.997,136.57,303.73,135.617,307.659,134.614z"/>
		<path fill="#333333" d="M231.161,202.423c-2.938,1.285-5.165,2.259-7.546,3.301C223.301,202.611,226.722,201.018,231.161,202.423z
			"/>
		<path fill="#333333" d="M139.51,97.726c2.468-0.957,5.217-2.024,8.178-3.173c-0.05,0.272,0.053,1.325-0.416,1.942
			C146.101,98.033,141.074,98.535,139.51,97.726z"/>
		<path fill="#333333" d="M202.958,271.402c-3.99-2.524-3.99-2.524-1.616-7.379C201.936,266.739,202.415,268.926,202.958,271.402z"
			/>
		<path fill="#333333" d="M168.041,326.177c-1.857,0.288-2.728,0.691-3.359,0.455c-0.865-0.324-1.777-1.001-2.229-1.782
			c-0.303-0.525,0.157-1.49,0.275-2.259c0.879,0.168,1.934,0.09,2.596,0.563C166.277,323.833,166.943,324.912,168.041,326.177z"/>
		<path fill="#333333" d="M159.33,319.686c-1.525,1.489-2.808,2.742-4.17,4.072c-0.453-2.29-0.775-3.916-1.149-5.803
			C155.179,318.334,156.717,318.835,159.33,319.686z"/>
		<path fill="#333333" d="M192.783,135.295c0.484,4.914,0.967,9.829,1.519,15.438C190.975,145.443,192.803,140.264,192.783,135.295z
			"/>
		<path fill="#333333" d="M186.802,178.163c0.77,0.766,2.114,2.019,3.319,3.394c0.174,0.198-0.318,0.981-0.517,1.533
			c-1.881-1.181-3.599-2.26-4.759-2.989C185.496,179.457,186.142,178.817,186.802,178.163z"/>
		<path fill="#333333" d="M227.55,188.045c-0.801-1.413-1.348-2.379-1.955-3.45c-0.55,0.185-1.229,0.413-2.463,0.827
			c0.226-1.259,0.117-2.359,0.61-2.835c0.367-0.353,1.635-0.116,2.292,0.242C227.83,183.809,228.459,185.371,227.55,188.045z"/>
		<path fill="#333333" d="M165.536,142.935c0.207-0.223,0.414-0.445,0.621-0.668c2.701-1.125,4.837-0.072,7.087,1.674
			C170.094,146.177,168.095,142.655,165.536,142.935z"/>
		<path fill="#333333" d="M208.015,192.275c0.175-0.504,0.504-1.453,1.1-3.172c1.459,1.248,2.591,2.156,3.611,3.176
			c0.117,0.117-0.292,1.003-0.652,1.264c-0.228,0.166-0.825-0.142-1.243-0.279C210.043,193.005,209.264,192.716,208.015,192.275z"/>
		<path fill="#333333" d="M201.331,77.406c4.73-0.104,4.828,3.847,5.551,7.285C205.069,82.311,203.255,79.932,201.331,77.406z"/>
		<path fill="#333333" d="M173.827,307.32c0.954,0.34,1.837,0.655,3.168,1.129c-3.395,2.06-3.969-0.902-5.198-1.809
			c0.634-0.587,1.318-1.22,2.133-1.975c-0.945-0.855-1.536-1.39-2.127-1.925C175.737,302.784,173.462,305.481,173.827,307.32z"/>
		<path fill="#333333" d="M190.392,207.49c-1.031-2.892-1.49-5.776-4.903-6.329c2.342-0.987,2.435-0.891,4.553,1.067
			C191.766,203.823,191.286,205.454,190.392,207.49z"/>
		<path fill="#333333" d="M53.62,180.36c1.7-4.08,3.4-8.161,5.1-12.241c0.217,0.091,0.433,0.181,0.65,0.272
			c-1.729,4.067-3.458,8.135-5.187,12.202C53.995,180.515,53.807,180.438,53.62,180.36z"/>
		<path fill="#333333" d="M86.923,152.064c-2.62,0.705-4.169-0.935-5.834-6.258C83.263,148.138,84.978,149.978,86.923,152.064z"/>
		<path fill="#333333" d="M84.658,280.301c0.322-2.612,0.643-5.225,0.965-7.837c0.351,0.053,0.701,0.106,1.052,0.159
			C87.964,275.462,85.709,277.732,84.658,280.301z"/>
		<path fill="#333333" d="M199.129,34.415c2.388,1.58,1.654,3.506-2.716,6.836C197.47,38.592,198.258,36.607,199.129,34.415z"/>
		<path fill="#333333" d="M198.547,178.347c3.091-5.888,3.903-6.595,6.507-5.862C202.848,174.473,200.698,176.41,198.547,178.347z"
			/>
		<path fill="#333333" d="M189.036,176.54c1.388-1.77,2.776-3.54,4.165-5.31c0.376,0.286,0.751,0.573,1.127,0.859
			c-1.354,1.783-2.707,3.566-4.061,5.35C189.856,177.139,189.446,176.84,189.036,176.54z"/>
		<path fill="#333333" d="M233.327,167.844c0.432-1.3-2.915-2.039-0.52-3.517c0.519-0.32,1.539,0.175,2.329,0.294
			c-0.28,1.142-0.559,2.284-0.839,3.426C233.973,167.98,233.65,167.912,233.327,167.844z"/>
		<path fill="#333333" d="M181.871,269.498c1.056,0.478,1.866,0.846,2.677,1.213c-0.117,0.298-0.234,0.597-0.351,0.895
			c-1.234-0.45-2.469-0.9-3.877-1.413c0.582-1.277,0.996-2.187,1.478-3.245c-0.544-0.324-1.08-0.645-1.876-1.12
			c0.499-0.211,0.791-0.437,1.089-0.445c2.207-0.062,1.511,1.407,1.309,2.58C182.242,268.419,182.062,268.858,181.871,269.498z"/>
		<path fill="#333333" d="M159.62,320.048c0.755-1.268,1.511-2.537,2.266-3.805c0.348,0.052,0.695,0.104,1.043,0.156
			c0.101,0.858,0.557,1.911,0.219,2.528c-0.483,0.882-1.548,1.445-2.364,2.145C160.396,320.73,160.008,320.389,159.62,320.048z"/>
		<path fill="#333333" d="M159.375,212.722l-0.111-0.061c1.348,0.707,2.697,1.414,4.045,2.121c-0.104,0.24-0.209,0.48-0.313,0.72
			c-2.238-0.611-4.476-1.223-7.65-2.09C157.209,213.093,158.292,212.907,159.375,212.722z"/>
		<path fill="#333333" d="M190.593,55.339c-0.528-1.153-1.255-2.008-1.058-2.457c0.446-1.017,1.348-1.834,2.064-2.733
			c0.556,0.69,1.618,1.442,1.542,2.054C193.046,52.987,192.034,53.659,190.593,55.339z"/>
		<path fill="#333333" d="M61.062,402.899c1.756,0.623,3.512,1.247,5.267,1.87c-0.141,0.443-0.283,0.885-0.424,1.328
			c-1.784-0.54-3.568-1.079-5.352-1.619C60.723,403.952,60.893,403.425,61.062,402.899z"/>
		<path fill="#333333" d="M229.394,181.753c-1.755,0.361-3.051-0.111-3.102-2.132c-0.014-0.544,0.699-1.106,1.079-1.66
			C228.188,179.134,230.821,179.311,229.394,181.753z"/>
		<path fill="#333333" d="M116.315,34.422c0.383,2.199,0.679,3.899,0.995,5.711C113.149,39.316,112.998,38.608,116.315,34.422z"/>
		<path fill="#333333" d="M140.177,188.562c1.953-0.536,4.155,2.126,5.379,6.735C143.476,192.692,141.897,190.715,140.177,188.562z"
			/>
		<path fill="#333333" d="M246.595,403.92c-2.098,1.802-3.571,3.067-5.263,4.52C241.698,404.988,242.79,403.919,246.595,403.92z"/>
		<path fill="#333333" d="M51.025,266.546c2.994-1.787,5.988-3.574,8.982-5.361c0.173,0.279,0.346,0.557,0.519,0.836
			c-2.941,1.861-5.882,3.722-8.823,5.582C51.476,267.251,51.251,266.898,51.025,266.546z"/>
		<path fill="#333333" d="M80.464,172.597c-0.418,0.619-0.835,1.238-1.407,2.086c0.853,0.086,1.504,0.151,2.155,0.217
			c0.003,0.197,0.006,0.393,0.009,0.59c-1.707,0.237-3.414,0.474-5.121,0.71c-0.12-0.333-0.239-0.667-0.359-1
			c1.432-1.017,2.864-2.035,4.296-3.052C80.179,172.297,80.321,172.447,80.464,172.597z"/>
		<path fill="#333333" d="M148.308,243.466c0.904-0.041,1.809-0.081,2.894-0.13c0.305-1.165,0.67-2.561,1.036-3.958
			c0.324,0.052,0.649,0.104,0.973,0.156c-0.322,1.6-0.256,3.471-1.112,4.699c-0.504,0.724-2.47,0.43-3.778,0.594
			C148.317,244.373,148.313,243.92,148.308,243.466z"/>
		<path fill="#333333" d="M187.277,309.416c-0.787,0.73-1.655,1.534-2.744,2.544c0.991,0.397,1.777,0.713,2.564,1.028
			c-0.007,0.27-0.014,0.539-0.022,0.809c-0.881,0-1.834,0.203-2.616-0.076c-0.471-0.168-1.075-1.262-0.914-1.63
			c0.338-0.771,1.135-1.345,1.76-1.984c0.438-0.447,0.902-0.87,1.364-1.293c0.056-0.051,0.196-0.077,0.255-0.043
			C186.996,308.813,187.021,308.932,187.277,309.416z"/>
		<path fill="#333333" d="M213.251,130.321c-2.459,0.491-4.917,0.982-7.376,1.473c-0.082-0.33-0.164-0.659-0.246-0.989
			c2.43-0.614,4.86-1.228,7.29-1.841C213.03,129.416,213.141,129.869,213.251,130.321z"/>
		<path fill="#333333" d="M122.817,31.884c-1.526-1.227-2.786-2.239-4.067-3.268c0.794-0.697,1.508-1.323,2.59-2.273
			C121.821,28.149,122.27,29.832,122.817,31.884z"/>
		<path fill="#333333" d="M71.153,147.083c4.091,1.023,1.508,3.388,2.276,4.879c-0.292,0.083-0.584,0.166-0.877,0.249
			C72.123,150.639,71.694,149.068,71.153,147.083z"/>
		<path fill="#333333" d="M113.024,184.321c-0.59,2.187-1.179,4.375-1.83,6.79c-2.919-3.191,0.652-4.763,0.874-7.034
			C112.386,184.158,112.705,184.239,113.024,184.321z"/>
		<path fill="#333333" d="M137.934,35.316c0.985,0.636,1.59,0.994,2.159,1.402c0.602,0.432,1.169,0.912,2.127,1.667
			c-1.588,0-2.792,0-4.286,0C137.934,37.543,137.934,36.699,137.934,35.316z"/>
		<path fill="#333333" d="M228.683,167.624c-0.662-0.936-1.387-1.835-1.956-2.824c-0.231-0.402-0.314-1.1-0.115-1.48
			c0.206-0.392,0.899-0.838,1.267-0.757c0.446,0.098,1.089,0.721,1.095,1.125c0.02,1.29-0.215,2.584-0.347,3.881
			C228.633,167.573,228.683,167.624,228.683,167.624z"/>
		<path fill="#333333" d="M182.39,279.491c-1.033-1.402-1.825-2.476-2.617-3.55c3.816,3.773,3.816,3.773,2.047,5.952
			c0.101-0.753,0.109-1.215,0.235-1.642C182.188,279.805,182.435,279.393,182.39,279.491z"/>
		<path fill="#333333" d="M214.602,10.752c-0.182-0.227-0.363-0.454-0.545-0.681c-1.352-0.658-2.705-1.316-4.219-2.053
			c3.082-0.549,6.642,1.311,7.861,4.186C216.524,11.653,215.563,11.203,214.602,10.752z"/>
		<path fill="#333333" d="M162.914,100.742c0.805-0.064,2.225-0.37,2.311-0.15c0.398,1.008,0.423,2.164,0.582,3.266
			c-0.256,0.091-0.511,0.181-0.767,0.272c-0.757-0.812-1.514-1.624-2.27-2.435C162.818,101.377,162.866,101.059,162.914,100.742z"/>
		<path fill="#333333" d="M62.957,378.988c2.091,0.295,4.182,0.589,6.273,0.884c-0.043,0.34-0.086,0.68-0.129,1.019
			c-2.137-0.366-4.273-0.732-6.41-1.098C62.78,379.525,62.869,379.257,62.957,378.988z"/>
		<path fill="#333333" d="M168.128,298.655c2.65,1.687,0.531,3.358,0.201,5.218c-1.019-0.069-1.978-0.134-2.949-0.2
			C165.109,301.36,170.785,302.419,168.128,298.655z"/>
		<path fill="#333333" d="M171.97,40.753c0.75-1.657,1.5-3.313,2.249-4.97c0.397,0.197,0.794,0.394,1.191,0.592
			c-0.835,1.644-1.67,3.288-2.505,4.932C172.593,41.122,172.281,40.938,171.97,40.753z"/>
		<path fill="#333333" d="M78.079,300.966c0.337-2.5,0.674-5,1.011-7.501c0.252,0.022,0.504,0.045,0.756,0.067
			c-0.305,2.512-0.61,5.025-0.915,7.537C78.646,301.035,78.362,301,78.079,300.966z"/>
		<path fill="#333333" d="M110.048,106.329c1.474,0.73,2.949,1.46,4.78,2.366c-1.296,1.071-1.939,1.602-2.862,2.364
			c0.06-0.831,0.105-1.462,0.148-2.068c-0.891-0.523-1.778-1.043-2.665-1.563C109.649,107.062,109.849,106.695,110.048,106.329z"/>
		<path fill="#333333" d="M151.717,229.014c1.477-0.411,2.954-0.822,4.938-1.374c-0.415,0.925-0.655,2.231-1.101,2.306
			c-1.285,0.215-2.654-0.066-3.989-0.152C151.616,229.534,151.667,229.274,151.717,229.014z"/>
		<path fill="#333333" d="M119.851,123.848c1.523-1.122,3.618-1.94,1.746-4.49c0.842-0.15,1.386-0.248,2.195-0.392
			c-0.067,0.595-0.053,1.033-0.172,1.433C123.068,122.255,122.332,123.941,119.851,123.848z"/>
		<path fill="#333333" d="M90.179,222.561c0.573-0.44,1.092-1.021,1.738-1.272c0.465-0.181,1.102,0.079,1.815,0.159
			c0.175,0.792,0.395,1.79,0.768,3.482c-1.764-1-3.033-1.719-4.303-2.432C90.194,222.504,90.179,222.561,90.179,222.561z"/>
		<path fill="#333333" d="M139.469,82.861c-1.794,3.163-5.677,3.342-8.038,0.513C134.184,84.564,136.922,85.563,139.469,82.861z"/>
		<path fill="#333333" d="M201.678,202.936c-0.327-1.75-0.687-3.683-1.078-5.777C203.331,198.765,203.53,200.589,201.678,202.936z"
			/>
		<path fill="#333333" d="M162.062,276.429c-1.064,0.235-2.127,0.47-3.469,0.767c0,0.682,0,1.563,0,2.445
			c-0.129,0.025-0.259,0.05-0.388,0.076c-0.374-0.794-0.747-1.588-1.339-2.844c0.99-0.412,1.995-0.733,2.895-1.24
			c0.606-0.341,1.064-0.945,1.588-1.431c0.145-0.089,0.29-0.179,0.434-0.268c0.073,0.857,0.145,1.713,0.218,2.57L162.062,276.429z"
			/>
		<path fill="#333333" d="M88.418,129.168c0.456-1.209,0.911-2.417,1.486-3.943c0.862,0.692,1.476,1.185,2.461,1.975
			c-1.168,0.91-2.18,1.698-3.191,2.486C88.922,129.514,88.67,129.341,88.418,129.168z"/>
		<path fill="#333333" d="M133.936,74.889c2.304-1.382,3.865-0.841,5.95,2.124C137.924,76.313,136.001,75.626,133.936,74.889z"/>
	</g>
</g>
</svg>
