<?xml version="1.0" encoding="utf-8"?>
<!-- Generator: Adobe Illustrator 17.1.0, SVG Export Plug-In . SVG Version: 6.00 Build 0)  -->
<!DOCTYPE svg PUBLIC "-//W3C//DTD SVG 1.1//EN" "http://www.w3.org/Graphics/SVG/1.1/DTD/svg11.dtd">
<svg version="1.1" id="Calque_1" xmlns="http://www.w3.org/2000/svg" xmlns:xlink="http://www.w3.org/1999/xlink" x="0px" y="0px"
	 viewBox="0 0 314.869 421.47" enable-background="new 0 0 314.869 421.47" xml:space="preserve">
<g>
	<path fill="#333333" d="M258.245,219.212c-0.607,0.197-1.285,0.283-1.803,0.618c-0.72,0.465-1.243,1.263-1.988,1.655
		c-1.14,0.599-2.399,0.973-3.79,1.513c-0.356-0.22-0.786-0.524-1.251-0.761c-0.367-0.187-0.776-0.29-1.491-0.546
		c0.047,0.624,0.036,0.988,0.112,1.332c0.086,0.387,0.251,0.757,0.438,1.297c-0.525,0-0.934,0.129-1.116-0.02
		c-1.448-1.188-3.042-1.844-4.942-2.064c-3.173-0.367-3.962-3.085-4.639-5.543c-0.71-2.581-0.909-5.3-1.49-7.923
		c-0.218-0.984-0.882-1.87-1.61-2.71c-0.205,6.263,1.858,12.05,3.647,18.239c-2.073-0.324-3.515-1.296-4.946-2.376
		c-3.106-2.344-6.255-4.632-9.413-6.962c-0.607,0.534-1.058,0.931-1.569,1.38c4.551,2.874,9.2,5.49,12.499,9.838
		c-0.811,0.87-1.577,1.692-2.585,2.774c-6.478-3.031-13.113-6.136-19.69-9.213c-2.048,3.002-4.208,0.156-6.26,0.496
		c0.543-0.362,1.087-0.725,1.996-1.331c-1.462,0.12-2.48,0.204-3.928,0.323c2.249-2.821,4.697-4.739,7.265-6.515
		c1.513-1.046,2.956-0.142,4.325,0.391c1.459,0.568,2.815,1.002,4.267-0.189c-1.815-0.989-3.598-1.961-5.257-2.865
		c1.285-2.824,2.874-5.357,3.607-8.117c1.771-6.669,1.423-13.068-3.398-18.68c-2.322-2.703-4.355-5.665-6.378-8.606
		c-0.635-0.923-1.144-2.173-1.111-3.255c0.041-1.335-1.009-1.159-1.535-1.666c1.617-4.062,2.309-8.691,6.934-10.882
		c-0.204-4.054-0.636-8.053,0.637-12.001c0.472,1.018,0.915,1.974,1.338,2.889c2.471,0.497,3.222,0.298,3.977-1.016
		c0.695-1.21,0.557-3.123-0.382-3.933c-0.806-0.696-1.577-0.6-2.13,0.408c0.861,0.348,2.413,0.057,1.832,1.748
		c-0.173,0.504-0.873,1.154-1.343,1.163c-1.071,0.021-1.754-0.754-1.973-1.815c-0.512-2.483,1.413-5.73,4.022-6.671
		c1.001-0.361,2.08-0.503,3.173-0.757c-0.431-1.155-1.583-1.326-2.129-0.889c-1.939,1.552-3.978,0.901-6.203,0.639
		c-0.081-0.457-0.39-1.054-0.225-1.457c1.306-3.19,5.904-4.986,8.989-3.5c0.737,0.355,1.526,0.923,1.923,1.607
		c1.915,3.3,5.094,5.266,7.88,7.636c0.466,0.397,1.309,0.351,2.089,0.536c0.6,1.085,1.55,2.233,1.86,3.533
		c0.293,1.229-0.086,2.618-0.154,3.692c1.573-0.943,1.573-0.943,1.165-7.27c0.368-0.197,0.736-0.393,1.323-0.706
		c-2.409-1.839-2.978-4.426-3.398-7.312c2.075-0.055,3.395,1.037,4.359,2.463c2.58,3.817,3.955,8.176,4.954,12.598
		c0.387,1.711-0.182,3.638-0.338,5.781c0.214,0.509,1.896-0.015,1.52,1.78c-0.622,2.967-0.38,3.036,2.662,3.984
		c0.195,0.061,0.357,0.227,0.843,0.548c0.516,2.463,1.087,5.185,1.656,7.907c0.446-3.686-0.02-7.865-1.258-11.466
		c-0.094-0.273-0.173-0.635-0.073-0.879c1.074-2.605-0.352-4.443-2.025-6.031c-1.646-1.562-2.062-3.029-1.703-5.413
		c0.364-2.419-0.542-5.061-1.063-7.57c-0.279-1.347-0.918-2.619-1.367-3.849c1.032-1.978,2.832-2.758,4.568-3.068
		c2.605-0.466,5.305-0.4,7.966-0.551c0.205-0.012,0.567-0.002,0.599,0.088c0.873,2.465,3.428,2.262,5.188,3.311
		c1.164,0.695,2.297,1.026,3.7,0.61c0.578-0.171,1.521,0.171,2.032,0.598c4.593,3.838,7.185,8.392,6.243,14.767
		c-0.676,4.576-2.729,7.877-6.9,10.513c0.213,1.782,0.599,3.738,0.647,5.703c0.088,3.572,0.408,7.217-0.144,10.709
		c-1.199,7.581-2.969,15.07-4.336,22.628c-0.635,3.512-1.21,7.098-1.193,10.647c0.017,3.479-1.129,6.057-3.817,8.086
		L258.245,219.212z M236.122,165.798c-0.106-0.229-0.212-0.459-0.318-0.688c-3.518,1.204-6.868,2.919-10.721,2.947
		c-4.06,0.029-7.452-1.35-10.677-4.007c-0.477,1.715-0.893,3.208-1.349,4.846c0.834-0.107,1.346-0.173,1.872-0.241
		c-0.611,2.154-0.247,4.242,0.994,6.666c0.681,1.33,1.111,2.791,1.814,4.108c1.282,2.4,3.378,4.499,2.454,7.626
		c-0.091,0.306,0.293,0.753,0.52,1.282c1.099-0.254,2.103-0.486,2.826-0.652c1.204-2.26,0.503-4.871,2.669-6.426
		c0.376-0.27,0.347-1.21,0.37-1.846c0.174-4.806,2.593-8.342,6.266-11.174C233.922,167.406,235.029,166.61,236.122,165.798z
		 M251.339,152.43c0,1.44-0.076,2.525,0.031,3.592c0.057,0.565,0.331,1.176,0.682,1.63c1.701,2.196,4.208,3.232,6.632,4.305
		c2.16,0.956,4.401,1.146,6.588-0.11c-2.111-1.071-4.019-2.035-5.925-3.006c-2.148-1.095-4.505-1.918-5.222-4.674
		c-0.145-0.556-0.89-0.932-1.265-1.457c-0.989-1.385-1.927-2.806-2.678-3.909c1.351-5.191,6.034-6.995,8.897-10.581
		c-2.216-0.02-2.544,0.032-4.087,1.136c-2.108,1.508-4.188,3.056-6.246,4.631c-2.478,1.896-2.826,4.495-0.896,6.939
		c0.776,0.982,1.715,1.836,2.58,2.749C250.66,153.361,250.887,153.049,251.339,152.43z M250.328,203.723
		c-0.24,0.094-0.479,0.188-0.719,0.282c-0.703,4.269-3.744,8.428-0.488,13.244c0.383-0.616,0.737-0.94,0.787-1.306
		c0.486-3.496,0.97-6.994,1.319-10.504C251.282,204.902,250.645,204.296,250.328,203.723z M260.496,197.685
		c0,1.888,0.102,3.784-0.028,5.663c-0.141,2.029-0.419,4.058-0.786,6.06c-0.322,1.758-1.088,3.443-0.853,5.276
		C260.495,209.137,261.778,203.541,260.496,197.685z"/>
	<path fill="#333333" d="M209.27,233.589c1.012,1.378,1.919,1.137,2.995,0.584c3.897-2.003,8.097-3.026,12.409-3.64
		c0.998-0.142,1.001-0.127,1.723,1.093c-0.43-0.054-0.861-0.108-1.403-0.178c-0.155,5.357-1.384,10.267-3.11,15.188
		c-2.897,8.261-7.171,15.775-11.596,23.22c-1.644,2.767-3.959,5.131-5.936,7.704c-0.784,1.021-1.57,2.06-2.19,3.182
		c-0.575,1.04-1.063,1.612-2.426,2.052c-1.682,0.544-2.935,2.429-4.362,3.747c-1.074,0.992-2.131,2.002-3.72,3.499
		c-0.352-2.853-0.644-4.961-0.864-7.077c-0.279-2.687-0.443-5.386-0.753-8.069c-0.936-8.106-1.194-16.21,0.056-24.302
		c0.122-0.793,0.621-1.598,1.139-2.24c0.534-0.662,1.285-1.159,1.979-1.679c0.508-0.381,1.077-0.683,1.786-1.125
		c0.691,1.722-0.158,2.878-0.993,3.93c-1.934,2.437-1.763,5.487-2.421,8.272c-0.2,0.846,1.28,1.569,1.236,2.955
		c-0.049,1.561,0.522,3.094-0.009,4.744c-0.292,0.909-0.342,2.093,0.558,3.309c1.456-1.855,2.424-3.52,1.676-5.745
		c-0.573-1.704-0.353-3.359,0.058-5.1c0.492-2.084,0.555-4.265,0.893-6.39c0.184-1.156,0.487-2.306,0.861-3.417
		c0.413-1.228,1.456-2.45,1.355-3.599c-0.173-1.981,1.009-2.657,2.261-3.452c2.376-1.508,4.775-2.979,7.292-4.545
		c-0.316-0.355-0.691-0.778-1.086-1.222c-2.463,1.309-4.915,2.613-7.647,4.065c-0.734-4.868,3.215-5.57,6.307-7.828
		c-1.309-0.06-1.973-0.196-2.599-0.094c-0.949,0.155-1.867,0.495-2.809,0.711c-0.172,0.039-0.394-0.138-0.712-0.261
		c-0.675-2.206,0.019-4.228,0.889-6.388c-0.579,0.66-1.159,1.32-2.251,2.564c0.694-3.024,2.407-4.472,3.425-5.706
		c6.929-1.086,13.14-0.342,19.251,3.233c-1.634,0.518-3.001,0.949-4.366,1.385c-1.436,0.459-2.843,1.067-4.313,1.354
		c-2.183,0.426-4.079,1.284-5.91,3.053c5.351-1.499,10.172-4.155,15.785-2.918C217.602,230.158,213.472,231.859,209.27,233.589z
		 M196.701,269.121c-1.746,2.534-1.465,5.438-1.764,8.24C197.998,275.163,197.36,272.133,196.701,269.121z"/>
	<path fill="#333333" d="M279.041,180.409c0.276-1.647,0.571-3.097,0.729-4.562c0.043-0.395-0.332-0.835-0.515-1.256
		c-0.195-0.451-0.542-0.896-0.56-1.354c-0.216-5.522-0.415-11.045-0.535-16.57c-0.023-1.063,0.384-2.128,0.469-3.201
		c0.265-3.34,0.474-6.684,0.696-10.027c0.065-0.973-0.083-2.002,0.183-2.912c0.966-3.307,0.114-6.485-0.726-9.595
		c-0.398-1.473-1.593-2.731-2.535-4.264c0.448-0.298,0.949-0.631,1.609-1.07c-0.955-2.418-2.565-4.501-4.45-6.146
		c-1.161-1.014-3.132-1.1-5.089-1.711c-0.268-1.27-1.68-2.206-2.992-3.234c-1.658-1.298-3.069,0.069-4.782,0.509
		c-0.492-0.729-1.001-1.483-1.722-2.55c1.636,0,3.08,0.216,4.431-0.047c2.466-0.48,4.265,0.495,5.732,2.24
		c1.094,1.301,2.43,1.971,3.979,2.602c1.429,0.582,2.792,1.665,3.798,2.854c1.097,1.297,1.892,2.909,2.567,4.491
		c1.186,2.779,2.474,5.57,3.165,8.488c0.587,2.477,0.496,5.138,0.511,7.719c0.012,2.051-0.305,4.102-0.414,6.156
		c-0.471,8.884-0.85,17.773-1.418,26.65c-0.165,2.572-0.76,5.13-1.311,7.661c-1.224,5.614-0.707,11.223,1.875,16.148
		c4.488,8.561,7.301,17.584,9.204,26.961c1.765,8.696,3.421,17.414,5.121,26.122c0.062,0.319,0.119,0.644,0.123,0.967
		c0.074,5.628,0.171,11.255,0.194,16.883c0.011,2.712-0.066,5.427-0.212,8.134c-0.065,1.203-0.4,2.391-0.562,3.306
		c-0.809,0-1.228,0-1.7,0c-0.034-0.068-0.192-0.238-0.194-0.409c-0.044-3.906-0.066-7.813-0.105-11.72
		c-0.01-1.035,0.128-2.167-1.411-2.719c-0.713,1.689-0.523,3.281-0.197,4.818c0.671,3.164,0.336,6.215-0.544,9.293
		c-0.499,1.746-0.677,3.586-0.964,5.389c-0.306,1.92-0.544,3.851-0.878,5.766c-0.061,0.353-0.433,0.653-1.176,0.832
		c0.493-3.818,1.003-7.634,1.469-11.455c0.155-1.274,0.22-2.561,0.286-3.844c0.055-1.053,0.053-2.108,0.073-3.163
		c0.048-2.495,0.118-4.99,0.133-7.485c0.009-1.543,0.076-3.001,1.294-4.207c1.073-1.062,0.882-2.401,0.252-3.601
		c-1.749-3.331-3.813-6.519-5.287-9.963c-1.087-2.541-1.448-5.393-2.117-8.11c-0.1-0.407-0.115-0.835-0.227-1.693
		c-0.992,1.399-1.756,2.477-2.894,4.083c0-2.042-0.457-3.647,0.092-4.752c1.258-2.529,0.35-5.064,0.564-7.571
		c0.245-2.867-0.881-5.505-2.067-8.071c-0.182-0.394-0.498-0.757-0.569-1.166c-0.594-3.449-3.122-5.207-5.944-6.766
		c-0.649,0.202-1.386,0.431-2.08,0.646c-0.981-1.421-0.295-2.525,0.28-3.516c0.903-1.559-0.179-2.957-0.13-4.418
		c0.054-1.606-0.161-3.003-1.739-3.797c0.262-0.904,0.405-1.654,0.692-2.344c1.597-3.834,1.957-7.643,0.027-11.495
		c-0.274-0.547-0.265-1.262-0.288-1.903c-0.117-3.321-0.262-6.633-1.077-9.881c-0.123-0.49,0.074-1.053,0.076-1.582
		c0.01-2.681,0.005-5.362,0.005-8.331c0.941-2.322,4.246-0.808,5.82-3.288C276.654,169.19,278.258,174.592,279.041,180.409z"/>
	<path fill="#333333" d="M171.905,143.08c-0.272-0.329-0.544-0.658-0.789-0.954c0.45-0.808,0.893-1.603,1.59-2.856
		c-2.211,0.319-3.475,2.393-5.241,1.628c2.872-2.094,5.85-4.266,8.838-6.445c0.055,0.12,0.228,0.495,0.467,1.013
		c3.265-2.347,6.389-1.241,9.478,0.451c-3.533-0.226-3.533-0.226-4.724,1.162c1.106,0.145,2.233,0.088,3.176,0.477
		c0.869,0.359,1.541,1.198,2.289,1.817c1.071-0.388,1.343-1.118,0.718-2.009c-0.416-0.593-1.046-1.036-1.581-1.546
		c2.021,0.305,4.043,0.611,6.623,1c-1.112,1.162-1.953,2.041-2.827,2.954c0.277,0.767,0.576,1.596,0.944,2.617
		c3.626-0.478,6.54-3.884,10.652-2.987c0.792,2.339,0.069,4.458-0.902,6.302c-1.241,2.357-3.075,4.394-4.449,6.692
		c-0.928,1.553-1.502,3.317-2.338,5.223c-2.324-3.252-4.501-6.624-9.664-6.656c1.397,1.944,2.537,3.452,3.58,5.025
		c0.386,0.582,0.608,1.299,0.787,1.985c0.271,1.034,0.438,2.095,0.704,3.415c-1.959,0.2-3.298,1.448-4.162,3.254
		c-1.195,2.497-2.965,4.691-3.711,7.438c-0.303,1.117-1.035,2.136-1.665,3.142c-0.836,1.336-1.763,2.615-2.813,4.156
		c-2.185-0.052-2.858-2.759-4.818-3.548c-0.601,2.663,0.879,5.091,1.106,7.841c-0.995-0.162-1.717-0.292-2.443-0.389
		c-0.237-0.032-0.689,0.077-0.7,0.035c-0.507-2.001-2.333-3.085-3.279-4.768c-0.175-0.312-0.188-0.715-0.442-1.759
		c-1.378,5.095-1.361,10.012-5.273,13.348c1.365,2.857,5.743,1.676,6.499,4.844c-1.224,1.143-2.309,2.155-3.557,3.319
		c-0.3-0.432-0.582-0.838-0.873-1.256c-0.413,1.034-0.826,2.07-1.239,3.106c-0.149,0-0.298-0.001-0.447-0.001
		c-0.102-0.825-0.205-1.651-0.34-2.743c-2.914,0.843-5.679,1.423-8.358-0.299c-2.06,2.346,0.544,4.387-0.039,6.628
		c-0.956,0.38-1.747,0.374-2.299-1.02c-0.867-2.19-1.946-4.296-2.933-6.434c-1.803,0.113-3.563,0.222-5.322,0.332
		c-0.04-0.161-0.081-0.321-0.121-0.482c0.966-0.309,1.912-0.752,2.902-0.9c2.128-0.318,4.283-0.452,6.418-0.729
		c0.738-0.096,1.475-0.33,2.169-0.611c3.065-1.239,5.605-3.283,7.939-5.543c2.135-2.066,2.387-4.993,3.153-7.805
		c-3.082-3.136-6.149-6.282-9.256-9.388c-0.446-0.446-1.052-0.784-1.644-1.023c-4.67-1.881-8.315-4.958-10.996-9.338
		c0.527-1.181,1.08-2.421,1.784-4c0.436,0.747,0.859,1.384,1.195,2.064c1.661,3.35,3.765,6.375,6.996,8.347
		c1.534,0.936,3.326,1.477,5.044,2.074c1.735,0.602,3.522,1.056,5.289,1.567c2.703,0.783,3.43,0.524,4.546-2.056
		c1.501-3.468,2.858-6.999,4.292-10.497c0.703-1.714,1.807-3.052,3.189-4.358c1.803-1.703,3.904-1.598,6.241-1.9
		c0.04-0.736,0.079-1.441,0.125-2.286c-0.719-0.37-1.467-0.756-2.405-1.239c1.516-1.325,3.037-2.654,4.462-3.9
		c-0.8-0.344-0.711-1.125-0.345-1.827c-1.403,0-2.911,0.173-4.358-0.046c-1.621-0.246-2.052-1.69-2.631-3.186
		c-0.226,0.841-0.451,1.681-0.759,2.826c-1.08,0.189-2.32,0.405-3.559,0.621L171.905,143.08z"/>
	<path fill="#333333" d="M23.267,339.411c2.124-4.736,5.204-8.733,8.699-12.421c1.425-1.504,2.773-3.015,3.396-5.084
		c0.235-0.781,0.902-1.455,1.446-2.116c1.434-1.741,3.133-3.307,4.329-5.194c4.259-6.722,9.698-12.495,14.706-18.61
		c4.525-5.525,9.161-10.962,13.843-16.355c2.056-2.369,4.352-4.529,6.531-6.791c2.397-2.488,4.697-5.077,7.197-7.456
		c3.366-3.204,6.883-6.249,10.335-9.363c0.242-0.218,0.52-0.409,0.715-0.663c4.709-6.128,11.216-10.158,17.295-14.647
		c7.492-5.531,15.194-10.779,22.817-16.131c0.88-0.618,1.841-1.123,2.863-1.74c0.7,1.179,0.473,1.993-0.523,2.746
		c-1.727,1.306-3.407,2.673-5.109,4.011c-2.123,1.67-4.189,3.421-6.398,4.969c-1.059,0.742-2.024,1.744-3.781,1.168
		c-1.426-0.468-1.758,0.37-0.864,2.445c-1.323,1.105-2.755,2.228-4.106,3.44c-7.095,6.362-14.172,12.744-21.252,19.123
		c-9.203,8.291-17.341,17.583-25.008,27.264c-5.378,6.79-10.253,13.977-15.43,20.93c-3.04,4.083-6.269,8.024-9.336,12.087
		c-2.154,2.853-4.216,5.779-6.244,8.724c-1.006,1.461-2.211,2.187-4.05,2.2c-4.053,0.029-7.074,2.332-9.884,4.926
		C24.638,337.624,23.991,338.559,23.267,339.411z"/>
	<path fill="#333333" d="M228.343,56.658c5.966,2.892,7.848,7.686,8.907,13.047c-2.339,1.529-6.625,1.082-6.099,5.904
		c2.944,1.061,5.861,2.102,8.77,3.165c1.279,0.467,2.324,1.19,2.602,2.837c-0.595,0.865-1.196,1.896-1.951,2.796
		c-1.019,1.215-1.537,2.54-1.652,4.131c-0.167,2.302-1.43,4.204-2.37,6.533c-1.022-0.566-1.721-0.953-2.567-1.422
		c0.688-0.629,1.182-1.08,1.752-1.601c-1.316-1.404-2.901-2.17-4.451-2.113c-2.834,0.104-5.885-0.085-8.073,2.417
		c0.601,1.718,0.601,1.718-1.424,2.424c-0.391-1.657-0.498-3.425-1.222-4.889c-1.187-2.4-2.845-4.563-4.164-6.905
		c-0.667-1.184-1.134-2.515-1.468-3.835c-0.12-0.474,0.416-1.115,0.789-2.005c3.205,2.035,6.223,1.875,9.212-0.668
		c0.626,1.1,1.13,1.986,1.635,2.871c2.255-4.39,0.523-7.765-4.227-7.997c-2.026-0.099-4.072,0.202-6.256,0.329
		c1.114-3.732,2.31-7.565,3.381-11.433c0.299-1.079,0.781-1.708,1.866-1.951C223.857,57.728,226.373,57.12,228.343,56.658z
		 M232.808,86.4c-0.349-1.838-0.677-2.226-2.285-1.973c-1.756,0.276-3.477,0.778-5.215,1.181c-0.15,0.855-0.276,1.573-0.433,2.465
		c1.609,0.224,3.068,0.428,4.339,0.605C230.501,87.863,231.642,87.14,232.808,86.4z"/>
	<path fill="#333333" d="M127.435,70.684c-1.458-6.756-1.98-13.648-1.663-20.582c0.049-1.07-0.067-1.889-0.689-2.687
		c-0.324-0.416-0.756-0.791-0.947-1.262c-1.193-2.931-1.461-3.103-4.308-2.448c-0.313,0.072-0.623,0.157-1.042,0.263
		c-0.421-1.33-0.837-2.64-1.325-4.181c-1.254,1.059-2.094,0.576-2.852-0.601c-1.268-1.968-2.634-3.872-4.283-6.277
		c-0.229,1.582-0.37,2.552-0.53,3.66c-3.201-2.964-3.201-2.964-2.064-8.544c0.705,0.616,1.324,1.157,1.957,1.71
		c0.079-0.114,0.257-0.253,0.26-0.396c0.026-1.301,0.038-2.603,0.021-3.905c-0.017-1.325,0.14-2.416,1.327-3.425
		c1.656-1.408,1.628-3.541,1.097-5.459c-0.648-2.341-0.299-4.402,1.502-5.902c2.003-1.668,4.345-2.356,6.963-1.149
		c2.03,0.936,3.436,3.101,3.015,5.909c-0.407,2.714,0.039,5.127,1.173,7.544c0.469,1,0.792,1.994,2.005,2.366
		c0.364,0.112,0.906,0.565,0.894,0.84c-0.107,2.378,1.882,3.806,2.71,5.938c-2.133,1.915-4.849,3.052-4.702,6.935
		c0.127,3.343,1.183,5.433,4.147,7.243c-2.197,0.51-3.067,1.893-3.047,3.678c0.057,4.973,0.26,9.944,0.375,14.916
		C127.473,66.805,127.435,68.745,127.435,70.684z"/>
	<path fill="#333333" d="M224.342,40.265c4.458-0.271,8.209,1.211,11.57,3.364c3.911,2.506,7.705,5.281,11.165,8.37
		c2.128,1.9,3.708,4.501,5.221,6.979c1.746,2.859,3.066,5.974,4.719,8.894c2.292,4.047,4.75,8,7.084,12.023
		c2.172,3.743,4.529,7.406,6.354,11.315c3.751,8.032,0.448,15.376-8.219,18.418c-0.06-1.152,0.214-2.066,0.966-2.846
		c0.677-0.703,1.344-1.418,2.067-2.072c3.184-2.88,3.741-5.976,1.832-9.723c-0.368-0.722-0.697-1.707-0.502-2.423
		c0.379-1.392-0.142-2.389-0.995-3.22c-2.44-2.378-4.122-5.266-5.857-8.142c-0.471-0.781-1.254-1.607-2.074-1.891
		c-1.523-0.527-2.196-1.638-2.846-2.914c-2.241-4.407-4.509-8.799-6.763-13.199c-0.195-0.381-0.448-0.758-0.53-1.166
		c-1.347-6.71-5.937-10.625-11.752-13.317c-1.857-0.86-3.664-2.382-6.075-1.6c-0.438,0.142-1.193-0.427-1.697-0.807
		C226.994,45.539,225.038,42.298,224.342,40.265z"/>
	<path fill="#333333" d="M177.753,130.064c0.314-0.401,0.549-1.012,0.957-1.166c1.696-0.643,3.445-1.147,5.174-1.705
		c0.205-0.066,0.398-0.177,0.606-0.229c2.158-0.538,4.358,0.003,6.608-0.51c2.081-0.474,4.466,0.37,6.713,0.664
		c0.159,0.021,0.286,0.291,0.577,0.605c-0.973-0.061-1.806-0.114-2.795-0.176c1.274,2.167,3.61,2.171,5.267,3.334
		c1.615,1.134,2.265,3.977,5.21,3.175c-4.283,1.726-8.46,2.21-13.049,1.075c0.815-0.771,1.398-1.323,1.887-1.786
		c-0.76-1.312-1.431-2.47-2.091-3.609c-1.178,1.138-1.178,1.138-1.128,3.246c-2.58-0.379-5.134-0.693-7.661-1.152
		c-1.265-0.23-1.244-0.349-1.696-2.6c-1.539,0.25-3.104,0.504-4.669,0.758L177.753,130.064z"/>
	<path fill="#333333" d="M139.974,141.051c-1.081-0.384-2.162-0.769-3.54-1.259c-0.129,3.931-4.317,3.888-6.307,6.486
		c1.409,0.802,2.522,0.722,3.733,0.046c1.032-0.576,2.155-0.988,3.215-1.52c1.193-0.599,1.78,0.177,2.416,0.888
		c-0.443,1.042-0.848,1.998-1.284,3.025c-1.055,0.183-2.107,0.366-3.28,0.57c-0.594-0.487-1.249-1.023-2.148-1.76
		c-0.392,0.885-0.708,1.6-1.073,2.425c-0.749,0.212-1.563,0.508-2.402,0.661c-0.822,0.15-1.67,0.153-2.843,0.248
		c0.494-2.179,0.718-4.137-1.952-4.379c-0.278-1.405,0.651-1.821,1.517-2.296c3.206-1.758,6.393-3.553,9.619-5.273
		c1.58-0.842,2.485-0.327,4.265,2.208L139.974,141.051z"/>
	<path fill="#333333" d="M126.449,214.731c-1.914,1.487-3.519,2.764-5.161,3.992c-0.506,0.378-1.229,0.992-1.657,0.861
		c-1.963-0.601-3.157-0.039-3.436,2.824c-1.247-1.986-1.048-3.195-0.581-4.381c0.823-2.088,1.75-4.137,2.519-6.243
		c0.132-0.361-0.302-0.93-0.546-1.597c1.007-0.56,2.101-1.169,3.416-1.901C122.754,210.357,124.479,212.4,126.449,214.731z"/>
	<path fill="#333333" d="M258.245,219.212l-0.109,0.051c1.429,0.336,2.971,0.331,3.985,1.722c1.151,1.579,1.252,2.479,0.383,4.15
		c-0.57,1.095-1.839,1.69-1.876,3.242c-0.017,0.714-1.172,0.898-2.126,0.594c-0.874-0.278-2.032-0.613-2.745-0.265
		c-1.818,0.886-2.604-0.397-3.846-1.462c0.85-0.735,1.64-1.487,2.5-2.147c1.346-1.032,2.84-1.857,2.689-3.988
		C257.058,220.507,257.841,219.846,258.245,219.212z"/>
	<path fill="#333333" d="M140.148,156.034c-4.17-1.133-8.172,1.356-12.33,0.455c-0.268-2.016,0.882-2.669,2.149-3.034
		c2.799-0.808,5.615-1.583,8.463-2.19c2.054-0.438,3.022,0.711,2.531,2.79C140.818,154.664,140.487,155.228,140.148,156.034z"/>
	<path fill="#333333" d="M278.66,278.129c0.954-6.892,3.298-12.992,6.727-18.975c0.159,0.415,0.494,0.893,0.38,1.055
		c-1.307,1.865-0.561,3.907-0.538,5.864c0.026,2.176-0.078,3.993-2.694,4.881c-0.966,0.328-1.595,1.921-2.174,3.042
		C279.679,275.315,279.217,276.747,278.66,278.129z"/>
	<path fill="#333333" d="M223.621,96.817c4.301,0,8.329,0,12.716,0c-0.938,2.276-2.077,3.628-4.209,3.872
		C227.766,101.189,225.981,100.392,223.621,96.817z"/>
	<path fill="#333333" d="M141.663,158.18c-0.768,0.179-1.607,0.142-1.762,0.45c-0.74,1.47-2.093,1.313-3.347,1.552
		c-1.274,0.243-2.511,0.694-3.788,0.908c-0.721,0.12-1.628,0.175-2.199-0.165c-0.519-0.309-0.845-1.166-0.957-1.832
		c-0.05-0.298,0.617-1.016,0.987-1.037c3.33-0.185,6.618-1.406,9.992-0.472C140.882,157.665,141.138,157.883,141.663,158.18z"/>
	<path fill="#333333" d="M139.909,141.121c1.935,1.153,4.133,1.475,6.282,1.669c0.754,2.91-0.264,5.108-1.385,7.239
		c-1.384,0.311-1.951-0.368-2.159-1.444c-0.1-0.519-0.111-1.081-0.033-1.605c0.276-1.87-0.105-3.451-1.692-4.656
		c-0.405-0.307-0.637-0.843-0.949-1.273L139.909,141.121z"/>
	<path fill="#333333" d="M237.393,111.024c1.682-3.866,4.884-6.019,7.735-8.475C245.112,107.407,240.975,112.003,237.393,111.024z"
		/>
	<path fill="#333333" d="M133,25.135c1.441,1.509,2.515,3.271,1.712,4.305c-1.002,1.289,1.18,3.505-1.533,3.993
		C131.174,30.862,131.23,28.266,133,25.135z"/>
	<path fill="#333333" d="M127.725,79.807c-0.584-2.72-1.022-4.762-1.487-6.928c0.907-0.447,1.62-0.798,2.386-1.175
		c1.218,2.077,0.795,4.122,0.549,6.115C129.112,78.311,128.528,78.738,127.725,79.807z"/>
	<path fill="#333333" d="M191.133,246.208c0.728-2.852-0.639-6.619,3.632-8.25c-0.618,2.367-1.097,4.468-1.736,6.518
		c-0.243,0.78-0.852,1.447-1.294,2.165C191.534,246.496,191.333,246.352,191.133,246.208z"/>
	<path fill="#333333" d="M210.338,52.271c-2.006,4.484-3.729,8.334-5.452,12.184C205.059,59.887,206.618,55.961,210.338,52.271z"/>
	<path fill="#333333" d="M240.248,295.399c0.392-1.429,0.731-2.875,1.186-4.284c1.09-3.371,2.234-6.724,3.621-9.998
		c-0.53,5.069-2.466,9.709-4.187,14.413C240.661,295.487,240.455,295.443,240.248,295.399z"/>
	<path fill="#333333" d="M222.628,332.915c0.774-2.928,1.905-5.63,4.683-7.256C226.316,328.427,225.006,330.999,222.628,332.915z"/>
	<path fill="#333333" d="M172.827,194.948c-1.764,3.06-4.485,5.281-6.8,7.858C166.377,200.905,169.064,197.838,172.827,194.948z"/>
	<path fill="#333333" d="M153.588,212.689c-0.71,0.767-1.32,1.669-2.147,2.275c-2.271,1.663-4.634,3.202-7.05,4.648
		c0.96-1.625,6.569-5.635,9.266-6.846L153.588,212.689z"/>
	<path fill="#333333" d="M270.397,161.555c0.963-2.297,0.963-2.297,2.978-3.072C274.663,161.524,274.261,161.981,270.397,161.555z"
		/>
	<path fill="#333333" d="M125.338,205.64c3.216-3.091,6.323-5.047,9.703-7.03C133.949,200.34,128.951,204.004,125.338,205.64z"/>
	<path fill="#333333" d="M190.715,361.205c-1.033,2.647-2.066,5.293-3.234,8.284C187.054,366.737,188.026,364.122,190.715,361.205z"
		/>
	<path fill="#333333" d="M233.298,93.116c-3.09,1.466-4.433,1.448-7.364,0C228.488,93.116,230.522,93.116,233.298,93.116z"/>
	<path fill="#333333" d="M198.011,358.804c2.245-3.046,3.714-4.116,7.287-5.288c-2,1.577-3.463,2.761-4.962,3.896
		C199.782,357.83,199.142,358.133,198.011,358.804z"/>
	<path fill="#333333" d="M153.657,212.766c0.481-0.561,0.887-1.217,1.458-1.665c1.849-1.452,3.757-2.827,5.712-4.133
		c-1.503,2.168-4.976,4.837-7.238,5.721L153.657,212.766z"/>
	<path fill="#333333" d="M171.799,143c0.905,0.537,1.809,1.074,2.676,1.588c-2.654,0.686-4.176,0.226-6.112-1.973
		c1.258,0.165,2.4,0.315,3.542,0.465L171.799,143z"/>
	<path fill="#333333" d="M222.563,99.28c-1.418-1.337-3.381-2.231-3.218-4.881c1.288,1.424,2.576,2.849,3.863,4.273
		C222.993,98.875,222.778,99.077,222.563,99.28z"/>
	<path fill="#333333" d="M192.921,164.394c-0.953-0.991-1.014-1.628-0.207-2.448c0.54-0.548,0.78-1.391,1.193-2.177
		C196.083,161.786,193.814,162.89,192.921,164.394z"/>
	<path fill="#333333" d="M275.179,136.43c1.442,1.17,2.3,2.521,1.864,4.631C275.049,139.842,275.758,137.857,275.179,136.43z"/>
	<path fill="#333333" d="M123.821,74.544c0.484,1.587,1.26,3.209,0.23,5.06C122.957,77.838,123.11,76.217,123.821,74.544z"/>
	<path fill="#333333" d="M143.2,176.946c0.718,0.397,1.554,0.673,2.127,1.221c0.827,0.791,1.463,1.781,2.205,2.716
		c-1.97-0.534-2.592-1.127-4.255-4.021L143.2,176.946z"/>
	<path fill="#333333" d="M177.661,129.987c0.723,0.548,1.447,1.096,2.17,1.643c-2.205-0.164-4.002-1.132-5.486-2.884
		c1.136,0.439,2.271,0.878,3.407,1.317L177.661,129.987z"/>
	<path fill="#333333" d="M143.276,176.863c-2.052-0.486-2.841-2.205-4.039-3.903c1.422,0.376,1.422,0.376,3.962,3.986
		L143.276,176.863z"/>
	<path fill="#333333" d="M172.933,416.383c0.982-1.715,2.044-3.381,1.804-5.528c-1.228,0.566-2.194,1.012-3.161,1.457
		c1.08-2.342,2.497-4.232,3.899-6.134c1.921-2.608,4.286-5.014,5.626-7.894c1.62-3.484,4.337-5.695,6.999-8.125
		c1.544-1.41,3.237-2.791,3.81-5.283c-1.319-0.059-2.427-0.108-3.556-0.158c5.144-9.043,8.689-13.921,10.876-14.656
		c-1.476,2.246-2.816,4.286-4.157,6.325c0.768,2.572-3.097,3.812-1.971,6.861c0.575-0.613,0.99-0.953,1.279-1.38
		c1.817-2.684,3.833-5.268,5.335-8.121c1.252-2.378,3.694-4.464,2.527-7.545c1.033-0.451,1.879-0.821,3.129-1.367
		c-0.844-0.957-1.428-1.619-2.268-2.57c-1.843,1.941-3.569,3.564-5.059,5.381c-1.505,1.836-2.747,3.885-4.157,5.801
		c-1.344,1.826-2.778,3.586-4.133,5.405c-1.421,1.908-2.768,3.872-4.198,5.774c-1.429,1.901-2.879,3.789-4.399,5.618
		c-1.422,1.711-2.303,3.908-4.402,5.056c0.463-1.232,1.174-2.284,1.829-3.368c1.511-2.5,3.212-4.913,4.445-7.545
		c2.911-6.211,6.495-11.929,11.229-16.916c0.452-0.476,0.613-1.229,0.91-1.853c-3.406,1.676-4.764,5.225-7.48,7.502
		c-0.403-0.652-0.73-1.183-1.219-1.974c-0.799,1.442-1.398,2.713-2.166,3.872c-2.086,3.145-1.801,7.198-4.379,10.272
		c-2.328,2.777-3.759,6.285-5.841,9.295c-3.307,4.78-6.827,9.414-10.292,14.158c0.094,1.33,0.195,2.983,0.306,4.482
		c0.201,2.698,0.408,5.246,0.612,8.246c1.784,0,3.569,0,5.353,0l2.848-4.929L172.933,416.383z"/>
	<path fill="#333333" d="M267.867,260.71c1.455-1.809,0.689-3.674,0.327-5.555c-0.204-1.059-0.205-2.166-0.487-3.199
		c-0.666-2.438-0.086-5.223-2.011-7.31c-0.01-0.011-0.018-0.023-0.027-0.034c-0.023,0.035-0.04,0.071-0.064,0.107
		c0.005-0.056,0.009-0.112,0.014-0.168c-1.401-1.588-1.842-3.546-2.408-6.196c2.399,1.993,2.592,4.038,2.408,6.196
		c0.018,0.02,0.032,0.042,0.05,0.062c1.448-2.276,0.329-4.765,0.637-7.252c-2.328-0.849-2.89-2.607-2.287-4.541
		c-1.527-0.782-2.762-1.416-4.679-2.398c1.244,2.23,2.095,3.757,3.301,5.921c-1.491-1.189-2.344-1.87-3.672-2.93
		c0,1.825,0.113,3.016-0.025,4.177c-0.239,2.001-0.07,4.097-1.302,5.899c-1.668,2.441-2.277,5.088-1.519,8.02
		c0.179,0.693,0.189,1.501,0.028,2.199c-0.923,4.009-1.796,8.036-2.931,11.986c-0.981,3.412-1.458,6.987-3.29,10.148
		c-1.484,2.561-3.45,4.965-3.274,8.214c0.011,0.2-0.383,0.401-0.536,0.635c-0.446,0.685-0.843,1.403-1.301,2.079
		c-0.972,1.434,0.012,2.947-0.21,4.396c-0.327,2.131-0.774,4.244-1.149,6.369c-0.743,4.219-1.682,8.377-3.149,12.424
		c-1.356,3.74-2.786,7.361-5.178,10.642c-1.679,2.304-2.656,5.117-3.969,7.691c-0.627,1.228-1.392,2.393-1.94,3.653
		c-0.688,1.581-1.254,3.219-1.807,4.855c-1.014,2.999-2.255,5.953-2.265,9.701c2.987-2.925,3.568-6.763,5.928-9.98
		c0.294,0.814,0.704,1.348,0.59,1.725c-0.966,3.196-2.032,6.361-3.057,9.539c-0.26,0.806-0.702,1.634-0.67,2.435
		c0.062,1.526-0.426,2.807-1.383,3.865c-1.506,1.666-2.158,3.7-2.875,5.744c-0.745,2.125-1.587,4.219-2.456,6.297
		c-1.622,3.879-2.375,8.06-4.326,11.842c-1.024,1.986-1.454,4.274-2.213,6.404c-1.046,2.933-2.102,5.865-3.247,8.76
		c-0.737,1.862-1.641,3.657-2.471,5.483c-0.446-0.553-0.617-1.081-0.468-1.493c0.438-1.209,1.024-2.364,1.513-3.555
		c0.329-0.803,0.519-1.613-0.448-2.129c-1.406,1.949-2.748,3.771-4.044,5.626c-0.368,0.527-0.797,1.126-0.865,1.73
		c-0.331,2.971-1.702,5.574-2.831,8.251c-1.528,3.627-3.76,7.058-4.192,11.169c-0.044,0.419-0.18,0.259-0.387,1.259h0.004l-0.681,2
		c2.876,0,5.751,0,8.627,0l0.742-1.144c0.155-0.543,0.189-1.081,0.417-1.232c2.175-1.437,2.83-3.672,3.072-6.058
		c0.388-3.83,1.733-7.256,3.872-10.484c1.163-1.755,1.987-3.908,2.364-5.984c0.554-3.056,2.392-5.17,4.403-7.189
		c0.84-0.843,1.247-1.635,1.336-2.789c0.073-0.942,0.423-1.878,0.739-2.785c0.817-2.343,1.664-4.676,2.541-6.996
		c0.234-0.62,0.623-1.182,0.94-1.77c0.3,0.104,0.601,0.209,0.901,0.313c-0.087,0.926-0.004,1.911-0.294,2.768
		c-0.791,2.334-0.592,4.956-2.074,7.085c-0.114,0.163-0.132,0.414-0.141,0.627c-0.272,7.044-3.201,13.393-5.257,19.965
		c-1.352,4.32-2.843,8.595-4.281,12.888c-0.169,0.504-0.393,1.144-0.66,1.807l-0.29,0.98c3.804,0,7.608,0,11.411,0l0.604-2h0.002
		c0.397-2,0.818-4.046,1.158-6.024c0.856-4.982,1.748-10.025,2.451-15.03c0.404-2.877,0.444-5.836,0.702-8.736
		c0.085-0.959,0.349-1.916,0.511-2.869c0.271-1.591,0.54-3.189,0.778-4.785c0.079-0.533-0.064-1.127,0.104-1.62
		c1.887-5.542,1.818-11.491,3.585-17.069c0.639-2.018,0.732-4.21,1.579-6.395c0.197,0.502,0.501,0.99,0.571,1.51
		c0.186,1.386,0.218,2.793,0.406,4.179c0.454,3.337,3.027,5.318,5.064,7.598c1.965,2.199,3.492,4.639,4.831,7.104
		c-2.511,5.623-3.512,11.196-1.548,17.042c0.237,0.705,0.287,1.479,0.369,2.227c0.059,0.537-0.168,1.195,0.068,1.609
		c1.57,2.754,0.801,5.936,1.677,8.777c1.016,3.296,0.695,6.636,0.647,9.986c-0.018,1.234,0.368,2.043-0.632,2.573v1.924
		c4,0,6.8,0,9.983,0c0.03-3,0.014-6.879,0.097-10.239c0.218-8.815,0.029-17.62-3.325-26.006c-1.626-4.065-1.788-8.517-1.85-12.845
		c-0.057-3.995,0.314-8.014,0.444-12.014c0.116-3.578,0.016-7.179,0.283-10.744c0.217-2.895,0.613-5.826,1.388-8.61
		c0.304-1.092,0.888-2.104,0.84-3.32c-0.293-7.378,1.47-14.372,3.754-21.32c1.518-4.617,2.754-9.35,3.764-14.105
		c0.966-4.548,1.501-9.189,2.181-13.795c1.187-8.033,2.797-16.03,2.206-24.227c-0.047-0.647-0.021-1.303,0.014-1.952
		C267.678,261.755,267.58,261.067,267.867,260.71z"/>
	<path fill="#333333" d="M186.851,417.732c2.543-1.681,4.071-4.126,5.405-6.74c0.969-1.898,1.967-3.927,3.167-5.513
		c1.292-1.708,2.611-3.4,3.609-5.284c1.563-2.951,3.119-5.927,4.359-9.02c0.74-1.848,0.982-3.795,2.015-5.672
		c2.009-3.65,3.089-7.799,4.95-11.545c2.879-5.796,6.087-11.428,9.164-17.125c0.53-0.98,1.055-1.944,0.644-3.771
		c-1.023,1.569-1.727,2.622-2.404,3.692c-1.444,2.285-2.79,4.638-4.331,6.855c-1.57,2.259-4.003,3.97-4.287,7.018
		c-0.019,0.202-0.161,0.405-0.284,0.581c-1.736,2.474-3.134,5.313-5.3,7.328c-3.367,3.133-4.677,7.41-7.09,11.05
		c-2.192,3.306-3.859,6.955-5.916,10.357c-0.757,1.251-1.965,2.23-2.97,3.331c-0.655,0.717-1.336,1.412-1.966,2.151
		c-2.548,2.984-4.708,6.357-6.449,9.833l-1.695,6.214c2.415,0,4.83,0,7.245,0l0.513-1.312
		C185.922,419.159,186.235,418.139,186.851,417.732z"/>
</g>
</svg>
