<?xml version="1.0" encoding="utf-8"?>
<!-- Generator: Adobe Illustrator 17.1.0, SVG Export Plug-In . SVG Version: 6.00 Build 0)  -->
<!DOCTYPE svg PUBLIC "-//W3C//DTD SVG 1.1//EN" "http://www.w3.org/Graphics/SVG/1.1/DTD/svg11.dtd">
<svg version="1.1" id="Calque_1" xmlns="http://www.w3.org/2000/svg" xmlns:xlink="http://www.w3.org/1999/xlink" x="0px" y="0px"
	 viewBox="0 0 314.869 421.47" enable-background="new 0 0 314.869 421.47" xml:space="preserve">
<g>
	<g>
		<path fill="#333333" d="M102.305,419.335c-1.323-2.827-0.936-5.647,0.04-8.463c0.241,0.608,0.482,1.217,0.727,1.835
			c2.474-1.122,2.474-1.122,0.903-2.836c-0.572,0.368-1.145,0.737-1.718,1.106c-0.252-0.872-0.505-1.744-0.797-2.755
			c0.483-0.119,1.13-0.279,2.138-0.527c0-3.807,0-7.716,0-11.478c1.131-0.825,1.959-1.428,2.759-2.012
			c2.134,1.845,2.125,1.922-0.579,5.477c0,0.914-0.029,1.96,0.017,3.003c0.014,0.321,0.231,0.634,0.453,1.204
			c1.06-0.968,2.017-1.842,3.074-2.807c1.53,1.823-1.112,2.833-0.267,4.578c0.453,0.169,1.167,0.435,1.882,0.702
			c0.596,1.715,0.732,1.925,1.875,2.908c0.816-2.402,0.091-5.318-1.865-7.379c0.146-1.155,0.956-1.688,1.954-2.155
			c3.314-1.549,3.628-3.14,1.284-6.109c-0.139-0.176-0.214-0.402-0.385-0.731c0.776-0.617,1.573-1.251,2.205-1.754
			c0.834-2.11,0.126-3.8-0.868-5.418c0.557-0.26,0.856-0.399,1.524-0.71c0.36,1.275,1.177,2.574,0.914,3.596
			c-0.437,1.703,0.308,2.927,0.998,4.374c-1.84,2.047-1.901,4.577-1.404,6.916c0.491,2.309,0.155,3.869-2.194,4.86
			c0.323,0.906,0.692,1.627,0.825,2.388c0.194,1.109,0.654,2.467,0.222,3.327c-0.818,1.631-0.717,3.061,0.223,4.764
			c-2.861,0.598-5.113,3.085-8.281,0.792c0.127-1.032,0.262-2.136,0.427-3.479c-0.548,0-1.126-0.146-1.582,0.028
			c-1.266,0.482-2.481,1.097-4.087,1.828c-0.074,0.503-0.202,1.367-0.325,2.205c0.464,0.288,0.731,0.565,1.042,0.629
			c2.163,0.444,4.343,0.81,6.501,1.277c0.751,0.162,1.455,0.54,2.18,0.819C108.851,419.335,105.578,419.335,102.305,419.335z"/>
		<path fill="#333333" d="M144.357,416.563c1.748-1.515,3.628-1.541,5.753-0.782c6.871,2.456,13.904,3.246,21.199,2.296
			c3.434-0.447,6.966-0.142,10.454-0.172c5.583-0.048,11.209,0.324,16.737-0.251c5.933-0.617,11.838-0.473,17.758-0.553
			c0.892-0.012,1.786,0.168,2.682,0.645c-1.355,0.187-2.71,0.373-4.053,0.558c-0.135,0.384-0.249,0.707-0.363,1.031
			c-19.872,0-39.744,0-59.616,0c-0.191-0.283-0.334-0.757-0.58-0.819C151.04,417.686,147.973,415.698,144.357,416.563z"/>
		<path fill="#333333" d="M144.441,416.495c-1.052,1.359-2.567,1.349-4.07,1.382c-3.227,0.072-6.454,0.172-9.682,0.208
			c-0.933,0.01-1.566,0.261-1.732,1.25c-4.676,0-9.351,0-14.027,0c0.845-1.161,2.108-0.705,3.216-0.812
			c3.226-0.312,6.456-0.594,9.684-0.887c1.843-0.168,3.684-0.374,5.53-0.494C137.051,416.901,140.747,416.708,144.441,416.495z"/>
		<path fill="#333333" d="M120.501,150.669c0.527,0.163,1.264,0.158,1.551,0.515c7.099,8.826,15.032,16.911,22.524,25.387
			c0.074,0.084,0.101,0.208,0.15,0.314c-0.017,0.226,0.049,0.592-0.063,0.657c-2.145,1.259-3.551,3.264-5.186,5.041
			c-0.304,0.331-0.763,0.519-1.154,0.775c0.101,3.515,0.2,6.993,0.299,10.44c1.566,1.149,2.921,2.144,4.468,3.279
			c0.507,2.913-0.479,5.961-0.874,9.065c-0.708,5.571-1.081,11.145,0.281,16.69c0.306,1.244,0.443,2.531,0.778,3.766
			c0.292,1.077,0.605,2.233,2.305,2.679c-0.645-4.38-0.273-8.578-1.533-12.617c-0.206-0.66-0.458-1.348-0.457-2.022
			c0.004-3.499-0.081-7.01,0.202-10.49c0.155-1.903,0.979-3.751,2.151-5.579c0.073,0.726,0.146,1.452,0.24,2.375
			c0.299-0.165,0.612-0.241,0.77-0.44c0.858-1.079,0.844-1.09,2.397-1.326c0.151,0.165,0.43,0.326,0.439,0.501
			c0.369,7.213,2.128,14.331,1.546,21.604c-0.512,6.395-1.336,12.774-1.613,19.178c-0.382,8.857-0.904,17.735,0.552,26.577
			c0.41,2.491,0.229,5.073,0.466,7.6c0.122,1.305,0.568,2.579,0.922,4.106c-1.181,0.926-2.624,2.123-1.873,4.541
			c1.319-0.357,2.513-0.681,3.792-1.028c0.168-0.434,0.454-0.851,0.477-1.282c0.281-5.239,0.427-10.486,0.801-15.718
			c0.382-5.352,1.054-10.683,1.457-16.034c0.377-5.002,0.635-10.015,0.825-15.028c0.186-4.9,0.383-9.809,0.276-14.708
			c-0.096-4.412-0.609-8.814-0.917-13.222c-0.138-1.977-0.291-3.957-0.312-5.937c-0.014-1.342,0.5-2.506,2.019-3.31
			c0.435,0.607,1.064,1.16,1.285,1.846c1.706,5.294,3.986,10.462,3.33,16.272c-0.118,1.044,0.2,2.583,0.914,3.189
			c1.853,1.573,2.115,3.644,2.206,5.687c0.102,2.3,0.672,4.188,2.035,6.122c1.597,2.266,2.409,4.99,2.554,7.87
			c0.099,1.96,0.498,3.906,0.76,5.858c0.077,0.572,0.374,1.248,0.173,1.699c-0.765,1.713-0.069,3.301,0.497,4.745
			c1.67,4.262,2.749,8.581,2.903,13.195c0.117,3.484,0.774,6.948,1.149,10.425c0.1,0.925,0.187,1.891,0.035,2.798
			c-0.524,3.133-0.303,6.237,0.281,9.274c-2.565,1.311-4.359,1.637-7.032,1.325c-0.515-1.823-0.515-1.823,0.742-3.879
			c-0.466-1.363-1.081-2.624-1.32-3.952c-0.933-5.18-1.699-10.357-0.091-15.59c0.434-1.411,0.274-3.007,0.369-4.52
			c0.183-2.903,0.356-5.807,0.524-8.711c0.027-0.465,0.09-0.951-0.006-1.397c-0.983-4.54-2.058-9.06-2.978-13.612
			c-0.618-3.06-1.027-6.161-1.552-9.383c-0.191,0-0.613,0-1.369,0c1.025-2.486,0.057-4.47-1.448-6.636
			c0.516,6.558-0.862,12.692-0.944,18.902c-0.084,6.303-0.351,12.606-0.691,18.901c-0.22,4.074-0.824,8.126-1.059,12.2
			c-0.242,4.197-0.186,8.411-0.378,12.613c-0.111,2.439-0.537,4.862-0.666,7.301c-0.131,2.484-0.665,5.01,0.444,7.594
			c-1.165,1.35-2.314,2.791-4.439,3.336c-0.616-0.692-1.269-1.425-1.967-2.21c-1.26,3.175-0.004,7.013-3.11,9.54
			c-2.189-0.181-4.226-1.754-6.993-1.193c0.652,4.089,1.59,8.029,1.83,12.012c0.242,4.016-0.208,8.075-0.361,12.265
			c1.144,0.452,2.17,0.858,3.304,1.306c-0.104,0.512-0.075,1.029-0.303,1.382c-1.05,1.624-0.946,3.288-0.42,5.043
			c0.357,1.193,0.818,2.348,0.214,3.705c-0.254,0.569,0.261,1.513,0.503,2.261c0.202,0.624,0.517,1.212,1.002,2.316
			c-1.177-0.286-1.868-0.453-2.631-0.638c0.001-0.001-0.215,0.154-0.208,0.298c0.059,1.12,0.161,2.238,0.267,3.584
			c0.368-0.196,0.892-0.475,1.593-0.848c1.302,0.906,3.127,1.357,3.327,3.736c-1.806,0-3.54,0-5.825,0
			c-0.655-0.339-1.784-0.923-2.838-1.468c-0.853-1.55,0.392-2.456,0.945-3.617c-0.671-1.14-1.35-2.293-2.218-3.769
			c-0.926,1.665-1.686,3.031-2.649,4.763c0.792,1.175,1.663,2.469,2.684,3.984c-0.637,0.48-1.418,1.069-2.216,1.67
			c-1.289-0.963-1.466-2.209-1.584-3.504c-0.191-2.086-0.428-4.169-0.64-6.253c-0.047-0.465-0.231-0.992-0.08-1.388
			c1.112-2.929-0.345-5.69-0.454-8.531c-0.032-0.824,0.35-1.663,0.641-2.922c-0.19-0.171-0.67-0.606-1.263-1.142
			c0.083-0.604,0.214-1.276,0.262-1.954c0.116-1.638,0.175-3.197-1.095-4.598c-1.061-1.17-1.258-2.771-0.898-4.311
			c0.137-0.585,0.676-1.077,1.041-1.624c2.101,0.562,1.716,2.909,3.411,3.827c0.508-0.959,0.732-2.122,0.068-2.818
			c-1.645-1.724-2.449-4.306-5.01-5.019c-0.668-2.432-1.568-4.767-0.381-7.352c-1.821-2.148-1.804-4.86-2.074-7.497
			c-0.271-2.648-0.533-5.296-0.803-7.983c-1.633-1.917-3.798-2.511-6.232-2.603c-1.264-0.047-2.544-0.252-3.768-0.572
			c-1.01-0.264-1.494-1.15-1.371-2.175c0.152-1.268,0.265-2.596,0.737-3.76c1.523-3.761,3.004-7.51,5.104-11.059
			c1.812-3.062,3.788-6.057,5.386-9.249c0.55-1.099,1.415-2.218,0.63-3.803c-1.007-0.17-2.13-0.36-3.392-0.573
			c-0.413-2.363-1.045-4.716-1.2-7.099c-0.522-8.02-0.839-16.054-1.318-24.077c-0.103-1.73-0.62-3.43-0.831-5.158
			c-0.524-4.276-1.079-8.553-1.423-12.845c-0.164-2.045-0.913-4.087-0.099-6.211c0.295-0.771-0.276-1.722-1.254-1.729
			c-0.581-0.004-1.477,0.404-1.688,0.871c-0.514,1.14-1.223,2.568-0.925,3.616c0.513,1.805-0.021,3.185-0.863,4.754
			c0.966,1.981,0.929,3.971-0.144,5.985c-0.358,0.672-0.317,1.57-0.405,2.37c-0.279,2.547-0.469,5.107-0.837,7.641
			c-0.106,0.728-0.695,1.385-1.068,2.085c0.538,0.564,1.08,1.131,1.79,1.874c-0.891,1.134-1.724,2.193-2.711,3.449
			c0.991,0.908,1.917,1.758,2.95,2.705c0.107,0.725,0.239,1.617,0.397,2.684c-0.802,0.08-1.45,0.144-2.174,0.216
			c-1.072,1.567-0.185,2.517,0.959,3.432c0.404-0.261,0.687-0.443,1.148-0.741c0.072,1.354,0.137,2.602,0.209,3.949
			c-0.564,0.135-0.977,0.234-1.396,0.334c-0.783,2.514-0.783,2.514,1.186,4.487c0,1.752,0,3.612,0,5.65
			c-0.869,0.855-2.189,1.547-2.04,3.268c0.047,0.535-0.693,1.147-1.089,1.711c-1.273,1.813-1.184,2.154,0.898,3.41
			c0.183,0.111,0.345,0.256,0.674,0.505c-2.077,1.515-0.267,3.448-0.605,5.143c-0.422,2.115,2.169,3.122,1.266,5.609
			c-1.639,1.296-2.562,3.437-2.421,6.534c0.377,0.266,1.032,0.729,1.797,1.271c-0.548,1.378-0.286,2.537,0.289,3.946
			c1.321,3.241,2.183,6.71-0.054,9.925c0.229,1.354,1.275,2.263,0.903,3.744c-0.239,0.953,0.471,2.145,0.912,3.825
			c-1.119,0.826-2.517,1.858-4.114,3.037c1.137,0.907,1.834,1.463,2.478,1.977c0.798,2.464,1.575,4.863,2.413,7.452
			c-1.698,1.324-2.155,3.133-1.891,5.232c0.115,0.912,0.232,2-0.145,2.764c-0.983,1.99-0.287,3.617,0.665,5.283
			c0.708,1.239,1.295,2.503,0.593,4.223c-0.646-0.035-1.384-0.075-2.238-0.121c-0.714,1.161-1.466,2.316-0.318,4.012
			c1.14-0.497,2.245-0.979,3.567-1.556c1.423,1.982,0.561,4.137,0.63,6.11c0.068,1.953,1.248,3.7,0.575,5.832
			c-0.61,1.934-0.562,4.076-0.858,6.577c-0.748-0.504-1.503-0.736-1.618-1.147c-0.244-0.876-0.028-1.877-0.247-2.765
			c-0.165-0.671-0.713-1.249-1.648-1.664c0,1.646,0,3.291,0,5.214c-0.384,0.35-0.977,0.89-1.569,1.431
			c-0.869,1.78,2.047,4.065-0.728,5.656c-1.982-0.586-2.684-2.361-3.651-4.391c-1.622,3.056,0.491,5.433-0.115,7.956
			c0.484,0.282,0.842,0.55,1.244,0.708c0.417,0.164,0.877,0.22,1.653,0.402c-0.098,1.149-0.19,2.227-0.294,3.443
			c-1.005-0.085-1.669-0.141-2.334-0.195c-2.741,1.797-2.088,4.947-2.945,7.486c-0.501,1.483-0.72,3.061-1.127,4.866
			c1.345,0.923,3.098,1.223,5.157,1.344c0.041,0.694,0.086,1.458,0.135,2.28c-1.242,1.168-3.776,1.235-3.326,4.024
			c0.97-0.686,1.766-1.248,2.741-1.937c0.492,0.629,0.872,1.116,1.181,1.512c-0.649,1.411-1.805,1.258-2.804,1.496
			c-2.641,0.628-2.637,0.647-4.445,2.582c-0.169-2.805-1.169-5.387,0.309-7.938c0.116-0.2,0.371-0.446,0.324-0.595
			c-1.093-3.434,0.927-6.891-0.089-10.334c-0.189-0.641-0.189-1.426-0.009-2.07c0.416-1.492,0.741-2.945,0.134-4.457
			c-0.084-0.208-0.154-0.499-0.074-0.684c1.379-3.161,0.001-6.426,0.388-9.616c0.123-1.015,0.426-2.012,0.691-3.006
			c0.205-0.77,0.684-1.521,0.687-2.281c0.014-3.228,0.088-6.474-0.226-9.679c-0.322-3.293-0.484-6.378,1.12-9.514
			c1.101-2.153,1.25-4.704-0.934-6.885c1.58-1.157,3.949-1.204,4.071-3.51c0.026-0.485-0.379-0.993-0.667-1.687
			c-1.07,0.528-1.926,0.951-3.047,1.504c-0.045-0.772-0.27-1.392-0.065-1.614c1.949-2.107,1.289-4.651,1.077-7.006
			c-0.259-2.881-1.128-5.701,0.116-8.583c0.295-0.685,0.044-1.605,0.044-2.61c0.574-0.666,1.247-1.448,1.924-2.234
			c-0.102-0.396-0.101-0.785-0.285-1.041c-0.649-0.903-0.57-1.846-0.635-2.917c-0.187-3.072,0.766-6.102-0.109-9.235
			c-0.545-1.951-0.092-4.174-0.146-6.273c-0.022-0.846-0.199-1.688-0.401-3.288c-0.808,1.035-1.31,1.402-1.405,1.855
			c-0.214,1.022-0.236,2.085-0.321,3.132c-0.213,2.636,0.179,5.309-1.158,7.852c-0.547,1.04-0.242,2.523-0.342,3.803
			c-0.064,0.807,0.122,1.832-0.3,2.373c-1.025,1.318-0.798,2.569-0.407,3.957c0.153,0.544,0.126,1.159,0.087,1.735
			c-0.228,3.364-0.481,6.727-0.732,10.09c-0.113,1.509-0.274,3.014-0.349,4.524c-0.046,0.913,0.006,1.833,0.064,2.747
			c0.029,0.458,0.369,0.983,0.231,1.352c-1.193,3.189-0.19,6.493-0.586,9.718c-0.452,3.685-0.9,7.371-1.28,11.063
			c-0.14,1.357-0.031,2.738-0.122,4.103c-0.231,3.477-0.488,6.954-0.792,10.425c-0.045,0.509-0.4,0.99-0.913,2.187
			c-0.911-3.411-0.382-6.166-0.879-8.872c-0.271,2.301-0.485,4.61-0.827,6.9c-0.603,4.032-1.317,8.047-1.917,12.079
			c-0.205,1.382-0.308,2.796-0.279,4.191c0.046,2.219,0.362,4.433-1.077,6.425c-0.294,0.407-0.138,1.13-0.213,1.704
			c-0.463,3.571-0.989,7.136-1.376,10.715c-0.174,1.612-0.008,3.258-0.118,4.88c-0.188,2.764-0.471,5.522-0.73,8.46
			c1.164,0.341,2.211,0.648,3.659,1.072c-2.021,1.267-3.395,0.123-5.094-0.269c0.053-0.786,0.077-1.555,0.165-2.316
			c0.067-0.573,0.266-1.131,0.321-1.704c0.495-5.201,0.931-10.408,1.467-15.604c0.416-4.034,0.653-8.122,1.515-12.066
			c0.939-4.297,0.304-8.748,1.824-13.008c0.706-1.978,0.16-4.4,0.193-6.62c0.01-0.7-0.227-1.671,0.137-2.054
			c1.995-2.096,1.129-4.622,1.21-6.977c0.068-1.985,0.223-3.915,0.802-5.834c0.361-1.197,0.548-2.49,0.559-3.742
			c0.041-4.652-0.063-9.304,1.287-13.84c0.226-0.761,0.172-1.625,0.15-2.439c-0.115-4.313,0.577-8.54,1.309-12.764
			c0.02-0.115,0.036-0.231,0.044-0.348c0.256-3.701,0.539-7.401,0.759-11.104c0.283-4.754,0.214-9.552,0.867-14.252
			c0.501-3.607,0.357-7.191,0.627-10.774c0.225-2.985,0.816-5.942,1.196-8.918c0.118-0.923,0.099-1.866,0.104-2.799
			c0.031-5.494,0.004-10.988,0.097-16.48c0.033-1.952,0.45-3.897,0.497-5.85c0.027-1.124-0.507-2.259-0.496-3.386
			c0.047-4.772-0.38-9.487-1.291-14.171c-0.118-0.608,0.264-1.314,0.332-1.615c-2.084-3.238-4.002-6.199-5.898-9.174
			c-1.116-1.751-2.025-3.669-3.35-5.24c-1.008-1.195-2.443-2.111-3.837-2.881c-1.698-0.939-3.558-1.581-5.335-2.382
			c-0.524-0.236-1.13-0.466-1.479-0.883c-2.227-2.662-4.383-5.382-6.581-8.068c-1.132-1.383-2.302-2.734-3.38-4.011
			c1.656-1.413,3.473-2.863,5.155-4.457c0.513-0.486,1.014-1.461,0.861-2.038c-0.15-0.568-1.091-1.009-1.769-1.328
			c-0.495-0.233-1.125-0.178-1.503-0.692c-1.028-0.618-2.019-1.312-3.092-1.837c-1.636-0.8-3.329-1.483-5.056-2.241
			c-0.898,1.485-1.72,2.845-2.597,4.295c-0.681-0.181-1.333-0.354-2.405-0.64c1.635-0.783,2.616-1.635,2.679-3.234
			c0.019-0.486,0.517-1.023,0.917-1.412c1.552-1.509,3.225-2.899,4.708-4.47c0.842-0.892,1.274-2.168,2.112-3.066
			c2.828-3.032,5.381-6.257,7.627-9.748c2.723-4.231,5.745-8.28,8.296-12.609c1.742-2.957,2.917-6.25,4.308-9.409
			c0.369-0.838,0.479-1.805,0.919-2.594c2.596-4.658,4.086-9.768,6.103-14.662c1.711-4.15,3.608-8.224,5.349-12.363
			c0.792-1.882,1.559-3.799,2.067-5.771c0.787-3.054,2.324-5.748,3.66-8.548c0.895-1.875,1.704-3.796,2.466-5.729
			c0.8-2.028,2.124-3.546,4.067-4.506c3.205-1.584,6.441-3.082,10.283-3.007c-0.556,0.932-1.077,1.803-1.693,2.835
			c0.158,0.657,0.343,1.422,0.524,2.174c-0.51,1.199-1.749,1.674-3.978,1.449c0,1.493,0,2.973,0,4.541
			c-0.917,0.645-1.694,1.365-2.607,1.805c-4.315,2.083-6.191,6.211-8.28,10.058c-0.861,1.587-0.421,3.582-0.018,5.472
			c1.259,5.902,2.593,11.817,2.393,17.913c-0.032,0.981-0.52,1.947-0.938,3.414c-1.499-1.954-1.908-3.565-1.722-5.517
			c0.331-3.48,0.545-6.98,0.577-10.474c0.013-1.421-0.575-2.847-0.906-4.344c-1.522,0.583-1.627,1.602-1.834,2.665
			c-0.821,4.228-1.866,8.408-3.838,12.266c-0.995,1.947-1.511,3.912-1.171,6.073c0.559,3.558-0.382,6.963-1.091,10.382
			c-0.184,0.888-0.557,1.831-1.118,2.528c-1.905,2.369-2.527,5.219-3.259,8.038c-0.146,0.561-0.291,1.169-0.224,1.73
			c0.342,2.839,0.754,5.669,1.214,9.035c2.33-1.782,3.629-3.826,4.917-5.821c3.973-6.154,7.896-12.341,11.768-18.559
			c1.911-3.068,3.766-6.18,5.446-9.378c0.683-1.3,0.855-2.874,1.222-4.333c0.193-0.767,0.308-1.554,0.478-2.436
			c1.525,0.166,2.873,0.313,4.192,0.457c0.846,1.056,1.635,2.039,2.476,3.089c0.715-0.379,1.307-0.692,1.911-1.012
			c0,3.484,0,6.941,0,10.262c1.046,0.647,1.873,1.159,2.987,1.848c-1.823,1.218-3.344-0.167-4.895,0.313
			c2.698,1.086,4.191,3.719,7.191,4.834c-0.848,1.093-1.516,1.955-2.41,3.108c0.307,0.888,0.609,1.993,1.073,3.026
			c0.385,0.859,1.73,1.5,0.228,2.807c-0.59-0.3-1.263-0.642-2.164-1.1c-0.582,0.539-1.229,1.138-2.025,1.875
			c0.713,1.034,1.345,1.95,2.042,2.962c0.835-0.449,1.527-0.821,2.18-1.173c2.493,1.866,2.732,2.999,1.197,5.981
			c-0.492-0.145-1.032-0.275-1.549-0.465c-0.538-0.199-1.054-0.457-2.037-0.891c-0.388,0.752-0.81,1.571-1.318,2.555
			c-0.881-0.779-1.283-1.135-1.749-1.547c0.422-0.821,0.782-1.524,1.008-1.962c-0.607-2.24-1.221-4.215-1.655-6.229
			c-0.218-1.01-0.205-2.083,0.944-2.768c0.425-0.253,0.656-0.831,1.308-1.708c-1.636,0.246-2.735,0.411-3.833,0.576
			c0.106-1.008,0.502-1.782,1.592-2.019c1.649-0.359,2.408-1.632,3.408-3.216c-1.085-0.468-1.954-0.843-2.727-1.177
			c-1.334,1.559-2.435,2.848-3.888,4.547c-0.582-1.854-1.031-3.288-1.568-4.999c-1.442,2.798-0.925,5.38-0.727,7.814
			c1.476-0.381,2.736-0.707,3.996-1.032c-2.035,3.972-5.537,5.272-9.787,5.336c-1.207,1.08-0.775,2.512-0.725,3.865
			c-0.422,0.147-1.106,0.183-1.224,0.46c-0.837,1.967-1.558,3.984-2.32,5.994c1.927,0.63,3.526,1.152,5.71,1.866
			c-1.495-1.649-2.557-2.819-3.205-3.534C119.947,153.515,120.224,152.092,120.501,150.669z M131.619,212.928
			c-1.282,1.945-2.257,3.423-3.348,5.078c3.216,1.426,3.521,4.203,4.129,6.779c0.183,0.774-0.026,1.635,0.108,2.429
			c0.104,0.617,0.461,1.191,0.738,1.862c2.079-1.82,2.06-1.82,2.111-4.215c0.076-3.591-0.164-7.169,0.899-10.731
			c0.846-2.834-0.861-4.992-3.913-5.738C130.498,209.719,131.335,211.492,131.619,212.928z M144.904,341.88
			c0.072-0.527,0.198-0.878,0.145-1.201c-0.074-0.445-0.248-0.885-0.439-1.299c-1.515-3.275-2.801-6.57-2.322-10.325
			c0.167-1.309,0.423-2.787-0.673-3.969c-0.642,0.246-1.22,0.608-1.825,0.662c-0.63,0.057-1.286-0.183-1.949-0.297
			c-0.2,0.498-0.4,0.803-0.435,1.126c-0.06,0.558-0.017,1.128-0.017,1.659c2.465,0.426,3.705,1.882,3.325,3.908
			c-0.143,0.761-0.485,1.628-1.026,2.142c-1.326,1.261-1.11,2.557-0.611,4.223c0.838-0.641,1.458-1.117,2.276-1.743
			c0.362,1.424,0.648,2.654,0.991,3.868C142.674,341.801,143.364,342.415,144.904,341.88z M112.599,208.711
			c-1.964-0.995-2.667,1.698-4.441,0.41c-0.284-1.777-0.566-3.779-1.942-5.626c-1.369,3.829,1.003,6.679,1.456,10.08
			c1.5,0,2.824,0,4.092,0C113.022,211.946,113.029,210.305,112.599,208.711z M128.241,196.225c0.79,2.088-1.256,2.926-2.165,4.588
			c1.054,0.831,1.998,1.576,2.818,2.222c1.03-1.633,1.9-3.012,2.74-4.343c0-1.353,0-2.704,0-4.171
			C130.507,195.087,129.596,195.545,128.241,196.225z M115.786,179.419c-1.527-2.309-2.744-4.15-3.971-6.006
			c-2.118,3.024-2.133,3.322-0.244,6.525c0.566-0.264,1.133-0.674,1.751-0.774C113.931,179.064,114.592,179.277,115.786,179.419z
			 M107.846,237.864c0.28,0.048,0.56,0.097,0.839,0.145c0.206-0.725,0.727-1.53,0.567-2.163c-0.914-3.629,0.174-7.692-2.628-11.236
			C107.05,229.225,107.448,233.544,107.846,237.864z M112.396,205.855c-0.448-1.992-0.815-3.849-1.314-5.67
			c-0.113-0.411-0.687-0.695-1.139-1.122c-1.666,2.001-1.392,3.98-1.097,6.067C110.187,205.347,111.155,206.545,112.396,205.855z
			 M150.542,301.013c-2.554-1.498-2.156-4.254-4.358-6.039c-0.232,2.281-0.416,4.086-0.612,6.002
			C146.925,302.726,148.348,301.399,150.542,301.013z M108.732,270.672c1.904-2.578,0.52-5.119,1.12-7.424
			c0.225-0.864,0.345-2.113-1.205-3.012c-0.109,0.251-0.289,0.56-0.38,0.892C108.014,262.047,108.296,268.668,108.732,270.672z
			 M153.657,286.775c-0.225-0.033-0.451-0.066-0.676-0.099c-0.888,2.455-1.776,4.91-2.687,7.43c0.431,0.144,0.758,0.353,1.07,0.334
			c0.432-0.026,0.853-0.224,1.448-0.398C153.099,291.57,153.378,289.173,153.657,286.775z M131.569,125.279c0-1.11,0-1.989,0-2.579
			c-1.093-1.053-1.965-1.892-2.855-2.75c-1.322,0.115-1.791,0.854-1.544,2.194C128.544,123.124,129.946,124.123,131.569,125.279z
			 M108.478,215.617c-0.156,0.067-0.313,0.134-0.469,0.201c0.836,2.474,1.671,4.948,2.523,7.47c0.246-0.229,0.554-0.388,0.546-0.528
			c-0.104-1.803-0.254-3.604-0.39-5.382C109.897,216.748,109.188,216.183,108.478,215.617z M106.812,200.26
			c2.31-1.093,2.36-2.329,0.213-6.87C106.591,195.931,106.566,198.047,106.812,200.26z M112.108,347.531
			c2.54-0.901,2.555-0.887,3.161-2.818C112.44,344.223,111.6,344.898,112.108,347.531z M127.615,206.518
			c1.074,1.406,1.634,2.138,2.536,3.319c0.388-1.444,0.625-2.33,0.956-3.56C129.919,206.359,129.202,206.409,127.615,206.518z
			 M111.936,355.358c0.217-0.079,0.434-0.159,0.651-0.238c0.169-1.193,0.339-2.386,0.602-4.243c-1.128,1.058-1.813,1.7-2.571,2.411
			C111.156,354.132,111.546,354.745,111.936,355.358z M136.776,195.503c-1.03-0.571-1.609-1.63-3.073-0.451
			c0.54,0.724,1.017,1.363,1.645,2.206C135.94,196.532,136.275,196.12,136.776,195.503z M108.113,239.802c0,0.912,0,2.005,0,3.254
			c0.948-0.335,1.671-0.591,2.597-0.919C109.704,241.233,108.906,240.515,108.113,239.802z"/>
		<path fill="#333333" d="M245.163,190.998c1.149,1.705,2.298,3.409,3.48,5.162c-0.985,0.201-1.691-0.526-2.45-1.209
			c-1.959-1.763-3.997-3.442-5.898-5.263c-0.967-0.927-1.992-1.086-3.363-0.845c-1.181,1.698-2.613,3.236-4.881,3.874
			c-0.913,0.257-1.712,1.135-2.418,1.871c-2.164,2.256-4.077,4.788-6.428,6.818c-2.455,2.12-4.337,4.905-4.614,8.628
			c-0.738,0.645-1.838,1.517-2.832,2.497c-1.535,1.514-3.083,3.028-3.438,5.34c-0.082,0.53-0.48,1.06-0.851,1.489
			c-1.553,1.8-2.422,3.439-3.115,5.486c-0.591,1.742-1.266,3.473-2.104,5.107c-0.455,0.887-1.185,1.826-2.037,2.284
			c-3.921,2.108-4.53,5.814-4.893,9.655c-0.109,1.154,0.033,2.33-0.005,3.494c-0.101,3.05-1.029,5.906-2.237,8.664
			c-0.306,0.699-1.014,1.222-1.537,1.826l0.081,0.066c-1.569-7.556-1.685-15.262-2.363-22.91c-0.598-6.736-1.469-13.424-2.691-20.09
			c-1.218-6.643-1.785-13.403-2.72-20.1c-0.466-3.338-1.111-6.652-1.698-9.973c-0.059-0.332-0.192-0.739-0.434-0.935
			c-1.818-1.479-1.636-3.475-1.499-5.474c0.184-2.674,0.429-5.347,0.514-8.025c0.071-2.208-0.006-4.424-0.103-6.632
			c-0.076-1.74-0.225-3.481-0.441-5.209c-0.5-4.007,0.582-7.858,1.05-11.774c0.858-7.184,2.083-14.296,3.763-21.335
			c0.24-1.008,0.083-2.105,0.258-3.136c0.146-0.865,0.508-1.694,0.971-3.164c1.017,1.24,1.888,1.909,2.222,2.782
			c1.06,2.777,2.408,5.49,2.519,8.552c0.073,2.027,0.521,3.958,1.844,5.537c2.372,2.832,3.342,6.383,4.954,9.594
			c2.72,5.421,5.816,10.574,9.555,15.338c1.43,1.822,2.876,3.651,4.503,5.291c1.038,1.046,2.421,1.75,3.65,2.608l-0.083-0.087
			c-0.231,2.194,1.495,3.451,2.684,4.696c3.272,3.426,6.808,6.608,10.353,9.76c1.464,1.302,3.16,2.219,5.372,1.9
			c1.224-0.177,2.532,0.293,2.805,2.211c-0.979,0-1.807,0-2.713,0c0.139,0.443,0.139,0.732,0.279,0.844
			c0.879,0.7,1.806,1.341,2.687,2.039c1.09,0.864,2.151,1.765,3.224,2.65C244.443,190.932,244.803,190.965,245.163,190.998z"/>
		<path fill="#333333" d="M219.474,166.887c0.064-1.417-0.535-2.576-1.718-3.234c-1.821-1.012-2.37-2.807-3.11-4.502
			c-0.412-0.945-0.824-1.908-1.061-2.904c-0.115-0.484,0.171-1.063,0.314-1.793c1.387,1.091,2.591,2.038,3.807,2.995
			c-0.312,0.569-0.638,1.161-0.949,1.728c2.161,1.939,2.705,2.215,5.748,2.878c-0.465,1.996,0.268,3.705,1.722,5.349
			c1.277-0.898,0.963-2.247,0.439-3.053c-1.53-2.352-1.223-5.46-3.265-7.551c0.073-1.936-1.066-3.461-1.654-5.177
			c-0.931-2.713-1.285-5.619-1.985-8.418c-0.762-3.05-1.805-6.038-2.424-9.113c-0.776-3.859-1.247-7.78-1.845-11.675
			c-0.087-0.569-0.101-1.155-0.234-1.712c-0.865-3.63-1.559-7.317-2.683-10.867c-1.532-4.839-3.422-9.564-5.109-14.356
			c-0.538-1.529-0.919-3.113-1.364-4.674c-0.221-0.776-0.231-1.698-0.674-2.309c-1.689-2.332-3.515-4.565-5.453-7.044
			c1.054,0,1.916,0,3.145,0c-0.504-1.345-1.007-2.689-1.506-4.022c-3.249-1.05-5.885-3.108-9.262-3.507
			c-1.121-0.132-2.282-1.102-3.151-1.965c-1.949-1.934-3.052-2.393-6.402-3.578c-1.454-0.514-3.507-0.776-4.112-2.966
			c1.526-2.475,3.127-4.98,4.611-7.553c0.311-0.539,0.189-1.328,0.234-1.713c-2.785-2.795-5.367-5.385-7.916-7.943
			c1.135-1.415,2.046-2.552,3.11-3.878c0.917,0.769,1.531,1.825,1.811,3.075c0.255,1.141,0.372,2.331,2.184,2.994
			c0.29-0.403,0.683-0.949,1.187-1.648c-0.301-0.89-0.617-1.826-1.018-3.012c2.47,0.783,2.965,2.904,4.18,4.324
			c-0.192,2.185-2.016,4.19-0.918,6.379c0.907,1.81,2.284,3.385,3.885,5.685c0,1.202,0.04,3.182-0.012,5.158
			c-0.046,1.772,0.749,2.769,2.426,3.343c2.058,0.705,3.988,1.832,6.077,2.391c2.49,0.667,3.717,2.646,4.824,3.665
			c0.926,2.775,1.377,4.954,2.361,6.857c1.091,2.109,1.594,4.259,1.938,6.563c0.247,1.654,0.917,3.274,1.581,4.831
			c2.39,5.609,4.46,11.312,6.226,17.161c1.862,6.17,4.33,12.156,6.487,18.239c0.576,1.625,0.803,3.391,1.505,4.95
			c1.437,3.19,2.526,6.518,4.048,9.675c1.501,3.115,3.17,6.159,4.666,9.238c1.342,2.763,3.304,4.904,4.884,7.388
			c0.681,1.07,1.406,2.164,1.804,3.349c0.722,2.155,2.036,3.843,3.538,5.477c1.157,1.258,2.781,2.144,3.2,4.047
			c0.093,0.422,0.806,0.759,1.292,1.032c0.801,0.449,1.649,0.814,2.572,1.259c0.11,1.051,0.217,2.075,0.318,3.037
			c1.353,1.401,3.18,2.098,4.007,3.92c0.266,0.586,1.269,0.936,2.005,1.186c1.266,0.431,2.587,0.7,4.578,1.216
			c-3.089,1.001-5.235-0.254-7.579-0.474c-0.655-0.715-1.356-1.479-2.061-2.248c0.175-0.238,0.367-0.499,0.524-0.711
			c-0.849-0.864-1.886-1.604-2.473-2.608c-0.554-0.945-0.634-2.167-0.957-3.396c-4.242,0.813-8.044,2.143-11.863,4.438
			c-2.63-3.001-5.224-5.96-7.944-9.064c0.103-0.734,0.226-1.613,0.36-2.563c-1.143-0.014-2.016,0.194-2.968-0.683
			c-1.055-0.972-2.648-1.359-4.006-2.001L219.474,166.887z"/>
		<path fill="#333333" d="M152.857,149.983c-2.181-0.937-1.024-2.067-0.414-3.109c-0.948-0.482-2.102-0.165-2.559-1.562
			c-0.512-1.564-2.114-1.461-3.807-1.349c-0.277-4.002-2.357-7.878,0.148-11.721c-1.972-4.192-3.9-8.293-6.126-13.026
			c-0.087-1.075,0.48-2.99-0.919-4.627c-0.284-0.332,0.293-1.318,0.299-2.004c0.005-0.653-0.477-1.396-0.291-1.945
			c0.508-1.5-0.089-2.701-0.886-3.909c1.517-1.366,3.084-1.951,4.922-1.442c2.52,0.698,5.026,0.696,7.45-0.06
			c0.322,1.126,0.615,2.148,1.08,3.774c1.062-1.366,1.723-2.217,2.292-2.949c2.184-0.093,4.256-0.045,6.287-0.313
			c1.547-0.204,2.654,0.221,3.804,1.204c0.996,0.851,2.246,1.405,3.656,2.255c0.43,1.302-1.34,1.337-2.103,2.482
			c0.349,0.882,1.379,1.883,0.712,3.226c-0.498,1.003-0.813,2.097-1.267,3.302c-0.977-0.313-1.646-0.528-2.315-0.743
			c-0.111,0.169-0.223,0.337-0.334,0.506c0.735,0.717,1.47,1.434,2.332,2.275c-0.319,0.695-0.622,1.428-0.984,2.132
			c-0.852,1.654-1.984,6.284-2.038,8.295c-0.015,0.572-0.107,1.151-0.243,1.708c-0.352,1.447-0.695,2.9-1.154,4.314
			c-0.158,0.487-0.644,0.867-1.22,1.602c-0.529-0.941-0.897-1.594-1.422-2.526c-0.498-0.083-1.29-0.11-1.998-0.368
			c-0.6-0.219-1.102-0.705-1.696-1.105c-1.355,0.896-2.573,1.702-4.421,2.924c0.794,0.627,1.391,1.099,2.195,1.734
			c0.64-0.997,1.093-1.704,1.754-2.734c1.397,0.929,2.611,1.736,3.75,2.494C157.77,142.005,155.915,146.65,152.857,149.983z
			 M152.785,123.936c-0.511,0.919-0.932,1.675-1.403,2.521c0.733,0.641,1.315,1.151,1.977,1.73c1.208-0.823,3.145-0.714,2.8-2.916
			C155.121,124.86,154.165,124.482,152.785,123.936z M152.072,131.933c1.125,1.265,2.166,1.613,3.322,0.962
			c1.034-0.582,1.734-1.446,1.243-2.958c-1.177,0-2.278,0-3.439,0C152.832,130.586,152.504,131.166,152.072,131.933z
			 M153.046,122.732c1.756-0.803,2.22-2.014,1.825-3.492c-0.127-0.474-0.815-0.797-1.246-1.189
			C153.455,119.673,151.889,120.882,153.046,122.732z M159.558,107.644c-1.49-0.369-2.616,0.135-3.697,1.264
			c0.193,0.426,0.274,0.933,0.571,1.179c0.374,0.309,0.924,0.404,1.287,0.546C158.392,109.539,158.942,108.646,159.558,107.644z
			 M149.763,110.331c1.978,2.627,1.978,2.627,3.333,1.241C151.744,110.232,151.744,110.232,149.763,110.331z"/>
		<path fill="#333333" d="M29.516,186.824c-0.361,0.654-0.722,1.307-1.115,2.018c-1.248-0.403-2.213-0.715-3.197-1.033
			c-0.049-0.63-0.083-1.08-0.11-1.43c2.864-2.676,5.897-4.896,8.947-5.909c2.703,0.369,4.858,0.67,7.014,0.952
			c0.687,0.09,1.523-0.098,2.048,0.23c2.012,1.258,4.21,1.136,6.413,1.158c0.454,0.005,0.949,0.059,1.354,0.244
			c1.65,0.755,3.273,1.57,5.187,2.499c-1.749,0.594-3.198,0.572-4.579-0.464c-1.018-0.764-1.979-1.702-3.844-0.885
			c2.127,1.664,4.081,3.193,6.14,4.804c-0.413,2.183-1.604,3.981-3.105,5.894c2.516,2.308,5.932,1.334,9.108,2.37
			c-2.341,1.093-4.277,1.779-6.572,0.746c-1.228-0.553-2.691-0.604-4.057-0.831c-2.861-0.476-5.489,0.27-7.996,1.596
			c-0.621-1.843,2.569-1.666,1.896-3.816c-2.3,0.817-4.667,1.228-6.007,3.915c1.154,0,2.041,0,2.928,0
			c-1.2,1.201-2.483,1.369-4.07,0.483c-0.374-0.209-0.677-0.543-1.008-0.816c-0.675,0.479-1.209,0.859-1.762,1.252
			c-1.151-1.051-2.234-2.038-3.57-3.257c0.04-0.173,0.359-0.74,0.244-1.198c-0.584-2.318,0.534-4.124,1.606-5.969
			c0.227-0.391,0.449-0.804,0.562-1.236c0.083-0.319-0.015-0.685-0.042-1.239c-0.412-0.046-0.832-0.093-1.253-0.141
			c-0.079-1.15,0.523-1.688,1.608-1.834c0.529-0.071,1.049-0.213,1.573-0.323c-2.485-0.352-4.834-0.362-6.35,2.448
			C28.396,186.951,28.956,186.888,29.516,186.824z M33.447,198.262c2.006-2.566,3.832-4.902,5.807-7.428
			c1.301,0.382,2.922,0.865,4.83-0.083c-3.36-1.925-6.613-2.149-10.098-1.804c-0.626,0.87-1.332,1.796-1.979,2.761
			C30.23,194.36,30.567,195.998,33.447,198.262z"/>
		<path fill="#333333" d="M154.015,99.01c-2.673-0.174-2.554-2.612-3.999-3.409c-1.442-0.795-2.655-2.005-4.054-3.099
			c-1.568,0.607-3.049,1.285-4.593,1.748c-1.532,0.46-3.128,0.705-4.957,1.101c-1.068-2.775-2.11-5.48-3.156-8.198
			c0.413-0.314,0.672-0.68,0.949-0.694c2.175-0.112,4.078-0.811,5.635-2.376c0.24-0.242,0.533-0.503,0.846-0.588
			c2.227-0.605,4.466-1.166,6.764-1.758c0.791,0.751,1.529,1.452,2.35,2.231c0.696-0.471,1.339-0.906,2.194-1.485
			c0.862,0.955,1.678,1.86,2.753,3.05c0.578-0.879,1.125-1.578,1.522-2.355c0.368-0.719,0.501-1.557,0.872-2.274
			c0.398-0.769,1.114-1.36,1.988-0.921c0.532,0.267,1.074,0.919,1.205,1.491c0.228,1.003,0.143,2.077,0.199,3.344
			c1.319,0.744,2.521,1.759,2.493,3.771c-1.225,0.443-3.088,0.387-2.979,2.808c1.067,0.528,2.269,1.123,3.48,1.723
			c-1.892,2.153-1.9,2.118-4.367,2.664c-0.62,0.138-1.202,0.537-1.751,0.895C156.26,97.429,155.144,98.23,154.015,99.01z
			 M155.594,97.369c0.416-1.532,1.183-2.825,0.971-3.931c-0.331-1.732-0.476-3.364-0.261-5.114c0.167-1.355-0.723-2.16-2.121-2.176
			c-0.783-0.009-1.569,0.202-1.98,0.261c-1.607,1.531,0.097,2.617-0.048,3.602c-0.557,1.246-1.021,2.283-1.404,3.138
			c0.783,1.505,1.417,2.722,2.12,4.073C153.609,97.261,154.386,97.304,155.594,97.369z"/>
		<path fill="#333333" d="M133.542,39.796c2.082,1.202,3.931,0.488,5.78-0.229c1.329-3.312,0.623-4.814-3.15-6.703
			c-0.724-0.727,0.452-2.611-1.831-2.549c-0.185,0.355-0.406,0.84-0.683,1.292c-0.218,0.356-0.505,0.67-0.799,1.05
			c-1.372-1.602,0.02-2.444,0.699-3.584c-0.281-0.757-0.59-1.589-0.89-2.397c3.513-1.37,3.513-1.37,3.995-3.653
			c1.206,0.412,2.398,0.82,3.606,1.232c1.818,2.952-2.135,4.259-2.008,6.86c1.748,0.194,2.994-0.655,4.62-1.437
			c-0.654,1.831-1.227,3.436-1.871,5.24c0.561,0.594,1.171,1.24,1.884,1.995c-0.004,2.616-2.523,5.104-0.576,7.886
			c-0.756,0.809-1.366,1.461-1.869,2c1.306,0.669,2.592,1.327,4.323,2.214c-0.902,0.609-1.372,1.052-1.929,1.276
			c-0.959,0.384-2.038,0.505-2.95,0.968c-1.307,0.663-1.503,1.786-0.56,2.852c0.756,0.854,1.651,1.585,2.807,2.676
			c0.435-1.754,0.782-3.158,1.18-4.761c0.513,0.029,1.033,0.059,1.717,0.098c-0.037,0.641,0.027,1.103-0.102,1.503
			c-0.808,2.509-0.823,2.504,1.337,4.24c0.03,2.806-0.761,3.534-3.094,2.678c-0.837-0.307-1.838-0.784-2.265-1.487
			c-2.781-4.574-5.546-9.167-8.042-13.899C132.099,43.688,132.101,41.761,133.542,39.796z"/>
		<path fill="#333333" d="M178.624,43.309c-2.499-1.015-1.198-4.444-3.803-5.594c-0.495,2.403,0.64,4.812-0.703,6.848
			c-1.3-0.024-1.563-0.858-1.511-1.673c0.299-4.66-1.692-8.878-2.538-13.313c-0.23-1.205-1.031-2.301-1.705-3.733
			c0.313-0.587,0.757-1.422,1.202-2.257c-0.123-0.124-0.246-0.248-0.369-0.373c-0.989,0.612-1.978,1.224-2.983,1.845
			c-0.087,1.344-0.168,2.589-0.285,4.395c-0.858-1.725-1.457-2.932-2.212-4.449c-0.891,0.692-1.558,1.21-2.229,1.731
			c-1.879-3.09-3.79-6.234-5.908-9.718c1.698,0,3.033,0,4.514,0c1.427,0.795,2.012,3.071,4.33,3.07
			c0.568-2.011-1.033-3.038-1.763-4.561c0.485-0.905,1.015-1.895,1.553-2.9c3.222,1.014,4.121,4.107,5.673,6.507
			c2.321,3.589,3.945,7.519,4.877,11.75c0.304,1.381,1.423,2.585,2.181,3.863C178.515,37.393,179.451,40.151,178.624,43.309z"/>
		<path fill="#333333" d="M126.88,51.86c-0.204-3.816-0.506-8.325-0.652-12.838c-0.048-1.471,0.222-2.972,0.507-4.428
			c0.463-2.366,1.058-4.707,2.015-7.085c0.078,0.521,0.263,1.052,0.215,1.561c-0.193,2.066-0.475,4.124-0.681,6.19
			c-0.045,0.451-0.074,1.038,0.163,1.363c1.918,2.628,0.831,5.457,0.313,8.076c-0.53,2.678-0.589,4.992,1.492,6.956
			c-0.749,1.382-1.454,2.578-2.059,3.823c-1.156,2.379-1.005,2.785,1.375,4.473c0.175,0.124,0.273,0.359,0.425,0.568
			c-0.068,1.413-1.59,2.675-0.472,4.402c1.024,0.199,2.174,0.296,3.235,0.655c1.892,0.641,2.217,1.967,0.948,3.458
			c-0.738,0.867-1.512,1.704-2.452,2.76c-0.118-0.833-0.247-1.554-0.318-2.28c-0.116-1.197-0.498-2.193-1.587-2.889
			c-2.339-1.493-3.376-4.067-4.946-6.19c-0.901-1.218-0.709-2.663-0.066-3.969C124.997,55.122,125.78,53.837,126.88,51.86z"/>
		<path fill="#333333" d="M144.871,165.861c0.473-0.768,0.945-1.536,1.413-2.296c1.976,0.073,1.271,1.897,1.838,2.914
			c0.447-0.484,0.824-0.891,1.228-1.328c0.796,2.412,0.78,2.487-1.281,5.695c0.4,0.975,1.933,1.805,1.012,3.222
			c-0.603,0.928-1.025,2.186-2.816,1.928c-0.319-0.545-0.692-1.228-1.111-1.881c-0.368-0.573-0.789-1.112-1.313-1.843
			c0.622-0.63,1.304-1.216,1.853-1.906c0.543-0.682,0.952-1.47,1.573-2.455c-1.915,0.472-1.915,0.472-4.377,2.974
			c-2.799-0.77-3.931-3.303-5.593-5.335c-1.583-1.936-3.519-3.589-4.523-6.427c2.194,1.132,3.843,2.367,4.89,4.435
			c0.301-0.476,0.576-0.909,1.01-1.594c0.669,1.034,1.299,1.924,1.839,2.865c0.425,0.742,0.862,1.391,1.822,1.4
			C143.36,167.327,144.035,166.044,144.871,165.861z"/>
		<path fill="#333333" d="M172.137,329.209c-0.213,0.394-0.483,0.892-0.731,1.351c0.379,0.753,2.027,0.846,0.868,2.338
			c-1.239-0.575-2.518-1.168-3.808-1.766c-0.981-1.809,0.657-2.102,1.805-2.883c-0.826-1.363-1.645-2.715-2.563-4.23
			c-1.275,0.774-0.985,1.741-0.563,2.696c0.474,1.072,0.568,1.984-0.882,2.613c-0.267-0.416-0.591-0.757-0.728-1.162
			c-1.159-3.425-2.5-6.772-3.997-10.065c-0.277-0.61-0.16-1.596,0.163-2.202c0.173-0.325,1.171-0.21,1.867-0.303
			c0.344,1.268,0.63,2.32,0.894,3.296c2.15,0.308,1.347-2.2,2.832-2.382c1.779-0.092,1.583,1.527,2.383,2.587
			c-1.31,0.585-2.38,1.063-3.489,1.559c1.429,2.465,1.62,2.465,3.681,0.352C170.578,323.573,171.302,326.189,172.137,329.209z"/>
		<path fill="#333333" d="M99.895,361.469c0.813,3.537-0.014,6.951-0.421,10.35c-0.411,3.433-1.122,6.829-1.651,10.249
			c-0.062,0.398,0.221,0.84,0.296,1.27c0.111,0.639,0.367,1.328,0.234,1.922c-0.708,3.158-1.594,6.277-2.254,9.444
			c-0.256,1.228-0.09,2.547-0.099,3.824c-0.01,1.51,0.09,3.044-1.341,4.556c-0.268-0.916-0.732-1.658-0.639-2.323
			c0.591-4.226,1.434-8.42,1.939-12.655c0.423-3.549,0.488-7.141,0.734-10.712c0.159-2.312,0.331-4.623,0.55-6.929
			c0.174-1.835,0.462-3.66,0.637-5.495C98.017,363.534,98.298,362.22,99.895,361.469z"/>
		<path fill="#333333" d="M174.067,221.537c0.341-0.966,0.628-1.781,0.968-2.744c2.761,1.22-0.396,3.73,1.653,4.759
			c-0.568,0.905-0.974,1.594-1.421,2.257c-1.504,2.228-0.468,4.337,0.673,6.122c1.645,2.576,1.824,2.458-0.102,4.844
			c-0.287,0.355-0.54,0.738-1.106,1.518c0.202-3.208-1.545-5.2-3.319-7.535c0.64-0.202,1.032-0.26,1.349-0.445
			c0.369-0.215,0.672-0.541,0.999-0.816c-1.18-1.509-1.18-1.509-3.574-0.433c-0.115-0.82-0.41-1.58-0.282-2.26
			c0.434-2.305,0.902-4.568-1.237-6.554C170.955,219.436,172.043,221.453,174.067,221.537z"/>
		<path fill="#333333" d="M150.566,21.183c1.867,0.403,2.185,1.582,2.658,2.628c2.391,5.292,4.55,10.655,5.009,16.533
			c0.018,0.231,0.114,0.471,0.074,0.69c-0.505,2.801-1.16,5.559-2.342,8.769c-1.153-4.574-1.324-8.553-0.627-12.621
			c0.224-1.308-0.018-2.76-0.326-4.081c-0.843-3.618-2.01-7.128-4.068-10.281C150.725,22.482,150.743,21.99,150.566,21.183z"/>
		<path fill="#333333" d="M154.671,71.845c-0.525,0.405-0.875,0.675-1.378,1.062c-2.245-2.674-4.741-5.028-5.029-8.762
			c1.01,0.246,2.014,0.49,3.171,0.771c0.903,1.316,1.883,2.746,2.923,4.263c0.785,0,1.563,0,2.391,0
			c1.391,1.187,1.515,4.761,0.22,7.735C155.112,75.907,155.112,75.907,154.671,71.845z"/>
		<path fill="#333333" d="M145.642,192.664c-0.675-1.027-1.548-1.877-1.816-2.886c-0.315-1.189-0.202-2.527-0.076-3.781
			c0.048-0.486,0.581-1.246,0.99-1.316c1.608-0.276,2.392-1.608,3.463-2.582c2.186,1.575,3.056,3.525,2.482,6.251
			C149.245,189.58,147.685,190.916,145.642,192.664z"/>
		<path fill="#333333" d="M147.117,38.541c2.314,0.706,4.13,1.26,6.282,1.916c-0.13,0.776-0.03,1.787-0.462,2.448
			c-1.222,1.87-0.246,4.832-3.279,5.998c-0.362-0.145-0.968-0.388-1.854-0.742c1.188-2.343,0.071-4.309-0.757-6.324
			C146.568,40.672,145.976,39.5,147.117,38.541z"/>
		<path fill="#333333" d="M169.679,51.157c-0.287-1.095-0.575-2.19-0.887-3.378c0.335-0.871,0.741-1.929,1.276-3.322
			c0.597,0.973,1.501,1.819,1.628,2.769c0.429,3.211,2.563,5.073,4.864,6.89c0.805,0.636,1.67,1.256,2.274,2.059
			c0.28,0.372-0.001,1.165-0.052,2.296c-2.472-1.986-4.514-3.573-5.363-6.125c-2.037-0.087-2.037-0.087-3.831-1.273L169.679,51.157z
			"/>
		<path fill="#333333" d="M195.541,255.875c0.062,3.617,0.15,7.235,0.178,10.852c0.034,4.324,0.029,8.649,0.014,12.973
			c-0.004,1.023-0.116,2.047-0.203,3.478c-0.38-0.506-0.587-0.654-0.592-0.807c-0.239-7.814-0.482-15.628-0.66-23.443
			c-0.026-1.134,0.086-2.358,1.343-2.986L195.541,255.875z"/>
		<path fill="#333333" d="M138.046,98.186c0.79,0.377,1.51,0.741,2.247,1.067c1.907,0.842,3.781,1.705,5.986,1.533
			c1.415-0.11,2.485,0.728,3.346,1.854c-2.122-0.123-4.082-0.279-6.148,0.216C139.41,103.83,138.339,102.81,138.046,98.186z"/>
		<path fill="#333333" d="M183.329,366.992c-0.448,0.262-0.932,0.545-1.665,0.974c-0.664-0.86-1.528-1.676-1.969-2.678
			c-0.212-0.482,0.376-1.315,0.642-2.109c1.592,0.744,2.823,1.32,4.283,2.003c-0.075,2.663,2.363,4.693,2.484,7.793
			c-2.042-0.392-2.743-1.52-2.782-3.172C184.3,368.779,184.611,367.674,183.329,366.992z"/>
		<path fill="#333333" d="M152.584,199.492c1.704,3.315,2.205,10.654,1.298,15.932c-1.047-1.976-2.049-8.97-1.877-13.496
			C152.03,201.234,152.323,200.55,152.584,199.492z"/>
		<path fill="#333333" d="M181.168,362.21c-1.385-0.824-2.685-1.598-4.357-2.592c0-0.705,0-1.799,0-3.074
			c1.235-0.283,2.419-0.555,3.922-0.899C180.53,358.031,182.118,359.998,181.168,362.21z"/>
		<path fill="#333333" d="M283.912,190.071c-0.381-1.027-0.762-2.054-1.229-3.313c0.938,0.187,1.683,0.336,2.601,0.519
			c0,1.539,0,2.998,0,4.59c-0.773,0.21-1.525,0.414-2.394,0.649c-0.142,1.438-0.284,2.881-0.427,4.324
			c-0.152,0.005-0.303,0.011-0.454,0.016c-0.249-1.519-0.326-3.094-0.795-4.541c-0.455-1.403-1.314-2.676-2.044-4.102
			c1.241-0.571,1.857,0.239,2.517,0.796c0.582,0.491,1.099,1.061,1.644,1.596C283.525,190.429,283.718,190.25,283.912,190.071z"/>
		<path fill="#333333" d="M112.482,376.774c1.581,2.79,1.802,5.474,0.871,9.98c-1.165-0.327-1.069-1.329-1.309-2.174
			c-0.252-0.89-0.659-1.736-0.947-2.471c0.268-0.955,0.741-1.818,0.679-2.641C111.706,378.541,111.269,377.67,112.482,376.774z"/>
		<path fill="#333333" d="M54.627,188.277c0.667-0.538,1.411-1.138,2.491-2.009c0.337,2.21,0.602,3.948,0.902,5.913
			c-0.699,0.526-1.487,1.119-2.363,1.779C55.331,192.16,55.033,190.515,54.627,188.277z"/>
		<path fill="#333333" d="M144.871,165.861c-0.836,0.183-1.512,1.466-2.535,0.371c0.121-0.652,0.016-1.622,0.404-1.897
			c1.273-0.903,0.655-2.066,0.667-3.193c1.218-1.006,2.304-0.701,3.683,0.363C145.426,162.574,144.946,164.132,144.871,165.861z"/>
		<path fill="#333333" d="M148.915,150.988c1.766,0.225,3.309,0.422,5.137,0.655c-0.791,1.127-1.427,2.033-2.126,3.03
			c-1.061-0.336-2.009-0.637-3.011-0.955C148.915,152.707,148.915,151.861,148.915,150.988z"/>
		<path fill="#333333" d="M275.082,183.223c-3.476,1.277-7.03,1.68-10.646,1.151C267.853,182.49,271.453,182.783,275.082,183.223z"
			/>
		<path fill="#333333" d="M253.429,191.163c1.419,0.401,2.471,0.698,3.653,1.032c-1.562,1.82-1.562,1.82-5.298,3.145
			C252.321,193.975,252.765,192.849,253.429,191.163z"/>
		<path fill="#333333" d="M209.048,138.112c1.962,2.353,1.042,4.413,0.357,6.512C207.82,143.068,207.718,141.803,209.048,138.112z"
			/>
		<path fill="#333333" d="M115.394,367.548c-1.488-1.794-1.506-3.281-0.292-4.84C117.611,363.72,117.681,364.522,115.394,367.548z"
			/>
		<path fill="#333333" d="M118.191,105.178c-0.61-1.567-1.092-2.806-1.584-4.07c1.285-1.174,2.151-0.593,2.838,0.487
			C120.218,102.809,119.988,103.493,118.191,105.178z"/>
		<path fill="#333333" d="M164.088,184.66c1.665-0.431,2.449,0.189,2.747,1.323c0.271,1.031,0.271,2.111-1.106,2.646
			C164.067,187.841,164.162,186.334,164.088,184.66z"/>
		<path fill="#333333" d="M160.59,102.783c-0.277-0.565-0.419-0.853-0.56-1.141c1.817-0.933,3.568-1.833,5.557-2.854
			C165.393,102.414,162.073,101.237,160.59,102.783z"/>
		<path fill="#333333" d="M149.542,148.546c-1.167-0.358-2.334-0.716-3.527-1.083c0.048-1.231,0.336-2.138,1.902-2.375
			c0.657,0.911,1.366,1.893,2.074,2.875C149.841,148.158,149.691,148.352,149.542,148.546z"/>
		<path fill="#333333" d="M62.784,178.369c0.077,2.933-2.944,3.597-3.499,5.853c-0.757,0-1.423,0-2.089,0
			c1.236-0.377,1.241-1.606,1.839-2.374C60.023,180.58,61.401,179.614,62.784,178.369z"/>
		<path fill="#333333" d="M140.234,361.949c-0.752,0.439-1.226,0.716-1.796,1.048c-1.549-1.292-1.063-2.797-0.718-5.058
			C138.719,359.532,139.363,360.56,140.234,361.949z"/>
		<path fill="#333333" d="M174.788,60.962c-0.6-1.014-1.158-1.959-1.616-2.733c0.455-1.216,1.104-1.72,1.94-1.064
			C176.401,58.177,176.304,59.446,174.788,60.962z"/>
		<path fill="#333333" d="M148.287,367.937c-1.341-0.134-2.028-0.949-1.438-1.626c0.942-1.083-1.167-3.172,1.438-3.692
			C148.287,364.423,148.287,366.061,148.287,367.937z"/>
		<path fill="#333333" d="M188.782,377.497c0.841,1.564,1.681,3.127,2.567,4.774c-1.853,0.044-2.407-0.276-2.697-1.687
			c-0.201-0.978-0.207-1.995-0.301-2.995C188.494,377.558,188.638,377.527,188.782,377.497z"/>
		<path fill="#333333" d="M245.163,190.998c-0.36-0.033-0.72-0.066-1.081-0.099c0.561-1.328,1.558-2.554,0.696-4.173
			c-0.129-0.243,0.45-0.864,0.962-1.771c0.251,2.276,0.438,3.97,0.649,5.881C245.984,190.889,245.573,190.944,245.163,190.998z"/>
		<path fill="#333333" d="M169.59,51.073c0.107,2.694,0.107,2.694-1.295,4.07c-1.379-2.26-1.139-2.952,1.383-3.987L169.59,51.073z"
			/>
		<path fill="#333333" d="M68.891,185.847c0.56-1.6,1.12-3.2,1.725-4.927c0.49,0.13,0.892,0.237,1.53,0.406
			c-0.994,1.74-1.878,3.288-2.762,4.836C69.22,186.057,69.055,185.952,68.891,185.847z"/>
		<path fill="#333333" d="M147.751,401.667c0.861,1.376,1.449,2.315,2.235,3.571c-0.52,0.438-0.945,0.797-1.693,1.428
			C147.917,404.979,146.619,403.904,147.751,401.667z"/>
		<path fill="#333333" d="M272.441,194.489c1.823-0.671,2.659,0.185,3.564,1.248c-0.463,0.6-0.904,1.172-1.456,1.889
			C273.469,196.968,272.887,196.007,272.441,194.489z"/>
		<path fill="#333333" d="M130.58,149.033c-1.194,1.61-2.388,2.248-3.979,2.812C127.793,148.872,127.826,148.846,130.58,149.033z"/>
		<path fill="#333333" d="M152.882,410.146c-0.784-0.038-1.568-0.077-2.592-0.127c0-0.83,0-1.547,0-2.909
			c1.247,1.051,2.072,1.745,2.897,2.44C153.085,409.748,152.983,409.947,152.882,410.146z"/>
		<path fill="#333333" d="M143.204,137.227c0.471,1.78,0.775,3.026-1.32,3.564C141.645,139.419,141.412,138.276,143.204,137.227z"/>
		<path fill="#333333" d="M112.739,393.355c-0.521,0.818-1.045,1.641-1.59,2.495c-1.133-0.519-1.37-1.308-0.803-2.21
			C110.873,392.802,111.638,392.393,112.739,393.355z"/>
		<path fill="#333333" d="M162.804,80.864c1.669,1.752,1.661,1.798-0.529,3.005C161.548,82.685,161.786,81.739,162.804,80.864z"/>
		<path fill="#333333" d="M178.695,353.191c-1.469,0.829-2.104,1.188-3.049,1.722c-0.143-1-0.24-1.677-0.399-2.791
			C176.364,352.468,177.119,352.702,178.695,353.191z"/>
	</g>
</g>
</svg>
