<?xml version="1.0" encoding="utf-8"?>
<!-- Generator: Adobe Illustrator 17.1.0, SVG Export Plug-In . SVG Version: 6.00 Build 0)  -->
<!DOCTYPE svg PUBLIC "-//W3C//DTD SVG 1.1//EN" "http://www.w3.org/Graphics/SVG/1.1/DTD/svg11.dtd">
<svg version="1.1" id="Calque_1" xmlns="http://www.w3.org/2000/svg" xmlns:xlink="http://www.w3.org/1999/xlink" x="0px" y="0px"
	 viewBox="0 0 314.869 421.47" enable-background="new 0 0 314.869 421.47" xml:space="preserve">
<g>
	<g>
		<path fill="#333333" d="M148.73,181.88c-2.75,8.43-5.069,17.041-8.463,25.203c-1.364,3.28-1.973,6.649-3.127,9.911
			c-1.775,5.017-3.333,10.111-4.96,15.18c-0.211,0.658-0.29,1.359-0.555,2.65c1.408-0.527,2.347-0.879,3.492-1.308
			c0,0.458,0,0.866,0,1.571c3.658-1.723,7.432-2.78,9.419-6.852c1.167-2.391,3.105-4.427,4.834-6.508
			c0.506-0.609,1.483-0.827,2.196-1.199c1.801-3.423,3.594-6.936,5.483-10.397c2.437-4.465,4.623-9.033,6.684-13.691
			c1.646-3.72,4.128-7.078,6.323-10.544c1.292-2.039,2.723-3.992,4.137-5.952c1.09-1.511,2.069-3.166,3.411-4.422
			c5.692-5.325,10.046-11.367,11.868-19.139c0.817-3.483,2.58-6.734,3.578-10.188c1.442-4.994,2.559-10.082,3.855-15.12
			c0.58-2.255,1.285-4.478,1.883-6.728c1.345-5.057,2.663-10.122,3.966-15.19c0.055-0.215-0.149-0.498-0.353-1.112
			c-0.655,0.326-1.469,0.457-1.758,0.918c-1.984,3.171-3.876,6.4-5.758,9.634c-0.918,1.578-1.751,3.206-2.623,4.812
			c-1.252-1.418-2.924-2.647-3.665-4.295c-1.416-3.15-2.301-6.538-3.406-9.827c0.281,0.003,0.562,0.007,0.843,0.01
			c1.262-1.171,2.467-2.412,3.798-3.5c3.977-3.251,8.397-5.655,13.495-6.623c4.229-0.803,5.832-2.44,6.798-6.66
			c0.521-2.275,1.23-4.535,2.145-6.677c0.287-0.672,1.5-0.981,2.326-1.381c1.3-0.629,2.738-1.032,3.923-1.823
			c1.834-1.223,3.504-2.692,5.243-4.056c0.17,0.146,0.341,0.292,0.511,0.438c-0.378,0.716-0.756,1.432-1.182,2.239
			c1.544,0.885,4.621-2.164,4.863,2.011c1.657-0.361,3.181-0.692,5.176-1.127c-0.721,1.571-1.217,2.651-1.513,3.297
			c5.769,4.482,10.346,9.311,11.626,16.541c0.425,2.399,0.731,4.835,1.37,7.178c0.81,2.972,0.23,5.699-0.705,8.502
			c-0.28,0.839,0.266,1.92,0.179,2.867c-0.069,0.75-0.41,1.542-0.836,2.178c-0.939,1.402-2.007,2.717-2.665,4.45
			c0.613-0.383,1.226-0.767,2.296-1.435c0.671,2.057,1.91,3.982,1.762,5.794c-0.306,3.737-1.289,7.428-2.119,11.109
			c-0.43,1.905,0.519,2.218,2.032,2.194c1.496-0.024,2.994-0.005,4.522-0.005c-0.669,5.903-1.407,6.596-6.909,8.009
			c-2.453,0.63-4.78,1.755-7.164,2.655c0.079,0.453,0.157,0.906,0.236,1.359c0.887,0,1.847,0.22,2.648-0.043
			c2.061-0.678,4.026-1.649,6.086-2.331c0.656-0.217,1.661-0.124,2.188,0.262c0.378,0.277,0.313,1.279,0.292,1.953
			c-0.036,1.134-0.112,2.281-0.327,3.392c-0.163,0.84-0.329,1.93-0.907,2.397c-3.295,2.66-6.686,5.205-10.117,7.688
			c-0.628,0.455-1.593,0.444-2.973,0.792c2.285-2.466,3.779-4.912,5.956-6.218c2.764-1.658,2.216-4.533,3.743-6.653
			c-4.636,0.249-7.508,3.124-9.491,6.815c-1.541,2.868-1.487,6.572-4.54,8.757c-0.84,0.601-0.866,2.34-1.266,3.557
			c1.18-0.022,2.489,0.275,3.514-0.135c1.999-0.8,3.801-2.081,5.768-2.981c0.667-0.305,1.585-0.062,2.389-0.07
			c-0.246,0.813-0.248,1.912-0.792,2.378c-0.997,0.854-2.257,1.503-3.511,1.933c-1.879,0.645-3.829,1.126-5.784,1.495
			c-2.256,0.426-3.572,1.431-3.445,3.947c0.082,1.619,0.167,3.154-1.005,4.732c-1.101,1.483,0.554,3.321,2.756,2.938
			c1.194-0.208,2.442-1.107,3.244-2.053c0.312-0.367-0.535-1.719-0.942-2.873c0.537-0.362,1.381-0.933,2.529-1.708
			c-1.294-0.477-2.253-0.829-3.278-1.207c1.892-1.926,7.082-2.372,8.341-0.499c0.614,0.913,0.538,2.968-0.104,3.903
			c-1.297,1.891-1.226,3.484-0.543,5.505c0.355,1.05-0.152,2.397-0.293,3.607c-0.081,0.696-0.374,1.409-0.284,2.076
			c0.373,2.752,0.413,2.747-2.411,3.774c2.779,3.849,5.489,7.604,8.219,11.384c-0.225,0.058-0.549,0.258-0.714,0.168
			c-2.418-1.325-3.898-1.055-4.557,2.016c-0.416,1.941-1.962,1.214-2.472,0.077c-0.598-1.333-0.483-2.969-0.835-4.435
			c-0.248-1.033-0.76-2.002-1.154-3c-0.403,0.083-0.806,0.167-1.209,0.25c0,2.899,0,5.799,0,8.698
			c-0.389,0.015-0.779,0.03-1.168,0.045c-0.241-1.964-0.469-3.93-0.726-5.893c-0.24-1.832-0.511-3.66-0.768-5.489
			c-0.454,0.022-0.908,0.043-1.362,0.065c-0.146,1.615-0.344,3.229-0.416,4.847c-0.036,0.804,0.317,1.641,0.205,2.421
			c-0.097,0.677-0.601,1.295-0.926,1.938c-0.397-0.618-0.989-1.191-1.144-1.864c-0.218-0.953-0.079-1.984-0.155-2.976
			c-0.128-1.671-0.475-2.778-2.736-2.796c-1.431-0.012-2.852-1.393-4.651-2.362c1.253,3.524-0.835,6.023-3.363,9.277
			c-0.345-1.93-0.848-3.313-0.779-4.668c0.12-2.381-0.757-3.215-3.138-3.226c-2.046-0.01-4.113-0.485-6.124-0.953
			c-1.305-0.304-1.806-1.317-0.888-2.474c1.801-2.269,2.78-5.506,7.027-5.391c-2.059-2.912-3.779-5.344-5.558-7.86
			c6.238,0.536,8.648-5.986,13.902-8.276c-1.13-0.34-2.261-0.673-3.388-1.022c-1.442-0.445-1.845-1.198-1.041-2.644
			c0.539-0.969,0.602-2.194,1.096-3.198c0.405-0.823,1.01-1.652,1.74-2.189c1.893-1.391,3.949-2.56,5.844-3.948
			c0.736-0.539,1.214-1.43,2.242-2.692c-1.906-0.219-3.159-0.364-4.658-0.536c2.152-3.971,6.23-5.438,10.129-7.878
			c-1.288-0.585-1.759-0.797-2.228-1.012c-2.227-1.019-2.35-1.952-0.479-3.446c1.694-1.352,3.397-2.695,5.035-4.111
			c0.445-0.385,0.725-0.996,0.993-1.546c0.636-1.309,1.22-2.644,2.059-4.482c-1.646-4.765,3.851-7.697,4.738-12.557
			c-0.957,0.548-1.741,0.998-3.124,1.79c0.283-1.662,0.421-2.759,0.664-3.833c0.48-2.115,1.085-4.204,1.515-6.328
			c0.473-2.34-0.661-3.945-3.022-5.498c-1.448,2.955-3.001,5.668-4.134,8.547c-1.549,3.933-3.49,7.504-6.594,10.469
			c-1.269,1.213-1.884,3.086-3.072,4.414c-2.638,2.95-5.439,5.755-8.195,8.597c-1.188,1.225-2.39,2.229-0.481,4.018
			c0.579,0.543,0.518,2.444,0.031,3.327c-1.563,2.831-3.473,5.469-5.23,8.193c-2.784,4.318-5.748,8.536-8.249,13.013
			c-1.321,2.365-2.131,5.134-2.597,7.82c-0.365,2.101-1.358,3.284-2.88,4.595c-1.7,1.464-3.069,3.386-4.313,5.285
			c-1.321,2.017-2.09,4.417-3.514,6.343c-4.889,6.614-9.904,13.139-14.99,19.604c-1.952,2.481-4.27,4.671-6.342,7.063
			c-3.13,3.613-6.956,6.594-8.338,11.664c-0.583,2.137-2.944,3.97-4.839,5.523c-2.366,1.939-5.175,3.332-7.604,5.205
			c-0.862,0.665-1.397,1.99-1.681,3.114c-0.418,1.654-0.409,3.41-0.709,5.101c-0.241,1.357-0.916,2.113-2.495,1.446
			c-1.036-0.438-2.179-0.621-3.274-0.919c0.501,1.138,0.979,2.287,1.517,3.406c0.148,0.309,0.475,0.532,1.25,1.363
			c-1.899,0-3.268,0-4.636,0c-0.201-0.54-0.308-1.484-0.619-1.557c-3.68-0.862-3.729-3.726-3.78-6.605
			c-0.025-1.388-0.004-2.776-0.004-4.165c-0.572,2.488-0.587,4.916-0.926,7.299c-0.113,0.794-1.029,2.043-1.629,2.073
			c-1.01,0.05-2.491-0.426-2.989-1.192c-0.665-1.023-0.866-2.559-0.751-3.829c0.169-1.874,0.94-3.69,1.174-5.565
			c0.211-1.695,0.045-3.437,0.045-5.158c-1.145,1.748-1.631,3.557-2.332,5.278c-1.237,3.039-2.605,6.025-3.918,9.033
			c-0.213-0.292-0.449-0.571-0.637-0.879c-3.151-5.19-3.203-5.479,0.808-9.902c3.353-3.698,6.007-7.981,10.576-10.685
			c1.625-0.962,1.803-4.368,2.642-6.659c-0.295-0.152-0.591-0.304-0.886-0.457c-0.693,1.168-1.386,2.336-2.079,3.503
			c-0.188-0.077-0.376-0.154-0.564-0.231c3.786-10.958,7.572-21.916,11.358-32.874c-0.226,1.852-0.452,3.705-0.678,5.557
			c0.233,0.041,0.466,0.081,0.699,0.122c0.794-2.6,1.588-5.2,2.383-7.8c-0.27-0.1-0.539-0.201-0.809-0.301
			c-0.359,0.468-0.718,0.937-1.078,1.405c1.82-5.643,3.64-11.286,5.46-16.928c-0.534,2.433-1.068,4.866-1.602,7.299
			c0.146,0.041,0.292,0.083,0.439,0.124C145.739,187.593,147.235,184.737,148.73,181.88z M229.007,203.964
			c-0.521-2.6-2.397-5.159,0.039-7.704c0.236-0.247-0.422-1.665-0.963-2.276c-1.315-1.486-4.931-2.099-5.288-0.933
			c-0.354,1.156,0.385,2.646,0.644,3.99C222.575,200.539,223.841,202.365,229.007,203.964z M247.236,146.672
			c-2.782-0.619-4.946-0.482-7.082,1.238C243.264,149.585,244.987,149.323,247.236,146.672z M134.061,255.811
			c0.193,0.107,0.386,0.215,0.579,0.322c0.773-0.916,1.545-1.833,2.318-2.749c-0.348-0.241-0.696-0.482-1.044-0.723
			C135.296,253.711,134.679,254.761,134.061,255.811z"/>
		<path fill="#333333" d="M197.413,295.004c4.234-0.91,7.894-1.817,11.605-2.399c0.786-0.123,1.785,0.899,2.628,1.477
			c0.256,0.176,0.228,0.751,0.481,0.946c1.526,1.169,3.096,2.281,4.651,3.412c0.687-1.552,1.383-3.1,2.051-4.66
			c0.103-0.241,0.081-0.535,0.121-0.804c0.654-4.371,0.654-4.371-3.578-4.838c0.137-1.608,3.578-2.839,0.544-4.783
			c2.101-1.272,3.991-2.797,6.15-3.586c1.405-0.514,3.847-0.618,4.718,0.23c5.518,5.372,12.242,6.672,19.356,5.723
			c8.383-1.118,7.814,1.686,6.63,7.298c-0.934,4.427-0.196,8.327,1.35,12.409c4.337,11.449,6.842,23.395,9.568,35.303
			c1.542,6.734,4.41,13.164,6.69,19.727c0.118,0.339,0.417,0.637,0.463,0.977c0.424,3.159,0.752,6.357,5.103,6.417
			c0.256,0.003,0.556,0.449,0.75,0.745c2.918,4.472,5.951,8.876,8.684,13.459c1.822,3.055,1.296,3.944-2.093,5.101
			c-1.514,0.517-3.01,1.089-4.406,2.047c2.623-0.189,5.244-0.412,7.869-0.557c2.151-0.118,3.463,0.809,4.262,2.952
			c1.453,3.894,3.324,7.631,4.815,11.512c1.651,4.298,1.033,8.327-1.941,11.957c-1.03,1.257-1.877,2.663-2.808,4.002
			c0.286,0.224,0.572,0.448,0.858,0.672c1.283-1.412,2.519-2.871,3.869-4.215c0.584-0.582,1.403-0.928,2.115-1.382
			c0.407,0.666,0.881,1.301,1.2,2.007c0.295,0.654,0.399,1.391,0.629,2.077c0.649,1.932,0.02,2.868-2.062,3.08
			c-9.729,0.99-18.014-2.696-25.326-8.476c-4.096-3.237-5.242-8.571-6.327-13.51c-0.236-1.076,1.071-2.785,2.085-3.774
			c1.528-1.491,3.423-2.604,4.919-4.375c-2.156,0.953-4.353,1.824-6.456,2.883c-2.008,1.01-3.302,0.6-3.905-1.579
			c-1.279-4.614-2.83-9.185-3.642-13.882c-0.385-2.228,0.674-4.705,1.188-7.711c-2.74,1.749-5.35,3.415-8.325,5.314
			c-0.444-1.256-0.884-2.21-1.115-3.212c-0.751-3.25-1.779-6.488-2.051-9.784c-0.473-5.731-3.798-9.957-6.489-14.664
			c-3.382-5.917-6.141-12.219-8.786-18.515c-1.193-2.84-1.243-6.141-2.215-9.1c-0.775-2.36-2.225-4.49-3.259-6.775
			c-1.002-2.215-1.921-4.472-2.753-6.756c-0.71-1.949-2.218-2.634-3.442-1.161c-2.305,2.775-4.691,5.745-5.935,9.052
			c-0.917,2.437-0.447,5.608,0.065,8.328c1.289,6.843,2.981,13.608,4.454,20.417c1.318,6.087,2.514,12.201,3.851,18.284
			c0.926,4.211,1.613,8.538,3.145,12.53c1.019,2.653,2.055,5.333,4.648,7.579c2.583,2.237,5.013,4.105,8.197,5.175
			c1.361,0.457,1.325,1.474,0.272,2.233c-1.238,0.893-2.556,1.747-3.96,2.325c-6.223,2.561-11.259-0.585-16.127-3.761
			c-1.004-0.655-1.638-2.492-1.726-3.831c-0.396-5.992-1.985-11.38-5.67-16.322c-1.921-2.576-3.223-5.932-3.799-9.118
			c-0.915-5.062-2.26-9.855-4.635-14.42c-1.217-2.339-1.808-4.749-4.172-6.663c-2.903-2.349-3.877-6.231-3.882-10.051
			c-0.008-6.123-0.1-12.263,0.321-18.363c0.173-2.504,1.23-5.11,4.193-6.168c1.736-0.62,1.813-1.628,0.48-3.05
			C200.066,298.865,198.931,297.039,197.413,295.004z"/>
		<path fill="#333333" d="M303.841,255.051c-0.428-4.43-3.73-5.881-6.931-7.954c-3.941-2.551-7.903-4.654-12.419-5.828
			c-0.556-0.144-1.097-0.853-1.385-1.431c-0.962-1.932-2.156-2.192-3.868-0.887c-0.853,0.65-1.897,1.041-2.81,1.619
			c-3.943,2.497-7.859,5.035-11.809,7.52c-0.899,0.566-1.851,1.227-2.857,1.406c-2.09,0.372-3.922,0.802-5.415,2.643
			c-0.609,0.751-2.529,0.911-3.697,0.648c-3.788-0.852-7.502-2.036-11.251-3.067c-0.958-0.264-1.932-0.517-2.915-0.636
			c-4.687-0.565-5.324,0.124-4.161,4.393c-2.957-0.295-3.384-0.916-3.639-6.22c-1.038,1.203-2.029,1.839-2.092,2.556
			c-0.079,0.891,0.378,2.081,1.02,2.727c0.998,1.004,2.352,1.65,3.54,2.471c0.118,0.082,0.126,0.322,0.457,1.252
			c-1.804,0.19-3.539,0.791-5.055,0.442c-2.755-0.635-4.62-2.403-3.884-6.431c-2.61,2.145-4.583,3.767-6.659,5.473
			c1.1,0.857,1.982,1.544,2.802,2.182c-0.172,0.434-0.205,0.719-0.306,0.745c-3.389,0.885-6.326,2.534-9.184,4.597
			c-3.887,2.807-7.919,0.551-11.848-0.436c-3.02-0.758-6.036-1.535-9.205-1.853c3.878,1.399,8.49,1.285,10.965,6.354
			c-4.745-0.557-8.032,4.002-12.868,2.091c-0.34,0.838-0.681,1.68-0.951,2.347c-1.473-1.577-2.652-3.899-4.317-4.325
			c-1.667-0.427-3.819,1.04-6.328,1.279c0.62-1.127,1.24-2.253,1.86-3.38c-0.309-0.309-0.617-0.618-0.926-0.927
			c-1.104,1.472-2.208,2.944-3.559,4.745c-1.168-1.331-2.381-2.713-3.659-4.17c-3.214,2.035-6.692,0.91-9.961,0.418
			c-1.471-0.221-3.032-2.007-3.918-3.468c-1.511-2.489-2.97-2.93-5.116-0.939c-0.156,0.144-0.498,0.087-0.942,0.151
			c-0.072-1.633-0.141-3.186-0.229-5.163c3.702-2.708,6.937-3.254,10.635,0.125c0.71,0.649,1.665,1.189,2.594,1.409
			c3.191,0.754,6.427,1.314,9.633,2.008c2.011,0.435,4.065,0.798,5.98,1.514c3.488,1.304,3.451,1.403,7.947,0.156
			c-2.315-0.358-4.042-0.54-5.731-0.904c-3.222-0.695-4.624-5.034-2.419-7.526c0.274-0.31,1.092-0.327,1.579-0.193
			c0.332,0.092,0.558,0.665,0.778,1.054c0.866,1.524,1.46,4.116,2.611,4.389c3.163,0.75,6.557,0.597,9.86,0.613
			c0.45,0.002,1.22-1.023,1.305-1.646c0.383-2.805-0.232-5.401-2.173-7.576c-1.063-1.191-2.218-2.299-0.227-3.78
			c0.369-0.275,0.312-1.502,0.063-2.137c-0.349-0.889-1.062-1.635-1.765-2.654c0.986-0.327,1.782-0.592,2.987-0.992
			c-0.765-1.895-1.48-3.666-2.254-5.583c1.029-0.434,1.91-0.805,2.992-1.262c-0.291-0.513-0.613-0.917-0.763-1.378
			c-0.312-0.958-1.01-2.162-0.687-2.874c0.591-1.303,0.667-2.912,3.34-2.953c2.9-0.045,6.217-0.2,8.76-2.994
			c4.316-4.74,10.022-3.578,15.455-2.425c3.82,0.811,7.67,1.672,11.317,3.022c1.799,0.666,3.227,2.431,4.674,3.851
			c0.246,0.241-0.042,1.516-0.459,1.865c-2.773,2.324-3.184,5.299-2.661,8.605c0.382,2.411,0.711,4.83,1.138,7.233
			c0.075,0.424,0.515,0.784,1.211,1.014c-0.057-0.464-0.017-0.966-0.186-1.385c-1.283-3.191-0.827-5.986,1.684-8.436
			c0.695-0.679,1.349-1.5,1.728-2.382c0.85-1.977,1.877-2.304,3.379-0.685c2.149,2.316,4.427,4.53,6.406,6.983
			c1.551,1.923,2.838,4.132,0.916,7.115c3.708-0.653,7.416-1.306,11.124-1.96c-0.037-0.252-0.074-0.504-0.111-0.755
			c-0.902-0.118-1.805-0.236-2.707-0.353c0.267-0.88,0.535-1.76,0.811-2.67c-0.654-0.179-1.399-0.383-2.629-0.719
			c0.82-1.324,1.481-2.391,2.602-4.2c1.237,2.352,2.256,4.001,2.99,5.768c0.783,1.883,1.932,2.236,3.628,1.354
			c2.082-1.084,4.134-2.227,6.234-3.275c3.138-1.566,6.326-3.033,9.449-4.629c0.772-0.395,1.372-1.125,2.281-1.897
			c0.651,0.731,1.729,1.495,2.221,3.473c0.428,1.722,2.938,3.579,4.883,4.138c4.247,1.219,7.968,2.96,11.205,6.021
			C304.253,249.655,305.006,251.943,303.841,255.051z"/>
		<path fill="#333333" d="M186.928,35.536c-0.469-0.641-1.222-1.234-1.341-1.935c-0.179-1.052,0.087-2.18,0.164-3.275
			c0.985,0.178,2.089,0.128,2.937,0.57c4.786,2.495,9.501,5.128,14.267,7.662c0.761,0.405,1.663,0.545,2.76,0.356
			c-1.278-0.982-2.618-1.895-3.812-2.97c-0.866-0.779-1.726-1.674-2.263-2.689c-1.566-2.958-2.969-6.002-4.548-9.243
			c9.843,5.402,17.6,12.823,22.214,24.079c0.294-2.452,0.516-4.296,0.793-6.606c2.597,1.142,4.725,2.341,6.254,4.616
			c1.022,1.52,2.37,2.82,3.573,4.219c0.963-1.56,2.038-3.063,2.866-4.692c1.51-2.972,2.877-3.854,5.183-3.065
			c2.21,0.757,3.379,2.752,2.551,5.52c-0.707,2.364-1.797,4.747-3.262,6.717c-1.88,2.528-3.393,5.109-4.792,7.969
			c-4.028,8.233-9.585,15.34-18.204,19.407c-1.474,0.696-2.949,1.4-4.463,2.002c-3.433,1.365-6.192,0.339-8.126-2.816
			c-0.835-1.363-1.845-2.623-2.833-3.885c-1.124-1.436-0.806-2.387,0.951-2.655c1.469-0.224,2.977-0.19,4.468-0.27
			c0.001-0.26,0.001-0.521,0.002-0.781c-1.76,0-3.558,0.223-5.267-0.071c-1.358-0.234-2.941-0.784-3.845-1.741
			c-3.331-3.527-4.624-8.059-5.584-12.692c-0.309-1.492-0.075-2.518,1.544-3.253c2.138-0.971,2.313-2.643,0.546-4.248
			c-0.99-0.899-2.15-1.87-3.39-2.181c-2.666-0.667-3.243-2.597-3.404-4.805c-0.191-2.617-0.229-5.249-0.213-7.874
			c0.005-0.918,0.366-1.833,0.564-2.75c0.739,0.391,1.479,0.782,2.218,1.173c0.377,0.2,0.754,0.4,1.13,0.6
			C186.685,35.798,186.807,35.667,186.928,35.536z M211.027,49.47c-0.06-0.346-0.121-0.692-0.181-1.039
			c-3.183,0.146-6.402,0.065-9.528,0.567c-1.047,0.168-1.856,1.823-2.774,2.798c1.107,0.765,2.13,1.989,3.337,2.211
			C205.985,54.762,208.494,52.001,211.027,49.47z"/>
		<path fill="#333333" d="M166.56,391.343c2.749-2.576,1.742-4.693,1.016-7.242c-0.812-2.851-0.239-6.087-0.337-9.154
			c-0.057-1.796-0.07-3.622-0.412-5.375c-0.648-3.318-0.324-3.692,3.013-2.844c0.249,0.063,0.527,0.008,0.941,0.008
			c1.034-2.122-0.65-3.489-1.4-5.09c-0.758-1.617-1.627-3.197-2.19-4.88c-0.187-0.558,0.425-1.382,0.671-2.085
			c0.626,0.262,1.417,0.368,1.84,0.819c0.705,0.753,1.173,1.727,2.375,2.449c-0.567-3.986,1.457-5.853,4.519-7.295
			c-2.751,0.389-3.621-0.863-3.465-3.085c0.32-4.586,0.67-9.169,1.026-13.752c0.033-0.426,0.192-0.842,0.293-1.263
			c0.272,0.001,0.545,0.003,0.817,0.004c0,4.573,0,9.146,0,14.241c2.61-1.562,3.117-3.184,3.211-5.327
			c0.374-8.574,0.956-17.138,1.434-25.707c0.106-1.895-0.017-3.807,0.168-5.692c0.301-3.063,6.049-5.7,8.547-3.934
			c0.432,0.306,0.704,1.039,0.785,1.612c0.953,6.802,2.153,13.588,2.653,20.426c0.278,3.806-0.879,7.696-0.943,11.555
			c-0.085,5.118,0.258,10.244,0.431,15.366c0.128,3.784,0.347,7.567,0.406,11.352c0.078,5.052,0.034,10.106,0.053,15.159
			c0.003,0.813,0.126,1.63,0.08,2.438c-0.317,5.566-1.355,6.865-6.899,7.312c-5.219,0.421-10.474,0.408-15.714,0.539
			C168.801,391.917,168.117,391.651,166.56,391.343z"/>
		<path fill="#333333" d="M193.222,404.323c-0.333,4.475-0.781,8.946-0.955,13.427c-0.105,2.711-1.375,3.415-3.898,3.659
			c-4.916,0.477-8.769-0.801-11.781-4.923c-2.922-3.998-6.548-7.506-9.259-11.628c-3.694-5.616-2.401-8.454,4.159-9.014
			c4.906-0.418,9.949-0.198,14.84,0.438C192.093,397.032,192.721,398.21,193.222,404.323z"/>
		<path fill="#333333" d="M235.449,399.07c0.513,5.493-3.48,8.704-4.29,12.931c0.229,0.152,0.458,0.303,0.687,0.455
			c0.776-1.063,1.618-2.085,2.313-3.199c1.243-1.99,2.367-4.054,3.599-6.051c0.957-1.551,1.924-1.565,3.159-0.117
			c3.958,4.641,5.424,9.961,4.291,15.892c-0.169,0.886-1.635,2.158-2.52,2.174c-8.584,0.155-17.174,0.14-25.76,0.033
			c-2.635-0.033-2.69-2.27-2.825-4.175c-0.11-1.543,0.352-2.507,2.27-2.572c1.73-0.058,2.284-2.007,1.286-4.021
			c-0.6-1.211-1.413-2.323-1.943-3.559c-0.603-1.407-0.294-2.439,1.536-1.965c3.436,0.89,6.364-0.471,9.331-1.872
			C229.326,401.73,232.123,400.547,235.449,399.07z"/>
		<path fill="#333333" d="M272.69,230.949c0.43,2.368,1.873,2.645,3.779,1.757c1.117-0.52,2.169-1.181,3.422-1.456
			c-3.148,1.476-5.044,5.115-9.202,4.937c-0.93-0.04-1.908,0.9-2.853,1.41c-2.162,1.168-3.297,0.675-4.084-1.646
			c1.536-0.513,3.256-0.739,4.538-1.611c1.337-0.909,1.756-2.279-0.318-3.307c-1.518-0.753-2.791-2.009-4.321-2.728
			c-1.393-0.655-3.02-0.791-4.477-1.337c-1.158-0.434-2.213-1.14-3.731-1.948c-0.226,0.242-0.847,1.117-1.669,1.715
			c-0.623,0.453-1.502,0.553-2.268,0.809c0.064-0.971-0.234-2.243,0.27-2.85c0.989-1.193,2.423-2.017,3.874-3.15
			c2.807,1.739,5.79,3.589,8.774,5.434c1.624,1.004,3.035,1.172,3.785-0.701c-0.708-1.192-1.303-2.193-2.281-3.839
			c-1.071-0.29-2.967-0.805-4.863-1.319c-0.048-0.267-0.097-0.535-0.145-0.802c3.942-1.986,7.885-3.972,12.186-6.14
			c-5.779-0.094-9.47,5.265-15.103,4.756c2.915-3.829,8.218-4.652,10.941-8.55c-0.188-0.295-0.375-0.59-0.563-0.886
			c-0.967,0.578-1.972,1.103-2.896,1.744c-3.552,2.465-6.96,5.165-10.651,7.397c-3.291,1.989-8.025,0.368-10.05-3.596
			c1.51,0.736,3.019,1.473,4.948,2.414c-0.277-1.215-0.473-2.074-0.729-3.195c0.534,0.206,0.949,0.235,1.131,0.456
			c2.477,3.009,4.516,1.765,6.925-0.32c3.054-2.645,6.464-4.876,9.705-7.308c0.396-0.297,0.693-0.727,1.33-1.412
			c-0.895,0-1.453-0.172-1.798,0.027c-3.358,1.934-6.659,3.969-10.029,5.881c-0.783,0.444-1.767,0.532-2.659,0.784
			c0.028-0.839,0.026-1.681,0.097-2.517c0.037-0.436,0.201-0.861,0.159-0.692c1.962-0.732,3.529-1.316,5.527-2.06
			c1.627,1.72,2.602-0.102,3.715-1.618c2.034-2.771,3.723-2.721,5.677,0.028c0.969,1.363,2.109,2.603,2.739,4.384
			c0.334,0.076,0.67,0.14,1,0.229c2.074,0.559,4.553,0.85,5.013,3.403c0.481,2.67-2.337,2.796-3.779,3.962
			c-1.164,0.941-2.373,1.827-3.563,2.737c0.166,0.216,0.332,0.431,0.498,0.647c2.305-1.323,4.608-2.648,6.916-3.965
			c0.547-0.312,1.085-0.735,1.676-0.848c0.564-0.107,1.192,0.125,1.792,0.208c-0.116,0.646,0,1.566-0.387,1.892
			c-1.945,1.641-1.324,3.078,0.119,4.556l-0.07,0.043c-1.327,0.326-2.8,0.392-3.947,1.037c-1.869,1.05-3.565,2.428-5.253,3.771
			c-0.757,0.602-1.316,1.452-1.965,2.189c1.006,0.359,2.012,0.717,3.018,1.076L272.69,230.949z"/>
		<path fill="#333333" d="M114.912,229.731c-2.992,3.15-4.116-0.96-6.651-0.769c1.236,1.055,2.339,2.357,3.738,3.11
			c2.514,1.354,4.886,2.772,6.063,5.5c0.313,0.724,0.608,1.971,0.242,2.384c-1.512,1.706-3.281,3.185-5.283,4.687
			c0.403-2.846-1.221-3.326-3.213-4.25c-2.702-1.254-6.004-2.295-6.772-6.02c-0.127-0.615-1.113-1.034-1.653-1.59
			c-0.46-0.473-0.85-1.015-1.205-1.446c-1.032-0.371-2.141-0.77-3.25-1.169c0.406-0.477,0.813-0.953,1.583-1.857
			c-2.818-1.734-5.781-3.558-9.116-5.61c0.986-0.598,2.185-1.326,3.087-1.873c-1.118-2.208-2.211-4.599-3.515-6.867
			c-0.911-1.583-2.139-2.981-3.166-4.502c-0.326-0.483-0.461-1.096-0.803-1.945c6.175,1.612,11.055,4.107,13.661,9.644
			c0.612,1.3,1.789,2.78-0.428,4.115c2.125,1.075,4.03,2.039,5.94,3.005c-1.657-2.801-3.305-5.497-4.864-8.244
			c-1.673-2.947-1.512-6.768,0.869-8.953c0.134,1.886,0.322,3.293,0.313,4.7c-0.013,2.057,0.137,3.507,2.133,5.202
			C107.059,220.751,110.787,225.354,114.912,229.731z"/>
		<path fill="#333333" d="M147.021,178.18c0.385-1.327,0.86-2.636,1.137-3.986c0.738-3.601,3.277-6.821,2.069-10.852
			c-0.638-2.128,3.727-7.433,6.107-7.712c1.243-0.146,2.493-0.445,3.726-0.385c0.898,0.044,2.109,0.326,2.544,0.948
			c0.304,0.434-0.399,1.655-0.785,2.461c-0.283,0.591-0.78,1.08-1.182,1.614c0.09,0.258,0.179,0.517,0.269,0.775
			c1.622-0.135,3.257-0.454,4.863-0.345c1.198,0.081,2.801,0.37,3.434,1.182c0.952,1.223,2.792,2.748,0.708,4.711
			c-0.237,0.223,0.199,1.799,0.665,2.018c1.78,0.835,3.7,1.371,5.743,2.079c-0.553,1.485-1.395,2.474-3.59,1.095
			c-1.009-0.633-2.726-1.26-3.554-0.82c-1.603,0.852-2.859,2.263-2.576,4.627c0.181,1.512-0.507,3.156-0.937,4.705
			c-0.376,1.356-1.284,2.518-2.718,1.568c-0.576-0.382-0.454-1.911-0.518-2.926c-0.024-0.387,0.322-0.797,0.719-1.691
			c-0.958,0.513-1.448,0.953-1.983,1.016c-0.649,0.077-1.568,0.058-1.94-0.33c-0.368-0.384-0.476-1.429-0.212-1.923
			c0.577-1.077,1.361-2.095,2.247-2.943c1.521-1.454,3.185-2.759,4.789-4.127c-0.201-0.271-0.402-0.542-0.603-0.813
			c-0.566,0.379-1.129,0.762-1.698,1.137c-2.307,1.521-3.764,4.533-7.372,3.867c-0.556-0.103-1.463,1.693-2.394,2.842
			c0.101-1.39,0.191-2.635,0.281-3.879c-0.285-0.122-0.569-0.245-0.854-0.367c-1.403,2.882-2.807,5.763-4.21,8.644
			c0-0.846,0-1.692,0-2.779C148.205,177.859,147.613,178.019,147.021,178.18z M162.358,166.286c-0.56-0.953-1.03-1.754-1.467-2.498
			c-1.049,1.855-1.873,3.312-2.971,5.252C159.775,167.889,161.118,167.056,162.358,166.286z"/>
		<path fill="#333333" d="M247.199,257.379c1.865,0.74,4.792,1.002,5.382,2.315c1.407,3.13,3.964,6.106,2.742,10.139
			c-1.567,5.174-2.778,6.522-6.838,6.51c-5.769-0.018-9.083-2.165-10.401-6.739C236.266,263.292,240.805,257.313,247.199,257.379z"
			/>
		<path fill="#333333" d="M179.84,132.402c-2.101-1.098-4.203-2.196-6.304-3.294c-0.267,0.199-0.534,0.398-0.8,0.596
			c1.19,2.134,2.38,4.268,3.759,6.741c-2.854-0.294-5.448-0.193-7.746-0.971c-0.975-0.33-1.989-2.584-1.835-3.82
			c0.431-3.464,1.25-6.923,2.354-10.238c0.468-1.406,1.854-2.687,3.124-3.609c3.161-2.294,6.495-4.35,10.089-6.718
			c1.789,3.377,3.801,7.176,5.814,10.974c-0.179,0.174-0.358,0.347-0.537,0.521c-0.729-0.639-1.509-1.23-2.175-1.928
			c-1.485-1.557-3.032-1.547-4.501-0.123c-1.163,1.128-2.511,2.29-3.096,3.716c-0.442,1.079-0.041,2.685,0.409,3.898
			c0.458,1.234,1.435,2.275,2.185,3.401C180.333,131.832,180.086,132.117,179.84,132.402z"/>
		<path fill="#333333" d="M88.794,197.784c-0.399,1.332-0.798,2.664-1.196,3.997c-0.236,0.096-0.473,0.193-0.709,0.289
			c-6.362-11.663-10.467-24.78-21.664-33.325c0.24-0.209,0.479-0.418,0.719-0.627c0.901,0.277,1.803,0.553,2.943,0.903
			c0.163-0.864,0.318-1.681,0.472-2.498c0.17,0.015,0.485,0.009,0.49,0.047c0.527,3.687,3.907,5.083,5.93,7.572
			c2.778,3.419,5.35,7.082,7.475,10.935c2.217,4.02,3.8,8.389,5.659,12.606L88.794,197.784z"/>
		<path fill="#333333" d="M164.814,406.557c4.268,4.605,8.537,9.209,13.331,14.382c-1.929,0.174-3.125,0.364-4.324,0.375
			c-3.257,0.03-6.515,0.002-9.772-0.038c-1.677-0.021-3.004-0.718-2.67-2.586c0.709-3.971,1.642-7.902,2.483-11.85
			C164.18,406.745,164.497,406.651,164.814,406.557z"/>
		<path fill="#333333" d="M225.606,43.006c-1.41-0.404-2.864-0.695-4.221-1.233c-6.084-2.409-10.116-7.504-14.981-11.518
			c-2.675-2.207-5.525-4.2-8.271-6.322c-0.317-0.245-0.727-0.77-0.649-1.035c0.131-0.447,0.585-1.068,0.963-1.113
			c0.672-0.081,1.422,0.125,2.081,0.368c2.886,1.063,5.881,1.936,8.589,3.352c2.684,1.403,5.185,3.232,7.557,5.136
			c2.306,1.851,4.347,4.032,6.631,6.189c-2.568,0.122-4.772-1.638-8.568-5.438c-2.428-2.431-5.457-4.262-8.216-6.363
			c-0.224,0.291-0.449,0.581-0.673,0.872c6.591,5.521,13.182,11.043,19.773,16.564C225.616,42.646,225.611,42.826,225.606,43.006z"
			/>
		<path fill="#333333" d="M199.73,273.492c2.306-3.665,6.278-2.512,9.892-3.377c-1.888-2.562-0.579-3.653,1.295-4.592
			c1.936-0.97,3.752-2.211,5.748-3.02c1.875-0.76,3.933-1.372,6.253,0.599c-2.568,1.76-4.427,3.942-7.51,4.714
			c-1.558,0.39-3.259,1.482-4.211,2.765C208.839,273.759,202.745,275.505,199.73,273.492z"/>
		<path fill="#333333" d="M53.888,165.932c0.271,1.596,0.447,2.629,0.646,3.8c-6.337-1.905-13.52-2.475-18.445-8.414
			c-0.928-1.119-2.543-1.653-3.778-2.544c-0.344-0.248-0.463-0.809-0.685-1.227c0.44-0.087,0.891-0.28,1.318-0.237
			c0.908,0.09,1.92,0.654,2.682,0.401c2.302-0.766,3.511,0.516,4.457,2.141c1.623,2.788,4.027,3.789,7.144,4.146
			C49.677,164.278,52.033,165.367,53.888,165.932z"/>
		<path fill="#333333" d="M104.069,309.741c-0.281,0.853-0.561,1.705-0.842,2.558c-0.298-0.05-0.596-0.101-0.894-0.151
			c0.12-2.275,0.129-4.562,0.389-6.821c0.279-2.417,0.838-4.801,1.195-7.211c0.427-2.878,1.289-5.342,4.097-6.928
			c1.168-0.66,1.825-2.225,2.708-3.37c1.089,1.87,1.945,3.819-0.793,5.557c-0.41,0.26-0.318,1.434-0.322,2.185
			c-0.007,1.332,0.562,2.889,0.056,3.956c-1.656,3.496-3.688,6.814-5.575,10.201c0.46-1.889,0.574-3.965,1.468-5.619
			c1.058-1.956,1.366-3.744,0.704-5.784c0.55,0.366,1.099,0.732,2.112,1.407c-0.448-1.605-0.753-2.696-1.058-3.787
			c-0.21,0.026-0.421,0.052-0.631,0.078c-0.145,0.761-0.291,1.522-0.436,2.284c-1.061,3.073-2.204,6.122-3.109,9.24
			C102.965,308.132,103.734,308.999,104.069,309.741z"/>
		<path fill="#333333" d="M182.278,71.911c-2.986-0.778-5.03-2.735-5.755-5.443c-1.926-7.189-4.058-14.48-1.194-21.9
			c0.572-1.482,2.148-2.576,3.679-4.328c-0.146,1.379-0.219,2.35-0.357,3.311c-0.705,4.896-1.604,9.772-2.093,14.689
			c-0.485,4.879,1.512,8.985,4.834,12.492C181.727,71.086,181.984,71.516,182.278,71.911z"/>
		<path fill="#333333" d="M206.503,207.984c1.395,0.236,3.701-0.285,1.71,2.929c-1.436,2.317-1.951,5.193-3.018,7.761
			c-0.22,0.531-1.062,0.803-1.617,1.195c-0.384-0.637-1.015-1.24-1.106-1.917c-0.264-1.953-0.426-3.936-0.417-5.907
			C202.07,208.638,202.819,207.971,206.503,207.984z"/>
		<path fill="#333333" d="M199.221,12.058c5.988-2.629,20.712-0.603,27.057,7.216c-4.573-1.743-8.804-3.859-13.285-4.921
			c-4.466-1.059-9.182-1.061-13.788-1.527C199.211,12.57,199.216,12.314,199.221,12.058z"/>
		<path fill="#333333" d="M256.124,144.243c0,2.407,0,4.813,0,7.22c0.324,0.031,0.647,0.062,0.971,0.093
			c0.544-3.551,1.088-7.101,1.632-10.652c0.399,0.084,0.799,0.168,1.198,0.252c-1.069,5.186,0.594,11.07-4.494,14.987
			c0.524,1.33,0.951,2.417,1.379,3.504c-0.348,0.202-0.695,0.403-1.043,0.605c-0.649-0.906-1.296-1.814-1.949-2.717
			c-0.455-0.63-0.919-1.255-1.705-2.327c1.688-1.539,1.742-3.943,1.503-6.626c-0.132-1.486,0.927-3.077,1.45-4.621
			C255.42,144.054,255.772,144.148,256.124,144.243z"/>
		<path fill="#333333" d="M60.956,178.032c1.334-1.299,2.668-2.597,4.358-4.244c-2.152-2.048-4.691-4.462-7.354-6.996
			c3.906-0.053,13.075,9.042,13.542,13.645c-3.076-2.715-6.072-5.152-9.871-1.148C61.406,178.87,61.181,178.451,60.956,178.032z"/>
		<path fill="#333333" d="M31.535,149.26c-0.973,1.489-1.815,2.391-3.84,1.023c-3.054-2.063-11.965-0.81-14.996,2.043
			c-0.849-0.898-1.698-1.796-2.7-2.856c0.953-0.642,1.568-0.984,2.096-1.431c0.561-0.475,1.039-1.049,1.553-1.58
			c0.415,0.717,0.831,1.434,0.959,1.655c3.018,0.178,5.755,0.446,8.493,0.459c1.407,0.007,2.845-0.334,4.217-0.708
			C29.429,147.291,29.782,147.337,31.535,149.26z"/>
		<path fill="#333333" d="M167.3,141.071c0.636,0.127,1.111,0.112,1.47,0.309c3.052,1.675,6.082,3.389,9.326,5.207
			c-1.617,1.825-3.399,2.474-5.55,1.673C168.932,146.917,167.092,144.462,167.3,141.071z"/>
		<path fill="#333333" d="M178.959,77.57c1.336,0.954,3.219,1.62,3.903,2.917c1.923,3.648,5.039,5.808,8.325,7.897
			c0.434,0.276,0.813,0.637,1.302,1.025c-4.229,1.277-12.203-5.218-14.05-11.23C178.612,77.976,178.785,77.773,178.959,77.57z"/>
		<path fill="#333333" d="M193.167,21.038c-3.012,2.72-5.258,3.354-6.189,1.664c-2.006-3.639-2.937-5.337,1.802-8.43
			c-0.804,1.26-1.608,2.52-2.844,4.458c2.077-0.726,3.393-1.186,5.103-1.783c-0.156,1.436-0.257,2.366-0.361,3.326
			C191.487,20.522,192.244,20.755,193.167,21.038z"/>
		<path fill="#333333" d="M259.724,104.507c-3.978,2.713-6.947,0.259-9.514-1.581c-3.274-2.347-3.753-6.273-3.47-10.373
			C249.015,98.752,251.175,104.973,259.724,104.507z"/>
		<path fill="#333333" d="M203.791,21.101c3.771-1.401,12.883,2.399,14.42,5.929C213.405,25.054,208.598,23.077,203.791,21.101z"/>
		<path fill="#333333" d="M283.08,421.161c-2.662,0-5.354,0.239-7.977-0.083c-1.764-0.217-2.504-1.783-2.328-4.228
			c3.673,1.122,7.095,2.166,10.517,3.211C283.221,420.427,283.15,420.794,283.08,421.161z"/>
		<path fill="#333333" d="M114.411,285.794c-0.657-1.93-1.919-3.968,1.038-5.206c0.233-0.097,0.332-0.603,0.423-0.938
			c1.274-4.658,2.408-9.36,3.85-13.966c0.829-2.647,3.315-2.703,5.628-2.726c-0.29,0.336-0.585,0.966-0.871,0.963
			c-3.594-0.045-4.058,2.789-4.784,5.243c-1.17,3.958-2.102,7.986-3.275,11.942C115.94,282.726,115.091,284.235,114.411,285.794z"/>
		<path fill="#333333" d="M159.478,251.823c-9.049,0.336-10.121-0.47-8.299-5.107C153.912,248.398,156.695,250.11,159.478,251.823z"
			/>
		<path fill="#333333" d="M181.155,241.306c0.68,1.088,1.983,2.244,1.873,3.245c-0.12,1.087-1.554,2.029-2.415,3.034
			c-0.945-1.007-2.495-1.928-2.652-3.045c-0.133-0.95,1.34-2.124,2.102-3.2C180.427,241.328,180.791,241.317,181.155,241.306z"/>
		<path fill="#333333" d="M263.186,259.328c0.604,0.699,1.433,1.225,1.542,1.873c0.243,1.438-1.986,3.573-3.383,3.07
			c-1.178-0.424-2.949-1.745-2.899-2.574C258.627,258.715,261.577,260.824,263.186,259.328z"/>
		<path fill="#333333" d="M186.16,229c-1.788,1.427-2.891,2.962-3.8,2.855c-0.965-0.115-2.233-1.702-2.429-2.813
			c-0.126-0.714,1.421-2.403,2.261-2.433C183.228,226.572,184.309,227.806,186.16,229z"/>
		<path fill="#333333" d="M218.95,209.597c0.674,1.6,1.572,3.155,1.902,4.822c0.117,0.593-1.105,2.003-1.788,2.053
			c-0.733,0.054-2.182-1.027-2.209-1.66c-0.071-1.657,0.463-3.34,0.756-5.012C218.058,209.732,218.504,209.664,218.95,209.597z"/>
		<path fill="#333333" d="M291.645,250.312c-1.143-0.683-2.446-1.203-3.367-2.111c-0.528-0.52-0.435-1.669-0.622-2.535
			c0.819-0.029,1.709-0.269,2.439-0.027c0.716,0.237,1.337,0.902,1.877,1.491c0.799,0.871,1.49,1.842,2.228,2.77
			c-1.063,0.521-2.126,1.043-3.189,1.564C291.221,251.081,291.433,250.697,291.645,250.312z"/>
		<path fill="#333333" d="M264.951,138.42c1.331-2.261,2.661-4.523,3.973-6.751c2.156,2.187,2.234,10.547-0.322,12.9
			c0.312-1.482,0.817-2.655,0.73-3.784c-0.1-1.3-0.723-2.56-1.119-3.838c-1.037,0.53-2.074,1.06-3.111,1.59L264.951,138.42z"/>
		<path fill="#333333" d="M251.218,109.339c3.95,2.224,8.009,4.509,11.693,6.583C259.053,117.253,251.264,113.083,251.218,109.339z"
			/>
		<path fill="#333333" d="M88.913,197.682c3.009,3.473,4.727,7.564,5.645,12.041c-4.216-2.852-4.252-7.759-5.764-11.939
			C88.794,197.784,88.913,197.682,88.913,197.682z"/>
		<path fill="#333333" d="M199.733,92.777c-1.314,3.214-3.905,4.707-7.796,6.217c0.468-1.605,0.462-3.019,1.048-3.336
			C195.128,94.499,197.468,93.707,199.733,92.777z"/>
		<path fill="#333333" d="M265.103,138.538c-0.375,3.412-0.583,6.853-1.182,10.226c-0.43,2.422-1.38,4.752-2.098,7.123
			c-0.382-0.107-0.763-0.215-1.145-0.322c1.425-5.714,2.849-11.429,4.274-17.143C264.951,138.42,265.103,138.538,265.103,138.538z"
			/>
		<path fill="#333333" d="M253.145,83.464c4.802,3.115,5.191,8.685,7.642,13.161c-0.301,0.158-0.602,0.317-0.903,0.475
			C257.638,92.555,255.392,88.01,253.145,83.464z"/>
		<path fill="#333333" d="M182.036,299.219c-1.072,1.143-1.842,1.963-2.612,2.784c-0.529-0.758-1.581-1.602-1.473-2.254
			c0.191-1.153,1.088-2.19,1.69-3.275C180.324,297.255,181.006,298.038,182.036,299.219z"/>
		<path fill="#333333" d="M180.999,233.811c1.055,1.344,2.132,2.146,2.264,3.081c0.093,0.66-1.095,1.502-1.711,2.262
			c-0.916-0.97-1.93-1.875-2.652-2.973C178.782,236.001,179.947,234.977,180.999,233.811z"/>
		<path fill="#333333" d="M204.613,290.027c2.591-0.351,5.183-0.702,8.068-1.093c-1.027,2.95-3.493,3.378-7.918,1.952
			C204.713,290.6,204.663,290.313,204.613,290.027z"/>
		<path fill="#333333" d="M230.136,25.534c-4.535-1.899-9.069-3.799-13.604-5.698C221.662,20.235,226.178,22.211,230.136,25.534z"/>
		<path fill="#333333" d="M178.458,27.516c0,2.658,0,5.316,0,8.228C175.919,33.247,175.816,30.427,178.458,27.516z"/>
		<path fill="#333333" d="M280.81,222.716c1.041,1.839,0.516,3.205-1.25,4.224c-2.297,1.325-4.582,2.671-6.871,4.008
			c0.001,0.001-0.098-0.116-0.098-0.116c2.717-2.69,5.432-5.382,8.148-8.073L280.81,222.716z"/>
		<path fill="#333333" d="M175.66,246.444c0.522,0.929,1.627,2.012,1.432,2.753c-0.308,1.173-1.486,2.117-2.296,3.159
			c-0.237-0.141-0.474-0.281-0.712-0.422c0.225-1.714,0.449-3.427,0.674-5.141C175.059,246.676,175.36,246.56,175.66,246.444z"/>
		<path fill="#333333" d="M255.57,81.088c-0.079-1.715-0.159-3.43-0.238-5.144c0.295-0.091,0.59-0.182,0.885-0.273
			c0.531,1.361,1.224,2.691,1.501,4.102c0.093,0.474-0.872,1.156-1.354,1.742C256.1,81.372,255.835,81.23,255.57,81.088z"/>
		<path fill="#333333" d="M28.71,155.443c-0.478,2.483-0.884,4.594-1.329,6.912C25.646,159.437,26.051,157.083,28.71,155.443z"/>
		<path fill="#333333" d="M111.694,280.877c0.074,2.098,0.292,4.117,2.71,4.925c-0.45,0.874-0.899,1.747-1.352,2.626
			C110.256,286.56,109.954,284.826,111.694,280.877z"/>
		<path fill="#333333" d="M177.286,25.315c-0.731-3.988,0.127-5.617,3.215-6.151C179.415,21.243,178.499,22.995,177.286,25.315z"/>
		<path fill="#333333" d="M179.384,240.198c-1.259,0.68-2.018,1.288-2.856,1.431c-0.282,0.048-1.178-1.19-1.06-1.652
			c0.171-0.668,1.032-1.637,1.559-1.613C177.686,238.393,178.305,239.301,179.384,240.198z"/>
		<path fill="#333333" d="M248.869,138.314c0.28,1.002,0.561,2.004,0.841,3.006c-0.737,0.146-1.473,0.292-2.21,0.438
			c-0.089-1.046-0.178-2.092-0.267-3.138C247.778,138.518,248.324,138.416,248.869,138.314z"/>
		<path fill="#333333" d="M253.579,108.419c2.951,0.72,5.547,1.354,8.41,2.053C258.673,111.615,255.11,110.781,253.579,108.419z"/>
		<path fill="#333333" d="M118.22,259.168c1.598,1.909,1.236,3.989,0.433,6.043c-0.999,2.555-2.102,5.07-3.161,7.603
			c0.83-2.77,1.809-5.508,2.434-8.324C118.307,262.778,118.141,260.946,118.22,259.168z"/>
		<path fill="#333333" d="M267.042,251.771c-1.434,1.036-2.282,1.741-3.232,2.259c-0.197,0.108-0.772-0.475-1.173-0.74
			c0.742-0.803,1.425-1.681,2.27-2.356C265.109,250.772,265.85,251.283,267.042,251.771z"/>
		<path fill="#333333" d="M178.991,162.374c0.11-1.756,0.219-3.511,0.329-5.267c0.263,0.019,0.527,0.038,0.79,0.057
			c0,1.771,0,3.541,0,5.312C179.737,162.442,179.364,162.408,178.991,162.374z"/>
		<path fill="#333333" d="M179.703,232.29c-0.983,0.607-1.538,1.221-2.039,1.179c-0.462-0.039-1.213-0.787-1.207-1.213
			c0.008-0.536,0.657-1.063,1.029-1.593C178.077,231.096,178.668,231.53,179.703,232.29z"/>
		<path fill="#333333" d="M238.993,225.147c-0.965-1.083-1.931-2.166-2.896-3.249c0.308-0.286,0.616-0.572,0.924-0.857
			c0.995,1.051,1.99,2.101,2.984,3.152C239.668,224.51,239.33,224.829,238.993,225.147z"/>
		<path fill="#333333" d="M184.61,221.268c-0.964,0.045-1.934,0.155-2.887,0.071c-0.163-0.014-0.251-0.862-0.374-1.325
			c1.032-0.088,2.064-0.176,3.096-0.265C184.5,220.255,184.555,220.762,184.61,221.268z"/>
		<path fill="#333333" d="M191.51,30.147c1.341,0.93,2.682,1.86,4.375,3.033C193.437,33.722,192.845,33.314,191.51,30.147z"/>
		<path fill="#333333" d="M216.658,17.62c-1.502-0.568-3.004-1.135-4.506-1.703c0.098-0.318,0.197-0.635,0.295-0.953
			c1.521,0.467,3.042,0.934,4.563,1.401C216.893,16.784,216.776,17.202,216.658,17.62z"/>
		<path fill="#333333" d="M181.702,288.654c-1.627-0.451-2.619-0.726-3.793-1.052C179.731,285.514,180.21,285.601,181.702,288.654z"
			/>
		<path fill="#333333" d="M279.153,250.388c0.759-0.901,1.518-1.803,2.276-2.704c0.289,0.22,0.578,0.44,0.867,0.66
			c-0.696,0.965-1.392,1.93-2.087,2.896C279.857,250.956,279.505,250.672,279.153,250.388z"/>
		<path fill="#333333" d="M267.447,262.557c-0.558-0.76-1.159-1.329-1.064-1.493c0.405-0.698,1.017-1.276,1.553-1.897
			c0.277,0.386,0.852,0.855,0.772,1.141C268.515,260.995,268.015,261.597,267.447,262.557z"/>
		<path fill="#333333" d="M204.439,51.767c-1.106,0.655-1.658,1.245-2.175,1.216c-0.542-0.03-1.051-0.654-1.575-1.018
			c0.474-0.459,0.898-1.201,1.435-1.295C202.634,50.581,203.262,51.171,204.439,51.767z"/>
	</g>
</g>
</svg>
