<?xml version="1.0" encoding="utf-8"?>
<!-- Generator: Adobe Illustrator 17.1.0, SVG Export Plug-In . SVG Version: 6.00 Build 0)  -->
<!DOCTYPE svg PUBLIC "-//W3C//DTD SVG 1.1//EN" "http://www.w3.org/Graphics/SVG/1.1/DTD/svg11.dtd">
<svg version="1.1" id="Calque_1" xmlns="http://www.w3.org/2000/svg" xmlns:xlink="http://www.w3.org/1999/xlink" x="0px" y="0px"
	 viewBox="0 0 314.869 421.47" enable-background="new 0 0 314.869 421.47" xml:space="preserve">
<g>
	<path fill="#333333" d="M250.643,24.668c-7.16,4.122-12.089,10.096-15.174,17.756c-0.95,2.359-2.557,4.471-3.984,6.617
		c-4.07,6.119-4.336,12.315-1.223,19.01c3.683,7.921,6.985,16.022,10.283,24.114c0.579,1.422,0.353,3.181,0.443,4.788
		c0.033,0.586-0.096,1.18-0.151,1.771c0.575-0.093,1.155-0.163,1.723-0.286c0.787-0.171,1.565-0.382,2.347-0.576
		c0.692,0.888,1.385,1.776,2.077,2.664c0.306,0.414,0.586,0.852,0.926,1.236c0.317,0.359,0.698,0.662,1.051,0.99
		c-0.059-0.401-0.208-0.812-0.162-1.201c0.227-1.939,0.653-3.865,0.736-5.807c0.193-4.497-0.205-9.067,0.475-13.478
		c0.492-3.191-1.79-4.761-2.552-7.146c-0.382-1.195-0.35-2.523-0.505-3.79c1.072-0.107,2.151-0.168,3.213-0.336
		c0.947-0.15,1.866-0.49,2.815-0.618c2.073-0.28,4.156-0.562,6.239-0.587c0.214-0.003,0.672,1.738,0.638,2.655
		c-0.249,6.616-0.546,13.235,2.01,19.543c0.731,1.803,1.587,3.597,2.662,5.212c3.285,4.937,3.441,8.742,0.106,13.738
		c-1.076,1.611-2.598,2.919-3.794,4.46c-0.42,0.54-0.476,1.363-0.698,2.057c0.522-0.388,1.094-0.723,1.559-1.171
		c4.231-4.071,6.088-9.535,8.844-14.508c1.45-2.616,0.954-4.428,0.601-6.838c-0.296-2.017,0.31-4.17,0.554-6.258
		c0.046-0.391,0.493-0.881,0.367-1.125c-1.652-3.204,0.846-5.367,1.83-7.951c1.16-3.048,2.044-6.206,2.91-9.355
		c0.16-0.584-0.229-1.403-0.545-2.02c-4.408-8.609-8.672-17.298-13.347-25.76c-2.615-4.732-5.967-9.052-8.886-13.622
		c-0.601-0.942-0.755-2.169-1.115-3.265c2.389,1.846,5.162,3.37,7.059,5.629c1.902,2.266,2.931,5.267,4.34,7.943
		c0.174,1.402,0.268,2.823,0.563,4.201c0.127,0.592,0.671,1.095,1.026,1.638c-0.022-0.682-0.045-1.365-0.068-2.047
		c2.774,5.497,5.548,10.994,8.323,16.491c0.231,0.457,0.465,0.913,0.698,1.369c0.035-0.501,0.26-1.092,0.074-1.49
		c-1.263-2.701,0.977-4.717,1.349-7.089c0.056-0.357,0.739-0.615,1.132-0.918c0.146,0.533,0.41,1.064,0.419,1.6
		c0.099,5.742,0.566,11.52,0.086,17.216c-0.321,3.81-2.167,7.468-3.005,11.267c-0.412,1.868-0.328,3.937-0.041,5.851
		c0.711,4.743,1.689,9.446,2.517,14.173c0.371,2.118,0.637,4.255,0.951,6.383l0.028-0.051c-3.218,3.611-6.416,7.24-9.672,10.817
		c-0.528,0.58-1.257,1.195-1.983,1.335c-2.602,0.503-4.633,1.597-5.739,4.167c-0.123,0.286-1.515,0.462-1.771,0.184
		c-2.017-2.192-3.788-4.617-5.87-6.74c-1.174-1.198-2.92-1.817-4.184-2.948c-2.8-2.503-5.515-5.109-8.156-7.78
		c-1.902-1.924-5.043-3.508-2.609-7.09c0.035-0.052-0.311-0.363-0.479-0.554c-1.479,2.393-2.048-0.141-2.415-0.666
		c-3.296-4.71-6.245-9.507-8.264-15.067c-1.039-2.862,0.355-3.299,1.457-3.875c2.896-1.515,2.749-3.374,1.503-5.837
		c-2.919-5.766-4.148-11.821-2.995-18.287c0.898-5.033,2.775-9.417,6.318-13.322c2.127-2.344,2.914-5.851,4.663-8.608
		c1.32-2.08,3.065-3.956,4.888-5.632c1.693-1.557,3.76-2.7,5.622-4.08C249.969,22.807,250.532,23.19,250.643,24.668z"/>
	<path fill="#333333" d="M215.712,249.713c0.276,0.66,0.468,1.377,0.859,1.96c0.242,0.361,0.857,0.781,1.178,0.696
		c0.348-0.092,0.768-0.736,0.776-1.145c0.023-1.327-0.008-2.678-0.235-3.981c-0.602-3.445-1.467-6.85-1.92-10.312
		c-0.201-1.532-1.401-3.86,1.674-4.314c0.144-0.021,0.253-0.472,0.329-0.736c0.863-3.003,2.74-4.23,5.741-3.677
		c1.01,0.186,1.986,0.553,2.995,0.749c0.973,0.19,1.968,0.266,2.954,0.392c-0.687-0.551-1.473-1.02-2.03-1.68
		c-0.436-0.516-0.588-1.272-0.867-1.921c0.633,0.157,1.309,0.22,1.888,0.49c1.162,0.541,2.272,1.194,3.404,1.801
		c0.396,0.202,0.791,0.404,1.187,0.607c-0.135,0.809-0.198,1.64-0.442,2.415c-0.092,0.292-0.604,0.451-0.925,0.671
		c0.466,0.161,1.065,0.594,1.377,0.442c3.808-1.863,7.488,0.275,11.226,0.324c2.913,0.038,3.501,1.347,2.555,4.059
		c-3.189,9.139-6.345,18.291-9.385,27.48c-0.764,2.309-2.036,3.691-4.41,4.209c-5.364,1.169-10.529,0.1-15.452-1.791
		c-1.516-0.582-3.444-2.789-3.425-4.227c0.123-8.912-5.31-14.826-10.487-20.961c-0.491-0.582-0.8-1.317-1.193-1.98
		c0.614,0.302,1.225,0.611,1.842,0.906c1.906,0.913,3.932,1.643,5.672,2.803c0.908,0.605,1.241,2.02,1.964,2.97
		c0.997,1.312,2.116,2.531,3.183,3.79L215.712,249.713z M223.901,238.923c-0.254-0.37-0.508-0.741-0.762-1.111
		c-0.279-0.558-0.557-1.116-0.836-1.675c-0.477,0.754-1.063,1.467-1.372,2.284c-0.109,0.289,0.5,1.216,0.714,1.194
		C222.413,239.536,223.152,239.177,223.901,238.923z"/>
	<path fill="#333333" d="M281.461,223.072c1.617-1.376,3.241-2.744,4.846-4.135c0.414-0.359,0.765-0.791,1.145-1.19
		c0.088,0.493,0.319,1.009,0.243,1.475c-1.211,7.423-2.381,14.854-3.732,22.252c-0.757,4.147-1.889,8.224-2.708,12.361
		c-0.163,0.821,0.428,1.764,0.504,2.665c0.163,1.926,0.483,3.893,0.253,5.784c-0.317,2.607-1.47,2.864-3.678,1.1l0.025,0.053
		c0.018-1.919-0.464-3.976,1.623-5.289c0.236-0.148,0.217-0.701,0.316-1.067c-0.484,0.039-1.019-0.044-1.444,0.135
		c-4.224,1.783-8.535,2.044-13.04,1.221c-7.046-1.286-9.981-4.499-10.39-11.627c-0.354-6.176-0.83-12.345-1.219-18.519
		c-0.037-0.59,0.159-1.194,0.246-1.792c0.423,0.376,0.785,0.929,1.279,1.098c2.284,0.78,4.574,1.629,6.933,2.031
		c0.55,0.094,1.382-1.464,2.084-2.262l-0.021,0.036c0.83-0.374,1.638-0.814,2.497-1.102c0.772-0.259,1.6-0.35,2.403-0.515
		c-0.91-0.036-1.82-0.075-2.731-0.108c-0.614-0.022-1.235,0.009-1.84-0.072c-0.339-0.045-0.654-0.271-0.98-0.416
		c0.279-0.091,0.553-0.218,0.839-0.267c4.835-0.829,9.667-1.685,14.516-2.428c0.639-0.098,1.369,0.39,2.056,0.607
		c-2.305,0.528-4.612,1.047-6.912,1.596c-0.277,0.066-0.515,0.291-0.772,0.442c0.249,0.081,0.539,0.288,0.741,0.224
		C276.858,224.624,279.158,223.842,281.461,223.072z M271.135,229.269c3.36,0.384,6.82-2.391,10.119,0.265
		c0.12,0.096,0.84-0.218,0.861-0.39c0.117-0.996,0.128-2.008,0.1-3.012c-0.002-0.076-0.626-0.255-0.909-0.183
		c-3.434,0.879-6.859,1.796-10.286,2.704c-0.451,0.12-0.901,0.246-1.351,0.37C270.158,229.105,270.646,229.187,271.135,229.269z"/>
	<path fill="#333333" d="M233.623,212.477c-0.181-1.473-0.369-2.944-0.535-4.418c-0.029-0.258-0.061-0.677,0.077-0.767
		c3.768-2.486,2.847-6.737,3.591-10.213c1.496-6.984,1.124-13.989-1.587-20.748c-0.199-0.495,0.165-1.216,0.267-1.832
		c0.716,0.27,1.876,0.357,2.075,0.84c1.154,2.798,2.296,5.638,3.01,8.569c0.472,1.94,0.221,4.055,0.293,6.092
		c1.873-0.699,3.694-1.676,5.63-2.035c3.108-0.577,6.291-0.767,9.45-1.019c0.146-0.012,0.681,1.252,0.509,1.439
		c-0.966,1.053-2.104,1.945-3.158,2.921c-0.268,0.248-0.442,0.598-0.659,0.9c0.38-0.081,0.799-0.087,1.135-0.256
		c3.583-1.795,7.137-3.649,10.741-5.401c0.711-0.346,1.659-0.586,2.388-0.413c0.926,0.22,2.016,0.73,2.501,1.467
		c0.301,0.458-0.231,1.662-0.662,2.364c-0.903,1.471-1.986,2.831-2.995,4.236c1.313-1.183,2.589-2.412,3.952-3.536
		c1.102-0.909,2.226-1.874,3.504-2.453c0.648-0.294,1.657,0.211,2.503,0.355c-0.241,0.737-0.26,1.725-0.761,2.171
		c-3.076,2.739-6.015,5.744-9.461,7.932c-7.439,4.723-15.479,8.123-24.372,9.137c-1.1,0.125-2.226,0.533-3.191,1.075
		c-0.406,0.228-0.755,1.533-0.571,1.69c3.191,2.71-0.388,1.595-1.086,1.832c-0.74,0.251-1.6,0.149-2.408,0.2
		C233.801,212.607,233.623,212.477,233.623,212.477z"/>
	<path fill="#333333" d="M214.011,154.785c-3.899-0.323-7.892-0.255-11.656-1.15c-1.668-0.397-2.874-2.74-4.289-4.2
		c0.748-0.529,1.472-1.457,2.249-1.504c1.566-0.094,2.374-0.065,2.47-2.189c0.176-3.887,0.965-7.748,1.558-11.611
		c0.171-1.113,0.446-2.232,0.839-3.287c1.775-4.76,2.49-5.14,7.525-4.494c9.868,1.266,8.327,1.29,6.649,9.337
		c-0.673,3.228-1.284,6.47-1.991,9.691c-0.355,1.62-0.202,2.748,1.663,3.357c0.931,0.304,2.292,1.255,2.302,1.931
		c0.013,0.88-0.935,2.125-1.803,2.593c-1.667,0.899-3.57,1.362-5.375,2.006C214.105,155.105,214.058,154.945,214.011,154.785z"/>
	<path fill="#333333" d="M234.637,135.47c0.453-0.078,0.906-0.155,1.359-0.233c-0.427-0.246-0.873-0.465-1.277-0.744
		c-1.047-0.724-2.076-1.476-3.111-2.216c1.142,0.278,2.282,0.565,3.426,0.833c3.38,0.793,6.73,1.876,10.157,2.256
		c2.023,0.224,4.159-0.911,6.263-1.003c3.041-0.132,4.837,2.399,3.597,5.147c-1.646,3.646-2.812,8.215-5.69,10.432
		c-4.232,3.26-5.568,8.902-10.617,11.254c-2.132,0.993-3.947,0.783-4.2-1.671c-0.462-4.485-0.525-9.01-0.825-13.513
		c-0.205-3.066-0.579-6.121-0.758-9.188c-0.033-0.562,0.507-1.157,0.783-1.737C234.041,135.215,234.339,135.342,234.637,135.47z"/>
	<path fill="#333333" d="M235.668,217.996c-0.86-0.29-2.002-1.074-2.526-0.775c-1.503,0.857-2.934,1.998-4.068,3.309
		c-2.33,2.693-6.637,3.25-9.148,0.535c-1.805-1.951-2.958-4.505-4.402-6.79c0.507,0.007,1.013,0.014,1.519,0.021
		c1.159,1.15,2.208,2.446,3.497,3.423c3.777,2.863,7.89,2.123,10.617-1.768c0.815-1.163,1.644-2.315,2.465-3.473
		c-0.001-0.001,0.177,0.129,0.178,0.13c1.272,2.164,4.055,2.519,6.417,0.842c0.548-0.389,1.232-1.077,1.723-0.979
		c6.365,1.278,11.175-3.023,16.748-4.54c2.853-0.777,5.733-1.495,8.641-2.008c1.374-0.243,1.952,0.568,1.071,1.893
		c-1.471,2.212-2.756,4.588-4.486,6.577c-1.996,2.293-4.73,3.318-7.825,2.641c-2.312-0.505-4.605-1.128-6.866-1.83
		c-2.008-0.623-3.706,0.091-3.683,1.978c0.033,2.722-1.34,2.098-2.89,1.947c-1.045-0.102-2.113,0.04-3.171,0.073
		c0.487,0.959,0.951,1.93,1.466,2.874c0.688,1.263,1.415,2.504,2.125,3.755c-1.47,0.143-3.033,0.662-4.384,0.326
		c-1.414-0.351-2.637-1.502-3.914-2.349c-0.316-0.21-0.478-0.811-0.777-0.865c-3.515-0.639-1.578-1.813-0.314-2.93
		c1.135,0.057,2.27,0.114,3.406,0.171C236.615,219.455,236.142,218.725,235.668,217.996z"/>
	<path fill="#333333" d="M255.044,126.786c0.132,1.434,0.314,2.359,0.282,3.277c-0.073,2.098-0.669,3.354-2.962,1.655
		c-0.806-0.597-1.909-1.793-2.329,0.394c-1.77-0.862-3.567-1.675-5.296-2.612c-0.651-0.353-1.146-0.993-1.712-1.502
		c0.048,0.676,0.157,1.356,0.121,2.028c-0.022,0.403-0.269,0.793-0.415,1.189c-0.639-0.443-1.343-0.818-1.894-1.353
		c-0.409-0.397-0.617-1-0.914-1.511c-0.177,0.432-0.346,0.866-0.534,1.293c-0.077,0.176-0.195,0.334-0.295,0.5
		c-0.209-0.308-0.556-0.596-0.606-0.929c-0.384-2.54-0.906-5.08-1.012-7.635c-0.182-4.416-0.121-8.842-0.102-13.264
		c0.005-1.046-0.035-2.375,1.588-0.832c5.456,5.187,11.075,10.207,16.41,15.512c1.211,1.204,1.559,3.292,2.237,5
		c0.117,0.294-0.104,0.723-0.169,1.089c-0.243-0.309-0.519-0.599-0.721-0.933c-0.212-0.35-0.317-0.767-0.538-1.11
		c-0.257-0.399-0.591-0.749-0.891-1.12C255.163,126.372,255.033,126.822,255.044,126.786z"/>
	<path fill="#333333" d="M265.937,131.279c-0.117,1.323-0.351,2.65-0.309,3.968c0.028,0.869,0.454,1.725,0.702,2.587
		c0.736-0.587,1.766-1.026,2.149-1.79c0.966-1.928,1.588-4.026,2.461-6.006c0.296-0.671,0.93-1.193,1.41-1.783
		c-0.04,0.652-0.145,1.308-0.109,1.956c0.466,8.288-2.321,16.566-0.076,24.861c0.407,1.502,0.365,1.484,1.496,0.503
		c0.281-0.244,0.861-0.502,1.099-0.374c0.867,0.468,2.166,0.969,2.344,1.693c0.291,1.183-0.169,2.551-0.313,3.842
		c-0.748-0.131-1.53-0.455-2.233-0.331c-0.536,0.095-1.44,0.875-1.372,1.15c0.32,1.289,0.948,2.498,1.412,3.755
		c0.856,2.319-0.185,5.187-2.283,5.57c-2.375,0.434-3.91-0.849-4.45-3.226c-0.16-0.702-0.552-1.468-0.405-2.105
		c1.161-5.023-0.698-10.083,0.307-15.127c0.512-2.569,0.665-5.258,0.568-7.877c-0.038-1.017-0.98-2.412-1.904-2.922
		c-9.557-5.272-8.085-4.048-4.207-11.886c0.457-0.923,0.733-1.958,1.307-2.794c0.508-0.74,1.313-1.275,1.987-1.901
		c0.147,0.889,0.295,1.778,0.442,2.667c-0.204,0.388-0.408,0.777-0.612,1.165c-1.034,2-2.177,3.954-3.036,6.026
		c-0.269,0.65,0.226,1.617,0.371,2.439c0.639-0.596,1.351-1.133,1.898-1.804c0.548-0.672,0.932-1.477,1.388-2.223L265.937,131.279z"
		/>
	<path fill="#333333" d="M278.332,263.385c-0.811,3.457-3.562,5.031-8.071,4.656c-0.696-0.058-1.402,0.018-2.104,0.033
		c0.539,0.503,1.007,1.132,1.631,1.482c1.246,0.698,2.609,1.186,3.863,1.872c0.723,0.396,1.326,1.009,1.984,1.524
		c-0.85,0.434-1.806,1.367-2.531,1.212c-2.5-0.532-4.947-1.367-7.362-2.234c-1.825-0.655-3.595-1.485-5.335-2.346
		c-0.484-0.239-0.775-0.868-1.155-1.318c0.389-0.204,0.758-0.487,1.172-0.593c0.458-0.117,0.958-0.074,1.439-0.1
		c-0.314-0.468-0.646-0.926-0.938-1.408c-0.387-0.638-0.744-1.295-1.114-1.944c0.746,0.086,1.497,0.139,2.237,0.264
		c2.913,0.494,5.813,1.086,8.741,1.46c0.645,0.082,1.385-0.578,2.082-0.896c-0.673-0.335-1.314-0.842-2.024-0.975
		c-2.528-0.473-5.083-0.8-7.621-1.224c-0.704-0.118-1.52-0.208-2.04-0.62c-0.568-0.451-0.853-1.26-1.261-1.913
		c0.661-0.374,1.345-1.098,1.979-1.056c1.946,0.128,3.868,0.593,5.81,0.844c1.732,0.224,3.595,0.799,5.194,0.397
		c2.96-0.744,4.504,0.338,5.45,2.933L278.332,263.385z"/>
	<path fill="#333333" d="M209.474,116.507c2.135,0.017,4.286-0.125,6.4,0.094c2.436,0.253,4.835,0.849,7.257,1.252
		c3.154,0.525,4.021,1.749,3.83,5.152c-0.175,3.118-2.338,3.466-4.577,3.099c-5.144-0.843-10.243-1.959-15.36-2.964
		C207.84,120.93,208.657,118.718,209.474,116.507z"/>
	<path fill="#333333" d="M235.745,105.859c0.354,6.608,0.711,12.149,0.916,17.695c0.068,1.85,0.589,4.739-2.952,2.44
		c-2.775,2.14-2.283-0.955-2.784-1.903c-2.284-4.333-2.021-8.877-0.99-13.536c0.572-2.585,0.593-5.291,0.862-7.943
		c0.049-0.484,0.096-0.967,0.143-1.451c0.562,0.137,1.264,0.108,1.66,0.441C234.245,102.985,236.151,104.288,235.745,105.859z"/>
	<path fill="#333333" d="M229.197,270.295c1.414-0.155,3.759-0.501,6.116-0.62c0.775-0.039,1.58,0.513,2.371,0.795
		c-0.549,0.664-0.967,1.604-1.672,1.936c-1.559,0.735-3.276,1.13-4.899,1.741c-0.499,0.188-0.903,0.628-1.351,0.953
		c0.444,0.215,0.872,0.476,1.335,0.635c1.276,0.438,2.567,0.833,3.851,1.245c-0.934,1.527-1.521,3.583-2.875,4.473
		c-2.89,1.901-6.158,3.24-9.31,4.727c-1.879,0.887-2.656,0.338-2.29-1.847c0.397-2.37,0.424-4.191,4.062-3.389
		c2.11,0.465,4.725-1.329,7.098-2.148c0.225-0.077,0.347-0.45,0.517-0.686c-0.371-0.079-0.741-0.215-1.115-0.228
		c-2.248-0.076-4.497-0.123-6.745-0.182c-2.04-0.053-2.334-1.118-1.864-2.896C223.526,270.645,224.117,270.13,229.197,270.295z"/>
	<path fill="#333333" d="M218.893,194.606c0.696,1.589,1.287,3.236,2.116,4.752c0.942,1.723,2.044,2.368,3.305,0.108
		c0.53-0.951,1.383-1.761,2.214-2.494c0.926-0.817,0.932-0.725,0.353-2.201c-0.152-0.388,0.038-1.029,0.28-1.427
		c0.534-0.878,1.1-1.783,1.842-2.475c0.82-0.765,1.851-1.304,2.79-1.941c0.091,1.403,0.289,2.81,0.24,4.209
		c-0.045,1.284,0.102,3.071-0.642,3.735c-1.746,1.562-0.215,3.366-0.566,4.266c-1.345,3.454,1.045,6.281,0.693,9.387
		c-0.087,0.764-0.735,1.463-1.125,2.193c-0.702-0.578-1.536-1.059-2.056-1.77c-0.301-0.413-0.132-1.196-0.114-1.81
		c0.064-2.16-0.515-3.307-3.127-3.342c-4.506-0.059-8.659-5.336-8.021-9.862c0.076-0.54,1.086-0.948,1.664-1.416
		C218.743,194.518,218.893,194.606,218.893,194.606z M228.872,200.282c-0.919-0.243-1.46-0.559-1.669-0.409
		c-0.7,0.499-1.281,1.165-1.908,1.766c0.264,0.218,0.661,0.675,0.769,0.615C226.727,201.886,227.324,201.4,228.872,200.282z"/>
	<path fill="#333333" d="M289.46,124.513c-2.002,0.346-4.027,1.071-5.999,0.946c-2.729-0.172-3.213-1.775-1.448-3.8
		c0.604-0.693,1.205-1.788,1.935-1.904c3.987-0.639,2.839-3.352,2.667-5.827c-0.107-1.538,0.515-3.179,0.194-4.638
		c-0.754-3.431-1.872-6.784-2.857-10.163c-0.188-0.644-0.444-1.268-0.669-1.902c0.727,0.22,1.589,0.261,2.159,0.69
		c2.775,2.087,4.926,8.602,3.691,12.019c-1.139,3.151-0.39,5.243,2.322,7.081c1.381,0.936,3.232,2.098,1.766,4.371
		C291.967,122.428,290.713,123.471,289.46,124.513z"/>
	<path fill="#333333" d="M217.044,214.295c-0.506-0.007-1.012-0.014-1.519-0.021c-1.683-0.527-3.364-1.054-5.046-1.581
		c-0.254,1.651-0.704,3.3-0.719,4.954c-0.024,2.653,0.24,5.309,0.382,7.963l0.047-0.06c-3.472-0.226-6.957-0.332-10.408-0.739
		c-1.355-0.16-2.651-0.952-3.926-1.558c-0.281-0.134-0.356-0.699-0.527-1.065c0.437-0.015,0.883-0.097,1.309-0.034
		c2.839,0.415,5.668,0.91,8.514,1.262c0.782,0.097,1.65-0.103,2.406-0.373c0.346-0.123,0.515-0.744,0.765-1.139
		c-0.366,0.046-0.736,0.068-1.097,0.14c-3.198,0.635-4.257-0.184-3.466-3.255c0.515-2.001,1.695-3.883,2.827-5.659
		c1.229-1.928,2.964-3.143,5.489-2.452c0.157,0.043,0.742-0.598,0.697-0.839c-0.339-1.777-0.896-3.517-1.149-5.302
		c-0.107-0.754,0.354-1.588,0.557-2.386c0.659,0.637,1.665,1.161,1.918,1.931C215.199,207.447,216.082,210.884,217.044,214.295z"/>
	<path fill="#333333" d="M260.91,174.147c0.206-0.011,0.423-0.069,0.616-0.024c4.165,0.977,7.786-0.477,11.364-2.386
		c0.704-0.376,1.751-0.111,2.639-0.141c-0.677,0.47-1.347,0.952-2.034,1.407c-0.413,0.273-0.855,0.503-1.283,0.753
		c0.411,0.395,0.771,0.869,1.242,1.17c1.126,0.722,2.321,1.337,3.459,2.042c3.874,2.399,4.39,4.357,2.195,8.424
		c-0.193,0.358-0.664,0.565-1.005,0.843c-0.094-0.378-0.275-0.76-0.26-1.133c0.021-0.507,0.207-1.005,0.297-1.511
		c0.596-3.368-1.175-6.19-4.546-6.92c-0.47-0.102-1.513,0.752-1.695,1.347c-0.447,1.459-0.523,3.028-0.804,4.543
		c-0.068,0.364-0.354,0.687-0.54,1.028c-0.186-0.309-0.609-0.753-0.522-0.905c1.005-1.763-3.509-1.687-1.244-3.781
		c0.336-0.311,0.799-0.485,1.204-0.722c-0.635-0.247-1.253-0.599-1.911-0.7c-0.367-0.057-0.79,0.329-1.204,0.464
		c-0.456,0.149-1.185,0.49-1.357,0.315c-1.431-1.453-2.77-2.824-4.754-0.725c-0.172,0.181-0.874,0.097-1.163-0.105
		c-2.654-1.853-2.449,0.225-2.809,1.887c-0.394,1.823,0.526,4.327-2.31,5.055c-0.218-1.81-0.77-3.654-0.59-5.423
		C254.352,174.464,254.483,174.477,260.91,174.147z"/>
	<path fill="#333333" d="M215.853,110.783c1.121-5.548,2.058-10.193,3.004-14.837c0.059-0.291,0.189-0.568,0.285-0.851
		c0.261,0.262,0.548,0.503,0.776,0.791c0.568,0.717,1.035,1.529,1.674,2.173c2.266,2.285,3.541,4.793,2.173,8.052
		c-0.197,0.468-0.339,0.997-0.348,1.501c-0.05,3.068-0.324,5.729-4.452,3.246c-0.328-0.198-0.969,0.19-1.463,0.184
		C216.977,111.035,216.452,110.884,215.853,110.783z"/>
	<path fill="#333333" d="M207.778,106.638c1.192-3.253,2.039-6.699,3.715-9.68c0.887-1.578,3.214-2.345,4.891-3.479
		c0.21,0.512,0.7,1.1,0.585,1.524c-0.806,2.977-1.821,5.898-2.591,8.882c-0.382,1.48-0.205,3.11-0.622,4.575
		c-0.304,1.067-1.09,2.735-1.793,2.804c-1.777,0.176-3.48-0.585-3.625-2.871c-0.032-0.513-0.005-1.029-0.005-1.544
		C208.148,106.779,207.963,106.708,207.778,106.638z M208.684,106.394c0.59,0.832,1.184,1.669,1.777,2.506
		c0.208-0.254,0.643-0.577,0.589-0.75c-0.402-1.31-0.9-2.59-1.367-3.879C209.404,104.865,209.124,105.458,208.684,106.394z"/>
	<path fill="#333333" d="M281.439,167.282c-0.492,0.896-0.935,1.824-1.489,2.68c-0.702,1.085-1.791,2.024,0.816,1.888
		c1.55-0.081,2.809,3.006,1.636,4.018c-0.574,0.495-2.208-0.031-3.278-0.363c-1.955-0.607-3.447-4.06-2.437-6.418
		c1.316-3.073,3.131-5.93,4.684-8.905c1.295-2.481,2.269-1.848,3.158,0.255c-1.034,2.289-2.069,4.578-3.103,6.866L281.439,167.282z"
		/>
	<path fill="#333333" d="M272.376,221.516c-0.946-0.441-1.556-0.725-2.166-1.01c0.387-0.549,0.664-1.249,1.179-1.622
		c2.157-1.564,4.257-3.291,6.626-4.455c2.077-1.02,4.481-1.385,6.759-1.964c0.107-0.027,0.622,0.713,0.562,1.021
		c-0.169,0.873-0.285,2.089-0.878,2.48c-1.322,0.874-2.937,1.293-4.404,1.962C277.461,219.11,274.89,220.339,272.376,221.516z"/>
	<path fill="#333333" d="M245.857,164.7c0.11,2.983-2.903,6.061-5.876,5.652c-0.98-0.135-2.11-1.174-2.602-2.102
		c-0.288-0.544,0.311-1.942,0.925-2.504c1.48-1.354,3.326-2.308,4.8-3.666c2.484-2.288,2.533-0.567,2.588,1.401
		C245.704,163.889,245.801,164.294,245.857,164.7z"/>
	<path fill="#333333" d="M208.653,191.246c-2.171-0.758-3.571-1.136-4.856-1.753c-0.49-0.235-1.065-1.45-1.009-1.495
		c1.977-1.622,0.812-2.264-0.676-3.3c-0.683-0.476-0.639-1.996-0.925-3.043c0.837-0.133,1.69-0.44,2.506-0.362
		c1.424,0.138,2.825,0.513,4.235,0.788c1.469,0.286,1.319,0.212,0.665,1.551c-0.276,0.566,0.229,1.513,0.378,2.287
		c-1-0.137-1.997-0.303-3.001-0.375c-0.136-0.01-0.491,0.551-0.424,0.681c0.16,0.309,0.501,0.534,0.79,0.767
		c0.952,0.768,2.007,1.442,2.811,2.34C209.372,189.582,208.868,190.484,208.653,191.246z"/>
	<path fill="#333333" d="M209.474,116.507c-0.817,2.212-1.634,4.423-2.451,6.634c-2.533,0.446-4.76,0.025-5.999-2.496
		c-0.917-1.866-0.799-3.9,1.083-4.938C204.579,114.342,207.203,114.538,209.474,116.507z"/>
	<path fill="#333333" d="M210.142,225.61c0.247-0.885,0.3-1.898,0.784-2.624c0.768-1.151,1.665-2.698,2.797-3.004
		c1.445-0.39,3.52-0.712,4.299,1.711c0.426,1.326,1.292,2.51,1.96,3.758c-1.417-0.018-2.867-0.231-4.239,0.006
		c-1.155,0.2-2.188,1.184-3.334,1.32c-0.667,0.079-3.061,1.884-2.219-1.227C210.189,225.55,210.142,225.61,210.142,225.61z"/>
	<path fill="#333333" d="M236.069,197.085c-0.553,0.735-0.98,1.507-1.607,2.044c-0.288,0.247-0.969,0.035-1.472,0.031
		c0.083-0.743,0.262-1.49,0.233-2.229c-0.223-5.71-0.506-11.418-0.718-17.129c-0.032-0.875,0.205-1.76,0.318-2.641
		c0.666,0.759,1.838,1.469,1.917,2.285C235.304,185.257,235.645,191.089,236.069,197.085z"/>
	<path fill="#333333" d="M206.057,173.473c-1.55-0.735-3.222-1.303-4.588-2.293c-0.504-0.366-0.601-1.853-0.303-2.596
		c0.257-0.641,1.407-1.419,2.042-1.324c2.253,0.335,4.546,0.808,6.611,1.715c0.514,0.226,0.74,2.768,0.173,3.364
		c-0.678,0.712-2.35,0.476-3.592,0.651C206.285,173.151,206.171,173.312,206.057,173.473z"/>
	<path fill="#333333" d="M219.784,281.828c-0.855,3.663-1.561,6.725-2.298,9.78c-0.063,0.262-0.338,0.473-0.515,0.708
		c-1.066-1.135-2.311-2.161-3.106-3.462c-0.294-0.48,0.656-2.349,0.725-2.332c2.694,0.677,1.571-1.326,1.613-2.338
		c0.024-0.577-0.35-1.167-0.53-1.756c-0.283-0.922-0.555-1.847-0.832-2.77c1.095,0.004,2.323-0.297,3.245,0.104
		C218.887,280.112,219.343,281.255,219.784,281.828z"/>
	<path fill="#333333" d="M204.959,164.412c-1.243-0.394-2.485-0.79-3.728-1.187c1.227-0.406,2.443-0.853,3.687-1.194
		c0.364-0.1,0.82,0.188,1.216,0.143c0.566-0.064,1.116-0.271,1.672-0.417c-0.485-0.438-0.903-1.011-1.467-1.289
		c-1.365-0.672-2.843-1.124-4.174-1.851c-0.343-0.187-0.309-1.064-0.448-1.624c0.486-0.019,1.044-0.203,1.446-0.029
		c1.98,0.858,4.041,1.628,5.82,2.81c0.84,0.558,1.111,1.971,1.64,2.997c-0.962,0.474-1.884,1.076-2.897,1.381
		C206.858,164.415,205.886,164.336,204.959,164.412z"/>
	<path fill="#333333" d="M274.499,212.99c-0.374-0.115-0.748-0.231-1.122-0.346c0.18-0.426,0.239-1.036,0.56-1.249
		c2.053-1.36,4.145-2.667,6.265-3.922c1.237-0.732,2.552-1.33,3.83-1.994c0.747-0.388,1.488-0.787,2.232-1.181
		c-0.3,1.043-0.267,2.576-0.957,3.046c-3.32,2.263-6.836,4.24-10.283,6.319C274.849,213.439,274.674,213.215,274.499,212.99z"/>
	<path fill="#333333" d="M222.719,270.593c-0.617,2.021-1.124,3.8-1.759,5.533c-0.05,0.138-1.22,0.163-1.464-0.115
		c-1.557-1.773-3.043-3.615-4.435-5.52c-0.215-0.295,0.184-1.495,0.276-1.492c2.149,0.061,4.302,0.169,6.434,0.438
		C222.166,269.486,222.468,270.27,222.719,270.593z"/>
	<path fill="#333333" d="M266.898,294.507c1.332,0,2.678-0.116,3.991,0.044c0.772,0.095,1.491,0.629,2.233,0.966
		c-0.532,0.757-1.143,2.21-1.583,2.16c-3.424-0.389-6.82-1.041-10.207-1.702c-0.318-0.062-0.514-0.751-0.766-1.148
		c0.466-0.15,0.929-0.414,1.399-0.429c1.643-0.053,3.289-0.021,4.934-0.021C266.898,294.419,266.898,294.463,266.898,294.507z"/>
	<path fill="#333333" d="M211.185,312.369c-3.334-0.002-6.941-2.69-7.722-5.251c-0.104-0.342,0.017-0.753,0.034-1.133
		c0.367,0.133,0.814,0.175,1.089,0.414c2.191,1.905,4.568,2.62,7.375,1.433c0.353-0.149,1.294,0.148,1.305,0.289
		c0.068,0.876,0.228,1.937-0.181,2.608C212.575,311.563,211.544,312.078,211.185,312.369z"/>
	<path fill="#333333" d="M265.354,320.081c-1.015-0.381-1.745-0.656-2.475-0.93c0.677-0.42,1.31-0.953,2.04-1.235
		c1.229-0.476,2.216-0.9,0.952-2.354c-0.207-0.238-0.23-0.636-0.338-0.96c0.398-0.001,0.797-0.018,1.195-0.001
		c1.599,0.07,3.202,0.103,4.793,0.252c0.64,0.06,1.255,0.386,1.882,0.592c-0.314,0.688-0.455,1.77-0.971,1.997
		C270.102,318.464,267.666,319.245,265.354,320.081z"/>
	<path fill="#333333" d="M274.185,324.162c0.15,2.966-1.122,4.399-3.643,4.84c-2.998,0.525-5.942,0.691-8.596-1.182
		c-0.385-0.272-0.655-0.708-0.978-1.068c0.536-0.045,1.073-0.131,1.609-0.128c2.116,0.011,4.243,0.196,6.344,0.037
		c2.134-0.161,3.613-1.313,4.021-3.592c0.095-0.533,0.498-1.011,0.76-1.514c0.132,0.585,0.281,1.166,0.389,1.755
		C274.165,323.712,274.181,324.125,274.185,324.162z"/>
	<path fill="#333333" d="M208.74,181.607c-2.969-1.287-5.049-2.059-6.975-3.113c-0.502-0.275-0.523-1.43-0.765-2.181
		c0.735-0.184,1.482-0.561,2.201-0.514c1.635,0.108,3.258,0.417,4.883,0.658c1.423,0.211,2.805,0.432,0.721,1.973
		c-0.169,0.125,0.031,0.725,0.029,1.104C208.831,179.984,208.795,180.432,208.74,181.607z"/>
	<path fill="#333333" d="M215.758,83.758c1.114-1.122,1.915-2.611,2.856-2.705c1.174-0.118,2.744,0.644,3.605,1.542
		c0.588,0.614,0.489,2.164,0.251,3.192c-0.155,0.668-1.099,1.165-1.734,1.685c-0.052,0.043-0.458-0.317-0.677-0.516
		c-0.311-0.282-0.799-0.889-0.872-0.841C215.996,88.212,217.329,84.671,215.758,83.758z"/>
	<path fill="#333333" d="M247.371,154.805c0.554,0.417,1.051,0.647,1.339,1.033c1.522,2.04,3.067,4.072,4.418,6.224
		c0.281,0.447-0.001,1.65-0.436,2.018c-0.351,0.298-1.593,0.116-1.972-0.29c-1.67-1.785-3.246-3.675-4.679-5.654
		c-0.349-0.482-0.187-1.501,0.036-2.175C246.231,155.499,246.896,155.206,247.371,154.805z"/>
	<path fill="#333333" d="M289.757,184.955c-0.599-0.296-1.168-0.388-1.274-0.66c-0.839-2.156-1.792-4.302-2.286-6.544
		c-0.262-1.189,0.561-1.978,1.877-0.869c1.183,0.997,2.627,1.78,3.529,2.978c0.545,0.725,0.595,2.172,0.277,3.091
		C291.601,183.763,290.504,184.293,289.757,184.955z"/>
	<path fill="#333333" d="M194.158,420.893c-0.611-0.059-1.297,0.039-1.817-0.21c-1.051-0.505-2.011-1.198-3.009-1.813
		c0.97,0.104,2.014,0.49,2.896,0.259c2.807-0.736,5.551-1.711,8.326-2.572c0.697-0.216,1.42-0.347,2.131-0.518
		c-0.283,0.749-0.358,1.906-0.886,2.175c-2.39,1.222-4.909,2.194-7.381,3.255C194.332,421.278,194.245,421.086,194.158,420.893z"/>
	<path fill="#333333" d="M289.28,393.124c-1.83-0.253-3.671-0.447-5.482-0.801c-0.455-0.089-0.81-0.688-1.211-1.052
		c0.531-0.204,1.069-0.593,1.593-0.574c1.33,0.048,2.652,0.402,3.978,0.408c2.127,0.01,4.55,0.357,4.9-2.824
		c0.025-0.228,0.341-0.425,0.521-0.636c0.269,0.27,0.632,0.493,0.793,0.817c1.21,2.431,0.16,4.236-2.604,4.472
		c-0.817,0.07-1.645,0.011-2.469,0.011C289.293,393.004,289.287,393.064,289.28,393.124z"/>
	<path fill="#333333" d="M204.82,328.282c1.047,0.089,1.361,0.181,1.647,0.128c0.751-0.141,1.49-0.346,2.233-0.526
		c-0.232,1.271-0.037,2.958-0.785,3.727c-1.531,1.574-3.555,2.678-5.418,3.911c-0.23,0.152-0.915,0.036-1.037-0.168
		c-0.165-0.274-0.139-0.89,0.069-1.12c0.746-0.825,1.76-1.442,2.37-2.343c0.522-0.772,0.647-1.82,0.91-2.756
		C204.881,328.879,204.82,328.585,204.82,328.282z"/>
	<path fill="#333333" d="M275.796,282.019c-3.131-1.037-5.965-1.943-8.764-2.944c-0.353-0.126-0.527-0.755-0.784-1.15
		c0.412-0.249,0.808-0.664,1.239-0.705c0.584-0.055,1.212,0.122,1.793,0.295c2.237,0.667,4.483,1.313,6.679,2.099
		c0.636,0.228,1.113,0.898,1.663,1.365C276.98,281.345,276.337,281.711,275.796,282.019z"/>
	<path fill="#333333" d="M269.452,30.635c-1.575,1.442-2.547,2.911-3.827,3.263c-0.645,0.177-1.847-1.669-2.797-2.6
		c1.327-0.903,2.585-1.959,4.027-2.605C267.227,28.525,268.176,29.646,269.452,30.635z"/>
	<path fill="#333333" d="M215.745,249.747c-0.921-1.842-1.962-3.637-2.702-5.549c-0.28-0.722-0.126-2.289,0.282-2.475
		c1.273-0.578,2.636-0.512,3.061,1.372c0.385,1.707,0.882,3.39,1.36,5.074c0.648,2.284-0.382,2.314-2.034,1.543L215.745,249.747z"/>
	<path fill="#333333" d="M205.399,233.001c0.676-0.525,1.005-0.947,1.425-1.077c1.499-0.462,3.595-0.394,2.241-2.996
		c-0.037-0.07,0.436-0.577,0.576-0.538c0.644,0.18,1.644,0.337,1.805,0.767c0.516,1.383,0.775,2.876,0.956,4.348
		c0.019,0.154-1.13,0.634-1.744,0.647c-1.181,0.025-2.375-0.119-3.545-0.308C206.618,233.764,206.172,233.394,205.399,233.001z"/>
	<path fill="#333333" d="M263.424,173.236c-1.091-0.233-1.602-0.299-2.086-0.453c-1.437-0.458-2.863-0.951-4.294-1.43
		c2.001-0.516,3.99-1.085,6.011-1.502c0.377-0.078,0.852,0.574,1.328,0.677c1.117,0.243,2.262,0.357,3.395,0.523
		C266.194,171.847,264.608,172.642,263.424,173.236z"/>
	<path fill="#333333" d="M215.811,328.351c0.679,0.753,0.98,1.086,1.28,1.419c-2.215,0.791,1.454,3.772-1.17,3.811
		c-1.69,0.025-3.405-1.566-5.108-2.433C212.425,330.245,214.038,329.343,215.811,328.351z"/>
	<path fill="#333333" d="M220.245,293.862c-0.825-0.876-1.722-1.437-1.66-1.855c0.093-0.624,0.756-1.452,1.361-1.662
		c2.565-0.891,5.195-1.592,7.807-2.343c0.366-0.105,0.766-0.097,1.15-0.141c-0.183,0.432-0.242,1.066-0.567,1.265
		C225.757,290.699,223.128,292.189,220.245,293.862z"/>
	<path fill="#333333" d="M279.285,114.623c-0.058-0.611-0.146-1.22-0.159-1.832c-0.005-0.261,0.148-0.524,0.229-0.787
		c0.228,0.185,0.508,0.332,0.675,0.562c1.576,2.168,0.711,9.726-1.367,11.692c-0.328,0.31-0.869,0.394-1.312,0.583
		c-0.054-0.548-0.275-1.143-0.134-1.635c0.807-2.819,1.7-5.613,2.563-8.416C279.615,114.735,279.45,114.679,279.285,114.623z"/>
	<path fill="#333333" d="M210.047,338.192c-0.695,2.686,1.097,3.839,3.168,4.848c0.421,0.205,0.741,0.617,1.108,0.934
		c-0.443,0.187-0.891,0.545-1.327,0.53c-1.527-0.051-3.055-0.194-4.569-0.397c-0.24-0.032-0.627-0.587-0.586-0.841
		c0.394-2.44,0.859-4.869,1.328-7.296c0.029-0.152,0.262-0.266,0.4-0.397c0.16,0.227,0.431,0.442,0.457,0.683
		C210.091,336.868,210.047,337.49,210.047,338.192z"/>
	<path fill="#333333" d="M260.156,146.293c0.805,1.231,2.087,2.398,2.266,3.714c0.145,1.065-1.039,2.311-1.633,3.477
		c-0.672-0.894-1.781-1.727-1.914-2.695c-0.192-1.399,0.322-2.896,0.534-4.351C259.658,146.39,259.907,146.341,260.156,146.293z"/>
	<path fill="#333333" d="M231.051,172.277c-1.118,1.029-1.946,1.974-2.946,2.67c-1.597,1.11-3.282,2.102-4.99,3.036
		c-0.436,0.239-1.095,0.07-1.652,0.089c0.083-0.618-0.044-1.61,0.283-1.795c2.736-1.541,5.552-2.939,8.359-4.35
		C230.242,171.858,230.52,172.071,231.051,172.277z"/>
	<path fill="#333333" d="M217.29,311.019c-0.683-0.628-1.539-1.099-1.487-1.43c0.13-0.839,0.601-1.657,1.078-2.391
		c0.149-0.229,0.787-0.301,1.139-0.21c1.579,0.411,3.137,0.906,4.702,1.371C220.98,309.213,219.238,310.066,217.29,311.019z"/>
	<path fill="#333333" d="M287.739,205.334c-0.44-2.701-0.931-5.395-1.284-8.107c-0.082-0.627,0.305-1.315,0.477-1.976
		c0.299,0.557,0.831,1.103,0.86,1.674c0.215,4.15,0.335,8.305,0.461,12.459c0.008,0.256-0.191,0.518-0.294,0.778
		c-0.107-0.266-0.286-0.526-0.308-0.799c-0.11-1.323-0.179-2.65-0.262-3.976C287.505,205.37,287.622,205.352,287.739,205.334z"/>
	<path fill="#333333" d="M202.478,378.165c-1.104-1.457-1.993-2.607-2.82-3.801c-0.036-0.052,0.653-0.786,0.76-0.731
		c1.565,0.812,3.088,1.705,4.621,2.578C204.403,376.696,203.768,377.181,202.478,378.165z"/>
	<path fill="#333333" d="M278.338,107.794c0.517-1.849,1.03-3.699,1.554-5.546c0.105-0.369,0.153-0.873,0.409-1.044
		c0.221-0.148,0.808-0.036,1.048,0.174c1.932,1.693,1.781,4.231-0.405,5.598c-0.733,0.458-1.711,0.522-2.577,0.767
		C278.366,107.744,278.338,107.794,278.338,107.794z"/>
	<path fill="#333333" d="M221.78,93.42c-0.416-1.222-0.874-1.955-0.702-2.161c1.122-1.341,2.381-2.567,3.594-3.831
		c0.37,0.52,1.158,1.364,1.045,1.511C224.621,90.355,223.374,91.655,221.78,93.42z"/>
	<path fill="#333333" d="M281.354,199.982c-0.63,0.59-0.89,0.919-1.225,1.132c-2.301,1.469-4.608,2.93-6.943,4.345
		c-0.284,0.172-0.745,0.05-1.124,0.064c0.164-0.235,0.281-0.535,0.5-0.696c2.218-1.628,4.425-3.275,6.709-4.807
		C279.677,199.749,280.422,199.982,281.354,199.982z"/>
	<path fill="#333333" d="M201.433,194.981c0.66-0.421,1.022-0.848,1.358-0.827c0.796,0.048,1.658,0.157,2.352,0.516
		c1.226,0.634,2.347,1.471,3.512,2.223c-1.571-0.063-3.17,0.026-4.702-0.253C203.157,196.494,202.479,195.699,201.433,194.981z"/>
	<path fill="#333333" d="M201.309,214.84c-0.333,1.911-0.522,3.444-0.905,4.927c-0.12,0.462-0.766,0.789-1.171,1.177
		c-0.173-0.536-0.543-1.096-0.481-1.603c0.187-1.522,0.462-3.045,0.871-4.521c0.161-0.583,0.766-1.043,1.169-1.56
		C201,213.895,201.207,214.529,201.309,214.84z"/>
	<path fill="#333333" d="M241.809,176.629c2.656,0,5.313-0.008,7.969,0.008c0.398,0.002,0.796,0.114,1.194,0.175
		c-0.437,0.111-0.882,0.196-1.309,0.339c-1.889,0.634-3.912,1.038-5.618,2.001c-1.608,0.908-2.415,1.315-2.373-1.033
		c0.006-0.34-0.112-0.719-0.284-1.016c-0.185-0.319-0.501-0.562-0.76-0.838c0.39-0.044,0.78-0.088,1.17-0.132
		C241.802,176.297,241.805,176.464,241.809,176.629z"/>
	<path fill="#333333" d="M216.327,184.614c1.21,1.575,1.335,3.124-0.012,4.718c-0.273,0.322-0.295,0.855-0.436,1.29
		c-0.208,0.639-0.418,1.278-0.627,1.917c-0.461-0.803-1.463-1.764-1.283-2.381c0.554-1.908,1.557-3.685,2.386-5.512L216.327,184.614
		z"/>
	<path fill="#333333" d="M198.283,392.55c0.512,0.053,1.053,0.018,1.521,0.185c0.837,0.299,1.631,0.721,2.443,1.092
		c-0.811,0.168-1.62,0.345-2.432,0.501c-0.894,0.172-1.792,0.441-2.69,0.449c-0.769,0.007-1.542-0.294-2.313-0.458
		c0.647-0.53,1.247-1.143,1.961-1.558C197.178,392.524,197.771,392.611,198.283,392.55z"/>
	<path fill="#333333" d="M202.894,198.405c1.763,0.595,3.454,1.043,5.023,1.759c0.581,0.265,1.194,1.164,1.191,1.771
		c-0.002,0.458-0.961,0.911-1.495,1.366c-0.135-0.505-0.118-1.303-0.431-1.466c-1.424-0.741-2.96-1.266-4.412-1.958
		c-0.372-0.177-0.588-0.682-0.876-1.037C202.238,198.691,202.584,198.541,202.894,198.405z"/>
	<path fill="#333333" d="M268.177,342.752c-0.886-0.309-1.44-0.502-1.995-0.696c0.424-0.359,0.806-0.793,1.28-1.063
		c1.157-0.657,2.33-1.305,3.554-1.821c0.555-0.234,1.245-0.147,1.874-0.206c-0.264,0.616-0.357,1.496-0.824,1.799
		C270.808,341.582,269.391,342.153,268.177,342.752z"/>
	<path fill="#333333" d="M226.32,91.534c0.417,0.81,1.114,1.602,1.165,2.435c0.043,0.696-0.669,1.438-1.047,2.16
		c-0.669-0.655-1.725-1.222-1.897-1.989c-0.167-0.743,0.574-1.69,0.916-2.548C225.745,91.573,226.033,91.554,226.32,91.534z"/>
	<path fill="#333333" d="M207.86,155.452c0.717,0.041,1.465-0.03,2.144,0.153c0.761,0.205,1.46,0.641,2.186,0.976
		c-1.042,0.443-2.055,1.021-3.142,1.264c-0.466,0.104-1.114-0.445-1.632-0.771c-0.878-0.552-1.718-1.163-2.574-1.749
		c1.006,0,2.013,0,3.019,0C207.86,155.367,207.86,155.41,207.86,155.452z"/>
	<path fill="#333333" d="M233.645,228.64c-0.396-0.202-0.791-0.404-1.187-0.607c-0.659-1.009-1.318-2.019-1.977-3.028
		c0.933-0.091,2.128-0.589,2.746-0.191C234.682,225.753,235.191,227.182,233.645,228.64z"/>
	<path fill="#333333" d="M280.88,371.882c-1.959,0.108-3.918,0.219-5.878,0.324c-0.372,0.02-0.745,0.021-1.118,0.031
		c0.203-0.322,0.33-0.799,0.62-0.941c1.463-0.716,2.912-1.609,4.472-1.939c2.028-0.429,3.065,0.384,1.843,2.561L280.88,371.882z"/>
	<path fill="#333333" d="M253.402,168.616c-0.305,2.607-2.481,4.748-4.525,4.381c-0.448-0.08-0.901-0.407-1.221-0.744
		c-0.088-0.092,0.211-0.753,0.481-0.95c1.467-1.075,2.974-2.096,4.487-3.107c0.203-0.135,0.516-0.106,0.778-0.152
		C253.402,168.234,253.402,168.425,253.402,168.616z"/>
	<path fill="#333333" d="M285.76,161.646c0.847,0.965,1.713,1.916,2.526,2.909c0.165,0.201,0.132,0.565,0.191,0.853
		c-0.257-0.015-0.516-0.061-0.77-0.038c-0.929,0.085-1.904,0.045-2.771,0.33c-1.208,0.397-2.335,1.043-3.497,1.582
		c0,0-0.014,0.022-0.014,0.022C282.871,165.418,284.315,163.532,285.76,161.646z"/>
	<path fill="#333333" d="M270.944,362.559c-0.547-0.288-1.307-0.688-2.068-1.088c0.735-0.207,1.459-0.474,2.207-0.609
		c1.308-0.237,2.627-0.454,3.95-0.549c0.399-0.029,0.829,0.375,1.245,0.58c-0.349,0.307-0.655,0.791-1.055,0.889
		C273.933,362.097,272.607,362.27,270.944,362.559z"/>
	<path fill="#333333" d="M272.857,366.885c0.337-0.043,0.948-0.178,1.56-0.179c0.361-0.001,0.723,0.211,1.085,0.328
		c-0.178,0.33-0.285,0.739-0.548,0.973c-0.533,0.476-1.108,0.952-1.749,1.245c-0.437,0.2-2.037,2.982-1.348-0.448
		c0.03-0.148-0.141-0.401-0.289-0.51c-0.66-0.488-1.345-0.942-2.022-1.409C270.558,366.885,271.568,366.885,272.857,366.885z"/>
	<path fill="#333333" d="M211.652,83.243c0.25-0.449,0.501-1.268,1.042-1.783c0.819-0.781,1.84-1.35,2.776-2.009
		c-0.487,0.822-1.093,1.599-1.43,2.479c-0.389,1.016-0.546,2.122-0.796,3.191c-0.134,0.575-0.252,1.154-0.378,1.731
		c-0.299-0.582-0.654-1.143-0.881-1.751C211.812,84.632,211.798,84.105,211.652,83.243z"/>
	<path fill="#333333" d="M270.067,312.333c-1.063-0.489-1.914-0.881-2.765-1.273c1.215-0.362,2.411-0.877,3.651-1.023
		c0.616-0.072,1.311,0.532,1.97,0.831C271.996,311.345,271.068,311.82,270.067,312.333z"/>
	<path fill="#333333" d="M228.348,95.628c0.727-1.027,1.037-1.464,1.347-1.902c0.948,1.548,1.907,3.09,2.803,4.668
		c0.032,0.057-0.78,0.7-0.81,0.671C230.562,97.966,229.482,96.819,228.348,95.628z"/>
	<path fill="#333333" d="M256.67,150.541c0.061-1.264-0.005-1.704,0.117-2.084c0.271-0.843,0.636-1.656,0.962-2.481
		c0.03,0.805-0.011,1.621,0.104,2.413c0.286,1.976,0.637,3.943,0.978,5.91c0.067,0.384,0.204,0.756,0.309,1.134
		c-0.384-0.23-0.991-0.378-1.113-0.705C257.425,153.105,256.95,151.434,256.67,150.541z"/>
	<path fill="#333333" d="M282.837,185.243c-0.214-0.654-0.525-1.296-0.605-1.966c-0.047-0.393,0.438-0.85,0.39-1.242
		c-0.082-0.673-0.395-1.317-0.61-1.974c0.494,0.305,1.201,0.495,1.437,0.937c0.512,0.955,0.907,2.018,1.093,3.082
		c0.081,0.463-0.467,1.037-0.729,1.56C283.487,185.508,283.162,185.376,282.837,185.243z"/>
	<path fill="#333333" d="M273.336,354.343c0.488,0.531,0.78,0.849,1.073,1.168c-0.991,0.779-1.947,1.612-3.001,2.293
		c-0.216,0.139-0.799-0.29-1.213-0.457C271.184,356.4,272.174,355.454,273.336,354.343z"/>
	<path fill="#333333" d="M282.226,381.993c-1.308-0.313-1.936-0.373-2.48-0.62c-0.533-0.242-0.979-0.676-1.463-1.025
		c0.52,0.045,1.094,0.255,1.551,0.106c1.507-0.492,2.985-1.083,4.444-1.707c0.363-0.155,0.614-0.574,0.916-0.872
		c0.089,0.482,0.422,1.216,0.227,1.404C284.327,380.339,283.105,381.267,282.226,381.993z"/>
	<path fill="#333333" d="M214.64,326.311c-0.673-0.57-1.22-1.033-1.768-1.495c0.764-0.347,1.525-0.952,2.293-0.96
		c0.639-0.007,1.286,0.687,1.93,1.07C216.357,325.342,215.619,325.759,214.64,326.311z"/>
	<path fill="#333333" d="M265.349,126.874c0.204-0.388,0.408-0.777,0.612-1.165c0.609,1.173,1.301,2.312,1.808,3.527
		c0.766,1.835,0.026,2.48-1.832,2.042l0.033,0.033C265.763,129.833,265.556,128.354,265.349,126.874z"/>
	<path fill="#333333" d="M218.871,190.28c0.873,1.437,2.122,2.873,0.021,4.325c0.001,0.001-0.149-0.088-0.15-0.088
		c-1.974-1.439-2.485-3.071-0.664-5.012C218.343,189.764,218.607,190.022,218.871,190.28z"/>
	<path fill="#333333" d="M278.85,274.086c0-0.103-0.016-0.209,0.002-0.309c0.163-0.902,0.331-1.802,0.498-2.703
		c0.111,0.801,0.268,1.6,0.324,2.405c0.135,1.948,0.251,3.899,0.304,5.85c0.009,0.347-0.323,0.703-0.498,1.054
		c-0.11-0.35-0.294-0.696-0.316-1.052c-0.11-1.748-0.177-3.498-0.26-5.247C278.885,274.084,278.868,274.085,278.85,274.086z"/>
	<path fill="#333333" d="M202.767,383.289c-0.898-0.46-1.482-0.759-2.065-1.058c1.119-0.454,2.219-0.971,3.37-1.32
		c0.325-0.099,0.8,0.296,1.206,0.464C204.456,382.002,203.636,382.627,202.767,383.289z"/>
	<path fill="#333333" d="M208.001,355.164c0.581,0.92,1.179,1.83,1.686,2.789c0.024,0.045-1.011,0.849-1.151,0.748
		c-0.837-0.609-1.628-1.323-2.266-2.134c-0.173-0.219,0.238-0.898,0.381-1.365C207.101,355.189,207.551,355.176,208.001,355.164z"/>
	<path fill="#333333" d="M230.496,180.331c0.433,0.706,0.72,1.01,0.819,1.366c0.244,0.88,0.484,1.776,0.571,2.68
		c0.078,0.821-0.049,1.661-0.086,2.493c-0.402-0.687-0.913-1.335-1.18-2.071c-0.346-0.952-0.559-1.966-0.701-2.971
		C229.868,181.475,230.196,181.068,230.496,180.331z"/>
	<path fill="#333333" d="M208.935,193.23c-0.344,0.022-0.633,0.102-0.894,0.047c-1.691-0.359-3.384-0.721-5.057-1.154
		c-0.291-0.075-0.492-0.495-0.735-0.755c0.263-0.131,0.572-0.425,0.782-0.366c1.849,0.517,3.683,1.09,5.513,1.674
		C208.687,192.721,208.763,192.977,208.935,193.23z"/>
	<path fill="#333333" d="M218.871,190.28c-0.264-0.258-0.528-0.516-0.793-0.775c0.45-1.425,0.9-2.85,1.35-4.275
		c0.385,0.401,0.77,0.802,1.155,1.203C220.7,188.022,221.287,189.819,218.871,190.28z"/>
	<path fill="#333333" d="M281.534,127.067c-1.085,0.634-1.746,1.211-2.493,1.358c-0.277,0.055-1.16-1.226-1.07-1.337
		c0.51-0.634,1.174-1.236,1.912-1.539C280.117,125.454,280.742,126.314,281.534,127.067z"/>
	<path fill="#333333" d="M220.583,186.434c-0.385-0.401-0.77-0.802-1.155-1.203c0.6-1.258,1.199-2.516,1.799-3.773
		c0.27,0.472,0.54,0.944,0.81,1.415C221.553,184.06,221.068,185.247,220.583,186.434z"/>
	<path fill="#333333" d="M277.882,41.787c-0.314,0.913-0.648,1.886-0.983,2.86c-0.135-0.773-0.407-1.553-0.372-2.319
		c0.049-1.059,0.329-2.106,0.511-3.159C277.297,39.973,277.557,40.777,277.882,41.787z"/>
	<path fill="#333333" d="M203.582,205.886c0.784-0.62,1.014-0.92,1.139-0.882c1.341,0.413,2.666,0.879,3.996,1.331
		c-0.483,0.262-1.015,0.806-1.44,0.732C206.19,206.877,205.152,206.412,203.582,205.886z"/>
	<path fill="#333333" d="M213.859,192.78c0.674,1.176,1.293,1.863,1.418,2.632c0.068,0.417-0.704,0.972-1.097,1.464
		c-0.457-0.725-1.048-1.405-1.308-2.195C212.758,194.335,213.321,193.766,213.859,192.78z"/>
	<path fill="#333333" d="M198.054,406.563c-0.874-0.122-1.423-0.084-1.865-0.283c-0.946-0.427-1.836-0.977-2.749-1.477
		c0.857,0.132,1.712,0.283,2.573,0.389c0.602,0.074,1.212,0.078,1.817,0.127c0.754,0.062,1.506,0.138,2.259,0.208
		C199.324,405.916,198.56,406.305,198.054,406.563z"/>
	<path fill="#333333" d="M202.729,323.031c-0.889,0.731-1.399,1.151-1.909,1.57c-0.411-0.756-0.863-1.496-1.18-2.289
		c-0.037-0.091,0.782-0.767,1.011-0.677C201.289,321.883,201.824,322.393,202.729,323.031z"/>
	<path fill="#333333" d="M204.022,389.175c-1.065,0.561-1.701,1.15-2.342,1.156c-0.555,0.005-1.117-0.65-1.676-1.014
		c0.874-0.364,1.729-0.796,2.634-1.047C202.886,388.201,203.284,388.674,204.022,389.175z"/>
	<path fill="#333333" d="M223.765,166.051c-0.478,0.702-0.84,1.234-1.202,1.765c-0.271-0.868-0.667-1.723-0.756-2.609
		c-0.04-0.397,0.534-0.856,0.829-1.287C222.995,164.598,223.354,165.276,223.765,166.051z"/>
	<path fill="#333333" d="M222.038,182.873c-0.27-0.472-0.54-0.943-0.81-1.415c0.833-0.636,1.666-1.272,2.499-1.907
		c0.199,0.326,0.639,0.852,0.56,0.946C223.589,181.332,222.8,182.091,222.038,182.873z"/>
	<path fill="#333333" d="M206.222,103.788c-0.265,1.476-0.518,2.883-0.771,4.29c-0.165-0.03-0.477-0.072-0.476-0.089
		c0.115-1.423,0.209-2.851,0.42-4.262c0.058-0.385,0.47-0.717,0.72-1.073C206.153,103.05,206.19,103.447,206.222,103.788z"/>
	<path fill="#333333" d="M263.288,164.526c-1.103,0.352-2.195,0.747-3.316,1.028c-0.296,0.074-0.68-0.201-1.024-0.316
		c0.885-0.626,1.716-1.365,2.681-1.821c0.371-0.175,1.046,0.295,1.583,0.471C263.238,164.101,263.263,164.313,263.288,164.526z"/>
	<path fill="#333333" d="M215.363,199.893c-0.925,0.373-1.556,0.832-1.784,0.681c-0.598-0.395-1.094-1.013-1.46-1.641
		c-0.092-0.157,0.462-0.69,0.719-1.051C213.419,198.345,214.001,198.809,215.363,199.893z"/>
	<path fill="#333333" d="M216.354,184.645c0.017-0.201-0.027-0.434,0.06-0.598c0.441-0.836,0.915-1.654,1.377-2.478
		c0.305,0.578,0.963,1.578,0.857,1.666c-0.681,0.571-1.528,0.942-2.322,1.379L216.354,184.645z"/>
	<path fill="#333333" d="M288.163,168.475c-0.774,0.689-1.15,1.218-1.649,1.392c-0.29,0.101-0.779-0.37-1.178-0.584
		c0.386-0.404,0.71-0.936,1.181-1.167C286.814,167.97,287.331,168.273,288.163,168.475z"/>
	<path fill="#333333" d="M219.915,170.298c-1.446,0.903-2.669,1.669-3.907,2.408c-0.016,0.009-0.381-0.44-0.344-0.488
		c0.864-1.11,1.762-2.194,2.653-3.283C218.494,169.086,218.672,169.237,219.915,170.298z"/>
	<path fill="#333333" d="M289.46,124.513c1.253-1.043,2.506-2.085,3.76-3.128c-1.028,1.455-2.02,2.938-3.121,4.335
		c-0.176,0.224-0.839,0.065-1.277,0.083C289.034,125.373,289.247,124.943,289.46,124.513z"/>
	<path fill="#333333" d="M264.748,227.367c-1.14,0.267-2.279,0.533-3.419,0.8c-0.036-0.352-0.073-0.704-0.109-1.055
		c1.169,0.097,2.338,0.195,3.507,0.292C264.726,227.402,264.748,227.367,264.748,227.367z"/>
	<path fill="#333333" d="M261.11,184.746c-0.517,0-1.044,0.065-1.546-0.02c-0.43-0.073-0.832-0.317-1.246-0.485
		c0.377-0.113,0.749-0.283,1.134-0.326c0.614-0.068,1.239-0.078,1.858-0.064c1.085,0.024,2.168,0.084,3.253,0.129
		c-1.124,0.357-2.248,0.715-3.372,1.072C261.163,184.95,261.137,184.848,261.11,184.746z"/>
	<path fill="#333333" d="M280.819,371.919c2.164,1.505-0.292,1.444-0.709,1.677c-0.747,0.417-1.707,0.453-2.578,0.648
		c0.691-0.499,1.378-1.002,2.073-1.494c0.419-0.297,0.849-0.578,1.274-0.867C280.88,371.882,280.819,371.919,280.819,371.919z"/>
	<path fill="#333333" d="M192.525,394.24c-0.331,0.845-0.771,1.97-1.211,3.096c0.067-1.188,0.074-2.383,0.224-3.56
		c0.084-0.657,0.405-1.283,0.619-1.923C192.259,392.511,192.36,393.169,192.525,394.24z"/>
	<path fill="#333333" d="M252.904,25.278l0.018,0.025L252.904,25.278z"/>
	<path fill="#333333" d="M257.257,40.11c-0.939,0.513-1.925,0.956-2.806,1.555c-1.226,0.834-2.408,1.748-3.477,2.767
		c-0.07,0.067,0.85,1.526,1.547,1.937c0.585,0.345,1.549-0.033,2.287,0.148c5.019,1.229,5.179,1.276,5.534,6.461
		c0.231,3.38,0.024,6.792-0.041,10.188c-0.011,0.597-0.101,1.394-0.481,1.751c-3.225,3.027-7.229,4.313-11.524,4.466
		c-3.19,0.113-4.84-2.254-5.612-4.933c-1.422-4.933-2.643-9.932-3.718-14.952c-0.531-2.479,0.242-4.28,3.408-3.894
		c1.096,0.134,2.253-0.168,3.375-0.324c0.649-0.09,1.283-0.287,1.924-0.436c-0.285-0.836-0.329-1.949-0.905-2.449
		c-1.215-1.056-2.637-1.947-4.104-2.622c-1.974-0.908-2.702-1.835-0.741-3.488c0.55-0.463,1.051-0.991,1.531-1.529
		c4.564-5.11,5.366-5.125,9.662,0.036c1.446,1.738,2.779,3.57,4.163,5.359L257.257,40.11z M247.581,63.388
		c-0.017-0.088-0.034-0.175-0.051-0.263c-0.8,0.177-1.6,0.355-2.399,0.532c0.829,0.515,1.6,1.215,2.502,1.502
		c1.368,0.435,6.482-2.616,6.661-3.879c0.034-0.24-0.394-0.752-0.666-0.798c-3.024-0.516-6.054-1.005-9.097-1.388
		c-0.455-0.057-0.984,0.466-1.478,0.721c0.483,0.316,0.931,0.809,1.457,0.916c1.505,0.305,3.048,0.416,4.563,0.678
		c0.816,0.141,1.606,0.437,2.407,0.663c-0.787,0.397-1.55,0.856-2.37,1.167C248.649,63.415,248.094,63.347,247.581,63.388z
		 M249.416,54.46c-1.049,0.107-1.456,0.139-1.86,0.192c-0.891,0.117-1.781,0.245-2.671,0.368c0.984,0.596,1.961,1.205,2.96,1.774
		c0.144,0.082,0.42,0.021,0.596-0.058c1.189-0.535,2.369-1.093,3.551-1.643C250.932,54.832,249.872,54.572,249.416,54.46z"/>
	<path fill="#333333" d="M257.278,40.15c0.398,0.042,1.068-0.042,1.154,0.144c2.737,5.913,5.22,11.899,4.367,18.653
		c-0.043,0.338-0.219,0.66-0.333,0.989c-0.087-0.393-0.179-0.785-0.261-1.18c-1.025-4.928-1.977-9.874-3.12-14.775
		c-0.317-1.359-1.203-2.584-1.828-3.871C257.257,40.11,257.278,40.15,257.278,40.15z"/>
	<path fill="#333333" d="M267.424,96.839c-0.125,0.49-0.196,0.767-0.266,1.043c-0.321-0.199-0.817-0.325-0.937-0.609
		c-1.661-3.94-3.277-7.899-4.88-11.863c-0.101-0.251-0.003-0.582,0.003-0.876c0.222,0.131,0.56,0.209,0.649,0.402
		C263.838,88.933,265.654,92.944,267.424,96.839z"/>
	<path fill="#333333" d="M245.323,87.291c-0.187,0.451-0.327,0.79-0.468,1.129c-0.256-0.282-0.642-0.522-0.747-0.851
		c-0.837-2.635-1.639-5.281-2.403-7.937c-0.131-0.455-0.027-0.977-0.031-1.469c0.422,0.396,1.069,0.717,1.23,1.201
		C243.777,81.984,244.53,84.645,245.323,87.291z"/>
	<path fill="#333333" d="M264.738,83.269c0,0.102,0.006,0.205-0.001,0.307c-0.074,1.045-0.151,2.089-0.227,3.134
		c-0.535-1.036-1.47-2.056-1.514-3.113c-0.071-1.688,0.449-3.402,0.719-5.104c0.477,1.556,0.954,3.112,1.431,4.668
		C265.01,83.197,264.874,83.233,264.738,83.269z"/>
	<path fill="#333333" d="M243.773,91.775c-0.275,0.608-0.588,1.3-0.9,1.991c-0.148-0.639-0.301-1.277-0.442-1.917
		c-0.416-1.892-0.86-3.78-1.223-5.682c-0.118-0.62-0.023-1.282-0.025-1.924c0.394,0.553,0.966,1.054,1.147,1.669
		C242.875,87.77,243.268,89.672,243.773,91.775z"/>
	<path fill="#333333" d="M239.742,72.506c0-0.346,0-0.155,0,0.036c-0.248-0.087-0.656-0.11-0.72-0.271
		c-0.903-2.258-1.77-4.531-2.605-6.815c-0.068-0.185,0.161-0.479,0.253-0.722c0.135,0.143,0.332,0.262,0.395,0.431
		C237.911,67.45,238.739,69.743,239.742,72.506z"/>
	<path fill="#333333" d="M246.984,100.524c-0.692-0.888-1.385-1.776-2.077-2.664c0.476-0.707,0.952-1.414,1.429-2.122
		c0.348,0.808,0.868,1.591,0.993,2.432C247.441,98.921,247.116,99.737,246.984,100.524z"/>
</g>
</svg>
