<?xml version="1.0" encoding="utf-8"?>
<!-- Generator: Adobe Illustrator 17.1.0, SVG Export Plug-In . SVG Version: 6.00 Build 0)  -->
<!DOCTYPE svg PUBLIC "-//W3C//DTD SVG 1.1//EN" "http://www.w3.org/Graphics/SVG/1.1/DTD/svg11.dtd">
<svg version="1.1" id="Calque_1" xmlns="http://www.w3.org/2000/svg" xmlns:xlink="http://www.w3.org/1999/xlink" x="0px" y="0px"
	 viewBox="0 0 314.869 421.47" enable-background="new 0 0 314.869 421.47" xml:space="preserve">
<g>
	<g>
		<path fill="#333333" d="M154.99,94.741c0.91-0.655,1.836-1.288,2.725-1.969c1.549-1.186,2.402-2.588,1.856-4.697
			c-0.241-0.929-0.032-2.027,0.172-3.006c0.443-2.122,0.513-4.219,0.002-6.329c0.284,0.011,0.568,0.022,0.851,0.033
			c0.781,1.487,1.546,2.983,2.384,4.437c0.047,0.082,0.697-0.183,1.066-0.287l-0.086,0.085c3.597-0.175,6.834-1.289,9.634-3.722
			c0.026-0.406,0.112-0.864,0.074-1.312c-0.182-2.159-1-2.83-3.073-2.508c-0.433,0.067-0.919,0.192-1.25,0.455
			c-1.304,1.035-3.141,0.922-4.31,2.5c-1.046,1.411-3.008,0.129-4.531,0.452c-0.226-0.013-0.451-0.026-0.677-0.039
			c-2.081-0.411-2.951-2.118-3.76-3.742c-0.78-1.565-1.64-2.956-3.055-4.056c-1.769-1.375-2.419-3.26-1.899-5.5
			c0.128-0.55,0.368-1.202,0.193-1.672c-1.222-3.293-0.606-6.677-0.554-9.293c-0.883-1.481-1.985-2.475-1.855-3.268
			c0.448-2.742-1.568-4.247-3.016-5.514c-2.231-1.953-2.683-4.843-4.561-6.887c-0.226-0.246-0.039-1.337,0.275-1.536
			c1.904-1.21,2.182-3.348,2.974-5.126c1.226-2.751,2.884-5.133,4.917-7.312c0.522-0.559,0.847-1.297,1.288-1.936
			c1.461-2.12,2.594-4.641,4.504-6.224c1.628-1.349,4.106-1.821,6.29-2.32c5.659-1.291,10.632,1.563,15.854,2.898
			c1.256,1.949,3.392,2.386,5.329,3.251c1.808,0.807,3.459,1.98,5.131,3.065c0.431,0.28,0.714,0.815,1.006,1.271
			c0.233,0.363,0.366,1.12,0.563,1.127c2.426,0.087,2.977,2.318,4.305,3.645c0.218,0.218,0.47,0.623,0.671,0.602
			c2.952-0.308,4.343,2.156,6.28,3.572c1.854,1.355,1.832,3.188,0.359,4.931c-1.31,1.55-2.507,3.195-4.086,5.225
			c-1.229,0.033-2.592,0.876-3.41,2.606c-0.215,0.455-0.832,0.719-1.265,1.071c1.426-2.423,2.808-4.874,4.288-7.263
			c2.024-3.267,1.577-4.392-2.201-5.241l0.1,0.1c-1.669-1.081-3.316-2.2-5.032-3.2c-0.266-0.155-0.851,0.24-1.289,0.381l0.091-0.085
			c-0.538-0.162-1.137-0.223-1.604-0.504c-2.522-1.516-4.928-3.249-7.534-4.599c-3.42-1.772-6.947-3.362-10.517-4.81
			c-1.278-0.518-1.964-1.326-2.546-2.409c-0.063-0.052-0.127-0.104-0.19-0.156c0.092,0.022,0.183,0.045,0.275,0.067
			c-0.132,0.952-0.755,1.386-1.638,1.371c-2.167-0.037-3.841,1.134-5.6,2.141c-0.561,0.321-1.208,0.491-1.815,0.73
			c-0.243-0.001-0.487-0.002-0.73-0.002c-0.455,0.487-1.006,0.916-1.35,1.472c-2.119,3.424-4.191,6.877-6.278,10.321
			c0.03-0.029,0.059-0.058,0.089-0.086c-0.712,1.171-1.424,2.342-2.136,3.513c-0.062-0.065-0.123-0.13-0.185-0.195
			c0.091,0.036,0.181,0.072,0.272,0.108c-0.209,0.884-0.489,1.758-0.603,2.654c-0.081,0.629-0.178,1.47,0.149,1.901
			c1.537,2.028,3.218,3.948,4.934,6.01c2.257-2.245,0.722-5.869,3.092-7.118c1.269,0,2.043,0,2.818,0
			c-0.589,0.524-1.177,1.047-2.148,1.91c1.967-0.579,3.33-1.231,4.738-1.346c3.705-0.305,7.429-0.376,11.146-0.54
			c0.261,0.2,0.521,0.401,0.164,0.126c0.446,0.057,0.101,0.013-0.244-0.031c-1.74-1.184-3.792-1.232-5.713-1.143
			c-2.691,0.124-5.36,0.711-8.038,1.1c0.463-0.891,2.241-1.466,0.683-2.842l0.087,0.097c5.9-3.647,11.614-2.598,17.24,0.682
			c-1.725,0.362-3.323-1.5-5.47-0.159c2.592,1.116,4.926,2.121,7.208,3.104c0.099,0.584,0.185,1.095,0.392,2.318
			c0.57-1.227,0.756-1.758,1.05-2.219c0.252-0.394,0.628-0.708,0.95-1.058c0.455,0.49,0.91,0.962,1.357-0.007
			c0.914-0.122,1.846-0.297,2.437,0.979c-0.218,1.043-0.469,2.242-0.719,3.44c2.047,1.729,4.088,3.453,6.321,5.34
			c-0.147-1.907,1.521-1.338,2.072-2.059c0.67-0.877,1.14-1.907,1.696-2.87c-0.117,1.564-0.076,3.138-1.477,4.322
			c-0.424,0.358-0.62,1.187-0.621,1.8c-0.001,1.013,0.099,2.073,0.407,3.033c1.428,4.446,2.419,8.956,2.462,13.651
			c0.005,0.53,0.274,1.081,0.511,1.58c0.997,2.104,0.877,2.67-0.955,4.172c-0.772,0.633-1.534,1.277-2.191,1.825
			c1.84,2.546,3.615,4.952,5.321,7.405c0.379,0.545,0.608,1.24,0.742,1.899c0.39,1.928,1.296,3.377,3.285,3.952l0.075-0.071
			c-2.882,0.641-3.208,0.974-2.462,3.482c0.914,3.069,1.731,6.175,0.958,9.323c-0.67,2.731-1.855,5.333-2.74,8.016
			c-0.139,0.422,0.099,0.97,0.163,1.459l-0.091-0.095c-0.72,0.864-1.44,1.729-2.26,2.713c2.064,2.804,4.19,5.792,6.423,8.697
			c1.903,2.475,2.633,4.821,0.84,7.836c-3.157,5.308-5.925,10.845-8.971,16.22c-3.047,5.375-6.244,10.664-9.351,16.005
			c-0.438,0.753-0.857,1.4-0.533,2.526c0.361,1.253,0.024,2.729-0.109,4.098c-0.273,2.817,0.279,5.651-0.252,8.479
			c-0.101,0.539,0.723,1.252,1.12,1.884l-0.048-0.058c-1.26,2.843-0.656,5.8-0.504,8.722c0.047,0.908,0.456,1.822,0.382,2.707
			c-0.108,1.289,0.906,1.711,1.512,2.46l0.059-0.068c-1.989,0.37-1.383,1.506-0.844,2.802c1.042-0.23,1.989-0.439,2.936-0.648
			l-0.102-0.096c-0.82,0.661-1.64,1.322-2.863,2.307c0,0.242-0.082,1.019,0.014,1.773c0.455,3.585,1.019,7.157,1.4,10.749
			c0.087,0.816-0.399,1.692-0.622,2.54l0.098-0.081c-0.978-1.463-1.103-3.093-1.141-4.807c-0.029-1.343-0.434-2.677-0.696-4.154
			c-4.192,0.45-8.266,0.886-12.585,1.35c-3.057-4.613-6.131-9.251-9.317-14.058c-3.022,4.233-5.808,8.136-8.602,12.05
			c-2.769-0.639-5.203-1.201-7.936-1.831c0.323-0.943,0.572-1.642,0.803-2.346c0.211-0.644,0.78-1.591,0.542-1.893
			c-1.186-1.503,0.242-2.615,0.363-3.896c0.094-0.999,0.171-2.001,0.245-3.002c0.008-0.108-0.117-0.26-0.075-0.328
			c1.974-3.258-0.104-6.68,0.411-9.994c0.24-1.542,0.476-3.085,0.771-4.996c0.479,0.727,0.716,1.088,0.999,1.518
			c0.073-0.389,0.273-0.769,0.175-1.043c-0.918-2.559-0.799-2.549-0.73-4.586c0.124-3.675,0.539-7.431-0.039-11.013
			c-0.574-3.554-2.192-6.946-3.41-10.388c-1.102-3.112-2.397-6.16-3.4-9.302c-1.349-4.224-2.506-8.509-3.734-12.772
			c-0.603-2.095-0.432-4.069,1.075-5.764c1.592-1.791,3.199-3.57,4.838-5.318c0.944-1.007,1.869-2.078,2.983-2.866
			c1.016-0.719,1.158-1.944,2.17-2.747c1.439-1.143,1.139-2.052-0.347-3.547l-0.095,0.076c0.265-0.269,0.53-0.539,0.795-0.808
			l-0.081,0.091c0.714-0.487,1.427-0.973,2.141-1.46l-0.077,0.088c0.462-0.96,0.924-1.919,1.386-2.879
			c0.228-0.449,0.457-0.898,0.685-1.347c0.081-0.144,0.162-0.288,0.243-0.433c-0.051,0.172-0.103,0.344-0.154,0.516
			c-0.356-1.438-0.713-2.876-1.053-4.25c-0.803,0-1.663,0-2.522,0l0.14,0.118c-0.272-0.271-0.543-0.542-0.815-0.813l0.074,0.071
			c0.47-0.266,0.94-0.531,1.409-0.797c0.014,0.087,0.014,0.18,0.048,0.259c0.021,0.049,0.095,0.075,0.145,0.112
			c-0.094-0.095-0.189-0.189-0.283-0.284c0.476-0.252,0.951-0.505,1.427-0.757c0.05,0.07,0.1,0.14,0.15,0.209
			c-0.078-0.042-0.157-0.083-0.235-0.125c0.718-0.462,1.435-0.923,2.153-1.385l-0.065-0.092c0.271,0.269,0.542,0.538,0.813,0.807
			l-0.112-0.079c0.367,0.303,0.735,0.606,1.102,0.909c0.209-0.367,0.528-0.715,0.595-1.107c0.065-0.378-0.13-0.801-0.21-1.204
			L154.99,94.741z M189.649,137.486c0.233,0.229,0.466,0.458,0.699,0.687c0.215,0.26,0.431,0.521,0.646,0.781
			c-0.175,0.638-0.35,1.277-0.695,2.538c1.187-1.44,1.187-1.44,0.584-2.438c0.008-0.289,0.016-0.578,0.024-0.868l0.217-0.097
			l-0.098,0.216c-0.254-0.013-0.508-0.026-0.763-0.04c-0.233-0.233-0.465-0.466-0.698-0.699c-0.164-0.07-0.328-0.141-0.491-0.211
			C189.265,137.399,189.457,137.442,189.649,137.486z M151.552,126.476c0.068,0.053,0.135,0.106,0.203,0.159
			c-0.093-0.027-0.186-0.053-0.279-0.08c-0.029-0.169-0.058-0.338-0.087-0.506c-0.104,0.069-0.207,0.139-0.311,0.208
			C151.235,126.33,151.393,126.403,151.552,126.476z M137.652,126.395c0.247-0.202,0.494-0.403,0.741-0.605
			c1.361,0.141,1.424-0.582,0.887-2.32c-0.411,1.194-0.617,1.791-0.822,2.388c-0.241,0.207-0.483,0.414-0.724,0.621
			c-0.05,0.056-0.099,0.112-0.149,0.167C137.607,126.563,137.629,126.479,137.652,126.395z M146.666,198.334
			c0.079-0.071,0.157-0.143,0.236-0.214c-0.049,0.101-0.097,0.201-0.146,0.302c-0.065,0.075-0.13,0.149-0.195,0.224
			C146.596,198.541,146.631,198.437,146.666,198.334z M161.918,92.591c0.067,0.06,0.135,0.119,0.202,0.179
			c-0.096-0.03-0.193-0.06-0.289-0.089c-0.062-0.085-0.125-0.169-0.187-0.254C161.736,92.481,161.827,92.536,161.918,92.591z
			 M148.073,158.951c0.053-0.071,0.106-0.143,0.158-0.214c-0.023,0.102-0.047,0.203-0.07,0.305c-0.071,0.055-0.142,0.11-0.213,0.165
			C147.989,159.121,148.031,159.036,148.073,158.951z M181.951,156.233c0.057,0.09,0.103,0.192,0.177,0.264
			c0.033,0.032,0.124,0.006,0.188,0.006c-0.148-0.061-0.296-0.122-0.444-0.183c-0.215-0.242-0.43-0.485-0.646-0.727
			c-0.061-0.072-0.122-0.144-0.184-0.216c0.085,0.048,0.17,0.096,0.255,0.144C181.516,155.759,181.734,155.996,181.951,156.233z
			 M163.97,86.375l0.163,0.176l-0.238-0.108c-0.229-0.231-0.457-0.462-0.686-0.694c-0.22-0.237-0.439-0.475-0.659-0.712
			c-0.028-0.085-0.043-0.178-0.09-0.251c-0.027-0.041-0.106-0.049-0.161-0.072c0.111,0.08,0.223,0.161,0.334,0.241
			c0.22,0.237,0.441,0.474,0.661,0.711C163.519,85.902,163.745,86.138,163.97,86.375z M181.963,152.767
			c0.047,0.085,0.082,0.182,0.146,0.251c0.031,0.033,0.119,0.013,0.181,0.017c-0.132-0.065-0.264-0.129-0.395-0.194
			c-0.017-0.177-0.035-0.355-0.052-0.532c-0.128,0.065-0.256,0.13-0.384,0.195C181.626,152.592,181.795,152.68,181.963,152.767z
			 M159.8,63.509c0.075-0.055,0.151-0.111,0.226-0.166c-0.046,0.085-0.093,0.169-0.139,0.254c-0.239,0.246-0.478,0.492-0.717,0.738
			c-2.75,0.196-1.901,2.45-2.723,4.331c1.083-0.229,1.702-0.293,2.272-0.495c1.204-0.428,0.16,1.575,1.349,1.143
			c0.471-0.73,0.597-1.695,2.118-1.358c1.132,0.251,2.484-0.492,3.738-0.793c0.016-0.248,0.031-0.497,0.046-0.745
			c-1.601-0.723-3.202-1.446-4.804-2.169c0.075-0.071,0.149-0.141,0.224-0.212c-0.046,0.1-0.092,0.2-0.139,0.3
			c-0.722,0.138-1.467,0.94-2.151-0.072C159.334,64.012,159.567,63.761,159.8,63.509z M188.897,140.274
			c0.047,0.1,0.083,0.209,0.147,0.297c0.034,0.047,0.119,0.058,0.18,0.085c-0.143-0.093-0.286-0.186-0.428-0.279
			c-0.07-0.082-0.14-0.165-0.21-0.247C188.689,140.178,188.793,140.226,188.897,140.274z M184.074,147.235
			c0.641-0.453,0.981-0.899-0.03-1.315l-0.135-0.194l0.193,0.138c0.017,0.487,0.035,0.975,0.052,1.462
			c-0.515-0.018-1.029-0.035-1.544-0.053c-0.127-0.274-0.255-0.548-0.382-0.822c-0.14,0.155-0.28,0.31-0.42,0.465
			c0.303,0.083,0.606,0.165,0.908,0.248C183.105,148.409,183.609,147.448,184.074,147.235z M143.348,130.753
			c-0.233,0.104-0.465,0.208-0.698,0.312c0.088,0.149,0.177,0.299,0.265,0.448c0.109-0.283,0.217-0.567,0.326-0.85
			c0.514-0.24,0.518-0.475-0.008-0.704c-0.958-1.262-0.958-1.262-2.916-0.096c1.37,0,2.202,0,3.035,0
			C143.35,130.161,143.349,130.457,143.348,130.753z M189.521,102.363c-0.033-0.35-0.066-0.701-0.099-1.051
			c-0.141,0.062-0.281,0.124-0.422,0.186c0.202,0.265,0.404,0.529,0.606,0.794c0.232,0.462,0.464,0.925,0.695,1.387
			c0,0.546,0,1.091,0,1.637c0.181-0.031,0.361-0.062,0.542-0.093c-0.211-0.489-0.422-0.978-0.633-1.468
			C189.982,103.291,189.751,102.827,189.521,102.363z M195.814,127.938c-0.36,0.034-0.721,0.067-1.081,0.101
			c0.067,0.151,0.134,0.302,0.201,0.453c0.272-0.207,0.544-0.413,0.815-0.62c0.234-0.242,0.468-0.484,0.701-0.726
			c0.332-0.223,0.98-0.561,0.947-0.653c-0.451-1.253-0.996-2.471-1.544-3.759c-0.601,0.425-1.034,0.73-1.466,1.036
			c-0.484-0.221-0.967-0.443-1.451-0.664c-0.455-0.275-0.91-0.55-1.594-0.963c0.252,1.923,1.105,0.878,1.694,0.851
			c0.47,0.236,0.939,0.471,1.409,0.707c0.009,0.713,0.019,1.426,0.028,2.139c-0.103,0.039-0.215,0.065-0.305,0.124
			c-0.049,0.032-0.061,0.121-0.09,0.184c0.099-0.135,0.198-0.271,0.296-0.406c0.41-0.333,0.82-0.665,1.25-1.015
			c0.295,0.821,0.592,1.651,0.89,2.481C196.281,127.452,196.047,127.695,195.814,127.938z M142.545,140.303
			c0.326-0.056,0.653-0.113,0.979-0.169c-0.097-0.117-0.194-0.233-0.291-0.35c-0.206,0.201-0.411,0.401-0.617,0.602
			c-0.266,0.154-0.532,0.308-0.798,0.462C142.061,140.666,142.303,140.484,142.545,140.303z M173.697,50.377
			c-0.029,0.029-0.057,0.058-0.086,0.087c-0.451-0.223-0.903-0.445-1.354-0.668c-2.505-2.773-6.034-3.498-9.664-1.953
			c0.236,1.407,1.444,1.494,2.337,1.301c2.552-0.554,4.949,0.063,7.379,0.593C172.772,49.95,173.234,50.164,173.697,50.377z
			 M143.241,133.455c-0.192,0.219-0.384,0.438-0.576,0.656c0.133,0.056,0.266,0.111,0.399,0.167c0.03-0.304,0.06-0.608,0.09-0.912
			C143.183,133.395,143.212,133.425,143.241,133.455z M182.592,66.244c0.274-0.109,0.548-0.218,0.821-0.327
			c-0.248,0.137-0.495,0.274-0.743,0.41C182.645,66.299,182.619,66.271,182.592,66.244z M159.84,183.148
			c0.057,0.07,0.115,0.139,0.172,0.209c-0.086-0.041-0.172-0.083-0.258-0.124c-0.057-0.282-0.113-0.564-0.064-0.322
			C159.555,182.699,159.697,182.923,159.84,183.148z M184.72,81.585c-0.294,0.095-0.588,0.191-0.225,0.073
			c-0.228,0.263-0.041,0.048,0.146-0.168c0.354-0.024,0.708-0.048,0.266-0.018C185.285,81.242,185.003,81.414,184.72,81.585z
			 M152.953,173.464c0.073,0.069,0.145,0.138,0.218,0.207c-0.102-0.039-0.204-0.079-0.306-0.118
			c-0.147-0.264-0.294-0.529-0.441-0.793C152.601,172.994,152.777,173.229,152.953,173.464z M181.356,161.878
			c-0.362,0.088-0.724,0.176-1.086,0.263c0.197,0.255,0.393,0.509,0.59,0.764c0.135-0.371,0.269-0.743,0.404-1.114
			c0.071-0.065,0.15-0.124,0.21-0.199c0.03-0.037,0.026-0.102,0.037-0.154C181.459,161.584,181.407,161.731,181.356,161.878z
			 M181.257,159.608c0.407,0,0.814,0,1.403,0c-0.331-0.692-0.531-1.111-0.731-1.529c-0.189,0.122-0.377,0.243-0.566,0.365
			c-0.02,0.409-0.04,0.819-0.059,1.228c-0.068,0.023-0.136,0.045-0.205,0.068C181.152,159.695,181.205,159.652,181.257,159.608z
			 M150.89,137.621c-0.387-0.025-0.775-0.05-1.162-0.076c0.385,0.226,0.77,0.453,1.155,0.679c-1.355,2.955-0.373,6.16-0.953,9.257
			c-0.567-0.217-1.089-0.416-1.61-0.615c-0.091,0.146-0.183,0.293-0.274,0.439c0.676,0.613,1.351,1.225,1.929,1.749
			c-0.251,1.652-2.702,0.517-2.517,2.401c-1.829,0.793-0.56,1.396,0.077,2.356c0.507-0.754,0.856-1.271,1.204-1.789
			c0.422,0.743,0.843,1.486,1.358,2.392c0.363-2.151,0.704-4.167,1.153-6.824c0.431,0.924,0.636,1.261,0.751,1.626
			c0.802,2.542,1.585,5.09,2.373,7.637c0.045,0.553,0.089,1.106,0.134,1.659c0.158-0.05,0.316-0.099,0.474-0.149
			c-0.235-0.477-0.47-0.954-0.704-1.431c-0.117-1.453-0.082-2.939-0.382-4.353c-0.745-3.512-1.669-6.985-2.467-10.486
			c-0.285-1.25-0.416-2.534-0.617-3.803c0.003-0.244,0.005-0.488,0.008-0.731c0.184-0.279,0.368-0.558,0.553-0.838
			c-0.103-0.049-0.207-0.098-0.31-0.147C151.004,136.923,150.947,137.272,150.89,137.621z M154.306,98.895
			c-0.235-0.015-0.47-0.03-0.705-0.044c-0.139-0.769-0.057-1.701-1.852-1.767c0.906,0.773,1.431,1.222,1.957,1.67
			c0,0.526,0,1.052,0,1.579c0.13,0.008,0.261,0.017,0.391,0.025c0.041-0.517,0.081-1.033,0.122-1.55
			C154.248,98.837,154.277,98.866,154.306,98.895z M148.778,156.881c0.568-0.268,1.667,0.099,1.322-1.537
			c-0.507,0.68-0.865,1.162-1.224,1.644c-0.358,0.056-0.716,0.112-0.272,0.043C148.252,157.333,148.515,157.107,148.778,156.881z
			 M151.536,129.291c-0.11-0.171-0.22-0.342-0.33-0.513c-0.108,0.179-0.216,0.358-0.325,0.537c-0.469-0.234-0.937-0.469-1.406-0.703
			c-0.046-0.079-0.084-0.165-0.143-0.233c-0.03-0.035-0.098-0.037-0.149-0.053c0.128,0.063,0.256,0.125,0.384,0.188
			c-0.473,0.721-0.947,1.442-1.42,2.164c-0.314,0.28-0.629,0.56-0.943,0.84c0.145,0.102,0.29,0.203,0.435,0.305
			c0.13-0.418,0.261-0.837,0.391-1.255c0.424,0.541,0.847,1.083,1.404,1.795c0.229-0.348,0.451-0.683,0.672-1.018
			c0.634-0.386,1.279-0.757,1.876-1.194C152.021,130.121,151.693,129.589,151.536,129.291z M184.028,139.626
			c0.452,0.463,0.904,0.926,1.885,1.931c-0.425-1.819-1.041-2.075-1.979-1.817c-0.045-0.587-0.089-1.174-0.166-2.189
			C182.941,138.755,181.791,139.639,184.028,139.626z M186.096,152.695c0.413-0.086,0.827-0.172,1.579-0.329
			c-0.515-0.566-0.836-0.918-1.529-1.68c0,1.049,0,1.561,0,2.073l-0.179,0.165L186.096,152.695z M161.869,183.79
			c1.299,0.145,1.916-0.64,2.494-1.751c-0.469-0.079-0.785-0.132-1.1-0.185c-0.381-1.281-1.248-1.434-2.402-1.057
			c0.208,0.555,0.397,1.061,0.529,1.412c0.746-0.17,1.359-0.31,1.973-0.449c-0.47,0.705-0.94,1.41-1.41,2.115
			c-0.063,0.056-0.126,0.113-0.188,0.169C161.799,183.959,161.834,183.875,161.869,183.79z M193.659,131.4
			c-0.04-0.414-0.08-0.827-0.15-1.554c-0.78,0.72-1.321,1.219-2.24,2.067c0.978,0.044,1.388,0.063,1.799,0.082
			c0,0.484,0,0.967-0.001,1.451c-0.167,0.288-0.335,0.576-0.502,0.865c0.177,0.067,0.354,0.133,0.531,0.2
			c-0.052-0.391-0.105-0.782-0.157-1.173c1.059-0.48,2.117-0.959,3.562-1.613C195.209,131.576,194.434,131.488,193.659,131.4z
			 M147.317,136.984c-0.041-0.441-0.082-0.882-0.123-1.323c-0.165,0.062-0.33,0.124-0.494,0.187c0.24,0.348,0.481,0.697,0.721,1.046
			c0.828,1.83-1.327,1.888-1.661,3.295c0.86-0.305,1.72-0.611,2.427-0.862c0.037-0.691,0.171-1.267,0.051-1.784
			C148.182,137.298,147.639,137.166,147.317,136.984z M185.428,132.771c-1.159,0.105-2.323,0.2-2.825,1.691
			c0.666,0.319,1.331,0.638,2.323,1.114c0.165-1.173,0.286-2.037,0.408-2.902c0.098-0.018,0.203-0.021,0.292-0.061
			c0.052-0.024,0.078-0.107,0.116-0.163C185.637,132.557,185.533,132.664,185.428,132.771z M179.925,58.716
			c-0.02,0.669-0.007,1.341-0.07,2.006c-0.048,0.509-0.192,1.008-0.404,2.067c1.77-1.943,2.049-3.759,2.452-5.786
			c-1.137-0.034-1.813,0.067-1.985,1.08c-0.377,0.251-0.754,0.501-1.131,0.752C179.165,58.795,179.545,58.755,179.925,58.716z
			 M191.288,81.932c-0.916-0.345-1.754-0.661-2.127-0.801c-3.495,0.669-4.369,3.805-6.672,5.367
			c-0.991,0.672-0.84,2.229,0.269,3.612c1.771-1.199,3.438-2.326,5.172-3.5c0.238,0.727,0.445,1.36,0.557,1.701
			C189.356,86.331,190.25,84.294,191.288,81.932z M189.51,89.642c-1.607,1.823-2.802,3.178-3.952,4.482
			c1.022,1.988,2.002,3.894,3.008,5.854c0.749-0.377,1.345-0.678,2.272-1.145C187.915,96.207,190.575,92.954,189.51,89.642z
			 M169.741,54.329c0.69-0.525,1.54-0.842,1.724-1.384c0.356-1.049-0.453-1.705-1.41-1.928c-0.978-0.227-2.018-0.448-2.993-0.335
			c-0.678,0.078-1.401,0.624-1.886,1.158c-0.234,0.258-0.134,1.109,0.13,1.436c0.207,0.256,0.902,0.16,1.377,0.14
			c0.296-0.013,0.648-0.33,0.867-0.242C168.224,53.442,168.845,53.841,169.741,54.329z M153.655,56.262
			c3.881,0.594,4.79-0.134,5.043-3.837C156.24,51.796,155.336,52.449,153.655,56.262z M164.571,138.139
			c0.941,0.038,2.127-1.26,2.086-2.283c-0.036-0.888-1.093-1.692-2.252-1.703c-1.11-0.01-1.686,0.592-1.778,1.652
			C162.516,137.084,163.377,138.09,164.571,138.139z M152.547,52.867c1.288-0.658,2.792-1.323,4.166-2.193
			c0.411-0.26,0.459-1.094,0.673-1.664c-0.493-0.183-1.033-0.599-1.472-0.51C153.6,48.966,152.694,50.31,152.547,52.867z
			 M165.44,159.081c-1.775-1.734-3.011-2.107-3.905-1.301c-0.659,0.593-0.553,2.121,0.194,2.799
			C162.698,161.459,163.557,161.137,165.44,159.081z M170.957,93.919c1.096-3.329,0.7-4.057-2.208-4.425
			c0.307,0.363,0.614,0.725,1.012,1.195c-0.824,0.378-1.381,0.634-1.883,0.865C167.798,93.795,169.276,93.87,170.957,93.919z
			 M187.829,131.333c1.16,0.227,1.942,0.643,2.346,0.409c1.261-0.731,0.69-1.904,0.537-2.976
			C188.567,128.204,189.001,130.174,187.829,131.333z M189.47,148.27c0.95-2.88,0.875-2.986-1.995-3.35
			C188.095,145.961,188.663,146.915,189.47,148.27z M182.757,144.515c-0.876-1.239,0.803-3.079-2.103-3.758
			C181.165,142.262,179.958,143.94,182.757,144.515z M181.815,137.939c-2.365-1.254-1.045-3.563-1.551-5.519
			C179.796,137.189,179.796,137.189,181.815,137.939z M185.688,125.205c-0.208,2.402-0.208,2.402,1.57,2.983
			C187.641,126.845,186.885,126.118,185.688,125.205z M190.577,108.893c-0.319,0.969-0.586,1.78-1.044,3.172
			c1.191-0.323,1.905-0.516,2.861-0.775C191.627,110.279,191.148,109.646,190.577,108.893z M185.449,146.048
			c0.093,1.662,0.285,2.901,1.762,3.715C187.804,148.001,187.314,146.899,185.449,146.048z M190.124,127.861
			c1.648-1.99-0.232-2.382-0.804-3.453C187.72,126.07,188.919,126.823,190.124,127.861z M185.904,79.691
			c1.942,0.743,2.18-0.182,2.242-1.263c0.021-0.362-0.112-0.733-0.236-1.458C187.157,77.993,186.654,78.675,185.904,79.691z
			 M160.727,145.946c0.093,0,0.186,0,0.279,0.001c0-1.913,0-3.826,0-5.739c-0.093,0-0.186,0-0.279-0.001
			C160.727,142.121,160.727,144.033,160.727,145.946z M180.059,190.737c0.1,0.052,0.199,0.104,0.299,0.157c0-1.941,0-3.882,0-5.822
			c-0.1,0.001-0.199,0.003-0.299,0.004C180.059,186.963,180.059,188.85,180.059,190.737z M146.222,124.778
			c0.472-0.637,0.887-0.989,0.989-1.416c0.056-0.233-0.42-0.593-0.655-0.895c-0.383,0.315-0.889,0.568-1.095,0.973
			C145.361,123.634,145.828,124.117,146.222,124.778z M183.996,73.351c1.413-1.489,1.413-1.489,0.724-3.474
			C184.405,71.384,184.2,72.367,183.996,73.351z M185.71,154.298c-1.494-0.165-1.896,0.555-2.224,1.621
			C185.196,156.427,185.269,155.332,185.71,154.298z M194.451,135.242c-0.499,0.929-0.779,1.451-1.11,2.067
			C195.455,137.136,195.455,137.136,194.451,135.242z M148.762,124.878c-1.675,0.778-1.847,1.473-0.792,2.601
			C148.209,126.694,148.417,126.01,148.762,124.878z M146.949,184.647c0.106-0.001,0.211-0.003,0.317-0.004
			c0.041-0.676,0.121-1.353,0.11-2.028c-0.008-0.528-0.129-1.054-0.199-1.582c-0.132,0.017-0.265,0.035-0.397,0.052
			C146.836,182.273,146.892,183.46,146.949,184.647z M160.264,59.009c-0.051,0.232-0.102,0.464-0.153,0.696
			c0.743,0.147,1.486,0.293,2.229,0.44c0.042-0.188,0.085-0.375,0.127-0.563C161.733,59.391,160.998,59.2,160.264,59.009z
			 M144.764,148.047c0.215,0.061,0.43,0.122,0.646,0.183c0.21-0.711,0.419-1.421,0.629-2.132c-0.217-0.062-0.434-0.125-0.65-0.187
			C145.18,146.623,144.972,147.335,144.764,148.047z M187.501,137.336c0.182-0.182,0.363-0.364,0.545-0.547
			c-0.553-0.474-1.106-0.947-1.658-1.421c-0.122,0.116-0.243,0.231-0.365,0.347C186.515,136.256,187.008,136.796,187.501,137.336z
			 M148.33,168.556c0.081,0.03,0.163,0.06,0.244,0.09c0-0.927,0-1.855,0-2.782c-0.081,0.003-0.163,0.006-0.244,0.009
			C148.33,166.767,148.33,167.662,148.33,168.556z M199.633,127.789c-0.094,0.033-0.188,0.067-0.282,0.1
			c0.211,0.587,0.421,1.174,0.632,1.761c0.175-0.067,0.349-0.134,0.524-0.202C200.216,128.896,199.925,128.343,199.633,127.789z
			 M148.045,143.864c0.212,0.12,0.425,0.241,0.637,0.361c0.213-0.516,0.426-1.031,0.64-1.547c-0.182-0.083-0.364-0.166-0.547-0.249
			C148.532,142.908,148.288,143.386,148.045,143.864z M150.676,118.967c-0.078-0.151-0.155-0.301-0.233-0.452
			c-0.426,0.231-0.853,0.462-1.28,0.693c0.067,0.131,0.133,0.262,0.2,0.392C149.801,119.389,150.239,119.178,150.676,118.967z
			 M195.572,134.183c-0.086-0.179-0.172-0.358-0.259-0.537c-0.19,0.091-0.38,0.183-0.57,0.274c0.123,0.22,0.247,0.441,0.37,0.661
			C195.266,134.449,195.419,134.316,195.572,134.183z M158.637,59.996c-0.343-0.169-0.628-0.431-0.84-0.381
			c-0.233,0.055-0.398,0.397-0.592,0.614c0.293,0.211,0.585,0.422,0.878,0.633C158.246,60.607,158.408,60.353,158.637,59.996z
			 M186.147,131.379c0.244-0.157,0.56-0.326,0.546-0.358c-0.117-0.28-0.293-0.537-0.451-0.8c-0.217,0.155-0.433,0.311-0.65,0.466
			C185.779,130.92,185.965,131.153,186.147,131.379z M186.878,143.317c-0.309-0.335-0.478-0.665-0.716-0.728
			c-0.17-0.044-0.434,0.272-0.656,0.428c0.174,0.237,0.303,0.581,0.535,0.676C186.207,143.762,186.509,143.496,186.878,143.317z
			 M190.566,135.511c-0.105,0.182-0.21,0.364-0.315,0.546c0.528,0.245,1.057,0.49,1.585,0.735c0.053-0.103,0.106-0.206,0.159-0.309
			C191.518,136.159,191.042,135.835,190.566,135.511z M145.847,126.895c-0.054-0.01-0.108-0.021-0.162-0.031
			c-0.052,0.184-0.138,0.366-0.147,0.551c-0.009,0.177,0.063,0.357,0.1,0.536C145.708,127.599,145.777,127.247,145.847,126.895z
			 M188.072,133.122c-0.165,0.145-0.385,0.26-0.373,0.342c0.027,0.183,0.13,0.43,0.275,0.5c0.141,0.069,0.374-0.05,0.566-0.087
			C188.392,133.637,188.244,133.398,188.072,133.122z M192.086,143.059c-0.183-0.068-0.398-0.23-0.54-0.18
			c-0.179,0.063-0.297,0.298-0.441,0.459c0.252,0.095,0.5,0.221,0.76,0.258C191.912,143.603,192.011,143.249,192.086,143.059z
			 M149.966,111.751c-0.154,0.094-0.404,0.164-0.436,0.289c-0.036,0.142,0.124,0.334,0.198,0.504
			c0.222-0.121,0.444-0.242,0.666-0.363C150.252,112.039,150.109,111.896,149.966,111.751z M140.594,133.293
			c0.137,0.68,0.194,0.962,0.251,1.245c0.178-0.062,0.357-0.124,0.535-0.186C141.201,134.11,141.021,133.868,140.594,133.293z
			 M150.99,115.585c-0.086,0.157-0.195,0.308-0.244,0.475c-0.013,0.046,0.197,0.224,0.236,0.204
			c0.159-0.079,0.291-0.211,0.433-0.324C151.275,115.822,151.134,115.703,150.99,115.585z M146.767,117.723
			c0.189-0.04,0.379-0.079,0.568-0.119c-0.08-0.382-0.16-0.763-0.24-1.145c-0.071,0.035-0.199,0.062-0.205,0.105
			C146.837,116.949,146.805,117.336,146.767,117.723z M149.322,135.693c-0.073-0.179-0.145-0.358-0.218-0.536
			c-0.069,0.072-0.206,0.158-0.194,0.213c0.04,0.188,0.132,0.365,0.204,0.546C149.183,135.841,149.252,135.767,149.322,135.693z
			 M178.812,88.023c0.054-0.219,0.082-0.338,0.111-0.456c-0.059,0.023-0.166,0.042-0.169,0.07
			C178.746,87.727,178.777,87.82,178.812,88.023z M151.261,170.941c0.026-0.091,0.074-0.184,0.068-0.273
			c-0.002-0.034-0.128-0.06-0.197-0.09c-0.027,0.09-0.076,0.183-0.069,0.27C151.067,170.884,151.192,170.91,151.261,170.941z
			 M180.297,170.696l-0.111-0.008l0.029,0.305L180.297,170.696z M156.056,176.041c-0.058,0.074-0.156,0.146-0.162,0.224
			c-0.006,0.086,0.072,0.178,0.114,0.267c0.058-0.075,0.156-0.147,0.163-0.226C156.178,176.221,156.098,176.13,156.056,176.041z
			 M153.379,130.73c-0.017-0.097-0.035-0.194-0.052-0.291c-0.055,0.029-0.157,0.057-0.158,0.087
			c-0.002,0.097,0.033,0.195,0.054,0.293C153.274,130.789,153.327,130.76,153.379,130.73z M192.124,119.118
			c0.022-0.102,0.044-0.204,0.066-0.306c-0.122,0.035-0.245,0.07-0.367,0.105c0.028,0.094,0.056,0.187,0.084,0.281
			C191.979,119.171,192.052,119.144,192.124,119.118z M145.973,134.085c-0.105-0.151-0.209-0.303-0.314-0.454
			c-0.081,0.08-0.239,0.171-0.23,0.239c0.028,0.209,0.119,0.41,0.186,0.614C145.734,134.351,145.853,134.219,145.973,134.085z
			 M177.594,51.117c-0.049-0.101-0.099-0.202-0.148-0.302c-0.067,0.088-0.206,0.198-0.187,0.261c0.039,0.131,0.162,0.237,0.25,0.353
			C177.536,51.325,177.565,51.221,177.594,51.117z M177.236,48.68l-0.293,0.087l0.291,0.107L177.236,48.68z M192.843,139.73
			c-0.039-0.082-0.078-0.164-0.117-0.246c-0.055,0.043-0.164,0.107-0.156,0.126c0.047,0.126,0.12,0.243,0.185,0.363
			C192.784,139.892,192.814,139.811,192.843,139.73z M180.244,128.947c0.072,0.079,0.156,0.233,0.213,0.224
			c0.192-0.032,0.375-0.122,0.562-0.189c-0.068-0.085-0.152-0.249-0.201-0.239C180.62,128.781,180.434,128.874,180.244,128.947z
			 M150.65,114.51c-0.27-0.172-0.436-0.278-0.602-0.385c-0.11,0.179-0.22,0.357-0.33,0.536
			C149.998,114.616,150.279,114.57,150.65,114.51z M161.845,20.463c0.085-0.015,0.17-0.029,0.254-0.044
			c-0.07-0.042-0.137-0.108-0.212-0.12c-0.08-0.013-0.167,0.025-0.252,0.041C161.705,20.381,161.775,20.422,161.845,20.463z
			 M164.282,19.644c-0.176,0-0.353,0-0.53,0c0.074,0.055,0.141,0.134,0.225,0.158c0.083,0.024,0.185,0.004,0.273-0.019
			C164.272,19.778,164.272,19.688,164.282,19.644z M151.357,134.906c-0.042-0.092-0.084-0.184-0.126-0.275
			c-0.065,0.076-0.195,0.17-0.18,0.225c0.032,0.118,0.139,0.215,0.215,0.321C151.296,135.086,151.327,134.996,151.357,134.906z
			 M142.845,143.593c-0.027,0.091-0.054,0.182-0.082,0.274c0.121,0.013,0.242,0.026,0.363,0.038
			c-0.02-0.095-0.018-0.204-0.067-0.281C143.035,143.584,142.92,143.601,142.845,143.593z M159.664,95.427
			c-0.048-0.099-0.095-0.197-0.143-0.296c-0.068,0.084-0.207,0.191-0.189,0.248c0.041,0.127,0.16,0.23,0.247,0.343
			C159.607,95.624,159.635,95.525,159.664,95.427z M179.586,150.422c-0.042,0.078-0.106,0.152-0.119,0.235
			c-0.014,0.089,0.021,0.184,0.035,0.277c0.044-0.079,0.112-0.153,0.125-0.237C179.641,150.61,179.602,150.514,179.586,150.422z
			 M186.585,122.398c-0.048-0.088-0.095-0.175-0.143-0.263c-0.069,0.051-0.203,0.131-0.195,0.15c0.058,0.136,0.145,0.26,0.223,0.388
			C186.509,122.581,186.547,122.49,186.585,122.398z M152.031,122.226c-0.068-0.079-0.136-0.159-0.204-0.238
			c-0.083,0.172-0.187,0.339-0.236,0.52c-0.014,0.054,0.127,0.15,0.197,0.226C151.869,122.565,151.95,122.396,152.031,122.226z
			 M147.171,144.136l-0.158-0.114l-0.024,0.183L147.171,144.136z M183.736,153.263l0.124-0.174l-0.218-0.019L183.736,153.263z
			 M156.718,97.38c0.085-0.067,0.171-0.134,0.256-0.201c-0.075-0.079-0.145-0.214-0.225-0.22c-0.079-0.006-0.169,0.118-0.254,0.186
			C156.57,97.223,156.644,97.301,156.718,97.38z M180.816,193.867l0.138,0.123l0.032-0.197L180.816,193.867z M144.977,121.12
			l-0.134,0.239l0.231,0.018L144.977,121.12z M144.471,125.428c-0.068-0.071-0.131-0.192-0.2-0.196
			c-0.069-0.003-0.144,0.111-0.216,0.174c0.103,0.068,0.207,0.136,0.31,0.204C144.402,125.547,144.439,125.483,144.471,125.428z
			 M145.048,131.487l-0.132,0.194l0.221,0.024L145.048,131.487z M181.641,131.537l-0.117,0.182l0.186,0.024L181.641,131.537z
			 M183.715,131.477l-0.13,0.238l0.219,0.019L183.715,131.477z M197.557,131.514l-0.106,0.164l0.17,0.021L197.557,131.514z
			 M187.823,135.353l0.101-0.189l-0.159-0.018L187.823,135.353z M143.137,136.547c-0.054-0.075-0.108-0.151-0.162-0.226
			c-0.069,0.062-0.187,0.118-0.195,0.187c-0.008,0.068,0.094,0.149,0.148,0.225C142.998,136.67,143.068,136.609,143.137,136.547z"/>
		<path fill="#333333" d="M234.482,93.323c-0.104,0.43-0.07,0.996-0.336,1.269c-1.769,1.819-2.042,3.969-1.519,6.52
			c2.515,1.843,5.099,3.736,8.571,4.07c1.254,0.121,2.459,0.98,3.639,1.593c1.423,0.739,2.718,1.691,4.249,0.05
			c0.422-0.452,1.452-0.337,2.212-0.484c1.283,2.271,0.439,4.59-0.555,5.958c-1.376,1.893-1.516,3.992-2.341,5.936
			c-0.221,0.32-0.441,0.639-0.662,0.959c0.104,0.059,0.209,0.118,0.313,0.177c0.08-0.412,0.161-0.824,0.241-1.235
			c0.873,0.006,1.74,0.142,1.107,1.292c-0.458,0.833-1.185,1.518-1.792,2.269c0.185-0.871,0.026-1.5-1.094-1.623
			c0,0.929,0,1.72,0,2.743c0.529-0.548,0.842-0.871,1.154-1.195c-0.052,2.825-0.194,5.629-1.8,8.799
			c-0.634-1.096-0.94-1.625-1.258-2.173c-0.148,0.048-0.381,0.059-0.517,0.179c-2.082,1.835-2.079,1.839-2.35,4.195
			c0.919-0.95,1.568-1.62,2.288-2.365c0.59,0.252,1.303,0.556,2.182,0.931c-0.262,0.615-0.472,1.108-0.682,1.602
			c-0.021-0.1-0.021-0.212-0.069-0.297c-0.028-0.049-0.132-0.055-0.202-0.08c0.12,0.097,0.239,0.194,0.359,0.291
			c-0.029,0.932-0.058,1.865-0.087,2.797l0.103-0.097c-0.874,0.315-0.883,1.785-2.354,1.522c-0.57-0.102-1.351,0.973-2.552,1.918
			c-1.829-0.156-4.492,1.479-6.975-0.488c0.031-0.621,0.062-1.242,0.129-2.584c-0.746,1.353-0.974,1.963-0.016,2.483
			c-1.516,1.378-3.147,0.566-4.752,0.252c-0.219-1.904-1.112-0.229-1.673-0.316c-0.869-0.135-1.928-0.015-2.558-0.478
			c-0.877-0.644-0.372-1.586,0.133-2.441c0.232-0.393-0.103-1.09,0.059-1.568c0.072-0.213,0.737-0.225,1.133-0.328
			c0.212-0.016,0.424-0.032,0.636-0.047c0.034,0.035,0.067,0.071,0.101,0.106c-0.276,0.013-0.552,0.027-0.829,0.04
			c-2.38-2.631-1.278-5.536-0.66-8.402c0.283-0.122,0.565-0.244,0.848-0.366c-0.259,0.15-0.518,0.3-0.777,0.451
			c-0.084-0.078-0.246-0.162-0.24-0.232c0.224-2.748-1.277-5.384-0.532-8.164c0.272,0.009,0.543,0.017,0.815,0.026
			c0.044,0.729,0.089,1.458,0.133,2.187c0.165-0.039,0.33-0.079,0.494-0.118c-0.237-0.658-0.474-1.315-0.712-1.973
			c-0.194-0.701-0.414-0.537-0.644-0.019c-1.156-2.666-2.358-5.313-3.444-8.007c-0.376-0.934-0.697-1.999-0.637-2.979
			c0.174-2.877-0.742-5.295-2.466-7.698c0.902,0.485,1.803,0.97,2.804,1.508c1.252-1.205,1.38-2.699,1.574-4.126
			c0.122-0.901,0.119-1.839,0.023-2.745c-0.496-4.71,0.706-9.047,2.85-13.172c1.453-2.796,1.997-5.565,0.243-8.464
			c-0.416-0.688-0.501-1.543,0.408-2.086c0.472,0.197,0.945,0.394,1.417,0.591c0.037-0.163,0.073-0.325,0.11-0.488
			c-0.539,0-1.078,0-1.617,0c0.406-1.523,0.897-3.03,1.201-4.573c0.861-4.373,3.827-7.568,6.194-11.252
			c0.806-0.103,1.706-0.262,2.613-0.326c2.223-0.158,4.14,0.243,5.496,2.354c0.965,1.502,1.991,3.079,4.075,3.438
			c0.513,0.088,0.922,0.9,1.337,1.413c2.197,2.717,4.385,5.442,6.568,8.171c1.353,1.69,1.812,3.736,1.701,5.775
			c-0.257,4.722,1.239,8.996,2.914,13.263c0.58,1.477,1.133,2.971,1.589,4.49c0.7,2.332,0.183,3.3-2.2,4.143
			c-1.034,0.366-2.128,0.56-3.179,0.828c-1.879-3.852-3.373-7.467-3.5-11.579c-0.058-1.894-1.155-3.777-1.113-5.65
			c0.051-2.286-3.107-2.051-2.16-4.646c-0.318,0.073-0.637,0.147-0.955,0.22c-0.914,1.598-2.378,3.11-2.641,4.809
			c-0.864,5.591-5.255,8.35-8.778,11.841c-0.241,0.239-0.495,0.465-0.742,0.697l-0.041,0.049c-0.053,0.086-0.165,0.187-0.149,0.256
			c0.04,0.165,0.14,0.316,0.216,0.473L234.482,93.323z M231.074,126.449c0.216,0.404,0.431,0.671,0.645-0.001
			c0.083-0.387,0.166-0.774,0.25-1.162c-0.287,0.181-0.575,0.363-0.862,0.544C231.095,126.037,231.084,126.243,231.074,126.449z
			 M227.575,87.044c0.242-0.221,0.485-0.441,0.727-0.662c1.782-1.14,3.196-2.522,3.177-4.873c-0.958-0.883-1.907-1.838-3.42-1.435
			c-0.133,0.882,1.213,1.388,0.046,2.448c-1.252,1.136-0.942,2.701,0.28,3.944c-0.24,0.223-0.481,0.445-0.721,0.668
			c-0.075,0.061-0.15,0.121-0.225,0.182C227.485,87.225,227.53,87.134,227.575,87.044z M227.601,115.508
			c-0.161,0.136-0.337,0.26-0.474,0.418c-0.034,0.039,0.061,0.188,0.097,0.287c0.101-0.259,0.202-0.518,0.303-0.777l0.192-0.111
			L227.601,115.508z M236.619,80.131c0.018,0.1,0.018,0.209,0.063,0.297c0.025,0.05,0.122,0.063,0.187,0.093
			c-0.112-0.102-0.224-0.203-0.337-0.305c-0.266-0.107-0.531-0.214-0.797-0.32C236.03,79.974,236.325,80.052,236.619,80.131z
			 M235.115,134.017c0.44-0.227,0.881-0.454,1.396-0.72c-0.659-0.744-1.058-1.744-1.974-0.565c-0.078,0.171-0.156,0.341-0.234,0.512
			c0.044-0.202,0.088-0.403,0.132-0.605c0.261,0.491,0.522,0.981,0.783,1.472c-0.092,0.16-0.184,0.32-0.276,0.48
			C235,134.401,235.058,134.209,235.115,134.017z M233.803,129.29c-0.295-0.158-0.591-0.316-0.886-0.474
			c-0.053,0.186-0.105,0.371-0.158,0.557c0.366-0.054,0.733-0.108,1.099-0.163c0.122,0.648,0.244,1.296,0.448,2.376
			C235.416,129.998,234.557,129.666,233.803,129.29z M236.919,74.567c-2.809-1.937-4.722-4.479-8.132-3.673
			c0.427,1.795,2.13,1.426,3.126,1.935c0.941,1.82,1.82,3.518,2.926,5.657C235.656,76.947,236.259,75.81,236.919,74.567z
			 M239.509,72.222c1.997,1.756,0.966,4.747,2.293,6.986c0.375-0.204,1.052-0.374,1.084-0.624c0.181-1.444,0.431-2.938,0.232-4.356
			C242.88,72.536,241.793,72.114,239.509,72.222z M241.964,133.272c-0.781,0.401-1.576,0.558-1.723,0.955
			c-0.149,0.403,0.341,1.043,0.783,2.171C241.424,135.067,241.629,134.385,241.964,133.272z M230.567,134.722
			c0.072-0.153,0.145-0.305,0.217-0.458c-0.329-0.271-0.629-0.706-0.994-0.768c-0.403-0.069-0.864,0.204-1.299,0.327
			c0.014,0.175,0.027,0.35,0.041,0.525C229.21,134.473,229.888,134.598,230.567,134.722z M237.134,124.399
			c0.814,0.486,1.295,0.772,2.285,1.362C238.943,124.344,238.675,123.721,237.134,124.399z M228.479,119.921
			c-0.139-0.141-0.278-0.281-0.417-0.422c-0.403,0.427-0.805,0.855-1.208,1.282c0.105,0.103,0.21,0.206,0.315,0.309
			C227.605,120.7,228.042,120.31,228.479,119.921z M243.048,134.344c0.039,0.179,0.079,0.357,0.118,0.536
			c0.181,0,0.412,0.071,0.534-0.015c0.251-0.176,0.443-0.435,0.659-0.66C243.921,134.252,243.484,134.298,243.048,134.344z
			 M235.465,128.48c0.275,0.207,0.529,0.4,0.784,0.592c0.084-0.195,0.291-0.482,0.227-0.568c-0.16-0.216-0.437-0.352-0.687-0.484
			C235.77,128.01,235.6,128.286,235.465,128.48z M225.71,114.361c-0.106-0.169-0.181-0.377-0.329-0.491
			c-0.084-0.064-0.287,0.026-0.436,0.046c0.072,0.179,0.099,0.428,0.232,0.515C225.29,114.506,225.526,114.393,225.71,114.361z
			 M237.047,118.959c0.022,0.193,0.044,0.386,0.067,0.579c0.38-0.075,0.76-0.151,1.141-0.226
			C237.852,119.194,237.449,119.077,237.047,118.959z M237.784,122.336c-0.16-0.05-0.376-0.188-0.467-0.13
			c-0.161,0.102-0.246,0.324-0.364,0.495c0.193,0.059,0.423,0.211,0.567,0.151C237.655,122.796,237.699,122.519,237.784,122.336z
			 M239.939,119.485c-0.056-0.078-0.112-0.156-0.168-0.235c-0.075,0.161-0.17,0.317-0.212,0.486c-0.015,0.061,0.1,0.154,0.155,0.232
			C239.789,119.808,239.864,119.646,239.939,119.485z M234.045,118.073c-0.034,0.104-0.067,0.208-0.101,0.312
			c0.132,0.01,0.264,0.019,0.396,0.029c-0.025-0.108-0.034-0.225-0.085-0.318C234.236,118.061,234.118,118.079,234.045,118.073z
			 M238.029,117.4c0.166-0.088,0.333-0.175,0.499-0.263c-0.066-0.083-0.132-0.237-0.198-0.237c-0.184,0.001-0.367,0.065-0.551,0.104
			C237.861,117.136,237.945,117.267,238.029,117.4z M239.678,137.838c0.08-0.065,0.238-0.15,0.227-0.192
			c-0.046-0.184-0.142-0.355-0.219-0.531c-0.081,0.067-0.241,0.154-0.23,0.198C239.501,137.495,239.598,137.664,239.678,137.838z
			 M227.291,135.116c-0.125,0.151-0.312,0.276-0.322,0.414c-0.013,0.175,0.118,0.361,0.187,0.542
			c0.139-0.105,0.391-0.208,0.393-0.317C227.552,135.566,227.404,135.373,227.291,135.116z M234.986,121.339l-0.222-0.135
			l-0.029,0.206L234.986,121.339z M245.486,121.283c-0.08-0.075-0.159-0.206-0.24-0.208c-0.081-0.002-0.165,0.125-0.248,0.196
			c0.076,0.078,0.15,0.213,0.229,0.217C245.306,121.491,245.391,121.363,245.486,121.283z M244.499,124.606
			c-0.076,0.057-0.152,0.113-0.228,0.17c0.063,0.071,0.12,0.193,0.189,0.2c0.069,0.007,0.15-0.1,0.226-0.157
			C244.624,124.748,244.561,124.677,244.499,124.606z M227.397,129.602l-0.188-0.13l-0.021,0.222L227.397,129.602z M233.713,134.485
			c-0.077-0.082-0.151-0.227-0.234-0.232c-0.084-0.005-0.177,0.127-0.267,0.199c0.082,0.08,0.161,0.22,0.247,0.224
			C233.544,134.68,233.636,134.548,233.713,134.485z"/>
		<path fill="#333333" d="M111.372,215.647c-0.095,0.209-0.322,0.466-0.266,0.62c0.987,2.725,1.795,5.574,4.572,7.157l-0.08-0.084
			c-0.686,1.328-1.276,2.719-2.084,3.969c-0.982,1.518-2.127,2.934-3.247,4.357c-0.345,0.439-0.998,0.677-1.244,1.146
			c-1.252,2.396-3.709,3.077-5.804,4.383c-2.127-1.186-4.638-1.54-6.08-3.733c-0.155-0.236-0.594-0.357-0.918-0.394
			c-0.55-0.063-1.113-0.017-1.919-0.017c-0.257,3.722-0.617,7.359-0.739,11.005c-0.342,10.243-0.527,20.491-0.885,30.733
			c-0.31,8.857-0.771,17.708-1.166,26.562c-0.021,0.46-0.052,0.92-0.065,1.381c-0.27,9.782-0.48,19.566-0.823,29.345
			c-0.303,8.627-0.753,17.249-1.139,25.873c-0.036,0.805-0.104,1.61-0.127,2.416c-0.268,9.322-0.472,18.646-0.809,27.965
			c-0.387,10.689-0.89,21.374-1.352,32.267c-0.898,0.092-1.661,0.261-2.416,0.229c-1.896-0.082-2.429-0.566-2.42-2.509
			c0.017-3.685,0.123-7.372,0.265-11.055c0.38-9.896,0.8-19.79,1.202-29.685c0.617-15.187,1.239-30.375,1.848-45.563
			c0.286-7.134,0.56-14.269,0.812-21.405c0.334-9.438,0.598-18.878,0.97-28.315c0.535-13.577,1.154-27.151,1.708-40.727
			c0.141-3.452,0.187-6.909,0.245-10.364c0.019-1.121,0.304-2.343-0.849-3.162l0.104,0.097c0.264-0.195,0.506-0.507,0.796-0.56
			c0.488-0.089,1.005-0.014,1.51-0.007c-0.697-1.119,1.062-1.035,0.939-1.965c-0.15-1.126,0.017-2.298-0.169-3.415
			c-0.254-1.525,0.21-2.641,1.419-3.57c2.282,1.267,1.972,3.088,1.485,5.252c0.561-0.643,1.122-1.285,1.743-1.997
			c0.705,0.532,1.399,1.056,2.049,1.547c1.773-1.212,1.773-1.212,2.138-3.667c0.461,0.157,0.909,0.309,1.363,0.463
			c0.077-0.272,0.251-0.549,0.175-0.673c-1.369-2.224-2.666-4.505-4.198-6.613c-1.016-1.399-1.751-1.351-3.307-0.351
			c0.349,0.142,0.656,0.266,0.962,0.39l-0.083-0.092c-0.371,2.852-1.25,3.752-3.883,3.973c-0.742,0.062-0.742,0.062-1.85,1.4
			c0.345,0.091,0.663,0.175,0.981,0.259l-0.088-0.088c-0.561,1.135-0.561,1.135-2.508,0.915c0.383-1.245,0.758-2.461,1.132-3.676
			c0.085-0.021,0.178-0.027,0.251-0.069c0.044-0.025,0.056-0.105,0.083-0.16c-0.085,0.103-0.17,0.206-0.255,0.308
			c-2.471,0.86-2.896,3.309-4.006,5.222c-2.47-1.514-2.648-2.205-1.548-5.913l-0.086-0.096c0.342,0.123,0.684,0.246,1.025,0.368
			c-0.091-0.356-0.182-0.711-0.273-1.067l0.058,0.061c0.682-0.479,1.364-0.959,2.045-1.438c0.055,0.061,0.111,0.121,0.166,0.182
			c-0.084-0.031-0.169-0.062-0.253-0.094c-0.071-0.334-0.143-0.668-0.264-1.236c1.681,1.13,2.075-1.634,3.608-0.931
			c0.261-2.397,2.633-1.772,4.074-2.855c0.492-0.968,0.532-2.239,1.544-3.347c1.691-1.851,2.752-4.312,3.282-6.804
			c0.454-2.133,1.637-3.057,3.621-3.486c1.089-0.235,2.228-0.643,3.125-1.281c1.511-1.074,2.908-0.881,4.549-0.389
			c2.263,0.678,3.734,2.38,5.499,3.712l0.073-0.07c-0.535,0-1.069,0-1.94,0c0.463,0.701,0.993,1.156,1.029,1.647
			c0.044,0.613-0.319,1.256-0.506,1.885l0.079-0.066c-0.257,0.024-0.515,0.048-0.772,0.072c-0.213-0.625-0.426-1.25-0.639-1.874
			c-0.505,1.463-0.505,1.463,0.719,1.79c0.228,0.502,0.456,1.004,0.683,1.506l-0.071-0.057c-0.009,0.47-0.018,0.94-0.026,1.41
			l0.103-0.094c-0.474-0.208-0.947-0.416-1.421-0.624c-0.585-0.672-1.21-1.13-1.945-0.211c-0.096,0.12-0.05,0.493,0.069,0.621
			c0.914,0.986,1.311-0.192,1.922-0.489c-0.028,0.48-0.055,0.96-0.083,1.441l0.096-0.074c-0.01,0.277-0.021,0.553-0.031,0.83
			l-0.068-0.07c-0.205,0.623-0.41,1.246-0.654,1.99c-0.791-0.477-1.424-0.858-2.057-1.239l-0.168-0.2l0.247,0.127
			c-0.252,1.183-0.505,2.366-0.757,3.549c-0.259-0.907-0.518-1.815-0.953-3.338c-0.457,1.935-0.921,3.229,0.758,4.47
			c0.067-0.579,0.105-0.897,0.142-1.215c1.68-1.203,3.301,0.209,4.956,0.11l-0.127-0.112c-0.439,0.475-0.879,0.95-1.318,1.425
			c-0.169,0.075-0.337,0.15-0.506,0.225c0.094,0.076,0.189,0.152,0.283,0.228c0.053-0.172,0.105-0.344,0.158-0.517
			c0.704,0.233,1.409,0.465,2.113,0.698c0,0,0.098-0.077,0.098-0.077c-0.972,0.507-1.945,1.013-2.917,1.52l0.109-0.069
			c-0.605,0.028-1.21,0.057-1.858,0.087c0.163,0.579,0.276,0.979,0.389,1.379l0.077-0.078c-1.108,1.735-1.102,1.764,0.67,2.865
			L111.372,215.647z M107.254,211.489c0.248-0.266,0.496-0.533,0.744-0.799c-0.15-0.087-0.3-0.174-0.449-0.261
			c-0.074,0.379-0.148,0.757-0.223,1.136c-0.294,0.094-0.589,0.188-0.883,0.282c0.133,0.109,0.266,0.218,0.399,0.327
			C106.98,211.946,107.117,211.718,107.254,211.489z M106.554,195.73c-0.019-0.094-0.024-0.193-0.062-0.278
			c-0.023-0.052-0.096-0.081-0.147-0.121c0.099,0.104,0.199,0.208,0.298,0.311c0.445,0.213,0.889,0.426,1.334,0.638
			c0.05-0.184,0.1-0.367,0.15-0.551C107.603,195.73,107.078,195.73,106.554,195.73z M108.621,198.507
			c-0.017-0.087-0.023-0.178-0.054-0.261c-0.019-0.052-0.073-0.09-0.112-0.134c0.087,0.102,0.173,0.203,0.26,0.305
			c0.069,0.665-0.186,1.571,1.365,1.345C109.479,199.245,109.05,198.876,108.621,198.507z M110.008,210.09
			c0.696,0.092,1.393,0.12,1.312-0.867c-0.015-0.178-0.507-0.316-0.779-0.473c-0.148,0.475-0.295,0.949-0.443,1.424
			c-0.101,0.044-0.217,0.071-0.296,0.139c-0.041,0.035-0.018,0.145-0.024,0.222C109.854,210.387,109.931,210.239,110.008,210.09z
			 M97.697,206.611c-0.001,0.103-0.024,0.213,0.006,0.306c0.019,0.059,0.117,0.092,0.179,0.137c-0.097-0.117-0.194-0.233-0.29-0.35
			c-0.072-0.534-0.143-1.068-0.23-1.712C96.245,206.364,96.245,206.364,97.697,206.611z M100.349,199.861
			c-0.066-0.346-0.133-0.692-0.053-0.274c-0.284-0.311-0.062-0.068,0.16,0.175c0.068,0.41,0.137,0.819,0.205,1.229
			c0.474-0.223,0.948-0.445,2.015-0.947C101.429,199.946,100.889,199.904,100.349,199.861z M102.427,224.652
			c1.504,0.046,2.017-0.926,1.937-2.17c-0.027-0.423-0.755-0.8-1.746-1.768c-0.061,1.849-0.097,2.927-0.133,4.005
			c-0.092-0.057-0.187-0.109-0.277-0.17c-0.387-0.265-0.773-0.533-1.159-0.8c0.046,0.446,0.016,0.919,0.161,1.33
			c0.14,0.394,0.463,0.724,0.706,1.082c-2.366,0.927-4.724,1.094-7.068-0.075c-0.292-0.382-0.584-0.764-0.969-1.266
			c-0.697,1.862,0.099,1.612,1.058,1.146c0.161,0.897,0.322,1.794,0.516,2.872c2.121-0.996,4.686-0.739,6.327-2.76
			C101.995,225.603,102.211,225.127,102.427,224.652z M107.462,200.278c-0.217,0.131-0.434,0.262-0.651,0.393
			c0.255,0.54,0.511,1.081,0.766,1.621c0.152-0.058,0.303-0.116,0.455-0.174C107.843,201.505,107.653,200.891,107.462,200.278z
			 M102.988,195.71c-0.127,0.157-0.253,0.313-0.38,0.47c0.216,0.228,0.393,0.55,0.657,0.657c0.284,0.114,0.65,0.026,1.682,0.026
			C103.872,196.23,103.43,195.97,102.988,195.71z M102.46,204.046c-0.041,0.091-0.082,0.181-0.123,0.272
			c0.389,0.224,0.777,0.448,1.166,0.673c0.058-0.115,0.117-0.231,0.175-0.346C103.272,204.445,102.866,204.246,102.46,204.046z
			 M107.072,193.262c-0.135,0.116-0.27,0.231-0.404,0.347c0.313,0.37,0.626,0.739,0.939,1.109c0.139-0.12,0.278-0.24,0.417-0.36
			C107.707,193.992,107.389,193.627,107.072,193.262z M110.27,197.222c-0.279,0.124-0.455,0.203-0.632,0.281
			c0.11,0.18,0.183,0.418,0.342,0.52c0.124,0.079,0.357-0.012,0.542-0.027C110.44,197.743,110.357,197.488,110.27,197.222z
			 M105.274,198.836c0.244-0.141,0.511-0.213,0.527-0.322c0.026-0.186-0.049-0.464-0.186-0.571c-0.11-0.086-0.373,0.025-0.569,0.049
			C105.117,198.257,105.189,198.52,105.274,198.836z M107.22,203.54c-0.35-0.299-0.582-0.497-0.814-0.696
			c-0.148,0.219-0.358,0.423-0.416,0.664c-0.029,0.119,0.246,0.45,0.343,0.434C106.598,203.9,106.842,203.725,107.22,203.54z
			 M108.951,211.98c-0.17,0.136-0.416,0.242-0.486,0.417c-0.05,0.125,0.138,0.344,0.219,0.521c0.217-0.161,0.433-0.322,0.65-0.483
			C109.206,212.283,109.079,212.131,108.951,211.98z M98.366,203.134c0.077-0.059,0.155-0.119,0.232-0.178
			c-0.163-0.079-0.32-0.18-0.491-0.225c-0.06-0.016-0.156,0.103-0.235,0.16C98.036,202.973,98.201,203.054,98.366,203.134z
			 M104.331,208.48c-0.1-0.136-0.202-0.386-0.301-0.384c-0.192,0.003-0.382,0.146-0.573,0.231c0.106,0.134,0.208,0.374,0.319,0.378
			C103.958,208.711,104.145,208.564,104.331,208.48z M96.629,224.858c0.036-0.101,0.072-0.202,0.108-0.303
			c-0.109,0.067-0.218,0.134-0.327,0.201C96.483,224.79,96.556,224.824,96.629,224.858z M109.725,195.179l-0.117,0.195l0.171,0.027
			L109.725,195.179z M102.667,202.87l0.182,0.13l0.028-0.208L102.667,202.87z"/>
		<path fill="#333333" d="M150.877,367.093c-1.902-3.893-3.636-7.88-5.749-11.655c-2.683-4.792-5.865-9.25-9.276-13.594
			c-3.303-4.207-5.957-8.937-8.733-13.536c-0.949-1.573-1.791-2.87-3.855-2.811c-0.218,0.006-0.461-0.824-0.692-1.267l-0.068,0.069
			c0.684-0.029,1.611-0.361,2.014-0.038c3.441,2.757,7.181,1.733,10.691,0.635c3.477-1.088,6.812-2.72,10.064-4.393
			c1.57-0.808,2.81-2.26,4.336-3.535c1.315,0.382,2.09,1.518,2.76,2.935c1.921,4.059,3.046,8.333,4.049,12.692
			c2.398,10.421,5.856,20.467,11.512,29.627c1.041,1.686,1.793,3.642,4.076,4.418c0.601,0.205,0.817,2.115,0.864,3.257
			c0.11,2.649-0.038,5.276-1.924,7.459c-0.741,0.858-1.325,1.853-1.978,2.788c-2.613,3.744-6.273,4.029-10.484,3.41
			c0.453-3.006,0.924-5.696,1.251-8.404c0.469-3.888-0.175-4.775-3.873-6.076c-1.718-0.604-3.381-1.365-5.068-2.055L150.877,367.093
			z"/>
		<path fill="#333333" d="M176.39,368.557c0.732,0.14,1.424,0.112,1.557-0.805c0.165-1.134,0.285-2.279,0.335-3.423
			c0.095-2.178,0.112-4.359,0.187-6.538c0.275-7.904,0.466-15.812,0.885-23.708c0.187-3.535,0.839-7.045,1.28-10.566l-0.095,0.092
			c1.905,0.958,4.122,1.185,5.829,2.669c0.525,0.456,1.516,0.447,2.305,0.512c1.142,0.094,2.311-0.055,3.439,0.104
			c3.037,0.427,5.632-0.626,8.114-2.188c0.936-0.589,1.896-1.141,3.071-1.846c-0.61,7.234-2.164,14.007-4.139,20.701
			c-2.301,7.797-4.582,15.6-6.888,23.396c-0.125,0.424-0.444,0.788-0.594,1.208c-0.818,2.292-2.354,4.384-1.776,7.071
			c0.114,0.531-0.46,1.211-0.735,1.863c-3.289-2.511-7.096-3.563-11.221-4.073c-0.399-1.575,0.584-3.608-1.437-4.586L176.39,368.557
			z"/>
		<path fill="#333333" d="M186.14,223.985c2.433,3.117,4.898,6.209,7.275,9.369c0.52,0.691,0.727,1.619,1.078,2.438
			c-0.422,0.159-0.844,0.319-1.265,0.478c0.088,0.15,0.175,0.3,0.263,0.449c0.303-0.343,0.606-0.686,0.909-1.029
			c1.095,0.527,1.326,1.35,1.006,2.497c-0.299,1.073-0.054,2.019,1.128,2.477l-0.093-0.089c-0.017,0.945-0.034,1.89-0.051,2.835
			l0.088-0.092c-1.586-2.097-3.166-4.199-4.759-6.291c-2.222-2.919-4.454-5.83-6.742-8.825c0.345-0.625,0.833-1.244,1.033-1.945
			c0.214-0.752,0.158-1.581,0.22-2.376L186.14,223.985z"/>
		<path fill="#333333" d="M140.535,100.938c1.419-0.83,2.771-1.824,4.279-2.432c0.983-0.396,2.193-0.231,3.301-0.318l-0.074-0.071
			c0.272,0.271,0.543,0.542,0.815,0.813l-0.14-0.118c0.189,0.248,0.326,0.612,0.576,0.724c1.991,0.892,1.968,0.857,0.854,2.459
			c-0.349,0.502-0.487,1.151-0.721,1.732l0.099-0.076c-1.328-0.252-2.571-0.338-2.868,1.449l0.082-0.084
			c-2.731,0.905-3.4,0.687-4.12-1.344l-0.096,0.067c0.381,0.076,0.761,0.152,1.471,0.294c-0.61-1.063-1.074-1.872-1.762-3.072
			c-0.21,1.017-0.319,1.546-0.428,2.076l0.068-0.1c-0.446-0.44-0.893-0.879-1.339-1.319l-0.1,0.085
			c0.003-0.284,0.005-0.569,0.008-0.853L140.535,100.938z M148.442,101.986c0.008-0.189,0.017-0.378,0.025-0.567
			c-0.63-0.095-1.261-0.19-1.891-0.285c0.15,0.668,0.392,0.979,0.672,1.018C147.63,102.204,148.042,102.051,148.442,101.986z
			 M147.621,99.647c-0.164-0.129-0.324-0.262-0.499-0.374c-0.011-0.007-0.206,0.186-0.187,0.236
			c0.068,0.177,0.192,0.332,0.295,0.496C147.361,99.887,147.491,99.768,147.621,99.647z M149.399,100.318
			c-0.088,0.053-0.176,0.105-0.263,0.158c0.053,0.079,0.107,0.159,0.16,0.238c0.129-0.091,0.258-0.182,0.387-0.273
			C149.588,100.4,149.494,100.359,149.399,100.318z M144.854,100.658c-0.022-0.065-0.027-0.167-0.07-0.187
			c-0.091-0.042-0.202-0.041-0.304-0.057c0.026,0.11,0.053,0.22,0.079,0.33C144.658,100.715,144.756,100.686,144.854,100.658z"/>
		<path fill="#333333" d="M204.122,104.353c-0.701,0.687-1.402,1.373-2.103,2.06l0.073,0.097c-0.277-0.005-0.554-0.01-0.831-0.015
			l0.077-0.09c-1.334-1.327-0.564-2.671-0.018-4.003c0.212-0.519,0.485-1.013,0.73-1.518l-0.083,0.075
			c2.226-0.111,2.485-0.307,2.864-2.171l-0.07,0.112c0.715,0.245,1.441,0.835,2.119-0.067l-0.073,0.053
			c0.803,0.157,1.606,0.315,2.626,0.515c-1.128,0.664-1.89,1.113-2.652,1.561l0.09-0.09c-0.961,0.3-1.922,0.601-3.019,0.943
			c0.402,0.65,0.816,1.319,1.246,2.013c-0.457,0.26-0.747,0.426-1.038,0.592c-0.043-0.201-0.025-0.457-0.144-0.59
			c-0.198-0.22-0.485-0.361-0.735-0.535c-0.097,0.16-0.315,0.392-0.27,0.467c0.141,0.234,0.353,0.459,0.591,0.589
			C203.661,104.439,203.912,104.359,204.122,104.353z"/>
		<path fill="#333333" d="M195.807,214.271c-3.624-1.329-6.737,1.037-10.132,1.562c0.196-0.865,0.356-1.573,0.517-2.282
			l-0.094,0.102c1.143,0.731,2.234,0.535,3.494,0.13c1.663-0.533,3.432-1.26,5.203-0.25c0.351,0.2,0.62,0.546,0.927,0.824
			L195.807,214.271z"/>
		<path fill="#333333" d="M206.88,98.833c-1.682-1.162-1.691-1.214-0.644-3.503l-0.079,0.095c1.98-0.738,2.381,1.193,3.431,2.028
			l0.086-0.085c-0.724,0.058-1.447,0.116-2.171,0.174c-0.022-0.09-0.029-0.188-0.071-0.268c-0.026-0.05-0.105-0.072-0.16-0.107
			c0.106,0.097,0.211,0.194,0.317,0.29c-0.261,0.476-0.522,0.952-0.783,1.428L206.88,98.833z"/>
		<path fill="#333333" d="M188.965,196.389c1.73-1.525,3.814-1.539,5.921-1.33c1.161,0.115,2.221,0.483,2.34,1.926l-0.167,0.112
			c-1.295-1.595-2.994-1.791-4.866-1.42c-1.104,0.219-2.214,0.411-3.321,0.615L188.965,196.389z"/>
		<path fill="#333333" d="M202.05,100.884c-0.77,0.027-1.293-0.083-0.616-0.983c0.251-0.333,0.429-0.722,0.64-1.085l-0.097,0.098
			c0.92-0.496,0.553-0.998,0.007-1.5l0.081,0.089c0.419-0.916,1.077-0.613,1.559-0.177c0.469,0.425,0.765,1.042,1.137,1.575
			l0.07-0.112c-0.955,0.724-1.909,1.447-2.864,2.171L202.05,100.884z"/>
		<path fill="#333333" d="M150.209,107.116c-1.618,0.063-3.274,0.188-3.47-2.099l-0.082,0.084c0.687,0.284,1.374,0.567,2.286,0.944
			c0.234-0.963,0.408-1.678,0.582-2.393l-0.099,0.076c0.494,0.199,0.989,0.397,1.483,0.596c-0.259,0.96-0.518,1.921-0.777,2.881
			L150.209,107.116z"/>
		<path fill="#333333" d="M90.308,223.437c-0.161-0.281-0.323-0.563-0.619-1.079c-0.238,0.649-0.431,1.175-0.624,1.702
			c-0.129-0.005-0.257-0.01-0.386-0.015c0.05-0.944,0.028-1.901,0.201-2.821c0.041-0.218,0.732-0.315,1.124-0.467
			c0.254,0.85,0.508,1.701,0.762,2.551C90.614,223.352,90.461,223.394,90.308,223.437z"/>
		<path fill="#333333" d="M191.612,217.121c0.676,0.08,1.357,0.13,2.027,0.246c2.196,0.379,2.481,0.152,2.864-2.372l-0.063,0.062
			c1.175,0.592,0.86,1.679,0.276,2.183c-0.71,0.613-1.827,1.038-2.759,1.023c-0.764-0.012-1.516-0.788-2.273-1.225L191.612,217.121z
			"/>
		<path fill="#333333" d="M131.54,228.845c0.923-1.365,1.845-2.729,2.768-4.094l-0.091-0.082c0.728,2.482-1.151,3.195-2.77,4.085
			L131.54,228.845z"/>
		<path fill="#333333" d="M85.893,224.648c-0.709-0.234-1.418-0.468-2.126-0.702l0.095,0.09c0.066-0.631,0.133-1.262,0.205-1.946
			c2.208,0.856,2.208,0.856,1.76,2.625L85.893,224.648z"/>
		<path fill="#333333" d="M117.034,216.398c0.069-0.552,0.138-1.105,0.225-1.796c0.935,0.43,1.714,0.789,2.493,1.148l-0.095-0.098
			c-0.22,0.439-0.439,0.878-0.659,1.318l0.076,0.079c-0.219-1.674-1.212-1.131-2.149-0.752L117.034,216.398z"/>
		<path fill="#333333" d="M188.196,197.699c-0.712-0.013-1.425-0.025-2.137-0.038l0.102,0.096c-0.241-0.48-0.482-0.961-0.724-1.441
			l-0.032,0.039c1.186,0.011,2.373,0.023,3.559,0.034l-0.093-0.097c-0.246,0.493-0.492,0.987-0.738,1.48L188.196,197.699z"/>
		<path fill="#333333" d="M202.627,93.966c0.231,0.478,0.463,0.956,0.81,1.675c-0.937-0.174-1.674-0.311-2.825-0.524
			c0.969-0.473,1.547-0.755,2.124-1.037L202.627,93.966z"/>
		<path fill="#333333" d="M187.431,180.377c0.223,0.511,0.445,1.021,0.668,1.532l0.086-0.101c-0.923-0.245-1.846-0.49-2.769-0.735
			l0.084,0.097c-0.004-0.487-0.009-0.973-0.013-1.46l-0.097,0.106c0.7,0.211,1.401,0.421,2.101,0.632L187.431,180.377z"/>
		<path fill="#333333" d="M112.087,211.568c0.603,1.383,0.095,2.385-1.14,2.193c-0.091-0.014-0.097-0.57-0.143-0.873l-0.077,0.078
			c0.49-0.489,0.979-0.977,1.469-1.466L112.087,211.568z"/>
		<path fill="#333333" d="M183.865,226.116c0.159-0.738,0.318-1.475,0.477-2.213c0.098,0.013,0.196,0.026,0.293,0.039
			c-0.036,0.768-0.073,1.535-0.109,2.303C184.307,226.201,184.086,226.159,183.865,226.116z"/>
		<path fill="#333333" d="M117.666,199.135c1.081,1.099,0.022,1.375-1.186,2.343c0.645-1.236,0.964-1.846,1.283-2.457
			L117.666,199.135z"/>
		<path fill="#333333" d="M117.763,199.022c-0.614,0.133-1.228,0.266-2.517,0.545c0.836-0.726,1.217-1.057,1.597-1.387
			c0.274,0.319,0.548,0.637,0.823,0.956L117.763,199.022z"/>
		<path fill="#333333" d="M197.226,196.985c1.221,1.017,0.171,1.625-0.772,2.808c0.283-1.259,0.444-1.978,0.605-2.696
			L197.226,196.985z"/>
		<path fill="#333333" d="M190.319,179.8c0.764-1.292,1.846-0.557,2.844-0.242c-0.968,0.055-1.936,0.11-2.904,0.165L190.319,179.8z"
			/>
		<path fill="#333333" d="M123.125,210.131c-0.089,0.674-0.177,1.348-0.266,2.022c-0.213-0.069-0.425-0.139-0.638-0.208
			c0.335-0.571,0.67-1.143,1.004-1.714L123.125,210.131z"/>
		<path fill="#333333" d="M190.26,179.724c-0.943,0.218-1.886,0.435-2.829,0.653l0.06,0.07c0.943-0.215,1.886-0.431,2.828-0.646
			L190.26,179.724z"/>
		<path fill="#333333" d="M185.416,181.072c-0.932,0.237-1.864,0.473-2.795,0.71l0.048,0.058c0.944-0.223,1.888-0.447,2.831-0.67
			L185.416,181.072z"/>
		<path fill="#333333" d="M114.271,207.345c-1.204,0.035-1.396-0.442-0.694-1.371l-0.066,0.068c0.452,0.221,0.904,0.443,1.355,0.664
			l0.107-0.07c-0.27,0.272-0.54,0.545-0.81,0.817L114.271,207.345z"/>
		<path fill="#333333" d="M202.073,98.815c-0.386-0.277-0.771-0.553-1.157-0.83c0.383-0.161,0.766-0.323,1.149-0.484l-0.081-0.089
			c-0.002,0.5-0.005,1-0.007,1.5L202.073,98.815z"/>
		<path fill="#333333" d="M152.929,95.422c0.465-0.226,0.93-0.453,1.395-0.679l-0.069-0.091c0.189,0.674,0.214,1.267-0.69,1.405
			l0.112,0.079c-0.271-0.269-0.542-0.538-0.813-0.807L152.929,95.422z"/>
		<path fill="#333333" d="M200.521,108.018c0.125,0.095,0.25,0.191,0.375,0.286c-0.084,0.077-0.159,0.201-0.255,0.22
			c-0.159,0.032-0.332-0.005-0.5-0.012C200.267,108.347,200.394,108.183,200.521,108.018z"/>
		<path fill="#333333" d="M191.645,199.062c-0.682-0.22-1.363-0.44-2.045-0.661l-0.099,0.106c0.687,0.218,1.374,0.436,2.061,0.653
			L191.645,199.062z"/>
		<path fill="#333333" d="M191.561,199.161c0.554,0.034,1.108,0.067,1.662,0.101c-0.035,0.128-0.069,0.255-0.104,0.383
			c-0.491-0.194-0.983-0.388-1.474-0.583L191.561,199.161z"/>
		<path fill="#333333" d="M114.304,208.177c-0.011-0.277-0.022-0.555-0.033-0.832l-0.107,0.107c0.27-0.272,0.54-0.544,0.81-0.817
			l-0.107,0.07c1.122,1.138,0.118,1.199-0.689,1.36L114.304,208.177z"/>
		<path fill="#333333" d="M115.591,213.641c-0.063,0.546-0.125,1.092-0.199,1.729c-1.065-0.912-0.523-1.315,0.303-1.642
			L115.591,213.641z"/>
		<path fill="#333333" d="M183.988,215.031c0.197,0.461,0.394,0.921,0.59,1.382c-0.164,0.042-0.328,0.085-0.492,0.127
			c0-0.53,0-1.06,0-1.59L183.988,215.031z"/>
		<path fill="#333333" d="M113.455,218.209c0.128,0.144,0.254,0.288,0.381,0.432c-0.212,0.115-0.425,0.231-0.637,0.346
			c-0.07-0.179-0.21-0.37-0.183-0.533C113.034,218.352,113.3,218.289,113.455,218.209z"/>
		<path fill="#333333" d="M133.055,243.743c-0.148-0.087-0.295-0.173-0.442-0.26c0.159-0.135,0.31-0.282,0.484-0.393
			c0.034-0.022,0.236,0.132,0.229,0.149C133.252,243.413,133.15,243.576,133.055,243.743z"/>
		<path fill="#333333" d="M202.745,93.252c-0.481,0.004-0.962,0.009-1.443,0.013l0.09,0.09c0-0.405,0-0.81,0-1.743
			c0.63,0.875,0.94,1.307,1.251,1.739L202.745,93.252z"/>
		<path fill="#333333" d="M147.825,388.242c0,0.414,0,0.828,0,1.241c-0.053,0-0.106,0-0.16,0c0-0.414,0-0.828,0-1.241
			C147.718,388.242,147.772,388.242,147.825,388.242z"/>
		<path fill="#333333" d="M140.532,101.619c-0.301-0.117-0.602-0.234-0.941-0.365c0.334-0.112,0.639-0.215,0.944-0.317l-0.094-0.086
			c-0.003,0.284-0.005,0.569-0.008,0.853L140.532,101.619z"/>
		<path fill="#333333" d="M184.029,179.043c-0.403-0.067-0.807-0.133-1.21-0.2c0.076-0.146,0.151-0.291,0.227-0.437
			c0.303,0.24,0.606,0.481,0.909,0.721L184.029,179.043z"/>
		<path fill="#333333" d="M183.955,179.127c0.478,0.229,0.956,0.458,1.434,0.688l0.097-0.106c-0.486-0.222-0.972-0.444-1.458-0.666
			L183.955,179.127z"/>
		<path fill="#333333" d="M189.589,182.48c-0.468-0.224-0.936-0.449-1.404-0.673l-0.086,0.101c0.478,0.213,0.956,0.426,1.434,0.638
			L189.589,182.48z"/>
		<path fill="#333333" d="M190.981,183.15c-0.464-0.223-0.928-0.446-1.392-0.67l-0.057,0.066c0.451,0.237,0.902,0.474,1.353,0.711
			L190.981,183.15z"/>
		<path fill="#333333" d="M190.885,183.257c0.469,0.226,0.938,0.452,1.407,0.678l0.056-0.068c-0.456-0.239-0.912-0.478-1.368-0.718
			L190.885,183.257z"/>
		<path fill="#333333" d="M192.292,183.935c0.357,0.044,0.715,0.089,1.072,0.133c-0.063,0.137-0.127,0.275-0.19,0.412
			c-0.275-0.204-0.55-0.409-0.825-0.613L192.292,183.935z"/>
		<path fill="#333333" d="M184.01,195.67c0.465,0.228,0.93,0.456,1.396,0.684l0.032-0.039c-0.456-0.238-0.912-0.475-1.368-0.713
			L184.01,195.67z"/>
		<path fill="#333333" d="M188.134,197.772c0.455,0.245,0.911,0.49,1.366,0.736l0.099-0.106c-0.468-0.234-0.936-0.468-1.404-0.702
			L188.134,197.772z"/>
		<path fill="#333333" d="M114.174,199.813c1.111,0.457,0.396,0.914,0,1.371l0.071,0.057c0.003-0.498,0.006-0.996,0.008-1.494
			L114.174,199.813z"/>
		<path fill="#333333" d="M114.148,202.594c0.245,0.236,0.49,0.472,0.15,0.144c0.091,0.459,0.022,0.111-0.047-0.238L114.148,202.594
			z"/>
		<path fill="#333333" d="M117.493,204.213c0.091-0.024,0.181-0.048,0.272-0.072c0.02,0.094,0.04,0.188,0.061,0.282
			c-0.093-0.016-0.191-0.02-0.276-0.056C117.515,204.353,117.511,204.267,117.493,204.213z"/>
		<path fill="#333333" d="M215.9,97.949c-0.084-0.076-0.169-0.152-0.253-0.228c0.097-0.009,0.196-0.03,0.292-0.022
			c0.039,0.003,0.073,0.07,0.11,0.108C215.998,97.855,215.949,97.902,215.9,97.949z"/>
		<path fill="#333333" d="M118.393,209.395c-0.277-0.063-0.554-0.125-0.334-0.076c-0.183-0.14,0.025,0.019,0.233,0.178
			L118.393,209.395z"/>
		<path fill="#333333" d="M118.292,209.497c0.285,0.087,0.57,0.175,0.856,0.262c-0.251-0.121-0.503-0.243-0.754-0.364
			L118.292,209.497z"/>
		<path fill="#333333" d="M114.896,211.537c0.036-0.496,0.073-0.993,0.109-1.489l-0.098,0.077c0.271,0.475,1.305,0.944,0.012,1.432
			L114.896,211.537z"/>
		<path fill="#333333" d="M114.918,211.557c-0.045,0.41-0.089,0.821-0.134,1.231c-0.158-0.056-0.316-0.112-0.473-0.167
			c0.195-0.361,0.39-0.722,0.585-1.083L114.918,211.557z"/>
		<path fill="#333333" d="M116.319,212.223c0.34-0.181,0.68-0.362,1.019-0.542c0.043,0.169,0.085,0.338,0.128,0.507
			c-0.417-0.02-0.833-0.041-1.25-0.061L116.319,212.223z"/>
		<path fill="#333333" d="M115.695,213.729c0.208-0.502,0.416-1.004,0.624-1.506l-0.102-0.096c-0.209,0.505-0.417,1.01-0.626,1.514
			L115.695,213.729z"/>
		<path fill="#333333" d="M212.838,97.116c0.183-0.066,0.363-0.152,0.552-0.184c0.058-0.01,0.14,0.132,0.212,0.204
			c-0.077,0.069-0.168,0.206-0.227,0.193C213.189,97.289,213.016,97.192,212.838,97.116z"/>
		<path fill="#333333" d="M113.109,216.663c-0.055-0.246-0.09-0.35-0.091-0.454c0-0.02,0.13-0.042,0.2-0.063
			C113.191,216.275,113.164,216.403,113.109,216.663z"/>
		<path fill="#333333" d="M114.482,216.759c0.066,0.009,0.175-0.001,0.19,0.032c0.039,0.084,0.036,0.187,0.05,0.282
			c-0.111-0.015-0.222-0.03-0.332-0.045C114.42,216.938,114.451,216.848,114.482,216.759z"/>
		<path fill="#333333" d="M116.926,216.296c-0.088,0.326-0.177,0.651-0.265,0.977c0.124-0.292,0.249-0.584,0.373-0.875
			L116.926,216.296z"/>
		<path fill="#333333" d="M190.206,216.46c0.469,0.22,0.937,0.441,1.406,0.661l0.072-0.084c-0.464-0.22-0.928-0.441-1.392-0.661
			L190.206,216.46z"/>
		<path fill="#333333" d="M118.999,216.969c-0.09,0.276-0.18,0.553-0.228,0.703c0.063-0.129,0.184-0.376,0.305-0.623
			L118.999,216.969z"/>
		<path fill="#333333" d="M115.325,221.391c-0.068,0.025-0.137,0.05-0.205,0.075c-0.023-0.099-0.063-0.199-0.057-0.297
			c0.002-0.028,0.14-0.047,0.215-0.07C115.294,221.197,115.309,221.294,115.325,221.391z"/>
		<path fill="#333333" d="M204.719,94.787c0.479,0.212,0.959,0.425,1.438,0.637l0.079-0.095c-0.475-0.211-0.951-0.421-1.426-0.632
			L204.719,94.787z"/>
		<path fill="#333333" d="M134.307,224.751c0.071-0.327,0.141-0.653,0.062-0.286c0.22-0.293,0.033-0.044-0.153,0.204
			L134.307,224.751z"/>
		<path fill="#333333" d="M178.107,223.775c0.067,0.009,0.173-0.004,0.194,0.032c0.041,0.071,0.035,0.169,0.049,0.256
			c-0.11-0.014-0.219-0.027-0.329-0.041C178.049,223.94,178.078,223.857,178.107,223.775z"/>
		<path fill="#333333" d="M130.725,229.455c-0.042,0.316-0.083,0.632-0.125,0.949c0.069-0.287,0.139-0.574,0.208-0.861
			L130.725,229.455z"/>
		<path fill="#333333" d="M202.737,94.079c0.003-0.276,0.005-0.552,0.008-0.828l-0.101,0.098c0.463,0.23,0.926,0.46,1.389,0.689
			l0.11-0.107c-0.505,0.011-1.01,0.022-1.516,0.034L202.737,94.079z"/>
		<polygon fill="#333333" points="202.307,255.866 202.395,255.566 202.442,255.884 		"/>
		<polygon fill="#333333" points="203.009,257.783 203.107,257.789 203.057,258.089 		"/>
		<path fill="#333333" d="M135.285,316.328c0.186-0.061,0.37-0.143,0.561-0.168c0.065-0.008,0.149,0.128,0.225,0.199
			c-0.081,0.063-0.175,0.19-0.24,0.176C135.643,316.496,135.466,316.401,135.285,316.328z"/>
		<path fill="#333333" d="M150.794,367.018c-0.048,0.321-0.096,0.643-0.144,0.964c0.075-0.297,0.151-0.593,0.226-0.89
			L150.794,367.018z"/>
		<path fill="#333333" d="M174.853,367.461c-0.202,0.059-0.401,0.142-0.606,0.161c-0.073,0.007-0.161-0.142-0.243-0.22
			c0.208-0.065,0.414-0.154,0.627-0.182C174.693,367.211,174.778,367.375,174.853,367.461z"/>
		<path fill="#333333" d="M151.34,376.734c-0.03,0.102-0.06,0.205-0.09,0.307c-0.065-0.14-0.148-0.275-0.185-0.422
			c-0.011-0.043,0.105-0.119,0.162-0.18C151.265,376.537,151.303,376.635,151.34,376.734z"/>
		<path fill="#333333" d="M149.842,382.433c-0.033-0.032-0.095-0.064-0.095-0.096c0.001-0.083,0.029-0.165,0.046-0.248
			c0.034,0.031,0.097,0.063,0.096,0.093C149.888,382.267,149.86,382.35,149.842,382.433z"/>
		<path fill="#333333" d="M136.945,399.542c-0.266,0.222-0.531,0.444-0.221,0.185c-0.381,0.101-0.032,0.009,0.317-0.084
			L136.945,399.542z"/>
		<polygon fill="#333333" points="243.214,137.796 243.274,137.967 243.098,137.935 		"/>
		<path fill="#333333" d="M199.858,91.269c0.051,0.053,0.102,0.105,0.153,0.158c-0.026-0.076-0.052-0.152-0.078-0.229
			L199.858,91.269z"/>
		<path fill="#333333" d="M234.527,92.612c0.156,0.067,0.312,0.135,0.467,0.202c-0.171,0.17-0.342,0.339-0.513,0.509l0.071,0.068
			c-0.022-0.243-0.045-0.486-0.067-0.729L234.527,92.612z"/>
		<path fill="#333333" d="M201.302,93.265c-0.044,0.102-0.088,0.203-0.132,0.305c0.074-0.072,0.148-0.143,0.222-0.215
			L201.302,93.265z"/>
		<path fill="#333333" d="M154.324,94.743c0.22-0.598,0.442-0.596,0.665-0.002l0.063-0.085c-0.266-0.001-0.532-0.003-0.797-0.004
			L154.324,94.743z"/>
		<path fill="#333333" d="M204.033,94.039c0.229,0.249,0.458,0.499,0.687,0.748l0.091-0.089c-0.222-0.255-0.445-0.51-0.667-0.766
			L204.033,94.039z"/>
		<polygon fill="#333333" points="201.057,96.289 201.114,96.486 200.94,96.456 		"/>
		<polygon fill="#333333" points="210.819,96.461 210.614,96.509 210.637,96.355 		"/>
		<path fill="#333333" d="M209.588,97.453c0.029-0.028,0.058-0.057,0.086-0.085L209.588,97.453z"/>
		<polygon fill="#333333" points="210.455,99.189 210.687,99.095 210.669,99.318 		"/>
		<path fill="#333333" d="M206.781,100.962c0.132,0.092,0.263,0.185,0.314,0.22c-0.036-0.05-0.13-0.18-0.224-0.31L206.781,100.962z"
			/>
		<path fill="#333333" d="M115.519,196.351c0.058,0.056,0.115,0.112,0.173,0.167c-0.033-0.079-0.067-0.158-0.1-0.238
			L115.519,196.351z"/>
		<path fill="#333333" d="M142.618,103.673c-0.249-0.245-0.498-0.49-0.747-0.735l-0.068,0.1c0.24,0.234,0.479,0.468,0.719,0.703
			L142.618,103.673z"/>
		<path fill="#333333" d="M202.019,106.413c-0.227-0.003-0.453-0.005-0.68-0.008l-0.077,0.09c0.277,0.005,0.554,0.01,0.831,0.015
			L202.019,106.413z"/>
		<path fill="#333333" d="M147.443,108.554c0.058-0.156,0.117-0.312,0.175-0.467c0.15,0.163,0.3,0.326,0.449,0.489l0.081-0.091
			c-0.262,0.001-0.525,0.001-0.787,0.002L147.443,108.554z"/>
		<path fill="#333333" d="M147.448,109.217c-0.002-0.221-0.003-0.442-0.005-0.663l-0.082-0.067
			c-0.003,0.269-0.005,0.537-0.008,0.806L147.448,109.217z"/>
		<path fill="#333333" d="M196.558,112.704c0.033-0.102,0.067-0.204,0.1-0.305c-0.062,0.073-0.124,0.146-0.187,0.219
			L196.558,112.704z"/>
		<path fill="#333333" d="M196.471,112.618c-0.237,0.255-0.473,0.51-0.71,0.765l0.091,0.095c0.235-0.258,0.47-0.516,0.705-0.774
			L196.471,112.618z"/>
		<path fill="#333333" d="M112.793,203.238c0.286,0.23,0.895,0.461-0.003,0.686l0.068,0.07c0.01-0.277,0.021-0.553,0.031-0.83
			L112.793,203.238z"/>
		<path fill="#333333" d="M113.577,205.974c-0.136-0.096-0.273-0.192-0.409-0.288c0.072,0.018,0.172,0.013,0.208,0.059
			c0.065,0.083,0.092,0.196,0.135,0.297L113.577,205.974z"/>
		<path fill="#333333" d="M120.29,207.049c-0.091,0.08-0.175,0.21-0.254,0.207c-0.079-0.003-0.153-0.139-0.23-0.216
			c0.082-0.072,0.165-0.201,0.245-0.199C120.132,206.842,120.21,206.974,120.29,207.049z"/>
		<polygon fill="#333333" points="122.747,208.454 122.968,208.39 122.941,208.575 		"/>
		<polygon fill="#333333" points="124.147,208.603 124.057,208.36 124.3,208.395 		"/>
		<path fill="#333333" d="M123.225,210.232c0.088-0.129,0.176-0.257,0.217-0.318c-0.06,0.041-0.189,0.129-0.318,0.217
			L123.225,210.232z"/>
		<polygon fill="#333333" points="116.73,210.496 116.553,210.552 116.579,210.389 		"/>
		<path fill="#333333" d="M95.571,212.971c0.206-0.012,0.411-0.023,0.617-0.035l0.09-0.089c-0.263,0.01-0.527,0.021-0.79,0.031
			L95.571,212.971z"/>
		<path fill="#333333" d="M121.151,212.876c-0.116-0.09-0.232-0.179-0.347-0.269c0.054,0.032,0.131,0.052,0.156,0.099
			c0.044,0.082,0.057,0.181,0.083,0.272L121.151,212.876z"/>
		<path fill="#333333" d="M96.188,212.936c0.098,0.061,0.195,0.122,0.293,0.182c-0.067-0.09-0.135-0.181-0.202-0.271L96.188,212.936
			z"/>
		<path fill="#333333" d="M121.042,212.979c0.155,0.083,0.31,0.166,0.465,0.25c-0.142,0.1-0.285,0.2-0.427,0.3l0.097,0.095
			c-0.009-0.249-0.018-0.498-0.027-0.747L121.042,212.979z"/>
		<path fill="#333333" d="M186.192,213.552c-0.206-0.051-0.412-0.102-0.618-0.153c0.175,0.085,0.349,0.17,0.524,0.255
			L186.192,213.552z"/>
		<polygon fill="#333333" points="113.739,213.974 113.914,213.902 113.891,214.085 		"/>
		<path fill="#333333" d="M121.08,213.529c-0.088,0.146-0.176,0.293-0.212,0.354c0.052-0.044,0.181-0.151,0.309-0.259
			L121.08,213.529z"/>
		<path fill="#333333" d="M83.797,215.05c0.242-0.244,0.483-0.489,0.725-0.733l-0.058-0.061c-0.251,0.233-0.501,0.466-0.752,0.699
			L83.797,215.05z"/>
		<path fill="#333333" d="M195.722,214.358c0.239,0.233,0.479,0.466,0.718,0.699l0.063-0.062c-0.232-0.241-0.464-0.483-0.697-0.724
			L195.722,214.358z"/>
		<path fill="#333333" d="M111.475,215.753c0.087-0.166,0.174-0.331,0.26-0.497c-0.121,0.13-0.242,0.26-0.363,0.39L111.475,215.753z
			"/>
		<path fill="#333333" d="M119.752,215.749c0.097-0.111,0.193-0.222,0.29-0.333c-0.037,0.046-0.066,0.108-0.114,0.134
			c-0.084,0.045-0.18,0.069-0.271,0.101L119.752,215.749z"/>
		<path fill="#333333" d="M190.292,216.377c-0.11-0.099-0.22-0.197-0.33-0.296c0.068,0.03,0.17,0.041,0.197,0.093
			c0.042,0.082,0.034,0.19,0.048,0.287L190.292,216.377z"/>
		<path fill="#333333" d="M90.736,218.511c0.095-0.128,0.191-0.257,0.286-0.385c-0.023,0.072-0.025,0.177-0.075,0.209
			c-0.084,0.054-0.198,0.062-0.299,0.089L90.736,218.511z"/>
		<polygon fill="#333333" points="116.603,221.703 116.548,221.512 116.714,221.539 		"/>
		<path fill="#333333" d="M115.678,223.424c-0.027-0.028-0.054-0.056-0.08-0.084L115.678,223.424z"/>
		<path fill="#333333" d="M186.229,223.882c-0.181-0.023-0.361-0.047-0.542-0.07c0.151,0.058,0.302,0.115,0.453,0.173
			L186.229,223.882z"/>
		<path fill="#333333" d="M83.766,223.946c-0.02,0.27-0.04,0.54-0.061,0.81l0.103-0.108c0.018-0.204,0.035-0.408,0.053-0.612
			L83.766,223.946z"/>
		<path fill="#333333" d="M83.706,224.756c0.222,0.232,0.444,0.464,0.665,0.696l0.096-0.094c-0.219-0.237-0.439-0.473-0.658-0.71
			L83.706,224.756z"/>
		<path fill="#333333" d="M85.827,224.715c0.228,0.226,0.457,0.452,0.685,0.679l0.08-0.078c-0.233-0.222-0.466-0.445-0.699-0.667
			L85.827,224.715z"/>
		<path fill="#333333" d="M85.17,226.027c-0.234-0.223-0.469-0.446-0.703-0.669l-0.096,0.094c0.234,0.225,0.467,0.451,0.701,0.676
			L85.17,226.027z"/>
		<path fill="#333333" d="M86.512,225.394c0.099,0.087,0.198,0.174,0.296,0.261c-0.051-0.03-0.125-0.047-0.149-0.092
			c-0.039-0.073-0.047-0.164-0.068-0.247L86.512,225.394z"/>
		<polygon fill="#333333" points="89.674,225.846 89.587,225.648 89.804,225.673 		"/>
		<path fill="#333333" d="M85.869,226.698c-0.233-0.224-0.466-0.447-0.699-0.671l-0.098,0.101c0.235,0.219,0.471,0.437,0.706,0.656
			L85.869,226.698z"/>
		<path fill="#333333" d="M86.555,227.435c-0.229-0.246-0.457-0.491-0.686-0.737l-0.091,0.086c0.226,0.256,0.453,0.513,0.679,0.769
			L86.555,227.435z"/>
		<path fill="#333333" d="M86.457,227.553c0.192-0.006,0.383-0.012,0.575-0.018c-0.042,0.127-0.085,0.254-0.127,0.382
			c-0.116-0.161-0.233-0.321-0.349-0.482L86.457,227.553z"/>
		<path fill="#333333" d="M88.561,228.041c-0.078,0.137-0.156,0.275-0.233,0.412c0.019-0.059,0.02-0.141,0.06-0.172
			c0.081-0.063,0.184-0.098,0.277-0.144L88.561,228.041z"/>
		<path fill="#333333" d="M130.809,229.543c0.244-0.233,0.487-0.465,0.731-0.698l-0.094-0.091c-0.24,0.234-0.48,0.468-0.72,0.701
			L130.809,229.543z"/>
		<path fill="#333333" d="M129.247,232.668c-0.063,0.065-0.126,0.13-0.188,0.195c-0.055-0.071-0.157-0.145-0.153-0.212
			c0.004-0.067,0.115-0.127,0.179-0.191C129.14,232.531,129.195,232.602,129.247,232.668z"/>
		<path fill="#333333" d="M196.533,240.665c0.066-0.128,0.132-0.255,0.198-0.383c-0.02,0.051-0.026,0.118-0.063,0.151
			c-0.066,0.059-0.151,0.097-0.228,0.144L196.533,240.665z"/>
		<path fill="#333333" d="M196.39,243.411c0.138,0.07,0.276,0.14,0.414,0.211c-0.055-0.019-0.126-0.024-0.161-0.061
			c-0.066-0.07-0.111-0.16-0.165-0.241L196.39,243.411z"/>
		<path fill="#333333" d="M245.532,135.499c0.106,0.108,0.213,0.217,0.319,0.325c-0.06-0.039-0.151-0.066-0.173-0.12
			c-0.037-0.091-0.031-0.2-0.043-0.302L245.532,135.499z"/>
		<path fill="#333333" d="M204.15,321.502c-0.039-0.037-0.077-0.075-0.116-0.112L204.15,321.502z"/>
		<path fill="#333333" d="M204.035,321.389c-0.068,0.193-0.136,0.386-0.204,0.579c0.107-0.156,0.213-0.311,0.32-0.467
			L204.035,321.389z"/>
		<path fill="#333333" d="M180.635,323.517c-0.179-0.094-0.357-0.189-0.536-0.283c0.147,0.125,0.294,0.25,0.441,0.375
			L180.635,323.517z"/>
		<polygon fill="#333333" points="122.573,324.231 122.388,324.111 122.504,324.3 		"/>
		<path fill="#333333" d="M176.507,368.441c-0.197-0.079-0.393-0.159-0.59-0.238c0.157,0.118,0.315,0.236,0.472,0.354
			L176.507,368.441z"/>
		<polygon fill="#333333" points="150.673,380.537 150.504,380.612 150.52,380.435 		"/>
		<path fill="#333333" d="M146.088,392.03c0.039-0.097,0.079-0.194,0.118-0.291c-0.078,0.058-0.155,0.117-0.233,0.175
			L146.088,392.03z"/>
		<path fill="#333333" d="M145.974,391.914c-0.08,0.194-0.161,0.388-0.241,0.582c0.119-0.156,0.237-0.311,0.356-0.466
			L145.974,391.914z"/>
		<polygon fill="#333333" points="139.585,398.581 139.364,398.618 139.391,398.469 		"/>
		<path fill="#333333" d="M137.04,399.643c0.104-0.102,0.208-0.204,0.312-0.307c-0.04,0.051-0.07,0.126-0.122,0.148
			c-0.088,0.037-0.189,0.04-0.285,0.057L137.04,399.643z"/>
		<polygon fill="#333333" points="134.073,400.661 133.843,400.709 133.869,400.546 		"/>
		<polygon fill="#333333" points="131.556,401.675 131.673,401.49 131.461,401.583 		"/>
		<path fill="#333333" d="M131.461,401.583c-0.082,0.127-0.165,0.253-0.247,0.38c0.031-0.044,0.054-0.098,0.095-0.13
			c0.077-0.059,0.164-0.106,0.247-0.158L131.461,401.583z"/>
		<path fill="#333333" d="M161.908,24.224c0.315,0.063,0.777,0.022,0.912,0.213c0.218,0.306,0.302,0.773,0.271,1.158
			c-0.012,0.146-0.708,0.395-0.731,0.36c-0.25-0.381-0.469-0.796-0.604-1.23c-0.049-0.159,0.147-0.395,0.231-0.596L161.908,24.224z"
			/>
		<path fill="#333333" d="M177.88,41.503c-1.054,0.053-2.16,0.305-2.918-0.767C175.935,40.992,176.908,41.248,177.88,41.503z"/>
		<path fill="#333333" d="M180.648,42.896c-0.5,0.001-0.999,0.003-1.499,0.004c0.001-0.262,0.002-0.525,0.003-0.787
			C179.65,42.374,180.149,42.635,180.648,42.896z"/>
		<path fill="#333333" d="M179.262,42.206c-0.505-0.26-1.011-0.52-1.516-0.781C178.251,41.685,178.756,41.945,179.262,42.206z"/>
		<path fill="#333333" d="M156.275,40.685c-0.004,0.208,0.029,0.427-0.027,0.619c-0.031,0.105-0.214,0.165-0.328,0.246
			c0.007-0.1-0.021-0.225,0.029-0.295c0.119-0.168,0.274-0.31,0.415-0.463L156.275,40.685z"/>
		<path fill="#333333" d="M156.364,40.792c0.492-0.218,0.984-0.436,1.476-0.654l-0.087-0.097c-0.492,0.215-0.985,0.429-1.477,0.644
			L156.364,40.792z"/>
		<path fill="#333333" d="M194.379,35.996c0.344,0.07,0.687,0.14,0.281,0.057c0.301,0.284,0.063,0.06-0.175-0.165L194.379,35.996z"
			/>
		<path fill="#333333" d="M194.486,35.888c-0.322-0.067-0.645-0.133-0.967-0.2c0.325-0.127,0.65-0.254,0.974-0.381l-0.1-0.1
			c-0.005,0.263-0.009,0.525-0.014,0.788L194.486,35.888z"/>
		<path fill="#333333" d="M191.691,34.494c-0.455-0.225-0.911-0.45-1.366-0.675l-0.085,0.096c0.452,0.224,0.904,0.448,1.356,0.672
			L191.691,34.494z"/>
		<path fill="#333333" d="M190.325,33.819c-0.472-0.22-0.944-0.441-1.415-0.661l-0.087,0.083c0.473,0.225,0.945,0.449,1.418,0.674
			L190.325,33.819z"/>
		<path fill="#333333" d="M161.989,24.13c-0.305-0.058-0.609-0.115-0.914-0.173c0.278,0.089,0.555,0.178,0.833,0.267L161.989,24.13z
			"/>
		<path fill="#333333" d="M188.909,33.158c-0.215-0.252-0.431-0.504-0.646-0.756l-0.091,0.085c0.217,0.251,0.433,0.503,0.65,0.754
			L188.909,33.158z"/>
		<path fill="#333333" d="M191.597,34.588c0.132,0.096,0.264,0.193,0.396,0.289c-0.082-0.02-0.205-0.015-0.235-0.065
			c-0.052-0.088-0.047-0.21-0.066-0.317L191.597,34.588z"/>
		<path fill="#333333" d="M156.3,24.141c0.286,0.001,0.573,0.001,0.859,0.002C156.872,24.142,156.586,24.142,156.3,24.141z"/>
		<path fill="#333333" d="M164.045,82.923c-0.104-0.083-0.208-0.166-0.313-0.248c0.054,0.027,0.131,0.04,0.156,0.084
			c0.041,0.073,0.049,0.165,0.071,0.249L164.045,82.923z"/>
		<path fill="#333333" d="M148.831,152.146c-0.594-0.073-1.395,0.242-1.479-0.789c0.483,0.026,0.966,0.053,1.45,0.079l-0.071-0.072
			C148.764,151.625,148.797,151.885,148.831,152.146z"/>
		<path fill="#333333" d="M148.802,151.436c0.104-0.117,0.208-0.234,0.311-0.351c-0.027,0.069-0.035,0.171-0.086,0.201
			c-0.085,0.05-0.196,0.055-0.296,0.079L148.802,151.436z"/>
		<polygon fill="#333333" points="187.929,94.956 187.964,95.143 187.815,95.107 		"/>
		<path fill="#333333" d="M151.608,104.419c-0.275,0.005-0.55,0.01-0.825,0.015C151.045,103.705,151.323,103.897,151.608,104.419z"
			/>
		<path fill="#333333" d="M179.841,58.82c0.008-0.267,0.015-0.535,0.023-0.802c0.076,0.192,0.175,0.379,0.213,0.578
			C180.088,58.653,179.925,58.744,179.841,58.82z"/>
		<path fill="#333333" d="M150.902,129.929c-0.235,0.502-0.47,1.004-0.705,1.506C149.196,130.356,149.879,130.063,150.902,129.929z"
			/>
		<path fill="#333333" d="M150.808,129.22c0.258,0.011,0.516,0.022,0.774,0.033c-0.253,0.263-0.505,0.525-0.758,0.788
			C150.818,129.767,150.813,129.493,150.808,129.22z"/>
		<path fill="#333333" d="M192.969,132.09c0.268-0.272,0.537-0.544,0.805-0.817C193.506,131.546,193.237,131.818,192.969,132.09z"/>
		<path fill="#333333" d="M231.8,126.542c-0.266,0.004-0.533,0.008-0.799,0.013c0.004-0.267,0.008-0.533,0.012-0.8
			C231.276,126.017,231.538,126.279,231.8,126.542z"/>
	</g>
</g>
</svg>
