<?xml version="1.0" encoding="utf-8"?>
<!-- Generator: Adobe Illustrator 17.1.0, SVG Export Plug-In . SVG Version: 6.00 Build 0)  -->
<!DOCTYPE svg PUBLIC "-//W3C//DTD SVG 1.1//EN" "http://www.w3.org/Graphics/SVG/1.1/DTD/svg11.dtd">
<svg version="1.1" id="Calque_1" xmlns="http://www.w3.org/2000/svg" xmlns:xlink="http://www.w3.org/1999/xlink" x="0px" y="0px"
	 viewBox="0 0 400 421.47" enable-background="new 0 0 400 421.47" xml:space="preserve">
<g>
	<g>
		<path fill="#333333" d="M280.632,169.649c2.372-5.124,6.947-9.042,7.659-14.989c1.154,1.255,2.14,1.436,3.077,0.075
			c3.172-4.61,5.892-9.442,7.343-14.9c1.496-0.585-0.796-1.411,0.12-1.994c0.614-0.391,1.378-0.588,1.91-1.057
			c1.175-1.036,2.297-2.145,3.338-3.315c0.47-0.529,0.621-1.331,1.052-1.907c0.467-0.623,1.093-1.128,1.645-1.68
			c-0.887-1.318-1.773-2.636-2.658-3.953c3.547-0.993,4.399-1.967,4.7-5.443c0.091-1.048,0.389-1.982,0.736-2.993
			c1.49-4.34,1.952-8.853,0.194-13.293c-0.416-1.049-1.09-1.996-1.809-3.282c1.131,0,2.221,0.165,3.233-0.048
			c0.952-0.2,1.82-0.797,3.402-1.536c-0.251,1.825-0.399,2.902-0.547,3.984c0.617,0.641,2.219,1.547,2.215,2.444
			c-0.014,2.644,2.451,2.391,3.532,3.656c2.669-0.345,4.461,2.674,7.244,1.889c1.474,2.075,3.675,1.759,5.814,2.008
			c0.808,0.094,1.46,1.533,2.317,2.512c-1.044-0.061-2.441,1.423-2.831-1.179c-0.04-0.268-1.729-0.288-3.004,0.337
			c0.709,0.663,1.315,1.633,2.152,1.914c1.096,0.368,2.434-0.245,3.418,0.974c0.248,0.308,1.38,0.299,1.801,0.003
			c2.055-1.447,4.428,1.321,6.534-0.692c0.942-0.9,1.541,0.172,1.55,1.593c1.791,0,3.592,0,5.422,0
			c0.124,1.068,0.21,1.812,0.311,2.683c1.143,0.177,2.316,0.358,3.489,0.54c-0.304,1.827,2.667,1.338,1.995,4.235
			c1.205-1.642,1.827-2.49,2.634-3.589c0.791,0.328,1.832,0.76,2.88,1.196c0.072,0.282,0.303,0.681,0.192,0.834
			c-1.571,2.185-0.661,4.97-1.797,7.294c-0.363,0.743-0.721,1.74-0.829,2.449c-0.326,2.13-1.579,1.362-3.091,1.325
			c0.408-2.071,0.798-4.048,1.179-5.982c-3.387-1.865-4.812,1.155-7.197,3.068c-0.328-1.89-0.541-3.122-0.76-4.387
			c-1.749,0.369-3.447,0.726-5.497,1.159c0,1.655,0,3.457,0,5.806c-1.686-1.06-2.882-1.812-4.188-2.634
			c-0.269,2.211,0.893,2.906,5.017,3.261c0.124,0.837,0.252,1.704,0.343,2.322c2.497-0.264,4.829-0.511,7.301-0.772
			c0,1.811,0,3.182,0,4.527c-2.451,1.236-5.225,0.978-7.722,1.985c-3.025,1.22-5.9-0.645-8.866-0.924
			c-0.471-0.044-0.844-1.147-1.258-1.763c-1.256-1.873-4.473-3.587-6.302-3.703c-1.527-0.097-1.04,1.203-1.745,1.979
			c-0.941-1.322-1.845-2.593-2.773-3.897c-1.23,1.571-0.339,2.562,0.676,3.66c2.058,2.226,1.856,2.172,0.303,4.899
			c-2.088,3.667-4.011,7.447-5.26,11.506c-1.086,3.532-2.717,6.817-4.855,9.775c-1.236,1.709-1.812,3.376-1.787,5.424
			c0.058,4.878-0.111,9.762,0.076,14.634c0.087,2.272-0.635,3.777-2.642,4.886c-2.438-3.775-2.959-8.417-5.423-12.499
			c-0.387,0.986-0.599,1.527-0.96,2.446c-0.925-1.234-1.735-2.315-2.545-3.395c-0.248,0.153-0.496,0.307-0.744,0.46
			c0.185,0.609,0.266,1.279,0.576,1.816c0.79,1.369,1.683,2.68,1.912,4.626c-0.692-0.617-1.383-1.235-2.215-1.977
			c-0.65,1.069-1.317,2.056-1.869,3.103c-0.536,1.015-2.636,0.41-2.294,2.272c-0.464-0.111-0.929-0.222-1.764-0.422
			c0.344,1.134,0.688,2.27,1.277,4.215c0.646-1.226,1.06-2.009,1.37-2.596c2.626,1.133,2.287,3.085,1.949,4.579
			c-0.4,1.768-0.896,3.87-3.678,4.225c0,1.124,0,2.291,0,3.723c-0.551-0.381-0.909-0.501-0.929-0.661
			c-0.213-1.771,0.639-3.823-1.518-5.141c-0.319,1.009-0.634,2.002-1.283,4.052c-0.988-2.614-1.579-4.18-2.248-5.95
			c-1.519,3.229-2.959,6.288-4.482,9.526c-1.396-0.731-1.899-1.539-1.855-2.898c0.078-2.422,0.027-4.794-0.802-7.201
			c-0.488-1.416-0.8-3.07-0.251-4.886c0.532-1.763,0.384-3.91-0.589-5.837c-0.155,1.241-0.31,2.481-0.523,4.197
			c-1.485-2.478,0.661-5.314-1.931-6.911c-1.896,1.53-1.132,3.781-1.647,5.687c-0.527,1.95-1.525,3.784-1.795,5.855
			c-0.251,1.924-0.755,3.823-0.894,5.751c-0.159,2.192-0.037,4.404-0.036,6.608c-0.231,0.176-0.459,0.357-0.694,0.526
			c-0.848,0.611-2.061,1.907-2.476,1.689c-0.988-0.52-1.885-0.696-2.958-0.775c-2.781-0.204-5.253,1.469-8.119,1.041
			c-2.698-0.403-5.206,1.021-7.803,1.518c-1.887,0.361-4.05-0.382-6.023-0.891c-3.234-0.834-5.969-0.957-8.899-0.085
			c-0.422,0.126-0.866,0.362-1.275,0.317c-6.064-0.674-11.974,1.387-18.026,0.982c-2.641-0.177-3.177-0.612-3.223-3.282
			c-0.033-1.888-0.006-3.777-0.006-5.999c1.166-0.059,2.361-0.243,3.538-0.16c5.895,0.417,11.631-1.321,17.556-1.095
			c4.003,0.152,7.945,0.568,11.874,1.115c7.816,1.087,7.793,1.137,15.124-0.388c1.368-0.285,2.847-0.041,4.607-0.041
			c0.006-2.606,0.902-5.551-0.576-8.473c-0.189-0.374,0.24-1.049,0.352-1.591c0.172-0.83,0.318-1.665,0.597-3.148
			c-1.718,0.787-3.05,1.092-3.948,1.887c-1.097,0.972-1.902,2.309-2.698,3.573c-0.678,1.078-1.164,2.277-1.842,3.638
			c-2.639-2.251-5.844-2.758-9.439-3.22c0.251,2.946-3.395,3.704-3.265,6.569c-0.152,0.03-0.3,0.11-0.369,0.066
			c-1.366-0.888-2.624-2.22-4.111-2.561c-1.297-0.298-3.26,0.072-4.201,0.938c-1.79,1.648-3.308,0.692-4.456-0.194
			c-2.63-2.027-5.593-3.57-7.793-6.279c-1.882-2.318-4.649-3.822-7.987-3.026c0.247-4.384-0.119-7.438-1.151-9.708
			c1.13-1.312,1.96-3.13,4.506-2.593c0.15,0.783,0.314,1.644,0.49,2.566c0.224-0.055,0.51-0.038,0.649-0.173
			c2.224-2.153,2.219-2.157,4.57-2.66c0.084-0.28,0.231-0.559,0.238-0.841c0.028-1.09,0.011-2.181,0.011-3.465
			c-1.128,0-2.177,0-3.348,0c-0.493,0.768-1.111,1.73-1.729,2.692c-0.192-0.078-0.383-0.157-0.575-0.235
			c0.228-0.742,0.456-1.484,0.728-2.366c-1.631-2.471-3.779-1.021-6.223,0.083c0.014-4.223-1.319-8.244,1.36-11.718
			c1.002-1.3-0.784-1.755-0.279-2.66c0.501-0.897,1.479-1.766,1.492-2.658c0.063-4.328,2.853-7.361,4.81-10.783
			c1.824-3.189,3.546-6.472,5.713-9.42c2.22-3.02,4.341-6.149,6.746-8.997c3.415-4.046,6.793-8.186,9.438-12.677
			c2.141-3.635,5.171-4.161,8.481-4.689c3.298-0.526,6.671-0.574,9.979-1.055c0.95-0.138,1.787-1.048,2.723-1.633
			c2.158,1.95,4.366,4.233,7.671,4.766c0.361,1.71,2.975-0.533,3.137,1.866c0.086,1.272,2.059,1.685,1.902,3.478
			c-0.124,1.425,1.122,1.894,2.542,2.007c3.821,0.303,3.816,0.363,4.119,4.691c0.552,0,1.313-0.24,1.681,0.038
			c2.779,2.097,5.975,1.783,9.159,1.913c1.725,0.07,3.424,0.774,5.341,1.243c-2.096,1.708-4.231,3.028-5.809,4.835
			c-2.149,2.461-3.846,5.313-5.787,7.96c-1.928,2.63-2.598,5.869-4.257,8.632c-0.359,0.598-0.488,1.452-0.427,2.162
			c0.214,2.479-0.73,4.763-1.378,7.012c-0.734,2.551-0.599,5.259-1.836,7.73c-1.1,2.197-1.7,4.648-2.46,7.006
			C280.39,168.721,280.585,169.209,280.632,169.649z M262.022,179.185c3.779,0.316,2.884-2.396,3.821-3.725
			c1.788,3.892,1.788,3.892,5.961,5.522c0.293-3.388,1.978-6.658,0.599-10.866c-0.317,1.635-0.502,2.593-0.746,3.854
			c-0.844-1.801-1.777-3.135-1.589-4.929c0.213-2.042-0.888-3.53-2.474-4.957c-0.474,1.849-0.538,3.62-1.363,4.901
			c-0.844,1.311-2.433,2.142-3.997,3.432c1.404,0.231,2.266,0.373,3.416,0.562C264.441,175.047,263.366,176.886,262.022,179.185z
			 M312.229,131.965c-0.578,1.304-1.372,2.345-1.435,3.428c-0.079,1.347-0.409,2.292-1.355,3.275
			c-0.522,0.543-0.43,1.676-0.617,2.542c-0.461,2.144,1.243,3.03,2.51,4.056c0.746,0.604,3.149-0.462,3.746-2.072
			c1.162-3.133,3.06-5.411,6.727-6.984C318.34,134.673,315.417,133.378,312.229,131.965z M235.12,185.499
			c1.319,0.974,2.585,2.035,3.982,2.882c0.589,0.357,1.645,0.601,2.159,0.311c2.226-1.254,4.715-0.691,6.986-0.952
			c0.066-0.609,0.223-1.113,0.113-1.18C244.309,184.084,239.832,185.254,235.12,185.499z M260.892,184.759
			c2.199,0.995,3.104-0.81,4.221-1.97c0.232-0.241-0.105-1.031-0.18-1.568c-0.481,0.227-1.06,0.353-1.424,0.702
			C262.609,182.787,261.807,183.753,260.892,184.759z M260.256,176.802c-2.771-0.684-4.515-0.183-6.087,1.248
			C256.267,179.051,257.868,177.764,260.256,176.802z"/>
		<path fill="#333333" d="M131.533,319.081c-0.268-0.467-0.268-0.939-0.268-1.674c1.15-0.112,2.329-0.228,3.861-0.377
			c-0.18-0.625-0.326-1.132-0.472-1.639c-0.334,0.279-0.9,0.848-0.967,0.794c-1.39-1.111-2.722-2.293-4.109-3.498
			c-0.894,0.472,0.948,3.249-1.893,2.445c0-3.399,0-6.77,0-10.14c0.149-0.016,0.298-0.032,0.446-0.048
			c0.188,0.941,0.377,1.883,0.574,2.867c2.738-1.217,2.738-1.217,0.683-5.264c0.556-0.556,1.113-1.113,1.624-1.624
			c-0.236-0.82-0.599-1.605-0.631-2.402c-0.015-0.372,0.611-0.77,0.946-1.157c0.294,0.27,0.643,0.502,0.867,0.821
			c0.208,0.296,0.285,0.685,0.966,0.926c-0.1-0.838,0.005-1.772-0.335-2.498c-2.037-4.353-4.116-8.689-6.313-12.963
			c-0.883-1.718-0.92-3.469-0.921-5.289c-0.001-3.322-0.017-3.322-2.225-7.083c-0.271,1.235-0.34,2.03-0.62,2.741
			c-0.907,2.299-1.689,4.679-2.884,6.825c-3.413,6.13-5.706,12.772-8.793,19.011c-2.833,5.725-3.953,11.9-6.254,17.722
			c-0.587,1.487-1.223,2.954-1.976,4.766c3.406,3.699,7.211,7.34,10.406,11.455c2.611,3.361,5.71,6.274,8.222,9.743
			c1.634,2.257,3.516,4.712,6.466,5.833c0.907,0.345,1.689,1.318,1.47,2.657c-0.145,0.886-0.027,1.815-0.607,2.855
			c-0.214-0.868-0.427-1.735-0.742-3.016c-0.41,0.909-0.669,1.482-1.251,2.77c-0.036-2.69-1.289-4.023-2.652-5.425
			c-6.629-6.817-13.146-13.744-19.867-20.804c-0.315,1.073-0.375,2.165-0.922,2.89c-0.558,0.741-1.593,1.122-2.4,1.648
			c2.323,4.737,6.079,8.117,9.194,12.016c4.115,5.151,9.189,9.281,13.541,14.439c-4.561,0.525-8.777,2.421-13.55,2.334
			c-3.164-0.058-6.217,2.017-9.594,1.755c-0.419,1.22-2.918,0.429-2.444,2.745c0.197,0.964-0.702,2.153-1.09,3.205
			c0.49,0.322,0.813,0.678,0.969,0.616c2.939-1.173,6.063-0.567,9.048-1.009c2.719-0.403,5.29-1.698,8.052-2.162
			c0.718-0.12,1.402-0.481,2.12-0.561c3.17-0.354,6.508-0.152,9.47-1.118c2.362-0.77,2.536,0.001,2.688,1.727
			c0.026,0.294-0.063,0.599-0.099,0.899c-2.316,1.059-4.489,2.262-7.162,0.468c-0.915-0.614-2.528,0.243-3.846,0.653
			c-1.296,0.403-1.97,0.692-2.507,1.908c-0.238,0.538-1.203,1.051-1.845,1.061c-2.628,0.039-4.792,1.345-7.095,2.297
			c-1.344,0.556-2.734,1.474-4.084,1.439c-2.827-0.072-5.172,1.247-8.056,2.092c-0.085-1.09-0.593-2.377-0.156-3.055
			c1.021-1.583,0.851-3.205,0.852-4.857c0.01-20.615,0.047-41.23-0.036-61.844c-0.013-3.175-0.708-6.343-0.868-9.525
			c-0.157-3.111-0.034-6.237-0.034-9.235c-0.326-0.177-0.467-0.311-0.542-0.281c-0.134,0.053-0.326,0.206-0.326,0.318
			c-0.016,6.093-0.014,12.186-0.014,18.201c-0.441,0.099-0.58,0.176-0.658,0.136c-0.133-0.068-0.326-0.21-0.326-0.322
			c-0.016-6.608-0.014-13.216-0.014-19.7c0.664-0.573,1.272-1.097,1.88-1.621c-1.776-1.19-0.015-2.986-0.8-4.563
			c-0.69-1.388-0.144-3.39-0.144-5.121c0-11.173-0.071-22.347,0.059-33.518c0.026-2.268-0.703-3.714-2.892-4.978
			c0,6.822,0.037,13.393-0.024,19.963c-0.017,1.858-0.962,3.975-0.336,5.505c0.852,2.081-0.343,3.44-0.532,5.13
			c-0.226,2.021,0.527,4.318-0.18,6.081c-1.287,3.212-0.717,6.393-0.778,9.574c-0.13,6.764-0.105,13.533-0.024,20.299
			c0.114,9.486-1.383,18.895-1.036,28.409c0.345,9.429,0.123,18.881,0.033,28.322c-0.017,1.761-0.717,3.505-0.866,5.277
			c-0.158,1.875-0.036,3.774-0.036,5.662c0,0.787-0.042,1.576,0.007,2.36c0.204,3.214,0.205,3.089-2.365,3.298
			c-5.7,0.462-10.86-1.841-16.21-3.099c-2.282-0.537-4.59-1.082-6.832-1.735c-3.179-0.926-6.348-0.774-9.547-0.887
			c-0.701-0.025-1.524-0.247-2.06-0.67c-1.842-1.452-3.999-1.143-6.072-1.195c-0.285-3.663,0.301-4.181,3.5-3.212
			c0.419,0.127,0.865,0.421,1.253,0.358c4.205-0.689,8.184,1.222,12.362,1.03c1.426-0.065,2.884,0.569,4.327,0.884
			c1.308,0.285,2.809-0.642,3.978,0.701c0.226,0.26,0.851,0.2,1.296,0.239c3.646,0.323,7.3,0.569,10.935,0.982
			c1.402,0.159,2.763,0.691,4.536,1.156c-0.503-2.174-0.892-3.855-1.311-5.664c-1.46-0.691-3.046-1.453-4.975-1.223
			c-2.121,0.253-4.186-0.721-6.16-1.158c-2.125-0.471-4.183-0.657-6.273-0.661c-3.049-0.005-6.024-0.069-8.837-1.508
			c-0.758-0.388-1.76-0.367-2.656-0.402c-1.538-0.06-3.079-0.017-5.331-0.017c0.779-0.98,1.052-1.572,1.516-1.867
			c3.572-2.272,6.748-5.054,10.017-7.713c2.243-1.824,4.22-4.17,6.746-5.397c2.581-1.254,3.84-3.756,6.322-5.155
			c2.271-1.28,3.555-4.313,5.494-6.864c-1.072-0.574-2.059-0.893-2.752-1.531c-0.741-0.682-1.204-1.665-1.773-2.494
			c-2.933,2.114-5.79,4.581-9.026,6.359c-2.052,1.128-2.707,3.257-4.626,4.496c-4.285,2.766-8.255,6.043-12.214,9.281
			c-1.352,1.106-2.289,2.719-3.605,4.333c-0.946-0.45-2.07-0.984-3.523-1.675c0.646-0.782,1-1.632,1.593-1.86
			c3.747-1.444,6.239-4.608,9.432-6.808c3.145-2.167,5.79-5.053,8.687-7.585c1.952-1.706,3.79-3.633,5.987-4.945
			c3.136-1.874,5.282-4.72,7.914-7.078c1.107-0.992,0.844-1.918,0.339-3.251c-1.703-4.488-3.74-8.838-5.407-13.351
			c-1.852-5.016-5.367-9.4-7.99-14.152c-3.481-6.307-8.031-11.972-11.04-18.556c-2.359-5.163-2.399-5.266-2.243-8.677
			c1.908,0.207,3.304,1.352,3.448,2.984c0.387,4.391,3.136,7.594,5.229,11.067c2.606,4.325,6.151,8.117,8.49,12.561
			c2.438,4.632,4.986,9.236,7.147,14.021c0.599,1.327,1.164,2.681,1.902,3.93c1.841,3.114,3.532,6.25,2.741,9.987
			c2.058,0.286,3.774,0.524,5.741,0.797c0-5.232-0.093-10.704,0.043-16.171c0.06-2.394,0.565-4.779,0.908-7.162
			c0.343-2.384-0.822-4.905,0.87-7.213c0.45-0.614,0.068-1.838,0.068-2.783c0-6.609,0.263-13.232-0.061-19.825
			c-0.491-9.985,1.365-19.863,1.011-29.826c-0.038-1.073-0.005-2.148-0.005-3.135c-1.213-0.684-2.449-0.166-3.505-1.351
			c-2.128-2.387-5.554-2.514-8.375-3.582c-4.486-1.7-9.103-3.038-13.463-5.127c-2.384-1.143-4.836-2.096-7.551-4.737
			c1.562,0.48,2.208,0.59,2.774,0.866c4.986,2.428,10.281,4.058,15.447,6.02c0.544,0.206,1.097,0.396,1.62,0.647
			c7.619,3.665,15.629,6.343,23.493,9.392c0.882,0.342,1.263,0.237,1.986-0.22c4.215-2.665,7.866-6.056,11.784-9.098
			c1.317-1.022,2.639-1.914,4.125-2.611c-0.222,0.695-0.249,1.573-0.701,2.051c-1.89,2.001-3.786,3.978-6.219,5.423
			c-1.805,1.072-3.555,2.426-4.906,4.015c-1.03,1.212-3.244,1.14-3.353,3.217c-1.482,0.219-2.963,0.439-4.655,0.689
			c0,3.878,0,7.783,0,11.688c0,8.18,0.128,16.363-0.04,24.54c-0.14,6.825-0.171,13.702,1.14,20.344
			c1.166,5.908,0.388,11.73,0.773,17.575c0.101,1.54,0.015,3.092,0.015,4.627c3.006,0.103,3.906-0.32,3.721-2.052
			c-0.354-3.308,1.243-6.121,2.024-9.114c0.653-2.503,1.838-4.906,3.046-7.218c2.698-5.169,3.917-11.008,7.266-15.871
			c-0.262-2.829,2.252-4.375,3.17-6.713c1.595-4.065,3.843-7.833,4.689-12.246c0.211-1.102,0.702-1.677-0.189-2.685
			c-0.633-0.716-0.798-1.845-1.071-2.533c0.047-1.142,3.224-0.33,1.062-2.313c1.65-1.317,0.364-3.248,1.256-5.396
			c0.828,2.815,1.511,5.136,2.259,7.676c-0.287,0.544-2.543,0.03-1.668,1.641c1.228,2.26,0.634,4.731,1.636,7.041
			c0.106-1.469,0.212-2.938,0.374-5.182c0.78,1.468,1.435,2.294,1.656,3.223c0.273,1.148-0.346,2.529,0.988,3.375
			c-1.004,2.169,2.353,4.179,0.233,6.389c0.691,1.488,1.382,2.977,2.077,4.474c0.437-0.359,0.756-0.62,1.538-1.262
			c-0.291,3.282,0.244,5.994,1.714,8.459c-0.556,0.556-1.112,1.112-1.793,1.793c2.796,0.908,3.778,3.019,3.855,5.933
			c1.453,0.2,2.924,0.705,4.163-0.729c2.488,1.842,2.068,6.213,6.054,6.78c0,1.603,0,3.149,0,4.892
			c1.078,0.789,2.209,1.617,2.987,2.187c-0.357,1.128-0.563,1.579-0.627,2.048c-0.043,0.319,0.114,0.665,0.181,0.998
			c-0.426-0.062-1.088,0.021-1.233-0.215c-0.428-0.693-0.141-2.016-1.649-1.595c-0.467,2.737-0.467,2.737,2.332,4.22
			c-2.193,0.777-4.36,1.544-7.088,2.51c3.584,2.735,3.773,6.401,4.154,9.825c0.226,2.03,0.769,4.283-0.526,6.344
			c-0.406,0.646,1.441,2.139,1.969,1.591c1.207-1.253,2.56-0.802,3.899-0.844c0.667,1.299,1.339,2.593,2.002,3.892
			c1.72,3.369,1.718,3.37-0.832,6.497c0.885,0.959,1.994,1.845,2.666,2.987c0.537,0.912,1.292,2.146-0.849,2.742
			c-1.305,0.364-1.004,1.179,1.186,2.128c0,1.297,0,2.668,0,3.872c0.277,0.277,0.382,0.466,0.502,0.476
			c0.102,0.009,0.238-0.176,0.329-0.297c0.912-1.207,1.523,0.107,1.61,0.45c0.676,2.672,0.837,5.36-0.35,8.26
			c1.644,0,3.444,0,5.371,0c0,1.073,0,1.814,0,2.899c-2.36-0.096-4.672,0.375-6.41,2.308c-0.27,0.3-0.778,0.567-1.164,0.551
			c-4.436-0.179-8.423,1.559-12.518,2.849c-0.286,0.09-0.626,0.012-1.282,0.012c-0.085-1.121-0.173-2.272-0.255-3.357
			c1.354-0.63,2.541-1.182,3.784-1.761c-1.285-1.402-2.339-0.244-3.553,0.293c-1.649-4.275-1.98-8.601,0.035-12.731
			c0.685-1.404,0.63-2.553,0.574-4.067c-0.701,0.312-1.368,0.884-1.88,0.768c-0.668-0.151-1.212-0.846-1.928-1.398
			c0.747-1.59,1.474-3.136,2.303-4.901c-1.305,0.293-2.223,0.637-3.153,0.675c-1.282,0.053-0.636-2.449-2.394-1.964
			c-0.02-0.222-0.146-0.553-0.045-0.651c1.217-1.187,0.387-2.675,0.62-3.999c0.274-1.552,0.458-3.044,2.26-3.797
			c0.939-0.392,1.493-1.275,1.62-2.57c0.119-1.209-1.44-2.148-0.247-3.586c0.368-0.443-0.695-2.073-1.369-3.868
			c-0.24,1.484-0.369,2.278-0.501,3.096c-0.873-0.185-1.8-0.339-2.702-0.582c-1.122-0.302-1.906-0.939-1.893-2.236
			c0.011-1.073,0.002-2.146,0.002-3.605c-1.749,2.823-1.903,3.234-2.388,6.719c-0.734-3.125-0.361-5.384-0.431-7.597
			c-0.068-2.15-0.015-4.304-0.015-6.658C130.275,318.505,130.77,318.796,131.533,319.081c0.324,1.803-1.586,4.362,1.607,5.545
			C132.672,322.687,132.236,320.882,131.533,319.081z M79.703,341.533c-0.53,0.309-1.08,0.534-1.515,0.898
			c-2.343,1.959-4.408,4.447-7.058,5.782c-2.247,1.132-3.996,2.602-5.81,4.189c-1.911,1.673-3.986,3.159-5.989,4.726
			c0.128,0.235,0.256,0.469,0.383,0.704c0.736-0.254,1.472-0.508,2.219-0.765c0.493,0.769,1.097,1.711,1.575,2.456
			c1.726-1.064,3.226-1.988,4.664-2.874c0.885,0.832,1.545,1.453,2.005,1.885c2.677-2.132,5.903-2.157,9.14-2.901
			c0-2.263,0.308-4.645-0.083-6.905C78.811,346.279,81.399,344.193,79.703,341.533z M116.375,355.73
			c-4.803-4.803-9.613-9.613-14.17-14.17c0,4.131,0,8.759,0,13.377c4.72,0.074,5.308,0.318,6.939,2.799
			c0.329-1.277,0.911-2.538,2.432-1.747c0.984,0.512,1.622,1.688,2.098,2.215C114.737,357.23,115.76,356.294,116.375,355.73z"/>
		<path fill="#333333" d="M178.488,148.79c0-1.281-0.204-2.005,0.035-2.524c1.1-2.386,2.324-4.714,3.631-7.317
			c-0.6-0.08-1.304-0.037-1.893-0.277c-3.585-1.458-5.659,0.992-7.24,3.296c-1.614,2.353-2.419,5.26-3.677,8.153
			c-4.842-0.409-6.823-5.04-10.219-7.527c-0.593,0.886-1.203,1.796-2.085,3.113c-0.211-1.419-0.34-2.285-0.508-3.413
			c-1.276,1.221-2.34,2.24-3.414,3.268c-2.346-2.796-2.914-3.006-8.493-3.272c-0.458-1.12,1.452-2.687-0.576-3.695
			c-0.475-0.236-0.4-1.577-0.596-2.499c1.148-0.179,2.015-0.314,3.035-0.473c-1.527-3.829-2.973-7.455-4.505-11.296
			c-0.611,0.347-1.227,0.695-1.833,1.039c-0.939-1.957-0.939-1.957-3.033-0.979c-0.094-0.456-0.184-0.886-0.319-1.538
			c-1.077,0-2.243,0-3.401,0c-0.468,2.992-0.932,5.951-1.457,9.306c-1.41-0.462-2.581-0.737-3.608-2.282
			c-1.153-1.734-3.044-2.994-4.671-4.393c-1.451-1.248-2.45-3.154-5.176-2.965c3.493-5.42,5.987-10.886,11.608-13.801
			c0.189,0.189,0.522,0.522,0.896,0.896c-0.886,1.593-0.748,3.332-0.583,5.194c2.163,0.272,4.362,0.549,7.318,0.922
			c3.162-2.795,6.924-6.119,10.399-9.191c-1.809-5.519-4.104-10.432-3.587-15.977c0.061-0.657,0.772-1.253,1.597-2.511
			c0.419,3.177-0.122,5.79,0.322,8.262c0.46,2.56,1.153,5.238,2.457,7.442c1.355,2.291,0.627,5.014,2.146,7.121
			c0,0-2.337-2.386-2.142-2.187c-2.914,0.575-3.612,3.289-5.319,5.139c0.574,0.212,1.118,0.412,1.663,0.613
			c-1.088,2.622-3.711,3.855-5.23,6.359c0.598-0.23,1.266-0.358,1.784-0.708c3.399-2.292,6.91-4.447,9.607-7.636
			c0.199-0.235,0.815-0.117,1.441-0.185c-0.412,1.645-1.131,2.794-2.836,3.375c1.938,0.541,3.626,1.012,5.833,1.629
			c-2.59-5.354-1.831-10.954-4.089-16.583c2.001,0.659,3.641-0.531,5.216,0.852c0.38,0.334,1.153,0.324,1.739,0.304
			c9.02-0.309,17.951,1.535,26.994,1.025c3.513-0.198,6.88-1.703,10.465-1.021c0.708,0.135,1.442,0.133,3.146,0.278
			c-3.472,2.418-6.111,4.386-8.881,6.149c-2.97,1.889-6.078,3.56-9.098,5.372c-2.921,1.752-5.807,3.563-9.264,5.69
			c4.433,0.592,8.136,1.087,11.806,1.577c0.216,0.615,0.409,1.162,0.659,1.873c2.249-2.695,4.39-5.261,6.531-7.827
			c0.191,0.082,0.383,0.163,0.574,0.245c-0.165,0.614-0.178,1.337-0.524,1.822c-1.024,1.433-2.179,2.772-3.266,4.126
			c0.733,0.733,1.29,1.29,1.591,1.591c-0.142,1.032-0.254,1.847-0.504,3.665c1.937-1.691,3.075-2.685,3.903-3.408
			c3.148,1.109,6.604-0.397,9.203,0.779c2.829,1.28,6.312-0.711,8.446,2.406c-1.297,3.128-5.444,24.44-5.995,27.997
			c-1.712-3.901,1.415-7.352,0.102-11.009c-2.651,1.024-4.893,2.975-7.932,1.967c-1.099-2.535,0.849-3.301,2.975-4.385
			c-1.392-1.802-2.559-3.721-4.124-5.227c-1.61-1.549-3.602-2.702-5.355-4.52c-0.635,1.707-1.309,3.283-1.796,4.915
			c-0.297,0.997-0.785,2.37-0.359,3.07c1.424,2.34,0.922,5.197,2.408,7.537c0.656,1.032,0.338,2.681,0.493,4.387
			c1.401,0,2.887,0,4.604,0c-0.171,3.345,0.093,6.26,1.711,8.982c0.76,1.279-0.589,4.036-2.124,5.12
			c-0.59,0.417-1.659,0.524-1.877,1.04c-1.67,3.954-5.252,4.891-8.836,5.951c-1.528,0.452-2.974,1.181-5.152,2.067
			c0.643-0.454,3.953-2.79,3.953-2.79c1.478-0.611,2.955-1.222,4.732-1.958c0-0.623-0.139-1.564,0.041-2.439
			c0.162-0.785,0.674-1.498,1.477-3.168c-1.254,0.815-1.64,1.066-2.45,1.593c0.115-0.821,0.017-1.478,0.298-1.837
			c0.515-0.658,1.045-1.176,0.304-1.975c-0.719,0.917-1.608-0.068-2.324,0.196c-0.813,0.301-1.62,0.755-2.274,1.322
			c-1.588,1.377-2.732,3.375-5.244,3.389c-0.194,0.001-0.381,1.024-0.593,1.634c-2.149-2.692-2.306-3.623,0.176-4.649
			c1.736-0.718,0.847-1.671,1.154-2.562c-2.063-1.385-3.055,0.333-4.135,1.352c-0.832-0.426-1.619-0.83-2.551-1.308
			c0.327-0.895,0.725-1.815,1-2.77c0.685-2.385,1.297-4.804,4.642-4.303c1.915-1.351,4.109-0.87,6.515-0.961
			c-0.268-0.787-0.639-1.488-0.72-2.22c-0.081-0.735,0.042-1.525,0.229-2.25c0.218-0.842,0.603-1.64,1.008-2.698
			C181.958,145.842,180.041,146.546,178.488,148.79z M182.852,135.394c2.668-1.69,3.229-4.105,5.356-5.15
			c0.549-0.27,0.504-1.749,0.784-2.884c-2.488,0-4.527-0.184-6.501,0.092c-0.779,0.109-1.528,1.167-2.064,1.948
			c-0.259,0.376,0.007,1.113,0.033,1.655c1.374,0.069,2.425,0.122,3.467,0.174C183.62,132.417,183.349,133.466,182.852,135.394z"/>
		<path fill="#333333" d="M106.708,117.915c0.111,0.269,0.249,0.78,0.33,0.771c3.166-0.349,4.707,1.307,5.362,4.186
			c0.109,0.48,0.543,0.886,1.288,2.041c-1.462-0.565-2.195-0.848-3.156-1.219c0.388,3.668-1.579,6.686-3.514,9.277
			c-3.252,4.353-5.123,9.219-6.871,14.187c-0.872,2.479-1.391,5.043-2.826,7.342c-0.759,1.215-1.174,2.666-1.061,4.298
			c0.207,2.975,0.69,6.157-0.105,8.918c-0.934,3.245-0.761,6.392-0.705,9.568c0.038,2.191,0.784,4.371,1.294,6.967
			c0.563-0.459,1.066-0.779,1.453-1.205c0.714-0.786,1.299-1.694,2.043-2.447c3.873-3.916,7.785-7.793,11.67-11.696
			c1.433-1.44,3.079-2.753,4.176-4.422c1.188-1.808,3.236-2.479,4.499-4.159c1.217-1.619,2.871-2.904,4.282-4.384
			c1.58-1.656,3.273-3.061,5.396-4.072c3.45-1.642,5.267-5.041,7.402-7.964c0.618-0.846-0.127-2.688-0.275-4.398
			c2.419,1.375,3.055,3.94,4.399,5.841c-0.614,1.152-1.997,0.885-2.252,2.629c-0.243,1.661-2.141,3.392-3.731,4.483
			c-4.446,3.051-8.451,6.56-12.198,10.407c-2.635,2.705-5.391,5.294-7.992,8.03c-4.275,4.498-8.546,9.006-12.661,13.648
			c-1.771,1.998-2.453,4.778-4.663,6.586c-1.289,1.055-1.083,1.307-2.567,1.55c1.154,2.893,0.292,5.943,0.658,8.783
			c1.564,2.098,3.009,2.606,5.811,1.623c5.253-1.844,10.656-3.527,16.312-3.977c1.522-0.121,1.522-0.321,2.24,0.377
			c-0.41,0.815-0.8,1.593-1.279,2.545c-3.787-0.767-7.383,0.617-10.83,1.94c-2.741,1.052-5.916,0.517-8.394,2.626
			c-0.612,0.521-2.281,0.423-3.382-0.703c-2.396-2.451-5.152-2.745-8.029-0.623c-0.055,0.68-0.116,1.426-0.183,2.253
			c-4.03,0-8.152,0.822-11.752-0.197c-5.134-1.453-10.716-0.478-15.953-3.101c0.644-0.854,1.085-1.438,1.387-1.839
			c2.623,0.343,5.253,0.217,7.477,1.107c2.353,0.941,4.696-0.139,7.147,1.001c2.163,1.006,5.163,0.211,7.888,0.211
			c-0.333-0.87-0.61-1.595-0.986-2.578c1.106,0.306,1.908,0.78,2.601,0.654c0.814-0.149,1.534-0.819,2.631-1.46
			c-0.661-0.579-1.226-1.073-2.214-1.937c0-0.384-0.107-1.304,0.027-2.188c0.172-1.132,0.537-2.234,0.819-3.349
			c-2.668-0.871-3.06-4.101-5.782-5.22c-3.004-1.236-5.735-3.232-8.045-5.703c-1.221-1.306-2.791-2.297-4.254-3.361
			c-1.346-0.979-1.932-2.882-3.905-3.128c-0.377-0.047-0.806-0.517-1.02-0.898c-2.777-4.96-7.659-7.584-11.833-11.052
			c-2.919-2.426-5.728-4.959-9.001-6.878c-2.386-1.399-4.915-2.555-7.392-3.797c-2.337-1.172-4.688-2.315-7.348-3.625
			c0.734-1.253,1.586-2.706,2.711-4.627c2.698,2.708,5.357,4.619,8.054,6.493c2.936,2.04,6.08,3.764,9.154,5.384
			c6.383,3.365,11.987,7.508,16.906,12.735c5.435,5.775,12.075,10.081,18.465,14.677c0.62,0.446,1.51,0.747,2.258,0.717
			c0.659-0.026,1.295-0.611,1.654-0.798c-0.184-1.222-0.054-2.521-0.587-3.435c-1.09-1.871,1.84-3.045,0.477-5.121
			c-0.814-1.24-0.402-3.284-0.553-5.11c-0.419-0.147-1.273-0.195-1.447-0.563c-0.294-0.623-0.427-1.972-0.163-2.107
			c2.144-1.097,0.734-2.719,0.864-4.137c0.146-1.586,0.757-3.129,1.165-4.689c1.386,0.508,1.331,1.664,1.687,2.826
			c1.222,3.991,3.044,7.858,0.865,12.069c0.344,4.789-0.693,9.628,0.558,14.396c0.137,0.521-0.591,1.237-0.517,1.811
			c0.289,2.258-0.746,4.576,0.572,6.85c0.377,0.651-0.49,2.023-0.859,3.319c1.46,0,2.511,0,3.741,0
			c0.066-0.257,0.182-0.676,0.282-1.098c0.308-1.3-0.278-2.354-0.943-3.385c2.281-2.729-0.569-5.399-0.1-8.204
			c0.461-2.755,0.213-5.654,0.07-8.479c-0.154-3.026,0.243-5.998-0.758-9.102c-1.069-3.318,0.272-6.954,1.408-10.167
			c0.994-2.811,1.144-5.751,2.062-8.566c0.625-1.918,0.621-3.984,1.681-5.943c0.635-1.174-0.063-3.068-0.197-5.192
			c0.19-0.129,0.933-0.578,1.612-1.108c0.843-0.657,1.86-1.24,2.404-2.104c1.478-2.351,2.797-4.806,4.072-7.276
			c0.559-1.082,1.912-2.22,0.073-3.524c-0.346-0.245-0.049-1.396-0.049-2.626c1.15,0.584,1.781,0.904,2.386,1.212
			c0.966-3.338,0.966-3.338,0.15-4.389c-0.974,0.153-0.593,3.253-2.642,1.205c-0.291-0.291-1.073-0.259-1.571-0.139
			c-0.986,0.238-1.932,0.641-3.006,1.015c0.278,0.343,0.533,0.659,0.842,1.04c-0.584,0.621-1.194,1.271-1.628,1.732
			c0.589,1.935,1.996,4.059,1.476,5.475c-0.662,1.802-0.39,3.575-0.944,5.42c-0.63-0.279-1.384-0.911-1.798-0.737
			c-0.972,0.41-1.812,0.972-2.444-0.305c-0.507-1.025-0.468-2.001,0.473-2.895c1.985-1.886,2.25-2.316,2.112-2.99
			c-0.301-1.47,0.197-2.915-0.536-4.504c-0.766-1.661,0.637-3.561,0.948-5.386c0.196-1.153,0.45-2.296,0.778-3.944
			c-1.331,0.643-2.412,0.856-2.96,1.513c-0.612,0.733-0.76,1.864-1.077,2.832c-0.736,2.248-1.493,2.752-3.641,2.384
			c-0.881-0.151-5.095-2.789-5.781-3.702c-0.102-0.135,0.15-0.536,0.358-1.193c1.965,0.936,3.888,1.852,6.082,2.897
			c0.666-1.171,1.452-2.553,2.296-4.038c-2.459-0.605-4.683-1.152-6.907-1.699c0.017-0.226,0.035-0.452,0.052-0.679
			c2.129,0,4.259,0,7.431,0c-3.313-2.043-5.764-3.453-8.096-5.038c-1.023-0.695-2.06-1.607-2.637-2.668
			c-1.085-1.996-1.885-4.024-4.656-2.013c-0.121,0.088-1.175-0.613-1.234-1.025c-0.19-1.348-0.699-3.182-0.046-4.021
			c2.254-2.899,1.518-6.118,1.658-9.263c0.034-0.756,0.005-1.514,0.005-2.777c1.976,1.463,3.033,3.565,5.463,3.467
			c0.405-0.016,0.763,0.54,1.373-0.027c0.365-0.339,1.241-0.486,1.709-0.291c1.985,0.827,3.875,0.278,5.852,0.015
			c1.99-0.265,4.043-0.058,5.953-0.058c2.178-3.788,3.498-7.502,1.486-11.248c0.915-1.776,1.709-3.317,2.525-4.902
			c0.981,0.859,1.949,1.706,2.981,2.609c-0.55,0.199-1.096,0.397-1.841,0.666c0,1.783-0.037,3.648,0.042,5.508
			c0.011,0.264,0.588,0.505,0.902,0.756c-0.221,0.694-0.382,1.415-0.675,2.076c-1.249,2.818-2.014,5.609-0.496,8.63
			c0.38,0.757,0.042,1.844,0.268,2.719c0.173,0.668,0.714,1.241,1.217,2.061c-1.363,0.703-2.308,0.87-3.423-0.138
			c-2.231-2.017-4.573-3.911-6.843-5.833c-1.803,0.999-1.803,0.999-2.642-0.809c-2.228,1.642-4.476,3.299-7.084,5.221
			c0,0.51,0,1.565,0,2.755c0.642,0.642,1.42,1.42,2.328,2.328c1.345-1.225,2.698-2.457,4.141-3.772
			c2.212,1.061,2.338,1.161,3.299,2.764c0.824-0.956,1.625-1.885,2.463-2.857c1.336,0.881,2.5,1.648,3.903,2.573
			c-0.437,0.594-0.872,1.172-1.293,1.76c-0.781,1.089-1.483,2.245-2.35,3.26c-1.3,1.522,1.411,2.32,0.576,3.705
			c-0.315,0.385-0.967,1.019-0.893,1.119c0.94,1.279,1.65,2.964,3.727,2.659c0.61,0.452,1.412,0.788,1.778,1.388
			c0.409,0.671,0.418,1.584,0.628,2.385C106.291,117.947,106.56,117.915,106.708,117.915z"/>
		<path fill="#333333" d="M205.594,63.691c1.445-0.372,2.182,2.074,3.609,0.36c0.72,0.822,1.435,1.639,1.907,2.179
			c-1.058,3.847-0.203,7.722-0.584,11.543c-2.711,1.33-5.673,1.481-8.719,1.477c-1.753-0.002-3.511,0.551-5.259,0.894
			c-1.446,0.283-2.87,0.684-4.323,0.92c-1.315,0.213-2.544,0.043-3.931,0.805c-1.326,0.729-3.382,0.017-5.09,0.196
			c-1.764,0.185-3.763-0.876-5.289,0.885c-0.135,0.155-0.612,0.065-0.917,0.013c-1.756-0.3-3.514-0.593-5.26-0.946
			c-1.613-0.326-3.182,0.224-4.936-0.608c-2.15-1.019-4.797-0.99-7.488-1.459c0.559-0.559,0.781-0.781,1.198-1.198
			c-1.586-0.6-3.088-1.169-4.555-1.725c-0.895-2.696,2.347-4.231,1.753-6.777c1.766-3.036,3.39-6.17,5.369-9.061
			c0.797-1.163,1.802-2.341,3.476-2.881c1.483-0.479,3.049-1.596,3.925-2.877c1.882-2.753,4.902-2.689,7.521-3.568
			c0.954-0.32,2.154,0.096,2.874-0.98c0.807,0.998,1.423,0.816,2.675,0.358c1.135-0.415,2.249,2.145,3.324,2.259
			c1.383,0.146,2.909-1.684,4.391,0.181c0.061,0.076,0.302,0.01,0.552,0.01c1.608-1.204,3.277-2.455,4.937-3.698
			c1.488,0.369-0.516,2.916,1.959,2.86c0.968-0.022-0.102,0.748-0.229,1.173c-0.118,0.394-0.065,0.838-0.098,1.448
			c1.521-0.69,2.872-1.303,4.224-1.916c0.124,0.154,0.248,0.308,0.372,0.463c-0.612,0.734-1.223,1.468-2.001,2.401
			c0.299,0.424,0.683,0.867,0.945,1.373c0.197,0.38,0.236,0.842,0.346,1.268c0.275,0.099,0.541,0.238,0.823,0.284
			c0.306,0.049,0.63-0.021,0.94,0.016C206.791,59.699,207.2,60.541,205.594,63.691z"/>
		<path fill="#333333" d="M260.491,380.292c1.24,1.124,2.265,2.052,3.583,3.246c-1.74,1.122-2.929,1.89-4.42,2.851
			c-1.083-1.003-2.182-2.021-3.27-3.028c-0.322,0.28-0.647,0.564-0.97,0.846c-0.596-0.596-1.152-1.152-1.903-1.903
			c-0.636,0.981-1.241,1.914-1.831,2.825c-2.871,0.944-3.379-2.877-5.971-2.909c0-2.3,0-4.618,0-7.062
			c0.447-0.209,1.076-0.503,2.292-1.072c-3.447,0.321-4.244-2.125-5.204-3.884c-1.439-2.636-3.654-4.988-3.339-8.449
			c1.114-0.664,2.685-1.483,4.106-2.509c0.527-0.381,0.892-1.222,0.998-1.905c0.249-1.607-0.719-3.116-0.069-4.91
			c0.573-1.579-2.89-2.469-1.695-4.31c1.065-1.64,0.76-3.222,0.839-4.855c0.082-1.694,0.018-3.394,0.018-5.564
			c1.125,0.448,1.857,0.739,2.538,1.011c-0.076-1.353-0.433-1.672-3.609-3.047c1.468-1.513-0.106-3.072,0.149-4.663
			c0.279-1.742,0.736-3.456,1.109-5.15c2.699,0.147,2.699,0.147,3.995,2.597c0.496-0.287,0.985-0.804,1.493-0.823
			c2.355-0.089,4.715-0.033,7.073-0.041c1.512-0.005,2.188,0.905,2.342,2.245c0.107,0.931,0.063,1.887,0.011,2.827
			c-0.094,1.713-2.601,3.879,0.954,4.877c-0.006,1.57,0.593,3.57-0.15,4.615c-1.308,1.838-0.742,3.625-0.722,5.369
			c0.031,2.719-1.055,4.995-3.463,5.374c-1.702,0.268-0.898,2.692-2.903,2.183c-0.984-0.25-2.27,0.439-3.336,0.896
			c-0.378,0.162-0.509,0.899-0.753,1.373c0.445-0.134,1.084-0.525,1.303-0.36c1.502,1.134,2.842,1.153,4.573,0.266
			c1.197-0.613,3.469,1.85,3.209,3.257c-0.104,0.563-0.523,1.084-0.563,1.64c-0.088,1.244-0.027,2.498-0.027,3.691
			c0.946,0.946,1.835,1.835,2.811,2.811c-1.278,0.644-2.525,1.273-3.986,2.01c0.296,0.812,0.43,1.758,0.929,2.433
			c1.351,1.829,2.719,3.688,4.348,5.255C262.189,379.509,260.16,379.76,260.491,380.292z"/>
		<path fill="#333333" d="M367.38,97.137c0.315,0.656,0.663,1.298,0.937,1.971c0.517,1.271,1.337,1.843,2.8,1.868
			c1.129,0.019,2.342,0.412,3.353,0.949c1.773,0.941,1.885,2.607,0.466,4.184c-1.983,2.205-2.084,2.254-5.5,2.667
			c0.505,1.538-0.021,2.693-1.299,2.469c-1.259-0.22-2.622-0.684-3.61-1.46c-2.775-2.178-5.38-4.572-8.112-6.932
			c-1.156,0.278-2.426,0.765-3.722,0.847c-1.449,0.092-1.44-0.067-1.386-2.322c0.01-0.422-0.086-0.952-0.342-1.257
			c-1.165-1.394-0.893-3.158-0.418-4.419c0.844-2.242,1.289-4.513,1.739-6.828c0.979-5.039,6.81-10.145,11.988-10.639
			c0.729-0.07,1.521-0.156,2.15-0.488c2.489-1.311,4.297,0.131,6.085,1.47c0.23,0.172-0.077,1.062-0.152,1.78
			c1.647,0,3.337,0,5.247,0c0.757,1.447,1.494,2.857,2.366,4.523c-1.2,0.194-2.066,0.334-2.98,0.481
			c-0.79,3.342,0.563,6.26,2.037,8.94c0.99,1.8,0.64,2.799-0.911,4.18c-0.397-0.808-0.805-1.637-1.511-3.073
			c-0.533,1.605-0.71,2.138-0.907,2.729c-0.211-0.037-0.595-0.025-0.624-0.12c-0.633-2.088-1.782-3.445-4.188-3.454
			c-0.669-0.003-1.363-0.479-1.997-0.827c-1.271-0.699-2.509-1.46-4.22-1.745c0.589,0.872,1.178,1.743,1.768,2.615
			c-1.73,0.765-2.268-1.567-4.144-1.886c0.712,1.56,1.191,2.612,1.671,3.663C365.148,95.68,366.222,97.698,367.38,97.137z"/>
		<path fill="#333333" d="M30.207,191.33c0-1.697-0.261-2.593,0.047-2.882c1.075-1.011,1.217-2.355,0.832-3.41
			c-1.209-3.308,0.31-6.201,1.007-9.231c0.067-0.291,0.093-0.591,0.163-1.055c0.827,0,1.678,0,2.924,0
			c-0.399,0.912-0.675,1.544-1.038,2.374c2.092,0.851,1.768,3.01,2.024,5.132c0.904-3.438,3.79-3.524,7.253-4.497
			c-2.1-0.223-3.223-0.343-4.374-0.465c-0.895-1.553,0.002-2.001,1.302-1.733c2.439,0.504,4.828,1.244,7.251,1.832
			c0.403,0.098,0.872-0.081,1.862-0.196c-3.568-2.103-7.161-2.49-10.512-3.545c-3.643-1.147-7.576-1.089-11.132-2.757
			c-0.81-0.38-2.109,0.285-3.184,0.471c0.908-2.134,3.977-4.127,5.849-3.335c3.736,1.58,7.791,1.638,11.581,2.807
			c3.471,1.071,6.783,2.71,10.294,3.576c2.261,0.558,2.18,2.408,3.853,4.197c-2.472-0.544-4.135-0.909-5.798-1.275
			c-0.073,0.161-0.145,0.321-0.218,0.482c0.817,0.539,1.634,1.077,3.013,1.987c-0.977,0.52-1.759,0.936-2.869,1.527
			c1.3,0.627,1.906,0.919,2.561,1.235c-3.859,1.453-4.963,5.887-8.373,7.217c0.473,1.426,0.838,2.527,1.186,3.576
			c1.778-0.775,3.179-1.934,3.37-4.015c0.183-1.987,1.703-2.657,3.481-4.045c0.176,2.024,0.303,3.48,0.439,5.047
			c0.552,1.071,1.45-1.923,1.934,0.013c0.527,2.107,3.094,3.98,0.834,6.477c-0.028,0.031,0.546,0.608,0.864,0.957
			c-3.144,0.356-3.144,0.356-5.96-2.063c0.712,1.911,0.926,3.199,1.615,4.14c0.71,0.971,0.689,1.47-0.075,2.35
			c-0.862,0.994-1.129-0.05-1.716-0.195c-1.878-0.463-3.814-0.687-5.729-0.997c-0.153-0.025-0.361,0.062-0.465-0.013
			c-3.636-2.612-8.232-2.922-12.063-5.055c-0.095-0.053-0.1-0.265-0.17-0.47c1.311-1.553,2.657-3.146,4.421-5.235
			c-0.935-0.392-1.677-0.703-2.325-0.974C33.373,189.694,32.109,190.347,30.207,191.33z"/>
		<path fill="#333333" d="M207.935,379.074c-1.096-0.714-2.032-1.325-2.986-1.947c0-4,0-8.077,0-12.247
			c5.071-2.357,10.508-1.119,15.799-1.38c1.233-0.061,1.92,0.776,2.128,1.972c0.302,1.737-0.216,3.201-2.049,5.294
			c1.365,0.619,2.604,1.181,3.892,1.765c0.38,1.463-0.179,2.457-1.841,2.738c0,0.952,0,1.894,0,3.137
			c0.692,0.074,1.417,0.152,2.358,0.253c0.966,1.904,2.007,3.956,3.118,6.146c-0.14,0.162-0.532,0.432-0.657,0.794
			c-0.574,1.669-0.85,3.368-3.375,1.724c-0.694-0.452-2.389,0.633-4.013,1.132c-0.058,2.406-1.776,4.086-4.675,4.949
			c-1.089-0.352-2.158-1.933-4.116-0.748c-0.919,0.556-2.467,0.206-3.706,0.063c-1.169-0.135-2.427-1.3-1.828-2.08
			c1.328-1.731-0.786-2.967-0.15-4.498c0.374-0.898-0.271-1.64-0.892-2.438c-1.804-2.315-1.183-3.545,1.88-4.182
			C207.101,379.467,207.359,379.311,207.935,379.074z"/>
		<path fill="#333333" d="M213.477,324.281c3.964,0.63,7.356,1.169,11.267,1.791c1.524,1.16-0.172,3.053,0.033,4.76
			c0.266,2.207,0.125,2.601-1.771,3.968c1.715,0.316,2.285,1.254,1.526,2.994c-0.711-0.295-1.425-0.591-2.555-1.059
			c0.956,2.596,2.507,4.381,1.087,7.198c-1.025,2.033,0.27,5.064-1.828,7.389c-0.164-1.018-0.303-1.884-0.503-3.132
			c-1.174,0.307-2.252,0.59-3.367,0.882c0.124,0.638,0.093,0.978,0.221,1.056c1.241,0.753-0.467,3.565,2.564,3.101
			c-0.834,0.652-1.801,1.043-1.89,1.58c-0.089,0.539,0.602,1.324,1.126,1.813c0.453,0.423,1.152,0.584,2.739,1.327
			c-3.145,0.85-5.073,2.161-7.45,1.698c-0.257-0.733-0.449-1.279-0.671-1.91c-1.07,1.89-1.07,1.89-3.897,1.943
			c0.193-1.789,0.389-3.603,0.597-5.531c-1.388,0.161-1.052,3.316-2.972,1.23c-0.291-0.317-0.554-0.948-0.438-1.306
			c0.887-2.716,0.819-5.342-0.559-7.847c0.711-0.564,1.725-0.956,1.899-1.582c0.516-1.86,0.649-3.822,1.05-5.72
			c0.114-0.538,0.564-1.063,0.985-1.464c0.612-0.584,0.315-0.972,0.224-1.704c-0.332-2.662-0.649-5.311,0.474-8.093
			C211.985,326.146,212.797,325.066,213.477,324.281z"/>
		<path fill="#333333" d="M132.327,192.06c-0.669-1.242-1.323-2.493-2.011-3.724c-0.775-1.386-1.685-2.584-3.208-3.333
			c-1.217-0.599-1.887-1.006-4.25-1.293c-0.031-0.437-0.089-0.887-0.084-1.337c0.003-0.292,0.101-0.582,0.179-0.994
			c0.828-0.122,1.697-0.25,3.013-0.444c-1.018-0.497-1.608-0.785-2.467-1.204c0.401-0.643,0.652-1.597,1.166-1.769
			c1.943-0.652,4.078-0.752,5.624-2.403c0.22-0.235,1.139-0.231,1.338,0.002c0.826,0.966,1.922,1.219,2.919,0.84
			c0.761-0.289,1.288-1.194,2.257-2.164c1.067,2.742,2.311,5.113,2.847,7.633c0.311,1.463-0.676,3.157-0.792,4.768
			c-0.157,2.186,0.11,4.406-0.081,6.587c-0.194,2.227-0.751,4.159-3.357,5.178c-3.215,1.258-6.185,3.141-10.014,5.149
			c0.69-1.944,1.722-2.549,2.447-3.35c0.736-0.814,1.545-1.562,2.218-2.235c-0.404-1.256-0.785-2.437-1.295-4.021
			c-1.373,1.189-2.51,2.172-3.668,3.175c-1.916,0-3.914,0-5.866,0c-0.96-2.905,0.189-5.482,0.938-8.029
			c0.224-0.761,1.59-1.187,2.652-1.918c-1.033-0.205-1.977-0.392-3.184-0.631c1.062-0.548,1.831-0.945,2.39-1.234
			C126.345,186.306,128.814,189.701,132.327,192.06z M135.515,177.416c-1.166,1.563-1.191,3.085,0.061,4.718
			C136.693,180.414,136.63,178.896,135.515,177.416z"/>
		<path fill="#333333" d="M178.485,314.813c-0.933,0.699-1.63,1.221-2.641,1.978c-0.628-0.204-1.826-0.531-2.971-0.991
			c-0.556-0.223-0.894-1.263-1.335-3.192c-2.03,0.037-2.03,0.037-2.95,1.801c-0.741-1.207-0.811-2.23,0.276-3.174
			c-1.444-1.061,0.492-1.916,0.178-2.908c0.308-0.041,0.649-0.189,0.919-0.106c1.209,0.372,1.805-0.817,2.89-0.972
			c-0.376-0.186-0.623-0.378-0.898-0.432c-1.318-0.262-3.058,0.707-3.913-0.656c-0.903-1.441-1.542-3.193-1.77-4.881
			c-0.494-3.661-0.357-3.679-2.09-6.515c6.252-1.67,12.343-4.085,18.659,0.103c0.376,1.228,1.014,2.732,1.269,4.298
			c0.262,1.613-0.138,3.265,0.944,4.81c0.913,1.305-2.437,2.828,0.024,4.298c-2.536,1.239-5.014,2.451-7.609,3.719
			C177.86,313.083,178.252,314.168,178.485,314.813z"/>
		<path fill="#333333" d="M57.745,215.055c0.468-1.106,0.751-1.778,1.052-2.489c0.2,0.067,0.443,0.097,0.628,0.217
			c3.084,2.01,7.043,1.982,9.991,4.301c2.403-0.407,4.823,0.538,7.3-0.571c2.128-0.953,4.484-1.668,6.99-1.361
			c1.008,0.124,2.253,0.059,3.08-0.437c1.834-1.1,2.488-0.446,3.318,1.249c0.825,1.685,2.593,1.155,4.255,0.935
			c0-1.419,0-2.787,0-4.385c1.314-0.222,2.293-0.462,1.824,1.407c-0.451,1.797-0.443,1.708,1.389,1.47
			c1.528-0.198,3.094-0.078,4.634-0.21c3.294-0.281,6.681,0.753,9.91-0.692c0.183-0.082,0.668,0.51,1.224,0.96
			c1.148-1.035,2.25-2.03,3.35-3.023c0.454,0.454,0.898,0.898,1.365,1.365c-2.665,2.656-5.29,5.353-8.013,7.948
			c-1.189,1.133-2.272,2.314-3.844,3.156c-1.443,0.773-2.654,2.284-3.517,4.075c-1.235,2.562-2.405,2.509-5.174,1.357
			c-6.565-2.729-13.173-5.335-19.879-7.728c-3.407-1.215-6.949-2.104-10.271-3.602C64.186,217.569,60.922,216.349,57.745,215.055z
			 M109.782,218.777c-0.997-0.637-1.779-1.509-2.659-1.622c-1.839-0.236-3.859-0.492-5.567,0.034c-2.168,0.667-4.1,2.102-6.12,3.199
			c2.459,2.129-0.881,5.914,2.499,8.117c1.812-1.598,3.723-3.229,5.57-4.929C105.404,221.828,108.441,221.518,109.782,218.777z
			 M85.245,217.093c-1.426,0.249-3.266-0.747-4.572,0.936c-2.225-0.537-2.483,1.182-3.066,2.537
			c3.334,1.095,6.581,2.162,10.23,3.361c0-1.141-0.239-2.007,0.072-2.571c0.272-0.494,1.162-0.647,1.55-0.838
			C88.099,219.412,86.72,218.291,85.245,217.093z M90.812,220.939c0,1.54,0,3.005,0,4.372c0.898,0.387,1.643,0.708,2.515,1.084
			c0-1.829,0-3.605,0-5.456C92.435,220.939,91.703,220.939,90.812,220.939z"/>
		<path fill="#333333" d="M180.683,342.812c0.761-0.084,1.503-0.166,2.716-0.299c-0.714-1.002-2.465-0.756-2.285-2.286
			c0.038-0.319-1.707,1.077-2.217-0.43c-0.371-1.095-0.72-2.197-1.125-3.438c1.06-1.104,2.134-2.515,4.424-2.259
			c1.175,0.132,2.505-0.659,3.692-1.193c2.121-0.954,3.987-1.139,5.831,0.721c0.631,0.637,1.884,0.657,3.053,1.021
			c-0.428,0.898-0.8,1.682-1.174,2.465c-1.064,2.231-0.752,3.182,1.429,4.676c0.509,0.349,0.898,0.874,1.375,1.351
			c-0.621,0.659-1.243,1.319-2.037,2.161c0.356,0.567,0.965,1.135,1.085,1.793c0.64,3.507-0.285,4.766-3.813,6.022
			c-2.071,0.737-4.258,0.947-6.348,1.705c-1.263,0.457-3.079-0.613-5.141-1.118c0.98-0.529,1.736-0.937,2.924-1.579
			c-1.721-1.142-2.636-1.749-3.367-2.234C180.015,347.646,180.321,345.429,180.683,342.812z"/>
		<path fill="#333333" d="M159.367,87.436c2.364-2.036,3.928,0.682,5.969-0.144c1.621-0.656,3.624-0.596,5.436-0.492
			c2.081,0.119,4.012,1.136,6.225,0.956c2.076-0.169,4.24-0.48,6.259,0.806c0.589,0.375,1.783-0.03,2.641-0.278
			c3.931-1.138,8.222-1.581,12.201-0.98c-3.031,0.455-5.257,1.121-7.617,1.508c-3.356,0.552-6.815,0.762-10.085,1.771
			c-0.842,0.26-1.465,1.229-2.507,2.157c5.243,1.87,9.827-0.847,15.1-0.197c-0.668,0.672-0.959,1.136-1.377,1.341
			c-0.515,0.253-1.143,0.267-1.711,0.423c-2.959,0.81-6.02,1.358-9.204,3.547c2.126,0.666,3.714,1.164,5.823,1.825
			c-4.932,0.445-9.328,0.739-13.698,1.264c-4.362,0.524-8.533-0.877-12.826-1.033c-1.334-0.048-2.809-0.577-3.499-2.463
			c4.898-0.92,9.926,0.744,14.657-1.921c-5.851-0.655-10.968-2.891-16.256-5.001c0.884,0,2.087-0.368,2.59,0.07
			c1.432,1.245,3.053,0.046,4.612,0.738c1.446,0.642,3.406,0.049,5.13,0.161c1.781,0.115,3.562-0.388,5.349,0.809
			c0.937,0.628,2.641,0.111,4.065-0.674c-3.452-0.683-6.924-1.279-10.349-2.079C164.032,89.022,161.835,88.201,159.367,87.436z"/>
		<path fill="#333333" d="M81.686,106.154c1.639,6.909,1.354,13.478,2.638,20.071c0.7,0.7,1.481,1.753,2.51,2.431
			c0.961,0.633,1.612,1.644,2.358,2.165c1.05,0.733,1.225,0.601,0.641,1.923c-0.576,1.306-0.126,3.065-0.126,4.555
			c1.316,0.473,2.529,0.91,4.24,1.525c-1.515,1.329-2.585,2.269-4.093,3.592c0,0.341,0,1.396,0,2.528
			c0.948-0.224,1.99-0.469,3.417-0.806c0.089,1.35,0.165,2.505,0.238,3.606c-0.441,0.176-0.702,0.332-0.983,0.384
			c-2.746,0.508-2.751,0.636-1.926,3.304c0.209,0.677,0.031,1.474,0.031,2.218c1.072,0.116,1.815,0.197,2.703,0.293
			c0,0.773,0,1.514,0,2.314c-0.783,0.449-1.677,0.963-2.935,1.685c2.568,1.571,2.44,3.752,1.719,6.135
			c-0.205-2.445-1.702-4.07-3.041-5.931c-1.293-1.798-1.793-4.325-2.131-6.607c-0.374-2.528,0.169-5.145-0.962-7.645
			c-0.451-0.997,1.101-2.124,0.011-3.493c-0.762-0.956-0.881-2.424-1.556-3.616c-0.211,1.756-1.083,3.493,0.42,5.169
			c0.319,0.356,0.119,1.198,0.12,1.816c0.006,6.605-0.014,13.211,0.02,19.816c0.006,1.141-0.215,1.816-1.905,1.368
			c0-2.53,0-5.157,0-7.785c0-3.932-0.052-7.864,0.012-11.795c0.096-5.871-0.892-11.676-1.188-17.526
			c-0.239-4.731-0.388-9.734-1.832-14.272C79.1,110.47,81.009,108.917,81.686,106.154z"/>
		<path fill="#333333" d="M352.269,78.248c-0.714,0.556-1.453,1.083-2.137,1.675c-1.72,1.489-4.008,1.764-5.743,0.27
			c-1.162-1-1.717-1.093-3.076-0.18c-0.95,0.638-2.674,0.123-4.532,0.123c1.422,0.974,2.344,1.606,3.384,2.318
			c-0.795,0.372-1.423,0.665-2.62,1.225c1.151,0.117,1.753,0.307,2.304,0.209c1.301-0.233,2.582-0.864,3.861-0.839
			c1.103,0.021,2.193,0.726,3.605,1.245c0.828,1.745,0.412,3.937-0.808,5.597c-1.037,1.411-0.634,2.902-0.895,4.319
			c-1.021,0-1.762,0-2.811,0c0.363-0.602,0.605-1.003,0.863-1.43c-0.265-0.122-0.619-0.42-0.78-0.338
			c-1.958,0.996-3.754,1.174-5.976,0.302c-5.722-2.244-5.782-2.092-11.002-7.348c2.115-2.947,4.907-0.107,7.449-0.605
			c-0.73-1.915-2.713-2.184-3.579-3.789c-0.448-0.831-2.377-0.862-3.815-1.31c-0.404-0.887,0.126-2.016,1.126-1.35
			c2.529,1.682,5.159,0.472,7.702,0.824c2.477,0.342,4.632-0.438,6.827-1.766c1.816-1.099,4.173-1.268,6.233-2.009
			c2.157-0.775,2.87,1.469,4.42,1.913C352.269,77.618,352.269,77.933,352.269,78.248z"/>
		<path fill="#333333" d="M169.481,229.518c-0.631-0.311-1.261-0.623-1.853-0.915c-0.841,0.596-1.774,1.256-2.504,1.773
			c-1.721-0.62,1.396-1.772-0.602-1.887c-1.512-0.087-0.837-1.42-1.526-1.87c-0.73-0.477-1.456-0.962-2.457-1.625
			c0.065-1.948,0.1-4.195-1.439-6.122c-0.408-0.511-0.437-1.43-0.418-2.156c0.035-1.3-0.336-2.235-1.192-3.324
			c-0.934-1.189-1.51-2.931-1.583-4.463c-0.11-2.32-0.263-4.463-1.785-6.381c-0.38-0.479-0.162-1.432-0.231-2.323
			c0.966,0,1.703,0,2.503,0c0.089,0.162,0.166,0.523,0.383,0.656c0.986,0.607,0.023,3.403,2.598,2.334
			c0.123-0.051,0.768,1.152,1.169,1.772c1.672,2.591,2.574,5.53,3.808,8.321c0.545,1.233,0.774,2.866,2.589,3.089
			c1.659,2.887,4.422,5.491,2.434,9.324C168.736,226.951,168.754,228.042,169.481,229.518z"/>
		<path fill="#333333" d="M156.765,161.361c-0.469,2.181,2.298,2.755,2.327,4.688c2.689-0.292,0.772,2.488,2.178,3.366
			c0.609,0.38-1.819,2.933-2.739,2.267c-1.672-1.211-3.504-0.703-5.393-0.931c0-0.848,0-1.584,0-2.54
			c0.704-0.124,1.567-0.277,2.489-0.439c-0.079-0.249-0.097-0.504-0.226-0.676c-0.862-1.156-1.974-1.434-3.203-0.68
			c-3.182,1.951-6.132-0.576-9.214-0.418c-1.635-1.595-3.35-3.145-3.267-5.652c1.455-2.532,4.352-1.322,6.358-2.649
			c1.73-1.144,4.113,1.097,6.203-0.112c1.181,0.944,2.361,1.888,3.541,2.831C156.135,160.731,156.45,161.046,156.765,161.361z"/>
		<path fill="#333333" d="M352.388,68.146c-1.592-0.419-2.976-1.239-3.612-0.847c-1.076,0.664-2.055,0.503-3.08,0.539
			c-1.193,0.041-2.281-0.392-3.42-0.743c-1.894-0.584-4.052,0.022-6.171,0.606c-2.81,0.775-5.649,1.436-8.538,2.341
			c0,0.9,0,1.638,0,3.421c-0.754-1.394-1.084-2.006-1.419-2.624c0.069-0.08,0.363-0.425,0.853-0.998
			c-1.055-1.238-2.11-2.476-3.053-3.582c-0.103-1.261,2.101-2.087,0.299-3.343c-0.061-0.043,0.216-0.651,0.403-0.955
			c0.539-0.874,1.111-1.727,1.765-2.732c1.979,0.928,4.058,1.956,6.261,0.394c0.12-0.085,0.46,0.049,0.646,0.165
			c3.843,2.373,3.834,2.409,6.433,2.43c0.716,0.006,1.569,0.116,2.109,0.515c0.713,0.526,2.349,0.216,1.967,1.886
			c0.752-0.179,1.643-0.163,2.227-0.579c1.076-0.765,1.304,1.114,2.727,0.499C350.263,63.901,351.509,65.875,352.388,68.146z"/>
		<path fill="#333333" d="M218.309,297.989c0.554,0.554,1.109,1.109,1.908,1.908c-3.058-0.156-1.34,3.294-3.368,3.965
			c-0.053-0.085-2.19-1.504-2.136-1.503c0.155,0.806,0.316,1.644,0.647,3.372c-2.784-2.132-4.398-3.916-4.742-6.559
			c-0.192-1.474,0.036-2.886-0.854-4.377c-0.785-1.315,0.486-2.961,1.376-3.997c2.11-2.453,4.545-4.627,6.936-7.001
			C221.234,291.175,221.576,291.614,218.309,297.989z"/>
		<path fill="#333333" d="M156.765,161.361c-0.315-0.315-0.63-0.63-0.944-0.944c-0.221-0.693-0.262-1.538-0.697-2.049
			c-1.115-1.309-2.444-2.434-3.599-3.713c-0.32-0.354-0.329-0.987,0.042-1.798c0.597,0.597,1.103,1.435,1.823,1.704
			c0.469,0.176,1.225-0.625,1.892-0.721c1.059-0.152,2.071-0.132,2.942,0.87c0.648,0.745,1.695,1.143,2.563,1.698
			c1.76-0.334,3.054-2.321,5.248-1.419c0.747,2.057-0.929,3.439-1.752,5.667c0.958-0.413,1.655-0.547,2.121-0.95
			c1.065-0.92,2.018-1.972,3.016-2.97c1.071,4.52,0.922,5.444-1.382,8.274c0.624,2.204,3.531,2.892,3.949,5.501
			c-3.325-2.121-3.78-2.588-5.245-5.389c-2.226,0-4.537,0-6.043,0C159.055,163.55,157.91,162.455,156.765,161.361z"/>
		<path fill="#333333" d="M78.375,157.799c0-1.93,0.101-3.62-0.021-5.294c-0.243-3.338-0.59-6.669-0.947-9.997
			c-0.043-0.402-0.311-0.944-0.637-1.121c-1.23-0.667-0.667-1.759-0.769-2.693c-1.856,0.549-1.298-1.335-1.877-2.011
			c-0.721-0.841-0.759-2.262-1.471-3.117c-0.772-0.928-0.732-2.679-2.543-2.713c-0.34-0.006-0.829-0.563-0.976-0.965
			c-0.747-2.055-1.261-4.206-2.148-6.193c-0.506-1.135-0.264-1.935-0.08-3.043c0.22-1.326,0.815-1.574,1.762-2.107
			c0.881-0.496,1.67-1.45,2.1-2.387c0.68-1.483,1.663-2.455,3.397-3.303c0.818,2.323,0.216,4.468,0.467,6.443
			c-0.542,0.542-0.994,1.375-1.431,1.367c-2.368-0.042-2.477,2.17-3.135,3.424c-0.46,0.877,0.059,2.875,0.847,3.681
			c2.062,2.107,2.773,4.886,4.276,7.242c0.206,0.322,0.601,0.524,1.322,1.126c0-2.86,0-5.304,0-7.749
			c0.221-0.005,0.441-0.01,0.662-0.014c0.086,0.959,0.19,1.918,0.255,2.878c0.322,4.749,0.045,9.637,1.124,14.206
			c0.953,4.036,0.594,7.895,0.559,11.847C79.109,157.38,78.901,157.452,78.375,157.799z"/>
		<path fill="#333333" d="M88.148,53.692c2.495,0,4.989-0.014,7.484,0.004c2.127,0.016,4.371-0.467,5.905,1.789
			c0.234,0.344,1.411,0.048,2.48,0.048c-2.445-3.636-6.25-3.927-10.038-5.182c5.456-1.588,8.596,1.345,11.477,4.532
			c1.364,1.509,2.201,3.484,3.408,5.153c0.401,0.555,1.247,0.767,1.823,1.22c1.568,1.232,3.155,2.372,4.424,4.026
			c1.695,2.208,2.327,4.444,1.597,7.184c-0.635-3.23-2.66-5.656-4.572-8.1c-1.822-2.33-5.221-3.11-6.301-6.276
			c-0.118-0.346-1.023-0.457-1.58-0.614c-2.105-0.594-4.217-1.163-6.585-1.811c-0.202,0.445-0.484,1.069-0.749,1.655
			c-2.976,0.707-6.114-0.722-9.071,0.979c-0.641,0.369-1.967-1.272-3.327-0.881c-0.048,0.014-0.495-0.778-0.426-1.13
			c0.056-0.286,0.637-0.701,0.932-0.662c0.707,0.094,1.368,0.503,2.076,0.633c0.844,0.155,1.716,0.15,3.057,0.25
			c-1.2-0.947-1.891-1.493-2.582-2.039C87.77,54.211,87.959,53.951,88.148,53.692z"/>
		<path fill="#333333" d="M157.519,183.796c2.253,0.516,4.076-0.103,5.785,1.115c1.959,1.396,2.304,1.267,1.349,3.827
			c-0.325,0.872,1.403,1.477-0.006,2.033c-0.812,0.32-1.645,0.675-2.498,0.785c-1.918,0.248-4.129,0.148-4.767-1.875
			c-0.565-1.792-2.202-3.302-1.115-5.788c1.676-3.837,1.365-3.973,2.797-5.472c0.613,0.848,0.685,2.471,2.382,1.815
			c0.947-0.366,1.845-0.86,2.765-1.295c-0.346-0.601-0.693-1.203-1.275-2.215c1.239-0.125,2.072-0.209,2.872-0.29
			c0.182,0.445,0.375,0.71,0.386,0.983c0.039,0.942-0.044,1.891,0.031,2.829c0.081,1.012-0.044,2.094-1.035,2.342
			c-0.8,0.199-2.044,0.305-2.6,0.029C160.589,181.626,159.079,181.88,157.519,183.796z"/>
		<path fill="#333333" d="M210.599,288.97c0-2.53-0.081-4.845,0.043-7.149c0.045-0.825,0.516-1.66,0.916-2.426
			c0.813-1.557,2.403-2.711,1.98-4.892c-0.108-0.558,1.656-1.921,1.596-1.984c-1.988-2.062,0.421-2.795,1.114-4.048
			c0.77-1.392,1.401-2.86,2.187-4.494c0.361,0.596,0.703,0.94,0.634,1.084c-0.569,1.179-1.475,2.263-1.755,3.494
			c-0.222,0.978,0.685,2.251,0.39,3.167c-0.46,1.427,0.852,2.268,0.731,3.59c-0.045,0.489,0.058,0.988-0.099,1.67
			C217.226,281.792,215.099,285.878,210.599,288.97z"/>
		<path fill="#333333" d="M102.308,70.842c0.604,0.432,1.208,0.863,1.835,1.311c-0.369,0.666-0.484,1.226-0.803,1.39
			c-1.929,0.989-3.838,2.095-5.884,2.759c-2.176,0.706-2.752-1.211-3.432-2.729c-1.936,3.399-2.294,3.612-5.816,1.8
			c-2.468-1.27-5.046-0.681-7.674-0.979c1.179-3.897,4.564-2.366,6.988-2.857c0.234-0.666,0.426-1.21,0.692-1.966
			c0.486,1.596,1.367,2.727,2.825,1.981c0.905-0.463,1.39-1.746,2.33-3.023c0.528,1.426,0.979,2.642,1.5,4.051
			c1.085,0,2.351,0.177,3.523-0.077c0.564-0.122,0.85-1.304,1.449-1.549c0.491-0.201,1.251,0.334,1.908,0.412
			C101.943,71.389,102.188,70.962,102.308,70.842z"/>
		<path fill="#333333" d="M86.457,382.827c2.993-0.571,5.248-1.523,7.352-1.26c2.214,0.276,4.388,0.981,6.63,0.763
			c0.768,1.144,1.507,2.244,2.53,3.768c-0.264,0.167-0.805,0.808-1.264,0.753c-2.891-0.343-5.598,2.801-8.662,0.428
			c-0.294-0.227-1.479,1.488-2.583,0.18c-0.193-0.229-1.281,0.369-1.562,0.127c-0.514-0.442-0.751-1.218-1.073-1.87
			C87.382,384.823,86.969,383.915,86.457,382.827z"/>
		<path fill="#333333" d="M143.542,169.388c-4.237,1.102-8.693,1.706-12.648,3.449c-3.821,1.684-7.721,3.018-12.284,5.048
			c2.663-4.12,5.499-6.182,9.463-7.369c3.887-1.164,7.846-2.138,11.677-3.501c0.532-0.189,1-0.56,1.494-0.844
			c0.744,0.738,1.55,1.484,2.276,2.3C143.675,168.645,143.543,169.076,143.542,169.388z"/>
		<path fill="#333333" d="M247.79,100.801c-0.66-0.663-1.436-1.443-2.245-2.255c0-1.376,0.122-2.801-0.036-4.195
			c-0.147-1.293,0.438-2.099,1.347-2.756c1.593-1.151,3.07-0.753,4.356,1.091c1.011,1.45,2.026,2.896,2.892,4.133
			C253.266,100.5,251.08,101.515,247.79,100.801z"/>
		<path fill="#333333" d="M237.04,82.493c0.086-1.395,0.057-2.606,0.828-3.94c0.756-1.309,1.27-2.279,2.878-2.194
			c1.796,0.094,3.209,0.579,4.039,2.486c1.505,3.459,1.097,4.83-1.948,6.427c-1.465,0.769-2.487,0.721-3.551-0.512
			C238.582,83.945,237.77,83.223,237.04,82.493z"/>
		<path fill="#333333" d="M196.219,30.507c0.638-1.246,1.139-2.225,1.845-3.604c0.192,1.29,0.321,2.155,0.466,3.134
			c1.477-1.159,2.836-2.224,4.529-3.553c0-0.615,0-1.67,0-2.823c0.396,0.087,0.784,0.095,0.806,0.19
			c0.729,3.095,0.725,3.087,3.634,3.407c0.42,0.046,0.826,0.227,1.275,0.357c-0.395,0.445-0.77,0.755-0.984,1.152
			c-0.124,0.229,0.012,0.598,0.033,0.904c2.274,0.339,2.274,0.339,3.218-1.447c1.75,1.405,3.188,2.934,1.892,5.961
			c-0.307-1.284-0.516-2.154-0.734-3.066c-0.77,1.07-1.509,2.098-2.495,3.469c0.578,0.331,1.351,0.774,2.136,1.224
			c-1.566,1.732-2.297,0.437-2.785-0.285c-0.458-0.677-0.439-1.677-0.581-2.315c-1.037,0.294-1.995,0.566-2.892,0.82
			c-1.568-2.028-0.23-3.777,0.705-5.615c-1.036-0.121-1.509-0.303-1.905-0.196c-0.836,0.226-1.727,0.465-2.422,0.949
			c-1.132,0.787-2.125,1.774-3.116,2.624C198.124,31.438,197.351,31.06,196.219,30.507z"/>
		<path fill="#333333" d="M358.108,65.67c-0.644-0.644-0.867-0.867-1.032-1.032c0.796-0.685,1.597-1.374,2.737-2.355
			c3.208,1.443,6.88,3.095,10.756,4.838c-1.086,0.832-1.404,2.139-2.822,0.852c-0.521-0.474-2.29-0.504-3.464,0.468
			c-0.397,0.329-1.607-0.324-3.014-0.667c0.768,0.863,1.064,1.197,1.361,1.531c-0.254,0.148-0.552,0.469-0.753,0.416
			c-1.832-0.48-3.219-2.047-5.361-1.967c-0.643,0.024-0.746-1.231,0.096-1.762C356.955,65.775,357.451,65.8,358.108,65.67z"/>
		<path fill="#333333" d="M229.554,75.708c4.006-0.798,7.805-2.829,12.331-2.026c-2.868,2.538-7.153,1.622-9.324,4.827
			c0.547,1.421,1.315,2.814,1.59,4.298c0.276,1.49,0.061,3.072,0.061,4.826C231.134,84.098,230.558,79.531,229.554,75.708z"/>
		<path fill="#333333" d="M309.912,47.109c0.567-1.374,0.841-2.039,1.13-2.739c2.913-0.463,5.227-0.154,6.502,3.221
			c0.473,1.253,2.435,1.944,3.686,2.868c-0.52,1.167-0.93,2.087-1.36,3.049c-0.197-0.081-0.486-0.109-0.614-0.268
			c-1.262-1.548-2.963-2.442-4.692-3.349C312.877,49.007,311.286,47.94,309.912,47.109z"/>
		<path fill="#333333" d="M173.478,184.048c0.159-0.863,0.318-1.726,0.525-2.854c0.71,0,1.481,0.116,2.202-0.024
			c1.438-0.279,2.731,0.259,3.101,1.442c0.376,1.201,0.607,2.771-0.828,3.813c-0.599,0.434-1.071,1.042-1.752,1.722
			c-1.772-1.217-3.36-2.307-4.784-3.285c-0.242-2.398,0.424-4.581-0.953-6.544c-0.269-0.384-0.516-1.68,0.69-1.789
			c0.348-0.032,0.943,0.55,1.103,0.973c0.364,0.964,1.721,1.723,0.31,3.14c-0.582,0.585-0.096,2.233-0.096,3.397
			C173.158,184.042,173.318,184.045,173.478,184.048z"/>
		<path fill="#333333" d="M204.897,104.038c1.823-1.041,3.535-2.574,5.493-3.012c3.221-0.72,5.815-2.702,8.889-3.665
			c2.483-0.778,4.753-2.24,7.241-2.994c2.398-0.727,4.881-1.744,8.114-0.507c-3.689,1.197-6.875,2.308-10.107,3.258
			c-3.366,0.99-6.49,2.617-9.786,3.699C211.475,101.889,208.716,104.278,204.897,104.038z"/>
		<path fill="#333333" d="M56.158,130.007c-2.434,1.183-4.494,2.184-7.275,3.536c0.412-1.305,0.421-2.109,0.825-2.474
			c1.327-1.198,2.764-2.285,4.232-3.309c0.443-0.309,1.187-0.495,1.685-0.354c1.117,0.317,2.015,1.178,3.376,0.996
			c0.397-0.053,1.193,0.986,1.379,1.644c0.424,1.503,0.585,3.081,0.876,4.765C58.9,133.867,56.969,132.716,56.158,130.007z"/>
		<path fill="#333333" d="M360.769,73.525c-0.395,0.315-0.783,0.89-1.186,0.901c-2.04,0.053-3.91,0.46-5.425,1.933
			c-0.081,1.413-1.173,0.802-1.889,0.944c-0.315-1.12-0.761-2.222-0.909-3.363c-0.158-1.227-0.036-2.49-0.036-3.806
			c1.892-0.801,3.595-0.647,4.804,1.147c0.955,1.416,2.303,1.332,3.696,1.299C360.14,72.896,360.454,73.211,360.769,73.525z"/>
		<path fill="#333333" d="M219.948,33.1c0.599-1.554,1.066-2.765,1.534-3.977c1.749,1.129,2.117,2.184,1.401,3.795
			c-0.825,1.857-1.611,3.731-2.437,5.649c-0.528,0-1.153,0-1.786,0c-0.108-0.199-0.359-0.567-0.318-0.603
			c1.299-1.14,0.666-2.532,0.59-4.028c-0.69,0.35-1.271,0.646-2.237,1.136c-0.354-1.422-1.348-3.312-0.859-3.848
			c1.483-1.625-1.314-2.421-0.244-3.807C218.068,28.367,217.478,31.585,219.948,33.1z"/>
		<path fill="#333333" d="M171.759,188.697c0.45,1.011,0.922,2.074,1.555,3.497c-6.363,1.074-11.586,4.994-18.077,3.996
			c-0.564-0.82-0.812-1.657,0.706-1.754c1.41-0.09,2.831-0.036,4.246-0.016c2.71,0.039,4.985-0.483,6.792-2.955
			C167.918,190.184,169.942,189.699,171.759,188.697z"/>
		<path fill="#333333" d="M114.407,132.593c0.075-2.233,2.494-3.056,0.845-4.805c0.772-0.772,1.545-1.545,2.294-2.294
			c0.531,1.263,1.069,2.545,1.816,4.323c0.679-2.445,1.566-3.317,3.381-2.013c-0.302,0.334-0.601,0.665-1.073,1.187
			c1.926,0.541,3.741,1.051,5.443,1.529c-3.037,1.925-3.042,1.942-6.403,0.915C118.608,130.795,116.611,130.966,114.407,132.593z"/>
		<path fill="#333333" d="M372.107,114.902c-1.163,0-2.328,0.036-3.488-0.03c-0.233-0.013-0.634-0.611-0.639-0.606
			c-1.509,1.441-2.984,0.919-4.356-0.141c-2.243-1.734-4.627-3.353-6.572-5.384c-1.687-1.761-1.454-1.984-4.415-2.654
			c2.195-0.486,3.531-0.927,4.956,0.546c1.347,1.393,3.111,2.374,4.532,3.706c2.489,2.335,5.692,2.886,8.765,3.796
			c0.414,0.123,0.83,0.236,1.246,0.353C372.126,114.627,372.117,114.765,372.107,114.902z"/>
		<path fill="#333333" d="M331.038,96.038c2,0.798,3.977,1.661,6.006,2.376c1.905,0.672,3.865,1.188,6.138,1.875
			c-0.545,0.856-0.801,1.629-1.335,1.993c-0.563,0.384-0.535,1.495-1.995,1.022c-1.864-0.604-2.921-0.484-3.629-1.322
			c-0.261-0.309-0.441-1.033-0.611-1.019c-1.832,0.16-1.043-1.963-2.21-2.437c-1.032-0.42-1.943-1.137-2.908-1.722
			C330.676,96.55,330.857,96.294,331.038,96.038z"/>
		<path fill="#333333" d="M283.484,210.298c-1.241-0.337-2.069-0.478-2.82-0.799c-0.437-0.187-1.119-0.75-1.061-0.994
			c0.426-1.784,0.865-0.025,1.323,0.044c0.205-1.731,2.038-1.796,2.907-2.844c0.818-0.985,1.574-1.335,2.652-0.218
			c0.214,0.222,1.214-0.423,1.868-0.485c0.512-0.048,1.517,0.222,1.511,0.292c-0.171,2.305,1.842,0.927,2.737,1.673
			c-1.016,0.278-1.61,2.044-2.737,0.963c-1.18-1.132-1.844,1.272-3.072,0.075c-0.483-0.471-2.134,1.749-3.31-1.361
			C283.484,208.522,283.484,209.256,283.484,210.298z"/>
		<path fill="#333333" d="M346.886,49.854c-1.114-1.998,0.611-3.633,1.054-5.343c0.253-0.979,1.444-2.173,3.17-2.259
			c1.012-0.051,1.972-1.153,3.239-1.963c0.471,0.431,1.008,0.923,1.545,1.414C352.906,44.407,349.932,47.098,346.886,49.854z"/>
		<path fill="#333333" d="M99.033,64.604c5.173,0.629,9.142,3.257,13.721,4.283c0.694,0.156,1.138,1.432,2.245,2.931
			c-2.336-0.56-4.02-0.495-5.018-1.291c-2.959-2.36-6.572-3.095-9.872-4.591C99.645,65.725,99.387,65.059,99.033,64.604z"/>
		<path fill="#333333" d="M209.199,226.529c3.22,0.466,4.714,2.102,4.234,4.64c-0.343,1.814-2.316,2.58-3.802,1.475
			C207.45,231.022,207.402,230.35,209.199,226.529z"/>
		<path fill="#333333" d="M204.819,199.309c-2.873-1.803-1.331-4.328-1.838-6.37c0.876-0.364,1.542-0.641,2.294-0.953
			C209.017,195.015,209.007,195.679,204.819,199.309z"/>
		<path fill="#333333" d="M94.613,77.661c1.083,2.168,2.12,3.669,1.713,5.602c-0.367,1.743,0.501,2.94,2.843,4.496
			c-1.899-0.358-2.713-0.512-3.556-0.671c-0.138,0.372-0.337,0.91-0.628,1.694c-0.552-1.493-1.206-2.742-1.448-4.066
			c-0.247-1.35,0.452-3.159-0.212-4.094C91.408,77.92,94.386,78.999,94.613,77.661z"/>
		<path fill="#333333" d="M72.995,199.07c-1.519-3.604,2.853-5.778,1.174-9.825c1.38,0.628,1.963,0.916,2.564,1.16
			c0.532,0.216,1.085,0.382,1.733,0.606c-0.142,0.502-0.134,1.136-0.4,1.288c-0.713,0.406-1.806,0.16-1.615,1.644
			C76.771,196.441,75.389,198.037,72.995,199.07z"/>
		<path fill="#333333" d="M385.941,99.09c-0.082,1.322,3.011,0.857,1.585,3.123c-0.313,0.497,0.867,1.934,1.475,3.173
			c-3.066,0.73-4.773-1.291-6.862-3.447C383.373,101.014,384.5,100.169,385.941,99.09z"/>
		<path fill="#333333" d="M350.211,58.032c0.524-1.605,1.121-2.536,2.637-2.463c0.923,0.045,1.944,0.208,2.749-0.113
			c0.647-0.258,0.873-0.893,1.722-0.11c1.014,0.935-0.167,1.157-0.227,1.703c-0.031,0.282,0.513,0.627,0.829,0.978
			c-1.34,0.336-2.604,0.883-3.877,0.905C352.873,58.951,351.692,58.406,350.211,58.032z"/>
		<path fill="#333333" d="M152.043,231.274c-1.131-0.548-1.902-0.922-2.636-1.278c-0.196-1.285-0.393-2.576-0.662-4.339
			c0.63-0.534,1.723-1.46,2.981-2.525c0.067,1.174,2.331,2.059,0.415,4.085C151.521,227.872,152.043,229.606,152.043,231.274z"/>
		<path fill="#333333" d="M153.348,173.957c0.635-0.377,1.332-0.993,2.139-1.221c1.081-0.305,2.163-0.043,2.813,1.03
			c0.607,1.003,0.719,2.004-0.278,2.862c-0.777,0.668-1.572,1.313-2.418,2.017C154.793,176.962,154.111,175.543,153.348,173.957z"/>
		<path fill="#333333" d="M330.985,52.714c-0.912-1.699-0.912-1.699-3.198-2.254c3.03-3.124,3.453-3.189,8.192-1.253
			C335.036,51.405,331.476,49.873,330.985,52.714z"/>
		<path fill="#333333" d="M220.578,408.638c3.844,2.203,8.029,3.898,11.433,8.039c-1.087,0.232-2.138,0.471-2.142,0.456
			c-0.658-2.705-3.37-3.09-5.121-4.515c-1.477-1.203-3.159-2.155-4.75-3.217C220.191,409.146,220.385,408.892,220.578,408.638z"/>
		<path fill="#333333" d="M221.788,304.143c0,1.97,0,3.94,0,6.135c-0.931,0.401-2.066,0.89-3.476,1.498
			c-0.179-2.298-0.778-4.191,1.951-5.071c0.571-0.184,0.718-1.687,1.06-2.582C221.478,304.129,221.633,304.136,221.788,304.143z"/>
		<path fill="#333333" d="M82.179,82.357c3.476-1.689,3.202,2.685,5.505,2.774c-0.773,1.163-1.529,2.3-2.529,3.804
			C84.113,86.631,83.166,84.54,82.179,82.357z"/>
		<path fill="#333333" d="M162.242,398.691c-3.239-1.216-8.043-5.13-11.614-9.19C155.557,391.63,158.421,394.923,162.242,398.691z"
			/>
		<path fill="#333333" d="M56.962,133.208c-1.852,1.834-3.633,2.689-5.895,2.706c-1.122,0.008-2.239,0.578-3.665,0.981
			c-0.08-0.906-0.154-1.75-0.227-2.581c0.194-0.031,6.935-1.106,6.935-1.106C54.957,133.208,55.805,133.208,56.962,133.208z"/>
		<path fill="#333333" d="M191.214,171.388c1.862-2.005,8.447-6.112,10.803-7.038c0,0.492,0.184,1.123-0.028,1.312
			C199.116,168.237,195.434,169.202,191.214,171.388z"/>
		<path fill="#333333" d="M106.708,117.915c-0.148,0-0.417,0.032-0.427-0.005c-0.21-0.801-0.219-1.714-0.628-2.385
			c-0.367-0.601-1.169-0.936-1.778-1.388c-0.944-1.259-1.889-2.519-2.833-3.778c0.989-0.141,1.693,0.208,2.422,0.951
			c1.859,1.895,3.857,3.654,5.737,5.409C108.525,117.043,107.617,117.479,106.708,117.915z"/>
		<path fill="#333333" d="M171.09,31.962c1.159,0,2.318,0,3.858,0c-0.454-1.743-0.803-3.087-1.245-4.787
			c1.667,1.509,4.686,0.295,4.84,3.817c-1.018-0.252-1.875-0.464-3.083-0.763c0.369,0.943,0.65,1.662,0.986,2.519
			c-1.771,0-3.555,0-5.339,0C171.101,32.486,171.096,32.224,171.09,31.962z"/>
		<path fill="#333333" d="M131.35,162.896c1.411-2.522,3.998-2.809,6.403-3.388c0.293-0.07,0.93,0.307,1.01,0.589
			c0.097,0.343-0.175,1.134-0.378,1.167C136.007,161.648,134.184,164.509,131.35,162.896z"/>
		<path fill="#333333" d="M90.819,307.614c0-5.556,0-11.112,0-16.651c0.224-0.036,0.335-0.053,0.446-0.071
			c0,5.556,0,11.111,0,16.667C91.116,307.577,90.967,307.595,90.819,307.614z"/>
		<path fill="#333333" d="M39.628,163.571c-1.842,0.217-3.577,1.342-5.302-0.251c-0.839-0.774-2.465-0.654-3.149-1.905
			c-0.094-0.172,0.162-0.535,0.377-1.165C34.26,161.362,36.944,162.466,39.628,163.571z"/>
		<path fill="#333333" d="M50.533,360.156c-1.87,0.693-3.232,1.198-4.959,1.839c0-1.982,0-3.556,0-5.256
			C47.966,357.055,48.43,359.315,50.533,360.156z"/>
		<path fill="#333333" d="M198.094,181.401c-3.468,1.868-6.765,4.388-10.999,4.177C190.816,184.352,194.03,181.803,198.094,181.401z
			"/>
		<path fill="#333333" d="M91.758,283.991c0-4.926,0-9.853,0-14.768c0.24-0.023,0.377-0.078,0.456-0.033
			c0.129,0.074,0.314,0.214,0.314,0.326c0.016,4.816,0.013,9.632,0.013,14.449C92.28,283.974,92.019,283.982,91.758,283.991z"/>
		<path fill="#333333" d="M133.585,332.209c1.04,0.431,2.08,0.862,3.125,1.296c0,1.488,0,2.97,0,5.054
			c-1.494-2.229-2.636-3.932-3.778-5.636C133.15,332.685,133.367,332.447,133.585,332.209z"/>
		<path fill="#333333" d="M382.654,92.502c0.584,0,1.007,0,1.565,0c0,2.185,0,4.281,0,6.436c-0.584,0-1.007,0-1.565,0
			C382.654,96.753,382.654,94.658,382.654,92.502z"/>
		<path fill="#333333" d="M187.541,30.991c0.579-1.044,1.096-1.612,1.169-2.232c0.052-0.439-0.796-1.013-0.711-1.413
			c0.145-0.678,0.709-1.267,1.243-2.128c0.848,1.646,1.588,3.081,2.325,4.51C190.508,30.059,189.414,30.403,187.541,30.991z"/>
		<path fill="#333333" d="M173.44,388.752c3.199,0.691,4.15,3.168,6.039,4.428c-0.529,0.529-0.964,0.964-1.584,1.584
			C176.535,392.929,175.199,391.126,173.44,388.752z"/>
		<path fill="#333333" d="M319.872,59.118c-1.391-0.939-2.833-1.858-4.195-2.885c-0.226-0.171-0.102-0.806-0.14-1.227
			c0.329,0.082,0.653,0.187,0.986,0.242C319.716,55.775,319.976,56.077,319.872,59.118z"/>
		<path fill="#333333" d="M180.058,314.372c0.471,1.798,0.937,3.577,1.487,5.679c-1.246-0.512-1.996-0.82-2.85-1.17
			C178.409,317.222,177.92,315.494,180.058,314.372z"/>
		<path fill="#333333" d="M99.256,86.945c0.236-3.508,0.448-3.776,3.369-4.753C101.302,85.853,101.302,85.853,99.256,86.945z"/>
		<path fill="#333333" d="M243.239,408.902c-3.538-0.276-5.249-2.427-7.879-5.126C238.976,404.982,241.058,406.571,243.239,408.902z
			"/>
		<path fill="#333333" d="M177.773,175.943c0.546,0.339,1.198,0.744,2.101,1.306c-0.781,0.874-1.354,1.515-1.992,2.23
			c-1.129-0.557-2.152-1.062-3.221-1.59c0.83-0.193,1.117-2.61,2.375-0.334C177.392,176.776,177.682,176.142,177.773,175.943z"/>
		<path fill="#333333" d="M127.148,354.923c0.329,1.608,0.61,2.988,0.927,4.54c-0.898,0-2.149,0-3.852,0
			C125.292,357.805,126.13,356.504,127.148,354.923z"/>
		<path fill="#333333" d="M55.007,263.927c-0.95,2.295-2.283,2.572-4.266,1.954c0.561-1.241,1.023-2.263,1.492-3.299
			C53.081,262.992,53.928,263.404,55.007,263.927z"/>
		<path fill="#333333" d="M205.612,40.209c0.333,2.057,0.782,3.691-1.002,4.824C202.867,41.97,202.867,41.97,205.612,40.209z"/>
		<path fill="#333333" d="M115.73,226.784c1.72-2.228,3.153-4.082,4.585-5.937C119.384,223.113,119.469,226.244,115.73,226.784z"/>
		<path fill="#333333" d="M352.269,77.303c0.716-0.142,1.808,0.468,1.889-0.944c0.95,0.307,1.9,0.614,3.246,1.05
			c-1.966,0.972-3.418,1.69-5.135,2.54c0-0.543,0-1.121,0-1.7C352.269,77.933,352.269,77.618,352.269,77.303z"/>
		<path fill="#333333" d="M99.799,208.775c-0.41,1.561,1.584,3.727-1.496,4.844C98.487,211.63,97.255,209.747,99.799,208.775z"/>
		<path fill="#333333" d="M91.753,266.969c0-2.723,0-5.446,0-8.169C92.927,261.491,92.28,264.248,91.753,266.969z"/>
		<path fill="#333333" d="M71.763,122.176c2.392,1.695,2.393,2.473,0.634,5.032c-0.208-0.105-0.603-0.207-0.606-0.321
			C71.748,125.534,71.763,124.179,71.763,122.176z"/>
		<path fill="#333333" d="M171.351,187.732c-1.469,0-2.194,0-2.855,0c-0.755-0.755-0.499-1.724,1.005-3.743
			C170.071,185.142,170.591,186.193,171.351,187.732z"/>
		<path fill="#333333" d="M334.354,75.562c1.596,0,3.046,0,4.621,0C336.702,77.922,336.702,77.922,334.354,75.562z"/>
		<path fill="#333333" d="M115.178,261.741c0.741-2.397,0.715-2.42,2.427-4.01C117.944,260.273,117.944,260.273,115.178,261.741z"/>
		<path fill="#333333" d="M143.733,181.36c2.408,0,4.817,0,7.225,0C148.566,182.474,146.119,181.985,143.733,181.36z"/>
		<path fill="#333333" d="M147.162,279.573c0,2.408,0,4.817,0,7.925c-1.207-1.741-0.655-3.083-0.762-4.289
			c-0.107-1.204-0.023-2.425-0.023-3.639C146.638,279.571,146.9,279.572,147.162,279.573z"/>
		<path fill="#333333" d="M178.58,147.805c-0.229,2.251-1.024,3.787-2.701,4.813C176.109,150.754,176.67,149.082,178.58,147.805z"/>
		<path fill="#333333" d="M179.61,362.237c0.739,0.739,1.184,1.184,1.754,1.754c-0.825,0.675-1.65,1.351-2.546,2.084
			c-0.059-0.147-0.376-0.538-0.298-0.82C178.789,364.282,179.195,363.348,179.61,362.237z"/>
		<path fill="#333333" d="M186.738,112.963c1.501-1.519,2.95-2.358,5.522-2.783C190.421,112.229,189.1,113.351,186.738,112.963z"/>
		<path fill="#333333" d="M180.281,25.284c0,0.774,0,1.194,0,1.583c-1.82-0.281-3.613-0.558-6.077-0.938
			C176.587,24.974,178.403,25.557,180.281,25.284z"/>
		<path fill="#333333" d="M183.883,25.306c0.798,1.416,1.597,2.832,2.565,4.549c-2.917-0.411-1.981-2.96-3.591-3.787
			C183.2,25.814,183.542,25.56,183.883,25.306z"/>
		<path fill="#333333" d="M360.769,73.525c-0.315-0.315-0.63-0.63-0.944-0.944c0.209-0.63,0.303-1.716,0.649-1.803
			c1.041-0.263,2.362,1.058,2.099,2.099C362.485,73.223,361.399,73.316,360.769,73.525z"/>
		<path fill="#333333" d="M107.523,83.874c0.467-1.511,0.934-3.022,1.582-5.118c0.274,0.9,0.455,1.493,0.784,2.575
			c-0.259,0.389-1.069,1.606-1.878,2.822C107.849,84.061,107.686,83.968,107.523,83.874z"/>
		<path fill="#333333" d="M242.521,408.137c1.739,1.755,2.819,2.845,3.889,3.926C244.314,412.411,243.539,411.735,242.521,408.137z"
			/>
	</g>
</g>
</svg>
