<?xml version="1.0" encoding="utf-8"?>
<!-- Generator: Adobe Illustrator 17.1.0, SVG Export Plug-In . SVG Version: 6.00 Build 0)  -->
<!DOCTYPE svg PUBLIC "-//W3C//DTD SVG 1.1//EN" "http://www.w3.org/Graphics/SVG/1.1/DTD/svg11.dtd">
<svg version="1.1" id="Calque_1" xmlns="http://www.w3.org/2000/svg" xmlns:xlink="http://www.w3.org/1999/xlink" x="0px" y="0px"
	 viewBox="0 0 314.869 421.47" enable-background="new 0 0 314.869 421.47" xml:space="preserve">
<g>
	<g>
		<path fill="#333333" d="M291.229,407.586c5.793,0.224,10.386,3.259,14.865,6.449c0.454,0.323,0.194,1.648,0.22,1.956
			c2.642,2.126,5.131,4.129,7.62,6.132c-0.067,0.258-0.133,0.515-0.2,0.773c-1.471,0-2.942,0.006-4.414-0.001
			c-7.836-0.037-15.681,0.111-23.504-0.228c-2.461-0.107-4.84,0.212-7.255,0.177c-0.796-0.011-1.586-0.511-2.379-0.788
			c0.313-0.753,0.539-1.558,0.957-2.247c1.008-1.658,2.003-3.342,3.196-4.864c1.278-1.631,0.279-3.012-0.689-3.818
			c-0.661-0.55-2.415-0.419-3.318,0.072c-2.719,1.481-3.957,4.238-4.129,7.104c-0.082,1.371,1.386,2.835,2.091,4.636
			c-0.712-0.561-1.581-1.006-2.107-1.707c-1.474-1.965-2.709-4.114-4.223-6.045c-1.61-2.056-3.828-1.884-5.459,0.139
			c-0.503,0.623-1.201,1.158-1.916,1.527c-1.965,1.013-2.186,2.283-0.578,3.794c0.449,0.422,0.849,0.896,1.631,1.731
			c-1.27,0.171-2.026,0.355-2.783,0.361c-7.919,0.062-15.837,0.139-23.756,0.099c-1.539-0.008-3.081-0.758-4.612-0.725
			c-6.84,0.147-13.677,0.455-20.515,0.695c-0.358,0.013-0.719-0.068-1.324-0.13c1.069-4.874,3.586-8.708,7.501-11.51
			c1.735-1.242,3.904-1.867,5.83-2.86c0.563-0.29,1.305-0.828,1.394-1.35c1.01-5.909,7.176-7.783,11.712-5.527
			c3.259,1.621,6.305,3.668,9.457,5.506c2.615,1.525,5.247,3.021,7.564,4.354c2.72-3.316,5.246-6.516,7.922-9.586
			c0.792-0.909,1.948-1.557,3.04-2.125c0.632-0.329,1.47-0.26,2.216-0.37c0,0.774,0,1.548,0,2.372
			c0.703,0.373,1.524,0.809,2.353,1.25c3.754-4.35,14.018-3.491,20.526,2.289c-1.002,0.223-2.204,0.179-2.948,0.742
			c-0.696,0.526-1.162,1.665-1.27,2.588c-0.163,1.388,1.609,3.246,2.787,3.26C288.629,411.732,291.157,409.45,291.229,407.586z
			 M238.069,419.673c2.913-0.881,5.254-1.454,7.472-2.336c0.754-0.3,1.701-1.408,1.659-2.092c-0.053-0.866-0.859-1.91-1.637-2.458
			c-1.389-0.979-2.856-0.343-4.042,0.592C239.667,414.842,238.599,416.793,238.069,419.673z M290.898,419.362
			c0.159-0.11,0.319-0.221,0.478-0.331c-0.307-0.869-0.437-1.87-0.961-2.578c-0.811-1.095-1.893-1.99-2.859-2.97
			c-0.543,1.335-1.399,2.633-1.559,4.012c-0.277,2.385,0.866,3.931,2.944,4.5c0-1.289,0-2.531,0-3.967
			C289.748,418.579,290.323,418.97,290.898,419.362z M293.641,415.437c-0.018,0.208-0.035,0.415-0.053,0.623
			c1.059,0.367,2.118,0.733,3.177,1.1c0.098,0.242,0.196,0.483,0.293,0.725c-0.742,0.648-1.483,1.296-2.39,2.088
			c0.235,0.485,0.589,1.214,1.079,2.223c0.555-0.998,0.845-1.652,1.251-2.224c0.838-1.179,1.951-2.218,2.525-3.505
			c0.293-0.657-0.063-2.175-0.61-2.51c-1.01-0.617-2.378-0.648-3.919-0.997c0.475,1.032,0.757,1.645,0.986,2.143
			C295.102,415.228,294.371,415.333,293.641,415.437z M256.279,417.394c-0.314-3.262-2.845-5.725-5.579-5.721
			c-0.937,0.001-1.861,0.107-1.391,1.474c0.549,1.595,1.103,3.188,1.664,4.81c1.213-1.147,1.124-1.119,0.656-2.622
			c-0.18-0.577,0.067-1.345,0.309-1.951c0.055-0.138,1.114-0.142,1.326,0.112c0.344,0.414,0.504,1.095,0.491,1.658
			c-0.012,0.522-0.353,1.037-0.558,1.577C254.253,416.958,255.156,417.152,256.279,417.394z M231.052,413.275
			c-0.377,0.103-0.753,0.206-1.13,0.309c0.187,1.01,0.149,2.151,0.637,2.984c0.342,0.582,1.403,0.742,2.143,1.09
			c0.153-0.205,0.306-0.409,0.46-0.614C232.458,415.788,231.755,414.532,231.052,413.275z M233.239,415.657
			c0.273,0.003,0.547,0.005,0.82,0.008c0.737-0.863,2.097-1.637,0.732-2.966c-0.422-0.411-1.332-0.323-2.018-0.463
			C232.928,413.376,233.084,414.517,233.239,415.657z M242.387,409.557c0.075-0.255,0.15-0.509,0.225-0.764
			c-0.994-0.442-1.967-0.956-3.003-1.256c-0.174-0.05-0.615,0.824-1.094,1.497C240.156,409.256,241.271,409.407,242.387,409.557z"/>
		<path fill="#333333" d="M96.08,50.303c2.2,1.966,4.4,3.931,7.039,6.289c-4.088,0.657-7.575,0.175-11.529-1.424
			c0.795,1.015,1.205,1.539,1.615,2.062c-0.097,0.149-0.193,0.298-0.29,0.447c-1.07-0.599-2.111-1.259-3.214-1.788
			c-6.487-3.109-10.985-8.16-14.261-14.438c-0.294-0.563-0.726-1.102-1.213-1.51c-3.285-2.754-5.908-6.186-7.018-10.181
			c-0.928-3.34-0.674-7.075-0.549-10.621c0.143-4.047,2.346-7.345,4.813-10.387c0.446-0.549,1.533-0.806,2.326-0.809
			C81.315,7.909,87.1,11.593,89.957,18.09c1.848,4.202,5.367,6.917,7.172,10.974c1.29,2.899,3.372,5.444,5.517,8.799
			c0.361-2.644,0.652-4.778,0.943-6.911c0.116-0.032,0.233-0.065,0.349-0.097c0.253,0.923,0.709,1.842,0.726,2.77
			c0.076,4.223,2.187,7.702,3.997,11.281c1.443,2.854,1.97,5.717,0.762,8.775c-0.127,0.323-0.116,0.7-0.208,1.307
			c1.481-0.177,2.799-0.334,4.393-0.524c-0.206,1.174-0.385,2.194-0.688,3.927c-7.688-5.403-15.013-10.551-22.338-15.698
			c-0.045,0.024-0.089,0.048-0.134,0.072c5.166,4.499,10.332,8.997,15.497,13.496c-0.059,0.109-0.118,0.219-0.177,0.328
			c-3.17-2.163-6.339-4.326-9.509-6.489C96.2,50.168,96.14,50.235,96.08,50.303z M86.163,37.835
			c0.131-0.116,0.262-0.231,0.393-0.347c-1.207-1.613-2.414-3.226-3.621-4.839c-0.108,0.084-0.215,0.167-0.323,0.251
			C83.795,34.545,84.979,36.19,86.163,37.835z"/>
		<path fill="#333333" d="M131.701,127.532c-0.257-1.401-0.514-2.802-0.863-4.704c0.841,0.635,1.288,0.972,1.731,1.307
			c0.196-1.175,0.39-2.318,0.576-3.463c0.081-0.501,0.07-1.03,0.23-1.503c0.267-0.792,0.807-1.523,0.93-2.326
			c0.267-1.741,2.068-2.242,2.713-3.619c0.932-1.989,1.778-4.017,2.677-6.022c0.315-0.701,0.641-1.402,1.027-2.066
			c0.5-0.86,1.066-1.681,1.694-2.661c-0.78-0.4-1.322-0.677-2.134-1.093c3.16-2.647,6.123-5.129,9.208-7.713
			c-0.212-0.368-0.477-0.828-1.023-1.775c1.021,0.636,1.579,0.984,2.245,1.399c-0.548-1.244-1.051-2.387-1.695-3.847
			c-2.478,1.217-5.211,2.514-7.9,3.897c-1.498,0.77-3.256,0.946-4.297,2.706c-2.014,3.405-2.546,6.653-0.103,10.039
			c0.26,0.36,0.302,0.877,0.445,1.321c-0.508,0-1.016,0-1.529,0c-0.14,2.466-2.745,4.011-5.516,3.02
			c2.047-3.507,4.944-6.711,4.11-11.189c-0.386,0.355-0.839,0.773-1.311,1.207c-1.798-2.906-1.798-2.906-4.315,0.614
			c-2.633-0.861-5.311-1.531-7.765-2.681c-0.616-0.289-0.51-2.116-0.736-3.236l-0.027,0.033c2.099,0.737,4.116,1.847,6.496,0.922
			c0.514-0.2,1.308,0.096,1.896,0.346c2.243,0.953,3.85,0.635,5.603-1.113c0.554-0.552,1.189-1.092,1.889-1.416
			c4.356-2.017,8.757-3.938,13.097-5.989c0.534-0.252,1.067-1.05,1.139-1.65c0.493-4.104,0.446-8.17-1.103-12.116
			c-0.273-0.695-0.039-1.589-0.039-2.391c0.176-0.015,0.352-0.03,0.528-0.045c0.18,0.585,0.359,1.169,0.535,1.741
			c2.215,0.047,4.462-1.806,6.582-0.507c0.007,0.335,0.015,0.671,0.022,1.006c-1.963,0.378-3.927,0.756-6.067,1.169
			c0.308,0.997,0.577,1.87,0.815,2.641c0.513-0.595,0.957-1.565,1.476-1.607c0.782-0.063,1.616,0.522,2.438,0.836
			c0.496-0.523,1.001-1.055,1.931-2.035c1.446,7.667,4.863,14.648,0.218,22.472c6.843-3.735,12.53-1.015,18.473,1.786
			c-0.57-0.913-1.141-1.827-1.756-2.811c0.241-0.058,0.673-0.162,1.084-0.261c-0.653-5.365-1.305-10.719-1.956-16.073
			c0.172-0.032,0.345-0.064,0.517-0.097c0.544,2.363,1.087,4.727,1.615,7.021c0.073-0.129,0.192-0.342,0.436-0.776
			c0.68,3.323,1.317,6.44,2.019,9.871c1.571-1.076,2.916-1.998,4.261-2.92c0.193,0.152,0.385,0.304,0.578,0.456
			c-3.919,1.733-5.256,4.993-5.439,9.342c-2.605-2.808-3.396,0.03-4.875,0.56c0.844,0.996,2.178,1.874,2.209,2.795
			c0.033,0.988-1.16,2.017-1.862,3.096c0.394,0.217,0.886,0.49,1.4,0.773c-1.995,2.111-1.995,2.111-1.054,3.802
			c-0.692,1.336-1.19,2.298-1.773,3.423c-2.812-0.431-5.851-0.897-8.889-1.362c0.029-0.183,0.059-0.367,0.088-0.55
			c0.845-0.114,1.691-0.228,3.125-0.422c-5.549-2.366-5.378-6.059-3.345-10.314c-0.169-0.118-0.338-0.236-0.507-0.354
			c-1.162,0.563-2.275,1.4-3.498,1.621c-1.6,0.288-3.299,0.207-4.934,0.059c-1.115-0.101-1.72-0.11-2.396,1.097
			c-0.807,1.44-2.368,2.434-3.411,3.77c-1.509,1.934-3.143,3.865-4.151,6.061c-0.669,1.457-0.236,3.388-0.483,5.079
			c-0.201,1.376-0.391,2.916-1.149,3.982c-0.406,0.57-2.002,0.294-3.272,0.421c0.863,0.513,1.743,1.037,2.622,1.56
			c-3.206-0.98-6.275-1.56-8.749,1.732c0.173-1.163,0.347-2.326,0.516-3.456c-0.479,0.407-0.902,0.766-1.325,1.125L131.701,127.532z
			 M148.717,98.33c3.026-1.332,6.062-2.67,9.024-3.974C154.512,93.048,149.749,95.102,148.717,98.33z"/>
		<path fill="#333333" d="M158.357,55.12c-0.415-0.125-0.83-0.251-1.34-0.405c0.158-0.466,0.32-0.945,0.567-1.672
			c-1.179-0.133-2.162-0.244-3.214-0.363c-0.491-1.532,2.08-3.909-1.156-4.547c0.998-3.407,1.233-6.603,0.261-9.878
			c-0.173-0.584,0.069-1.61,0.506-2c1.56-1.395,2.254-2.815,1.692-5.018c-0.443-1.735-0.572-3.627,2.289-3.999
			c0.851-0.111,1.555-1.918,2.184-3.029c0.747-1.32,1.339-2.727,2.12-4.346c1.982,1.754,3.509,1.554,5.223-0.148
			c2.336-2.32,3.43-1.91,4.559,1.336c0.271-0.317,0.524-0.613,0.929-1.087c0.284,0.655,0.492,1.137,0.752,1.738
			c0.202-0.549,0.275-1.012,0.522-1.347c0.309-0.419,0.76-0.733,1.15-1.092c0.341,0.487,0.946,0.959,0.976,1.465
			c0.115,1.957,0.047,3.925,0.047,6.176c-0.491-0.531-0.961-1.04-1.224-1.324c-0.634,0.473-1.277,0.953-1.92,1.433
			c-0.351-0.643-0.793-1.255-1.029-1.938c-0.327-0.944-0.498-1.942-1.269-2.939c-0.165,0.868-0.487,1.741-0.467,2.605
			c0.073,3.125-0.441,3.729-3.619,3.973c-0.321,0.025-0.629,0.228-1.577,0.592c2.357,0.912,4.059,1.142,5.845,0.162
			c0.699-0.384,1.411-0.805,2.171-1.009c2.922-0.786,5.447,0.618,6.184,3.519c0.119,0.47-0.381,1.458-0.832,1.65
			c-1.996,0.853-4.085,1.896-6.345-0.518c0.276,1.178,0.435,1.857,0.663,2.829c-2.522,0.366-5.032,0.649-7.509,1.11
			c-2.806,0.523-4.778,2.168-5.67,4.916c-0.49,1.508-0.219,2.799,1.601,3.212c1.897,0.431,2.083,1.408,1.222,3.037
			c-0.583,1.102-0.885,2.337,1.237,2.233c0.508-0.025,1.053,0.725,2.021,1.447c0.63-2.66,1.425-5.272,1.833-7.942
			c0.444-2.909,1.712-4.206,4.264-3.506c-0.432,0.376-0.769,0.669-1.103,0.96c1.935,1.758,1.824,1.858-0.273,3.693
			c-1.169,1.023-1.959,2.478-2.92,3.739c0.161,0.222,0.321,0.443,0.482,0.665c1.889,0,3.779,0,6.227,0
			c-1.136,0.451-1.909,0.897-2.738,1.057c-1.82,0.353-6.064,4.802-6.099,6.617c-0.011,0.575,0.252,1.155,0.693,1.893
			c1.365-4.293,4.427-5.791,8.595-5.413c-0.862,0.221-1.751,0.37-2.579,0.682c-0.916,0.345-1.991,0.646-2.596,1.325
			c-0.541,0.606-0.737,1.717-0.662,2.568c0.026,0.295,1.317,0.48,2.094,0.737c0.017,2.37-1.557,4.532-3.83,5.191
			c-1.576,0.457-3.122,1.02-5.019,1.648c-0.516-1.166-1.149-2.597-1.843-4.164c-2.367,2.404-3.719-0.921-5.902-0.643
			c1.415-2.166,2.636-4.035,3.849-5.895c-0.639,1.53-2.018,2.925-0.911,4.865c1.717-0.678,3.579-1.098,2.099-3.54
			c-0.265,0.185-0.529,0.369-0.897,0.627C158.557,56.368,158.457,55.744,158.357,55.12z"/>
		<path fill="#333333" d="M248.002,203.08c0.458,0.817,0.916,1.634,1.509,2.692c-1.074,0-1.892,0-2.821,0
			c0.658,1.464,1.307,2.91,1.956,4.356c-0.241,0.271-0.481,0.543-0.722,0.814c-3.515-1.533-7.03-3.066-10.736-4.682
			c-0.202,2.651-0.516,5.216-0.552,7.784c-0.023,1.67-0.542,2.55-2.222,2.959c-0.539,0.131-1.331,1.293-1.203,1.764
			c0.956,3.505-1.572,5.389-3.343,7.616c-0.577,0.725-1.411,1.245-1.988,1.97c-1.824,2.29-2.422,2.642-4.825,1.048
			c-2.369-1.571-4.73-3.628-4.077-7.516c0.215-1.279-0.272-2.67-0.39-4.013c-0.035-0.394,0.004-0.845,0.165-1.198
			c2.089-4.571,4.203-9.131,6.321-13.688c0.37-0.796,0.726-1.61,1.201-2.343c0.953-1.468,2.365-2.313,4.093-1.923
			c1.818,0.41,3.737,0.802,4.22,3.231c0.196,0.984,1.065,1.834,1.627,2.745c0.675-0.501,1.678-0.867,1.952-1.534
			c0.494-1.2,0.536-2.474-0.817-3.496c-0.725-0.548-1.054-1.621-1.521-2.391c4.341-2.64,8.245-0.339,11.813,0.946
			c2.573,0.927,4.407,3.874,6.61,5.876c0.799,0.726,1.713,1.325,2.725,2.097c-0.658,1.151-1.673,1.26-2.804,0.523
			c-1.94-1.264-3.827-2.609-5.736-3.92C248.293,202.892,248.147,202.986,248.002,203.08z"/>
		<path fill="#333333" d="M54.766,131.758c-1.039-3.564,3.108-3.966,3.112-6.235c1.489-0.612,2.795-1.073,4.019-1.697
			c0.358-0.182,0.787-0.964,0.664-1.233c-0.935-2.033,1.092-1.719,1.541-2.538c0.387,3.47,0.758,6.788,1.161,10.396
			c-1.214,0.7-2.608,1.685-2.308,3.832c0.048,0.346-0.819,0.899-1.343,1.231c-1.884,1.197-3.798,2.348-5.711,3.498
			c-0.305,0.183-0.666,0.39-1.001,0.391c-4.601,0.01-7.565,3.723-11.565,5.093c-1.793,0.614-3.525,1.403-4.758,1.901
			c-1.998,1.493-3.534,2.884-5.285,3.903c-5.247,3.054-10.616,5.9-15.845,8.985c-1.015,0.599-1.592,1.926-2.406,2.887
			c-0.534,0.63-1.028,1.527-1.719,1.75c-2.817,0.907-5.74,1.488-8.549,2.415c-1.569,0.518-2.993,1.479-4.642,1.965
			c9.83-7.564,19.647-15.095,30.384-22.358c-0.671-1.286-1.655-3.17-2.639-5.054c0.13-0.072,0.26-0.143,0.391-0.215
			c0.64,1.019,1.359,1.997,1.9,3.066c0.709,1.401,1.438,1.497,2.725,0.588c4.848-3.422,9.759-6.756,14.666-10.093
			c3.409-2.318,3.424-2.296,6.101,0.355c1.12-0.687,2.21-1.356,3.586-2.2c-0.319-2.288,0.557-4.312,3.358-5.2
			C57.586,127.266,55.432,128.366,54.766,131.758z"/>
		<path fill="#333333" d="M144.945,181.15c0.804-3.894,1.423-7.521,4.247-10.304c0.424-0.418,0.474-1.213,0.837-2.221
			c0.217,0.035,0.862,0.14,1.597,0.26c-0.416-2.568,0.227-4.796,2.259-6.457c1.766-1.443,3.2-2.998,3.055-5.502
			c-0.018-0.313,0.407-0.652,0.627-0.978c0.251,0.01,0.502,0.02,0.752,0.03c0.075,1.867,0.174,3.733,0.209,5.601
			c0.011,0.577-0.307,1.187-0.2,1.728c0.133,0.68,0.452,1.762,0.863,1.847c0.609,0.127,1.61-0.276,2.02-0.791
			c1.367-1.718,2.503-3.618,3.837-5.366c0.226-0.296,1.246-0.43,1.458-0.211c0.716,0.741,1.796,1.729,1.717,2.521
			c-0.211,2.12-0.952,4.188-1.493,6.318c-1.345-0.209-2.967-0.946-4.155-0.508c-1.198,0.442-1.966,2.051-3.059,3.305
			c0.077,0.015-0.297-0.058-0.75-0.147c0.554,2.629-0.411,3.747-3.044,3.757c1.369,2.431,0.787,3.338-2.339,3.464
			c-0.055,0.69-0.111,1.396-0.169,2.131c0.418-0.289,0.807-0.558,1.195-0.827c0.33,0.656,0.66,1.312,1.028,2.044
			c-1.389,0.305-2.457,0.54-3.537,0.777c0.307,1.99,3.176,3.375,0.552,5.588c-0.262-0.733-0.373-1.314-0.662-1.787
			c-0.424-0.694-0.975-1.311-1.471-1.961c-0.361,0.297-1.047,0.625-1.023,0.886c0.088,0.956,0.294,1.947,0.701,2.809
			c0.2,0.423,0.941,0.589,1.021,0.635c-0.102,1.363-0.138,2.387-0.272,3.397c-0.062,0.47-0.227,0.976-0.496,1.359
			c-1.508,2.141-3.038,4.267-4.608,6.362c-1.157,1.544-2.387,3.033-3.564,4.52c0.466-2.064,1.122-4.145,1.365-6.274
			c0.253-2.22-0.153-4.526,0.199-6.72c0.508-3.167,1.129-6.474,5.052-7.462C148.419,180.59,146.809,180.712,144.945,181.15z"/>
		<path fill="#333333" d="M176.544,193.003c0.685-1.365,1.409-2.712,2.032-4.104c0.211-0.472,0.167-1.058,0.24-1.591
			c-0.507-0.041-1.026-0.023-1.517-0.134c-0.962-0.218-2.04-0.3-2.833-0.808c-1.814-1.162-3.51-0.837-5.188,0.084
			c-1.254,0.688-1.933,1.749-1.537,3.292c0.454,1.766,0.853,3.547,1.302,5.434c-0.843,2.514-1.79,5.337-2.736,8.159
			c-0.391-0.018-0.781-0.036-1.172-0.054c-0.31-1.614-0.674-3.22-0.892-4.846c-0.057-0.425,0.212-1.139,0.552-1.332
			c2.39-1.359,2.2-3.591,2.333-5.873c0.228-3.916,0.352-7.905,1.23-11.7c1.216-5.253,5.741-7.07,10.385-8.377
			c1.251-0.352,2.67-0.686,3.891-0.437c2.164,0.442,4.235,1.338,6.763,2.184c-1.92,2.155-3.856,0.969-5.755,1.466
			c3.378,1.764,3.42,4.857,3.721,7.917c0.093,0.94,0.827,1.818,1.351,2.895c-2.139,1.398-4.25,2.853-7.163,1.588
			c0-0.611,0-1.325,0-2.207c-1.651,0.443-2.491,0.979-1.919,2.89C180.222,189.41,179.159,191.301,176.544,193.003z"/>
		<path fill="#333333" d="M112.219,135.946c-0.512,3.712-1.025,7.424-1.538,11.141c1.486,1,1.875-0.102,2.438-1.071
			c1.029-1.77,2.15-3.488,3.232-5.227c0.194,0.117,0.388,0.234,0.581,0.351c-0.208,0.418-0.428,0.83-0.621,1.254
			c-1.503,3.294-3.003,6.589-4.497,9.887c-0.15,0.33-0.189,0.733-0.4,1.009c-1.926,2.521-1.928,2.721,0.423,5.267
			c-2.855-2.624,0.019-4.533,0.853-6.36c1.491-3.27,3.707-6.229,5.803-9.189c0.594-0.84,1.822-1.231,2.694-1.787
			c-0.316-0.074-0.851-0.199-1.385-0.325c0-0.12,0-0.239,0-0.359c0.589-0.117,1.177-0.233,1.996-0.395
			c-0.34-0.969-0.663-1.889-1.028-2.929c0.664-0.191,1.321-0.379,1.993-0.572c-1.849-4.254-1.849-4.254-4.811-1.16
			c-0.429-4.653-0.864-8.927,2.659-12.848c-0.001-0.004,0.072,0.357,0.229,0.676c0.123,0.25,0.351,0.449,0.774,0.965
			c0.782-1.222,1.404-2.348,2.172-3.363c1.653-2.182,3.348-4.336,5.112-6.427c0.286-0.339,1.02-0.301,1.992-0.553
			c0.028-0.086,0.251-0.775,0.474-1.465c0.179,0.025,0.358,0.05,0.537,0.075c-0.085,0.701,0.037,1.521-0.288,2.083
			c-3.122,5.39-3.948,11.444-5.155,17.391c-0.044,0.215-0.057,0.436-0.09,0.653c-0.597,3.972-1.638,7.477-4.951,10.434
			c-4.173,3.726-6.409,8.859-7.151,14.5c-0.113,0.859-0.149,1.759-0.024,2.612c0.211,1.444-0.272,2.349-1.117,3.629
			c-1.136,1.721-1.188,4.229-1.447,6.429c-0.148,1.256,0.219,2.572,0.354,3.86c-0.191,0.035-0.382,0.069-0.573,0.104
			c-0.156-0.835-0.499-1.685-0.437-2.504c0.299-3.989-1.061-7.52-3.003-10.838c-0.997-1.702-1.131-3.143-0.607-5.114
			c1.742-6.557,3.128-13.208,4.65-19.823C112.112,135.954,112.165,135.95,112.219,135.946z"/>
		<path fill="#333333" d="M136.905,331.783c0.131-0.899,0.411-1.805,0.367-2.695c-0.157-3.203-0.36-6.408-0.698-9.596
			c-0.073-0.689-0.825-1.887-1.189-1.859c-1.236,0.095-0.822,1.111-0.734,1.986c0.132,1.305,0.01,2.633,0.067,3.949
			c0.059,1.385,0.201,2.767,0.332,4.466c-0.999-0.067-2.243-0.15-3.733-0.25c0.196-2.916,0.319-5.615,0.58-8.3
			c0.151-1.554,0.428-3.111,0.818-4.623c0.522-2.024,1.604-2.446,3.388-1.393c0.734,0.433,1.365,1.039,2.312,1.776
			c0.905-1.262,1.805-2.517,2.772-3.865c-0.294-0.354-0.618-0.742-1.033-1.241c0.382-0.135,0.657-0.311,0.735-0.247
			c0.549,0.449,1.051,0.955,1.581,1.429c0.331,0.296,0.653,0.756,1.032,0.818c1.524,0.251,4.096-2.03,4.28-3.535
			c0.06-0.493,0.609-1.286,0.976-1.31c0.837-0.054,1.763,0.144,2.532,0.501c0.692,0.321,1.223,0.991,1.825,1.506
			c0.14-0.145,0.281-0.289,0.421-0.434c-0.329-0.438-0.657-0.876-1.174-1.564c2.423-0.424,4.578-0.801,6.734-1.178
			c0.049,0.135,0.098,0.271,0.147,0.406c-1.657,1.519-3.315,3.038-5.183,4.75c2.819,1.16,2.193,3.481,1.942,5.638
			c-0.257,2.211-2.06,3.318-4.281,2.909c-1.768-0.325-3.573-0.454-5.362-0.658c-0.214-0.024-0.447,0.08-0.653,0.036
			c-0.911-0.192-2.483-0.795-2.613-0.566c-0.84,1.479-1.696,3.098-1.89,4.749c-0.158,1.344-0.231,2.155-1.709,2.494
			c-1.248,0.287-1.754,1.183-1.303,2.525c0.325,0.967,0.334,2.07,0.789,2.956c0.992,1.931,0.519,3.599-0.799,5.696
			c-0.838-1.171-1.556-2.175-2.364-3.304c-1.121,0.681-2.337,1.419-3.626,2.202c0-2.516,0-4.878,0-7.319
			c2.707-0.971,3.186,1.476,3.939,3.528C136.386,332.039,136.646,331.911,136.905,331.783z"/>
		<path fill="#333333" d="M192.654,98.728c0.897-0.23,1.637-0.42,2.692-0.691c0,0.826-0.096,1.599,0.027,2.337
			c0.123,0.738,0.464,1.439,0.723,2.198c1.912-1.923,7.453-1.745,9.336,0.392c-2.722,2.99-6.287,3.919-10.231,4.303
			c-0.177,0.694-0.369,1.447-0.561,2.201c-0.117,0.007-0.234,0.015-0.351,0.022c-0.111-1.256-0.222-2.512-0.357-4.032
			c-0.765,0.158-1.441,0.333-2.129,0.431c-1.063,0.151-1.823-0.176-1.5-1.416c0.622-2.387-0.684-1.366-1.675-1.112
			c0,0.863,0,1.594,0,2.325c-0.169,0.012-0.337,0.025-0.506,0.037c-0.177-0.633-0.355-1.266-0.532-1.9
			c-0.129-0.011-0.258-0.022-0.387-0.033c-0.047,0.638,0.044,1.331-0.185,1.895c-0.186,0.458-1.084,1.105-1.106,1.083
			c-1.506-1.441-2.818-1.24-4.514-0.08c-1.106,0.756-2.735,0.504-2.929-1.375c-0.304-2.931,0.007-5.722,2.07-8.129
			c2.934-3.423,6.756-5.55,10.622-7.645c1.187-0.643,2.372-1.292,3.588-1.954c0.085,0.095,0.241,0.189,0.265,0.31
			c0.155,0.768,0.282,1.541,0.418,2.313c0.766-0.365,1.611-0.623,2.279-1.12c0.916-0.682,1.697-1.545,2.92-1.979
			c-1.3,1.39-2.613,2.769-3.897,4.174c-1.035,1.132-2.418,1.92-2.218,3.959C194.612,96.218,193.451,97.319,192.654,98.728z"/>
		<path fill="#333333" d="M243.83,249.639c0,0.657,0.059,0.953-0.009,1.215c-0.545,2.081-0.991,4.2-1.721,6.216
			c-0.436,1.206-1.09,2.545-2.054,3.31c-3.817,3.032-5.223,7.131-6.032,11.709c-0.298,1.689-1.83,3.149-2.182,4.842
			c-0.436,2.095-0.242,4.324-0.288,6.496c-0.007,0.351,0.31,0.757,0.212,1.049c-1.155,3.471,0.426,6.713,0.768,10.057
			c0.179,1.755,0.202,3.526,0.325,5.845c-0.965-1.677-1.611-2.8-2.445-4.251c-0.023-0.269-0.032-1.038-0.162-1.785
			c-0.751-4.311-1.564-8.612-2.286-12.928c-0.38-2.271-0.907-4.574-0.843-6.847c0.073-2.587,0.477-5.229,1.187-7.719
			c1.535-5.383,4.521-10.129,7.195-14.993c0.351-0.639,1.278-1.187,2.026-1.339C239.566,250.102,241.658,249.923,243.83,249.639z"/>
		<path fill="#333333" d="M126.504,261.385c-2.389,4.126-3.554,9.078-8.563,11.386c-1.262,0.581-1.853,2.617-2.901,4.21
			c0.787,0.172,1.158,0.253,1.82,0.398c-1.668,3.437-3.287,6.774-4.907,10.112c-0.239-0.095-0.478-0.19-0.717-0.284
			c0.257-0.853,0.492-1.714,0.775-2.559c2.326-6.94,4.742-13.851,6.968-20.822c2.063-6.459,3.887-12.995,5.92-19.464
			c0.276-0.878,1.018-2.019,1.785-2.255c1.996-0.615,2.431-2.174,3.259-3.738c1.034-1.953,2.595-3.627,4.446-5.233
			c0.044,0.441,0.146,0.885,0.124,1.323c-0.23,4.452-0.527,8.9-0.705,13.354c-0.101,2.523-0.404,4.904-2.113,6.952
			c-1.819,2.179-3.507,4.467-5.253,6.707c0.316-2.265,1.701-4.16,2.374-6.332c0.762-2.455,1.048-4.736,0.989-7.175
			c-0.031-1.262-0.239-2.519-0.368-3.778c-0.287,0.011-0.573,0.022-0.86,0.033c0.488,1.474-2.086,2.672,0.016,4.341
			c0.154,0.122-0.083,0.793-0.199,1.192c-1.203,4.132-2.419,8.261-3.631,12.39c0.335,0.19,0.669,0.379,1.004,0.569
			C126.014,262.27,126.259,261.827,126.504,261.385z"/>
		<path fill="#333333" d="M24.017,77.126c0.036-3.623,2.69-5.201,5.565-6.522c0.467-0.214,1.172,0.091,2.017,0.184
			c0.195-3.31,3.891-2.828,5.818-4.772c0.677,0.642,1.294,1.226,2.424,2.297c0-1.155,0-1.813,0-2.43
			c0.518-0.171,1.293-0.427,2.451-0.809c-0.294,0.895-0.519,1.581-0.812,2.471c4.179-1.741,8.166-1.484,12.221,1.21
			c-0.117,0.529-0.207,1.45-0.535,2.276c-0.32,0.803-0.839,1.542-1.35,2.252c-2.241,3.117-2.21,2.741-5.987,2.317
			c-2.502-0.281-5.19,0.492-7.708,1.134c-2.539,0.648-4.971,1.713-7.447,2.603c-1.715,0.616-3.198,0.514-4.497-1.009
			C25.686,77.754,24.782,77.534,24.017,77.126z"/>
		<path fill="#333333" d="M153.2,223.085c-1.395-0.693-2.965-1.456-4.52-2.248c-1.304-0.664-2.401-0.43-3.312,0.696
			c-0.688,0.849-1.36,1.711-2.023,2.547c-2.076-4.973-1.368-8.141,3.217-12.075c0.053,1.569,0.134,2.666,0.116,3.761
			c-0.019,1.223-0.127,2.444-0.224,4.148c2.268-1.701,1.981-3.93,1.869-5.716c-0.127-2.041,0.323-3.611,1.323-5.336
			c0.808-1.395,0.811-3.233,1.467-4.746c0.724-1.67,1.539-3.429,2.771-4.712c1.147-1.195,2.499-0.446,2.783,1.19
			c0.105,0.608,0.363,1.188,0.508,1.791c0.752,3.126,1.623,6.231,2.197,9.389c0.662,3.644-1.866,6.471-2.962,9.65
			C156.158,222.151,154.563,222.417,153.2,223.085z"/>
		<path fill="#333333" d="M121.957,226.153c1.741-4.334,3.466-8.674,5.227-13c1.603-3.938,1.968-7.699,0.082-11.831
			c-0.763-1.672,0.233-4.196,0.618-6.298c0.068-0.372,1.068-0.573,1.646-0.856c-0.094-0.42-0.186-0.832-0.284-1.27
			c0.198,0.027,0.408,0.002,0.442,0.068c0.995,1.939,1.945,3.902,2.967,5.826c0.377,0.71,0.943,1.907,1.377,1.887
			c1.235-0.057,2.505-0.501,3.641-1.044c0.586-0.28,0.915-1.097,1.829-1.521c-0.235,1.326-0.414,2.664-0.722,3.973
			c-0.267,1.136-0.752,2.221-1.013,3.358c-0.686,3.001-2.048,5.4-4.481,7.52c-2.554,2.227-5.063,4.927-6.446,7.945
			c-1.127,2.46-3.256,3.522-4.462,5.59C122.238,226.384,122.098,226.268,121.957,226.153z"/>
		<path fill="#333333" d="M175.299,130.412c-0.057,0.088-0.396,0.616-0.73,1.133c-3.007-0.328-4.676-2.714-4.66-5.93
			c0.013-2.537,0.962-3.802,3.446-4.24c1.181-0.208,2.313-0.852,3.395-1.433c3.048-1.637,5.107-1.35,7.685,0.972
			c0.59,0.531,1.538,0.665,2.335,0.987c0.2,0.756,0.423,1.596,0.664,2.505c-2.704-0.286-0.981,2.209-1.723,3.306
			c-1.113,1.644-1.996,3.444-3.044,5.136c-0.022,0.036-0.854-0.424-1.304-0.661c-0.956-0.504-1.865-1.152-2.878-1.477
			C177.614,130.431,176.624,130.518,175.299,130.412z"/>
		<path fill="#333333" d="M116.677,251.007c2.23-6.723,3.922-13.113,6.49-19.128c1.769-4.144,4.688-7.813,7.224-11.607
			c0.956-1.43,2.192-2.71,3.473-3.867c0.562-0.507,1.556-0.536,2.893-0.949c-0.394,1.376-0.563,2.066-0.787,2.738
			c-1.198,3.581-2.397,7.163-3.63,10.733c-0.233,0.674-0.533,1.36-0.956,1.926c-2.53,3.382-5.767,6.429-7.468,10.178
			c-1.536,3.386-3.874,5.894-6.015,8.684C117.648,250.043,117.329,250.322,116.677,251.007z"/>
		<path fill="#333333" d="M18.762,72.952c1.171,2.935,2.377,5.856,3.462,8.822c0.123,0.337-0.449,0.916-0.673,1.395
			c-2.173,4.64-6.305,7.383-10.094,10.465c-0.536,0.436-1.044,0.992-1.363,1.598c-2.884,5.495-5.049,11.191-4.693,17.56
			c0.028,0.505-0.082,1.017-0.172,2.027c-1.316-7.066-1.844-13.517,1.994-19.577c0.8-1.263,1.424-2.827,1.532-4.296
			c0.157-2.139,1.095-3.669,2.693-4.819c4.074-2.933,5.563-7.172,6.264-11.86c0.059-0.397,0.269-0.772,0.408-1.158
			C18.333,73.057,18.548,73.004,18.762,72.952z"/>
		<path fill="#333333" d="M111.687,197.24c6.57-8.124,6.424-17.031,6.683-26.151c0.275,1.171,0.717,2.334,0.774,3.515
			c0.048,0.99-0.422,1.993-0.545,3.005c-0.306,2.518,0.008,3.329,1.94,5.439c0.403-1.236,0.802-2.46,1.23-3.774
			c2.462,0.399,1.637,2.613,2.334,4.018c1.189-2.148,2.513-4.124,3.409-6.278c0.858-2.064,1.271-4.312,1.814-6.243
			c0.659,1.033,1.398,2.17,2.113,3.322c0.372,0.599-0.143,1.173-0.84,1.655c-0.595,0.412-1.162,1.184-1.293,1.881
			c-0.255,1.348-0.457,2.807-0.197,4.125c0.315,1.601,0.322,2.896-1.564,4.281c0.196-2.697,0.364-5.023,0.533-7.348
			c-0.062-0.016-0.123-0.031-0.185-0.047c-0.64,2.832-1.279,5.664-1.919,8.495c-0.204,0.145-0.408,0.289-0.612,0.434
			c-0.218-0.401-0.435-0.802-0.737-1.357c-0.296,0.636-0.683,1.192-0.813,1.803c-0.276,1.288-0.817,1.818-2.151,1.2
			c-0.313-0.145-0.901-0.081-1.172,0.131c-1.383,1.082-2.3,5.524-1.663,7.234c0.204,0.546,0.31,1.423,0.015,1.776
			c-0.284,0.34-1.175,0.356-1.745,0.241C115.499,198.277,113.93,197.816,111.687,197.24z"/>
		<path fill="#333333" d="M108.121,202.26c-0.967,4.423-2.063,8.604-2.766,12.849c-0.966,5.836-1.564,11.733-2.484,17.578
			c-0.215,1.365-1.092,2.625-1.664,3.933c-0.266-0.077-0.532-0.154-0.798-0.23c0.226-5.443,0.452-10.885,0.678-16.328
			c0.077,0.049,0.154,0.098,0.231,0.148c0.27-0.684,0.717-1.351,0.782-2.053c0.517-5.529,0.956-11.066,1.446-16.598
			c0.029-0.333,0.296-0.645,0.489-1.043C105.482,201.133,106.844,201.714,108.121,202.26z"/>
		<path fill="#333333" d="M240.096,379.442c-0.328,1.778-0.626,3.395-0.935,5.076c-0.913-1.041-1.648-1.878-2.644-3.014
			c0.134-0.352,0.36-1.111,0.703-1.813c1.098-2.248,2.059-4.591,3.41-6.68c1.677-2.594,3.691-4.971,5.787-7.743
			c0.555,3.235,1.05,5.727,1.374,8.242c0.099,0.767,0.012,1.898-0.47,2.347c-3.682,3.431-5.021,7.784-5.313,12.609
			c-0.02,0.333-0.077,0.664-0.117,0.996c-0.219,0.005-0.438,0.011-0.657,0.016c0-1.209,0.018-2.418-0.011-3.625
			c-0.009-0.354-0.198-0.701-0.22-1.057c-0.037-0.588-0.251-1.369,0.036-1.741C243.012,380.496,242.986,380.335,240.096,379.442z"/>
		<path fill="#333333" d="M236.571,352.224c0.807,1.617,1.185,2.778,1.918,3.635c0.278,0.325,1.765,0.223,2.024-0.152
			c0.928-1.342,1.623-2.859,2.29-4.362c0.346-0.78,0.448-1.669,0.777-2.477c-0.066,5.958-0.975,11.709-4.005,16.965
			c-0.702,1.218-1.54,1.156-2.514,0.405c-0.508-0.392-0.932-0.988-1.501-1.19c-2.432-0.862-2.424-2.405-1.622-4.489
			c0.678-1.76,0.983-3.661,1.515-5.481C235.703,354.222,236.1,353.41,236.571,352.224z"/>
		<path fill="#333333" d="M136.489,350.009c0.859,2.765,1.981,5.482,2.483,8.31c0.318,1.791-0.459,3.747-0.443,5.626
			c0.043,4.886,0.456,9.775,0.338,14.654c-0.11,4.574,2.253,8.535,2.68,12.938c0.062,0.641,0.128,1.281-0.06,1.95
			C134.831,379.619,135.952,364.799,136.489,350.009z"/>
		<path fill="#333333" d="M115.899,125.917c-3.37-0.678-5.385,1.187-6.525,5.684c-0.845,0.368-1.698,0.74-2.408,1.049
			c1.563-3.723,3.031-7.746,4.917-11.562c1.86-3.762,4.145-7.314,6.328-11.104c0.541,0.165,1.34,0.408,2.29,0.697
			c-0.44,0.519-0.874,1.032-1.474,1.74c0.822,0.161,1.521,0.297,2.897,0.566C117.313,116.359,116.973,121.336,115.899,125.917z"/>
		<path fill="#333333" d="M196.868,208.881c-0.2,4.663-0.445,9.325-0.562,13.991c-0.022,0.885,0.409,1.8,0.718,2.67
			c0.63,1.774,1.459,3.489,1.934,5.3c0.332,1.266,0.212,2.651,0.254,3.333c-2.324-2.059-5.039-4.567-7.875-6.93
			c-1.226-1.022-1.883-3.274-0.8-4.682c3.068-3.988,4.986-8.496,6.377-13.275c0.056-0.192,0.235-0.348,0.357-0.521
			C197.137,208.805,197.002,208.843,196.868,208.881z"/>
		<path fill="#333333" d="M204.043,48.949c-0.399-1.1-0.66-1.82-0.77-2.123c0.641-1.403,1.367-2.441,1.584-3.576
			c0.562-2.949,2.361-5.619,1.841-8.847c-0.119-0.741,0.845-1.64,1.27-2.487c1.895-3.784,3.456-7.784,5.76-11.298
			c1.902-2.901,4.167-5.842,8.391-6.95c-1.148,0.928-1.942,1.568-2.735,2.21c-4.609,3.732-6.15,9.207-8.16,14.408
			c-0.787,2.036-1.562,4.087-2.153,6.184c-0.331,1.173-0.217,2.465-0.404,3.687c-0.266,1.733-0.297,3.613-1.042,5.129
			C206.968,46.622,205.471,47.545,204.043,48.949z"/>
		<path fill="#333333" d="M204.128,226.89c-0.797-2.107-1.562-3.885-2.138-5.722c-0.514-1.64-0.517-3.165,0.826-4.662
			c0.872-0.972,1.281-2.439,1.665-3.753c0.797-2.725,2-5.153,4.152-7.081c1.255-1.125,2.24-2.332,2.333-4.269
			c0.062-1.281,1.028-2.519,1.589-3.776c0.235,0.084,0.469,0.168,0.704,0.252c-1.541,4.656-3.086,9.311-4.619,13.97
			c-0.296,0.901-0.572,1.81-0.808,2.729c-0.376,1.465-0.996,2.654-2.017,3.906c-1.067,1.309-1.087,3.505-1.461,5.334
			C204.166,224.737,204.207,225.703,204.128,226.89z"/>
		<path fill="#333333" d="M150.481,419.569c0.371-0.511,0.655-0.903,0.973-1.341c0.105,0.19,0.225,0.304,0.207,0.39
			c-0.112,0.564-0.371,1.125-0.364,1.683c0.019,1.451-0.04,2.496-2.059,2.483c-1.927-0.012-2.218-0.828-2.376-2.478
			c-0.67-6.98-1.495-13.945-2.256-20.916c-0.03-0.276,0.026-0.561,0.041-0.834c0.957-0.032,0.957-0.032,3.71,5.343
			c0.175-2.11,0.311-3.76,0.448-5.411c0.222,0.016,0.443,0.031,0.665,0.047c-0.32,2.773-0.792,5.539-0.911,8.32
			c-0.09,2.094,0.146,4.226,0.465,6.306C149.344,415.241,149.947,417.278,150.481,419.569z"/>
		<path fill="#333333" d="M97.043,253.752c2.024,0.844,2.239-0.458,2.141-2.248c-0.203-3.72-0.442-7.447-0.389-11.167
			c0.014-0.963,1.051-1.911,1.847-3.251c1.925,5.339-1.888,33.31-4.747,36.627c0.394-3.448,0.915-6.741,1.107-10.052
			C97.19,260.41,97.043,257.14,97.043,253.752z"/>
		<path fill="#333333" d="M138.676,148.568c-2.408-4.597-2.496-9.158-2.498-14.067c-0.79,0.493-1.198,0.747-1.689,1.054
			c0.043-5.195,2.698-7.289,6.919-5.344c-2.377,4.441-2.313,9.214-1.847,14.079C139.678,145.513,139.064,146.807,138.676,148.568z"
			/>
		<path fill="#333333" d="M64.478,84.32c1.184-2.12,2.088-4.523,3.665-6.342c1.581-1.825,3.833-3.069,5.807-4.579
			c2.068,2.339,2.129,4.385-0.014,6.923c-0.802,0.95-1.632,1.895-2.562,2.715C69.384,84.79,67.182,85.752,64.478,84.32z"/>
		<path fill="#333333" d="M92.669,305.115c-0.367-2.447-0.734-4.894-1.094-7.294c0.213,0.215,0.502,0.505,0.905,0.91
			c0.552-2.658,1.057-5.089,1.562-7.521c-0.788,1.109-1.606,2.261-2.424,3.413c-0.307-0.15-0.614-0.3-0.92-0.451
			c1.568-3.991,2.978-8.054,4.749-11.953c1.788-3.937,3.111-8.273,7.638-10.952c-1.474,2.288-2.918,4.09-3.885,6.12
			c-1.976,4.149-3.852,8.373-3.6,13.161c0.025,0.484-0.115,1.048-0.364,1.464c-1.943,3.239-1.872,6.828-1.911,10.409
			c-0.01,0.91-0.116,1.82-0.178,2.729C92.986,305.139,92.828,305.127,92.669,305.115z"/>
		<path fill="#333333" d="M86.386,118.227c0.41-0.689,0.821-1.378,1.471-2.468c-2.399,0.509-4.53,0.961-6.66,1.414
			c-0.054-0.264-0.109-0.528-0.163-0.792c2.662,0.092,4.919-2.348,7.865-0.843c0.542,0.277,1.564-0.053,2.22-0.386
			c3.844-1.949,7.682-3.919,11.444-6.02c1.441-0.805,2.421-0.59,3.734,0.952c-6.553,3.171-12.557,6.987-19.476,8.748
			C86.676,118.63,86.531,118.429,86.386,118.227z"/>
		<path fill="#333333" d="M144.742,160.368c-0.96-3.302-3.064-6.021-2.546-9.922c0.354-2.668,1.113-5.719-0.293-8.681
			c-0.709-1.495-0.124-3.604-0.124-5.435c0.226-0.066,0.452-0.131,0.678-0.197c0.782,0.879,1.564,1.757,2.517,2.827
			c0.711-0.943,1.381-1.832,2.174-2.883C145.251,144.213,141.803,151.936,144.742,160.368z"/>
		<path fill="#333333" d="M143.874,231.004c0.742,2.456,1.841,2.92,3.973,1.819c0.329-0.17,1.025-0.239,1.169-0.055
			c0.619,0.79,1.38,1.647,1.52,2.567c0.092,0.601-0.734,1.401-1.259,2.018c-0.411,0.483-0.99,0.822-1.794,1.464
			c-0.45-1.229-0.824-2.247-1.31-3.573c-0.546,1.542-1.011,2.855-1.473,4.163c-1.377-0.254-2.919-0.101-3.643-0.797
			c-0.706-0.68-1.119-2.5-0.698-3.336C141.16,233.68,142.646,232.428,143.874,231.004z"/>
		<path fill="#333333" d="M191.769,85.596c-3.808-0.161-4.607,3.228-6.952,4.612c-1.896,1.119-3.609,2.549-5.701,4.056
			c-0.259-1.97-0.257-3.225,0.853-4.701c1.288-1.713,2.56-2.782,4.649-3.559c1.941-0.722,3.389-2.767,5.315-4.459
			C190.44,82.661,190.978,83.849,191.769,85.596z"/>
		<path fill="#333333" d="M250.024,381.907c3.118,1.78,3.053,5.088,4.048,7.818c0.126,0.345-0.843,1.114-1.352,1.642
			c-0.092,0.095-0.427,0.005-0.628-0.064c-1.521-0.521-3.754,0.788-4.569-1.404C246.463,387.04,247.692,383.474,250.024,381.907z"/>
		<path fill="#333333" d="M226.014,29.552c0.312,0,0.381,0,0.451,0c-0.111,1.396,3.342,0.305,1.865,2.755
			c-0.739,1.227-1.133,2.662-1.691,3.999c-0.28,0.67-0.605,1.321-0.864,1.998c-0.532,1.392-1.241,2.243-2.939,1.508
			c-0.674-0.292-1.531-0.161-2.598-0.246C220.015,34.866,224.023,32.713,226.014,29.552z"/>
		<path fill="#333333" d="M106.38,148.959c-1.642,4.062-3.868,7.878-8.807,9.631c-2.803,0.995-9.162-1.967-10.35-4
			c-0.276-0.472-0.089-1.215-0.115-1.833c0.584,0.042,1.282-0.107,1.731,0.161c1.626,0.973,3.46,1.453,4.67,3.328
			c0.792,1.228,2.991,1.373,4.405,0.195C100.847,153.997,103.645,151.392,106.38,148.959z"/>
		<path fill="#333333" d="M275.063,283.415c-0.936,1.03-1.612,1.772-2.285,2.515c-0.735,0.812-1.332,1.859-2.233,2.385
			c-1.278,0.745-2.78,1.107-4.363,1.699c0.302,1.797-1.37,1.889-2.643,2.15c-0.477,0.098-1.623-0.656-1.602-0.962
			c0.083-1.206,0.225-2.593,0.892-3.518c0.613-0.851,1.868-1.39,2.946-1.725C268.66,285.062,271.602,284.348,275.063,283.415z"/>
		<path fill="#333333" d="M251.29,196.965c-0.525-0.721-1.08-1.423-1.568-2.167c-0.463-0.706-1.064-1.411-1.238-2.198
			c-0.335-1.507,0.292-2.323,1.916-1.657c3.011,1.234,5.996,2.532,8.943,4.083C256.414,195.529,254.683,200.214,251.29,196.965z"/>
		<path fill="#333333" d="M271.962,310.707c-2.661,1.648-3.842,5.342-7.85,4.88c0.07,0.189,0.141,0.378,0.211,0.567
			c-1.036,0.473-2.036,1.11-3.123,1.344c-0.493,0.106-1.652-0.586-1.654-0.92c-0.006-1.101,0.088-2.418,0.696-3.246
			c0.62-0.845,1.838-1.548,2.892-1.722C265.927,311.15,268.774,311.01,271.962,310.707z"/>
		<path fill="#333333" d="M242.678,46.8c-2.51-0.34-5.014-0.762-7.535-0.967c-0.695-0.057-1.497,0.441-2.154,0.841
			c-1.064,0.648-1.921,1.162-3.375,0.653c-2.247-0.786-4.672-1.066-7.221-1.603c0.276-0.549,0.513-1.022,0.778-1.549
			c-0.687-0.537-1.344-1.05-2.001-1.564c0.077-0.247,0.154-0.495,0.23-0.742c0.632,0.195,1.667,0.222,1.829,0.612
			c0.871,2.091,2.582,1.922,4.233,1.71c4.438-0.568,8.759-0.001,13.035,1.137c0.764,0.203,1.489,0.551,2.232,0.833
			C242.712,46.373,242.695,46.587,242.678,46.8z"/>
		<path fill="#333333" d="M179.31,196.588c0.228,2.196,0.559,4.684,0.677,7.182c0.02,0.426-0.817,1.183-1.358,1.291
			c-1.785,0.355-3.616,0.484-5.869,0.751c0.07-2.56,0.98-5.294,1.643-8.215c1.336,0.595,2.488,1.546,3.471,1.394
			C178.535,198.89,178.957,197.231,179.31,196.588z"/>
		<path fill="#333333" d="M108.421,65.656c-0.114-0.405-0.28-0.991-0.501-1.776c-0.691,0.376-1.213,0.66-1.916,1.042
			c-0.283-1.413-0.552-2.753-0.702-3.503c1.281-0.833,2.253-1.466,3.373-2.194c-0.236-0.605-0.457-1.168-0.776-1.984
			c2.285,1.114,4.305,2.099,6.478,3.159c-0.806,0.53-1.511,0.995-2.4,1.58c0.717,0.505,1.393,0.982,2.361,1.663
			C112.224,64.362,110.328,65.008,108.421,65.656z"/>
		<path fill="#333333" d="M128.701,68.882c-4.814-0.964-8.986-3.345-13.324-5.333c0.092-0.236,0.184-0.472,0.275-0.708
			c3.791,1.278,7.582,2.555,11.374,3.833c0.055-0.129,0.109-0.258,0.164-0.388c-3.226-1.497-6.452-2.994-9.678-4.491
			c0.039-0.203,0.078-0.405,0.117-0.608c0.397-0.024,0.839-0.175,1.184-0.052c2.539,0.91,5.065,1.858,7.583,2.828
			C128.511,64.778,129.52,66.21,128.701,68.882z"/>
		<path fill="#333333" d="M66.079,196.874c2.136-2.353,4.186-4.608,6.232-6.868c2.711-2.995,4.37-6.243,1.902-10.746
			c2.567,1.832,3.309,5.373,2.26,8.477C74.783,192.737,69.924,197.011,66.079,196.874z"/>
		<path fill="#333333" d="M174.109,151.665c3.525-2.443,7.138-1.091,10.584-1.126c0.365-0.004,0.993,1.412,1.06,2.206
			c0.103,1.231-0.604,2.184-1.982,2.05c-2.373-0.23-4.981,0.463-6.838-1.947C176.428,152.193,175.199,152.095,174.109,151.665z"/>
		<path fill="#333333" d="M272.143,220.247c0.726-1.539,1.309-2.774,2.195-4.652c0.492,1.368,1.091,2.309,1.108,3.26
			c0.023,1.261-0.464,2.376-2.186,2.348c-0.373-0.006-1.001,0.923-1.101,1.494c-0.325,1.853-1.606,2.513-3.109,1.46
			c-0.884-0.62-1.781-1.222-2.656-1.854c-1.08-0.781-1.25-2.287-0.609-3.834C267.934,219.069,270.041,219.659,272.143,220.247z"/>
		<path fill="#333333" d="M243.381,248.311c-2.613,0.511-5.15,1.008-7.612,1.489c1.4-4.379,6.602-6.288,6.732-11.406
			c0.303,1.665,0.606,3.33,0.994,5.464c0.465-1.098,0.75-1.768,1.034-2.439c0.2,0.085,0.4,0.17,0.599,0.255
			c-0.637,1.53-1.273,3.06-1.91,4.59c-0.239-0.058-0.479-0.115-0.718-0.173C242.73,246.669,242.959,247.246,243.381,248.311z"/>
		<path fill="#333333" d="M141.95,380.384c-0.591-2.306-1.404-4.583-1.718-6.926c-0.383-2.861-0.561-5.789-0.404-8.665
			c0.081-1.486,1.08-2.921,1.664-4.38c0.284,0.082,0.569,0.164,0.853,0.246c0,6.57,0,13.141,0,19.711
			C142.213,380.375,142.082,380.38,141.95,380.384z"/>
		<path fill="#333333" d="M247.754,258.096c-1.964,13.021-6.124,25.753-5.31,39.159C241.63,286.583,244.636,263.426,247.754,258.096
			z"/>
		<path fill="#333333" d="M140.246,358.119c-1.508-4.406-2.93-8.564-4.353-12.722c0.235-0.074,0.471-0.148,0.706-0.222
			c2.268,1.559,2.612,4.213,3.27,6.703c2.863-4.728-0.9-8.998-0.129-13.523c0.353,1.514,0.543,3.09,1.094,4.528
			c1.066,2.778,1.516,5.452,0.549,8.419C140.694,353.416,140.62,355.732,140.246,358.119z"/>
		<path fill="#333333" d="M274.47,379.673c-2.582-1.399-4.907-2.572-7.143-3.896c-2.208-1.308-3.39-4.238-2.524-5.95
			c0.47-0.929,1.097-1.472,1.96-0.367c2.417,3.094,4.822,6.197,7.224,9.302C274.152,378.976,274.247,379.245,274.47,379.673z"/>
		<path fill="#333333" d="M64.284,171.599c5.649-3.7,9.719-8.157,9.425-15.171c1.211,5.427,0.071,10.205-3.763,14.235
			C68.542,172.137,66.87,172.802,64.284,171.599z"/>
		<path fill="#333333" d="M285.868,16.366c9.682-5.297,19.364-10.593,29.056-15.896c0.246,0.934-0.078,1.527-1.348,2.126
			c-2.676,1.262-5.162,2.918-7.774,4.325c-2.64,1.422-5.323,2.766-8.012,4.094c-3.904,1.929-7.83,3.812-11.747,5.715
			C285.985,16.609,285.926,16.488,285.868,16.366z"/>
		<path fill="#333333" d="M250.984,378.677c-5.509,2.95-5.221,8.13-5.098,13.935c-0.938-0.744-1.725-1.048-1.905-1.564
			c-1.258-3.602,0.432-9.681,3.338-11.83c0.927-0.685,2.169-0.945,3.267-1.399C250.718,378.105,250.851,378.391,250.984,378.677z"/>
		<path fill="#333333" d="M187.546,150.536c2.927-1.316,5.07-2.585,7.568-1.809c0.803,0.25,1.365,1.277,2.038,1.948
			c-0.643,0.606-1.206,1.585-1.944,1.741c-1.521,0.321-3.169,0.424-4.696,0.18C189.608,152.452,188.838,151.474,187.546,150.536z"/>
		<path fill="#333333" d="M223.727,83.177c-3.179,2.149-5.786,3.91-8.44,5.704c-0.691-0.644-1.58-1.472-2.507-2.336
			c0.541-2.323,1.806-3.081,4.261-2.799c1.192,0.137,2.434-0.136,3.651-0.243C221.557,83.428,222.419,83.319,223.727,83.177z"/>
		<path fill="#333333" d="M122.374,149.099c-1.226,2.56-2.72,5.031-3.608,7.703c-1.014,3.052-1.489,6.284-2.118,9.077
			c-0.574-1.159-1.226-2.718-0.275-4.714c0.471-0.988,0.446-2.461,0.097-3.537c-0.586-1.809,0.782-2.67,1.372-3.919
			c0.284-0.602,0.492-1.239,0.759-1.85c0.73-1.67,2.289-2.177,3.83-2.705L122.374,149.099z"/>
		<path fill="#333333" d="M68.12,132.031c0.938-3.754,1.901-7.211,2.641-10.715c0.458-2.169-1.748-1.562-3.011-2.272
			c1.113-0.665,3.412,0.32,2.549-2.212c4.123,2.639,4.188,3.674,0.666,9.203c0.473-0.052,0.869-0.095,1.138-0.124
			C70.823,127.879,69.511,129.894,68.12,132.031z"/>
		<path fill="#333333" d="M270.431,52.421c0.921,0.807,1.639,1.152,1.882,1.705c0.643,1.46,1.254,2.983,1.509,4.541
			c0.096,0.584-0.703,1.53-1.335,1.931c-0.332,0.21-1.506-0.23-1.745-0.675c-0.929-1.724-1.786-3.525-2.312-5.398
			C268.308,54.091,269.6,53.26,270.431,52.421z"/>
		<path fill="#333333" d="M276.994,57.26c-1.009-2.288-2.194-4.518-2.965-6.884c-0.528-1.621,0.118-2.167,2.384-2.89
			C278.736,52.186,279.126,54.947,276.994,57.26z"/>
		<path fill="#333333" d="M258.75,339.252c-1.101-2.211-0.529-3.812,1.66-4.676c2.413-0.952,4.822-1.913,7.008-2.782
			C266.518,334.394,261.726,338.654,258.75,339.252z"/>
		<path fill="#333333" d="M137.504,306.787c0.807,1.372-1.527,3.388,1.465,4.312c-0.142,0.162-0.285,0.324-0.427,0.485
			c-1.537-0.171-3.074-0.341-4.126-0.458c0.381-2.636,0.741-5.128,1.106-7.654c1.518-0.378,3.185-0.793,4.851-1.208
			c0.051,0.131,0.102,0.263,0.153,0.394c-1.311,0.516-2.621,1.032-3.956,1.557c0.407,1.716,1.637,1.566,2.909,1.668
			c1.184,0.095,2.335,0.601,3.45,1.227c-1.687-0.276-3.374-0.551-5.061-0.827C137.747,306.451,137.626,306.619,137.504,306.787z"/>
		<path fill="#333333" d="M236.482,335.679c1.991,2.08,2.512,5.382,1.371,7.586c-0.1,0.193-0.304,0.483-0.237,0.59
			c1.593,2.567,0.105,4.931-0.755,7.359C235.676,346.144,236.476,341.008,236.482,335.679z"/>
		<path fill="#333333" d="M235.368,377.431c-1.712-2.369-1.644-3.734-0.111-5.453c0.484-0.543,0.798-1.51,1.355-1.657
			c0.988-0.262,2.102-0.045,3.163-0.028c-0.127,0.72-0.039,1.592-0.421,2.132C238.169,374.102,236.805,375.653,235.368,377.431z"/>
		<path fill="#333333" d="M284.114,63.365c-3.071,2.147-3.069,2.146-4.327-0.879c-0.309-0.743-0.592-1.501-0.965-2.211
			c-0.543-1.036-0.748-2.195,0.544-2.511c0.733-0.179,2.044,0.386,2.5,1.035C282.813,60.145,283.362,61.77,284.114,63.365z"/>
		<path fill="#333333" d="M35.096,94.217c3.113,2.831,3.593,6.86,3.794,11.109c0.145,3.052-0.775,5.372-3.156,7.088
			c0.61-3.1,1.787-6.234,1.677-9.323C37.304,100.055,35.891,97.065,35.096,94.217z"/>
		<path fill="#333333" d="M201.98,50.632c1.503,1.838,3.456,3.34,2.502,6.017c-1.19-2.858-3.298-4.634-5.782-5.308
			c-0.442-0.789-0.712-1.271-0.987-1.761c2.672-1.978,4.025-1.873,6.726,0.817C203.549,50.483,202.887,50.546,201.98,50.632z"/>
		<path fill="#333333" d="M238.515,224.482c3.078,1.585,2.152,4.228,2.001,6.619c-0.022,0.344-0.648,0.967-0.888,0.92
			c-0.643-0.126-1.457-0.386-1.799-0.876C236.228,228.86,236.498,226.768,238.515,224.482z"/>
		<path fill="#333333" d="M142.815,383.161c1.924,4.694,1.836,9.404,2.7,14.346c-0.537-0.392-1.29-0.652-1.361-1.038
			c-0.754-4.07-1.406-8.159-2.05-12.249C142.073,384.03,142.383,383.785,142.815,383.161z"/>
		<path fill="#333333" d="M143.508,349.136c0,3.159,0,6.317,0,9.707c-1.078,0.49-2.353,1.07-3.1,1.41
			c0.344-1.03,0.93-2.241,1.136-3.513c0.413-2.55,0.618-5.134,0.909-7.704C142.805,349.07,143.157,349.103,143.508,349.136z"/>
		<path fill="#333333" d="M167.456,221.085c-3.771-5.399-3.381-12.697,0.155-18.269C166.192,208.897,165.117,214.98,167.456,221.085
			z"/>
		<path fill="#333333" d="M189.858,139.481c0.775-2.295,3.219-3.101,5.019-1.573c1.173,0.995,0.972,1.98-0.422,2.584
			C192.665,141.268,191.066,141.419,189.858,139.481z"/>
		<path fill="#333333" d="M143.948,402.045c0.623,6.685,1.247,13.369,1.87,20.054c-0.242,0.023-0.484,0.047-0.725,0.07
			c-0.675-6.68-1.349-13.359-2.024-20.039C143.361,402.101,143.655,402.073,143.948,402.045z"/>
		<path fill="#333333" d="M120.099,95.145c-2.446,1.581-4.875,0.36-7.297-0.068c-2.716-0.48-5.419-1.034-8.104-2.034
			c3.398,0.295,6.807,0.501,10.19,0.921c1.744,0.216,3.441,0.812,5.172,1.226C120.072,95.178,120.099,95.145,120.099,95.145z"/>
		<path fill="#333333" d="M177.641,110.925c2.016,3.392,1.717,4.387-1.743,6.706c-2.546-1.762,0.712-3.959-0.231-5.903
			c0.581,0.869,1.162,1.738,1.973,2.95C177.641,113.256,177.641,112.091,177.641,110.925z"/>
		<path fill="#333333" d="M203.043,192.815c1.351-4.367,2.702-8.733,4.216-13.628c0.854,2.924-0.312,5.214-0.882,7.424
			c-0.588,2.28-1.886,4.376-2.873,6.553C203.35,193.048,203.196,192.931,203.043,192.815z"/>
		<path fill="#333333" d="M276.939,66.257c-0.752,0.486-1.349,0.872-1.926,1.245c-3.145-3.328-3.081-4.93,0.336-6.32
			c0.153,0.854,0.223,1.697,0.468,2.486C276.074,64.493,276.5,65.265,276.939,66.257z"/>
		<path fill="#333333" d="M248.727,212.31c2.136,0.517,3.228-0.379,2.938-2.894c2.184,2.773,0.763,6.951-3.396,10.441
			c1.116-1.81,2.094-3.395,3.232-5.241C250.038,214.218,248.097,214.694,248.727,212.31z"/>
		<path fill="#333333" d="M295.714,94.505c-0.025-0.185-0.06-0.266-0.04-0.329c0.315-1.003,0.636-2.004,0.957-3.006
			c0.598,0.968,1.313,1.887,1.747,2.923c0.227,0.541,0.159,1.405-0.138,1.91c-0.301,0.512-1.048,0.762-1.599,1.127
			c-0.309-0.476-0.703-0.919-0.898-1.437C295.598,95.31,295.714,94.83,295.714,94.505z"/>
		<path fill="#333333" d="M204.749,176.225c0.517-0.782,1.034-1.565,1.706-2.583c-0.062-0.375-0.194-1.167-0.325-1.96
			c0.916,0.293,1.832,0.585,2.758,0.881c-0.142-0.707-0.296-1.48-0.451-2.252c0.163-0.076,0.325-0.152,0.488-0.229
			c0.751,0.965,1.503,1.93,2.057,2.641c-1.961,1.194-3.871,2.356-5.781,3.519C205.05,176.236,204.9,176.23,204.749,176.225z"/>
		<path fill="#333333" d="M97.29,105.645c2.663-1.239,5.326-2.478,7.989-3.717c0.155,0.178,0.311,0.355,0.466,0.533
			c-0.245,1.382-0.491,2.764-0.736,4.146c-0.562-2.117-1.843-2.268-3.581-1.565c-1.25,0.505-2.55,0.885-3.827,1.32
			C97.497,106.123,97.393,105.884,97.29,105.645z"/>
		<path fill="#333333" d="M178.947,47.433c-1.573-1.726-2.845-3.122-4.402-4.83C178.845,42.308,180.365,43.846,178.947,47.433z"/>
		<path fill="#333333" d="M297.195,78.113c-2.934,0.327-5.617,0.626-8.595,0.958C290.26,76.839,295.977,76.208,297.195,78.113z"/>
		<path fill="#333333" d="M93.685,96.277c2.745-2.219,4.737-2.465,9.829-1.488c0.018,0.216,0.037,0.433,0.055,0.649
			C100.415,95.705,97.262,95.973,93.685,96.277z"/>
		<path fill="#333333" d="M185.974,34.517c-0.729-0.918-1.642-1.878-2.306-2.988c-0.298-0.497-0.099-1.291-0.126-1.951
			c0.717,0.092,1.476,0.068,2.139,0.309c0.68,0.247,1.265,0.753,1.756,1.061C187.025,31.953,186.493,33.251,185.974,34.517z"/>
		<path fill="#333333" d="M142.842,339.704c0.568-0.949,1.082-1.808,1.597-2.668c2.735,1.856,2.787,3.542,0.191,5.251
			C144.06,341.463,143.491,340.641,142.842,339.704z"/>
		<path fill="#333333" d="M299.668,72.227c1.474,1.086,3.234,1.459,3.011,3.751c-1.489,0-2.861,0-4.664,0
			C298.657,74.52,299.123,73.464,299.668,72.227z"/>
		<path fill="#333333" d="M280.522,214.831c0.072-0.209,0.114-1.132,0.497-1.306c2.771-1.263,5.64-2.156,8.997-1.353
			C286.699,213.1,283.651,213.954,280.522,214.831z"/>
		<path fill="#333333" d="M262.307,207.762c1.146-2.709,5.276-1.795,5.134-5.502c2.788,1.303,3.558-1.7,5.786-2.624
			C270.464,203.745,266.561,205.676,262.307,207.762z"/>
		<path fill="#333333" d="M169.937,202.811c-0.827,4.585-1.654,9.17-2.389,13.243C166.74,211.775,167.623,207.168,169.937,202.811z"
			/>
		<path fill="#333333" d="M73.749,125.444c1.313-2.132,2.523-4.095,3.886-6.308c1.797,3.621-2.132,4.673-2.688,7.075
			C74.574,125.972,74.085,125.658,73.749,125.444z"/>
		<path fill="#333333" d="M256.778,24.709c-0.897,2.892-1.794,5.785-2.747,8.86c-1.41,0.595-3.056,1.289-4.702,1.983
			c5.374-1.798,5.942-6.484,6.359-11.263C256.051,24.428,256.415,24.569,256.778,24.709z"/>
		<path fill="#333333" d="M188.483,219.414c0-4.22,0-8.44,0-12.66C189.83,210.985,189.532,215.234,188.483,219.414z"/>
		<path fill="#333333" d="M269.225,68.637c-0.51-0.148-1.035-0.3-1.111-0.322c-0.704-1.78-1.305-3.3-1.919-4.852
			c0.171-0.616,0.421-1.512,0.67-2.407c0.17-0.011,0.341-0.021,0.511-0.032C267.991,63.556,268.606,66.087,269.225,68.637z"/>
		<path fill="#333333" d="M209.369,222.392c0,1.154,0,2.16,0,3.278c-0.872-0.072-1.678-0.139-2.612-0.216
			c0.107-1.305,0.206-2.51,0.318-3.867C207.88,221.868,208.588,222.117,209.369,222.392z"/>
		<path fill="#333333" d="M262.614,387.572c0.444,1.316,0.888,2.631,1.375,4.073c-1.951,0.495-2.623-0.727-2.942-1.93
			c-0.18-0.678,0.374-1.55,0.597-2.335C261.967,387.445,262.29,387.508,262.614,387.572z"/>
		<path fill="#333333" d="M108.143,201.091c-0.061-1.05-2.305-2.249-0.147-3.136c0.967-0.397,1.656-1.887,2.936-0.698
			c0.527,0.49,0.878,1.17,1.309,1.764c-0.172,0.158-0.345,0.315-0.517,0.473c-0.842-0.457-1.685-0.915-2.777-1.507
			C108.662,199.082,108.402,200.086,108.143,201.091z"/>
		<path fill="#333333" d="M206.209,179.03c-0.314-0.974-0.877-1.99,0.959-2.236c0.282-0.038,0.468-0.585,0.758-0.825
			c0.395-0.328,0.847-0.587,1.275-0.876c0.345,0.526,0.865,1.022,0.966,1.591c0.056,0.315-0.519,0.894-0.935,1.109
			C208.308,178.272,207.305,178.595,206.209,179.03z"/>
		<path fill="#333333" d="M148.794,329.025c0.893,2.514-1.464,3.193-2.488,4.761C145.509,331.572,146.607,329.569,148.794,329.025z"
			/>
		<path fill="#333333" d="M180.226,142.071c-1.208,0-2.428,0.09-3.617-0.063c-0.302-0.039-0.505-0.851-0.753-1.308
			c0.979-0.166,1.975-0.521,2.929-0.431c0.621,0.059,1.18,0.766,1.767,1.182C180.443,141.658,180.335,141.864,180.226,142.071z"/>
		<path fill="#333333" d="M87.723,121.349c-0.411,0.514-0.716,1.228-1.25,1.507c-2.347,1.226-4.76,2.326-7.41,3.109
			c2.683-1.637,5.366-3.274,8.049-4.912C87.315,121.152,87.519,121.251,87.723,121.349z"/>
		<path fill="#333333" d="M114.441,165.019c1.222,1.242,3.005,2.295,0.988,4.218c-0.64,0.61-0.556,1.979-0.988,2.975
			C114.441,169.814,114.441,167.417,114.441,165.019z"/>
		<path fill="#333333" d="M169.46,133.056c2.919-0.631,5.852-1.493,8.67,0.629c-2.98,0-5.873,0-8.767,0
			C169.396,133.475,169.428,133.265,169.46,133.056z"/>
		<path fill="#333333" d="M225.3,158.756c-1.111-0.23-2.239-0.407-3.32-0.737c-0.213-0.065-0.46-0.896-0.32-1.064
			c0.326-0.39,1.007-0.926,1.316-0.807c0.955,0.367,1.802,1.011,2.691,1.548C225.544,158.049,225.422,158.403,225.3,158.756z"/>
		<path fill="#333333" d="M215.646,201.3c-1.912-1.229-0.511-2.355,0.065-3.317c0.306-0.51,1.215-0.66,1.852-0.972
			c0.14,0.179,0.28,0.358,0.419,0.537C217.239,198.741,216.497,199.933,215.646,201.3z"/>
		<path fill="#333333" d="M147.9,380.706c-2.18-3.29-0.619-5.852,0.438-8.452C148.202,374.889,148.065,377.524,147.9,380.706z"/>
		<path fill="#333333" d="M169.235,340.599c-0.923,0.101-1.594,0.175-2.749,0.302c1.101-1.389,1.785-2.252,2.751-3.47
			c0.42,2.059,0.757,3.71,1.093,5.362c-0.137,0.051-0.274,0.101-0.411,0.151C169.687,342.151,169.456,341.357,169.235,340.599z"/>
		<path fill="#333333" d="M168.211,71.198c-3.108,0.622-6.216,1.243-9.324,1.865c-0.052-0.321-0.105-0.643-0.157-0.964
			c3.143-0.421,6.287-0.842,9.43-1.262C168.177,70.957,168.194,71.077,168.211,71.198z"/>
		<path fill="#333333" d="M279.258,73.848c0.631,1.247,1.262,2.495,2.234,4.418c-1.459-0.568-2.816-0.698-3.048-1.279
			c-0.353-0.883,0.073-2.078,0.169-3.14C278.828,73.847,279.043,73.848,279.258,73.848z"/>
		<path fill="#333333" d="M277.596,33.467c-0.179,1.113-0.278,2.249-0.586,3.325c-0.092,0.322-0.769,0.477-1.177,0.708
			c-0.206-0.418-0.672-0.92-0.569-1.238c0.359-1.11,0.914-2.156,1.395-3.227C276.971,33.18,277.284,33.324,277.596,33.467z"/>
		<path fill="#333333" d="M99.492,268.582c0.23-1.512,0.46-3.024,0.689-4.536c0.231-0.061,0.462-0.121,0.692-0.182
			c0.282,0.835,0.875,1.714,0.764,2.493c-0.127,0.893-0.879,1.698-1.359,2.54C100.017,268.793,99.755,268.687,99.492,268.582z"/>
		<path fill="#333333" d="M259.7,60.626c1.521-1.928,2.927-0.519,4.428-0.185C262.418,62.301,261.202,62.351,259.7,60.626z"/>
		<path fill="#333333" d="M198.105,84.421c0.709-1.1,1.418-2.2,2.165-3.359C202.1,82.948,201.71,83.656,198.105,84.421z"/>
		<path fill="#333333" d="M113.791,112.013c0.357-1.617,0.661-2.996,0.98-4.439c1.387-0.031,1.298,0.78,0.942,1.921
			c-0.299,0.958-0.365,1.989-0.58,3.253C114.579,112.444,114.082,112.172,113.791,112.013z"/>
		<path fill="#333333" d="M268.274,388.961c-1.352-1.706-2.313-2.919-3.436-4.336C267.302,384.528,268.254,385.719,268.274,388.961z
			"/>
		<path fill="#333333" d="M235.543,315.301c0.206,1.877,0.412,3.754,0.618,5.631c-0.285,0.039-0.57,0.077-0.855,0.116
			c-0.31-1.862-0.621-3.724-0.931-5.586C234.764,315.409,235.154,315.355,235.543,315.301z"/>
		<path fill="#333333" d="M161.235,313.165c0.666-2.308,2.352-2.745,5.151-1.249C164.457,312.383,162.968,312.744,161.235,313.165z"
			/>
		<path fill="#333333" d="M201.348,210.816c-0.291,1.406-0.478,2.307-0.698,3.369c-0.673-0.318-1.228-0.58-1.917-0.905
			c0.161-0.635,0.143-1.398,0.515-1.796C199.604,211.102,200.365,211.1,201.348,210.816z"/>
		<path fill="#333333" d="M199.083,203.577c0.222-1.622,0.444-3.244,0.667-4.866c0.362,0.065,0.724,0.131,1.085,0.196
			C202.297,200.912,199.58,202.004,199.083,203.577z"/>
		<path fill="#333333" d="M184.605,40.942c0.067,0.884,0.254,2.007,0.14,2.038c-1.164,0.321-2.378,0.464-3.577,0.657
			c-0.046-0.199-0.092-0.397-0.138-0.596C182.092,42.418,183.155,41.794,184.605,40.942z"/>
		<path fill="#333333" d="M247.554,36.952c-2.094,1.017-4.189,2.035-6.283,3.052c-0.101-0.195-0.201-0.39-0.302-0.585
			c2.081-1.066,4.161-2.133,6.242-3.199C247.326,36.464,247.44,36.708,247.554,36.952z"/>
		<path fill="#333333" d="M128.421,139.675c-0.124,1.781,0.359,3.984-1.868,5.266C125.693,142.62,127.307,141.123,128.421,139.675z"
			/>
		<path fill="#333333" d="M79.659,90.625c2.638-1.101,3.046-0.922,5.858,2.49C83.319,92.181,81.651,91.472,79.659,90.625z"/>
		<path fill="#333333" d="M214.957,224.241c-0.044,0.953-0.073,1.584-0.124,2.68c-1.148-0.554-2.091-1.009-3.035-1.464
			c0.074-0.238,0.148-0.475,0.221-0.713C212.906,224.592,213.793,224.441,214.957,224.241z"/>
		<path fill="#333333" d="M167.279,348.029c-1.04,1.243-1.872,2.236-2.739,3.272C163.36,349.124,164.114,348.184,167.279,348.029z"
			/>
		<path fill="#333333" d="M293.492,217.084c-1.922,0-3.844,0-5.765,0c0.009-0.179,0.018-0.358,0.027-0.537c1.919,0,3.838,0,5.757,0
			C293.504,216.727,293.498,216.905,293.492,217.084z"/>
		<path fill="#333333" d="M230.147,28.662c-0.267-0.55-0.535-1.1-1.005-2.067c1.125-0.269,2.068-0.494,3.011-0.719
			c-0.398,0.999-0.796,1.999-1.194,2.998C230.688,28.804,230.418,28.733,230.147,28.662z"/>
		<path fill="#333333" d="M265.979,19.994c-0.478,1.67-0.883,3.083-1.287,4.495c-0.237-0.036-0.473-0.072-0.71-0.109
			c0.239-1.529,0.477-3.059,0.716-4.588C265.2,19.872,265.703,19.951,265.979,19.994z"/>
		<path fill="#333333" d="M95.974,300.735c-0.654-0.765-1.51-1.469-1.398-1.695c0.302-0.613,1.015-1.023,1.565-1.513
			c0.367,0.541,0.945,1.053,1.027,1.634C97.221,299.538,96.549,300.017,95.974,300.735z"/>
		<path fill="#333333" d="M84.114,77.778c-1.698,0.81-2.223-0.278-2.625-1.42c-0.136-0.386,0.022-0.875,0.046-1.317
			c0.511,0.248,1.134,0.389,1.503,0.773C83.462,76.259,83.662,76.919,84.114,77.778z"/>
		<path fill="#333333" d="M263.187,218.31c-1.188,0.432-2.377,0.864-3.88,1.411c0.299-0.669,0.432-1.596,0.829-1.728
			c0.964-0.322,2.051-0.274,3.089-0.376C263.212,217.848,263.2,218.079,263.187,218.31z"/>
		<path fill="#333333" d="M269.028,212.491c-0.803,1.774-1.439,3.182-2.243,4.958c0.074-1.424-0.045-2.69,0.286-3.825
			C267.216,213.127,268.279,212.897,269.028,212.491z"/>
		<path fill="#333333" d="M256.991,383.009c1.64,0.651,1.969,1.222,1.717,3.843c-0.755-1.162-1.51-2.324-2.266-3.486
			C256.625,383.247,256.808,383.128,256.991,383.009z"/>
		<path fill="#333333" d="M276.186,390.712c-1.299-1.415-2.333-2.54-3.445-3.751C274.898,386.778,275.745,387.651,276.186,390.712z"
			/>
		<path fill="#333333" d="M305.728,104.739c0.187,1.766,0.361,3.408,0.534,5.049C304.214,107.733,304.163,106.498,305.728,104.739z"
			/>
		<path fill="#333333" d="M66.412,143.232c-1.273,0.517-3.03,1.359-4.876,1.892c-0.468,0.135-1.22-0.715-1.89-1.144
			C62.326,143.684,64.63,143.429,66.412,143.232z"/>
		<path fill="#333333" d="M181.817,204.304c-0.606-1.798-1.424-3.652-0.133-5.248c0.225,0.025,0.449,0.05,0.674,0.074
			C182.177,200.855,181.997,202.579,181.817,204.304z"/>
		<path fill="#333333" d="M209.778,54.588c-2.294,1.92-2.744,1.777-3.969-1.152C207.189,53.836,208.319,54.164,209.778,54.588z"/>
		<path fill="#333333" d="M103.043,197.937c-0.238-1.706-0.476-3.413-0.714-5.119c0.306-0.041,0.612-0.081,0.918-0.122
			c0.262,1.703,0.524,3.405,0.786,5.108C103.703,197.848,103.373,197.893,103.043,197.937z"/>
		<path fill="#333333" d="M202.574,169.785c-0.848,1.26-1.458,2.167-2.259,3.357c0.134-1.529,0.252-2.875,0.369-4.222
			c0.257-0.094,0.514-0.188,0.771-0.282C201.866,169.06,202.277,169.481,202.574,169.785z"/>
		<path fill="#333333" d="M193.996,177.91c-0.852-1.1-1.478-1.909-2.104-2.717c0.034-0.152,0.067-0.304,0.101-0.456
			c0.847,0.264,1.88,0.331,2.461,0.877C194.741,175.884,194.192,177.041,193.996,177.91z"/>
		<path fill="#333333" d="M131.646,127.478c-0.476,1.814-0.952,3.627-1.497,5.701c-0.643-0.445-1.141-0.789-1.639-1.134
			c0.434-0.215,0.991-0.331,1.268-0.673c0.28-0.347,0.201-0.961,0.423-1.381c0.448-0.846,0.994-1.64,1.5-2.457
			C131.701,127.532,131.646,127.478,131.646,127.478z"/>
		<path fill="#333333" d="M263.976,235.723c-0.152-1.811-0.27-3.21-0.388-4.609c0.213-0.012,0.425-0.025,0.638-0.037
			C265.243,232.447,265.762,233.835,263.976,235.723z"/>
		<path fill="#333333" d="M135.092,238.687c0.179-3.253,0.357-6.506,0.536-9.759c0.119,0.006,0.239,0.013,0.358,0.019
			c-0.185,3.282-0.371,6.563-0.556,9.845C135.317,238.757,135.205,238.722,135.092,238.687z"/>
		<path fill="#333333" d="M258.684,359.197c-0.486,1.179-2.614,1.907-3.277,1.307c-0.142-0.129-0.297-0.464-0.232-0.56
			c0.175-0.259,0.444-0.477,0.718-0.639c0.174-0.103,0.423-0.099,0.639-0.103C257.174,359.189,257.816,359.197,258.684,359.197z"/>
		<path fill="#333333" d="M118.259,100.33c-0.629-1.138-1.027-1.858-1.511-2.734c0.88-0.255,1.602-0.464,2.765-0.802
			C119.058,98.078,118.727,99.013,118.259,100.33z"/>
		<path fill="#333333" d="M122.431,149.154c0.664-1.77,1.328-3.539,1.992-5.309c0.848,2.663,0.574,3.365-2.048,5.254
			C122.374,149.099,122.431,149.154,122.431,149.154z"/>
		<path fill="#333333" d="M244.578,339.506c-0.162,2.318-0.324,4.637-0.487,6.955c-0.053-0.007-0.106-0.014-0.159-0.021
			c0-2.302,0-4.604,0-6.905C244.148,339.525,244.363,339.515,244.578,339.506z"/>
		<path fill="#333333" d="M209.78,218.623c0.24-1.546,0.479-3.093,0.719-4.639c0.335,0.065,0.669,0.131,1.004,0.196
			c-0.329,1.477-0.657,2.954-0.986,4.431C210.271,218.615,210.026,218.619,209.78,218.623z"/>
		<path fill="#333333" d="M242.88,231.592c1.223-1.852,2.48-3.755,3.5-5.299C246.691,228.171,245.584,230.048,242.88,231.592z"/>
		<path fill="#333333" d="M282.944,391.643c-0.832-0.96-1.663-1.92-2.521-2.909C282.339,388.612,282.678,388.936,282.944,391.643z"
			/>
		<path fill="#333333" d="M281.19,31.572c0.097,1.025,0.195,2.05,0.292,3.074c-0.336,0.037-0.671,0.074-1.007,0.111
			c-0.131-1.019-0.261-2.038-0.392-3.057C280.452,31.658,280.821,31.615,281.19,31.572z"/>
		<path fill="#333333" d="M275.539,213.825c0.892,0.053,1.785,0.107,3.358,0.201c-0.876,0.916-1.421,1.758-1.653,1.679
			c-0.716-0.244-1.312-0.839-1.954-1.298C275.373,214.213,275.456,214.019,275.539,213.825z"/>
		<path fill="#333333" d="M142.213,395.163c0.279,1.505,0.558,3.011,0.837,4.516c-0.232,0.051-0.463,0.103-0.695,0.154
			c-0.32-1.495-0.639-2.99-0.959-4.485C141.668,395.286,141.941,395.225,142.213,395.163z"/>
		<path fill="#333333" d="M130.718,140.845c1.137-0.897,1.872-1.478,3-2.368C133.806,140.828,133.34,141.743,130.718,140.845z"/>
		<path fill="#333333" d="M246.664,250.264c0.376,2.246-0.007,4.094-1.871,5.358C245.388,253.917,246,252.164,246.664,250.264z"/>
		<path fill="#333333" d="M190.932,203.389c0.239,2.444,0.478,4.887,0.717,7.331c-0.2,0.019-0.401,0.037-0.601,0.056
			c-0.193-2.439-0.387-4.879-0.58-7.318C190.623,203.435,190.777,203.412,190.932,203.389z"/>
	</g>
</g>
</svg>
