<?xml version="1.0" encoding="utf-8"?>
<!-- Generator: Adobe Illustrator 17.1.0, SVG Export Plug-In . SVG Version: 6.00 Build 0)  -->
<!DOCTYPE svg PUBLIC "-//W3C//DTD SVG 1.1//EN" "http://www.w3.org/Graphics/SVG/1.1/DTD/svg11.dtd">
<svg version="1.1" id="Calque_1" xmlns="http://www.w3.org/2000/svg" xmlns:xlink="http://www.w3.org/1999/xlink" x="0px" y="0px"
	 viewBox="0 0 314.869 421.47" enable-background="new 0 0 314.869 421.47" xml:space="preserve">
<g>
	<g>
		<path fill="#333333" d="M184.79,380.73c-0.507,1.05,0.627,2.586-0.993,3.338c-0.136,0.063-0.199,0.75-0.075,0.839
			c1.954,1.403,1.04,3.416,0.694,4.946c-0.514,2.275-1.747,4.388-2.705,6.643c-0.788-0.619-1.373-1.079-1.958-1.539
			c-0.22-3.606-0.735-3.997-3.228-2.548c1.085,0.813,2.196,1.645,3.307,2.478c-0.13,1.051-0.261,2.102-0.448,3.606
			c-0.883-0.663-1.437-1.026-1.93-1.459c-0.881-0.774-1.321-1.965-2.824-2.134c-0.768-0.087-2.108-1.238-2.022-1.681
			c0.347-1.78-2.122-3.062-0.719-4.92c0.268-0.354,0.238-0.933-0.123-1.618c-0.546,0.703-0.986,1.545-1.668,2.072
			c-0.74,0.573-1.706,0.853-2.828,1.381c0.436,0.626,0.794,1.14,1.27,1.824c-0.406,0.571-0.853,1.199-1.356,1.906
			c0.123,0.326,0.237,0.71,0.408,1.066c0.338,0.703,1.195,1.712,0.984,2.034c-1.383,2.106,0.453,2.567,1.919,3.729
			c-1.275-0.171-2.143-0.287-3.046-0.407c-0.59,2.518,2.375,1.816,3.044,3.489c-0.691,1.851-3.987,3.477-0.972,6.428
			c0.754-1.469,1.406-2.739,2.203-4.292c0.682,1.472,1.222,2.637,1.773,3.825c0.889-1.011,1.429-1.917,0.331-3.151
			c-0.319-0.358-0.049-1.241-0.049-2.526c2.332,1.988,4.128,3.307,3.798,6.08c-0.073,0.609,0.648,1.444,1.2,1.966
			c1.039,0.983,2.222,1.814,3.421,2.768c-2.41,2.386-4.763-0.925-7.258,0.377c0.61,0.952,0.268,2.561,2.557,1.562
			c1.082-0.473,2.771,0.443,5.072,0.909c-4.139,1.428-7.45,2.571-10.858,3.747c-0.967-1.682-4.395-2.587-3.182-5.962
			c1.713-1.58,3.531,0.052,5.341-0.13c-1.747-2.081-3.335-2.478-6.946-1.856c-1.402-2.081-2.795-4.094-4.123-6.15
			c-0.487-0.754-0.976-1.569-1.191-2.425c-0.408-1.629,0.463-3.5-1.391-4.916c-0.463-0.354,0.244-2.241,0.439-3.604
			c-1.403-1.87-3.541-1.601-5.565-1.633c-2.052-0.032-4.195,0.377-6.077-1.614c0.182-1.097,0.398-2.394,0.706-4.248
			c-2.127,0.565-4.037,1.072-6.014,1.598c-0.503-0.668-1.046-1.39-1.653-2.197c-2.338,4.375-5.311,1.073-8.202,1.662
			c0.732-2.391,1.396-4.052,1.714-5.777c0.213-1.154,0.623-1.647,1.762-1.853c0.524-0.095,0.947-0.749,1.132-1.673
			c-0.576,0.159-1.153,0.318-1.779,0.492c0.491-2.968,0.776-6.051,1.554-9.004c0.754-2.861,2.016-5.588,3.185-8.725
			c0.718,0.442,1.313,1.096,1.925,1.111c0.707,0.017,1.427-0.528,2.665-1.049c-2.572-0.965-4.834-1.822-3.221-5.1
			c0.775,0.048,1.718,0.107,3.353,0.209c-1.192-1.093-1.92-1.76-2.859-2.622c1.328-1.93,0.905-4.601,2.742-6.46
			c0.261-0.264,0.011-1.02,0.021-1.547c0.012-0.644-0.204-1.65,0.116-1.874c2.076-1.455,1.407-3.746,1.098-5.324
			c-0.36-1.841-0.945-3.297,0.712-4.672c-0.686-2.857,2.255-2.038,3.242-3.2c0.305-0.359,0.601-0.725,0.566-1.587
			c-1.296,0.508-2.593,1.016-4.098,1.605c0.26-1.75,0.492-3.322,0.736-4.964c0.928,0.26,1.816,0.51,3.043,0.854
			c0.303-3.554,0.599-7.023,0.894-10.492c0.609-0.988,1.217-1.976,1.865-3.028c-1.112-0.701-1.908-1.202-2.703-1.704
			c0.364-2.341,2.264-0.289,3.556-1.425c-1.132-0.766-2.152-1.457-3.216-2.177c0.666-0.797,1.374-1.646,1.942-2.325
			c-0.518-1.496-0.97-2.807-1.425-4.117c-0.443-1.274,1.166-3.336-1.447-3.803c-0.014-0.003-0.035-0.535,0.097-0.701
			c1.288-1.62-0.101-2.162-1.138-2.777c-0.74-0.439-1.563-0.738-3.347-1.558c2.368-0.945,3.766-1.502,5.524-2.204
			c-0.144,1.162-0.25,2.017-0.432,3.487c1.739-1.976,2.898-3.49,3.276-5.558c0.275-1.503,2.028-2.823,0.293-4.566
			c-0.304-0.305,0.097-1.564,0.462-2.222c0.458-0.825,0.814-1.379-0.398-1.763c-0.142-0.045-0.285-0.661-0.221-0.704
			c2.364-1.581,0.148-3.701,0.645-5.539c0.516-1.91,0.716-3.957,0.695-5.94c-0.011-1.091-0.761-2.174-1.344-3.692
			c-0.47,3.206-0.866,5.911-1.321,9.02c-2.272-4.491-0.813-8.675-0.319-12.752c0.121-0.998,0.524-1.338-0.362-2.215
			c-0.587-0.582-0.675-2.07-0.432-3.009c0.644-2.486,0.914-4.635-0.161-7.299c-0.932-2.309-0.194-5.292-0.194-8.211
			c-0.843-0.738-3.158-0.619-2.307-2.893c0.46-1.228,2.275-2.364,3.881-2.123c1.211,0.182,2.517,0.593,2.451,2.253
			c-0.151,3.861-0.391,7.72-0.5,11.582c-0.082,2.906-0.016,5.815-0.016,9.242c0.616-0.973,1.234-1.6,1.444-2.343
			c0.746-2.643-1.13-5.785,1.533-8.082c-2.618-3.813,0.686-7.773-0.328-11.811c-0.69-2.746,0.417-5.949,0.753-8.944
			c0.171-1.527,0.708-3.079,0.548-4.562c-0.19-1.761-0.816-3.418,0.778-4.872c0.225-0.205,0.181-0.806,0.124-1.204
			c-0.46-3.228-1.041-6.443-1.373-9.683c-0.086-0.836,0.579-1.749,1.026-2.973c2.332,2.133,2.492,4.85,2.586,7.243
			c0.092,2.326,0.08,4.655,0.496,6.946c0.284,1.564-0.253,2.515-1.617,2.924c0.981,1.287,1.926,2.526,3.025,3.967
			c-1.223,0.279-2.196,0.501-4.099,0.936c1.754,0.729,2.62,1.089,3.71,1.542c-0.054,0.303-0.343,0.948-0.247,1.529
			c0.686,4.171,1.466,8.327,2.172,12.495c0.114,0.675,0.223,1.48-0.031,2.066c-0.809,1.864,0.158,3.376,0.989,5.169
			c-1.368,0.264-2.538,0.491-3.722,0.719c1.128,0.589,2.25,1.175,3.261,1.703c-0.638,0.563-1.29,1.139-2.531,2.235
			c1.51-0.178,2.227-0.263,2.921-0.345c0.175,0.293,0.494,0.605,0.43,0.756c-0.316,0.746-0.353,0.731,0.274,2.895
			c0.447,1.543-0.379,3.038,0.132,4.722c0.651,2.147,0.466,4.548,0.665,7.162c0.576-0.395,1.071-0.734,1.733-1.188
			c-0.227,2.646,1.056,5.258-0.545,7.74c-1.117,0.301-2.234,0.601-4.109,1.106c0.94,0.742,1.355,1.069,1.941,1.531
			c0.775-1.029,1.422-1.889,2.07-2.749c0.862,0.184,1.483,0.483,1.57,1.573c0.198,2.458,0.711,4.901,0.77,7.358
			c0.039,1.634,0.977,3.394-0.519,5.003c-0.409,0.439-0.31,1.696-0.007,2.386c0.827,1.885,1.742,3.673,0.803,5.807
			c-0.056,0.128,0.772,0.646,1.189,0.982c0.417,1.895-2.507,3.658-0.06,5.597c-1.101,0.455-2.053,0.849-3.004,1.242
			c0.054,0.209,0.108,0.418,0.161,0.628c0.942-0.11,1.884-0.219,3.573-0.416c-0.759,0.993-1.086,1.421-1.637,2.141
			c0.944,2.239,1.037,4.836,0.527,7.595c-0.257,1.394-0.912,3.32,0.872,4.518l-0.144-0.14c0.572,0.759,0.368,2.065,1.767,2.259
			c1.006,0.139,1.98,0.512,3.035,0.8c0,1.702,0,3.172,0,4.679c-0.348-0.282-0.652-0.529-1.118-0.907
			c-0.296,1.024-0.57,1.976-0.898,3.112c0.564,0,1.058,0,1.655,0c-0.083,1.264-0.173,2.629-0.291,4.426
			c0.726-0.573,1.071-0.845,1.415-1.117c0.147,0.073,0.294,0.145,0.441,0.218c-0.615,1.243-1.23,2.487-1.881,3.803
			c0.428,0.863,1.463,2.077,1.533,3.344c0.067,1.203-0.875,2.463-1.373,3.697c-0.486-0.225-0.972-0.451-2.156-1
			c0.768,2.098,1.339,3.658,1.911,5.218c0.08,1.201,0.161,2.402,0.248,3.712c0.907,0.36,1.849,0.733,2.835,1.124
			c-0.142,0.369-0.167,0.595-0.291,0.73c-0.595,0.653-1.216,1.281-1.827,1.919l0.143-0.141c-1.333,1.345-2.089-0.497-3.215-0.581
			c-0.215,1.168-0.43,2.335-0.743,4.038c-0.66-0.738-0.968-1.082-1.273-1.427c-0.755,0.602-1.512,1.205-2.093,1.668
			c1.002,0.836,1.848,1.542,2.836,2.367c1.216-0.284,2.901-0.677,4.585-1.071c0.07,0.25,0.14,0.501,0.21,0.751
			c-0.868,0.277-1.741,0.538-2.602,0.835c-2.111,0.728-0.986,1.663,0.101,3.401c0-1.225,0-1.625,0-2.345
			c0.797,0.202,1.522,0.387,2.616,0.664c-0.661,2.081-1.247,3.923-1.855,5.837c2.292,2.67,2.292,2.67,2.795,7.312
			c1.179-1.722,2.149-3.139,3.511-5.13c0.879,2.721,1.588,4.73,2.119,6.786c0.071,0.275-0.76,0.784-1.173,1.184
			c-0.332-1.568-0.664-3.136-0.997-4.704C182.877,377.952,183.131,379.557,184.79,380.73z M165.539,342.329
			c0.482-0.634,0.986-1.255,1.426-1.917c0.069-0.104-0.148-0.398-0.33-0.839c-0.864,0.473-1.707,0.935-2.885,1.581
			c0.818,0.482,1.348,0.795,1.878,1.107c-0.778,0.421-1.556,0.842-2.526,1.367c1.106,0.348,2.067,0.65,3.021,0.95
			c0.754-0.955,1.385-1.755,2.404-3.046C167.042,341.928,166.291,342.129,165.539,342.329z M169.029,324.868
			c-0.306,0.312-0.93,0.791-0.868,0.91c0.427,0.815,0.998,1.555,1.677,2.546c-0.915,0.381-1.646,0.686-2.692,1.121
			c1.963,1.088,2.897,1.606,3.754,2.081c0.321-1.842,0.588-3.372,0.778-4.461c-0.98-0.813-1.87-1.552-2.76-2.29
			c1.524-1.752,0.995-3.635,0.109-5.53C169.029,321.119,169.029,322.993,169.029,324.868z M153.731,365.015
			c0.744,1.359,1.894,1.953,3.845,2.109c-0.894-1.877-2.185-2.215-3.607-2.351c-1.271-0.81-2.542-1.62-4.3-2.741
			c0.222,2.824-0.186,4.941-0.844,7.017c-0.074,0.234,0.057,0.533,0.093,0.801c-0.389,1.035-0.778,2.07-1.124,2.992
			c1.241,1.675,2.586,3.49,3.943,5.32c0.521-0.634,0.933-1.135,1.345-1.637c-0.377,2.29,0.037,4.399,1.483,6.303
			c0.124-1.087,0.354-2.369-0.164-3.163c-1.026-1.575,2.349-1.46,1.056-2.774c-0.903-0.128-1.653-0.234-2.402-0.34
			c0.874-0.568,1.748-1.135,2.622-1.703c-0.091-0.227-0.182-0.453-0.272-0.68c-0.962,0.09-1.925,0.181-2.887,0.271
			c-0.095-0.205-0.19-0.41-0.284-0.614c0.536-0.342,1.072-0.684,1.642-1.048c-0.664-0.422-1.17-0.745-1.633-1.039
			c0.285-0.722,0.463-1.173,0.708-1.792c-1.129-0.423-2.114-0.791-3.098-1.16c0.885-0.454,1.917-0.752,2.612-1.407
			C153.078,366.797,153.322,365.819,153.731,365.015z M167.617,336.211c1.532,0.851,2.691,2.089,2.551,4.108
			c-0.189,2.72-0.209,2.718,1.551,6.24c0-3.622,0-6.326,0-9.03c0.349-0.192,0.698-0.384,1.047-0.575
			c0.525,0.915,1.05,1.83,1.574,2.745c0.396-1.274,0.495-2.535-0.082-3.253c-0.449-0.559-1.739-0.443-2.505-0.597
			c-1.115-2.384,2.303-2.096,2.157-4.097C170.445,331.108,168.991,333.422,167.617,336.211z M169.199,298.234
			c-1.545,0.837-1.339,2.301-1.09,3.623c0.358,1.902-0.722,2.738-2.839,3.321c1.759,0.568,2.854,0.922,4.222,1.364
			c-0.202-1.294-0.209-2.344-0.55-3.27c-0.427-1.16,2.41-0.722,0.974-2.355C169.364,300.289,169.416,299.129,169.199,298.234z
			 M167.238,346.114c-1.795-0.355-3.357-0.665-5.639-1.116c2.466,2.145,4.346,3.781,6.37,5.541
			C169.177,348.65,166.232,347.592,167.238,346.114z M166.234,310.647c1.223,0.384,2.262,0.711,3.246,1.02
			c0.519-0.881,1.174-1.992,1.928-3.272C169.502,308.886,167.502,308.733,166.234,310.647z M165.475,333.204
			c-1.293,1.048-1.876,1.521-2.523,2.045c0.578,1.157,0.494,2.685,2.523,2.881C165.475,336.692,165.475,335.421,165.475,333.204z
			 M160.74,278.43c-1.434,0.88-2.094,1.285-2.976,1.826c0.712,1.08,1.31,1.988,1.908,2.896c0.267-0.069,0.535-0.138,0.802-0.206
			C160.548,281.695,160.621,280.445,160.74,278.43z M165.286,349.886c-0.313,0.002-0.627,0.004-0.94,0.006
			c-0.125,1.526-0.249,3.051-0.374,4.577C165.396,353.031,166.247,351.556,165.286,349.886z M141.675,368.149
			c1.035,0.958,1.412,1.307,1.871,1.733c0.686-0.765,1.293-1.443,2.58-2.878C144.257,367.485,143.323,367.725,141.675,368.149z
			 M160.123,387.371c-0.366,0.107-0.732,0.213-1.098,0.32c-0.037,1.289,0.351,2.368,2.391,3.429
			C160.834,389.433,160.478,388.402,160.123,387.371z M166.104,390.562c0.158-0.315,0.317-0.63,0.475-0.946
			c-1.349-0.474-2.697-0.948-4.046-1.422c-0.101,0.267-0.202,0.534-0.303,0.8C163.521,389.518,164.813,390.04,166.104,390.562z
			 M155.556,260.106c0,1.954,0,3.104,0,4.518C157.027,262.576,157.027,262.576,155.556,260.106z M166.564,281.687
			c0.697,1.375,1.652,1.816,3.038,0.957C168.916,281.235,167.949,280.831,166.564,281.687z"/>
		<path fill="#333333" d="M131.304,110.97c-0.633-0.61-1.176-1.543-1.922-1.751c-1.058-0.296-2.397-0.09-2.771-1.374
			c-0.45-1.541-1.055-3.283-0.73-4.746c0.492-2.214,1.719-4.267,2.657-6.378c0.336-0.756,1.081-1.49,1.058-2.216
			c-0.092-2.903,2.019-4.394,3.736-6.054c2.855-2.761,3.195-5.154,0.925-8.692c-0.139-0.217-0.165-0.506-0.433-1.381
			c0.435-0.295,1.076-0.874,1.825-1.214c3.667-1.661,5.711-4.747,6.964-8.318c0.666-1.898,0.992-4.069,0.835-6.067
			c-0.244-3.104-0.335-6.003,1.396-8.802c1.497-2.421,1.446-5.175-0.081-7.491c-1.667-2.529-1.826-5.196-1.597-7.964
			c0.376-4.546,0.902-9.085,2.664-13.359c1.248-3.029,3.02-5.647,6.142-7.021c1.576-0.694,2.467-1.713,2.155-3.129
			c1.587,0.803,3.205,1.741,4.914,2.462c2.793,1.177,5.737,2.026,8.452,3.351c4.159,2.03,5.396,4.382,5.462,9.386
			c-2.894,1.332-7.117,1.23-6.974,6.285c2.022,1.897,4.188,3.738,7.544,3.622c0.79,3.483,0.529,6.829-1.441,9.904
			c-1.165,1.818-1.839,3.608-1.478,5.869c0.203,1.274-0.358,2.676-0.61,4.013c-0.05,0.266-0.203,0.662-0.4,0.729
			c-2.395,0.817-3.085,3.287-4.733,4.818c-2.146,0.718-4.651-0.049-6.728,1.603c2.85-0.01,3.943,2.242,5.32,3.82
			c2.155-0.042,2.12-1.628,2.442-2.953c1.664,1.262,4.387,1.607,3.765,4.659l0.144-0.161c-0.543,0.745-1.086,1.49-1.98,2.719
			c2.474,0,4.175,0,5.876,0c0,0.547,0,1.093,0,1.798c-0.417-0.372-0.729-0.65-1.42-1.268c-0.408,1.735-0.756,3.219-1.256,5.347
			c1.391-0.354,2.091-0.533,3.01-0.767c0.613,0.814,1.317,1.747,2.163,2.871c-0.539,0.264-1.162,0.786-1.401,0.647
			c-0.792-0.461-1.446-1.161-2.351-1.939c-2.297,0.382-2.549,3.164-4.93,4.663c1.222,0.961,2.165,1.79,3.195,2.489
			c1.101,0.748,1.829,0.392,2.836-0.908c0.289-0.373,1.046-0.548,1.581-0.533c1.083,0.03,1.608,1.434,1.181,1.668
			c-2.168,1.186-0.539,2.835-0.747,4.217c-0.098,0.648-0.017,1.322-0.017,2.157c-1.156-0.184-2.05-0.326-2.913-0.464
			c-0.151,0.371-0.401,0.738-0.324,0.828c2.464,2.889,3.803,6.204,3.707,10.335c-0.988,0.22-2.215,0.494-4.429,0.988
			c2.081,0.263,3.149,0.398,4.218,0.532c0.16,0.206,0.377,0.388,0.469,0.62c1.923,4.84-0.264,9.201-1.515,13.703
			c-0.312,1.124-1.154,0.441-1.329,0.685c-1.008,1.406-1.84,2.937-2.797,4.533c-0.318-0.088-0.831-0.23-1.565-0.434
			c0,0.658,0,1.254,0,1.964c-0.647,0-1.498,0-2.829,0c0.945-0.598,1.437-0.909,1.93-1.22c-0.253-0.291-0.525-0.841-0.755-0.824
			c-0.618,0.046-1.341,0.191-1.784,0.573c-0.33,0.284-0.287,1-0.389,1.432c-1.979,0.101-3.8,0.194-5.373,0.275
			c-1.12,1.871-0.651,4.347-3.768,4.463c2.569,2.484,6.549-0.582,8.179,3.065c-0.232,1.21-3.097,1.575-1.676,3.86
			c0.078,0.126-0.88,1.297-1.296,1.262c-2.054-0.173-3.439,1.009-5.017,1.959c-0.763,0.459-1.894,0.259-2.795,0.551
			c-1.205,0.391-2.348,0.972-3.818,1.599c-0.143-0.153-0.686-0.733-1.247-1.334c-0.324,0.718-0.631,1.399-1.205,2.67
			c-0.579-1.469-0.945-2.397-1.261-3.199c0.669-2.029,4.533-1.036,3.667-4.318c-1.895-1.255-4.759,0.753-6.395-2.005
			c-0.175,1.002-0.314,1.8-0.541,3.098c-1.589-1.355-4.017-2.432-4.167-3.766c-0.291-2.574-3.739-1.373-3.62-3.57
			c2.253-0.502,4.388-1.183,6.568-1.385c1.247-0.116,2.565,0.545,4.041,0.902c-0.77,1.019-1.28,1.694-1.825,2.415
			c1.859,1.468,3.007,0.141,4.264-0.577c-0.273-0.465-0.547-0.929-0.934-1.588c1.851-2.673,1.851-2.673,7.02-0.447
			c0-0.766,0.023-1.376-0.006-1.984c-0.032-0.667-0.11-1.331-0.238-2.79c-0.659,1.374-0.97,2.023-1.37,2.857
			c-0.822-0.427-1.638-0.85-2.582-1.34c0.489-0.564,0.896-1.033,1.305-1.505c-0.222-0.13-0.43-0.354-0.646-0.361
			c-1.692-0.061-3.242,1.157-5.136,0.075c-1.11-0.634-2.374,0.944-3.976,0.859c-2.046-0.108-3.367,0.206-4.379-0.477
			c-1.278,1.112-2.46,2.141-4.333,3.771c-0.983-1.288-2.1-2.558-2.988-3.971c-0.93-1.479-1.439-3.256-2.504-4.61
			c-1.058-1.345,0.451-3.256-1.245-4.28c1.891-1.273-1.458-2.428-0.003-4.065c0.907-1.02,0.745-2.992,1.055-4.502
			c1.744,0.18,3.059,0.316,4.373,0.452c0.379,0.299,0.749,0.844,1.138,0.858c2.304,0.082,4.613,0.04,6.919,0.04
			c-1.995-1.349-4.129-1.962-6.281-2.5c-0.088-0.022-0.275,0.756-0.556,1.004C132.237,110.602,131.74,110.751,131.304,110.97z
			 M157.396,34.165c-3.111-0.002-6.289-0.207-8.58,2.638c2.049,1.687,4.467,2.363,5.78,0.816c1.217-1.434,2.554,0.001,3.7-1.052
			c-0.367-0.864-0.719-1.692-1.071-2.519c0.614-0.239,1.227-0.478,2.17-0.844c-2.942-2.075-5.632-1.98-8.748-1.337
			C153.131,32.712,155.263,33.439,157.396,34.165z M156.78,53.681c2.926,2.022,5.806-0.822,7.901,1.376
			c-0.396,0.476-0.732,0.878-1.076,1.292c2.729,1.142,4.023-0.639,5.461-2.488C165.139,50.182,161.291,52.193,156.78,53.681z
			 M148.999,117.268c0,0.844,0,1.639,0,2.397c5.874,1.534,7.273,0.812,6.961-3.688C153.549,115.912,151.07,115.325,148.999,117.268z
			 M162.747,118.098c2.495,0,4.605,0,6.727,0c0.284-4.055,0.124-4.165-5.406-3.554C163.69,115.561,163.281,116.662,162.747,118.098z
			 M137.856,117.145c-1.619-1.018-2.626,0.179-3.819,0.964C136.779,119.869,136.848,119.851,137.856,117.145z M169.169,111.685
			c0.249-2.841,0.249-2.841-2.132-2.776C167.66,109.72,168.155,110.365,169.169,111.685z"/>
		<path fill="#333333" d="M230.694,130.068c-0.913-0.299-1.89-0.481-2.72-0.933c-0.758-0.412-1.661-0.995-1.952-1.721
			c-0.363-0.909-0.421-1.541-1.575-0.908c-0.244,0.134-0.93-0.057-1.076-0.3c-1.757-2.935-5.328-3.787-7.311-6.426
			c-0.713-0.949-1.667-1.956-1.81-3.03c-0.168-1.261-0.892-1.182-1.655-1.512c-2.167-0.935-2.844-3.141-3.865-5.083
			c-0.483,0.542-0.834,0.937-1.541,1.732c-0.807-1.9-1.52-3.577-2.222-5.228c4.173-2.932,8.241-5.791,12.809-9
			c2.295,1.778,5.037,3.769,7.625,5.943c2.639,2.216,5.281,4.464,7.638,6.966c2.528,2.683,4.738,5.668,7.061,8.543
			c0.949,1.174,1.605,2.731,2.787,3.543c2.838,1.951,3.403,5.192,4.95,7.863c0.277,0.478,0.144,1.343-0.075,1.926
			c-0.483,1.284-1.115,2.514-1.732,3.743c-1.561,3.105-3.107,6.219-4.734,9.289c-1.681,3.172-3.169,6.503-5.276,9.371
			c-1.526,2.077-3.234,3.952-3.88,6.725c-0.987-0.801-1.79-1.453-2.594-2.106c-0.157,0.102-0.314,0.204-0.471,0.306
			c0.466,0.919,0.933,1.839,1.517,2.991c-0.792,1.18-1.687,2.515-2.543,3.791c-1.759-0.275-3.348-0.523-4.936-0.772
			c-1.074-0.747-2.148-1.493-3.222-2.24c-0.567-0.711-1.147-1.414-1.699-2.136c-0.878-1.147-0.919-2.21,0.167-3.322
			c3.813-3.902,4.67-9.096,6.154-13.8c0.607-0.159,1.247-0.327,1.887-0.494c-1.049-2.21,0.944-3.818,1.125-5.755
			c0.158-1.695,2.518-2.743,1.23-4.956c-0.246-0.423,1.31-1.895,2.035-2.883c0.402,0.746,0.805,1.491,1.372,2.543
			c1.651-3.215,4.298-2.249,6.773-1.818c-0.103-1.02-0.175-1.724-0.244-2.409C235.883,128.739,232.976,127.833,230.694,130.068z"/>
		<path fill="#333333" d="M110.191,118.593c-2.789,0.544-2.902,3.222-4.04,5.297c-0.581-0.544-1.052-0.984-1.662-1.554
			c-0.342,4.205-1.678,5.764-4.697,5.372c0.511,4.285-3.327,6.326-4.628,9.309c-2.306,1.23-4.063-2.474-6.257-0.173
			c0.032,1.578,3.025,2.967-0.212,4.653c3.169,0.4,4.246,2.711,4.889,4.934c0.881,3.046,1.849,6.02,3.539,8.913
			c-0.907,0.399-1.605,0.706-2.648,1.165c1.189,0.466,2.107,0.825,3.196,1.252c-0.735,2.171,1.787,4.01,1.402,6.473
			c0.344,0,0.687,0,1.837,0c-2.231,1.32-4.517,0.241-5.394,2.4c-1.841-0.1-3.068,0.974-4.298,2.139
			c-0.482,0.456-1.184,0.705-1.819,0.969c-1.7,0.707-2.941,0.216-2.925-1.517c0.018-2.021-1.126-3.198-2.021-4.751
			c-1.901-3.298-3.334-6.88-4.789-10.415c-0.982-2.386-1.578-4.929-2.518-7.335c-1.333-3.412,0.619-6.702-0.199-10.465
			c1.768,0.304,2.648,1.02,3.675,1.875c0.724,0.602,2.27,0.704,3.241,0.389c1.036-0.337,1.756-1.688,3.481-1.018
			c-0.735-0.94-1.47-1.881-2.146-2.746c-1.867-0.018-3.24,1.891-5.364,0.924c0.768-3.219,1.947-5.966,4.033-8.452
			c2.281-2.719,4.123-5.802,6.232-8.67c2.431-3.306,4.987-6.521,7.398-9.841c0.769-1.059,1.252-2.325,1.829-3.427
			c0.901,4.802,6.308,3.694,9.42,6.172c-0.984,1.129-1.813,2.08-2.968,3.406c1.242,0.222,2,0.357,2.758,0.492
			c0.064,0.932,0.163,1.863,0.184,2.796C108.744,118.15,109.195,118.633,110.191,118.593z M86.414,148.67
			c1.134,1.392,1.134,1.392,4.208,0C88.908,148.67,87.661,148.67,86.414,148.67z"/>
		<path fill="#333333" d="M219.89,163.542c1.074,0.747,2.148,1.493,3.222,2.24c0.576,1.491,1.07,3.022,1.764,4.456
			c0.33,0.682,1.041,1.18,1.579,1.762l0.112-0.14c-2.663,0.923-4.472,2.809-6.352,4.877c-4.173,4.588-8.724,8.833-13.186,13.283
			c-2.109-0.79-4.113-1.295-5.871-2.252c-3.051-1.662-5.542-0.651-7.985,1.167c-1.653,1.23-3.23,2.57-4.941,3.71
			c-1.058,0.705-2.302,1.111-3.422-0.859c2.662-2.481,5.473-5.102,8.464-7.89c-2.213-1.505-4.162-0.402-5.945,0.111
			c-1.531,0.441-2.812,1.684-4.301,2.355c-1.801,0.812-3.714,2.006-5.739-0.328c3.011-2.059,6.018-4.115,9.54-6.522
			c-1.109-0.175-1.823-0.505-2.395-0.34c-2.494,0.717-4.932,1.623-7.417,2.373c-2.344,0.707-2.625,0.512-3.885-2.14
			c0.271-0.272,0.543-0.545,0.814-0.817c3.021-1.109,6.042-2.219,9.992-3.669c-3.599-1.004-7.05,2.25-8.952-2.229
			c3.765-1.706,7.626-3.129,11.768-2.036c2.554,0.674,5.17,1.265,7.366,3.296c1.809,1.673,4.437,2.516,6.785,3.535
			c2.148,0.933,3.985,0.325,5.422-1.64c2.012-2.751,3.923-5.575,5.914-8.342c1.427-1.984,2.563-2.717,5.256-3.475
			C218.278,163.805,219.091,163.7,219.89,163.542z"/>
		<path fill="#333333" d="M136.602,175.74c-2.019,3.186-4.38,1.461-7.223,1.135c1.265,1.734,2.264,2.918,3.051,4.23
			c0.823,1.372,1.938,2.757,1.025,4.681c-1.635,0.535-2.692-0.009-3.76-1.455c-1.391-1.883-3.132-3.513-4.777-5.199
			c-0.32-0.328-0.887-0.416-1.569-0.388c2.636,3.519,5.331,6.922,7.862,11.374c-1.738,0-2.525,0.024-3.31-0.009
			c-0.473-0.02-1.233-0.345-1.369-0.163c-2,2.671-3.707,0.414-5.322-0.405c-1.444-0.732-2.567-2.071-3.964-2.927
			c-2.134-1.307-5.588-0.769-7.189,1.03c-0.287,0.322-0.248,0.933-0.401,1.591c-2.447,0-5.071,0-8.154,0
			c-3.858-5.564-7.863-11.342-11.846-17.087c3.349-3.114,7.329-3.683,11.448-4.111c1.552,2.397,3.189,4.887,4.786,7.403
			c1.293,2.036,1.664,1.972,4.228,1.763c2.293-0.187,4.171-1.038,6.048-2.188c0.923-0.566,1.958-1.251,2.974-1.307
			c2.538-0.14,3.691-1.468,4.188-3.784c0.795-3.7,1.449-7.453,3.558-10.771c1.107,2.829,2.699,5.601,1.195,8.959
			c-0.54,1.206-0.219,2.453,1.416,2.778c1.578,0.314,1.071,2.728,3.143,2.853C133.942,173.822,135.178,174.981,136.602,175.74z
			 M124.253,187.538c-0.436-1.944-1.274-3.485-3.762-4.024C121.953,185.078,123.103,186.308,124.253,187.538z"/>
		<path fill="#333333" d="M148.831,179.567c1.1,0.751,1.637,1.118,2.175,1.484c-0.852-2.111-0.228-4.6-2.255-6.544
			c1.308-0.468,2.116-2.09,3.924-0.63c-0.786,0.297-1.368,0.516-1.972,0.745c1.784,2.306,1.784,2.306,4.284,1.505
			c1.397-0.448,2.356,0.19,3.247,1.934c1.503-0.939,3.024-1.889,4.884-3.052c0.084-0.348,0.273-1.135,0.463-1.925
			c0.243,0.066,0.591,0.053,0.685,0.201c2.347,3.699,2.342,3.702,1.756,7.416c-0.965-0.408-1.863-0.788-3.129-1.324
			c-0.702,1.408-1.415,2.838-2.061,4.135c-0.436-0.639-1.041-1.524-1.711-2.505c-1.385,0.436-2.654,0.836-3.831,1.207
			c-0.445-0.709-0.881-1.405-1.317-2.1c-0.174,0.07-0.347,0.14-0.521,0.21c0.036,0.56,0.073,1.12,0.113,1.739
			c-1.001,0-1.998,0-3.235,0c0.276,0.664,0.323,1.165,0.582,1.327c0.788,0.493,2.035,0.648,2.403,1.319
			c0.48,0.875,0.379,2.12,0.351,3.202c-0.016,0.638-0.525,1.265-0.531,1.9c-0.006,0.557,0.38,1.118,0.802,2.224
			c-2.287-0.77-3.27-2.137-4.264-3.361c-1.186-1.461-0.626-2.97-0.038-4.649C150.012,182.948,149.222,181.464,148.831,179.567z"/>
		<path fill="#333333" d="M107.173,309.587c0.321-1.735,0.742-3.459,0.946-5.207c0.859-7.371,2.221-14.65,3.711-21.915
			c0.54-2.631,0.959-5.257,0.931-8.029c-0.033-3.219,0.924-6.448,1.454-9.673c0.109-0.665,0.471-1.397,0.305-1.981
			c-1.397-4.912,0.431-9.534,1.196-14.243c0.439-2.705,1.02-5.388,1.596-8.068c0.197-0.915,0.574-1.791,1.506-2.591
			c-0.252,2.036-0.5,4.072-0.759,6.107c-0.035,0.27-0.198,0.537-0.184,0.799c0.323,5.712-0.609,11.288-1.675,16.869
			c-0.745,3.902-1.116,7.874-1.798,11.789c-1.011,5.804-2.166,11.582-3.231,17.377c-1.163,6.326-2.293,12.658-3.438,18.987
			C107.546,309.735,107.359,309.661,107.173,309.587z"/>
		<path fill="#333333" d="M176.285,243.591c0.475,3.244,1.126,6.475,1.362,9.736c0.156,2.161-0.467,4.37-0.423,6.551
			c0.148,7.252,0.567,14.5,0.65,21.753c0.137,12.079,0.094,24.161,0.126,36.241c0.003,1.241,0,2.481-0.584,3.731
			c-0.288-7.44-0.665-14.878-0.838-22.321c-0.142-6.111,0.506-12.287-0.165-18.327c-1.262-11.363-0.362-22.72-0.736-34.07
			c-0.036-1.1-0.005-2.203-0.005-3.304C175.877,243.584,176.081,243.587,176.285,243.591z"/>
		<path fill="#333333" d="M203.138,90.883c-0.294,1.082-1.31,1.599-1.436,3.077c-0.26,3.05-2.924,3.649-4.971,1.25
			c-2.644-3.098-4.515-6.684-5.526-10.72c1.555,2.407,3.11,4.814,4.665,7.221c0.215-3.099-1.911-5.034-2.953-7.464
			c-1.063-2.479-1.938-5.038-2.916-7.616c2.899-0.267,4.479,1.367,5.557,3.517c1.224,2.441,2.448,4.925,3.255,7.52
			c0.739,2.376,1.995,3.522,4.457,3.334L203.138,90.883z"/>
		<path fill="#333333" d="M140.642,175.327c-0.172-1.727-0.345-3.454-0.545-5.455c2.713,0.161,4.584,1.678,5.139,3.87
			c0.992,3.919,2.144,7.92,1.095,12.088c-0.181,0.72,0.119,1.56,0.254,2.927c-2.092-1.629-3.752-3.134-4.932-5.063
			c-0.429-0.701-0.307-1.678,1.414-0.94c-1.003-2.655-0.778-5.401-2.539-7.566L140.642,175.327z"/>
		<path fill="#333333" d="M129.255,292.849c-0.013,4.546,0.749,9.046-0.377,13.61c-0.811,3.29-0.412,6.862-1.04,10.217
			c-0.976,5.213-0.61,10.442-0.824,15.666c-0.082,2.009-0.652,3.998-1.211,5.988c0.058-4.9-0.611-9.774,0.393-14.704
			c0.528-2.594,0.194-5.363,0.248-8.054c0.006-0.277-0.046-0.566,0.015-0.83C128.126,307.545,127.888,300.095,129.255,292.849z"/>
		<path fill="#333333" d="M140.674,208.289c0.271,3.921,0.493,7.137,0.71,10.275c-1.842,1.408-3.868,2.375-4.985,3.976
			c-1.098,1.573-1.272,3.79-2.188,5.637c0.724-5.747,1.447-11.494,2.201-17.48c0.821,0.918,1.356,1.516,2.074,2.319
			C139.197,211.481,139.79,210.199,140.674,208.289z"/>
		<path fill="#333333" d="M157.27,160.172c-0.091,0.674-0.183,1.349-0.34,2.503c-1.559-0.179-3.131-0.281-4.664-0.585
			c-0.442-0.087-1.154-0.835-1.089-1.143c0.59-2.807-3.697-3.252-2.836-6.315c1.287,0,2.623,0,4.199,0
			c0.249,0.908,0.525,1.914,0.793,2.89c2.485,0.516,2.024-1.776,2.99-2.94c0.917,0.455,1.859,0.922,3.287,1.63
			c-1.669,1.029,0.282,3.553-2.391,4.012c-0.733-2.376-0.925-2.397-3.389-0.053C155.178,160.172,156.224,160.172,157.27,160.172z"/>
		<path fill="#333333" d="M183.703,88.337c0.531,5.025-0.318,9.678,0.514,14.208c0.291,0.031,0.581,0.061,0.872,0.092
			c0.222-0.788,0.25-1.732,0.722-2.318c0.445-0.552,1.429-0.631,2.048-1.092c0.982-0.731,1.726-0.773,2.418,0.543
			c-3.294,0.702-4.46,3.616-6.377,6.369c-0.987-1.892-1.969-3.485-2.653-5.196c-0.383-0.959-0.574-2.19-0.331-3.17
			C181.666,94.745,182.665,91.778,183.703,88.337z"/>
		<path fill="#333333" d="M154.368,218.422c-0.401-2.061-0.906-4.108-1.17-6.187c-0.223-1.761,0.412-3.43-0.577-5.362
			c-0.69-1.349,0.415-3.617,0.763-5.745c1.658,0.633,3.088,1.179,4.595,1.754C156.584,208.222,153.553,212.845,154.368,218.422z"/>
		<path fill="#333333" d="M226.454,172c0.736-0.314,1.472-0.627,2.624-1.118c2.325,3.525,2.377,7.565,3.425,11.333
			c-1.857,0.267-3.32,0.477-4.996,0.718c0.267-1.792,0.558-3.741,0.908-6.084c-0.748,0.455-1.073,0.653-1.805,1.099
			c0.169-1.331,0.027-2.587,0.519-3.501c0.654-1.214-0.189-1.777-0.563-2.586L226.454,172z"/>
		<path fill="#333333" d="M197.312,233.757c1.167,0.697,1.625,1.68,1.614,3.079c-0.056,7.044-0.026,14.088-0.385,21.153
			c-0.632-4.569-1.549-9.122-1.805-13.712c-0.196-3.52,0.442-7.087,0.709-10.633L197.312,233.757z"/>
		<path fill="#333333" d="M136.31,227.058c3.85,8.551,2.139,17.301,1.299,26.804C137.151,244.403,136.731,235.731,136.31,227.058z"
			/>
		<path fill="#333333" d="M128.613,197.841c0.445,8.012-1.3,14.974-3.655,21.974c-0.944-3.789,0.486-7.371,0.988-10.906
			C126.446,205.384,125.875,201.465,128.613,197.841z"/>
		<path fill="#333333" d="M143.318,329.858c-3.312-3.68-2.989-7.186,0.769-10.821c0.358,0.376,0.946,0.706,1.032,1.136
			c0.321,1.605,0.866,3.314,0.587,4.849C145.418,326.603,144.267,328.027,143.318,329.858z"/>
		<path fill="#333333" d="M143.097,275.313c-2.828-1.136-2.808-3.477-2.271-5.84c0.386-1.7,1.162-3.312,1.924-5.404
			c0.671,0.765,1.633,1.361,1.772,2.11c0.536,2.889,1.389,5.895-0.926,8.501C143.351,274.829,143.185,275.04,143.097,275.313z"/>
		<path fill="#333333" d="M134.837,247.004c0.709,2.761,1.425,5.521,2.117,8.286c0.1,0.398,0.117,0.824,0.118,1.237
			c0.007,5.816,0.005,11.632-0.496,17.462c-0.669-8.994-1.338-17.987-2.007-26.981C134.659,247.006,134.748,247.005,134.837,247.004
			z"/>
		<path fill="#333333" d="M206.155,80.309c0.637-0.141,1.168-0.259,1.863-0.413c0.14-0.87,0.288-1.79,0.497-3.094
			c0.52,1.586,0.907,2.836,1.342,4.07c0.398,1.13,0.849,2.241,1.502,3.951c1.163-1.398,2.065-2.481,2.965-3.565
			c0.14,3.798-0.287,4.523-3.54,5.891c-0.129,0.988-0.265,2.028-0.431,3.298c-0.485-0.462-0.938-0.691-1.017-1.012
			c-0.162-0.656-0.323-1.423-0.132-2.035C210.213,84.17,208.829,81.998,206.155,80.309z"/>
		<path fill="#333333" d="M146.541,293.408c-0.42-2.775-0.697-4.606-1.063-7.023c1.947,0.733,3.25,1.223,4.743,1.785
			c0.464-1.919,0.893-3.694,1.363-5.633c1.868,2.239,0.484,4.134-0.447,5.742C150.155,289.972,148.505,291.276,146.541,293.408z"/>
		<path fill="#333333" d="M153.857,148.523c0.087,1.472-0.927,2.243-1.983,2.879c-1.263,0.761-2.62,1.368-3.877,2.011
			c-1.772-1.529-1.292-3.282-1.035-5.462c2.469,0.24,4.742,0.462,7.015,0.683L153.857,148.523z"/>
		<path fill="#333333" d="M135.286,45.946c-1.999-2.854-3.673-5.717-1.099-9.197C137.035,39.646,134.949,42.963,135.286,45.946z"/>
		<path fill="#333333" d="M176.675,232.918c-1.599-4.754-0.668-9.692-0.816-15.408C177.489,223.099,176.613,228.009,176.675,232.918
			z"/>
		<path fill="#333333" d="M187.412,94.12c-0.861-0.088-1.664-0.223-1.657-1.379c0.013-2.201,0.004-4.403,0.004-6.799
			c2.976,1.766,3.324,2.825,2.257,5.227c-0.425,0.956-0.52,2.059-0.766,3.095L187.412,94.12z"/>
		<path fill="#333333" d="M101.325,272.954c0.797-4.553,1.594-9.106,2.392-13.659c0.003,4.686,0.459,9.501-2.513,13.55
			L101.325,272.954z"/>
		<path fill="#333333" d="M101.204,272.845c-0.159,1.081-0.307,2.163-0.482,3.241c-0.108,0.668-0.591,1.519-0.337,1.962
			c1.686,2.939-0.357,4.443-2.461,6.508c0.526-4.379,1.953-7.993,3.401-11.602L101.204,272.845z"/>
		<path fill="#333333" d="M140.528,175.186c-0.764,0.856-1.527,1.713-2.522,2.828c-0.302-2.617-0.611-5.288-0.957-8.277
			c2.134,1.629,1.199,4.619,3.592,5.59L140.528,175.186z"/>
		<path fill="#333333" d="M139.517,49.233c1.217,0,2.433,0,3.774,0c0.824,1.776,0.698,3.373-1.049,5.084
			c-0.891-1.8-1.73-3.493-2.568-5.186L139.517,49.233z"/>
		<path fill="#333333" d="M127.429,147.95c-0.367-0.174-0.964-0.457-1.52-0.721c-0.149-2.854,2.552-3.444,3.585-5.356
			c0.589,0.463,0.904,0.712,1.24,0.977C129.636,144.545,128.546,146.225,127.429,147.95z"/>
		<path fill="#333333" d="M193.729,209.264c2.278,0.52,1.725,2.371,2.38,4.029c-1.612,0.12-2.901,0.217-4.205,0.314
			C192.505,212.175,193.107,210.744,193.729,209.264z"/>
		<path fill="#333333" d="M138.935,324.037c1.053-3.278,2.105-6.556,3.362-10.47c0.584,1.972,1.49,3.064,0.043,4.785
			c-1.38,1.64-2.102,3.833-3.113,5.783C139.13,324.102,139.033,324.07,138.935,324.037z"/>
		<path fill="#333333" d="M147.132,210.509c-0.404-3.406-0.807-6.812-1.213-10.235c0.096-0.029,0.205-0.102,0.287-0.078
			c0.126,0.036,0.319,0.123,0.335,0.215c0.576,3.29,1.134,6.583,1.695,9.875C147.868,210.36,147.5,210.434,147.132,210.509z"/>
		<path fill="#333333" d="M187.25,94.265c1.406-0.372,2.811-0.743,4.356-1.152c-0.248-1.263-0.446-2.271-0.657-3.344
			c0.205,0.041,0.501,0.023,0.546,0.121c0.552,1.2,1.067,2.418,1.587,3.619c-2.466,0.918-4.768,1.774-7.523,2.8
			c0.8-0.945,1.327-1.567,1.853-2.188L187.25,94.265z"/>
		<path fill="#333333" d="M169.661,72.58c1.836-0.683,3.753-1.278,3.8-4.433c1.023,1.025,1.582,1.586,2.003,2.008
			c-0.679,1.23-1.149,2.083-1.619,2.935c-1.195-1.138-2.92,0.917-4.04-0.671L169.661,72.58z"/>
		<path fill="#333333" d="M108.425,237.857c0.902,3.655-0.572,7.066-1.668,10.521C107.315,244.862,107.872,241.346,108.425,237.857z
			"/>
		<path fill="#333333" d="M194.842,236.791c-1.085-3.421-2.191-7.085-1.283-11.888C194.057,229.516,194.449,233.154,194.842,236.791
			z"/>
		<path fill="#333333" d="M139.674,49.131c-0.475-0.255-0.937-0.541-1.429-0.758c-1.168-0.515-1.175-1.495-0.714-2.355
			c0.532-0.991,1.378-1.146,2.309-0.266c0.184,0.174,0.755-0.062,1.708-0.175c-0.785,1.412-1.408,2.534-2.031,3.657L139.674,49.131z
			"/>
		<path fill="#333333" d="M179.864,67.625c-0.374,4.183-0.374,4.183-2.342,4.449c0.24-1.016,0.392-2.219,0.838-3.301
			C178.568,68.27,179.345,68.001,179.864,67.625z"/>
		<path fill="#333333" d="M140.937,293.341c0.608,0,1.105,0,2.041,0c-0.807,2.169-1.52,4.087-2.233,6.005
			c-0.165-0.02-0.33-0.039-0.495-0.059C140.476,297.329,140.703,295.37,140.937,293.341z"/>
		<path fill="#333333" d="M122.067,197.394c0.199-1.828,0.318-2.921,0.456-4.182c1.117-0.06,2.138-0.115,3.672-0.197
			C124.788,194.508,123.679,195.684,122.067,197.394z"/>
		<path fill="#333333" d="M133.393,270.763c0-3.294,0-6.38,0-9.465c0.053-0.004,0.106-0.009,0.16-0.013
			c0.072,1.575,0.332,3.171,0.164,4.72C133.552,267.53,135.396,269.101,133.393,270.763z"/>
		<path fill="#333333" d="M178.871,356.543c2.212,0.273,3.624,1.303,3.543,3.75c-2.32-0.26-3.689-1.35-3.4-3.891L178.871,356.543z"
			/>
		<path fill="#333333" d="M114.301,78.761c2.403-1.16,4.806-2.32,7.36-3.553C120.233,78.404,116.919,77.765,114.301,78.761z"/>
		<path fill="#333333" d="M160.511,199.566c1.526-0.142,2.046,0.677,1.438,1.918c-0.504,1.029-1.42,1.856-2.154,2.773
			c-0.257-0.179-0.514-0.358-0.771-0.537c0.543-1.428,1.087-2.855,1.63-4.283L160.511,199.566z"/>
		<path fill="#333333" d="M114.619,85.023c-2.338,0.8-4.677,1.6-7.775,2.66c2.679-2.758,5.285-2.662,7.9-2.532L114.619,85.023z"/>
		<path fill="#333333" d="M152.543,164.603c1.347,0,2.694,0,4.367,0c-0.662,0.822-1.205,1.496-1.876,2.33
			c-0.976-0.552-1.85-1.047-2.724-1.542C152.388,165.128,152.465,164.865,152.543,164.603z"/>
		<path fill="#333333" d="M143.558,303.365c0.805-1.81,1.609-3.619,2.492-5.605c0.813,2.568-0.704,4.198-1.756,5.979
			C144.049,303.615,143.804,303.49,143.558,303.365z"/>
		<path fill="#333333" d="M189.589,241.762c-0.131-0.32-0.37-0.638-0.376-0.961c-0.036-1.885-0.018-3.771,0.261-5.657
			c0.227,2.182,0.453,4.365,0.68,6.547C189.966,241.714,189.778,241.738,189.589,241.762z"/>
		<path fill="#333333" d="M105.596,257.654c-1.37-2.722-0.377-3.906,1.514-5.309C106.595,254.149,106.213,255.49,105.596,257.654z"
			/>
		<path fill="#333333" d="M110.023,114.403c0.644-0.426,1.288-0.851,2.212-1.463c-0.018,1.641,0.099,3.079-0.815,4.385
			C111.023,116.319,109.336,115.929,110.023,114.403z"/>
		<path fill="#333333" d="M173.648,33.665c-1.815,0.323-3.63,0.646-5.42,0.965C170.893,33.178,170.893,33.178,173.648,33.665z"/>
		<path fill="#333333" d="M157.193,188.487c0.776-1.594-0.801-2.377-1.516-3.458c2.53,0.87,3.063,2.084,2.24,4.335
			C157.676,189.072,157.435,188.78,157.193,188.487z"/>
		<path fill="#333333" d="M143.571,305.074c1.193,1.213,1.874,1.907,2.556,2.601c-0.127,0.208-0.254,0.415-0.381,0.623
			c-0.931-0.184-1.863-0.368-2.942-0.581C143.013,306.995,143.19,306.386,143.571,305.074z"/>
		<path fill="#333333" d="M127.395,78.724c1.228,0,2.457,0,4.599,0c-2.043,1.592-3.312,1.207-4.568,0.973
			C127.415,79.373,127.405,79.048,127.395,78.724z"/>
		<path fill="#333333" d="M143.097,275.313c0.088-0.273,0.254-0.484,0.499-0.634c0.651,1.517,1.683,3.011-0.082,5.466
			C143.332,278.038,143.215,276.675,143.097,275.313z"/>
		<path fill="#333333" d="M114.744,85.151c1.054-0.824-0.541-2.872,1.612-3.261c0.197,1.033-0.463,2.783,1.69,2.399l-0.11-0.136
			c-1.106,0.29-2.211,0.58-3.317,0.869L114.744,85.151z"/>
		<path fill="#333333" d="M157.193,188.487c0.241,0.292,0.483,0.585,0.724,0.877c-0.06,0.494-0.121,0.988-0.224,1.835
			c-1.14-0.602-1.991-1.051-3.676-1.94C155.638,188.865,156.416,188.676,157.193,188.487z"/>
		<path fill="#333333" d="M153.977,148.635c0.063-0.663,0.126-1.325,0.213-2.248c0.931,0,1.883,0,2.931,0
			c-0.192,0.451-0.228,0.806-0.396,0.887c-0.938,0.453-1.908,0.84-2.867,1.249L153.977,148.635z"/>
		<path fill="#333333" d="M179.062,347.888c-0.326-1.044-0.652-2.089-0.978-3.133c1.666-0.129,1.619,1.451,2.301,2.305
			C179.945,347.336,179.504,347.612,179.062,347.888z"/>
		<path fill="#333333" d="M110.142,101.244c-1.339,0-2.403,0-3.494,0C108.317,99.655,108.317,99.655,110.142,101.244z"/>
		<path fill="#333333" d="M191.948,115.687c-0.636,0.884-1.271,1.767-1.907,2.651c-0.205-0.141-0.41-0.282-0.615-0.423
			c0.586-0.918,1.172-1.836,1.759-2.755C191.44,115.336,191.694,115.511,191.948,115.687z"/>
		<path fill="#333333" d="M111.479,95.204c1.085-0.337,1.877-0.584,3.379-1.051c-0.663,1.192-0.953,1.713-1.279,2.298
			C112.899,96.048,112.357,95.726,111.479,95.204z"/>
		<path fill="#333333" d="M187.353,114.283c0.521-0.495,0.975-1.134,1.592-1.419c0.283-0.13,0.888,0.437,1.6,0.827
			c-1.041,0.525-1.806,0.91-2.572,1.296C187.767,114.753,187.56,114.518,187.353,114.283z"/>
		<path fill="#333333" d="M173.945,178.587c-0.271,0.272-0.543,0.545-0.814,0.817c-0.455,0.136-0.91,0.272-1.868,0.558
			c0.901-1.326,1.58-2.325,2.372-3.49C173.755,177.293,173.85,177.94,173.945,178.587z"/>
		<path fill="#333333" d="M173.776,209.65c0.183-1.604,0.349-3.067,0.515-4.53c0.092,0.004,0.184,0.009,0.275,0.013
			c0,1.369,0.012,2.738-0.024,4.106C174.54,209.34,174.195,209.432,173.776,209.65z"/>
		<path fill="#333333" d="M203.27,91.001c0-1.768,0-3.536,0-5.304c0.495,1.763,1.307,3.563-0.133,5.186L203.27,91.001z"/>
		<path fill="#333333" d="M122.158,91.533c-0.221,1.357-0.442,2.715-0.662,4.072c-0.242-0.043-0.483-0.087-0.725-0.13
			c0.318-1.337,0.636-2.674,0.954-4.011C121.869,91.487,122.013,91.51,122.158,91.533z"/>
		<path fill="#333333" d="M197.444,233.645c-1.818-1.574-0.474-3.458-0.133-5.21c0,1.774,0,3.549,0,5.323L197.444,233.645z"/>
		<path fill="#333333" d="M160.654,199.436c-1.309-0.658-2.066-1.494-0.453-3.042c0.103,1.057,0.206,2.114,0.31,3.171
			L160.654,199.436z"/>
		<path fill="#333333" d="M155.555,192.054c0.497,0.55,1.002,1.094,1.467,1.671c0.022,0.027-0.427,0.522-0.466,0.498
			c-0.597-0.379-1.163-0.808-1.735-1.225C155.065,192.683,155.31,192.368,155.555,192.054z"/>
		<path fill="#333333" d="M145.182,296.146c-0.149-1.039-0.298-2.078-0.448-3.117c0.154-0.031,0.307-0.062,0.461-0.094
			c0.268,1.008,0.536,2.017,0.803,3.025C145.726,296.022,145.454,296.084,145.182,296.146z"/>
		<path fill="#333333" d="M149.547,283.661c-0.091,0.883-0.166,1.623-0.277,2.7c-0.709-0.473-1.117-0.745-1.578-1.053
			C148.293,284.775,148.802,284.322,149.547,283.661z"/>
		<path fill="#333333" d="M156.002,169.012c-0.485,0.586-0.97,1.171-1.611,1.944c-0.384-0.487-0.687-0.871-0.989-1.254
			c0.731-0.416,1.461-0.833,2.192-1.249C155.729,168.64,155.865,168.826,156.002,169.012z"/>
		<path fill="#333333" d="M174.011,320.667c0-0.94,0-1.88,0-2.993c1.932,1.908,1.932,1.908-0.144,2.853L174.011,320.667z"/>
		<path fill="#333333" d="M179.071,349.118c2.197,0.026,1.326,1.441,1.266,2.58c-1.619-0.407-1.254-1.585-1.232-2.615
			L179.071,349.118z"/>
		<path fill="#333333" d="M118.047,84.289c1.905-1.301,2.484-1.019,3.221,1.574l0.132-0.117c-1.154-0.531-2.309-1.061-3.464-1.592
			L118.047,84.289z"/>
		<path fill="#333333" d="M184.273,370.152c-0.123,1.646-0.816,2.436-2.652,1.765C182.634,371.243,183.453,370.698,184.273,370.152z
			"/>
		<path fill="#333333" d="M157.341,405.729c0.38-1.142,0.76-2.284,1.14-3.425c0.145,0.037,0.29,0.074,0.435,0.111
			c-0.325,1.218-0.649,2.435-0.974,3.653C157.742,405.954,157.541,405.841,157.341,405.729z"/>
		<path fill="#333333" d="M150.73,234.481c0.366-0.645,0.731-1.29,1.149-2.026C153.232,233.938,151.448,234.169,150.73,234.481z"/>
		<path fill="#333333" d="M182.033,365.059c0.208-0.707,0.416-1.415,0.623-2.122c0.209,0.041,0.417,0.083,0.626,0.124
			c-0.121,0.786-0.242,1.572-0.362,2.357C182.624,365.299,182.329,365.179,182.033,365.059z"/>
		<path fill="#333333" d="M144.648,334.286c-0.21-0.793-0.42-1.586-0.63-2.38c0.17-0.056,0.34-0.112,0.51-0.168
			c0.318,0.773,0.637,1.545,0.955,2.318C145.205,334.132,144.926,334.209,144.648,334.286z"/>
		<path fill="#333333" d="M104.88,268.617c0-1.761,0-2.693,0-3.807C106.722,265.916,105.21,266.916,104.88,268.617z"/>
		<path fill="#333333" d="M140.273,329.281c0.617,0.694,1.234,1.387,1.852,2.081c-0.09,0.085-0.18,0.171-0.271,0.256
			c-0.773-0.504-1.547-1.007-2.32-1.511C139.78,329.832,140.027,329.557,140.273,329.281z"/>
		<path fill="#333333" d="M121.268,85.863c0.739,1.914,0.739,1.914-0.325,3.771c0.152-1.296,0.305-2.593,0.457-3.889L121.268,85.863
			z"/>
	</g>
</g>
</svg>
