<?xml version="1.0" encoding="utf-8"?>
<!-- Generator: Adobe Illustrator 17.1.0, SVG Export Plug-In . SVG Version: 6.00 Build 0)  -->
<!DOCTYPE svg PUBLIC "-//W3C//DTD SVG 1.1//EN" "http://www.w3.org/Graphics/SVG/1.1/DTD/svg11.dtd">
<svg version="1.1" id="Calque_1" xmlns="http://www.w3.org/2000/svg" xmlns:xlink="http://www.w3.org/1999/xlink" x="0px" y="0px"
	 viewBox="0 0 314.869 421.47" enable-background="new 0 0 314.869 421.47" xml:space="preserve">
<g>
	<path fill="#333333" d="M143.727,38.9c0.191,1.22,0.192,2.513,0.625,3.64c0.45,1.171,1.317,2.182,2.203,3.58
		c2.094-6,7.176-5.717,11.959-6.035c-0.438,1.296-1.244,2.583-1.194,3.837c0.05,1.267,0.948,2.5,1.772,4.454
		c-0.851,1.273-2.213,3.308-3.607,5.392c-3.15-1.017-6.29-2.032-9.85-3.182c-0.898,1.544-1.706,2.934-2.403,4.133
		c2.57-0.446,4.942-1.314,7.229-1.128c2.293,0.186,2.958,2.251,2.342,4.361c2.55,2.29,3.423-0.566,5.233-1.65
		c1.556,1.236,3.137,2.492,4.645,3.69c-0.463,0.777-0.537,1.085-0.687,1.128c-5.876,1.67-10.899,4.819-15.588,8.659
		c-1.125,0.921-2.808,1.161-4.575,1.847c0-5.683,0-11.429,0-17.029c-9.733-4.048-18.411-0.95-22.199,8.099
		c-2.766,6.607-2.697,13.347-2.351,20.2c0.197,3.889,0.726,7.743-0.938,11.518c-1.388,3.147-2.454,3.73-5.45,1.934
		c-2.396-1.436-4.609-3.177-6.96-4.822c-0.118,0.439-0.244,0.912-0.542,2.022c-1.667-2.212-3.094-4.107-4.627-6.14
		c-1.574,3.077-1.227,5.097,1.017,6.687c1.148,0.814,2.496,1.351,3.62,2.191c0.776,0.58,1.324,1.465,1.973,2.213
		c-0.849,0.488-1.669,1.041-2.556,1.444c-0.807,0.367-1.688,0.57-2.604,0.868c-3.229-2.375-4.229-5.797-3.793-9.852
		c0.451-4.184,0.007-8.237-2.157-11.985c-0.358-0.619-0.386-1.429-0.75-2.884c2.69,0.776,4.899,1.413,7.692,2.22
		c0.107-1.389,0.614-2.909,0.246-4.176c-0.92-3.168,0.68-5.074,2.932-6.58c2.528-1.69,5.286-3.032,7.882-4.626
		c1.379-0.847,2.832-1.722,3.9-2.902c6.414-7.088,14.191-10.112,23.697-8.336c0.524,0.098,1.081,0.013,1.895,0.013
		c0.281-2.63,0.724-5.285,0.801-7.951c0.069-2.396-3.756-6.171-6.844-7.121c-4.938-1.519-4.938-1.519-8.207-4.909
		c0.444-0.662,0.908-1.353,1.587-2.366c-5.071-1.006-8.305,3.348-12.547,4.066c-0.128-0.26-0.256-0.52-0.384-0.78
		c3.635-2.308,7.065-5.075,10.954-6.817c5.733-2.567,11.745-4.558,17.741-6.472c2.262-0.722,3.831-1.676,4.837-3.85
		c0.693-1.498,1.834-2.79,3.123-4.686c0.93,1.946,1.446,3.233,2.134,4.421c1.32,2.281,2.955,2.51,4.663,0.562
		c1.462-1.667,3.298-3.206,2.142-6.006c-0.297-0.718,0.67-1.958,1.231-3.409c3.002,2.983,2.185,5.955,1.652,9.733
		c3.381-3.49,6.373-6.405,11.043-7.612c-1.767,3.814-4.802,5.882-7.947,7.856c0.181,0.261,0.361,0.522,0.542,0.783
		c0.965,0,1.93,0,3.315,0c-2.033,2.381-3.812,4.462-5.589,6.546c-1.361,1.595-3.019,3.026-4.017,4.823
		c-2.354,4.237-6.069,5.614-10.566,6.12c-2.071,0.233-4.05,1.277-6.555,2.115c-0.216,0.397-0.704,1.296-1.192,2.195
		c-0.191-1.031-0.383-2.062-0.574-3.093C141.542,37.521,142.583,38.231,143.727,38.9z"/>
	<path fill="#333333" d="M204.551,267.663c-1.171-0.57-2.335-1.156-3.515-1.708c-3.3-1.544-6.208,0.419-6.402,3.995
		c-0.17,3.122-0.818,6.219-1.305,9.686c-1.07-0.054-1.951-0.099-2.314-0.117c-1.109-3.64-2.089-6.858-3.07-10.075
		c-0.426,0.068-0.852,0.136-1.278,0.205c0.211,2.767,0.422,5.533,0.651,8.544c-0.84-0.497-1.543-0.913-2.633-1.558
		c-0.198,1.095-0.366,2.02-0.512,2.827c3.732,0.622,7.028,1.17,10.324,1.719c-0.007,0.259-0.014,0.518-0.021,0.776
		c-3.084,1.739-6.516-0.187-9.709,0.693c-1.743,3.89-6.277,3.234-9.158,5.592c3.118-1.034,6.263-1.993,9.346-3.122
		c3.043-1.115,3.659-0.796,4.216,2.447c0.125,0.728,0.364,1.53,0.81,2.093c1.511,1.907,1.903,4.026,1.48,6.644
		c-5.139,1.718-10.318,2.981-15.454-1.015c-0.166,0.207-0.333,0.415-0.499,0.622c0.069,1.087-0.282,2.52,0.28,3.198
		c2.187,2.641,1.95,5.647,1.873,8.694c-0.046,1.841-0.008,3.685-0.008,5.88c-0.471-0.5-0.765-1.067-1.217-1.253
		c-4.873-2.009-3.356-6.095-3.282-9.757c0.045-2.23-0.086-4.465-0.177-6.697c-0.126-3.091-0.287-6.18-0.451-9.632
		c-2.269-5.733-4.899-11.914-7.133-18.236c-0.955-2.704,1.474-5.266,4.564-5.131c6.859,0.3,13.384-1.212,19.719-3.575
		c2.148-0.801,4.036-2.303,6.448-3.723c3.697,2.334,8.263,4.399,10.675,9.064c-0.883,1.137-1.587,2.044-2.291,2.951L204.551,267.663
		z M183.27,275.934c0.136,0.013,0.273,0.026,0.409,0.039c0.126-0.372,0.38-0.757,0.345-1.114c-0.039-0.396-0.34-0.767-0.527-1.149
		c-0.139,0.055-0.278,0.11-0.417,0.165C183.143,274.562,183.207,275.248,183.27,275.934z M193.67,262.195
		c0.184,0.209,0.368,0.419,0.553,0.628c0.621-0.556,1.242-1.112,1.862-1.668c-0.065-0.085-0.131-0.169-0.196-0.254
		C195.15,261.333,194.41,261.764,193.67,262.195z"/>
	<path fill="#333333" d="M136.494,190.567c0.551,0.647,1.102,1.294,1.796,2.109c3.739-3.005,6.744-1.494,9.919,1.03
		c1.701,1.352,4.043,1.494,6.363-0.097c-0.511,2.135-1.022,4.27-1.457,6.084c0.573,1.989,1.092,3.789,1.775,6.158
		c-3.274,0.505-6.105,0.942-9.195,1.418c0.946,1.495,2.206,1.358,3.601,1.054c3.446-0.75,4.669,0.519,3.917,3.95
		c-0.405,1.848-0.747,3.709-1.21,6.027c2.708-0.781,4.76-1.372,6.869-1.98c0.654,2.132-0.222,3.215-1.898,3.928
		c-3.153,1.341-6.292,2.714-9.477,4.092c-0.839-1.707-1.448-2.945-1.857-3.776c-2.072-0.546-3.704-0.975-4.845-1.276
		c-3.02,1.086-5.659,2.034-9.145,3.288c-2.879-0.855-7.092-1.369-9.903-5.168c1.524,0.575,3.048,1.15,4.572,1.726
		c0.232-0.159,0.464-0.319,0.696-0.478c-3.986-2.978-1.721-6.459-1.465-10.161c1.438-0.131,2.8-0.323,4.167-0.364
		c2.541-0.076,4.797-0.381,6.738-2.529c0.836-0.925,2.964-0.742,4.52-0.934c0.805-0.1,1.645,0.08,2.867,0.159
		c-1.059-2.182-2.572-3.398-4.392-3.198c-1.804,0.198-4.154-0.377-5.068,2.493c-0.638,2.003-3.759,3.142-5.181,1.881
		c-1.454-1.289-2.846-3.476-2.906-5.314c-0.088-2.705,1.017-5.453,1.65-8.174c0.092-0.396,0.383-0.747,0.319-0.626
		c3.046-0.473,5.664-0.88,8.282-1.287L136.494,190.567z"/>
	<path fill="#333333" d="M180.928,86.596c-1.315-1.615-2.977-1.955-4.941-1.457c-0.847,0.215-1.749,0.213-2.627,0.31
		c-0.051-0.236-0.102-0.471-0.153-0.707c0.805-0.405,1.61-0.81,2.701-1.358c-1.955-3.372-1.164-6.269,0.715-9.461
		c1.498-2.545,2.327-5.716,2.611-8.69c0.445-4.67,2.808-7.073,7.5-8.002c-0.246,0.498-0.322,0.989-0.572,1.105
		c-3.127,1.449-4.075,4.222-4.767,7.302c-0.879,3.913-2.007,7.771-3.214,12.363c2.588,0.435,5.179,1.214,7.742,1.133
		c1.019-0.032,2.367-1.807,2.891-3.068c1.504-3.625,4.694-5.05,7.922-5.984c2.266-0.656,3.852,1.025,3.91,3.031
		c1.724,1.174,3.253,1.97,4.469,3.102c1.905,1.773,3.717,2.56,6.384,1.475c2.712-1.103,6.528,0.462,7.907,2.874
		c0.267,0.467,0.038,1.218,0.038,1.855c6.409,2.542,12.704-1.234,19.375-0.093c-0.635,0.389-1.224,0.922-1.913,1.145
		c-9.709,3.139-19.438,6.215-29.147,9.355c-3.053,0.987-5.983,1.698-9.176,0.217c-1-0.464-2.845-2.16-3.651,0.393
		c-2.612-0.847-4.489-2.255-6.423-4.016c-1.812-1.651-4.921-1.879-7.459-2.733L180.928,86.596z M211.034,85.31
		c3.066-0.32,6.132-0.639,9.199-0.959c-0.076-0.405-0.152-0.809-0.228-1.214c-2.982,0.734-5.964,1.468-8.946,2.202
		c-1.734,0.622-3.468,1.244-5.201,1.866c0.174,0.355,0.349,0.709,0.523,1.064C207.931,87.283,209.483,86.296,211.034,85.31z"/>
	<path fill="#333333" d="M88.49,142.882c-5.517-2.849-5.805-10.414-0.453-13.449c2.671-1.514,4.012-3.427,4.605-6.225
		c0.177-0.834,0.418-1.929,1.017-2.342c1.283-0.885,2.792-1.805,4.262-1.902c0.726-0.048,1.754,1.603,2.313,2.66
		c0.693,1.312,1.042,2.807,1.555,4.265c-1.756,1.672-3.589,3.418-5.422,5.164c0.118,0.21,0.236,0.421,0.354,0.631
		c5.688-0.959,11.574-4.752,17.169,1.427c-1.161,0.693-2.195,1.567-3.389,1.973c-3.09,1.052-4.162,3.662-3.18,6.713
		c1.154,3.584,1.887,7.314,2.622,11.017c0.457,2.299-0.966,3.691-3.074,3.682c-2.422-0.011-4.842-0.623-7.262-0.974
		c0.169-0.249,0.339-0.497,0.508-0.746c-0.333-0.976-0.378-2.275-1.048-2.873c-2.909-2.597-3.566-5.368-1.769-9.116
		c0.614-1.28,1.352-2.501,2.033-3.749c-0.305-0.199-0.61-0.399-0.914-0.598c-0.599,0.736-1.332,1.4-1.776,2.22
		c-3.195,5.911-5.397,12.087-5.105,18.963c0.065,1.517-0.352,3.055-1.154,4.568C87.667,157.297,87.078,150.275,88.49,142.882z
		 M106.402,131.919c0.079,0.257,0.159,0.515,0.238,0.772c0.85-0.271,1.7-0.542,2.55-0.814c-0.072-0.232-0.144-0.464-0.215-0.697
		C108.117,131.427,107.259,131.673,106.402,131.919z"/>
	<path fill="#333333" d="M107.222,223.415c-0.584-2.805-1.167-5.611-1.833-8.811c-1.242,1.017-2.108,1.726-3.359,2.752
		c-0.133-1.107-0.333-1.796-0.267-2.458c0.096-0.967,0.581-1.92,0.557-2.87c-0.132-5.178,3.02-7.987,7.124-10.158
		c0.473-0.25,0.928-0.709,1.41-0.736c3.021-0.17,4.657-2.089,5.796-4.557c1.045-2.265,1.984-4.584,2.856-6.922
		c0.242-0.649,0.356-1.593,0.061-2.156c-1.842-3.516-1.591-7.295-1.611-11.051c-0.002-0.432,0.066-0.911-0.092-1.288
		c-2.233-5.35,0.003-10.157,1.567-15.141c0.69-2.197,0.376-4.706,0.542-7.072c0.153-2.169-0.41-4.558,2.216-6.664
		c0.298,1.388,0.684,2.34,0.678,3.289c-0.041,7.453,1.081,14.677,3.244,21.841c0.751,2.486-0.117,5.461-0.261,8.547
		c-0.094-0.055,0.337,0.198,0.789,0.463c-0.073,0.357-0.082,0.696-0.209,0.982c-1.238,2.782-2.488,5.559-3.752,8.33
		c-0.733,1.606-1.37,3.118-0.33,4.946c0.32,0.563-0.108,1.866-0.602,2.525c-2.996,4.005-4.562,8.167-2.453,13.157
		c0.293,0.694-0.185,2.38-0.764,2.66c-2.318,1.12-2.593,3.195-2.665,5.207c-0.097,2.698,0.098,5.425,0.408,8.112
		c0.27,2.344-0.164,3.81-2.331,5.404c-6.011,4.42-11.644,9.353-17.437,14.07c-0.231,0.188-0.566,0.247-1.351,0.051
		c0.552-0.931,0.947-2.017,1.684-2.765c2.748-2.788,5.446-5.665,8.474-8.126c2.781-2.26,4.026-5.041,4.199-8.433
		c0.109-2.143,0.02-4.296,0.02-6.444c-0.236-0.045-0.473-0.09-0.709-0.135c-0.309,1.113-0.618,2.227-0.927,3.34
		C107.671,223.339,107.446,223.377,107.222,223.415z M114.347,215.915c-2.831,0.342-2.921,2.061-2.99,3.813
		c-0.129,3.295-0.287,6.588-0.397,9.884c-0.012,0.355,0.207,0.717,0.319,1.076c0.292,0.012,0.583,0.024,0.875,0.037
		C114.83,226.189,112.29,220.804,114.347,215.915z M120.905,181.143c3.388-1.583,4.866-6.346,3.955-9.936
		C123.566,174.457,122.235,177.8,120.905,181.143z M109.927,218.078c1.617-2.928-1.075-4.231-1.598-6.253
		C105.693,213.191,106.315,215.628,109.927,218.078z"/>
	<path fill="#333333" d="M94.389,302.501c-1.804-3.513-1.275-6.299,0.791-8.721c2.358-2.765,2.36-5.372,0.788-8.629
		c-1.926-3.99-3.589-8.205-2.422-12.901c0.178-0.716-0.248-1.712-0.661-2.423c-2.345-4.036-1.175-7.902,0.311-12.322
		c6.508,2.238,13.426,2.892,17.541,9.247c-3.02,1.597-3.616,1.229-5.262-3.678c-1.016,2.095-1.809,3.73-2.677,5.521
		c-2.08-0.755-4.352-1.58-6.623-2.405c-0.158,0.327-0.316,0.654-0.474,0.981c2.306,1.178,4.541,2.535,6.936,3.492
		c3.733,1.491,3.66,1.381,3.845,5.497c0.151,3.347,0.649,6.678,0.943,10.02c0.042,0.474-0.198,0.973-0.452,2.1
		c-1.117-0.857-1.877-1.441-2.733-2.098c-1.052,2.414-1.709,0.153-2.504-0.41c-0.949,0.732-1.838,1.419-3.036,2.343
		c0.475,0.501,0.843,1.234,1.388,1.406c2.504,0.79,4.965,1.428,7.742,1.142c3.64-0.375,4.527,1.318,2.669,4.517
		c-1.108,1.909-2.064,4.384-3.792,5.356C102.973,302.64,98.589,302.285,94.389,302.501z M106.71,293.824
		c-0.258-0.235-0.517-0.47-0.775-0.704c-0.627,0.668-1.254,1.335-1.881,2.003c0.265,0.241,0.531,0.483,0.796,0.724
		C105.469,295.172,106.09,294.498,106.71,293.824z"/>
	<path fill="#333333" d="M82.026,387.01c1.91-0.981,3.752-2.139,5.743-2.911c6.263-2.429,11.089-6.689,15.563-11.534
		c1.357-1.47,2.42-3.776,5.194-3.263c0.27,0.05,1.054-0.892,1.033-1.348c-0.133-2.882,1.956-4.418,3.672-6.07
		c2.451-2.36,5.021-1.844,6.799,1.115c3.51,5.845,3.801,6.948,2.804,11.058c-1.078-0.414-2.133-0.819-3.416-1.311
		c-0.292,1.229-0.529,2.229-0.889,3.748c-1.966-0.109-3.915-0.218-6.023-0.335c1.133,3.289,0.121,6.178-1.973,8.905
		c-1.204,1.568-2.553,2.333-4.549,2.704c-4.459,0.828-8.829,2.123-13.258,3.126c-0.983,0.223-2.071,0.112-3.094-0.002
		c-1.309-0.145-2.656-0.29-3.883-0.726c-1.383-0.491-2.651-1.306-3.969-1.979C81.863,387.795,81.945,387.402,82.026,387.01z
		 M109.251,373.905c0.035-0.343,0.07-0.685,0.105-1.028c-0.907-0.458-2.017-1.491-2.68-1.257c-1.506,0.532-2.8,1.682-2.834,4.069
		C105.869,375.021,107.56,374.463,109.251,373.905z"/>
	<path fill="#333333" d="M202.258,393.427c-1.76,0.278-2.342-0.954-2.626-2.26c-0.964-4.435-2.244-8.852-1.05-13.477
		c0.142-0.548-0.223-1.254-0.428-1.861c-1.147-3.393-0.43-6.545,0.85-9.78c0.592-1.497,0.432-3.33,0.441-5.012
		c0.026-4.651-3.325-8.002-4.729-12.074c-1.552-4.502-3.718-8.45-7.065-11.8c-0.442-0.442-0.741-1.1-0.924-1.712
		c-0.393-1.315-0.666-2.665-0.989-4.001c0.217-0.167,0.433-0.334,0.65-0.5c2.892,2.3,5.881,4.49,8.655,6.925
		c5.159,4.528,7.149,10.768,8.671,17.145c0.922,3.862,1.452,7.818,2.183,11.869c-1.535,2.14-3.203,4.465-4.871,6.79
		c0.144,0.14,0.289,0.279,0.433,0.419c1.073-0.845,2.103-1.752,3.227-2.522c2.771-1.898,5.576-0.745,5.698,2.521
		c0.185,4.951,0.048,9.913,0.048,13.736c-3.322,2.264-5.741,3.912-8.16,5.561L202.258,393.427z"/>
	<path fill="#333333" d="M144.575,96.734c0.676,0.318,1.378,0.591,2.024,0.96c2.556,1.461,2.653,2.291,0.992,4.691
		c-0.719,1.039-1.059,2.34-1.739,3.909c-8.563-1.304-17.037-1.216-23.365,7.155c-0.346-1.322-0.512-1.96-0.679-2.597
		c-0.199-0.001-0.399-0.002-0.598-0.003c-0.257,3.389-0.514,6.777-0.773,10.2c-0.915-0.171-1.21-0.135-1.321-0.261
		c-2.33-2.637-1.918-9.281,0.599-11.64c0.834-0.782,1.699-1.771,2.015-2.825c1.746-5.829,5.788-10.185,9.455-14.719
		c2.854-3.529,9.625-4.513,14.205-2.637c1.202,0.492,2.381,1.097,3.63,1.406c1.413,0.349,2.806,0.925,2.313,2.474
		c-0.358,1.123-1.545,2.282-2.652,2.784c-1.176,0.532-2.695,0.307-4.064,0.413C144.602,96.274,144.588,96.504,144.575,96.734z"/>
	<path fill="#333333" d="M163.219,217.271c2.191-7.271,3.305-14.118-0.588-20.43c0-3.651,0-7.014,0-10.376
		c0.321-0.059,0.642-0.118,0.963-0.177c0.894,2.993,1.789,5.987,2.64,8.836c6.078,1.63,6.824,3.884,3.574,9.421
		c-0.929,1.583-1.338,3.33,0.399,4.925c0.776,0.713,1.174,1.837,2.187,2.786c-0.18-3.526-0.224-6.913,2.871-9.698
		c1.699,2.194,3.442,4.445,5.567,7.19c0.906-2.135,1.674-3.943,2.604-6.134c0.559,0.92,0.959,1.579,1.46,2.403
		c0.609-0.316,1.222-0.635,1.835-0.953c0.2,0.096,0.401,0.192,0.601,0.288c-0.557,1.491-1.114,2.982-1.685,4.51
		c0.434,0.04,1.224,0.112,2.65,0.241c-3.257,2.665-3.896,6.664-7.726,8.437c-1.65,0.763-2.415,3.58-3.415,5.549
		c-0.522,1.027-0.68,2.239-1.194,4.039c6.795,2.915,13.686,5.872,20.577,8.828c-0.057,0.171-0.113,0.342-0.17,0.512
		c-1.575-0.309-3.234-0.401-4.709-0.97c-4.144-1.596-8.416-3.027-12.258-5.195c-4.736-2.672-9.695-5.357-11.809-11.009
		c-0.236-0.63-1.236-0.988-1.905-1.438C164.834,218.282,163.957,217.743,163.219,217.271z M178.818,217.524
		c-3.048-1.735-1.559,2.364-3.614,2.074c-1.214-1.747,0.548-5.806-3.678-5.693c-0.491,3.873,1.053,9.035,2.956,9.877
		C175.885,221.756,177.289,219.73,178.818,217.524z"/>
	<path fill="#333333" d="M129.965,180.114c-0.109-3.479,0.571-4.026,3.79-4.64c3.036-0.579,5.936-0.334,8.968-0.094
		c3.365,0.267,6.808-0.449,10.218-0.73c0.84-0.069,1.683-0.108,2.939-0.187c0,2.877,0,5.524,0,8.181
		c0.726,0.082,1.212,0.137,2.479,0.28c-1.601,1.002-2.578,1.871-3.718,2.262c-1.433,0.492-2.41,0.856-2.602,2.734
		c-0.207,2.018-4.014,3.362-6.153,2.134c-3.34-1.917-6.365-1.543-9.391,0.514l0.051,0.034c-0.409-1.12-0.818-2.239-1.261-3.453
		c-2.226,2.334-3.867,0.27-5.572-0.915c-0.535,0.408-0.986,0.752-1.413,1.077c-1.143-1.108-0.122-4.991,1.711-7.234
		c-0.136,1.288-0.272,2.576-0.465,4.41C132.549,181.99,132.525,181.537,129.965,180.114z"/>
	<path fill="#333333" d="M120.462,338.412c0.891,1.332,1.782,2.664,2.661,3.978c0.574-1.662,1.139-3.298,1.705-4.938
		c2.107,0.784,3.748,3.837,2.852,5.633c-1.005,2.013-0.569,3.154,1.184,4.35c0.881,0.601,1.387,1.754,2.106,2.716
		c0.329-1.474,0.666-2.985,1.004-4.496c0.116,0.019,0.231,0.037,0.347,0.056c0,6.424,0,12.849,0,19.6
		c-0.53-0.597-0.995-1.12-1.46-1.643c-0.247,0.03-0.495,0.06-0.742,0.09c0,1.584-0.109,3.187,0.147,4.729
		c0.03,0.18,2.08,0.024,3.699,0.024c-1.542,1.481-2.794,3.213-4.487,4.143c-1.351,0.742-2.713-0.332-3.07-1.997
		c-0.654-3.046-1.978-5.429-4.541-7.552c-1.82-1.508-3.125-4.362-3.461-6.782c-0.652-4.704-0.57-9.526-0.545-14.298
		c0.007-1.269,0.914-2.533,1.407-3.799C119.667,338.288,120.065,338.35,120.462,338.412z M126.443,358.452
		c-0.802,5.208-0.495,6.989,1.526,8.901C127.42,364.154,126.932,361.303,126.443,358.452z"/>
	<path fill="#333333" d="M208.42,18.79c0.009,4.247,4.587,4.395,6.271,7.985c-1.326-0.498-2.155-0.732-2.913-1.107
		c-3.095-1.533-6.307-2.173-9.78-1.793c-2.036,0.223-4.127,0.196-6.173,0.034c-7.285-0.575-14.436,0.398-21.577,1.631
		c-2.154,0.372-3.058-0.508-2.864-2.655c0.36-3.968,3.262-6.728,7.184-6.819c9.119-0.212,18.218-0.124,27.174,1.936
		C206.579,18.196,207.394,18.485,208.42,18.79z"/>
	<path fill="#333333" d="M202.258,393.427l0.016-0.033c0.588,1.507,1.287,1.182,2.444,0.431c1.257-0.817,3.062-1.94,4.177-1.57
		c1.91,0.634,2.399,2.694,2.394,4.862c-0.013,6.016-0.585,11.883-3.165,17.422c-0.346,0.742-0.422,1.609-0.639,2.48
		c-2.493-0.172-4.155-1.331-5.186-3.705c-0.425-0.979-1.596-1.635-2.427-2.437l0.067,0.043c-0.588-2.671-2.155-5.102-1.366-8.104
		c0.544-2.068,0.492-4.173,2.351-5.817C201.764,396.255,201.837,394.644,202.258,393.427z"/>
	<path fill="#333333" d="M215.104,131.268c4.073,2.32,5.78,6.096,7.758,9.736c1.676,3.084-0.135,6.883-3.679,7.126
		c-0.943,0.065-1.894,0.01-2.358,0.01c-4.693-2.827-8.163-7.474-14.319-5.284C202.782,138.246,205.841,135.524,215.104,131.268z"/>
	<path fill="#333333" d="M61.868,188.574c6.503,1.604,13.005,3.212,19.509,4.812c7.286,1.791,7.283,1.785,11.655-4.369
		c0.503-0.708,1.101-1.348,1.607-2.054c1.328-1.858,2.922-2.246,4.666-0.686c1.642,1.469,4.633,1.73,4.473,5.106
		c-1.255-0.123-2.502-0.246-4.32-0.424c0,1.495,0,2.923,0,4.656c-0.399,0.091-1.047,0.238-1.86,0.423
		c0.274,0.619,0.545,1.23,0.86,1.942c-3.903,0.8-3.438,4.846-5.543,6.89c-0.72,0.699-1.684,1.145-2.924,1.962
		c-0.147-1.15-0.215-1.733-0.298-2.313c-0.357-2.501-0.689-5.007-1.112-7.497c-0.058-0.341-0.535-0.795-0.89-0.873
		c-3.988-0.881-7.99-1.698-12.044-2.545c-1.015,2.087-1.941,3.993-2.868,5.899c-0.192-0.039-0.383-0.078-0.575-0.118
		c0-1.377,0-2.754,0-4.131c-0.226,0.138-0.453,0.277-0.679,0.415c-1.051-0.975-2.072-1.985-3.162-2.913
		c-0.789-0.671-1.61-1.349-2.524-1.816c-1.33-0.681-2.755-1.177-4.14-1.752C61.755,188.984,61.811,188.779,61.868,188.574z"/>
	<path fill="#333333" d="M48.203,187.343c-0.671-0.281-1.342-0.561-1.562-0.654c-0.949,1.829-1.634,3.532-2.714,4.929
		c-0.231,0.298-2.221-0.211-2.826-0.873c-1.125-1.231-1.914-2.838-0.424-5.423c0.987,1.908,1.669,3.228,2.194,4.244
		c1.569-2.026,1.114-2.854-3.435-4.274c-0.166,1.295-0.327,2.554-0.522,4.073c-4.966-4.637-3.974-6.423,1.831-9.983
		c-3.439,0.52-6.186,0.935-8.85,1.337c1.461-3.932,3.852-5.141,7.636-3.785c0.706,0.253,1.472,0.505,2.204,0.487
		c2.591-0.063,4.822,0.06,6.115,3.032c1.016,2.336,1.629,4.436,0.46,6.799L48.203,187.343z"/>
	<path fill="#333333" d="M154.306,160.756c0.383,3.241,1.016,5.731,0.811,8.15c-0.095,1.119-1.826,2.1-3.198,2.765
		c0.519-1.494,1.635-3.094,1.394-4.453c-0.255-1.436-1.803-2.643-3.241-3.787c1.123,2.812,1.844,5.311-0.6,6.616
		c-3.288-0.428-5.931-0.772-8.574-1.116c-0.054,0.251-0.108,0.503-0.161,0.754c1.507,0.272,3.014,0.544,4.182,0.754
		c-1.674,0.806-3.512,2.281-5.467,2.456c-1.7,0.152-3.718-0.904-5.21-1.967c-0.563-0.401-0.258-2.374,0.032-3.536
		c0.409-1.636,1.174-3.184,1.658-4.438c3.109,0.228,6.111,0.88,8.997,0.541C147.911,163.145,150.781,161.832,154.306,160.756z
		 M144.897,167.052c-0.133-0.294-0.266-0.588-0.399-0.882c-0.775,0.381-1.55,0.761-2.324,1.142c0.076,0.178,0.152,0.356,0.228,0.533
		C143.233,167.581,144.065,167.317,144.897,167.052z"/>
	<path fill="#333333" d="M189.659,158.582c1.517-0.92,3.2-1.651,4.511-2.805c1.928-1.697,3.656-3.639,5.348-5.582
		c2.021-2.322,5.632-3.199,8.608-1.973c-4.128,4.86-8.271,9.737-12.239,14.41c-5.428-0.915-10.713-1.806-15.998-2.698
		c0.027-0.241,0.054-0.481,0.081-0.722c3.254,0,6.507,0,9.761,0C189.706,159.002,189.682,158.792,189.659,158.582z"/>
	<path fill="#333333" d="M171.693,100.079c2.033,1.225,3.386,2.04,4.886,2.944c-1.219,1.746-2.095,3-2.971,4.255
		c0.189,0.218,0.377,0.436,0.566,0.654c1.443-0.883,2.887-1.767,4.33-2.65c0.137,0.133,0.274,0.265,0.412,0.398
		c-0.41,0.796-0.821,1.592-1.334,2.587c2.328,2.123,4.521,4.403,3.856,8.023c-0.176-0.065-0.426-0.086-0.454-0.176
		c-1.946-6.253-2.669-6.65-9.135-5.373c-3.167,0.625-6.177,1.413-7.881,5.044c-1.716-0.905-3.362-1.774-4.976-2.625
		c1.396-1.124,2.497-1.988,3.572-2.883c0.905-0.754,1.674-1.742,2.687-2.28C168.216,106.419,170.891,104.648,171.693,100.079z"/>
	<path fill="#333333" d="M183.588,320.975c2,1.007,3.967,2.09,6.01,3.001c1.968,0.878,3.975,1.714,6.037,2.324
		c2.888,0.854,4.135,2.992,4.739,5.633c0.488,2.133-0.363,3.037-2.538,2.968c-0.54-0.017-1.155,0.027-1.603-0.209
		c-4.851-2.559-10.001-4.779-12.586-10.133c-0.438-0.908-0.617-1.94-0.916-2.915C183.016,321.421,183.302,321.198,183.588,320.975z"
		/>
	<path fill="#333333" d="M180.302,307.368c4.103,0.516,7.946,0.927,11.763,1.511c1.761,0.269,4.571,5.633,3.827,7.248
		c-0.266,0.577-1.049,1.117-1.697,1.284c-4.607,1.19-12.642-3.555-13.876-8.147C180.191,308.786,180.302,308.242,180.302,307.368z"
		/>
	<path fill="#333333" d="M84.232,207.767c1.246,2.141,2.092,3.594,2.938,5.047c0.199-0.099,0.398-0.197,0.597-0.296
		c-0.223-0.96-0.446-1.921-0.723-3.114c1.311-0.381,2.468-0.717,3.739-1.087c1.724,2.337,2.48,4.432,0.348,6.98
		c-0.916,1.094-1.052,2.812-1.68,4.184c-0.53,1.156-1.107,2.361-1.953,3.277c-0.56,0.606-1.852,1.224-2.421,0.966
		c-0.777-0.353-1.505-1.475-1.667-2.373c-0.263-1.466-0.022-3.018-0.048-4.533c-0.036-2.097-0.189-4.195-0.148-6.29
		C83.228,209.848,83.692,209.177,84.232,207.767z M87.685,218.511c0.429,0.054,0.743,0.138,0.764,0.091
		c0.378-0.852,0.721-1.719,1.072-2.584c-0.186-0.083-0.372-0.167-0.558-0.25C88.548,216.658,88.134,217.548,87.685,218.511z"/>
	<path fill="#333333" d="M241.746,135.221c-2.015,0.657-3.532,1.151-5.428,1.769c-0.575,1.627-1.658,2.269-4.049,1.527
		c-1.745-0.542-3.93,0.337-5.846,0.573c-2.227-5.201-1.411-7.308,3.614-8.093c1.923-0.3,4.13,0.749,6.113,1.451
		C237.837,133.047,239.387,134.03,241.746,135.221z"/>
	<path fill="#333333" d="M219.453,126.411c-3.51,3.589-7.368,3.014-11.347,1.47c-0.569-3.424,1.314-6.335,4.678-7.231
		C215.855,119.832,217.258,121.008,219.453,126.411z"/>
	<path fill="#333333" d="M107.074,311.952c2.586-1.142,4.837-2.137,7.261-3.207c0,2.01,0,3.779,0,5.87
		c0.504-0.577,0.802-0.918,1.1-1.259c0.155,0.037,0.31,0.074,0.465,0.112c-0.387,1.258-0.541,2.656-1.202,3.748
		c-2.151,3.552-5.499,4.658-8.532,2.646c1.069-0.672,1.979-1.244,3.201-2.012C105.508,316.983,107.752,314.192,107.074,311.952z"/>
	<path fill="#333333" d="M112.426,297.856c0-2.476,0.043-4.287-0.012-6.095c-0.053-1.761,0.647-2.741,2.689-2.338
		c0-2.307,0-4.234,0-6.162c0.412,3.785,2.918,6.37,4.935,9.264c1.899,2.726,1.11,4.436-2.15,4.973
		C116.071,297.796,114.196,297.751,112.426,297.856z"/>
	<path fill="#333333" d="M303.526,266.224c-6.383,1.886-12.616,0.882-18.818-0.066c-3.306-0.506-6.538-1.485-9.817-2.19
		c-2.224-0.478-4.085-1.344-4.905-4.254c1.263,0.14,2.506-0.045,3.404,0.427c8.235,4.335,17.263,4.711,26.227,5.465
		C300.928,265.715,302.223,266.013,303.526,266.224z"/>
	<path fill="#333333" d="M124.509,301.339c-0.439-0.736-1.053-1.425-1.271-2.221c-0.257-0.941-0.17-1.977-0.233-2.971
		c1.002,0.007,2.276-0.381,2.959,0.09c3.243,2.237,6.582,4.435,7.893,8.547c0.272,0.852,1.282,1.467,2.153,2.409
		c-1.893,1.142-3.479,0.719-4.855-0.724c-0.967-1.014-1.67-2.289-2.678-3.251c-0.941-0.897-2.129-1.534-3.209-2.286
		C125.015,301.068,124.762,301.203,124.509,301.339z"/>
	<path fill="#333333" d="M181.05,86.686c4.868,3.736,4.936,3.824-0.065,7.669c-1.958,1.505-1.994,3.053-0.525,5.43
		c-3.094-1.058-4.352-2.967-4.441-5.232c-0.087-2.214-0.628-4.893,2.221-6.238c0.954-0.45,1.795-1.139,2.687-1.719L181.05,86.686z"
		/>
	<path fill="#333333" d="M126.459,94.015c-4.828-2.885-3.265-7.999-4.424-12.08c3.14-2.305,6.762-4.135,9.194-6.981
		c2.452-2.868,3.723-6.746,5.449-10.059c-0.274,6.891-3.623,12.649-9.538,16.255c-3.018,1.84-3.922,7.068-1.86,10.771
		C125.67,92.622,126.066,93.318,126.459,94.015z"/>
	<path fill="#333333" d="M51.138,188.184c3.576,0.158,6.863,0.228,9.76,2.311c1.478,1.062,1.506,2.302,0.675,3.645
		c-0.785,1.269-1.74,1.468-2.873,0.214c-0.236-0.261-1.086,0.078-1.65,0.062C52.887,194.303,51.509,192.949,51.138,188.184z"/>
	<path fill="#333333" d="M216.095,60.851c-3.465,0.339-6.821,0.666-10.535,1.029c-0.678-0.45-1.711-1.136-3.02-2.006
		c1.776-0.395,3.28-0.73,4.784-1.064c0.008-0.192,0.016-0.384,0.023-0.577c-1.145-0.237-2.289-0.475-3.638-0.754
		C207.537,55.755,213.598,57.39,216.095,60.851z"/>
	<path fill="#333333" d="M164.042,179.853c-1.681-4.498,1.877-7.168,2.828-10.704c1.189,0.946,2.174,1.73,3.16,2.515
		C170.152,174.99,167.811,178.367,164.042,179.853z"/>
	<path fill="#333333" d="M119.391,327.061c-0.424,1.241-0.831,2.432-1.237,3.622c-1.088-0.498-2.175-0.995-3.704-1.695
		c2.601-3.235,4.829-6.006,7.202-8.958c1.303,1.685,2.085,3.156,0.941,4.911C121.756,326.225,121.002,327.827,119.391,327.061z"/>
	<path fill="#333333" d="M21.541,186.062c0.595-0.439,1.001-0.738,1.583-1.168c-0.638-0.457-1.216-0.87-1.776-1.271
		c3.157,0.283,6.355,0.569,9.609,0.861c-0.027,0.043-0.231,0.501-0.553,0.849c-0.277,0.3-0.689,0.476-1.086,0.735
		c1.385,1.484,4.052-1.028,5.23,1.686C27.477,188.648,24.746,188.313,21.541,186.062z"/>
	<path fill="#333333" d="M163.178,148.222c-1.983,0.974-3.76,2.627-5.038,2.304c-2.266-0.573-4.365-2.229-4.796-5.408
		C156.787,145.285,160.002,145.24,163.178,148.222z"/>
	<path fill="#333333" d="M175.877,147.587c-3.5,4.004-4.414,8.878-4.914,14.345C167.66,156.931,170.463,148.885,175.877,147.587z"/>
	<path fill="#333333" d="M178.65,227.152c1.152-1.964,2.214-3.772,3.681-6.273c1.396,1.385,2.481,2.461,3.5,3.472
		C182.165,229.541,181.374,230.932,178.65,227.152z"/>
	<path fill="#333333" d="M132.895,340.749c0.522-3.063,0.835-6.182,1.618-9.177c1.098-4.2,2.632-8.302,0.788-12.714
		c0.289-0.059,0.578-0.118,0.867-0.178c0.441,1.437,1.327,2.904,1.232,4.306c-0.202,3-0.89,5.97-1.418,8.945
		c-0.389,2.196-0.81,4.387-1.276,6.568c-0.192,0.898-0.539,1.763-0.816,2.643C133.559,341.011,133.227,340.88,132.895,340.749z"/>
	<path fill="#333333" d="M161.276,95.791c2.07-0.085,4.113-0.233,5.207-2.026c-0.537-1.791-1.006-3.352-1.475-4.914
		c0.309-0.161,0.618-0.323,0.926-0.484c0.111,2.559,1.764,3.324,3.857,3.355c-0.433,1.47-0.757,2.575-1.094,3.719
		c-1.542,0.533-3.168,1.067-4.772,1.659c-1.482,0.547-2.941,1.157-4.641,1.356c0.684-0.898,1.368-1.796,2.052-2.693L161.276,95.791z
		"/>
	<path fill="#333333" d="M169.293,81.982c-2.392-1.163-2.612-3.128-2.547-4.9c0.196-5.301,2.304-10.046,4.425-14.757
		c0.329,0.089,0.657,0.178,0.986,0.267c-0.522,1.716-0.901,3.491-1.591,5.137C167.997,73.862,167.809,75.325,169.293,81.982z"/>
	<path fill="#333333" d="M125.944,142.064c1.75,0.52,3.251,0.966,5.202,1.546c-0.621,1.909-1.194,3.669-1.784,5.483
		C126.096,147.538,125.349,146.001,125.944,142.064z"/>
	<path fill="#333333" d="M110.23,193.686c0.683-1.13,1.263-2.089,2.12-3.506c0.226,4.22-1.557,7.31-4.887,9.192
		C106.822,196.198,108.265,193.058,110.23,193.686z"/>
	<path fill="#333333" d="M136.532,60.607c-3.193,3.02-6.193,5.858-9.224,8.726C126.429,65.704,131.591,60.831,136.532,60.607z"/>
	<path fill="#333333" d="M211.074,111.464c-0.908,0-1.817,0-2.647,0c-0.679-2.181,2.862-3.852-0.642-5.642
		c1.724-0.983,2.881-1.641,3.993-2.275c0.603,1.443,1.077,2.574,1.649,3.943c-0.999,0.61-2.258,1.379-3.78,2.308
		c0.526,0.654,0.953,1.185,1.38,1.717L211.074,111.464z"/>
	<path fill="#333333" d="M152.371,81.976c1.542,6.975,1.488,7.111-2.835,7.323C148.701,86.336,150.016,84.23,152.371,81.976z"/>
	<path fill="#333333" d="M111.316,102.009c-1.925,1.312-3.76,2.793-5.802,3.886c-1.962,1.05-3.294,0.17-4.221-2.704
		c1.724,0,3.378,0.266,4.897-0.073c1.613-0.36,3.097-1.295,4.638-1.978C110.991,101.43,111.153,101.72,111.316,102.009z"/>
	<path fill="#333333" d="M172.746,180.373c-1.681,1.197-3.069,2.186-4.743,3.377c-0.613-0.672-1.213-1.329-2.204-2.416
		c1.912-1.293,3.533-2.389,5.494-3.715C171.931,178.828,172.338,179.6,172.746,180.373z"/>
	<path fill="#333333" d="M214.825,293.991c1.827,2.107,3.884,4.062,5.406,6.369c1.152,1.746,0.185,3.606-0.694,5.214
		c-0.262-0.058-0.524-0.115-0.787-0.173c0.141-0.63,0.46-1.281,0.385-1.884c-0.129-1.042-0.264-2.214-0.82-3.048
		c-1.342-2.01-2.928-3.857-4.416-5.77C214.208,294.464,214.516,294.228,214.825,293.991z"/>
	<path fill="#333333" d="M179.41,77.333c0.649-2.757,2.174-3.692,4.013-4.107c0.567-0.128,1.281,0.392,1.928,0.615
		c-0.278,0.723-0.371,1.871-0.87,2.088C183.049,76.554,181.451,76.804,179.41,77.333z"/>
	<path fill="#333333" d="M100.376,108.901c-0.122-2.063,1.016-2.278,2.475-2.228c1.733,0.06,3.469,0.014,5.14,0.014
		C107.055,109.271,104.19,110.221,100.376,108.901z"/>
	<path fill="#333333" d="M203.205,417.415c-1.449-0.863-3.12-1.5-4.291-2.646c-1.508-1.476-1.048-2.693,1.025-3.85l-0.067-0.043
		c1.097,2.196,2.194,4.392,3.291,6.588L203.205,417.415z"/>
	<path fill="#333333" d="M226.929,87.629c3.905,0.018,7.65-1.933,11.626-1.053c0.026,0.365,0.052,0.731,0.078,1.096
		c-3.947,0.253-7.893,0.507-11.84,0.76C226.839,88.164,226.884,87.897,226.929,87.629z"/>
	<path fill="#333333" d="M105.609,227.118c0.824,3.347,0.456,3.9-2.602,3.91C101.803,227.679,102.292,226.944,105.609,227.118z"/>
	<path fill="#333333" d="M175.766,57.557c1.239-3.316,4.253-4.38,7.144-5.601C181.405,54.933,178.092,55.619,175.766,57.557z"/>
	<path fill="#333333" d="M161.337,95.763c-0.258-0.165-0.76-0.382-0.737-0.488c0.345-1.647,0.758-3.28,1.155-4.916
		c0.25-0.009,0.499-0.017,0.749-0.026c0.636,0.94,1.273,1.88,2.161,3.192c-1.181,0.79-2.285,1.528-3.388,2.266L161.337,95.763z"/>
	<path fill="#333333" d="M169.768,102.521c-0.779-2.406-4.825-0.159-4.19-3.706C169.47,98.374,170.179,98.881,169.768,102.521z"/>
	<path fill="#333333" d="M197.412,44.368c2.354,1.559,2.629,3.127,1.528,5.31C196.603,48.465,196.585,46.814,197.412,44.368z"/>
	<path fill="#333333" d="M163.352,59.009c1.55-2.462,3.101-4.924,4.637-7.363C168.98,52.965,166.673,57.232,163.352,59.009z"/>
	<path fill="#333333" d="M205.574,52.435c2.908-1.197,5.555-1.554,7.74,1.054C210.734,53.137,208.154,52.786,205.574,52.435z"/>
	<path fill="#333333" d="M161.362,174.225c-0.602,1.887-1.095,3.432-1.701,5.331C157.861,175.96,158.12,175.147,161.362,174.225z"/>
	<path fill="#333333" d="M163.053,69.823c-1.156,2.377-0.931,5.435-3.398,7.166c-0.265-0.123-0.531-0.247-0.796-0.37
		c1.163-2.39,2.327-4.779,3.49-7.169C162.584,69.574,162.818,69.699,163.053,69.823z"/>
	<path fill="#333333" d="M175.433,183.362c-0.048,0.794,0.2,1.983-0.212,2.292c-0.645,0.483-1.736,0.371-2.638,0.512
		c-0.14-0.29-0.28-0.58-0.42-0.87c0.716-0.76,1.432-1.52,2.148-2.279C174.685,183.131,175.059,183.246,175.433,183.362z"/>
	<path fill="#333333" d="M131.733,149.408c-1.044,1.533-1.629,2.777-2.585,3.576c-0.313,0.261-1.592-0.634-2.714-1.125
		C128.351,150.973,129.687,150.355,131.733,149.408z"/>
	<path fill="#333333" d="M163.997,104.977c-0.058-2.774,0.045-2.846,2.951-1.845c-0.688,0.987,0.635,2.927-1.727,3.068
		C164.813,105.792,164.405,105.385,163.997,104.977z"/>
	<path fill="#333333" d="M204.51,267.696c1.039,1.173,1.913,2.239,1.415,4.121c-0.413,1.561-0.085,3.319-0.085,4.989
		c-0.225,0.011-0.45,0.022-0.675,0.033c-0.205-3.059-0.41-6.118-0.615-9.177L204.51,267.696z"/>
	<path fill="#333333" d="M108.257,170.093c-0.356-0.825-0.713-1.649-1.069-2.474c1.04-0.324,2.08-0.649,3.121-0.973
		c0.166,0.284,0.332,0.568,0.498,0.852c-0.5,0.824-0.999,1.648-1.499,2.471C108.957,170.011,108.607,170.052,108.257,170.093z"/>
	<path fill="#333333" d="M203.162,417.464c2.864,0.151,2.864,0.151,4.332,2.883c-2.517,0.528-3.75-0.684-4.29-2.932L203.162,417.464
		z"/>
	<path fill="#333333" d="M171.077,164.895c0.678-1.52,1.201-2.693,1.812-4.062C174.84,163.22,174.669,163.592,171.077,164.895z"/>
	<path fill="#333333" d="M211.027,111.515c0.883-0.257,1.767-0.515,2.65-0.772c0.215,0.255,0.43,0.51,0.645,0.764
		c-0.735,0.815-1.411,2.239-2.218,2.318c-1.667,0.163-1.183-1.322-1.03-2.361L211.027,111.515z"/>
	<path fill="#333333" d="M156.021,186.77c1.235-0.856,2.47-1.712,3.706-2.567c0.213,0.275,0.425,0.55,0.638,0.825
		c-1.191,0.955-2.382,1.909-3.573,2.864C156.535,187.518,156.278,187.144,156.021,186.77z"/>
	<path fill="#333333" d="M106.902,171.489c1.641,2.093,0.469,3.168-0.913,4.446C104.542,174.048,104.362,172.64,106.902,171.489z"/>
	<path fill="#333333" d="M201.857,54.688c1.916-0.221,3.833-0.441,5.749-0.662c0.033,0.287,0.066,0.574,0.1,0.86
		c-1.917,0.205-3.833,0.411-5.75,0.616C201.922,55.232,201.89,54.96,201.857,54.688z"/>
	<path fill="#333333" d="M186.927,176.333c1.331,1.2,2.167,1.953,3.076,2.772C186.984,179.371,186.984,179.371,186.927,176.333z"/>
	<path fill="#333333" d="M110.422,164.464c0.254-1.01,0.507-2.021,0.897-3.574c2.084,2.05,1.582,3.046,0.365,3.923
		C111.263,164.697,110.843,164.58,110.422,164.464z"/>
	<path fill="#333333" d="M136.034,160.749c-0.917,0.802-1.834,1.603-2.848,2.489c-1.217-2.785-1.194-2.812,2.316-3.138
		C135.679,160.317,135.856,160.533,136.034,160.749z"/>
	<path fill="#333333" d="M97.964,205.648c-0.761,2.043-1.522,4.087-2.283,6.13c-0.194-0.057-0.387-0.114-0.581-0.171
		c0.661-2.132,1.323-4.263,1.984-6.395C97.378,205.358,97.671,205.503,97.964,205.648z"/>
	<path fill="#333333" d="M162.192,31.969c0.647-1.301,1.052-2.117,1.695-3.41C164.798,31.115,164.798,31.115,162.192,31.969z"/>
	<path fill="#333333" d="M183.054,174.516c-0.57-0.652-1.228-1.071-1.244-1.514c-0.017-0.463,0.583-0.949,0.913-1.424
		c0.507,0.415,1.217,0.746,1.439,1.279C184.283,173.147,183.571,173.782,183.054,174.516z"/>
	<path fill="#333333" d="M33.09,194.144c1.489,0,2.342,0,3.325,0C35.065,196.359,35.065,196.359,33.09,194.144z"/>
	<path fill="#333333" d="M132.134,338.104c-0.265,1.139-0.529,2.279-0.794,3.418c-0.329-0.073-0.657-0.147-0.986-0.22
		c0.264-1.145,0.528-2.291,0.793-3.436C131.476,337.946,131.805,338.025,132.134,338.104z"/>
	<path fill="#333333" d="M98.195,232.64c-0.359,1.277-0.717,2.553-1.076,3.83c-0.357-0.105-0.713-0.21-1.07-0.315
		c0.418-1.299,0.837-2.598,1.255-3.897C97.602,232.385,97.898,232.513,98.195,232.64z"/>
	<path fill="#333333" d="M99.7,203.9c-0.374-0.68-0.748-1.359-1.324-2.406c1.128,0,1.851,0,2.92,0
		c-0.328,0.927-0.583,1.644-0.837,2.362C100.206,203.871,99.953,203.886,99.7,203.9z"/>
	<path fill="#333333" d="M160.594,108.091c-1.026,0.826-2.051,1.653-3.077,2.479c-0.196-0.228-0.392-0.456-0.587-0.685
		c0.983-0.897,1.965-1.794,2.948-2.691C160.117,107.493,160.355,107.792,160.594,108.091z"/>
	<path fill="#333333" d="M48.31,187.253c2.101,1.162,2.101,1.162,0.405,3.267c-1.46-0.866-1.375-1.948-0.512-3.178L48.31,187.253z"
		/>
	<path fill="#333333" d="M145.055,328.646c-0.197-2.227-0.394-4.454-0.591-6.681c1.479,2.043,1.291,4.299,0.566,6.62
		L145.055,328.646z"/>
	<path fill="#333333" d="M145.029,328.585c-0.409,0.622-0.817,1.245-1.456,2.217c-0.139-1.539-0.246-2.729-0.353-3.919
		c0.14-0.097,0.279-0.194,0.419-0.291c0.472,0.684,0.944,1.369,1.416,2.053L145.029,328.585z"/>
	<path fill="#333333" d="M152.324,152.442c-0.723-1.037-1.447-2.074-2.17-3.11c0.263-0.178,0.526-0.356,0.788-0.534
		c0.682,1.037,1.365,2.075,2.047,3.112C152.768,152.087,152.546,152.264,152.324,152.442z"/>
	<path fill="#333333" d="M124.964,74.359c0.159-1.012,0.318-2.025,0.477-3.037c0.301,0.04,0.601,0.08,0.902,0.119
		c-0.199,1.007-0.398,2.015-0.598,3.022C125.484,74.429,125.224,74.394,124.964,74.359z"/>
	<path fill="#333333" d="M155.321,87.51c0-0.949,0-1.898,0-2.847c0.259,0.001,0.519,0.002,0.778,0.003c0,0.964,0,1.928,0,2.893
		C155.84,87.542,155.581,87.526,155.321,87.51z"/>
	<path fill="#333333" d="M140.508,60.532c-0.9,0.745-1.8,1.491-2.699,2.236c-0.205-0.23-0.411-0.459-0.616-0.689
		c0.243-1.472,0.968-2.44,2.7-2.357C140.098,59.992,140.303,60.262,140.508,60.532z"/>
	<path fill="#333333" d="M125.256,318.075c0.482-0.595,0.965-1.19,1.447-1.785c0.277,0.217,0.553,0.435,0.83,0.652
		c-0.472,0.603-0.945,1.207-1.417,1.81C125.83,318.526,125.543,318.301,125.256,318.075z"/>
	<path fill="#333333" d="M179.943,168.106c-0.229,0.587-0.457,1.174-0.686,1.762c-0.274-0.093-0.549-0.186-0.823-0.279
		c0.141-0.592,0.283-1.185,0.424-1.777C179.22,167.909,179.582,168.007,179.943,168.106z"/>
	<path fill="#333333" d="M238.243,93.138c1.255-0.208,2.51-0.415,3.764-0.623c0.035,0.165,0.069,0.33,0.104,0.495
		c-1.198,0.305-2.396,0.611-3.594,0.916C238.426,93.663,238.334,93.4,238.243,93.138z"/>
	<path fill="#333333" d="M215.043,114.806c-0.764,0.669-1.528,1.338-2.292,2.006c-0.193-0.221-0.386-0.442-0.579-0.663
		c0.766-0.666,1.533-1.332,2.299-1.998C214.662,114.37,214.853,114.588,215.043,114.806z"/>
	<path fill="#333333" d="M152.467,100.996c-0.32,0.762-0.639,1.524-0.959,2.286c-0.267-0.091-0.535-0.182-0.802-0.272
		c0.251-0.778,0.502-1.557,0.753-2.336C151.795,100.781,152.131,100.888,152.467,100.996z"/>
	<path fill="#333333" d="M64.352,196.07c0.152-0.757,0.304-1.515,0.457-2.272c0.309,0.05,0.618,0.101,0.927,0.151
		c-0.063,0.728-0.127,1.456-0.19,2.184C65.147,196.112,64.75,196.091,64.352,196.07z"/>
	<path fill="#333333" d="M250.607,263.399c1.244,0.556,1.982,0.886,2.803,1.253C251.606,266.133,251.606,266.133,250.607,263.399z"
		/>
	<path fill="#333333" d="M163.997,104.977c0.408,0.408,0.816,0.816,1.224,1.224c-1.67,2.078-2.052,0.291-3.001-1.071
		C163.041,105.059,163.519,105.018,163.997,104.977z"/>
	<path fill="#333333" d="M162.576,101.827c-0.629,0.084-1.259,0.168-1.888,0.253c-0.044-0.24-0.088-0.479-0.132-0.719
		c0.637-0.135,1.274-0.27,1.911-0.406C162.503,101.246,162.539,101.537,162.576,101.827z"/>
	<path fill="#333333" d="M114.043,271.989c0.115-0.781,0.23-1.562,0.344-2.343c0.313,0.046,0.627,0.092,0.94,0.138
		c-0.118,0.781-0.237,1.561-0.355,2.341C114.662,272.08,114.353,272.035,114.043,271.989z"/>
	<path fill="#333333" d="M142.393,321.089c0,0.843,0,1.686,0,2.529c-0.161,0.008-0.321,0.016-0.482,0.024
		c-0.049-0.835-0.099-1.671-0.148-2.506C141.973,321.12,142.183,321.105,142.393,321.089z"/>
	<path fill="#333333" d="M139.533,344.272c0,1.118,0,2.236,0,3.354c-0.075-0.002-0.151-0.005-0.226-0.007c0-1.121,0-2.243,0-3.364
		C139.382,344.261,139.457,344.266,139.533,344.272z"/>
	<path fill="#333333" d="M164.02,234.039c-0.731-0.234-1.462-0.469-2.192-0.703c0.083-0.288,0.167-0.575,0.25-0.863
		c0.748,0.205,1.496,0.41,2.243,0.616C164.221,233.406,164.12,233.722,164.02,234.039z"/>
</g>
</svg>
