<?xml version="1.0" encoding="utf-8"?>
<!-- Generator: Adobe Illustrator 17.1.0, SVG Export Plug-In . SVG Version: 6.00 Build 0)  -->
<!DOCTYPE svg PUBLIC "-//W3C//DTD SVG 1.1//EN" "http://www.w3.org/Graphics/SVG/1.1/DTD/svg11.dtd">
<svg version="1.1" id="Calque_1" xmlns="http://www.w3.org/2000/svg" xmlns:xlink="http://www.w3.org/1999/xlink" x="0px" y="0px"
	 viewBox="0 0 400 421.47" enable-background="new 0 0 400 421.47" xml:space="preserve">
<g>
	<g>
		<path fill="#333333" d="M16.156,130.863c0.092,0.797,0.184,1.594,0.272,2.365c2.162,1.434,3.235-0.924,5.189-1.328
			c0.223,0.667,0.45,1.347,0.678,2.027c-0.345,0.332-0.689,0.664-1.034,0.996c-0.248,0.12-0.497,0.24-0.198,0.096
			c-0.107,0.317-0.017,0.049,0.074-0.218c0.343-0.335,0.686-0.67,1.029-1.005c4.069-0.113,7.264,1.259,10.573,3.966
			c4.928,4.031,8.614,9.109,13.198,13.474c-2.128,4.351-4.265,8.719-6.462,13.212c-3.812-3.781-7.614-7.55-11.331-11.237
			c0.397-3.007,0.771-5.843,1.198-9.079c-3.806,0-7.035,0-9.109,0c-3.965-2.512-6.948-4.401-9.93-6.291c0-0.33,0-0.66,0-0.991
			c0.336-0.8,0.82-1.572,0.976-2.405c0.252-1.351,0.288-2.742,1.342-4.324c0.345,0.515,0.69,1.03,1.17,1.747
			c0.795-0.278,1.648-0.575,2.5-0.872L16.156,130.863z M16.758,135.419c-0.242-0.12-0.484-0.24-0.726-0.36
			c-0.008,0.215-0.015,0.43-0.023,0.646C16.259,135.611,16.509,135.517,16.758,135.419z"/>
		<path fill="#333333" d="M233.259,116.078c1.133-1.946,2.127-3.99,3.428-5.816c2.382-3.345,5.309-6.352,7.343-9.883
			c2.66-4.618,6.713-5.759,11.472-6.135c3.69-0.292,7.359-0.858,11.356-1.34c2.305,1.773,4.646,4.17,8.364,4.629
			c2.614,0.322,3.425,1.743,5.557,6.153c1.55,0.409,3.116,0.784,4.654,1.255c0.434,0.133,0.782,0.547,1.259,0.898
			c-0.52,5.966-2.064,11.518-6.006,16.201l0.131-0.132c-0.382,0.381-0.765,0.762-1.147,1.143l0.153-0.162
			c-1.262,0.681-2.166,1.601-2.122,3.159l0.157-0.199c-0.371,0.717-0.743,1.434-1.114,2.151l0.097-0.107
			c-2.888,5.262-6.163,10.357-8.523,15.845c-1.509,3.508-1.802,7.577-2.389,11.432c-0.577,3.793-2.447,6.668-5.2,9.105
			c-5.302,0.208-10.298,0.194-15.037-2.298c-1.528-0.804-3.454-0.993-5.227-1.166c-6.595-0.643-13.203-1.163-19.762-1.725
			c-0.129-0.191-0.292-0.321-0.301-0.461c-0.372-5.843,3.758-18.151,7.135-22.749c2.507-3.412,4.587-7.16,6.639-10.878
			c1.74-3.153,1.343-6.259-1.048-9.034L233.259,116.078z"/>
		<path fill="#333333" d="M121.383,200.674c0.608,3.5,1.306,6.988,1.802,10.504c0.711,5.031,1.328,10.078,1.884,15.129
			c0.449,4.084,0.779,8.182,1.106,12.279c0.405,5.08,0.64,10.176,1.159,15.244c0.417,4.073,1.248,8.101,1.712,12.171
			c0.484,4.244,0.707,8.516,1.118,12.769c0.898,9.313,1.839,18.622,2.77,27.932c0.751,7.511,1.432,15.031,2.301,22.529
			c0.584,5.042,1.518,10.043,2.154,15.08c0.658,5.208,1.263,10.427,1.681,15.659c0.811,10.145,1.411,20.309,3.822,30.252
			c0.187,0.773,0.025,1.631,0.025,2.447c-6.765,1.675-20.565,1.218-26.594-1.031c0-3.242,0.009-6.664-0.002-10.085
			c-0.039-13.034,0.155-26.074-0.183-39.1c-0.479-18.458,0.145-36.903,0.336-55.35c0.087-8.379,1.106-16.746,1.636-25.123
			c0.187-2.961,0.163-5.935,0.263-8.902c0.298-8.869,0.546-17.741,0.935-26.606c0.374-8.545,0.899-17.084,1.358-25.626
			C120.905,200.787,121.144,200.731,121.383,200.674z"/>
		<path fill="#333333" d="M131.069,85.28c1.809,1.194,3.469,0.9,3.679-1.093c0.265-2.516,2.698-4.511,1.578-7.317
			c-0.165-0.412,0.448-1.135,0.641-1.576c-0.676-0.999-1.223-1.807-1.638-2.421c-0.051-0.427-0.143-0.631-0.078-0.747
			c0.634-1.147,1.295-2.28,2.214-3.881c0.997,1.375,2.228,2.501,2.748,3.893c1.597,4.271,2.947,8.623,2.858,13.294
			c-0.091,4.766-0.218,9.544,0.012,14.3c0.332,6.836,0.975,13.658,1.48,20.486c0.095,1.29,0.168,2.581,0.229,3.53
			c-2.472,1.353-4.668,2.555-7.058,3.863c-0.525-0.258-0.186-1.958-1.668-1.717l0.101,0.099c-0.162-1.343-0.375-2.654-2.555-3.167
			c-4.175,1.081-8.868,2.297-14.313,3.708c-7.113-3.977-14.772-0.059-23.08,1.195c-0.608-2.721-1.228-5.5-1.868-8.363
			c-1.641-0.63-3.124-1.2-4.358-1.674c0.52-4.614,0.994-8.97,1.516-13.32c0.096-0.802,0.389-1.581,0.585-2.372
			c1.654-6.663,3.37-13.311,4.916-19.999c0.401-1.736,0.266-3.596,0.821-5.204c1.544-3.184,3.088-6.368,4.923-10.155
			c2.819-1.425,6.159-3.023,9.953-0.637c-0.715,0.252-1.419,0.5-2.132,0.751c0.311,0.641,0.585,1.205,0.858,1.769
			c-0.18,0.16-0.36,0.32-0.469,0.417c0.078-0.128,0.205-0.338,0.333-0.548c0.601,0.086,1.202,0.172,1.863,0.266
			c-0.105,2.396-2.273,2.286-3.568,3.736c4.616,0,8.96-0.087,13.3,0.024c4.442,0.114,8.074,2.314,11.482,4.917
			c0.333,0.255,0.464,0.835,0.581,1.291c0.077,0.297-0.04,0.644-0.092,1.206c-2.711,0.447-5.182,1.494-6.712,4.746
			c1.137,0.317,2.106,0.588,3.075,0.859L131.069,85.28z M123.264,80.423c-1.935-0.101-3.999-1.362-5.772,0.622
			c1.65,2.659,4.396-0.028,6.589,1.198c-0.314-0.652-0.628-1.304-0.942-1.956c0.584,0,1.169,0,2.428,0
			c-0.974-0.742-1.377-1.049-1.846-1.405C123.524,79.547,123.394,79.985,123.264,80.423z M109.301,96.306
			c-0.077-0.482-0.155-0.963-0.053-0.331c-0.384-0.503-0.106-0.139,0.172,0.225c0.549,1.126,0.902,2.416,1.681,3.35
			c3.214,3.854,6.558,7.601,9.14,10.567c0.585,2.935,0.982,4.929,1.222,6.135c2.379,2.093,4.011,3.684,5.812,5.054
			c1.06,0.807,2.364,1.185,2.958-0.723c-1.043-0.494-1.968-0.933-3.253-1.542c3.503-1.274,6.809-1.709,8.938-4.418
			c0.258-2.835,0.507-5.57,0.76-8.357c-1.197-1.115-2.328-2.168-3.661-3.409c1.189-0.47,2.035-0.804,2.904-1.147
			c-0.642-0.462-1.243-0.894-1.987-1.429c0.687-0.933,1.259-1.71,1.879-2.553c-1.998-0.867-2.913-2.391-2.736-4.55
			c1.04,1.031,2.08,2.063,3.12,3.094c-0.215-2.264-0.107-4.662-3.266-5.63c0.134,1.169,0.222,1.936,0.31,2.704
			c-0.616-0.067-1.232-0.135-1.439-0.157c-2.372,3.037-4.439,5.716-6.544,8.365c-1.707,2.149-3.925,2.975-6.506,1.927
			c-1.614-0.655-3.192-1.548-4.562-2.62C112.443,99.495,110.921,97.838,109.301,96.306z M110.992,73.499
			c-0.785,0.75-1.712,1.635-2.853,2.726c0.127,1.827,0.259,3.721,0.453,6.518c2.928-4.264,7.651-5.16,10.431-9.244
			C116.058,73.499,113.639,73.499,110.992,73.499z M126.006,96.058c-0.881,0.736-1.567,1.309-2.346,1.961
			c0.504,0.313,0.887,0.551,1.245,0.774c4.38-4.084,4.532-4.42,3.317-7.512C126.041,92.091,125.352,93.571,126.006,96.058z
			 M116.444,92.882c0.612,0.101,1.031,0.17,1.45,0.239c0.031-0.46,0.063-0.921,0.132-1.945
			C117.242,92.022,116.92,92.369,116.444,92.882z M134.707,120.646c-0.057,0.001-0.114,0.003-0.171,0.004
			c-0.025,0.25-0.049,0.5-0.074,0.75c0.082,0.005,0.164,0.01,0.245,0.015C134.707,121.159,134.707,120.902,134.707,120.646z"/>
		<path fill="#333333" d="M179.766,60.608c-1.402-1.593-2.804-3.185-4.345-4.935c-1.799,2.758,0.178,4.347,1.554,6.097
			c-2.115,1.593-3.999,3.012-6.64,5c-6.183-0.783-13.109-1.661-20.372-2.581c1.868-5.78,4.315-10.69,7.434-15.278
			c0.275-0.405,0.601-0.966,1-1.066c5.347-1.336,7.535-7.077,12.786-8.936c5.18-0.401,5.18-0.401,8.91,1.037
			c0.483,1.458,0.98,2.956,1.554,4.69c0.864-0.936,1.699-1.839,2.666-2.887c2.079,0.092,4.169,0.185,6.612,0.293
			c0.526-0.387,1.36-1.002,2.647-1.951c-0.944,2.791-1.695,5.011-2.571,7.6c2.856-1.125,2.066-4.328,4.622-5.872
			c-0.333,3.862-0.243,7.399,1.11,10.471c-6.019,2.895-11.557,5.559-17.095,8.223L179.766,60.608z M174.287,53.956l-0.156,0.261
			l0.223,0.038L174.287,53.956z"/>
		<path fill="#333333" d="M148.271,106.706c0.507-0.365,0.984-0.709,1.444-1.041c-1.067-5.336-2.133-10.663-3.291-16.454
			c15.469,3.306,31.075,1.627,47.337,2.213c-8.55,6.436-17.835,10.614-26.162,17.089c4.226,0.855,7.922,1.603,11.929,2.413
			c-1.528,2.501-2.824,4.623-4.45,7.284c-4.551-0.355-9.384-0.732-14.385-1.121C156.628,113.691,152.478,110.222,148.271,106.706z
			 M165.222,112.524c0.129-0.028,0.258-0.056,0.387-0.084c-0.077-0.362-0.154-0.725-0.231-1.087
			c-0.126,0.055-0.366,0.124-0.361,0.162C165.061,111.855,165.148,112.189,165.222,112.524z M160.159,110.587l0.29,0.188
			l0.034-0.316L160.159,110.587z"/>
		<path fill="#333333" d="M284.635,127.047c2.503-2.76,5.007-5.52,7.483-8.25c0.616-2.046,1.224-4.065,1.926-6.396
			c2.021-0.512,3.987-1.011,6.967-1.766c-4.194,6.572-7.928,12.086-11.307,17.809c-3.505,5.938-5.781,12.343-6.906,19.229
			c-0.704,4.307-2.344,8.457-3.494,12.696c-1.194,4.403-2.62,8.774-3.378,13.256c-1.257,7.424-2.054,14.926-3.069,22.392
			c-0.063,0.466-0.339,0.902-0.709,1.844c-6.085-1.46-12.359-0.967-18.85-1.313c-0.738,0.803-1.585,1.722-2.691,2.925
			c-8.462-3.114-17.414-1.729-26.243-2.089c-1.934-0.079-3.899,0.369-5.836,0.66c-1.971,0.296-3.933,0.753-5.863-1.057
			c0-1.16,0-2.575,0-3.88c0.437-0.288,0.693-0.599,0.971-0.62c5.563-0.413,11.131-0.756,16.69-1.205
			c1.456-0.118,2.878-0.722,4.332-0.801c5.969-0.327,11.682,0.845,17.034,3.487c2.096,1.035,2.012,1.205,5.269,0.769
			c-1.368-0.304-2.289-0.509-3.21-0.714c-0.022-0.161-0.044-0.322-0.066-0.483c4.845-0.687,9.689-1.374,14.971-2.123
			c0.229-8.259,3.69-15.828,4.374-24.059c0.442-5.323,1.44-10.65,2.128-15.986c0.51-3.954,2.086-8.027,4.162-11.458
			c2.505-4.14,3.859-8.603,5.475-13.029L284.635,127.047z"/>
		<path fill="#333333" d="M307.597,125.02c-0.392-0.72-0.784-1.44-1.175-2.16l0.154,0.136c0.988-0.85,1.976-1.7,3.232-2.78
			c-1.225-1.315-2.172-2.332-3.297-3.54c1.236-1.307,2.443-2.582,3.385-3.577c1.742-6.492,3.437-12.623,2.491-19.554
			c1.362,0.664,2.158,1.052,3.077,1.501c0.431-0.363,0.904-0.762,1.29-1.086c2.948,5.933,9.627,5.068,14.296,7.822
			c1.348,3.392-3.375,1.981-3.388,4.765c2.118-0.707,4.3-1.238,6.192,0.681c-0.435,2.38-0.866,4.745-1.316,7.205
			c0.29,0.608,0.634,1.33,0.904,1.897c-0.668,1.559-1.243,2.899-1.758,4.101c0.733,1.459,1.384,2.754,2.244,4.465
			c3.832,0.846,7.953,1.755,12.278,2.71c0.982,1.256,2.177,2.62,1.487,4.881c-0.553,0.104-1.153,0.217-2.035,0.383
			c-0.304-1.521-0.579-2.896-0.815-4.072c-3.295,0-6.509,0-9.862,0c-0.402-0.773-0.768-1.479-1.172-2.257
			c-1.691,0.209-3.417,0.422-5.709,0.705c-0.259-0.262-0.691-0.699-1.439-1.456c-4.848,0.322-9.061-3.669-14.534-4.609
			c-0.695,1.079-1.46,2.267-2.386,3.706c-0.675,0-1.476,0-2.277,0L307.597,125.02z"/>
		<path fill="#333333" d="M197.473,129.982c1.595-1.795,3.189-3.59,5.398-6.076c-1.729,0.497-2.561,0.736-3.392,0.975l0.126,0.124
			c-0.905-2.443,2.131-2.055,2.602-3.771c-5.736-0.585-11.441-1.166-17.309-1.764c0.212-3.626,3.912-3.704,4.461-6.07
			c6.552-0.323,13.785,0.671,17.232,2.412c-0.256,1.765-0.527,3.631-0.864,5.96c2.409-1.853,1.619-4.711,2.972-6.554
			c1.341-1.826,2.636-3.686,3.891-5.446c-0.815-2.909-3.048-3.436-5.62-3.945c0.285-0.884,0.551-1.71,0.875-2.717
			c2.015,0,3.931,0,6.063,0c0.201-0.766,0.358-1.365,0.515-1.964l-0.078,0.081c2.67,1.053,5.34,2.105,8.422,3.321
			c0.453-2.621,0.818-4.738,1.288-7.456c2.765,5.799-2.407,9.839-2.048,14.877c-0.986,0.838-2.081,1.769-3.318,2.821
			c-0.446-0.461-0.773-0.8-1.371-1.419c-2.025,3.411-4.085,6.882-6.165,10.385c1.401,1.929,2.637,3.63,3.764,5.182
			c-0.659,2.726-1.634,4.597-4.387,5.559c-1.708,0.597-2.965,2.483-4.78,4.109c-0.123,0.666-0.327,1.771-0.531,2.876
			c-1.754,1.921-3.508,3.843-5.465,5.988c-1.883-4.496-3.809-9.095-5.768-13.772c0.729-1.685,3.828-1.263,3.622-3.86
			L197.473,129.982z M209.458,127.987c-2.156,0.14-3.142,1.508-3.618,3.404c1.701-0.648,3.584-1.127,3.51-3.528
			c0.508-0.071,1.016-0.142,1.524-0.213c-0.102-0.209-0.205-0.418-0.307-0.627C210.197,127.344,209.828,127.665,209.458,127.987z"/>
		<path fill="#333333" d="M254.003,351.011c-0.689,1.289-1.222,2.287-1.721,3.221c-1.518,0.816-2.979,1.556-4.386,2.388
			c-0.372,0.22-0.575,0.724-1.138,1.472c1.937,0.686,3.576,1.39,5.498,0.828c0.895,0.831,1.791,1.661,2.683,2.493
			c0.121,1.797,0.244,3.592,0.374,5.489c0.887,0.838,1.806,1.706,2.772,2.619c-1.627,3.436-5.9,2.26-7.441,4.913
			c-2.067,0-3.858,0-5.866,0c-1.13-4.063-1.406-8.02-0.208-12.029c-0.471-0.427-0.945-0.854-1.443-1.302
			c0.584-1.226,1.147-2.405,1.702-3.57c-0.477-0.862-0.929-1.679-1.494-2.702c1.208-1.147,2.336-2.217,3.941-3.741
			c-1.982-0.361-3.456-0.629-5.048-0.919c0-1.799,0-3.745,0-5.793c1.559-1.816,3.116-3.63,4.865-5.666
			c-1.097-0.91-2.185-1.813-3.315-2.75c-0.015-0.217-0.163-0.589-0.037-0.796c1.294-2.14,3.256-3.964,3.124-6.733
			c3.588-2.654,7.117-0.453,11.035,0.097c-0.929,0.319-1.525,0.523-2.264,0.776c-0.759,2.475,3.064,4.618,0.512,6.991
			c0.72,0.88,1.222,1.493,1.728,2.111c-0.652,0.5-1.163,0.891-1.899,1.456c1.224,2.072,1.765,4.22-0.664,5.735
			c0.931,1.21,2.014,2.19,2.488,3.406c0.251,0.643-0.559,1.7-0.973,2.788C255.855,351.524,255.124,351.322,254.003,351.011z"/>
		<path fill="#333333" d="M212.313,392.515c-0.851-0.315-1.687-0.84-2.557-0.902c-1.93-0.138-3.877-0.043-6.096-0.043
			c0-2.929,0-5.466,0-8.118c1.321-0.638,2.438-1.176,3.924-1.893c-1.473-1.044-2.71-1.921-3.879-2.75
			c-1.261-3.565,1.387-5.034,3.778-6.629c-1.242-2.579-3.154-1.061-5.036-1.26c-0.313-1.413-0.652-2.944-1.073-4.842
			c1.139-0.147,1.878-0.242,2.621-0.338c0.096,0.769,0.165,1.314,0.249,1.988c3.293-3.295,4.089-3.45,13.752-2.732
			c0.81,2.321,0.864,4.653-0.381,7.156c0.793,1.078,1.654,2.248,2.596,3.53c-0.257,1.028-0.525,2.102-0.763,3.054
			c0.852,1.689,1.661,3.294,2.482,4.921c1.262,0.921,2.568,1.875,4.188,3.057c-2.563,2.633-5.726,2.46-8.835,3.196
			c-0.333,0.993-0.517,2.252-1.148,3.22c-0.599,0.921-1.665,1.537-2.387,2.166c-2.466-0.272-4.704-0.52-7.674-0.848
			c2.458-1.099,4.19-2.226,6.398-2.114c0.383,0.331,0.767,0.662,1.15,0.993c0.222-0.321,0.445-0.642,0.667-0.963
			c0.299-0.084,0.597-0.168,0.261-0.073c0.201-0.299,0.032-0.048-0.137,0.204C213.715,392.502,213.014,392.508,212.313,392.515z
			 M212.346,379.482c0.576-0.055,1.152-0.111,1.729-0.166c-0.084-0.192-0.168-0.384-0.252-0.576
			c-0.45,0.293-0.899,0.586-1.349,0.879c-0.587,0.09-1.173,0.181-1.76,0.271c0.071,0.149,0.143,0.298,0.214,0.447
			C211.4,380.053,211.873,379.767,212.346,379.482z"/>
		<path fill="#333333" d="M301.621,172.429c-2.098,1.086-3.516,3.128-6.351,3.325c-1.438,0.1-2.721,2.412-4.236,3.881
			c0.013,0.011-0.294-0.254-0.902-0.78c-2.089,0.717-3.545,2.293-4.098,4.638c-0.8-0.129-1.266-0.204-1.95-0.314
			c-0.296-1.735-0.843-3.48-0.841-5.225c0.004-4.419,0.392-8.839,0.368-13.257c-0.025-4.575,0.765-8.796,3.745-12.445
			c0.708-0.867,1.117-1.98,1.757-3.151c1.401,0,2.799,0,4.669,0c0.521-0.8,1.282-1.969,2.402-3.692
			c0.349,3.545,0.366,6.463,0.967,9.255c1.291,5.994,2.884,11.923,4.354,17.879L301.621,172.429z M287.274,178.06
			c-0.037,0-0.074,0-0.111,0.001c0,0.284,0,0.568,0,0.852c0.051,0,0.102-0.001,0.152-0.001
			C287.302,178.627,287.288,178.343,287.274,178.06z"/>
		<path fill="#333333" d="M308.416,173.58c0.459-0.124,0.918-0.247,1.769-0.476c-0.501-1.438-0.99-2.844-1.801-5.173
			c-0.721,1.247-1.021,1.764-1.339,2.314c-0.743-1.238-1.411-2.353-2.127-3.547c-0.688,0.197-1.292,0.369-1.964,0.561
			c-4.298-3.101-3.178-7.985-4.706-13.23c1.138,1.267,1.45,1.615,1.767,1.967c-0.129-3.076-0.258-6.176-0.388-9.275l-0.118,0.102
			c0.473,0.406,0.945,0.811,1.628,1.397c0.618-1.648,1.242-3.311,1.892-5.044c2.123-1.044,4.294-2.111,6.466-3.178
			c1.095-0.205,1.092,2.063,2.76,1.116c0.481-0.273,1.808,0.944,2.327,1.24c0.264,3.456,0.486,6.362,0.718,9.395
			c-4.237,0.849-1.487,5.905-4.231,7.407c0.456,7.691,0.903,15.237,1.415,23.893c-2.182-3.685-3.612-6.401-3.958-9.563
			L308.416,173.58z M307.568,147.651c0.154-0.202,0.309-0.403,0.463-0.605c-0.336-0.32-0.672-0.641-1.008-0.961
			c-0.113,0.278-0.393,0.646-0.302,0.814C306.889,147.211,307.273,147.407,307.568,147.651z M311.189,175.008l-0.201-0.166
			l-0.035,0.285L311.189,175.008z"/>
		<path fill="#333333" d="M210.501,347.926c-1.52-0.667-3.04-1.335-4.767-2.093c-0.066-1.59,0.352-3.004,1.793-4.024
			c0.086,0.452,0.171,0.904,0.082,0.431c0.33,0.398,0.045,0.054-0.24-0.29c-0.435-2.874,0.93-4.593,3.609-5.506
			c-1.091-0.42-2.118-0.815-3.292-1.267c0.142-2.742,1.375-4.713,3.393-6.311c-0.517-0.714-0.947-1.309-1.653-2.283
			c1.334-0.891,2.597-1.735,3.298-2.203c3.523,0.807,6.397,1.466,9.512,2.18c-3.148,2.947-2.666,7.057-3.733,9.748
			c0.454,4.122,0.825,7.498,1.234,11.219c-1.772,1.092-3.65,1.922-6.06,0.67c-0.945-0.491-2.239-0.31-3.374-0.435L210.501,347.926z"
			/>
		<path fill="#333333" d="M177.814,353.892c0.489-0.533,0.978-1.066,1.536-1.674c-0.168-1.311,0.106-3.086-0.643-4.119
			c-1.203-1.66-0.844-2.967-0.199-4.671c1.153-0.436,2.341-0.884,3.483-1.316c-0.024-0.418,0.004-0.873-0.059-0.886
			c-3.318-0.683-4.453-3.584-6.398-6.327c2.678-0.842,5.214-1.638,8.236-2.588c0.381,0.193,1.242,0.629,2.565,1.3
			c0.338,2.153,0.724,4.613,1.2,7.644c0.839,0.48,2.221,1.271,3.807,2.178c-0.647,1.078-1.203,2.004-1.901,3.168
			c0.536,1.152,1.238,2.66,2.059,4.423c-4.307,3.371-8.917,3.685-13.797,2.745L177.814,353.892z"/>
		<path fill="#333333" d="M179.639,60.513c2.789,1.796,5.508,0.733,8.134-0.349c1.905-0.785,3.583-2.257,5.865-1.49l-0.119-0.115
			c0.111,0.458,0.221,0.915,0.388,1.607c1.557-1.029,2.98-1.969,4.349-2.873c-0.223-1.27-0.399-2.276-0.576-3.281
			c0.261-0.124,0.521-0.249,0.782-0.373c0.526,0.73,1.053,1.46,1.821,2.527c1.236,0.716,2.89,1.673,4.073,2.357
			c0.404,2.107,0.719,3.747,1.091,5.685c-2.991,1.408-6.44,1.601-9.981,0.254c0.228-0.103,0.457-0.205,0.332-0.149
			c0.077-0.112-0.061,0.088-0.199,0.288c-3.307,0.735-6.614,1.47-9.625,2.139c-1.173-0.777-1.959-1.297-2.742-1.816
			c-0.438,0.591-0.812,1.095-1.343,1.812c-1.004-0.541-1.923-1.036-2.812-1.515c-0.739,1.934-2.437,1.059-4.609,1.013
			c2.011-2.135,3.654-3.881,5.298-5.627L179.639,60.513z"/>
		<path fill="#333333" d="M241.992,177.301c-3.433,0-6.342,0-9.51,0c0-3.869,0-7.594,0-11.543c3.713-0.417,7.023-0.294,10.759,1.209
			C242.844,170.254,242.442,173.573,241.992,177.301z"/>
		<path fill="#333333" d="M175.5,298.202c1.074-0.307,1.819-0.52,2.669-0.763c0.598,1.744,1.12,3.268,1.713,4.999
			c-0.743,0.179-1.285,0.31-2.1,0.507c0.135,1.219,0.273,2.471,0.474,4.297c-1.665,0.914-3.72,2.043-6.263,3.44
			c-1.221-6.953-2.185-13.306-2.159-20.198c1.794,0.51,3.002,0.854,4.63,1.317c-0.822,0.756-1.454,1.337-2.292,2.106
			C173.221,295.26,174.287,296.637,175.5,298.202z"/>
		<path fill="#333333" d="M370.03,74.363c-2.364-0.331-4.729-0.661-7.093-0.992l0.131,0.133c0.655-1.682,1.311-3.364,1.966-5.046
			l-0.135,0.126c0.983-0.397,0.632-0.794-0.001-1.19l0.124,0.111c1.528-1.743,3.375-1.187,5.253-0.805
			c1.866,0.38,3.766,0.599,5.65,0.889l-0.139-0.136c0.898,0.881,1.795,1.762,2.891,2.838c0.638,1.972,1.371,4.239,2.359,7.292
			c-3.332-1.801-5.969-3.226-8.847-4.782c-0.614,0.447-1.471,1.071-2.327,1.695L370.03,74.363z"/>
		<path fill="#333333" d="M339.322,51.547c0.775,0.497,1.551,0.994,2.807,1.8c-2.191,0.455-4.075,0.981-5.994,1.208
			c-2.076,0.246-4.185,0.214-6.826,0.326c-0.483-1.609-1.117-3.722-1.754-5.846c0.609-0.802,1.184-1.557,1.816-2.39
			c5.481,1.129,10.84,2.232,16.619,3.422c0.5,0.803,1.177,1.89,2.033,3.266c-1.546,0-2.899,0-4.243,0
			c-0.08-0.493-0.15-0.928-0.263-1.622c-1.415,0-2.874,0-4.333,0c-0.375-0.273-0.75-0.546-0.257-0.187
			C338.306,51.489,338.814,51.518,339.322,51.547z M332.75,52.948l-0.177,0.256l0.289,0.037L332.75,52.948z"/>
		<path fill="#333333" d="M363.015,87.266c-1.258,0-2.516,0-4.648,0c1.096,1.406,1.552,2.482,2.35,2.891
			c1.029,0.528,2.172,0.697,2.227,2.152l0.071-0.078c-2.388-1.446-4.899,0.032-7.795-0.149c0.126-4.727-1.484-9.425,1.849-13.613
			l-0.126-0.142c0.384,0.933,0.774,1,1.171,0.008l-0.127,0.139c0.374-0.707,0.749-1.414,1.123-2.121l-0.132,0.137
			c0.455,0.078,0.911,0.156,1.437,0.247c-0.19,0.994-0.363,1.897-0.545,2.849c0.463,0.32,0.819,0.631,1.227,0.838
			c2.114,1.071,4.691,1.326,6.129,3.584c0.578,0.907,1.029,1.705-0.348,2.271l0.142,0.103c-1.772-0.668-3.545-1.335-6.028-2.271
			c0.94,1.598,1.438,2.444,1.936,3.29L363.015,87.266z"/>
		<path fill="#333333" d="M259.263,383.457c-2.834,1.625-5.12,1.645-7.225,0.21c-1.184,0.928-2.186,1.714-3.093,2.425
			c-2.831-1.064-4.007-5.307-2.54-9.183c1.115,0.595,2.194,1.172,3.497,1.868c1.217-0.978,2.464-1.981,3.855-3.1
			c1.361,0.637,2.792,1.307,4.344,2.034C258.486,379.619,258.858,381.457,259.263,383.457z"/>
		<path fill="#333333" d="M210.303,347.761c1.147,0.818,2.295,1.637,3.633,2.592c1.516,2.434,0.029,6.369,3.735,8.246
			c-2.883,1.004-5.408,2.206-7.662-0.54c-0.408,0.903-0.731,1.616-1.182,2.613c-2.262-1.415-0.607-3.212-0.763-5.086
			c-0.428-0.633-1.053-1.558-1.933-2.862c0.397-1.269,0.874-2.792,1.388-4.436c1.089-0.132,2.035-0.247,2.981-0.362L210.303,347.761
			z"/>
		<path fill="#333333" d="M284.657,120.968c0.628,1.178,1.191,2.277,0.28,3.671c-0.398,0.608-0.219,1.594-0.302,2.408l0.158-0.162
			c-0.652,0-1.303,0-1.99,0c-2.409,2.841-2.565,7.148-6.054,9.033c-0.489,1.948-0.97,3.865-1.55,6.174
			c-0.791-0.725-1.121-1.027-1.45-1.329c0.152-0.203,0.305-0.405,0.457-0.608c-0.11,0.245-0.22,0.489-0.33,0.734
			c-1.752-1.607-0.626-3.183-0.002-4.813c1.036-2.71,1.982-5.453,2.965-8.183l-0.097,0.107c0.371-0.717,0.743-1.434,1.114-2.151
			l-0.157,0.199c1.584-0.464,2.201-1.578,2.122-3.159l-0.153,0.162c0.382-0.381,0.764-0.762,1.147-1.143l-0.131,0.132
			c1.369-0.318,2.739-0.635,4.109-0.953L284.657,120.968z M274.291,138.521l0.166-0.243l-0.265-0.038L274.291,138.521z"/>
		<path fill="#333333" d="M338.163,74.377c4.037-0.053,8.073-0.105,12.343-0.161c-0.165,0.703-0.435,1.853-0.72,3.064
			c-1.118-0.221-2.046-0.405-3.618-0.716c-1.156,1.145-2.534,2.509-4.422,4.378c-1.575-0.656-3.92-1.633-6.535-2.723
			c0.505-1.637,0.954-3.089,1.527-4.945c0.645,0.509,1.086,0.856,1.527,1.204c-0.153,0.214-0.306,0.427-0.46,0.641
			C337.925,74.872,338.044,74.624,338.163,74.377z"/>
		<path fill="#333333" d="M168.517,130.56c-2.085-3.321-3.779-6.019-5.502-8.763c1.361-1.105,2.471-2.006,3.736-3.032
			c2.231,0.842,4.454,1.68,7.188,2.711C172.187,124.412,170.508,127.224,168.517,130.56z"/>
		<path fill="#333333" d="M236.474,64.933c1.09-0.526,2.085-1.006,3.366-1.623c1.371,1.145,2.718,2.271,3.785,3.163
			c1.097,2.822-0.016,4.441-2.089,5.821c-1.292,0-2.716,0-3.995,0C235.173,69.897,235.829,67.413,236.474,64.933z"/>
		<path fill="#333333" d="M251.906,82.746c0,1.695,0,2.995,0,4.422c-0.888,0.715-1.761,1.418-2.492,2.007
			c-2.279,0.146-4.702-2.137-5.207-4.682c-0.486-2.446,0.712-3.995,4.152-5.121C249.434,80.395,250.601,81.505,251.906,82.746z"/>
		<path fill="#333333" d="M208.473,299.556c0-2.039,0.081-3.343-0.023-4.632c-0.104-1.287-0.394-2.559-0.628-4
			c0.863-3.209,3.021-5.517,6.164-7.064c0.278,0.957,0.547,1.883,0.804,2.767C212.807,290.686,210.822,294.75,208.473,299.556z"/>
		<path fill="#333333" d="M158.449,184.222c-2.615-0.381-4.391-0.639-6.098-0.888c-0.391-1.707-0.707-3.087-1.039-4.541
			c3.284-3.194,3.721-3.206,7.621,0.185C158.801,180.406,158.645,182.096,158.449,184.222z"/>
		<path fill="#333333" d="M179.806,127.153c1.098-2.219,1.123-5.181,4.26-6.265c1.815,2.754-1.115,5.051-0.417,7.546
			c0.618,2.21,1.128,4.449,1.684,6.669c-1.265,0.219-2.768,0.48-4.618,0.8c0.703-1.909,1.465-3.979,2.296-6.236
			C181.74,128.67,180.779,127.916,179.806,127.153z"/>
		<path fill="#333333" d="M365.07,89.407c-0.685-0.714-1.37-1.427-2.055-2.141l-0.087,0.137c1.364-0.34,2.728-0.68,4.092-1.019
			l-0.142-0.103c1.676,0.869,3.352,1.738,5.678,2.944c0.464,0.619,1.397,1.861,2.588,3.45c-4.228,0.264-7.687-0.144-10.214-3.384
			c0.291-0.396,0.583-0.792,0.874-1.188c-0.205-0.088-0.409-0.176-0.614-0.263C365.15,88.361,365.11,88.884,365.07,89.407z"/>
		<path fill="#333333" d="M369.862,74.496c1.049,0.331,2.14,0.569,3.133,1.022c0.847,0.386,1.582,1.018,1.968,1.275
			c1.414,2.448,2.61,4.519,3.806,6.59l0.136-0.121c-1.598-0.867-3.196-1.735-5.614-3.048c-0.006,0.016-0.244,0.628-0.482,1.239
			l0.102-0.113c-0.842-0.384-1.685-0.768-2.696-1.229c-0.419-1.306-0.877-2.735-1.315-4.102c0.425-0.619,0.777-1.133,1.129-1.646
			L369.862,74.496z M374.559,77.817c-0.075-0.005-0.151-0.009-0.226-0.014c-0.023,0.398-0.046,0.797-0.069,1.195
			c0.073,0.004,0.146,0.009,0.219,0.013C374.508,78.614,374.534,78.216,374.559,77.817z"/>
		<path fill="#333333" d="M321.735,37.931c-3.267-1.86-7.168-2.493-9.433-6.479c1.367-0.38,2.508-0.697,3.629-1.009
			C319.772,33.437,321.563,35.689,321.735,37.931z"/>
		<path fill="#333333" d="M175.111,177.91c-0.982,0.906-1.911,1.763-2.765,2.552c-1.223-0.514-2.107-0.886-3.287-1.382
			c0-1.392,0-2.938,0-4.395C172.714,173.043,172.714,173.043,175.111,177.91z"/>
		<path fill="#333333" d="M185.59,395.344c-1.455,2.123-3.453,0.534-5.204,0.966c-0.758-0.995-1.423-1.868-2.257-2.963
			c-0.996,0.731-1.864,1.367-2.731,2.003c-0.237-0.236-0.474-0.472-0.711-0.708c0.633-0.712,1.131-1.731,1.924-2.082
			c2.903-1.284,6.384-1.127,8.694,0.282c-1.064,0.77-2.036,1.473-3.218,2.328c1.33,0.103,2.46,0.191,3.59,0.279L185.59,395.344z"/>
		<path fill="#333333" d="M302.632,140.752c-1.203,1.94-3.671,3.231-3.122,6.072l0.118-0.102c-1.927-1.258-0.305-3.728-2.384-5.165
			c1.249-0.493,1.96-0.774,2.68-1.058c-0.054-1.028-0.108-2.059-0.182-3.48c2.05,0.507,3.716,0.918,6.176,1.526
			c-1.48,1.014-2.443,1.674-3.407,2.334c-0.2-0.143-0.401-0.287-0.601-0.43C302.15,140.549,302.391,140.65,302.632,140.752z"/>
		<path fill="#333333" d="M207.275,220.934c2.047,1.243,3.637,2.497,3.008,4.762c-0.242,0.871-1.266,1.845-2.136,2.112
			c-0.609,0.187-2.044-0.572-2.272-1.208C205.18,224.656,204.685,222.518,207.275,220.934z"/>
		<path fill="#333333" d="M337.295,109.146c0.93-1.731,1.88-0.3,2.792,0.008c1.378,0.465,2.158,1.365,1.786,3.303
			c-2.262,0.424-4.381,2.02-7.702,1.794c1.291-1.73,2.208-2.96,3.125-4.189l-0.136,0.126c0.248-0.193,0.496-0.386,0.745-0.579
			c-0.248-0.195-0.496-0.39-0.744-0.584L337.295,109.146z"/>
		<path fill="#333333" d="M352.463,28.892c2.506,0.645,3.727-2.766,6.314-1.679c-2.598,2.633-5.102,5.17-8.029,8.136
			C350.234,32.671,351.729,31.224,352.463,28.892z"/>
		<path fill="#333333" d="M202.716,191.306c-0.736-0.075-1.519-0.154-2.237-0.226c-1.474-4.275-1.391-4.488,2.109-5.6
			C204.767,187.309,204.414,189.227,202.716,191.306z"/>
		<path fill="#333333" d="M112.363,130.837c-0.904,0.291-1.808,0.582-3.022,0.973c-0.861-0.591-1.886-1.294-3.265-2.241
			c1.447-1.052,2.567-1.868,3.82-2.779c1.439,0.91,2.747,1.736,3.779,2.389c-0.505,0.636-0.979,1.233-1.453,1.829L112.363,130.837z"
			/>
		<path fill="#333333" d="M220.844,199.246c5.15-0.414,10.301-0.827,15.451-1.241c0.024,0.237,0.048,0.474,0.071,0.711
			c-2.55,0.366-5.09,0.877-7.653,1.058c-2.599,0.183-5.22,0.04-7.831,0.04C220.87,199.624,220.857,199.435,220.844,199.246z"/>
		<path fill="#333333" d="M113.98,189.155c0.582,0.379,1.012,0.598,1.365,0.906c0.356,0.311,0.635,0.71,1.221,1.386
			c-0.791,0.73-1.551,1.432-2.304,2.128c-0.809-0.171-1.491-0.189-2.046-0.464c-0.702-0.347-1.302-0.901-2.034-1.43
			C110.874,189.637,112.672,189.789,113.98,189.155z"/>
		<path fill="#333333" d="M362.943,92.309c1.403,0.252,2.806,0.503,4.438,0.796c0.239,0.851,0.491,1.751,0.794,2.83
			c1.072,0.782,2.262,1.649,3.609,2.632c-3.485-0.037-4.299-0.641-8.77-6.335L362.943,92.309z"/>
		<path fill="#333333" d="M365.87,50.366c0.97,0.61,1.94,1.22,3.369,2.118c1.093,0.107,2.79,0.274,5.034,0.494
			c-2.62,1.56-2.62,1.56-7.674,0.391c-0.431-0.67-0.946-1.471-1.461-2.272C365.382,50.853,365.626,50.61,365.87,50.366z"/>
		<path fill="#333333" d="M119.153,191.597c1.073-1.149,1.815-1.944,2.624-2.811c1.726,0.728,3.006,1.267,4.367,1.841
			C123.117,193.855,123.117,193.855,119.153,191.597z M122.844,190.83c-0.146,0.278-0.26,0.455-0.323,0.648
			c-0.015,0.045,0.144,0.147,0.223,0.222C122.772,191.448,122.801,191.196,122.844,190.83z"/>
		<path fill="#333333" d="M150.738,155.467c-1.55,0-2.928,0-4.571,0c0-1.146,0-2.2,0-3.361
			C148.084,152.654,150.191,152.614,150.738,155.467z"/>
		<path fill="#333333" d="M349.183,66.569c-0.113-1.732,0.961-2.493,2.532-3.053c0.787,0.679,1.589,1.372,2.392,2.064l-0.106-0.107
			c-1.43,2.433-1.632,2.473-4.949,0.965L349.183,66.569z"/>
		<path fill="#333333" d="M93.554,187.854c1.229-0.582,2.207-1.045,3.365-1.594c0.441,0.888,0.788,1.587,1.279,2.575
			c-0.718,0.481-1.452,0.973-2.459,1.648C95.041,189.643,94.38,188.848,93.554,187.854z"/>
		<path fill="#333333" d="M130.279,71.584c-0.659-0.415-1.318-0.831-2.394-1.51c1.163-0.72,1.988-1.23,3.071-1.901
			c0.845,1.16,1.536,2.11,2.234,3.068c-1.193,1.336-2.127,1.87-3.079,0.201c0.262-0.437,0.524-0.875,0.786-1.312
			c-0.206-0.064-0.412-0.128-0.618-0.192C130.279,70.487,130.279,71.035,130.279,71.584z"/>
		<path fill="#333333" d="M358.999,58.641c1.235,0.603,2.47,1.207,4.123,2.015c-3.64,1.066-3.64,1.066-5.573-0.41
			c0.516-0.569,1.044-1.152,1.572-1.734L358.999,58.641z"/>
		<path fill="#333333" d="M120.199,130.878c-2.256,2.435-3.16-0.293-5.009-1.25c1.054-0.591,1.785-1.001,2.875-1.613
			c0.249,0.834,0.476,1.595,0.789,2.642c0.278,0.066,0.884,0.211,1.49,0.356L120.199,130.878z"/>
		<path fill="#333333" d="M104.345,141.712c-1.488,0.72-2.925,1.602-4.483,2.103c-1.025,0.33-2.159,0.013-2.424-1.635
			c2.455-0.115,4.732-0.221,7.009-0.328L104.345,141.712z"/>
		<path fill="#333333" d="M365.99,100.13c-0.732-0.225-1.646-0.249-2.161-0.715c-1.201-1.085-2.21-2.383-3.861-4.223
			c2.983,1.313,4.905,2.619,5.899,5.063L365.99,100.13z"/>
		<path fill="#333333" d="M131.241,138.901c0.888-1.036,1.776-2.073,2.737-3.195c0.883,0.697,1.356,1.071,1.896,1.497
			c-1.241,2.026-3.198,1.169-4.753,1.561L131.241,138.901z"/>
		<path fill="#333333" d="M92.479,127.165c-0.128,1.181-0.257,2.363-0.401,3.692c-0.772-0.216-1.214-0.34-2.051-0.573
			c0.55-1.182,1.041-2.236,1.532-3.291C91.865,127.05,92.172,127.107,92.479,127.165z"/>
		<path fill="#333333" d="M122.199,65.59c2.404,0,4.809,0,7.213,0c-4.315,1.15-4.315,1.15-7.109-0.115L122.199,65.59z"/>
		<path fill="#333333" d="M131.121,138.763c-0.977,1.6-2.467,1.911-4.495,1.766c1.206-2.143,3.022-1.571,4.615-1.628
			L131.121,138.763z"/>
		<path fill="#333333" d="M141.645,186.317c0.807,0.547,1.208,0.82,1.974,1.339c-0.461,0.869-0.923,1.742-1.386,2.615
			c-0.196-0.03-0.392-0.06-0.588-0.091C141.645,189.044,141.645,187.907,141.645,186.317z"/>
		<path fill="#333333" d="M382.825,71.42c-0.648-0.059-1.303-0.077-1.94-0.197c-0.296-0.056-0.554-0.309-1.206-0.697
			c0.48-0.573,0.913-1.089,1.256-1.499c1.787,0.252,1.953,1.29,1.764,2.539L382.825,71.42z"/>
		<path fill="#333333" d="M70.626,164.597c0.955,0.464,1.79,0.87,2.743,1.333C70.591,167.469,70.591,167.469,70.626,164.597z"/>
		<path fill="#333333" d="M104.447,141.853c0.951-1.576,2.212-1,3.621-0.72c-1.173,2.066-2.464,1.159-3.723,0.579L104.447,141.853z"
			/>
		<path fill="#333333" d="M145.614,184.456c0.405,1.404,0.734,2.543,1.063,3.682c-0.205,0.097-0.41,0.194-0.615,0.291
			c-0.583-0.831-1.165-1.662-1.862-2.655C144.613,185.389,145.046,184.986,145.614,184.456z"/>
		<path fill="#333333" d="M123.838,70.562c-0.814-0.456-0.942-0.528-1.406-0.788c0.389-0.608,0.766-1.198,1.732-2.707
			C123.997,68.855,123.933,69.547,123.838,70.562z"/>
		<path fill="#333333" d="M197.609,129.838c-0.467,0.147-0.935,0.293-1.408,0.442c-0.949-1.271-1.145-2.206,1.374-2.054
			c-0.034,0.583-0.068,1.17-0.102,1.756L197.609,129.838z"/>
		<path fill="#333333" d="M105.537,191.54c0.356-0.602,0.712-1.203,1.068-1.805c0.194,0.109,0.388,0.217,0.582,0.326
			c-0.333,0.615-0.667,1.231-1,1.846C105.97,191.785,105.754,191.663,105.537,191.54z"/>
		<path fill="#333333" d="M120.836,140.417c-0.916,0-1.832,0-2.748,0c0-0.071,0-0.142,0-0.212c0.916,0,1.832,0,2.748,0
			C120.835,140.275,120.835,140.346,120.836,140.417z"/>
		<path fill="#333333" d="M213.485,100.098c-0.824-0.061-1.648-0.122-2.472-0.183c0.073-0.238,0.146-0.476,0.219-0.714
			c0.706,0.341,1.411,0.683,2.117,1.024L213.485,100.098z"/>
		<path fill="#333333" d="M122.703,56.842c0.556-0.033,1.113-0.065,1.669-0.098c0.009,0.159,0.017,0.317,0.026,0.476
			c-0.557,0.028-1.113,0.056-1.67,0.084C122.72,57.15,122.711,56.996,122.703,56.842z"/>
		<path fill="#333333" d="M125.178,127.863c0.299,0.405,0.599,0.81,0.898,1.215c-0.225,0.233-0.45,0.467-0.675,0.7
			c-0.365-0.34-0.729-0.68-1.093-1.02C124.598,128.46,124.888,128.162,125.178,127.863z"/>
		<path fill="#333333" d="M89.371,105.751c-0.408,0.363-0.816,0.727-1.224,1.091c-0.149-0.179-0.299-0.357-0.448-0.536
			c0.424-0.345,0.848-0.69,1.273-1.035C89.105,105.431,89.238,105.591,89.371,105.751z"/>
		<path fill="#333333" d="M101.15,189.016c0,0.578,0,1.157,0,1.735c-0.138-0.003-0.275-0.006-0.413-0.009
			c0.025-0.578,0.05-1.155,0.076-1.733C100.926,189.011,101.038,189.014,101.15,189.016z"/>
		<path fill="#333333" d="M116.634,70.014c0-0.58,0-1.16,0-1.74c0.133-0.006,0.266-0.012,0.4-0.019
			c0.042,0.579,0.084,1.158,0.126,1.737C116.984,69.999,116.809,70.006,116.634,70.014z"/>
		<path fill="#333333" d="M112.222,131.008c0.9-0.052,1.8-0.104,3.141-0.182c-1.533,1.92-2.279,1.054-3,0.01L112.222,131.008z"/>
		<path fill="#333333" d="M373.341,56.66c0.468,0.222,0.936,0.444,1.404,0.667c-0.133,0.228-0.266,0.457-0.399,0.685
			c-0.416-0.286-0.832-0.571-1.248-0.857C373.179,56.99,373.26,56.825,373.341,56.66z"/>
		<path fill="#333333" d="M110.665,184.085c-0.574,0.025-1.147,0.05-1.721,0.075c-0.019-0.145-0.039-0.291-0.058-0.436
			c0.525-0.091,1.05-0.183,1.575-0.274C110.529,183.661,110.597,183.873,110.665,184.085z"/>
		<path fill="#333333" d="M308.526,173.486c-0.245-0.487-0.489-0.973-0.734-1.46c0.182-0.055,0.364-0.111,0.546-0.166
			c0.026,0.573,0.052,1.147,0.078,1.72L308.526,173.486z"/>
		<path fill="#333333" d="M354.6,53.277c-0.376,0-0.752,0-1.128,0c0.002-0.107,0.005-0.214,0.007-0.322
			c0.376,0.017,0.751,0.034,1.127,0.051C354.604,53.096,354.602,53.187,354.6,53.277z"/>
		<path fill="#333333" d="M340.543,55.949c0.438-0.06,0.877-0.121,1.315-0.181c0.022,0.165,0.045,0.331,0.067,0.496
			c-0.439,0.056-0.878,0.113-1.317,0.169C340.586,56.272,340.565,56.111,340.543,55.949z"/>
		<path fill="#333333" d="M284.794,121.087c0.083-0.505,0.165-1.01,0.248-1.515c0.194,0.101,0.388,0.202,0.582,0.304
			c-0.322,0.364-0.644,0.728-0.967,1.092L284.794,121.087z"/>
		<path fill="#333333" d="M104.118,183.788c0.283,0.028,0.566,0.056,0.848,0.085c-0.248,0.05-0.496,0.107-0.746,0.14
			C104.197,184.016,104.153,183.867,104.118,183.788z"/>
		<path fill="#333333" d="M120.964,69.038C120.526,69.058,120.247,69.072,120.964,69.038
			C120.257,68.94,120.532,68.978,120.964,69.038z"/>
		<path fill="#333333" d="M337.843,60.009c0.288-0.018,0.577-0.033-0.011-0.001C338.391,60.151,338.117,60.081,337.843,60.009z"/>
		<path fill="#333333" d="M306.428,125.901c-0.32,0.651-0.639,1.301-0.959,1.952l0.133,0.132c0.32-0.65,0.64-1.3,0.96-1.951
			L306.428,125.901z"/>
		<path fill="#333333" d="M117.982,188.925c0.03,0.362,0.066,0.724,0.073,1.086c0,0.021-0.236,0.048-0.362,0.071
			c-0.045-0.371-0.091-0.742-0.136-1.114C117.698,188.954,117.84,188.94,117.982,188.925z"/>
		<path fill="#333333" d="M126.725,188.902c-0.327,0.081-0.654,0.163-0.98,0.244c-0.022-0.14-0.043-0.28-0.065-0.42
			c0.333-0.032,0.667-0.064,1-0.095C126.695,188.721,126.71,188.812,126.725,188.902z"/>
		<path fill="#333333" d="M134.588,188.923C134.588,189.476,134.588,189.199,134.588,188.923
			C134.679,189.172,134.771,189.421,134.588,188.923z"/>
		<path fill="#333333" d="M378.77,83.382c0.32,0.678,0.641,1.357,0.961,2.035l0.13-0.137c-0.319-0.673-0.637-1.346-0.956-2.019
			L378.77,83.382z"/>
		<path fill="#333333" d="M233.126,115.964c-0.059,0.494-0.117,0.988-0.038,0.321c-0.428,0.519-0.128,0.156,0.171-0.207
			L233.126,115.964z"/>
		<path fill="#333333" d="M113.483,127.16c0.479,0.061,0.96,0.118,1.436,0.198c0.023,0.004,0.027,0.303,0.016,0.305
			c-0.483,0.072-0.969,0.126-1.455,0.182C113.481,127.616,113.482,127.388,113.483,127.16z"/>
		<path fill="#333333" d="M129.664,190.926c-0.073-0.345-0.147-0.69-0.221-1.035c0.136-0.023,0.272-0.045,0.408-0.068
			c0.044,0.349,0.089,0.699,0.133,1.048C129.879,190.889,129.772,190.908,129.664,190.926z"/>
		<path fill="#333333" d="M130.738,126.447c0.061,0.308,0.137,0.615,0.167,0.927c0.005,0.049-0.204,0.118-0.314,0.177
			c-0.073-0.343-0.147-0.685-0.22-1.028C130.493,126.498,130.616,126.473,130.738,126.447z"/>
		<path fill="#333333" d="M114.986,140.45c-0.406-0.02-0.813-0.04-1.219-0.06c0.002-0.061,0.004-0.123,0.006-0.184
			c0.405,0,0.811,0,1.216,0C114.988,140.286,114.987,140.368,114.986,140.45z"/>
		<path fill="#333333" d="M382.699,71.566c0.565,0.051,1.13,0.102,1.695,0.153c-0.098,0.223-0.196,0.446-0.293,0.669
			c-0.425-0.323-0.85-0.646-1.275-0.968L382.699,71.566z"/>
		<path fill="#333333" d="M122.303,65.475c-0.579-0.085-1.159-0.17-1.738-0.254c0.078-0.166,0.156-0.332,0.234-0.498
			c0.467,0.289,0.934,0.578,1.401,0.867L122.303,65.475z"/>
		<path fill="#333333" d="M197.926,154.319c0-0.379,0-0.758,0-1.137c0.067,0,0.135,0,0.202,0c0,0.379,0,0.758,0,1.137
			C198.06,154.319,197.993,154.319,197.926,154.319z"/>
		<path fill="#333333" d="M185.677,395.449c0.428-0.341,0.856-0.682,1.285-1.023c0.108,0.219,0.217,0.439,0.325,0.658
			c-0.566,0.087-1.131,0.174-1.697,0.26L185.677,395.449z"/>
		<path fill="#333333" d="M195.94,182.848C196.348,182.823,196.607,182.806,195.94,182.848
			C196.595,182.945,196.341,182.907,195.94,182.848z"/>
		<path fill="#333333" d="M194.646,57.641c0.141-0.239,0.282-0.477,0.424-0.716c-0.185,0.196-0.369,0.392-0.554,0.589
			L194.646,57.641z"/>
		<polygon fill="#333333" points="126.71,58.3 126.547,58.011 126.922,58.048 		"/>
		<path fill="#333333" d="M305.469,127.853c-0.136,0.198-0.273,0.396-0.296,0.43c0.034-0.023,0.231-0.16,0.429-0.298
			L305.469,127.853z"/>
		<path fill="#333333" d="M102.515,129.98c0.101-0.193,0.202-0.386,0.211-0.405c-0.012,0.009-0.176,0.141-0.34,0.273L102.515,129.98
			z"/>
		<path fill="#333333" d="M16.289,130.995c0.128-0.178,0.257-0.356,0.332-0.46c-0.106,0.075-0.285,0.201-0.465,0.328L16.289,130.995
			z"/>
		<polygon fill="#333333" points="97.022,130.272 97.122,130.593 96.835,130.547 		"/>
		<path fill="#333333" d="M102.387,129.849c-0.109,0.243-0.218,0.485-0.114,0.255c-0.175,0.089,0.034-0.017,0.242-0.123
			L102.387,129.849z"/>
		<path fill="#333333" d="M120.343,131.012c0.11-0.214,0.221-0.428,0.256-0.496c-0.052,0.047-0.226,0.204-0.4,0.361L120.343,131.012
			z"/>
		<path fill="#333333" d="M193.639,58.674c0.336-0.344,0.672-0.688,1.007-1.033l-0.131-0.127c-0.332,0.348-0.664,0.696-0.996,1.044
			L193.639,58.674z"/>
		<path fill="#333333" d="M359.122,58.511c-0.19-0.103-0.38-0.205-0.45-0.243c0.049,0.055,0.188,0.214,0.327,0.373L359.122,58.511z"
			/>
		<path fill="#333333" d="M133.232,61.456c-0.156-0.048-0.313-0.095-0.469-0.143c0.102,0.099,0.203,0.197,0.305,0.296
			L133.232,61.456z"/>
		<path fill="#333333" d="M182.992,136.03c0.098,0.007,0.197,0.015,0.295,0.022c-0.065,0.198-0.13,0.396-0.195,0.594
			c-0.09-0.109-0.217-0.207-0.256-0.332C182.814,136.242,182.935,136.126,182.992,136.03z"/>
		<path fill="#333333" d="M133.068,61.609c0.261,0.167,0.523,0.335,0.249,0.159c0.073,0.271-0.006-0.02-0.084-0.312L133.068,61.609z
			"/>
		<path fill="#333333" d="M135.087,64.611c0.188,0.135,0.376,0.269,0.384,0.276c-0.007-0.011-0.129-0.211-0.251-0.41L135.087,64.611
			z"/>
		<path fill="#333333" d="M346.915,65.05c-0.119,0.086-0.23,0.226-0.326,0.217c-0.099-0.009-0.184-0.165-0.276-0.257
			c0.105-0.076,0.214-0.216,0.314-0.21C346.727,64.807,346.818,64.96,346.915,65.05z"/>
		<path fill="#333333" d="M354.107,65.58c0.118-0.164,0.236-0.328,0.245-0.341c-0.014,0.009-0.182,0.121-0.351,0.234L354.107,65.58z
			"/>
		<path fill="#333333" d="M349.052,66.438c-0.099,0.237-0.199,0.474-0.298,0.71c0.143-0.193,0.286-0.387,0.429-0.58L349.052,66.438z
			"/>
		<path fill="#333333" d="M375.926,67.589c0.125-0.201,0.251-0.402,0.262-0.42c-0.017,0.012-0.209,0.148-0.401,0.284L375.926,67.589
			z"/>
		<polygon fill="#333333" points="296.071,143.526 295.973,143.266 296.223,143.297 		"/>
		<path fill="#333333" d="M365.034,68.458c-0.209-0.147-0.417-0.293-0.627-0.442c0.204-0.172,0.41-0.342,0.615-0.511l-0.124-0.111
			c0,0.397,0.001,0.793,0.001,1.19L365.034,68.458z"/>
		<path fill="#333333" d="M362.937,73.371c-0.119,0.233-0.237,0.466-0.356,0.7c0.162-0.189,0.325-0.378,0.487-0.567L362.937,73.371z
			"/>
		<path fill="#333333" d="M301.504,172.544c0.15,0.13,0.301,0.26,0.345,0.299c-0.031-0.056-0.129-0.234-0.228-0.413L301.504,172.544
			z"/>
		<path fill="#333333" d="M359.11,76.355c-0.194-0.131-0.388-0.261-0.433-0.292c0.032,0.045,0.166,0.237,0.301,0.429L359.11,76.355z
			"/>
		<polygon fill="#333333" points="333.836,76.707 333.938,76.962 333.675,76.924 		"/>
		<path fill="#333333" d="M357.069,78.47c0.16-0.235,0.32-0.471,0.48-0.706c0.146,0.237,0.292,0.474,0.437,0.711l0.127-0.139
			c-0.39-0.003-0.781-0.005-1.171-0.008L357.069,78.47z"/>
		<polygon fill="#333333" points="106.708,182.988 106.993,182.901 106.959,183.141 		"/>
		<path fill="#333333" d="M372.81,81.452c0.267,0.032,0.534,0.064,0.801,0.095c-0.093,0.177-0.186,0.354-0.279,0.53
			c-0.14-0.246-0.28-0.492-0.42-0.739L372.81,81.452z"/>
		<path fill="#333333" d="M388.811,83.422c0.106-0.225,0.212-0.45,0.133-0.282c0.158-0.104-0.045,0.029-0.248,0.162L388.811,83.422z
			"/>
		<path fill="#333333" d="M388.696,83.303c-0.086,0.27-0.172,0.54-0.258,0.811c-0.123-0.155-0.247-0.311-0.37-0.466
			c0.248-0.075,0.495-0.15,0.743-0.226L388.696,83.303z"/>
		<path fill="#333333" d="M131.227,85.436c0.098-0.249,0.196-0.497,0.294-0.746c-0.15,0.197-0.301,0.393-0.451,0.59L131.227,85.436z
			"/>
		<path fill="#333333" d="M379.731,85.417c0.268,0.093,0.537,0.187,0.246,0.086c0.145,0.28,0.015,0.029-0.115-0.223L379.731,85.417z
			"/>
		<polygon fill="#333333" points="388.336,85.547 388.459,85.906 388.142,85.872 		"/>
		<polygon fill="#333333" points="315.177,89.807 314.827,89.941 314.861,89.609 		"/>
		<path fill="#333333" d="M139.59,188.575c0.126,0.132,0.213,0.223,0.299,0.314c-0.1,0.077-0.2,0.154-0.299,0.23
			C139.59,188.952,139.59,188.784,139.59,188.575z"/>
		<path fill="#333333" d="M213.348,100.224c0.332,0.334,0.664,0.668,0.996,1.002l0.078-0.081c-0.313-0.349-0.625-0.698-0.938-1.048
			L213.348,100.224z"/>
		<path fill="#333333" d="M365.868,100.255c0.231,0.111,0.462,0.223,0.227,0.109c0.091,0.203-0.007-0.016-0.105-0.234
			L365.868,100.255z"/>
		<polygon fill="#333333" points="117.813,193.601 117.968,193.874 117.611,193.836 		"/>
		<path fill="#333333" d="M337.295,110.06c-0.238-0.15-0.475-0.3-0.713-0.451c0.238-0.155,0.475-0.309,0.712-0.464l-0.135-0.122
			c0,0.388,0,0.776,0,1.164L337.295,110.06z"/>
		<polygon fill="#333333" points="23.643,202.884 23.52,202.546 23.849,202.593 		"/>
		<path fill="#333333" d="M306.562,126.034c0.345-0.338,0.69-0.676,1.035-1.014l-0.135-0.133c-0.345,0.338-0.69,0.675-1.035,1.013
			L306.562,126.034z"/>
		<path fill="#333333" d="M177.702,353.771c-0.16,0.247-0.32,0.495-0.479,0.742c0.197-0.207,0.394-0.414,0.591-0.621
			L177.702,353.771z"/>
		<path fill="#333333" d="M306.422,122.86c-0.083,0.229-0.165,0.459-0.198,0.551c0.055-0.065,0.204-0.24,0.352-0.415L306.422,122.86
			z"/>
		<path fill="#333333" d="M199.478,124.881c-0.124,0.17-0.248,0.339-0.313,0.429c0.092-0.064,0.265-0.184,0.439-0.304
			L199.478,124.881z"/>
		<path fill="#333333" d="M135.219,64.477c-0.169-0.129-0.339-0.258-0.423-0.323c0.058,0.092,0.174,0.274,0.29,0.457L135.219,64.477
			z"/>
		<path fill="#333333" d="M136.065,125.893c-0.107,0.248-0.214,0.495-0.321,0.743c0.141-0.215,0.281-0.429,0.422-0.644
			L136.065,125.893z"/>
		<polygon fill="#333333" points="319.842,42.429 319.756,42.166 320.001,42.204 		"/>
		<path fill="#333333" d="M269.905,407.214c-0.05,0.053-0.101,0.106-0.151,0.158L269.905,407.214z"/>
		<path fill="#333333" d="M269.754,407.372c0.286,0.091,0.572,0.182,0.858,0.274c-0.236-0.144-0.471-0.288-0.707-0.432
			L269.754,407.372z"/>
		<path fill="#333333" d="M241.187,412.163c-0.172-0.111-0.343-0.222-0.471-0.305c0.084,0.127,0.197,0.297,0.31,0.468
			L241.187,412.163z"/>
		<path fill="#333333" d="M241.026,412.326c0.34,0.322,0.68,0.643,1.019,0.965l0.154-0.154c-0.338-0.325-0.675-0.649-1.013-0.974
			L241.026,412.326z"/>
		<path fill="#333333" d="M243.194,414.133c-0.332-0.332-0.663-0.664-0.995-0.996l-0.154,0.154c0.334,0.329,0.669,0.657,1.003,0.986
			L243.194,414.133z"/>
		<path fill="#333333" d="M244.165,415.147c-0.324-0.338-0.648-0.676-0.971-1.015l-0.146,0.145c0.326,0.336,0.653,0.671,0.979,1.007
			L244.165,415.147z"/>
		<path fill="#333333" d="M244.027,415.284c0.257,0.121,0.514,0.242,0.245,0.115c0.115,0.272,0.004,0.01-0.107-0.252
			L244.027,415.284z"/>
		<path fill="#333333" d="M225.36,417.093c-0.177-0.1-0.354-0.199-0.498-0.28c0.096,0.127,0.216,0.285,0.335,0.442L225.36,417.093z"
			/>
		<path fill="#333333" d="M226.336,418.113c-0.326-0.34-0.651-0.68-0.977-1.02l-0.163,0.162c0.333,0.334,0.666,0.667,0.999,1.001
			L226.336,418.113z"/>
		<path fill="#333333" d="M227.289,419.149c-0.318-0.345-0.635-0.69-0.953-1.036l-0.14,0.142c0.325,0.339,0.649,0.679,0.974,1.018
			L227.289,419.149z"/>
		<path fill="#333333" d="M227.17,419.274c0.333,0.326,0.666,0.651,0.999,0.977l0.129-0.132c-0.336-0.323-0.673-0.646-1.009-0.97
			L227.17,419.274z"/>
		<path fill="#333333" d="M228.169,420.251c0.262,0.106,0.525,0.213,0.238,0.097c0.134,0.282,0.013,0.026-0.109-0.229
			L228.169,420.251z"/>
		<path fill="#333333" d="M122.291,115.145c2.812-0.685,4.621-1.125,6.6-1.607c0.601,0.542,1.326,1.196,2.124,1.915
			c-0.455,0.385-0.961,1.018-1.143,0.935C127.778,115.437,125.397,116.621,122.291,115.145z"/>
	</g>
</g>
</svg>
