<?xml version="1.0" encoding="utf-8"?>
<!-- Generator: Adobe Illustrator 17.1.0, SVG Export Plug-In . SVG Version: 6.00 Build 0)  -->
<!DOCTYPE svg PUBLIC "-//W3C//DTD SVG 1.1//EN" "http://www.w3.org/Graphics/SVG/1.1/DTD/svg11.dtd">
<svg version="1.1" id="Calque_1" xmlns="http://www.w3.org/2000/svg" xmlns:xlink="http://www.w3.org/1999/xlink" x="0px" y="0px"
	 viewBox="0 0 314.869 421.47" enable-background="new 0 0 314.869 421.47" xml:space="preserve">
<g>
	<g>
		<path fill="#333333" d="M135.696,199.828c2.343,0.838,4.639,1.866,7.042,2.465c3.104,0.774,6.061,0.264,8.77-1.673
			c1.77-1.266,3.738-2.257,5.636-3.339c1.37-0.781,2.789-0.848,4.152,0.004c2.032,1.268,4.035,2.582,6.051,3.877
			c0.267,0.171,0.513,0.44,0.803,0.499c3.504,0.719,7.028,1.346,10.519,2.123c3.017,0.671,5.994,1.524,8.999,2.253
			c0.932,0.226,1.895,0.338,2.851,0.449c0.939,0.109,1.886,0.15,3.425,0.266c-0.94,1.934-1.655,3.491-2.443,5.012
			c-2.418,4.672-4.229,9.551-5.864,14.568c-2.786,8.551-2.417,17.624-4.934,26.197c-0.951,3.239-1.307,6.655-1.887,9.998
			c-0.3,1.732-0.357,3.516-0.777,5.214c-0.547,2.212-1.345,4.362-1.954,6.284c0.059-0.043,0.538-0.392,1.011-0.738
			c0.2,0.222,0.408,0.359,0.389,0.444c-0.914,4-1.829,8.001-2.805,11.986c-0.128,0.521-0.535,1.003-0.899,1.43
			c-1.062,1.248-1.968,1.207-2.912-0.179c-0.403-0.591-0.597-1.319-0.926-1.965c-0.49-0.96-0.902-1.988-1.55-2.832
			c-1.258-1.637-1.173-2.378,0.592-3.321c0.416-0.222,0.947-0.449,1.143-0.822c0.738-1.41,1.36-2.881,2.025-4.329l0.012,0.012
			c-1.582,1.352-3.151,2.718-4.751,4.049c-0.835,0.695-1.582,0.899-1.803-0.799c2.471-0.017,2.995-1.704,3.356-3.733
			c0.202-1.137,0.962-2.17,1.438-3.263c0.442-1.015,0.842-2.048,1.261-3.073l0.015,0.016c-1.788,2.277-3.521,4.601-5.382,6.817
			c-1.591,1.895-2.522,1.798-3.862-0.316c-0.729-1.15-1.324-2.389-1.928-3.613c-0.668-1.355,0.118-2.141,1.209-2.716
			c5.244-2.763,8.605-7.133,10.862-12.504c0.651-1.548,0.985-3.056,0.544-4.693l0.097-0.163l-0.08,0.177
			c-0.981,1.838-2.135,3.606-2.908,5.527c-1.647,4.094-3.864,7.658-7.882,9.806c-0.553,0.296-1.162,0.488-1.686,0.703
			c-1.308-1.01-1.477-2.017-0.985-3.483c0.793-2.362,1.276-4.832,1.834-7.269c0.702-3.063,1.392-6.13,1.995-9.213
			c0.246-1.258,0.567-2.636,0.295-3.833c-0.593-2.604,0.366-4.928,0.735-7.382c0.55-3.657,0.776-7.363,1.122-11.05
			c0.02-0.213-0.12-0.442-0.324-1.127c-0.298,1.052-0.479,1.692-0.624,2.204c-1.8-0.491-1.407,1.089-1.735,1.859
			c-0.414,0.972-0.7,1.999-1.041,3.002c-0.218-0.004-0.435-0.008-0.653-0.012c-0.361-0.656-0.722-1.313-1.129-2.053
			c-2.736,1.793-6.174,2.965-5.964,7.417c-1.523-2.155-0.025-4.225-0.506-6.31c-1.21,1.139-2.347,2.21-3.484,3.281
			c-0.153-0.096-0.306-0.191-0.458-0.287c0.837-2.078,1.874-4.102,2.455-6.249c0.58-2.144,0.704-4.412,1.058-6.83
			c-0.566,0.452-1.102,0.961-1.713,1.352c-1.268,0.811-2.225,0.389-1.954-1.04c0.478-2.521-0.857-4.16-2.331-5.723
			c-0.655-0.695-1.736-0.988-2.925-1.624c0.339-1.09,0.711-2.289,1.083-3.489l0.019,0.019c-0.978,0.317-1.956,0.634-2.934,0.951
			l0.019,0.019c-0.582-0.401-1.118-1.039-1.753-1.163c-2.897-0.564-3.946-2.657-4.566-5.173l-0.017,0.017
			c-0.156-0.977-0.313-1.955-0.469-2.932L135.696,199.828z M172.159,278.564c0.163-0.159,0.326-0.319,0.489-0.478
			c0.16-0.168,0.32-0.336,0.479-0.504c0.162-0.162,0.324-0.325,0.486-0.487c0.043,0.635,0.086,1.271,0.129,1.906
			c0.182,0.027,0.364,0.054,0.545,0.081c0.189-0.671,0.378-1.341,0.568-2.012c-0.409,0.013-0.819,0.025-1.229,0.038
			c-0.162,0.162-0.324,0.324-0.487,0.486c-0.168,0.16-0.336,0.32-0.504,0.479c-0.159,0.163-0.319,0.326-0.478,0.489
			c-0.161,0.165-0.321,0.33-0.482,0.494c-2.565,1.316-2.579,2.168,0.205,4.357c-0.08-1.606-0.149-2.987-0.217-4.368
			C171.829,278.885,171.994,278.724,172.159,278.564z M177.015,213.904l0.015,0.015c-0.164,0.164-0.328,0.329-0.492,0.493
			c-0.197,0.176-0.394,0.351-0.591,0.527c0.083,0.061,0.166,0.122,0.249,0.182c0.109-0.242,0.218-0.484,0.327-0.726
			C176.686,214.233,176.85,214.068,177.015,213.904z M173.127,272.24c0.322-0.49,0.643-0.98,0.965-1.47
			c0.221-0.287,0.442-0.575,0.663-0.862c-0.08-0.042-0.16-0.083-0.239-0.125c-0.134,0.335-0.268,0.671-0.402,1.006
			c-0.326,0.486-0.652,0.972-0.978,1.458L173.127,272.24z M176.527,222.658c0.251-0.268,0.502-0.536,0.754-0.804
			c-0.09-0.061-0.18-0.123-0.27-0.184c-0.157,0.334-0.314,0.668-0.471,1.002L176.527,222.658z M171.662,236.259
			c0.295-0.347,0.59-0.693,0.884-1.04c-0.087-0.06-0.173-0.121-0.26-0.181c-0.201,0.414-0.402,0.827-0.602,1.241
			c-0.158,0.175-0.315,0.349-0.473,0.524c0.052,0.035,0.104,0.071,0.155,0.106C171.465,236.693,171.563,236.476,171.662,236.259z
			 M174.578,249.383c0.205-0.368,0.411-0.737,0.616-1.105c-0.121-0.044-0.242-0.087-0.363-0.131
			c-0.078,0.417-0.156,0.835-0.234,1.252l-0.081,0.132L174.578,249.383z M182.594,232.354c-1.142-2.219-1.318-2.451-2.841-1.296
			c-2.2,1.667-4.15,3.676-6.137,5.61c-0.988,0.962-1.822,2.081-2.726,3.129c0.206,0.198,0.412,0.395,0.618,0.593
			c1.583-1.569,3.006-3.361,4.794-4.645C178.222,234.365,180.486,233.462,182.594,232.354z M170.4,242.921
			c-0.045-0.295-0.09-0.591-0.134-0.886c-1.009-0.267-2.008-0.676-3.031-0.752c-0.698-0.052-1.82,0.153-2.064,0.611
			c-0.494,0.926-0.259,2.001,0.876,2.643c0.491-0.459,0.899-0.841,1.467-1.373c0.285,2.737-2.098,2.392-3.328,3.298
			c0.562,1.472,1.499,1.658,2.428,0.748C167.972,245.879,169.146,244.36,170.4,242.921z M163.271,256.835
			c-0.249-0.027-0.498-0.055-0.747-0.082c-0.338,1.127-0.675,2.254-1.045,3.489c5.579-0.161,6.177-0.647,4.765-3.845
			c-0.62,0.881-1.184,1.681-1.881,2.671C163.927,258.175,163.599,257.505,163.271,256.835z M168.246,228.761
			c1.274-0.826,2.668-0.949,2.215-2.744C168.819,226.01,168.318,226.879,168.246,228.761z M176.337,210.674
			c-0.059,0.311-0.117,0.621-0.176,0.932c0.752,0.106,1.504,0.213,2.256,0.319c0.047-0.263,0.093-0.526,0.14-0.789
			C177.817,210.982,177.077,210.828,176.337,210.674z M168.923,239.178c-0.026-0.216-0.052-0.431-0.078-0.647
			c-0.644,0.069-1.288,0.138-1.933,0.207c0.037,0.236,0.074,0.471,0.111,0.707C167.657,239.356,168.29,239.267,168.923,239.178z
			 M177.775,217.728c0.006,0.22,0.013,0.44,0.019,0.659c0.461-0.069,0.922-0.138,1.383-0.207c-0.014-0.151-0.028-0.301-0.043-0.452
			C178.682,217.728,178.228,217.728,177.775,217.728z M180.708,208.985c0.105-0.163,0.21-0.327,0.316-0.49
			c-0.467-0.291-0.935-0.582-1.402-0.873c-0.081,0.12-0.162,0.24-0.243,0.36C179.822,208.316,180.265,208.65,180.708,208.985z
			 M168.006,232.52c0.003,0.107,0.005,0.215,0.008,0.322c0.24,0.018,0.497,0.098,0.715,0.039c0.251-0.069,0.469-0.261,0.701-0.399
			c-0.049-0.113-0.099-0.226-0.148-0.339C168.856,232.269,168.431,232.394,168.006,232.52z M189.49,210.325
			c-0.311-0.089-0.499-0.185-0.681-0.175c-0.081,0.005-0.241,0.278-0.208,0.333c0.095,0.155,0.293,0.379,0.41,0.357
			C189.163,210.812,189.275,210.573,189.49,210.325z M170.952,206.433c0.02-0.073,0.064-0.151,0.05-0.216
			c-0.007-0.034-0.116-0.047-0.18-0.069c-0.025,0.119-0.051,0.238-0.076,0.357C170.815,206.481,170.884,206.457,170.952,206.433z
			 M176.641,261.56c-0.024,0.067-0.049,0.133-0.073,0.2c0.079-0.002,0.168,0.016,0.234-0.016c0.027-0.013,0.003-0.132,0.002-0.202
			C176.749,261.548,176.695,261.554,176.641,261.56z"/>
		<path fill="#333333" d="M172.167,363.635c-0.383,0.282-0.766,0.564-1.15,0.846c0.162-0.166,0.324-0.333,0.485-0.499
			c-1.498-1.075-2.996-2.15-4.732-3.397c2.708-2.887,5.085-5.596,5.504-9.299c-0.18-0.156-0.36-0.312-0.54-0.468
			c-0.896,0.825-1.877,1.578-2.665,2.496c-0.729,0.85-1.23,1.891-1.867,2.823c-0.983,1.44-2.19,2.168-4.099,1.866
			c-2.011-0.317-3.949,0.054-5.643,1.494c-2.148,1.826-4.499,3.412-6.672,5.211c-0.704,0.583-1.121,1.511-1.907,2.615
			c-0.339-0.434-0.664-0.82-0.954-1.231c-0.274-0.388-0.51-0.803-0.763-1.206c-0.386,0.416-1.085,0.816-1.107,1.251
			c-0.164,3.214-3.094,3.679-4.717,5.423c-0.134-0.087-0.268-0.175-0.401-0.262c0.035-0.291,0.07-0.583,0.104-0.874l0.013,0.013
			c-3.297-0.776-5.773-2.843-7.996-5.233c-0.427-0.459-0.794-1.521-0.555-1.956c0.883-1.603,0.316-2.945-0.326-4.359
			c-0.12-0.265-0.083-0.6-0.19-1.517c0.978,0.653,1.681,0.953,2.127,1.472c0.391,0.455,0.495,1.157,1.118,1.592
			c0.131-1.254,0.393-2.516,0.331-3.76c-0.026-0.526-0.643-1.268-1.159-1.46c-0.607-0.226-1.397,0.038-2.269,0.102
			c-0.296-1.382-0.713-2.737-0.843-4.119c-0.102-1.083,1.5-1.5,2.667-0.701c0.46,0.315,0.802,0.799,1.238,1.156
			c0.351,0.289,0.763,0.504,1.335,0.872c0.659-2.618-2.191-3.298-2.67-5.81c1.197,0.639,1.962,1.047,2.923,1.56
			c-0.176-0.538-0.296-0.967-0.455-1.381c-1.15-2.999-0.507-4.285,2.393-5.799c2.778-1.45,5.405-3.19,8.12-4.764
			c0.458-0.266,1.046-0.525,1.54-0.473c1.704,0.179,2.938-0.617,4.141-1.653c2.009-1.73,3.876-3.678,6.604-4.351
			c0.402-0.099,0.855-0.558,1.022-0.96c1.233-2.971,3.851-4.687,6.028-6.807c1.328-1.293,2.494-2.775,3.933-3.922
			c1.067-0.85,2.455-1.297,3.553-1.85c2.769,1.684,1.952,4.281,1.827,6.552c-0.163,2.958-0.679,5.899-1.094,8.84
			c-0.076,0.537-0.395,1.04-0.254,1.766c0.385-0.748,0.988-1.46,1.116-2.25c0.58-3.581,1.252-7.17,1.466-10.781
			c0.281-4.744,0.718-9.308,3.617-13.37c1.624-2.275,2.757-4.9,4.141-7.35c0.18-0.319,0.541-0.537,1.133-1.102
			c0,3.123-0.082,5.854,0.023,8.578c0.108,2.803-0.984,5.214-1.676,7.762c-0.314-0.008-0.628-0.016-0.942-0.024
			c-0.227-1.362-0.574-2.718-0.646-4.088c-0.068-1.302,0.152-2.619,0.245-3.929c-0.25-0.056-0.501-0.111-0.751-0.167
			c-0.259,0.745-0.743,1.493-0.731,2.233c0.031,1.851,0.022,3.772,0.512,5.53c0.946,3.397,1.425,6.796,1.229,10.312
			c-0.079,1.42,0.248,2.731,1.776,3.656c0.568-0.974,1.11-1.904,1.844-3.165c0.222,0.676,0.467,1.035,0.424,1.354
			c-0.392,2.885-0.82,5.766-1.277,8.642c-0.074,0.467-0.294,0.932-0.533,1.348c-1.091,1.894-2.784,1.934-3.974,0.067
			c-0.632-0.991-1.146-2.057-1.977-3.026c-1.039,2.465-2.386,4.737-0.167,7.347c0.869,1.022,1.039,2.651,1.487,4.017
			c0.442,1.345,0.834,2.706,1.254,4.081c-3.435,0.059-3.918,0.904-2.751,4.196c0.317,0.895,0.175,1.962,0.193,2.952
			c0.026,1.407,0.007,2.814,0.007,4.221c-0.225,0.046-0.45,0.091-0.676,0.137c-0.32-0.91-0.567-1.855-0.986-2.716
			c-0.288-0.592-0.817-1.066-1.239-1.593c-0.385,0.632-0.977,1.226-1.104,1.906c-0.174,0.932,0.047,1.932,0.023,2.901
			c-0.046,1.851-1.173,2.737-3.061,2.463L172.167,363.635z M172.757,341.841c-0.172,0.315-0.371,0.516-0.352,0.692
			c0.018,0.167,0.266,0.309,0.413,0.462c0.129-0.177,0.352-0.35,0.359-0.531C173.183,342.297,172.958,342.121,172.757,341.841z
			 M140.808,361.582c0.117-0.099,0.234-0.197,0.351-0.296c-0.201-0.235-0.401-0.47-0.602-0.705
			c-0.091,0.069-0.183,0.138-0.274,0.208C140.458,361.054,140.633,361.318,140.808,361.582z M138.852,354.404
			c-0.103-0.087-0.206-0.174-0.309-0.261c-0.044,0.126-0.103,0.249-0.121,0.378c-0.006,0.041,0.135,0.148,0.148,0.139
			C138.672,354.587,138.76,354.493,138.852,354.404z M141.216,354.918c-0.018,0.067-0.036,0.134-0.054,0.201
			c0.102,0.027,0.203,0.053,0.305,0.08c-0.018-0.07-0.018-0.157-0.061-0.207C141.367,354.947,141.281,354.941,141.216,354.918z
			 M171.827,345.665l0.169,0.05l-0.045-0.202L171.827,345.665z"/>
		<path fill="#333333" d="M105.09,402.023c0.103,3.319,1.347,6.255,2.962,9.161c-2.029-0.973-3.193-2.695-3.849-4.722
			c-0.638-1.972-1.02-4.025-1.9-6.085c-0.138,0.462-0.389,0.923-0.395,1.387c-0.047,3.802-0.137,7.608-0.009,11.405
			c0.038,1.126,0.733,2.23,1.126,3.344c0.069,0.054,0.138,0.108,0.207,0.163c-0.699,2.157-2.036,2.379-4.537,0.571
			c0.687-0.224,1.237-0.403,2.057-0.67c-0.179-1.459-0.362-2.952-0.544-4.444c-0.136-0.04-0.271-0.08-0.407-0.121
			c-0.773,1.236-1.545,2.473-2.299,3.678c-3.015-0.724-3.371-1.078-2.995-3.908c0.359-2.701,0.952-5.372,1.444-8.055
			c0.219-1.193,0.449-2.385,0.661-3.579c0.479-2.7,0.823-5.432,1.451-8.096c1.499-6.355,3.45-12.62,4.619-19.03
			c1.126-6.175,1.465-12.491,2.217-18.737c0.647-5.381,1.437-10.744,2.071-16.126c0.48-4.084,0.818-8.185,1.208-12.279
			c0.084-0.886-0.011-1.81,0.201-2.66c2.276-9.157,1.815-18.632,3.276-27.889c0.995-6.304,1.657-12.664,2.344-19.013
			c0.46-4.256,0.655-8.54,1.053-12.804c0.774-8.296,1.529-16.594,2.439-24.875c0.847-7.708,1.99-15.384,2.778-23.097
			c0.268-2.623,0.967-5.386-0.485-7.971c-0.163-0.29-0.011-0.784,0.056-1.173c0.38-2.21,1.032-4.406,1.121-6.626
			c0.215-5.326,0.065-10.667,0.273-15.994c0.102-2.626,0.732-5.228,1.005-7.853c0.207-1.985,0.227-3.99,0.33-5.987
			c0.165-0.006,0.329-0.012,0.494-0.018c0.116,2.428,0.361,4.858,0.326,7.284c-0.198,13.67-0.248,27.347-0.781,41.005
			c-0.349,8.955-0.233,17.965-1.983,26.844c-0.461,2.337,0.029,4.845-0.159,7.255c-0.318,4.095-0.927,8.168-1.232,12.264
			c-0.383,5.155-0.528,10.328-0.878,15.486c-0.399,5.888-0.362,11.881-1.542,17.617c-0.996,4.845-0.929,9.557-0.97,14.391
			c-0.078,9.135-0.552,18.267-0.871,27.4c-0.017,0.482,0.008,1.031-0.208,1.429c-1.546,2.864-1.414,6.055-1.867,9.133
			c-0.274,1.859-0.473,3.697,0.455,5.459c0.185,0.352,0.259,0.766,0.357,1.158c0.747,2.994-0.861,12.057-2.587,14.608
			c-2.213,3.271-2.103,4.009,0.913,6.389c0.292,0.231,0.515,0.55,1,1.08c-1.252,0.517-2.285,0.916-3.296,1.366
			c-1.753,0.782-2.177,2.354-1.031,3.92c0.702,0.96,1.489,1.858,2.238,2.784c-0.102,0.176-0.204,0.352-0.305,0.529
			c-0.946-0.384-1.891-0.768-3.062-1.243c-2.196,5.214-3.801,10.419-0.87,16.422c-0.974-0.272-1.309-0.366-1.644-0.46l-0.057-0.167
			L105.09,402.023z M111.896,342.739c-0.047,0.123-0.094,0.246-0.142,0.369c0.042-0.127,0.084-0.255,0.126-0.382
			c0.055-0.131,0.109-0.262,0.117-0.281C111.991,342.466,111.944,342.602,111.896,342.739z M110.422,368.965
			c0.343-0.673,0.687-1.346,1.03-2.019c-0.155-0.049-0.31-0.099-0.465-0.148c-0.184,0.726-0.369,1.453-0.553,2.179L110.422,368.965z
			 M111.386,359.752c0-1.215,0-2.431,0-3.647c-0.221,0.027-0.442,0.053-0.662,0.08c0.226,1.185,0.453,2.369,0.679,3.553
			c-0.162,1.133-0.323,2.266-0.485,3.4c-0.024,0.135-0.048,0.27-0.073,0.405c0.019-0.139,0.038-0.278,0.058-0.417
			c1.838-1.372,1.915-3.196,1.405-5.648C111.888,358.514,111.637,359.133,111.386,359.752z M108.77,351.723
			c2.37-1.157,2.752-3.358,1.118-5.094C109.53,348.263,109.192,349.801,108.77,351.723z M111.685,349.433
			c-0.082-0.014-0.164-0.028-0.246-0.042c-0.052,0.847-0.104,1.695-0.156,2.542c0.134,0.002,0.268,0.003,0.402,0.005
			C111.685,351.103,111.685,350.268,111.685,349.433z M110.357,344.19l0.135,0.024l-0.042-0.125L110.357,344.19z M109.34,377.866
			c-0.04-0.046-0.079-0.091-0.119-0.137c-0.042,0.039-0.121,0.08-0.118,0.116c0.003,0.047,0.064,0.114,0.112,0.125
			C109.246,377.977,109.297,377.904,109.34,377.866z"/>
		<path fill="#333333" d="M221.25,338.348c0.256,0.934,0.636,1.855,0.732,2.805c0.085,0.84-0.146,1.712-0.237,2.57
			c-0.211,0.03-0.421,0.06-0.632,0.091c-0.767-0.867-1.533-1.733-2.598-2.938c-0.614,2.205-1.135,4.08-1.708,6.136
			c0.86,0.137,1.538,0.245,2.213,0.353c1.008,2.911,0.969,3.067-1.214,4.98c-1.465,1.283-3.128,1.114-4.406-0.423
			c-0.447-0.538-0.854-1.203-1.437-1.519c-2.141-1.163-3.248-2.831-3.053-5.312c0.029-0.365-0.145-0.746-0.327-1.598
			c-1.672,1.67-2.368,3.365-2.746,5.248c-0.293,1.457,0.184,3.609-1.516,4.002c-1.115,0.258-2.589-1.032-4.095-1.716
			c-1.177,1.168,0.942,2.385,0.485,3.86c-0.574,0.269-1.21,0.566-1.466,0.686c-0.306,1.186-0.288,2.649-0.84,2.912
			c-0.96,0.457-2.288,0.296-3.433,0.159c-0.826-0.099-1.619-0.551-2.402-0.901c-0.344-0.154-0.767-0.379-0.915-0.687
			c-1.439-2.995-2.969-6.013-1.876-9.482c0.933-2.962,0.837-5.886,0.097-8.855c-0.501-2.01-0.188-3.912,0.425-5.932
			c0.958-3.152,1.422-6.453,2.098-9.691c0.33-1.581,0.742-3.15,0.986-4.744c0.438-2.86,0.813-5.731,1.147-8.605
			c0.325-2.793,0.542-5.598,0.854-8.392c0.191-1.713,0.473-3.416,1.104-5.124c2.342,3.71,2.257,7.88,2.553,11.962
			c0.169-0.005,0.339-0.01,0.508-0.015c0.161-1.299,0.322-2.597,0.541-4.363c0.573,0.72,1.055,1.063,1.16,1.497
			c1.411,5.806,4.268,10.934,7.046,16.163c1.571,2.956,1.957,6.541,2.955,10.12c4.505,0.113,3.499,4.735,4.828,7.776
			c1.829-0.996,3.233-2.824,5.171-1.022L221.25,338.348z M214.827,340.602c-1.606,0.941-1.834,2.041-1.634,3.281
			c0.206,1.274,0.881,2.148,2.512,2.426C215.415,344.424,215.155,342.731,214.827,340.602z M195.129,336.754
			c2.316-1.277,3.392-3.318,3.298-6.111C197.279,332.772,196.305,334.575,195.129,336.754z M205.202,323.619
			c-0.334-0.303-0.54-0.49-0.745-0.676c-0.174,0.213-0.488,0.428-0.485,0.638c0.003,0.221,0.31,0.438,0.484,0.657
			C204.664,324.065,204.872,323.893,205.202,323.619z M204.95,343.261c-0.079-0.1-0.158-0.199-0.236-0.299
			c-0.063,0.112-0.141,0.22-0.18,0.34c-0.013,0.04,0.104,0.167,0.111,0.163C204.751,343.406,204.85,343.332,204.95,343.261z"/>
		<path fill="#333333" d="M260.776,394.06c0.251,0.397,0.502,0.794,0.878,1.387c1.734-2.248,2.048-4.866,2.221-7.366
			c0.335-4.846,0.23-9.686-1.118-14.452c-0.789-2.791-1.046-5.73-1.741-8.553c-0.378-1.537-0.837-3.272-1.843-4.393
			c-2.162-2.409-2.956-5.325-3.889-8.237l-0.017,0.015c1.931,0.714,2.49,0.412,2.225-1.411c-0.183-1.26-0.748-2.461-1.031-3.713
			c-0.166-0.734-0.113-1.517-0.158-2.277c0.245-0.049,0.491-0.097,0.736-0.146c0.409,0.832,0.731,1.723,1.248,2.481
			c0.793,1.164,1.724,2.233,2.587,3.35c0.34,0.441,0.695,0.879,0.972,1.359c2.827,4.893,5.47,9.901,8.503,14.661
			c2.853,4.477,3.792,9.586,5.45,14.459c0.857,2.519,1.391,5.146,2.107,7.714c0.577,2.07,0.061,4.039-1.356,5.388
			c-1.963,1.869-4.216,3.486-6.524,4.923c-2.04,1.27-4.263,2.318-6.52,3.15c-2.334,0.86-2.896,0.352-2.974-2.113
			c-0.061-1.939-0.052-3.88-0.074-5.82C260.563,394.33,260.669,394.195,260.776,394.06z M261.589,401.046
			c1.406-0.585,1.675-1.511,0.919-2.951c-1.571,0.752-1.012,1.925-0.906,2.964L261.589,401.046z M264.94,391.892
			c-0.226-0.07-0.451-0.14-0.677-0.21c-0.331,1.148-0.662,2.297-0.993,3.445c0.21,0.065,0.419,0.13,0.629,0.194
			C264.245,394.178,264.592,393.035,264.94,391.892z M272.002,380.516c0.147-0.085,0.295-0.171,0.442-0.256
			c-0.163-0.279-0.327-0.558-0.49-0.837c-0.106,0.053-0.213,0.106-0.319,0.159C271.757,379.893,271.88,380.204,272.002,380.516z"/>
		<path fill="#333333" d="M180.399,141.013c2.224-0.771,3.999-0.012,5.581,1.767c-0.101,0.178-0.203,0.487-0.406,0.698
			c-3.86,4.014-7.733,8.014-11.598,12.023c-0.446,0.463-0.826,0.991-1.29,1.433c-0.773,0.736-1.577,0.758-2.323-0.06
			c-0.382-0.418-0.864-0.805-1.081-1.302c-1.664-3.811-5.663-4.645-8.72-6.531c-1.416-0.873-3.488-0.964-4.936-2.209l0.012,0.013
			c-2.048-0.745-4.058-1.632-6.153-2.208c-5.21-1.432-10.421-2.904-15.707-3.998c-2.977-0.616-6.103-0.687-9.16-0.672
			c-1.82,0.009-3.726,0.467-4.834,2.295c-0.684,1.128-1.466,1.048-2.435,0.116c0.907-1.649,1.972-3.208,3.893-3.321
			c2.697-0.159,4.63-1.733,6.806-2.94c1.308-0.726,2.724-1.362,4.17-1.714c4.965-1.206,9.954-0.481,14.854,0.374
			c8.59,1.499,16.901,4.112,25.22,6.697c2.637,0.82,5.541,1.535,8.137-0.481L180.399,141.013z M145.418,138.095l0.014-0.014
			c1.131,0.328,2.262,0.655,3.392,0.983l0.007-0.007C147.693,138.736,146.555,138.415,145.418,138.095z M173.61,148.289
			c1.254,0.359,2.272,0.056,3.138-0.67c-0.094-0.237-0.188-0.473-0.282-0.71c-0.948,0.464-1.896,0.929-2.843,1.393L173.61,148.289z
			 M172.243,152.541c0.187,0.049,0.373,0.099,0.56,0.148c0.526-0.603,1.051-1.206,1.577-1.81c-0.088-0.17-0.175-0.339-0.263-0.509
			c-0.659,0.192-1.42,0.249-1.933,0.636C171.951,151.183,172.208,152.01,172.243,152.541z M140.264,138.889
			c0.936-1.144,1.621-1.98,2.381-2.909C140.483,136.35,140.483,136.35,140.264,138.889z M145.929,135.424
			c-0.065,0.142-0.13,0.284-0.195,0.426c0.865,0.233,1.731,0.466,2.596,0.699c0.026-0.104,0.051-0.207,0.077-0.311
			C147.582,135.967,146.755,135.696,145.929,135.424z M157.214,140.626c0.011,0.081,0.022,0.161,0.033,0.242
			c0.327-0.032,0.653-0.064,0.98-0.095c-0.011-0.094-0.023-0.187-0.034-0.281C157.866,140.536,157.54,140.581,157.214,140.626z
			 M134.71,136.37c-0.061,0.105-0.138,0.205-0.175,0.318c-0.012,0.037,0.101,0.161,0.124,0.153c0.108-0.038,0.204-0.109,0.305-0.168
			C134.88,136.573,134.796,136.472,134.71,136.37z M167.74,143.531c-0.027-0.058-0.054-0.116-0.081-0.173
			c-0.059,0.028-0.146,0.043-0.169,0.09c-0.018,0.036,0.045,0.111,0.072,0.169C167.621,143.588,167.68,143.56,167.74,143.531z
			 M173.523,145.354c-0.126-0.019-0.209-0.031-0.292-0.044c0.025,0.056,0.051,0.112,0.076,0.168
			C173.364,145.446,173.419,145.414,173.523,145.354z M128.742,137.474c-0.051,0.077-0.102,0.154-0.153,0.232
			c0.057-0.017,0.138-0.018,0.164-0.057C128.778,137.61,128.749,137.535,128.742,137.474z"/>
		<path fill="#333333" d="M232.711,234.992c-1.549-1.642-1.814-3.436-0.949-5.556c0.697-1.708,1.101-3.535,1.635-5.31l0.013-0.008
			c0.964,0.972,1.687,0.879,2.256-0.428c0.306-0.703,0.762-1.341,1.15-2.009c-0.532,1.809-1.063,3.619-1.595,5.428
			c1.065-1.205,1.806-2.571,2.337-4.015c0.12-0.327-0.49-0.923-0.764-1.396c-0.648-2.181-1.297-4.362-2.072-6.97
			c-0.125,1.827-0.203,3.321-0.339,4.809c-0.075,0.815,0.302,1.878-0.994,2.14l0.023,0.033c0.072-2.991,0.167-5.982,0.206-8.974
			c0.022-1.694,0.054-3.398-0.092-5.083c-0.485-5.623-1.146-11.237,0.101-16.853c0.191-0.862,0.172-1.77,0.251-2.657l0.019,0.019
			c-0.362,0.43-0.724,0.861-1.463,1.74c0-2.11-0.353-3.904,0.088-5.475c0.567-2.021-0.945-3.303-1.114-4.996
			c-0.701,0.071-1.469-0.011-2.087,0.254c-0.71,0.305-1.292,1.217-2.271-0.089c-0.214,3.238-0.429,6.476-0.643,9.714
			c-0.518-4.208-1.865-8.378,0.378-12.569c1.13-2.112,1.67-4.534,2.575-6.776c0.813-2.012,1.541-4.115,2.72-5.905
			c0.877-1.331,2.415-2.226,3.811-3.45c-0.748,0-1.382,0-2.017,0c0.092-1.152,4.151-1.995,5.701-1.261
			c0.088,0.071,0.176,0.141,0.264,0.212c-0.445,4.41-0.922,8.817-1.321,13.231c-0.231,2.56-0.015,5.201-0.561,7.683
			c-1.138,5.175-0.337,10.312-0.052,15.439c0.26,4.663,0.946,9.318,1.705,13.934c0.93,5.66,0.879,11.129-2.22,16.175
			c-1.137,1.851-2.469,3.593-3.821,5.299c-0.853,1.076-1.11,2.112-0.481,3.34C232.964,234.774,232.837,234.883,232.711,234.992z
			 M234.388,198.377c-0.158,0.544-0.317,1.089-0.475,1.633c0.115,0.024,0.229,0.049,0.343,0.073
			c0.037-0.575,0.074-1.149,0.111-1.724l0.076-0.14L234.388,198.377z M232.416,170.152c0.347-1.302,0.695-2.603,1.042-3.905
			c-0.17-0.026-0.339-0.053-0.509-0.079c-0.172,1.333-0.344,2.666-0.516,3.999c-0.119,0.521-0.238,1.042-0.357,1.564
			c0.062,0.009,0.124,0.019,0.186,0.028C232.314,171.223,232.365,170.687,232.416,170.152z M231.586,176.342
			c0.106,0.02,0.212,0.041,0.318,0.061c0.095-0.46,0.191-0.92,0.286-1.38c-0.121-0.023-0.243-0.047-0.364-0.07
			C231.745,175.415,231.666,175.878,231.586,176.342z"/>
		<path fill="#333333" d="M188.691,73.922c0.258,0.306,0.46,0.705,0.784,0.904c2.928,1.802,4.242,4.454,4.375,7.837
			c0.025,0.648,0.58,1.27,0.87,1.913c0.371,0.823,0.72,1.655,1.088,2.504c-2.763,1.221-5.19,2.293-7.618,3.365l0.028,0.027
			c-0.137-0.14-0.274-0.279-0.411-0.419c-0.059-0.056-0.118-0.112-0.177-0.168c0.387-1.385-0.353-0.977-1.149-0.808
			c-1.111,0.236-2.334,0.6-3.375,0.35c-1.553-0.373-2.72-1.587-2.865-3.255c-0.215-2.47-0.196-4.96-0.252-7.442
			c-0.011-0.469,0.094-0.94,0.145-1.409c-2.578-0.018-3.338,2.36-4.995,3.486l-0.136-0.134c0.024-0.305,0.047-0.61,0.07-0.915
			l0.005,0.006c-0.46,0.029-0.92,0.057-1.497,0.093c-0.33,2.083-0.673,4.249-1.016,6.415c-0.285,0.035-0.57,0.069-0.855,0.104
			c-0.265-0.707-0.89-1.508-0.735-2.107c0.944-3.647,1.923-7.299,3.177-10.847c0.881-2.492,2.788-4.274,5.04-5.715
			c3.36-2.15,7.842-1.682,12.301,0.774c-1.427,1.576,0.924,4.952-2.811,5.452c-0.783-0.835-1.566-1.67-2.346-2.501
			c-1.923,1.633-4.279,3.356-4.911,6.378C183.097,75.088,185.219,73.278,188.691,73.922z"/>
		<path fill="#333333" d="M248.377,33.183c-0.88,0.711-1.759,1.421-2.841,2.295c1.258,1.013,2.115,1.702,3.358,2.703
			c-0.981,0.376-1.65,0.828-2.339,0.86c-2.411,0.111-3.666,1.596-4.306,3.63c-0.413,1.311-0.976,2.223-2.188,2.99
			c-0.96,0.607-1.673,1.746-2.247,2.786c-0.674,1.22-0.582,2.4,0.632,3.47c0.685,0.604,1.003,1.623,1.646,2.728
			c-1.258,0.293-1.998,0.465-2.78,0.647c-0.178-1.162-0.34-2.215-0.582-3.79c-0.938,2.679-0.928,2.736,0.87,6.778
			c-0.664,0-1.244,0-1.88,0c0.025,0.251-0.027,0.524,0.082,0.691c0.919,1.411,1.793,2.861,2.823,4.188
			c1.686,2.171,3.623,4.16,5.162,6.425c0.654,0.962,0.728,2.422,0.771,3.666c0.041,1.194-0.299,2.401-0.471,3.602l0.018-0.018
			c-0.359-0.866-0.979-1.72-1.019-2.6c-0.071-1.577-0.824-2.648-1.701-3.87c-3.518-4.899-7.54-9.583-7.963-16.036
			c-0.094-1.426-0.585-2.845,0.694-4.102c0.332-0.326,0.2-1.215,0.14-1.831c-0.184-1.888,0.135-3.502,1.118-5.278
			c2.058-3.721,4.167-7.597,3.697-12.086c-0.224-2.138-1.032-4.209-1.49-6.329c-0.32-1.481-0.593-2.988-0.674-4.494
			c-0.025-0.458,0.66-0.955,1.019-1.434c0.427,0.403,1.167,0.763,1.229,1.217c0.424,3.067,3.095,4.207,4.991,5.991
			c0.966,0.909,1.8,0.239,2.476-0.546c1.692-1.963,2.745-4.214,2.746-6.838c0.001-2.588-0.104-5.176-0.183-7.764
			c-0.032-1.07-0.184-2.252,1.175-2.578c1.317-0.316,1.822,0.75,2.311,1.704c0.538,1.05,1.408,2.019,0.185,3.264
			c-0.308,0.314-0.047,1.205-0.017,1.829c0.078,1.594,0.248,3.187,0.244,4.78c-0.008,2.727-0.117,5.453-0.201,8.179
			c-0.009,0.285-0.136,0.567-0.213,0.866c-0.283-0.093-0.495-0.095-0.57-0.197c-1.873-2.558-2.392-2.518-4.743-0.195
			c-0.727,0.718-1.845,1.252-2.86,1.426c-2.723,0.465-3.332,1.178-3.333,4.061c0,0.803-0.488,1.647-0.893,2.395
			c-0.315,0.582-0.85,1.045-1.146,1.696c4.229-1.163,6.618-4.62,9.403-7.573c0.165,0.055,0.33,0.11,0.494,0.166
			c0,0.629,0,1.257,0,1.886l-0.167,0.172c-0.082,0.082-0.164,0.164-0.248,0.245C248.531,33.033,248.454,33.108,248.377,33.183z
			 M240.702,27.739c0.231,0.727,0.24,1.734,1.66,0.895c-0.559-0.293-1.118-0.586-1.677-0.88c0.57-1.615,0.57-1.615-1.344-2.911
			C239.917,26.068,240.31,26.903,240.702,27.739z"/>
		<path fill="#333333" d="M235.979,281.852c1.629,5.247,3.194,10.516,4.913,15.733c0.855,2.595,1.993,5.097,3.004,7.642
			c0.237-0.025,0.474-0.05,0.71-0.075c0.341-16.505,0.682-33.011,1.025-49.581c1.102,2.524,0.986,3.703,0.819,6.117
			c-0.261,3.781-0.183,7.59-0.14,11.386c0.022,2.008,0.272,4.013,0.648,6.029c0-15.489,0-30.979,0-46.468
			c0.197-0.017,0.393-0.033,0.59-0.05c0.134,0.919,0.343,1.834,0.385,2.756c0.067,1.454-0.037,2.916,0.035,4.37
			c0.319,6.475,0.873,12.945,0.972,19.423c0.161,10.521,0.025,21.047,0.034,31.571c0.001,1.455,0.046,2.916,0.185,4.363
			c0.149,1.548,0.424,3.016-1.051,4.223c-0.453,0.37-0.524,1.323-0.587,2.026c-0.094,1.037-0.024,2.089-0.024,3.134
			c-0.166,0.004-0.332,0.008-0.498,0.012c0-5.544,0-11.088,0-17.027c-1.329,1.469-1.356,1.469-1.359,3.226
			c-0.009,5.748,0.063,11.496-0.016,17.242c-0.042,3.061-0.384,6.118-0.484,9.18c-0.041,1.251,0.202,2.511,0.315,3.767
			c-0.237,0.07-0.475,0.14-0.712,0.21c-0.535-1.369-1.07-2.738-1.605-4.106l-0.02,0.019c1.11-1.165,0.553-2.424-0.222-3.265
			c-2.966-3.218-3.667-7.306-4.53-11.306c-1.293-5.994-2.416-12.025-3.565-18.049c-0.156-0.816-1.003-1.917,0.558-2.38l-0.02-0.017
			c0.119,0.038,0.238,0.076,0.356,0.114C235.789,281.998,235.884,281.925,235.979,281.852z M240.197,300.451l-0.075-0.174
			l0.096,0.156c0.138,4.048,1.239,7.581,2.659,8.426c-0.336-1.499-0.57-2.998-1.023-4.427
			C241.421,303.067,240.759,301.775,240.197,300.451z M248.374,274.124c-0.056,0-0.112,0-0.169,0c0,6.029,0,12.059,0,18.088
			c0.056,0,0.112,0,0.169,0C248.374,286.183,248.374,280.154,248.374,274.124z"/>
		<path fill="#333333" d="M156.609,125.939c0.158-0.035,0.329-0.041,0.472-0.108c4.063-1.906,7.13-0.059,10.17,2.814
			c-1.758,2.809-5.226,3.184-7.851,5.279c1.419,0.719,2.629,1.332,3.839,1.945c-0.048,0.099-0.096,0.198-0.144,0.297
			c-9.871-2.075-19.743-4.149-29.863-6.276c4.03-2.297,8.054-4.589,12.077-6.882c0.1,0.108,0.2,0.216,0.3,0.324
			c-0.129,0.35-0.259,0.701-0.423,1.145c4.487-2.2,8.979-2.481,14.163-0.476c-1.229,0.863-1.988,1.396-2.748,1.929L156.609,125.939z
			"/>
		<path fill="#333333" d="M253.92,128.478c0.028,0.236,0.056,0.473,0.083,0.709c-0.141,0.109-0.281,0.218-0.422,0.327
			c-0.726,0.336-1.452,0.672-2.38,1.101c0.513,0.993,1.161,2.248,2.037,3.945c-0.201,0.305-0.721,1.094-1.373,2.084
			c-1.264-0.257-2.547-0.518-4.036-0.821c-0.706,1.353-1.988,1.97-3.643,1.19c-1.254-0.591-1.639-1.639-1.109-2.974
			c-0.147-0.059-0.294-0.118-0.441-0.177c-0.27,0.718-0.834,1.467-0.761,2.148c0.323,3.007,0.791,6.002,1.31,8.983
			c0.079,0.455,0.648,0.895,1.087,1.204c1.115,0.785,1.477,1.837,1.43,3.149c-0.219,6.131-0.386,12.263-0.633,18.392
			c-0.039,0.97-0.392,1.928-0.6,2.892c-0.255,0.051-0.51,0.103-0.764,0.154c-0.709-1.102-1.699-2.118-2.068-3.324
			c-0.767-2.511-1.754-5.085-0.5-7.768c0.308-0.658,0.499-1.363-0.713-1.003c-0.119-0.103-0.239-0.205-0.36-0.307
			c-1.296-1.596-0.117-2.354,1.1-2.927c1.839-0.865,2.912-2.202,3.173-4.223c0.229-1.768-0.022-3.351-1.311-4.717
			c-0.534-0.566-1.113-1.285-1.239-2.009c-0.687-3.96-1.218-7.947-1.853-11.918c-0.189-1.183-0.496-2.352-0.822-3.507
			c-0.612-2.169,0.149-3.559,2.349-4.171c2.722-0.758,3.273-1.663,2.721-4.358c-0.15-0.73-0.186-1.483-0.275-2.226
			c0.227-0.067,0.454-0.134,0.682-0.201c0.415,1.076,0.829,2.151,1.418,3.677c1.836-3.66-0.898-7.651,1.778-10.649
			c0.651,1.711,1.4,3.345,1.865,5.057c0.202,0.744,0.1,1.865-0.346,2.438c-1.941,2.493-0.861,5.288-0.998,7.951
			c-0.015,0.294,0.407,0.821,0.702,0.884c1.54,0.329,3.105,0.543,4.661,0.796C253.754,128.345,253.838,128.411,253.92,128.478z
			 M246.524,131.279c0.164-0.16,0.327-0.319,0.491-0.479c0.077-0.209,0.153-0.418,0.23-0.627c-0.028-0.012-0.056-0.024-0.084-0.036
			c-0.051,0.22-0.101,0.439-0.152,0.659c-0.159,0.164-0.319,0.328-0.478,0.492L246.524,131.279z M249.446,133.226l0.164-0.082
			l-0.15,0.099c-0.172-0.001-0.345-0.002-0.517-0.003c-0.11-0.088-0.22-0.176-0.188-0.151c-0.033-0.023,0.084,0.057,0.2,0.136
			C249.119,133.226,249.283,133.226,249.446,133.226z M243.613,126.425c0.041-0.235,0.082-0.469,0.123-0.704
			c-0.056-0.005-0.112-0.01-0.168-0.014c0.014,0.238,0.027,0.476,0.04,0.714L243.613,126.425z M246.038,127.388
			c2.107-1.054,0.723-2.509,0.249-3.866c-0.079,1.293-0.159,2.586-0.239,3.879c-0.934,0.347-1.867,0.694-2.801,1.04
			c0.066,0.141,0.132,0.281,0.198,0.421C244.311,128.37,245.175,127.879,246.038,127.388z M245,132.925
			c-1.296-0.624-2.263-1.089-3.63-1.747C242.259,132.979,243.343,133.173,245,132.925z M245.434,129.822
			c-0.083-0.165-0.165-0.33-0.248-0.496c-0.449,0.219-0.898,0.439-1.348,0.659c0.084,0.171,0.169,0.341,0.253,0.512
			C244.538,130.272,244.986,130.047,245.434,129.822z M243.895,159.023c-0.133-0.14-0.265-0.281-0.398-0.421
			c-0.211,0.281-0.422,0.563-0.633,0.844c0.096,0.085,0.193,0.169,0.289,0.254C243.4,159.474,243.648,159.249,243.895,159.023z
			 M241.583,126.358c-0.053-0.037-0.106-0.104-0.159-0.104c-0.054,0-0.107,0.066-0.161,0.103c0.084,0.061,0.168,0.121,0.252,0.182
			C241.538,126.479,241.561,126.418,241.583,126.358z"/>
		<path fill="#333333" d="M151.752,301.885c-0.087-0.657-0.329-1.338-0.235-1.969c0.482-3.231,1.051-6.449,1.623-9.877
			c-2.912,1.098-5.56,2.096-8.208,3.095l0.018,0.02c0.725-1.311,2.559-2.308,0.894-4.264c0.944-0.444,1.677-0.758,2.379-1.129
			c0.638-0.338,1.361-0.626,1.841-1.131c1.989-2.093,3.891-4.269,5.846-6.395c0.599-0.652,1.186-1.36,1.912-1.84
			c2.296-1.52,3.883-0.703,4.528,2.299c0.64,0.203,1.31,0.415,1.896,0.601c0.137,0.254,0.299,0.411,0.277,0.534
			c-0.445,2.436,0.642,5.114-0.893,7.337c-1.245,1.804-2.744,3.447-4.261,5.036c-0.272,0.285-1.18-0.036-1.794-0.077
			c-0.395-0.263-0.843-0.472-1.171-0.801c-0.405-0.406-0.712-0.911-1.061-1.373c0.513-0.28,1.002-0.634,1.548-0.814
			c0.348-0.114,0.781,0.029,1.175,0.057l-0.012,0.012c-0.885-0.499-1.769-0.999-2.885-1.629c-0.306,1.374-0.569,2.556-0.873,3.923
			c1.29,0.237,2.292,0.42,3.295,0.604c-0.503,1.699-0.366,3.715-2.656,5.021c-0.204-1.225-0.364-2.19-0.609-3.663
			c-0.485,2.6-0.353,5.07-2.593,6.44L151.752,301.885z M158.541,279.523l0.135-0.06l-0.122,0.072l-0.075,0.128L158.541,279.523z
			 M156.613,287.302l-0.019,0.019c1.358-1.101,2.481-2.306,1.984-4.484c-1.501,1.285-2.191,2.762-2.451,4.477l-0.084,0.15
			l0.063-0.168C156.275,287.298,156.444,287.3,156.613,287.302z M161.049,280.838c-0.026-0.062-0.053-0.124-0.079-0.186
			c-0.11,0.062-0.225,0.119-0.325,0.194c-0.014,0.01,0.045,0.117,0.07,0.179C160.826,280.964,160.938,280.901,161.049,280.838z
			 M150.401,289.385c0.109,0.07,0.219,0.141,0.328,0.211c0.033-0.058,0.102-0.161,0.093-0.167c-0.102-0.082-0.215-0.15-0.325-0.222
			C150.465,289.266,150.433,289.325,150.401,289.385z"/>
		<path fill="#333333" d="M210.205,139.371c3.549,0.189,5.487-2.505,7.869-4.401c1.957-1.558,3.564-3.832,6.584-3.205l-0.008,0.008
			c1.272-0.252,1.915,0.497,2.398,1.504c-0.089,0.093-0.178,0.186-0.266,0.279c0.105-0.08,0.21-0.16,0.315-0.24
			c1.099,0.674,2.197,1.347,3.599,2.206c-7.133,4.124-11.578,10.471-17.464,15.152c-3.323-3.172-6.563-6.263-9.802-9.355
			c2.306,0.262,4.558,0.079,6.463-1.534C209.997,139.647,210.101,139.509,210.205,139.371z M219.467,141.387
			c0.016-0.235,0.031-0.47,0.047-0.705c-2.574-0.884-3.659-0.664-4.666,0.922C216.395,141.532,217.931,141.46,219.467,141.387z
			 M214.827,143.978c-0.128-0.053-0.279-0.176-0.377-0.143c-0.121,0.041-0.198,0.212-0.294,0.326
			c0.159,0.069,0.317,0.178,0.479,0.185C214.694,144.35,214.763,144.109,214.827,143.978z M221.612,138.361
			c-0.123,0.066-0.247,0.133-0.371,0.2c0.13,0.096,0.25,0.238,0.393,0.268c0.077,0.016,0.195-0.159,0.295-0.247
			C221.825,138.509,221.721,138.436,221.612,138.361z M221.238,135.993l0.129-0.088l-0.166-0.038L221.238,135.993z M224.367,135.04
			c-0.033,0.055-0.066,0.11-0.098,0.165c0.053,0.026,0.124,0.087,0.157,0.071c0.048-0.023,0.069-0.102,0.102-0.157
			C224.474,135.093,224.42,135.066,224.367,135.04z"/>
		<path fill="#333333" d="M192.671,229.03c-0.898-0.951-1.785-1.676-2.384-2.59c-0.502-0.767-0.985-1.776-0.926-2.64
			c0.22-3.252,1.037-6.374,2.886-9.132c1.016-1.516,1.986-1.667,3.391-0.465c2.258,1.932,4.515,3.87,6.657,5.926
			c0.412,0.396,0.648,1.643,0.357,1.994c-1.633,1.97-3.294,3.841-6.144,4.341C195.17,226.699,194.032,228.077,192.671,229.03z"/>
		<path fill="#333333" d="M97.307,302.382c0.501-2.116,0.932-4.252,1.514-6.346c4.001-14.421,8.237-28.781,11.962-43.273
			c1.644-6.396,2.306-13.048,3.352-19.593c1.504-9.423,2.95-18.854,4.43-28.281c0.034-0.219,0.17-0.421,0.739-0.588
			c-0.139,1.436-0.249,2.876-0.421,4.309c-1.091,9.065-1.946,18.168-3.357,27.184c-1.877,11.993-4.617,23.809-8.318,35.398
			c-2.904,9.091-5.558,18.262-8.363,27.385c-0.4,1.302-1.024,2.536-1.544,3.801L97.307,302.382z"/>
		<path fill="#333333" d="M181.398,101.142c-0.165,0.65-0.33,1.3-0.495,1.95l0.026-0.017c-0.222-1.85-1.982-3.255-1.431-5.401
			c0.133-0.519-0.755-1.334-1.233-1.967c-0.89-1.178-1.269-2.29,0.204-3.306l-0.013-0.014c0.097,0.075,0.206,0.111,0.328,0.107
			c0.103-0.063,0.209-0.122,0.316-0.177c2.225,0.239,1.8,2.284,2.514,3.715c0.182-0.938,0.343-1.774,0.505-2.61
			c0.134-0.007,0.268-0.013,0.402-0.02c0.112,0.315,0.224,0.63,0.336,0.944l-0.01-0.01c0.55-0.696,1.233-1.326,1.621-2.103
			c0.679-1.358,1.722-2.083,3.16-2.348c0.059,0.056,0.118,0.112,0.177,0.168c0.137,0.14,0.274,0.279,0.411,0.419l-0.028-0.027
			c-0.106,1.354-0.213,2.708-0.312,3.964c0.912-0.077,1.733-0.16,2.556-0.212c1.355-0.086,2.732,0.052,3.781-1.191
			c0.255-0.302,1.073-0.128,1.633-0.172c-0.064,0.508,0.045,1.149-0.224,1.498c-0.784,1.016-1.659,1.982-2.611,2.844
			c-1.023,0.926-2.16,1.401-3.706,1.287c-2.041-0.15-4.12,0.206-6.62,0.374c-0.302,0.541-0.801,1.434-1.301,2.328L181.398,101.142z"
			/>
		<path fill="#333333" d="M244.574,82.177c0.683-0.821,1.367-1.642,2.162-2.598c0.715,1.582,2.197,2.653,2.206,4.859
			c0.006,1.494,0.012,2.631-0.723,4.022c-0.535,1.012-0.148,2.586,0.04,3.878c0.118,0.808,0.628,1.56,1.005,2.435
			c-1.632,0.644-2.162,0.024-2.445-1.224c-0.332-1.46-0.787-2.892-1.317-4.799c-3.583,4.219-3.541,8.59-2.857,13.089
			c-2.384-0.818-2.457-1.052-2.62-3.423c-0.205-2.983,0.615-5.716,1.499-8.504c0.748-2.358,1.078-4.847,1.65-7.265
			c0.349-1.474,0.163-3.182,2.018-4.651c-0.248,1.722-0.425,2.959-0.603,4.195l-0.071,0.135L244.574,82.177z"/>
		<path fill="#333333" d="M148.261,176.377c-1.895-0.311-3.786-0.647-5.685-0.928c-2.992-0.443-3.418-0.183-4.548,2.568
			c-0.079,0.193-0.283,0.336-0.454,0.53c-1.906-4.743-1.234-12.092,2.14-15.551c1.265-1.297,2.888-1.446,4.782-1.557
			c-0.618,0.92-1.279,1.554-1.481,2.31c-0.183,0.681,0.137,1.497,0.259,2.442c0.454-0.136,1.085-0.325,2.205-0.66
			c-0.607,1.657-0.867,3.16-1.655,4.3c-0.833,1.205-2.167,2.063-3.451,3.224c2.398,2.409,5.535,1.741,8.027,2.798
			C148.354,176.028,148.308,176.202,148.261,176.377z M143.39,168.216c-0.051-0.189-0.101-0.378-0.152-0.568
			c-0.346,0.126-0.691,0.253-1.037,0.379c0.035,0.129,0.07,0.259,0.105,0.388C142.667,168.349,143.029,168.283,143.39,168.216z"/>
		<path fill="#333333" d="M198.414,159.965c-0.178-0.844-0.357-1.688-0.533-2.52c-1.684,0.72-1.977,0.492-3.411-1.842
			c-2.011-3.273,1.928-2.416,2.643-3.841c-0.743,0.033-1.683,0.347-2.03,0.025c-0.516-0.48-0.917-1.447-0.835-2.143
			c0.308-2.595,0.899-5.149,3.365-6.663c0.567-0.348,1.701-0.775,1.877-0.569c0.515,0.602,0.919,1.501,0.929,2.29
			c0.021,1.599-0.252,3.201-0.391,4.803c-0.21,2.411-0.336,4.832-0.649,7.229c-0.143,1.097-0.644,2.147-0.983,3.218L198.414,159.965
			z"/>
		<path fill="#333333" d="M246.892,227.316c0-1.257,0-2.514,0-3.771c-0.001-18.121,0.021-36.243-0.015-54.364
			c-0.013-6.538-0.18-13.075-0.235-19.613c-0.005-0.575,0.297-1.153,0.457-1.729c0.248,0.022,0.495,0.044,0.743,0.066
			c0.109,0.741,0.327,1.484,0.311,2.223c-0.161,7.517-0.433,15.033-0.516,22.551c-0.041,3.712,0.377,7.429,0.358,11.142
			c-0.033,6.63-0.332,13.258-0.345,19.888c-0.012,6.385,0.226,12.771,0.289,19.157c0.015,1.49-0.234,2.982-0.362,4.473
			C247.349,227.331,247.121,227.324,246.892,227.316z"/>
		<path fill="#333333" d="M181.595,111.886c0.105-1.427,0.185-2.518,0.265-3.609c1.643,1.661,1.293,3.745,1.752,5.701
			c0.071-1.184,0.138-2.291,0.224-3.724c0.322,0.372,0.421,0.534,0.563,0.631c0.076,0.052,0.323,0.013,0.331-0.021
			c0.273-1.227,0.526-2.459,0.782-3.69c0.188,0.018,0.377,0.037,0.565,0.055c0.427,4.191,0.854,8.382,1.28,12.573
			c-0.125,0.12-0.251,0.24-0.376,0.36c-0.867-0.721-1.847-1.345-2.579-2.184c-1.744-2-3.307-4.159-5.066-6.145
			c-1.383-1.561-2.394-3.229-2.582-5.336c-0.014-0.159-0.09-0.312-0.108-0.472c-0.115-1.021,1.057-3.162,1.768-3.062
			c1.507,0.213,1.169,1.503,1.209,2.479C179.716,107.651,180.037,109.776,181.595,111.886z"/>
		<path fill="#333333" d="M192.678,142.078c-0.677,0.211-1.111,0.346-1.681,0.523c-0.463-2.278,2.145-2.242,2.517-3.792
			c-0.37-0.872-1.639-1.677-0.576-2.866c0.196-0.22,1.036-0.236,1.225-0.027c0.876,0.972,2.536,1.73,1.246,3.461
			c1.008,0.522,1.959,1.014,3.341,1.728c-3.571,2.617-5.227,6.003-6.219,9.775C189.985,149.566,190.007,148.424,192.678,142.078z"/>
		<path fill="#333333" d="M170.619,88.587c-0.003-0.014,0.07,0.29,0.165,0.68c0.277-0.627,0.529-1.2,0.781-1.772
			c0.171,0.007,0.343,0.015,0.514,0.022c0.254,2.962,0.484,5.927,0.768,8.886c0.284,2.971,1.759,5.797,1.396,8.848
			c-0.221,0.131-0.441,0.262-0.662,0.394c-1.483-1.514-2.978-3.016-4.433-4.557c-0.184-0.195-0.246-0.607-0.206-0.896
			C169.493,96.271,170.07,92.355,170.619,88.587z"/>
		<path fill="#333333" d="M70.657,380.7c-0.376,1.32-0.704,2.656-1.138,3.956c-1.205,3.605-2.368,7.229-3.716,10.781
			c-0.997,2.629-2.377,5.113-3.359,7.746c-0.688,1.844-0.993,3.83-1.56,6.124c-1.168,0.469-2.266-0.599-3.542-1.172
			c5.502-7.87,7.925-17.047,12.039-25.424c0.355-0.724,0.724-1.441,1.087-2.162L70.657,380.7z"/>
		<path fill="#333333" d="M206.876,261.695c0.369,0.387,0.813,0.727,1.096,1.169c3.368,5.245,6.712,10.504,10.06,15.761
			c0.13,0.204,0.248,0.42,0.344,0.642c0.64,1.481,0.367,2.735-0.682,3.171c-1.098,0.456-2.003-0.233-2.406-1.967
			c-0.528-2.273-0.758-4.643-1.535-6.822c-0.58-1.629-1.784-3.047-2.779-4.513c-1.227-1.806-2.557-3.541-3.773-5.354
			c-0.364-0.542-0.493-1.241-0.729-1.869C206.606,261.841,206.741,261.768,206.876,261.695z"/>
		<path fill="#333333" d="M253.031,138.18c0.701,1.714-0.246,3.915-2.159,4.398c-1.964,0.497-3.976,0.993-5.894-0.036
			c-0.627-0.336-1.033-1.083-1.54-1.643c0.553-0.379,1.066-0.848,1.669-1.11c0.576-0.25,1.245-0.288,1.874-0.413
			C248.906,138.995,250.831,138.615,253.031,138.18z M248.829,141.451c-0.055-0.022-0.109-0.044-0.164-0.066
			c-0.011,0.057-0.046,0.128-0.025,0.168c0.022,0.039,0.101,0.047,0.155,0.068C248.806,141.564,248.818,141.507,248.829,141.451z"/>
		<path fill="#333333" d="M220.233,300.365c-2.655-0.66-3.814-2.377-5.002-3.981c-0.777-1.049,0.001-1.973,0.866-2.389
			c0.848-0.408,2.584-0.767,2.756-0.468c0.687,1.188,0.915,2.641,1.313,3.996C218.584,298.238,219.789,299.194,220.233,300.365z"/>
		<path fill="#333333" d="M235.507,237.557c1.61,1.09,3.275,1.255,5.033,0.349c0.351-0.181,0.767-0.252,1.162-0.331
			c1.968-0.395,2.249-0.171,2.46,1.77c0.304,2.786,0.641,5.569,0.964,8.353c-0.229,0.038-0.458,0.076-0.687,0.113
			c-0.17-1.193-0.382-2.383-0.502-3.581c-0.318-3.174-0.823-3.754-3.972-3.935c-1.981-0.114-3.614-0.757-4.788-2.4
			C235.288,237.782,235.398,237.67,235.507,237.557z"/>
		<path fill="#333333" d="M149.808,298.482c-0.303-0.438-0.607-0.877-0.939-1.357c-0.277,0.434-0.606,0.951-1.101,1.726
			c-0.2-0.763-0.327-1.25-0.512-1.957c-0.794,0.502-1.491,0.942-2.188,1.382c-0.099-0.071-0.197-0.141-0.296-0.212
			c0.545-0.833,1.089-1.665,1.634-2.498l-0.019,0.019c0.385-0.7,0.739-1.421,1.162-2.097c0.887-1.418,1.94-1.668,3.431-0.964
			c-0.402,2.02-0.797,3.999-1.191,5.978L149.808,298.482z"/>
		<path fill="#333333" d="M209.728,279.676c-1.941-1.738-3.7-8.1-2.945-10.184C208.981,271.17,210.555,276.395,209.728,279.676z"/>
		<path fill="#333333" d="M144.276,185.395c-0.506,0.585-0.988,1.141-1.815,2.095c1.611,0,2.729,0,3.848,0
			c0.108,0.182,0.216,0.363,0.323,0.545c-0.911,1.094-1.821,2.188-2.556,3.072c-1.617-1.159-2.866-2.055-4.097-2.937
			C141.187,185.679,141.521,185.466,144.276,185.395z"/>
		<path fill="#333333" d="M189.687,150.694c0.693,1.07,1.462,2.1,2.065,3.218c1.833,3.397,3.608,6.825,5.387,10.25
			c0.214,0.412,0.315,0.883,0.696,1.987c-1.02-0.503-1.868-0.635-2.056-1.059c-2.108-4.757-4.113-9.558-6.147-14.348
			L189.687,150.694z"/>
		<path fill="#333333" d="M253.713,92.786c0.103-0.217,0.149-0.506,0.317-0.64c2.368-1.888,3.631-4.108,2.957-7.327
			c-0.349-1.667,1.131-1.803,2.385-1.831c1.06,3.335-1.179,7.385-5.44,10.006C253.857,92.928,253.784,92.858,253.713,92.786z"/>
		<path fill="#333333" d="M229.061,403.929c0.161,0.006,0.344-0.038,0.478,0.024c3.489,1.626,7.235,1.955,10.996,2.306
			c0.887,0.083,1.721,0.732,2.579,1.12l0.02-0.018c-4.296-0.177-8.593-0.355-12.399-0.512c-0.71-1.161-1.226-2.006-1.743-2.851
			L229.061,403.929z"/>
		<path fill="#333333" d="M201.317,158.501c0.568,2.757,0.354,3.437-2.269,6.556c-0.064-4.476,1.132-8.356,1.479-12.336
			c0.239,0.018,0.478,0.037,0.717,0.055c-0.136,1.023-0.383,2.048-0.376,3.07c0.006,0.89,0.3,1.779,0.466,2.668L201.317,158.501z"/>
		<path fill="#333333" d="M162.057,360.114c-3.409,1.744-6.818,3.487-10.234,5.235C153.563,362.336,159.109,359.181,162.057,360.114
			z"/>
		<path fill="#333333" d="M133.761,198.352c-0.439,2.273-0.878,4.546-1.315,6.806c-1.059-1.406-1.771-4.48-1.321-6.198
			c0.151-0.578,0.59-1.08,0.897-1.617c0.573,0.343,1.147,0.686,1.72,1.03L133.761,198.352z"/>
		<path fill="#333333" d="M202.286,130.297c0.385-0.03,0.771-0.059,1.034-0.079c-0.306,1.665-0.467,3.286-0.946,4.806
			c-0.218,0.693-1.063,1.189-1.629,1.779c-1.991-2.558-2.01-4.819-0.033-6.466c0.317-0.264,1.049-0.03,1.59-0.026
			c-0.17,0.301-0.339,0.603-0.509,0.904l-0.12,0.097l0.164-0.064C201.986,130.931,202.136,130.614,202.286,130.297z M201.237,133.46
			c-0.057-0.033-0.115-0.067-0.172-0.1c-0.154,0.239-0.307,0.477-0.461,0.716c0.076,0.045,0.153,0.091,0.229,0.136
			C200.968,133.961,201.102,133.71,201.237,133.46z"/>
		<path fill="#333333" d="M253.312,415.648c-0.168-4.173-0.352-8.345-0.494-12.518c-0.054-1.588-0.009-3.179,0.38-4.838
			c0.124,0.552,0.359,1.106,0.354,1.657c-0.047,5.227-0.134,10.454-0.21,15.681L253.312,415.648z"/>
		<path fill="#333333" d="M185.28,130.31c0.859-1.394,1.919-0.37,3.229-0.609c-1.581,2.234-2.879,4.069-4.346,6.141
			c-0.324-1.024-0.577-1.823-0.83-2.622l0.012,0.012c0.057-1.371,0.565-2.442,1.951-2.929l0.057,0.071L185.28,130.31z"/>
		<path fill="#333333" d="M213.952,124.488c1.704,0.692,3.411,1.377,5.111,2.08c1.109,0.458,2.208,0.942,3.536,1.511
			c-0.638,1.219-1.557,1.026-2.553,0.642c-1.41-0.544-2.947-0.881-4.197-1.673c-0.835-0.529-1.266-1.696-1.878-2.578
			L213.952,124.488z"/>
		<path fill="#333333" d="M209.28,400.503c2.387-0.496,4.41-0.983,6.461-1.278c0.354-0.051,0.826,0.711,1.243,1.097
			c-0.492,0.246-0.96,0.595-1.481,0.711c-0.589,0.131-1.355-0.167-1.815,0.107C212.234,402.006,210.99,401.651,209.28,400.503z"/>
		<path fill="#333333" d="M215.896,289.264c0.485,0.505,1.471,1.282,1.37,1.468c-0.516,0.95-1.313,1.747-2.072,2.67
			c-1.913-2.321-1.714-3.05,0.718-4.154L215.896,289.264z"/>
		<path fill="#333333" d="M181.386,101.164c0.491-0.531,0.983-1.061,1.451-1.567c3.392,0.675,3.224,0.613,3.141,2.788
			c-3.383,0.777-3.383,0.777-4.58-1.244L181.386,101.164z"/>
		<path fill="#333333" d="M178.57,78.867c-0.034,0.786-0.068,1.571-0.103,2.357l0.022-0.018c-0.313,1.808-0.625,3.617-0.968,5.602
			c-1.879-2.117-2.072-3.05-1.014-5.077c0.549-1.052,1.258-2.022,1.894-3.029L178.57,78.867z"/>
		<path fill="#333333" d="M231.472,261.536c-1.381-3.973-2.51-7.985-1.388-12.33c0.457,4.114,0.915,8.229,1.372,12.343
			L231.472,261.536z"/>
		<path fill="#333333" d="M233.397,224.127c-1.858-3.225-3.686-6.461-4.084-10.213c0.231-0.099,0.462-0.199,0.693-0.298
			c0.372,0.878,0.746,1.755,1.116,2.634c0.765,1.82,1.527,3.641,2.291,5.461l-0.023-0.033c0.007,0.813,0.013,1.627,0.02,2.44
			L233.397,224.127z"/>
		<path fill="#333333" d="M200.359,118.167c0.237-1.623,0.475-3.247,0.712-4.87c0.151-0.022,0.303-0.045,0.454-0.067
			c0.461,3.239,0.923,6.478,1.384,9.717c-0.1,0.077-0.199,0.154-0.299,0.231c-0.488-1.052-0.982-2.102-1.461-3.157
			c-0.281-0.618-0.538-1.246-0.806-1.869L200.359,118.167z"/>
		<path fill="#333333" d="M243.937,143.741c2.898,0.16,5.376,0.297,7.854,0.433c0.018,0.242,0.037,0.484,0.055,0.726
			c-0.88,0.123-1.76,0.247-2.641,0.37c-0.769,0.107-1.588,0.079-2.295,0.349C245.456,146.173,244.637,145.707,243.937,143.741z"/>
		<path fill="#333333" d="M143.646,156.069c-0.583-0.052-1.206-0.107-2.075-0.184c0.283-1.046,0.304-2.114,0.824-2.805
			c0.723-0.958,1.818-0.729,2.833-0.109C144.686,154.033,144.193,154.998,143.646,156.069z"/>
		<path fill="#333333" d="M245.481,371.12c1.203,1.247,2.128,2.207,3.053,3.166c-0.131,0.268-0.261,0.536-0.392,0.803
			c-0.837-0.138-1.863-0.022-2.47-0.471C244.631,373.849,244.9,372.683,245.481,371.12z"/>
		<path fill="#333333" d="M251.136,44.694c-0.764,0.389-1.503,1.028-2.299,1.109c-1.222,0.125-1.575-0.833-1.504-1.925
			c0.066-1.024,0.752-1.488,1.618-1.245c0.794,0.222,1.484,0.818,2.219,1.249C251.159,44.153,251.148,44.424,251.136,44.694z"/>
		<path fill="#333333" d="M180.429,140.991c-1.185,0.231-2.373,0.469-3.247-0.905c0.765-1.426,2.388-1.274,3.603-1.824
			c0.065-0.03,0.849,0.927,0.762,1.299c-0.127,0.544-0.741,0.973-1.147,1.452L180.429,140.991z"/>
		<path fill="#333333" d="M248.584,162.041c0-2.931,0-5.863,0-8.794c0.166,0,0.331,0,0.497,0
			C250.029,156.152,249.169,159.069,248.584,162.041z"/>
		<path fill="#333333" d="M245.553,68.583c1.185-0.945,0.266-1.789-0.235-2.503c-1.031-1.468-1.469-3.027-1.214-4.792l-0.022,0.018
			c1.047,1.981,2.244,3.901,3.09,5.964c0.582,1.42-0.163,1.987-1.613,1.307L245.553,68.583z"/>
		<path fill="#333333" d="M213.13,362.05c1.762-0.754,3.543-1.111,5.374-0.359c0.018,0.258,0.036,0.516,0.054,0.773
			c-1.781,0.154-3.562,0.307-5.343,0.461C213.187,362.633,213.158,362.341,213.13,362.05z"/>
		<path fill="#333333" d="M227.522,403.061c-1.552-0.812-3.16-1.537-4.636-2.469c-0.863-0.545-1.316-1.43-0.177-2.299
			c1.681,1.598,3.296,3.132,4.91,4.666L227.522,403.061z"/>
		<path fill="#333333" d="M216.032,283.538c0.789,0.885,1.577,1.771,2.366,2.656c-0.062,0.204-0.124,0.408-0.186,0.612
			c-0.594,0.033-1.326,0.301-1.754,0.051c-0.996-0.582-1.576-1.512-1.153-2.726C215.547,283.933,215.789,283.736,216.032,283.538z"
			/>
		<path fill="#333333" d="M222.841,297.918c-1.531-1.305-0.956-3.035-1.026-4.634c0.218-0.051,0.436-0.101,0.654-0.152
			c0.383,1.522,0.766,3.045,1.149,4.567C223.359,297.772,223.1,297.845,222.841,297.918z"/>
		<path fill="#333333" d="M141.125,181.043c-1.82,0.759-3.373,1.407-5.157,2.15C137.658,180.305,137.658,180.305,141.125,181.043z"
			/>
		<path fill="#333333" d="M214.161,280.306c-2.262-0.696-2.357-1.148-1.06-4.165C213.454,277.529,213.807,278.917,214.161,280.306z"
			/>
		<path fill="#333333" d="M189.663,156.066c-2.207-2.248-2.296-5.042-1.925-7.959c0.636,2.664,1.272,5.328,1.908,7.992
			L189.663,156.066z"/>
		<path fill="#333333" d="M154.653,195.925c-1.626,1.547-2.944,3.577-5.614,3.479c1.596-1.596,3.09-3.354,5.624-3.467
			L154.653,195.925z"/>
		<path fill="#333333" d="M163.291,95.723c1.654,1.763,1.765,2.218,1.163,4.444C162.943,99.019,162.68,97.679,163.291,95.723z"/>
		<path fill="#333333" d="M138.613,199.827c0.875,0.118,1.746,0.287,2.625,0.343c1.946,0.125,3.895,0.193,5.702,0.278
			c-0.993,1.568-5.22,1.379-8.313-0.635L138.613,199.827z"/>
		<path fill="#333333" d="M217.594,288.735c2.52-0.687,2.674-0.505,1.996,2.059C218.804,289.983,218.199,289.359,217.594,288.735z"
			/>
		<path fill="#333333" d="M147.375,193.008c-0.795,0.408-1.562,1.255-2.862-0.17c1.096-0.546,2.149-1.07,3.202-1.593
			c-0.118-0.18-0.235-0.359-0.353-0.539c0,0.772,0,1.544,0,2.316L147.375,193.008z"/>
		<path fill="#333333" d="M249.022,32.54c0.701,0.035,1.402,0.071,2.258,0.114c-0.315,0.996-0.56,1.768-0.837,2.645
			c-1.547,0.206-2.053-0.696-2.065-2.116c0.077-0.075,0.154-0.15,0.23-0.225c0.082-0.082,0.165-0.164,0.248-0.245L249.022,32.54z"/>
		<path fill="#333333" d="M178.468,81.224c1.686,1.814,1.024,3.846,0.595,5.855c-1.099-1.876-0.768-3.88-0.573-5.872L178.468,81.224
			z"/>
		<path fill="#333333" d="M256.744,113.787c0-2.598,0-5.195,0-7.793c1.533,2.639,0.826,5.209-0.021,7.775L256.744,113.787z"/>
		<path fill="#333333" d="M161.556,416.376c-2.257-2.235-2.442-2.851-1.272-4.482c0.615,1.462,1.208,2.87,1.8,4.278
			C161.908,416.24,161.732,416.308,161.556,416.376z"/>
		<path fill="#333333" d="M246.662,102.388c1.136,1.382,1.494,2.442,0.374,3.766C245.436,105.118,245.724,103.983,246.662,102.388z"
			/>
		<path fill="#333333" d="M147.854,419.263c-1.212,0.61-1.843,1.07-2.537,1.205c-0.262,0.051-0.67-0.65-1.011-1.009
			c0.544-0.365,1.048-0.88,1.648-1.04C146.313,418.322,146.821,418.778,147.854,419.263z"/>
		<path fill="#333333" d="M186.255,162.877c2.009,0.514,2.564,2.175,3.071,3.874c-1.691-0.765-2.376-2.323-3.072-3.873
			L186.255,162.877z"/>
		<path fill="#333333" d="M151.603,412.452c-0.146-0.54-0.47-1.113-0.377-1.609c0.064-0.344,0.701-0.581,1.082-0.866
			c0.211,0.436,0.61,0.885,0.581,1.304c-0.03,0.424-0.483,0.819-0.75,1.226C151.96,412.489,151.782,412.47,151.603,412.452z"/>
		<path fill="#333333" d="M244.105,61.288c-1.344-1.628-2.017-3.487-1.92-5.611c1.37,1.625,1.626,3.63,1.897,5.629L244.105,61.288z"
			/>
		<path fill="#333333" d="M144.859,149.954c-1.39,0-2.779,0-4.169,0c-0.003-0.155-0.006-0.31-0.008-0.464c1.39,0,2.779,0,4.169,0
			C144.854,149.645,144.856,149.799,144.859,149.954z"/>
		<path fill="#333333" d="M253.67,128.28c-1.165-1.892,1.08-1.745,1.454-2.87c0.969,1.77,0.702,2.34-1.204,3.068
			C253.838,128.411,253.754,128.345,253.67,128.28z"/>
		<path fill="#333333" d="M149.314,299.954c1.001,1.556,0.841,2.197-1.397,4.242c0.471-1.422,0.942-2.844,1.413-4.267
			L149.314,299.954z"/>
		<path fill="#333333" d="M260.456,394.465c-1.985-0.023-3.969-0.045-5.775-0.066c0.91-1.494,3.635-1.78,6.094-0.339
			C260.669,394.195,260.563,394.33,260.456,394.465z"/>
		<path fill="#333333" d="M212.806,281.826c1.101,0.211,1.676,0.764,1.104,2.617c-0.751-0.927-1.236-1.526-1.721-2.124
			C212.394,282.155,212.6,281.99,212.806,281.826z"/>
		<path fill="#333333" d="M206.034,137.474c0.352-1.21,0.704-2.419,1.068-3.672c1.574,1.367,1.385,2.214-0.781,3.947
			C206.225,137.658,206.13,137.566,206.034,137.474z"/>
		<path fill="#333333" d="M213.36,285.69c0,0.894,0,1.789,0,2.683c-0.177,0.001-0.354,0.003-0.53,0.004c0-0.894,0-1.787,0-2.681
			C213.007,285.694,213.183,285.693,213.36,285.69z"/>
		<path fill="#333333" d="M186.123,103.586c-1.246,0.807-2.027,1.313-3.033,1.965c-0.072-0.574-0.312-1.111-0.14-1.356
			C183.634,103.222,184.596,103.13,186.123,103.586z"/>
		<path fill="#333333" d="M205.694,138.086c-2.532,0.949-2.532,0.949-3.18-0.93c1.115,0.327,2.15,0.631,3.185,0.935L205.694,138.086
			z"/>
		<path fill="#333333" d="M221.73,403.823c0.74,0.092,1.479,0.185,2.219,0.277c-0.031,0.287-0.061,0.575-0.092,0.862
			c-0.725-0.071-1.45-0.142-2.174-0.213C221.699,404.44,221.715,404.131,221.73,403.823z"/>
		<path fill="#333333" d="M144.933,293.135c-0.875,1.084-1.749,2.168-2.624,3.252c0.325-1.58,1.051-2.801,2.642-3.233
			L144.933,293.135z"/>
		<path fill="#333333" d="M176.561,365.304c-0.384,0.304-0.61,0.62-0.804,0.602c-0.236-0.023-0.444-0.328-0.664-0.511
			c0.185-0.217,0.343-0.569,0.562-0.612C175.857,364.743,176.124,365.035,176.561,365.304z"/>
		<path fill="#333333" d="M248.66,382.035c-0.354,0.338-0.544,0.664-0.753,0.678c-0.216,0.014-0.602-0.25-0.636-0.442
			c-0.035-0.193,0.236-0.583,0.439-0.637C247.919,381.58,248.207,381.828,248.66,382.035z"/>
		<path fill="#333333" d="M251.354,146.7c-0.625,0-1.251,0-1.876,0c-0.001-0.158-0.001-0.316-0.002-0.474c0.638,0,1.276,0,1.914,0
			C251.378,146.384,251.366,146.542,251.354,146.7z"/>
		<path fill="#333333" d="M160.014,234.332c0.126-1.046,0.251-2.093,0.377-3.139c0.253,0.063,0.505,0.125,0.758,0.188
			c-0.385,0.978-0.771,1.956-1.156,2.934L160.014,234.332z"/>
		<path fill="#333333" d="M203.273,162.62c0.195,0.489,0.389,0.978,0.584,1.467c-0.187,0.09-0.374,0.18-0.561,0.271
			c-0.254-0.471-0.508-0.942-0.762-1.413C202.78,162.836,203.027,162.728,203.273,162.62z"/>
		<path fill="#333333" d="M160.669,409.775c-0.392,0.485-0.785,0.97-1.177,1.455c-0.201-0.137-0.403-0.274-0.604-0.411
			c0.321-0.545,0.642-1.091,0.964-1.636C160.124,409.38,160.397,409.577,160.669,409.775z"/>
		<path fill="#333333" d="M103.026,416.514c0-0.829,0-1.657,0-2.486c0.16,0.009,0.32,0.017,0.48,0.026
			c-0.091,0.874-0.182,1.748-0.273,2.623C103.164,416.622,103.095,416.567,103.026,416.514z"/>
		<path fill="#333333" d="M144.048,147.028c-0.239,0.285-0.477,0.57-0.716,0.854c-0.112-0.092-0.223-0.183-0.335-0.275
			c0.239-0.286,0.477-0.572,0.716-0.858C143.824,146.842,143.936,146.935,144.048,147.028z"/>
		<path fill="#333333" d="M185.738,148.51c0.109-0.673,0.218-1.346,0.327-2.019c0.182,0.032,0.363,0.063,0.545,0.095
			c-0.121,0.649-0.241,1.298-0.362,1.947C186.078,148.526,185.908,148.518,185.738,148.51z"/>
		<path fill="#333333" d="M219.037,285.074c-0.192-0.37-0.384-0.739-0.576-1.109c0.133-0.066,0.265-0.131,0.398-0.197
			c0.195,0.365,0.391,0.73,0.586,1.095C219.309,284.933,219.173,285.003,219.037,285.074z"/>
		<path fill="#333333" d="M189.646,156.099c0.266-0.234,0.533-0.468,1.157-1.015c-0.073,0.975-0.113,1.501-0.152,2.027
			c-0.119,0.024-0.238,0.047-0.357,0.071c-0.21-0.372-0.421-0.744-0.631-1.116L189.646,156.099z"/>
		<path fill="#333333" d="M235.357,281.973c-0.155-0.752-0.311-1.503-0.466-2.255c0.164-0.045,0.327-0.09,0.491-0.134
			c0.199,0.756,0.398,1.512,0.597,2.268c-0.095,0.073-0.191,0.145-0.286,0.219c-0.118-0.041-0.237-0.079-0.356-0.114
			L235.357,281.973z"/>
		<path fill="#333333" d="M226.95,406.163c-0.437-0.1-0.874-0.2-1.311-0.3c-0.005-0.127-0.011-0.254-0.016-0.38
			c0.304-0.07,0.624-0.229,0.908-0.18c0.219,0.038,0.393,0.336,0.588,0.519C227.062,405.936,227.006,406.05,226.95,406.163z"/>
		<path fill="#333333" d="M253.767,147.625c0.152-0.349,0.291-0.704,0.471-1.037c0.02-0.038,0.269,0.048,0.412,0.077
			c-0.081,0.383-0.161,0.767-0.242,1.15C254.194,147.752,253.981,147.689,253.767,147.625z"/>
		<path fill="#333333" d="M207.144,266.91c0.533,0.28,1.066,0.561,1.599,0.841c-0.113,0.148-0.226,0.297-0.339,0.445
			c-0.414-0.434-0.827-0.868-1.241-1.302L207.144,266.91z"/>
		<path fill="#333333" d="M152.209,414.448c-0.132,0.209-0.228,0.443-0.283,0.433c-0.196-0.034-0.377-0.15-0.563-0.235
			c0.075-0.119,0.145-0.333,0.225-0.337C151.782,414.301,151.98,414.39,152.209,414.448z"/>
		<path fill="#333333" d="M201.334,158.514c0.04-0.837,0.08-1.673,0.12-2.51c0.186,0.028,0.372,0.057,0.557,0.085
			c-0.232,0.804-0.463,1.608-0.695,2.412L201.334,158.514z"/>
		<path fill="#333333" d="M218.482,402.665c0.284-0.31,0.568-0.62,0.852-0.93c0.14,0.148,0.281,0.297,0.421,0.445
			c-0.311,0.28-0.622,0.56-0.933,0.84C218.709,402.902,218.596,402.783,218.482,402.665z"/>
		<path fill="#333333" d="M190.751,102.082c-0.249,0.216-0.402,0.348-0.555,0.48c-0.127-0.169-0.29-0.324-0.362-0.514
			c-0.025-0.067,0.194-0.326,0.261-0.311C190.286,101.779,190.456,101.917,190.751,102.082z"/>
		<path fill="#333333" d="M156.847,409.119c0.151,0.265,0.345,0.457,0.335,0.639c-0.006,0.113-0.362,0.33-0.483,0.287
			c-0.179-0.065-0.29-0.32-0.43-0.494C156.438,409.424,156.608,409.298,156.847,409.119z"/>
		<path fill="#333333" d="M243.115,407.379c0.279,0.307,0.558,0.614,0.837,0.922c-0.123,0.071-0.245,0.141-0.368,0.212
			c-0.15-0.384-0.3-0.768-0.449-1.152L243.115,407.379z"/>
		<path fill="#333333" d="M152.904,193.053c-0.264,0.189-0.528,0.377-0.792,0.566c-0.069-0.094-0.138-0.189-0.207-0.283
			c0.262-0.192,0.523-0.384,0.785-0.576C152.761,192.857,152.832,192.955,152.904,193.053z"/>
		<path fill="#333333" d="M220.482,292.671c-0.101,0.065-0.198,0.142-0.307,0.185c-0.024,0.009-0.147-0.117-0.136-0.156
			c0.034-0.119,0.11-0.227,0.17-0.339C220.3,292.464,220.391,292.567,220.482,292.671z"/>
		<path fill="#333333" d="M209.892,139.786c-0.538-0.195-1.075-0.39-1.613-0.586c0.072-0.192,0.144-0.383,0.216-0.575
			c0.57,0.248,1.139,0.497,1.709,0.745C210.101,139.509,209.997,139.647,209.892,139.786z"/>
		<path fill="#333333" d="M219.787,397.171c0.458,0.226,0.917,0.453,1.375,0.68c-0.217,0.193-0.434,0.385-0.651,0.578
			c-0.237-0.424-0.474-0.847-0.711-1.271L219.787,397.171z"/>
		<path fill="#333333" d="M146.091,369.999c-0.092-0.084-0.191-0.161-0.266-0.258c-0.014-0.018,0.076-0.166,0.111-0.163
			c0.123,0.01,0.243,0.059,0.364,0.093C146.23,369.78,146.161,369.889,146.091,369.999z"/>
		<path fill="#333333" d="M70.467,380.549c0.175-0.486,0.349-0.973,0.524-1.459c0.109,0.036,0.217,0.073,0.326,0.109
			c-0.22,0.5-0.44,1-0.659,1.501L70.467,380.549z"/>
		<path fill="#333333" d="M168.989,132.563c0.057,0.041,0.113,0.083,0.17,0.124c-0.092,0.065-0.184,0.131-0.277,0.196
			c-0.022-0.067-0.075-0.144-0.057-0.198C168.843,132.633,168.932,132.603,168.989,132.563z"/>
		<path fill="#333333" d="M210.549,272.74c0.158,0.552,0.315,1.104,0.473,1.657c-0.126,0.022-0.251,0.045-0.377,0.067
			c-0.025-0.581-0.051-1.162-0.076-1.743L210.549,272.74z"/>
		<path fill="#333333" d="M213.19,293.351c0.097,0.102,0.219,0.191,0.274,0.31c0.02,0.043-0.124,0.16-0.192,0.244
			c-0.096-0.1-0.218-0.188-0.274-0.307C212.978,293.557,213.119,293.439,213.19,293.351z"/>
		<path fill="#333333" d="M187.768,116.146c0.041-0.267,0.081-0.534,0.122-0.8c0.067,0.016,0.19,0.03,0.191,0.049
			c0.013,0.258,0.009,0.517,0.009,0.775C187.983,116.162,187.875,116.154,187.768,116.146z"/>
		<path fill="#333333" d="M234.207,236.946c-0.499-0.651-0.997-1.302-1.496-1.953c0.127-0.109,0.253-0.218,0.38-0.327
			c0.483,0.647,0.966,1.293,1.449,1.94C234.428,236.717,234.317,236.831,234.207,236.946z"/>
		<path fill="#333333" d="M231.456,261.549c0.128,0.401,0.256,0.802,0.384,1.204c-0.09,0.015-0.18,0.031-0.27,0.046
			c-0.032-0.421-0.065-0.842-0.097-1.263L231.456,261.549z"/>
		<path fill="#333333" d="M204.011,134.494c-0.085,0.102-0.16,0.27-0.257,0.284c-0.092,0.013-0.207-0.137-0.312-0.215
			c0.083-0.101,0.159-0.274,0.251-0.283C203.791,134.272,203.904,134.416,204.011,134.494z"/>
		<path fill="#333333" d="M248.886,148.602c-0.039-0.044-0.113-0.094-0.107-0.131c0.008-0.047,0.08-0.084,0.125-0.125
			c0.039,0.044,0.115,0.095,0.108,0.13C249.002,148.524,248.931,148.56,248.886,148.602z"/>
		<path fill="#333333" d="M245.863,76.532c-0.061,0.112-0.123,0.223-0.185,0.334c-0.101-0.079-0.206-0.153-0.295-0.242
			c-0.009-0.009,0.074-0.16,0.113-0.16C245.619,76.464,245.741,76.506,245.863,76.532z"/>
		<path fill="#333333" d="M195.688,177.222c-0.066,0.009-0.156,0.048-0.191,0.019c-0.04-0.033-0.031-0.126-0.043-0.193
			c0.066-0.009,0.157-0.048,0.192-0.019C195.687,177.062,195.677,177.155,195.688,177.222z"/>
		<path fill="#333333" d="M176.529,368.534c0.063,0.012,0.158,0.005,0.181,0.042c0.026,0.042-0.014,0.124-0.025,0.188
			c-0.063-0.012-0.161-0.004-0.182-0.04C176.478,368.68,176.517,368.599,176.529,368.534z"/>
		<path fill="#333333" d="M241.381,408.25c-0.064-0.08-0.128-0.16-0.191-0.24c0.069-0.015,0.161-0.064,0.203-0.036
			c0.081,0.054,0.133,0.15,0.197,0.229C241.52,408.218,241.451,408.234,241.381,408.25z"/>
		<path fill="#333333" d="M210.124,281.221c0,0.068,0,0.134,0,0.2c-0.112-0.013-0.226-0.017-0.333-0.047
			c-0.017-0.005-0.002-0.124-0.002-0.19C209.902,281.197,210.016,281.209,210.124,281.221z"/>
		<path fill="#333333" d="M186.361,296.539c-0.065-0.023-0.157-0.029-0.186-0.075c-0.03-0.046,0.003-0.132,0.008-0.201
			c0.104,0.038,0.208,0.076,0.313,0.113C186.451,296.432,186.406,296.485,186.361,296.539z"/>
		<polygon fill="#333333" points="189.329,115.217 189.482,115.175 189.435,115.361 		"/>
		<path fill="#333333" d="M180.903,103.091c0.105,0.232,0.209,0.465,0.314,0.697c-0.119,0.012-0.238,0.023-0.357,0.035
			c0.023-0.249,0.047-0.499,0.07-0.748L180.903,103.091z"/>
		<polygon fill="#333333" points="166.526,135.574 166.676,135.67 166.532,135.742 		"/>
		<path fill="#333333" d="M256.153,135.717c-0.055,0.045-0.117,0.13-0.165,0.123c-0.054-0.009-0.095-0.1-0.142-0.155
			c0.09-0.063,0.18-0.126,0.27-0.189C256.128,135.57,256.14,135.643,256.153,135.717z"/>
		<path fill="#333333" d="M253.342,415.63c0.032,0.226,0.064,0.451,0.096,0.677c-0.042-0.219-0.084-0.439-0.126-0.658
			L253.342,415.63z"/>
		<path fill="#333333" d="M207.163,266.895c-0.069-0.128-0.139-0.255-0.208-0.383c0.063,0.133,0.126,0.265,0.19,0.398
			L207.163,266.895z"/>
		<path fill="#333333" d="M245.559,68.577c-0.161-0.074-0.323-0.147-0.026-0.012c-0.242-0.218-0.111-0.1,0.02,0.018L245.559,68.577z
			"/>
		<path fill="#333333" d="M97.299,302.376c-0.165,0.482-0.331,0.964-0.496,1.446l0.022,0.018c0.16-0.486,0.321-0.972,0.481-1.459
			L97.299,302.376z"/>
		<path fill="#333333" d="M149.33,299.929c-0.145-0.009-0.29-0.019-0.304-0.02c0.01,0.001,0.149,0.023,0.288,0.044L149.33,299.929z"
			/>
		<path fill="#333333" d="M96.323,305.294c-0.043,0.186-0.085,0.372-0.026,0.114c-0.119,0.239-0.035,0.071,0.049-0.097
			L96.323,305.294z"/>
		<polygon fill="#333333" points="240.443,145.232 240.377,145.06 240.545,145.081 		"/>
		<path fill="#333333" d="M254.003,129.187c0.068,0.323,0.136,0.645,0.204,0.968c-0.209-0.214-0.417-0.427-0.626-0.641
			C253.722,129.405,253.862,129.296,254.003,129.187z"/>
		<path fill="#333333" d="M96.345,305.312c0.16-0.49,0.32-0.981,0.48-1.471l-0.022-0.018c-0.16,0.491-0.32,0.981-0.48,1.471
			L96.345,305.312z"/>
		<path fill="#333333" d="M188.207,109.883c-0.076-0.136-0.152-0.272-0.229-0.408c0.071,0.14,0.142,0.28,0.214,0.421
			L188.207,109.883z"/>
		<path fill="#333333" d="M159.993,234.315c-0.024,0.138-0.048,0.276-0.072,0.415c0.031-0.132,0.062-0.265,0.093-0.397
			L159.993,234.315z"/>
		<path fill="#333333" d="M240.426,158.69c-0.195,0.291-0.39,0.583-0.585,0.874c-0.088-0.071-0.176-0.142-0.264-0.212
			c0.163-0.323,0.326-0.646,0.489-0.968C240.187,158.485,240.307,158.587,240.426,158.69z"/>
		<path fill="#333333" d="M188.077,134.25c-0.063,0.014-0.149,0.061-0.184,0.036c-0.051-0.037-0.065-0.124-0.095-0.19
			c0.106-0.023,0.212-0.046,0.318-0.069C188.103,134.1,188.09,134.175,188.077,134.25z"/>
		<polygon fill="#333333" points="255.774,342.708 255.687,342.572 255.755,342.725 		"/>
		<polygon fill="#333333" points="255.755,342.725 255.84,342.875 255.774,342.708 		"/>
		<path fill="#333333" d="M154.663,195.937c0.042-0.042,0.084-0.083,0.126-0.125c-0.045,0.038-0.091,0.075-0.136,0.113
			L154.663,195.937z"/>
		<polygon fill="#333333" points="163.902,280.015 163.823,279.882 163.888,280.028 		"/>
		<polygon fill="#333333" points="199.387,139.537 199.217,139.458 199.369,139.555 		"/>
		<polygon fill="#333333" points="72.52,375.777 72.586,375.634 72.505,375.764 		"/>
		<polygon fill="#333333" points="72.505,375.764 72.429,375.932 72.52,375.777 		"/>
		<polygon fill="#333333" points="133.743,198.373 133.911,198.441 133.761,198.352 		"/>
		<path fill="#333333" d="M189.632,150.742c-0.029-0.045-0.059-0.091-0.088-0.136c0.048,0.029,0.095,0.059,0.143,0.088
			L189.632,150.742z"/>
		<polygon fill="#333333" points="255.283,352.446 255.204,352.306 255.266,352.461 		"/>
		<polygon fill="#333333" points="147.863,301.902 147.932,301.748 147.847,301.886 		"/>
		<path fill="#333333" d="M211.56,403.994c-0.099,0.056-0.199,0.112-0.298,0.168c0.079-0.077,0.158-0.153,0.237-0.23L211.56,403.994
			z"/>
		<polygon fill="#333333" points="188.192,109.896 188.273,110.034 188.207,109.883 		"/>
		<polygon fill="#333333" points="185.773,162.381 185.695,162.252 185.757,162.397 		"/>
		<path fill="#333333" d="M198.397,159.951c-0.014,0.065-0.029,0.13-0.043,0.196c0.02-0.061,0.04-0.121,0.06-0.182L198.397,159.951z
			"/>
		<path fill="#333333" d="M141.652,413.323c-0.123,0.15-0.246,0.3-0.368,0.451c0.042-0.227,0.084-0.454,0.126-0.681
			C141.494,413.166,141.575,413.242,141.652,413.323z"/>
		<polygon fill="#333333" points="256.723,113.77 256.661,113.931 256.744,113.787 		"/>
		<path fill="#333333" d="M185.757,162.397c0.166,0.16,0.332,0.32,0.498,0.48l-0.001,0.001c-0.16-0.166-0.32-0.331-0.481-0.497
			L185.757,162.397z"/>
		<path fill="#333333" d="M147.362,193.021c0,0,0.013-0.013,0.013-0.013L147.362,193.021z"/>
		<path fill="#333333" d="M196.957,196.911l-0.018-0.018L196.957,196.911z"/>
		<path fill="#333333" d="M196.94,196.893l0.018,0.018L196.94,196.893z"/>
		<path fill="#333333" d="M135.712,199.812l-0.016,0.016L135.712,199.812z"/>
		<path fill="#333333" d="M138.627,199.812l-0.015,0.014L138.627,199.812z"/>
		<path fill="#333333" d="M149.789,298.5l0.019-0.018L149.789,298.5z"/>
		<path fill="#333333" d="M136.198,202.728l-0.017,0.017L136.198,202.728z"/>
		<path fill="#333333" d="M142.499,209.044l0.019,0.019L142.499,209.044z"/>
		<path fill="#333333" d="M147.847,301.886l0.016,0.016L147.847,301.886z"/>
		<path fill="#333333" d="M151.733,301.903l0.019-0.018L151.733,301.903z"/>
		<path fill="#333333" d="M244.087,76.852l0.018-0.018L244.087,76.852z"/>
		<polygon fill="#333333" points="178.402,78.702 178.538,78.731 178.57,78.867 		"/>
		<path fill="#333333" d="M175.138,80.806l-0.136-0.134L175.138,80.806z"/>
		<path fill="#333333" d="M221.253,338.351l-0.003-0.003L221.253,338.351z"/>
		<path fill="#333333" d="M234.703,237.42c-0.165-0.158-0.331-0.316-0.496-0.475c0.11-0.114,0.221-0.228,0.332-0.341
			c0.16,0.165,0.319,0.33,0.479,0.495C234.913,237.206,234.808,237.313,234.703,237.42z"/>
		<path fill="#333333" d="M235.018,237.099c0.163,0.152,0.326,0.305,0.489,0.457c-0.109,0.113-0.219,0.226-0.329,0.338
			c-0.158-0.158-0.316-0.316-0.475-0.474C234.808,237.313,234.913,237.206,235.018,237.099z"/>
		<path fill="#333333" d="M178.469,92.4c0.21-0.028,0.421-0.056,0.631-0.084c-0.108,0.055-0.213,0.114-0.316,0.177
			c-0.108-0.039-0.218-0.075-0.328-0.107L178.469,92.4z"/>
		<path fill="#333333" d="M253.933,92.995c-0.151,0.015-0.224-0.055-0.22-0.209C253.784,92.858,253.857,92.928,253.933,92.995z"/>
		<path fill="#333333" d="M200.344,118.151l0.016,0.016L200.344,118.151z"/>
		<path fill="#333333" d="M213.971,124.47l-0.019,0.018L213.971,124.47z"/>
		<path fill="#333333" d="M188.207,128.357l-0.018,0.018L188.207,128.357z"/>
		<path fill="#333333" d="M188.188,128.375l0.018-0.018L188.188,128.375z"/>
		<path fill="#333333" d="M210.569,272.721l-0.02,0.019L210.569,272.721z"/>
		<path fill="#333333" d="M243.136,316.954l-0.02,0.019L243.136,316.954z"/>
		<path fill="#333333" d="M183.333,133.221l0.012,0.012L183.333,133.221z"/>
		<path fill="#333333" d="M219.8,397.158l-0.013,0.013C219.787,397.171,219.8,397.158,219.8,397.158z"/>
		<path fill="#333333" d="M205.7,138.091c0.111-0.206,0.223-0.411,0.334-0.617c0.096,0.092,0.192,0.183,0.288,0.275
			c-0.209,0.112-0.418,0.225-0.627,0.337L205.7,138.091z"/>
		<path fill="#333333" d="M199.369,139.555l0.018-0.018L199.369,139.555z"/>
		<path fill="#333333" d="M163.888,280.028l0.014-0.013L163.888,280.028z"/>
		<path fill="#333333" d="M227.619,402.958l-0.097,0.102L227.619,402.958z"/>
		<path fill="#333333" d="M211.499,403.932l0.061,0.062L211.499,403.932z"/>
		<path fill="#333333" d="M228.992,403.998l0.068-0.07L228.992,403.998z"/>
		<path fill="#333333" d="M141.41,413.093l0.196,0.034l0.046,0.196C141.575,413.242,141.494,413.166,141.41,413.093z"/>
		<path fill="#333333" d="M165.873,258.473c0.062,0.022,0.124,0.045,0.186,0.067c-0.045,0.121-0.087,0.243-0.143,0.359
			c-0.004,0.007-0.119-0.04-0.182-0.061C165.78,258.716,165.826,258.594,165.873,258.473z"/>
	</g>
</g>
</svg>
