<?xml version="1.0" encoding="utf-8"?>
<!-- Generator: Adobe Illustrator 17.1.0, SVG Export Plug-In . SVG Version: 6.00 Build 0)  -->
<!DOCTYPE svg PUBLIC "-//W3C//DTD SVG 1.1//EN" "http://www.w3.org/Graphics/SVG/1.1/DTD/svg11.dtd">
<svg version="1.1" id="Calque_1" xmlns="http://www.w3.org/2000/svg" xmlns:xlink="http://www.w3.org/1999/xlink" x="0px" y="0px"
	 viewBox="0 0 314.869 421.47" enable-background="new 0 0 314.869 421.47" xml:space="preserve">
<g>
	<g>
		<path fill="#333333" d="M119.578,154.056c0.457-1.015,0.837-1.857,1.325-2.942c-0.896-0.163-1.557-0.283-2.289-0.416
			c0.429-1.095,0.793-2.025,1.192-3.044c-0.987-0.688-2.963,1.152-2.258-2.518c-0.354,0.264-0.707,0.529-1.061,0.793
			c-0.567,0.859-1.134,1.718-1.639,2.482c-2.271-0.528-2.827-1.851-3.185-3.913c-0.865-4.98-0.362-9.659,1.815-14.176
			c0.323-0.671,1.058-1.157,1.326-1.837c0.558-1.42,1.055-2.888,1.346-4.382c0.312-1.602,0.359-3.256,0.521-4.888
			c0.222-0.017,0.444-0.034,0.667-0.05c0.284,0.468,0.727,0.904,0.828,1.409c1.231,6.149,4.295,11.435,7.804,16.488
			c1.096,1.578,0.771,2.62-0.786,3.316c-2.98,1.333-2.526,3.093-0.242,4.591c3.435,2.253,4.022,5.838,5.205,9.191
			c0.192,0.543-0.026,1.343-0.288,1.917c-1.88,4.122-3.944,8.164-5.713,12.332c-2.824,6.655-4.723,13.814-10.75,18.607
			c-0.744,0.592-1.482,1.195-2.253,1.751c-0.398,0.286-0.863,0.478-1.982,1.082c0.255-4.059,0.416-7.59,0.721-11.109
			c0.201-2.323,0.498-4.653,0.987-6.929c0.175-0.814,0.965-2.023,1.606-2.113c1.996-0.281,4.119,0.05,4.217-2.947
			c0.013-0.399,0.825-0.772,1.468-1.332c-2.561-1.534-1.105-2.465,0.315-3.513C121.08,159.986,121.605,156.315,119.578,154.056z"/>
		<path fill="#333333" d="M145.406,97.725c1.076,2.227,3.227,4.209,1.472,7.123c-2.063-0.93,0.062-5.049-3.321-4.888
			c-1.295,3.146-2.354,6.332-3.936,9.233c-0.571,1.047-2.4,1.407-3.655,2.081c-0.164-0.427-0.328-0.854-0.491-1.281
			c-0.394,0.354-0.788,0.707-1.182,1.061c0.551,0.081,1.102,0.162,1.652,0.243c-0.602,0.297-1.205,0.593-1.897,0.934
			c0.53,0.706,1.144,1.524,1.774,2.363c-3.171-0.536-5.15-3.922-6.028-10.564c-2.344,1.226-4.574,2.391-7.105,3.715
			c0.492-4.658,2.703-8.398,3.967-12.432c1.967-6.278,6.522-7.995,12.073-8.076c7.613-0.111,15.234,0.25,22.849,0.473
			c1.818,0.053,3.22,0.766,3.041,2.985c-0.02,0.249,0.074,0.515,0.145,0.764c1.049,3.687,1.134,7.041-3.831,8.96
			c-0.144-0.262-0.549-1-0.834-1.52c-0.744,0.595-1.414,1.543-1.901,1.456c-4.295-0.762-8.557-1.708-12.829-2.599
			c-0.221-0.199-0.44-0.399-0.106-0.096C144.849,97.485,145.128,97.605,145.406,97.725z M140.92,97.182
			c0.109,0.092,0.218,0.184,0.326,0.277c0.048-0.066,0.147-0.179,0.135-0.192c-0.094-0.106-0.209-0.192-0.317-0.285
			C141.017,97.048,140.969,97.114,140.92,97.182z M133.501,105.351c0.04-0.065,0.08-0.129,0.12-0.194
			c-0.071-0.032-0.156-0.104-0.209-0.085c-0.06,0.021-0.091,0.123-0.134,0.191C133.353,105.292,133.427,105.321,133.501,105.351z
			 M132.605,103.134c-0.013-0.077-0.025-0.155-0.038-0.232c-0.066,0.034-0.165,0.052-0.19,0.105
			c-0.026,0.054,0.021,0.142,0.036,0.216C132.477,103.193,132.541,103.163,132.605,103.134z"/>
		<path fill="#333333" d="M137.011,51.339c-3.044-5.678-2.934-15.184,2.732-18.396c1.575,2.219,3.297,4.038,6.438,4.402
			c2.343,0.272,3.405-1.045,4.708-2.161c1.02-0.874,0.714-1.883-0.433-2.759c-2.707-2.067-2.67-2.118-0.115-4.348
			c0.456-0.398,0.909-0.801,1.39-1.168c0.111-0.085,0.328-0.032,0.706-0.057c0.264,2.084,0.531,4.196,0.798,6.308
			c0.318,0.186,0.636,0.372,0.954,0.557c2.177-1.608,4.353-3.215,6.465-4.775c1.251,3.223,1.021,3.634-2.171,5.149
			c-0.963,0.457-2.469,1.667-2.338,2.173c0.384,1.486,1.122,3.178,3.335,2.876c1.017-0.139,2.159,0.137,3.065-0.224
			c2.422-0.965,2.506,0.578,2.01,1.983c-1.344,3.806-2.928,7.528-4.477,11.259c-0.462,1.112-1.314,2.082-1.665,3.217
			c-1.587,5.125-6.108,5.984-10.711,3.957c-2.65-1.167-5.063-2.874-7.582-4.337c-0.224-0.207-0.449-0.415-0.673-0.622
			c-0.826-1.019-1.652-2.039-2.478-3.058L137.011,51.339z M157.195,53.549c-2.521-3.097-5.161-3.374-8.48-1.031
			C152.508,56.707,153.844,56.888,157.195,53.549z M152.488,47.3c2.455,1.81,3.167,1.795,3.848-0.207
			C155.013,47.164,153.698,47.235,152.488,47.3z"/>
		<path fill="#333333" d="M139.447,54.374c0.224,0.207,0.449,0.415,0.673,0.622c1.045,2.418,2.09,4.836,3.135,7.255
			c0.264,0.496,0.528,0.991,0.792,1.486c0.098-0.072,0.195-0.144,0.293-0.215c-0.373-0.414-0.745-0.827-1.118-1.241
			c-0.088-1.559,0.445-2.176,1.991-1.351c2.608,1.392,5.497,6.965,5.194,10.051c-0.291,2.962,2.431,5.454,5.195,4.787
			c0.461-0.111,1.274-0.232,1.404-0.023c1.348,2.158,4.173,3.621,3.407,6.982c-0.9,0-1.741,0-2.752,0
			c-0.071,0.864-0.131,1.598-0.199,2.42c-2.186,0.727-2.36-0.839-2.424-1.838c-6.791,0-13.37,0.005-19.949-0.002
			c-3.734-0.004-3.541-0.127-4.021-3.695c-0.502-3.734-1.556-7.399-2.47-11.069c-0.373-1.495-0.832-2.791,1-3.727
			c1.832-0.936,2.926-0.753,4.578,0.841c3.246,3.133,6.958,5.813,10.652,8.432c1.104,0.783,3.145,1.863,4.092-0.053
			c0.853-1.724,0.893-4.051-1.173-5.22c-2.288-1.295-4.809-2.175-7.351-3.027c2.764,2.283,5.528,4.566,8.292,6.85
			c-0.177,0.27-0.354,0.539-0.531,0.809c-1.36,0.242-3.05,1.671-3.507-1.292c-0.054-0.349-0.819-0.637-1.297-0.865
			c-4.017-1.923-8.248-3.609-9.81-8.375c-0.51-1.555-0.888-3.181,0.935-4.738c0.89,2.405,0.385,5.301,3.558,5.689
			c0.083,0.182,0.167,0.363-0.071-0.155c0.332,0.461,0.214,0.298,0.097,0.135c-2.976-3.507-2.249-7.67-2.02-11.727
			c0.016-0.278,0.632-0.522,0.969-0.781l-0.042-0.024C137.795,52.335,138.621,53.354,139.447,54.374z"/>
		<path fill="#333333" d="M122.265,277.922c0.804-1.905-0.023-2.229-1.724-2.259c-2.652-0.046-5.299-0.433-7.34-0.62
			c0.043-2.439,0.117-4.837,0.12-7.235c0.004-3.32-0.114-6.642-0.04-9.96c0.033-1.454,0.424-2.899,0.633-4.351
			c0.452-3.135,2.754-4.333,5.066-2.279c5.034,4.472,9.84,9.203,14.686,13.883c0.429,0.414,0.815,1.372,0.628,1.842
			c-1.008,2.541-2.039,5.104-3.41,7.457c-0.584,1.003-1.921,1.755-3.078,2.192C126.163,277.215,124.369,277.441,122.265,277.922z"/>
		<path fill="#333333" d="M142.941,125.816c3.185,2.957,7.058,2.188,10.909,1.535c0.594-0.101,1.19-0.483,1.753-0.426
			c3.574,0.359,6.259-0.849,7.387-3.831c2.485,1.523,4.74,3.013,7.109,4.295c0.769,0.416,1.841,0.249,2.761,0.419
			c1.083,0.201,2.842,0.197,3.083,0.784c0.507,1.239,1.198,3.035-0.861,3.973c-0.342,0.156-0.567,0.568-0.885,0.116
			c-1.662-0.29-3.476-1.129-4.947-0.723c-1.628,0.449-2.942,2.037-4.473,3.191c-0.125-0.374-0.251-0.753-0.461-1.38
			c-0.665,0.805-1.146,1.387-1.566,1.896c-1.392-0.944-2.623-2.096-4.08-2.666c-1.162-0.454-2.611-0.329-3.914-0.223
			c-1.463,0.119-2.819,2.227-4.413,0.177c-0.091-0.117-0.68,0.018-0.938,0.186c-2.695,1.76-5.463,2.867-8.817,1.957
			c-0.656-0.178-1.6,0.943-2.479,1.299c-1.532,0.619-3.078,1.365-4.685,1.603c-4.091,0.604-5.596-0.271-7.506-3.924
			c-0.215-0.411-0.439-1.257-0.303-1.345c1.814-1.16,3.576-2.603,5.582-3.213c2.848-0.866,5.913-0.99,8.831-1.666
			C140.977,127.629,141.755,126.674,142.941,125.816z"/>
		<path fill="#333333" d="M84.474,395.413c0.431,2.757,1.769,3.594,4.12,2.347c0.199-0.105,0.515-0.14,0.72-0.061
			c2.14,0.826,2.137,0.834,3.306-0.097c1.421,0.503,2.796,0.99,4.718,1.67c1.089,2.195,2.628,4.986,3.841,7.911
			c0.43,1.037,0.069,2.403-0.425,3.614c-0.662-1.57-1.324-3.14-1.795-4.258c0,3.106,0.049,6.537-0.041,9.965
			c-0.018,0.675-0.57,1.336-0.875,2.003c-0.459-0.554-1.158-1.042-1.332-1.674c-0.475-1.725-0.636-3.536-1.112-5.261
			c-0.232-0.842-0.888-1.567-1.353-2.344c-0.312,0.01-0.624,0.02-0.936,0.03c-0.299,2.032-0.49,4.09-0.953,6.085
			c-0.181,0.779-0.975,1.416-1.489,2.118c-0.482-0.745-1.297-1.46-1.368-2.243c-0.106-1.17,0.311-2.388,0.175-3.673
			c-1.64,0.893-3.075,1.729-2.292,3.91c0.169,0.471-0.233,1.243-0.564,1.75c-0.139,0.213-1.063,0.251-1.143,0.104
			c-0.289-0.532-0.529-1.183-0.504-1.778c0.092-2.234,0.024-4.127-2.953-4.543c-0.573-0.08-0.877-2.086-1.374-3.384
			c0.24-0.098-0.079-0.046-0.292,0.133c-0.704,0.591-1.369,1.227-2.05,1.846c-0.297-1.252-1.012-2.583-0.796-3.739
			c0.366-1.952,1.152-3.885,2.1-5.643c0.485-0.898,1.706-1.399,2.976-1.666c0.329-0.997,0.658-1.994,0.987-2.991
			C84.003,395.501,84.238,395.457,84.474,395.413z M81.868,404.398c-0.14,0.087-0.345,0.145-0.393,0.265
			c-0.043,0.108,0.087,0.285,0.14,0.432c0.135-0.084,0.336-0.14,0.385-0.26C82.044,404.728,81.921,404.553,81.868,404.398z"/>
		<path fill="#333333" d="M180.56,109.636c-1.136,1.475-1.885,3.217-3.981,1.882c-1.597-1.018-3.863-1.01-4.27-3.783
			c-0.309-2.108-0.322-4.034,1.564-6.368c-2.022,1.451-2.022,1.451-2.296,9.853c-1.994-2.253-2.557-7.162-0.728-9.576
			c1.008-1.33,0.937-2.248,0.462-3.686c-0.808-2.444-1.076-5.066-1.87-7.516c-1.055-3.257-2.399-6.42-3.616-9.625
			c-0.314-0.828-0.618-1.66-0.448-2.844c1.858,1.123,3.715,2.247,5.573,3.37c-3.18-2.698-1.897-6.692-3.009-9.937
			c2.628-0.283,5.062,2.379,5.037,5.698c-0.025,3.441,0.372,6.594,2.585,9.549c1.278,1.707,1.643,4.145,2.201,6.31
			c0.133,0.517-0.605,1.259-1.109,2.212c0.432,0.873,1.342,2.412,1.956,4.062c0.372,1.001,0.73,2.387,0.324,3.23
			C177.549,105.352,178.128,107.661,180.56,109.636z M176.672,100.324c-0.197-0.173-0.35-0.377-0.416-0.352
			c-0.194,0.073-0.354,0.238-0.528,0.366c0.102,0.114,0.23,0.339,0.302,0.323C176.235,100.614,176.417,100.468,176.672,100.324z"/>
		<path fill="#333333" d="M117.668,66.999c-0.185-0.606-0.718-1.417-0.501-1.786c1.749-2.966,2.03-6.204,2.093-9.523
			c0.013-0.659,0.352-1.312,0.54-1.968c0.265-0.001,0.53-0.003,0.795-0.004c0.168,3.478,0.178,6.974,0.554,10.429
			c0.285,2.615,0.597,5.383,1.675,7.723c2.093,4.541,1.616,8.992,0.609,13.563c-0.5,2.269-0.979,4.543-1.514,6.804
			c-0.137,0.579-0.3,1.424-0.707,1.622c-2.76,1.346-4.427,3.962-6.851,5.703c-2.658,1.908-5.111,4.101-8.193,5.952
			c0.27-0.604,0.371-1.481,0.837-1.77c3.546-2.196,4.696-6.068,6.653-9.359c0.326-0.548,0.046-1.456,0.046-1.898
			c1.384-0.337,2.62-0.639,3.856-0.94c-0.466-0.583-0.932-1.166-1.399-1.749c-0.284,0.036-0.568,0.072-0.851,0.107
			c0.481-1.529,1.15-3.031,1.373-4.597c0.132-0.931-0.735-1.994-0.632-2.942c0.248-2.295,0.961-4.54,1.192-6.835
			c0.285-2.841,0.273-5.713,0.39-8.571c0.362-0.147,0.723-0.294,1.084-0.441c-0.196-0.227-0.391-0.455-0.587-0.682
			C117.976,66.226,117.822,66.612,117.668,66.999z M123.316,79.227c-0.163-0.254-0.25-0.547-0.402-0.586
			c-0.204-0.053-0.459,0.089-0.692,0.147c0.122,0.251,0.204,0.54,0.39,0.729C122.67,79.575,123.006,79.36,123.316,79.227z"/>
		<path fill="#333333" d="M213.505,246.647c-1.969,0.774-3.861,1.518-5.754,2.262c0.115,0.295,0.23,0.591,0.345,0.886
			c0.713-0.271,1.427-0.541,2.801-1.063c-0.6,1.032-0.886,1.47-1.117,1.935c-0.219,0.442-0.38,0.912-0.569,1.376
			c-0.69-0.111-1.273-0.252-1.861-0.284c-0.479-0.026-0.964,0.077-1.501,0.128c0-1.321,0-2.456,0-4.162
			c-1.296,1.428-2.237,2.392-3.075,3.44c-0.225,0.281-0.12,0.817-0.188,1.232c-0.131,0.799-0.278,1.595-0.419,2.393
			c-0.454-0.06-0.908-0.12-1.362-0.18c0.133-1.435-0.014-2.97,0.457-4.284c0.957-2.668,2.221-5.23,3.422-7.806
			c0.318-0.682,0.804-1.317,1.327-1.864c1.253-1.309,2.336-1.745,2.614,0.717c0.029,0.255,0.314,0.48,0.881,0.603
			c-0.089-1.013-0.602-2.314-0.159-2.966c0.53-0.781,1.879-1.411,2.868-1.403c3.42,0.028,2.751,2.651,2.691,4.785
			c0.17-0.597,0.341-1.194,0.511-1.79c0.29,0.003,0.58,0.005,0.871,0.008c0.109,1.399,0.217,2.798,0.356,4.58
			c1.252,0.787,1.545,8.739-0.452,10.551c1.014,0.669,1.946,1.285,2.879,1.901c0.015,0.202,0.03,0.405,0.044,0.607
			c-0.87-0.045-1.995,0.241-2.563-0.197c-1.842-1.42-2.419-3.205-0.335-5.069C212.972,251.943,214.563,249.127,213.505,246.647z
			 M213.332,242.175c-0.221-0.206-0.442-0.412-0.663-0.617c-1.311,1.1-2.623,2.2-3.934,3.301c0.209,0.23,0.418,0.46,0.627,0.689
			C210.685,244.424,212.009,243.3,213.332,242.175z"/>
		<path fill="#333333" d="M100.83,301.912c-1.352-2.567,0.704-3.67,1.329-5.311c1.158-3.039,3.487-4.619,5.92-6.229
			c3.347-2.216,8.153,0.037,7.923,4.001c-0.092,1.582-1.848,3.537-3.37,4.438c-1.669,0.988-4.037,1.534-5.928,1.224
			C104.3,299.641,102.517,299.994,100.83,301.912z"/>
		<path fill="#333333" d="M121.344,97.728c1.595-5.022,3.071-9.825,4.685-14.581c0.245-0.723,1.137-1.226,1.791-1.893
			c-1.343-2.532-2.489-5.248-2.047-8.824c0.409-3.308-0.663-6.805-1.133-10.212c-0.278-2.018-0.653-4.022-0.997-6.112
			c-0.759,0.139-1.373,0.252-2.063,0.378c-0.061-0.419-0.195-0.815-0.113-0.866c0.975-0.612,1.982-1.172,2.98-1.746
			c0.439,0.836,1.116,1.629,1.277,2.515c0.923,5.075,1.724,10.173,2.564,15.263c0.07,0.424-0.001,0.932,0.211,1.262
			c2.818,4.395,1.316,8.724-0.209,13.019c-1.237,3.483-2.575,6.932-3.95,10.363C123.472,98.462,123.21,98.505,121.344,97.728z"/>
		<path fill="#333333" d="M132.732,166.342c0.829,0.716,1.819,1.312,2.457,2.17c2.28,3.067,4.85,3.413,8.548,2.33
			c3.451-1.01,7.054-1.378,10.135-3.482c1.25-0.853,2.599-1.561,3.903-2.335c0.192,0.316,0.383,0.631,0.575,0.947
			c-1.34,0.858-2.68,1.716-4.371,2.799c1.784-0.088,3.088-0.152,4.519-0.222c-1.354,3.691-7.121,6.98-10.45,6.208
			c-0.079-0.018-0.179-0.151-0.213-0.132c-3.267,1.867-5.952-1.145-9.004-1.078c-0.501,0.011-1.204,0.052-1.478-0.238
			c-1.881-1.994-3.673-4.073-5.493-6.124C132.151,166.905,132.442,166.623,132.732,166.342z M147.13,172.448
			c0.189,0.354,0.378,0.707,0.568,1.061c1.594-0.925,3.189-1.85,4.783-2.775c-0.119-0.213-0.238-0.427-0.357-0.64
			C150.459,170.878,148.795,171.663,147.13,172.448z"/>
		<path fill="#333333" d="M137.85,163.462c3.37-1.731,6.175-3.172,8.98-4.612c-0.104-0.367-0.208-0.734-0.313-1.102
			c-1.41,0.183-2.815,0.438-4.23,0.527c-1.439,0.091-2.889,0.02-4.334,0.02c0.008-0.241,0.017-0.483,0.025-0.724
			c3.901-0.84,8.158-3.055,11.61-2.161c4.024,1.042,7.673-1.487,11.377-0.396c0.015,0.272,0.031,0.545,0.046,0.818
			c-0.36,0.143-0.728,0.428-1.078,0.406c-4.672-0.286-8.69,1.915-11.677,4.807c-2.158,2.089-4.327,2.369-6.72,2.829
			C140.513,164.07,139.372,163.654,137.85,163.462z"/>
		<path fill="#333333" d="M207.734,403.342c-0.759,0-1.549,0.141-2.271-0.023c-4.15-0.943-8.332-1.799-12.401-3.024
			c-1.666-0.501-3.19-1.717-4.552-2.874c-0.577-0.49-0.57-1.667-0.828-2.532c0.865-0.018,1.845-0.312,2.575-0.007
			c4.272,1.784,8.474,3.734,12.73,5.556c0.654,0.28,1.521,0.046,2.195,0.301c1.078,0.408,2.076,1.027,3.108,1.557
			C208.104,402.645,207.919,402.994,207.734,403.342z"/>
		<path fill="#333333" d="M110.581,111.827c0.841,0.159,1.712,0.227,2.516,0.495c2.667,0.888,3.555,5.105,1.373,6.912
			c-0.544,0.451-1.749,0.498-2.484,0.246c-1.78-0.609-3.43-1.587-5.194-2.253c-1.221-0.461-1.599-1.078-0.694-2.051
			c1.272-1.368,2.66-2.628,3.999-3.934C110.259,111.437,110.42,111.632,110.581,111.827z"/>
		<path fill="#333333" d="M101.563,293.056c0.178-4.31,6.004-7.503,10.618-7.287c5.016,0.235,10.86,4.822,11.04,11.044
			c-2.613-3.972-4.901-7.602-9.689-8.088C109.031,288.268,105.326,290.095,101.563,293.056z"/>
		<path fill="#333333" d="M110.601,234.722c0.284-0.852,0.582-1.742,0.926-2.775c0.678-0.121,1.43-0.255,2.107-0.376
			c0.396-1.569,0.772-3.054,1.272-5.037c1.19,2.349,1.891,4.008,0.305,6.09c-1.719,2.256-2.998,4.843-4.554,7.23
			c-0.373,0.573-1.201,1.381-1.616,1.276c-0.704-0.178-1.552-0.883-1.803-1.565C106.169,236.661,107.435,234.881,110.601,234.722z"
			/>
		<path fill="#333333" d="M189.297,140.285c-0.992-0.069-2.057-0.063-3.093-0.234c-1.468-0.242-4.628-5.401-3.875-6.592
			c0.563-0.89,2.22-2.089,2.686-1.839c1.061,0.57,1.899,1.849,2.443,3.018C188.191,136.212,188.562,137.953,189.297,140.285z"/>
		<path fill="#333333" d="M126.924,285.524c-3.843-5.178-9.877-5.698-16.069-7.126c3.399-3.017,6.055-1.046,8.591-0.364
			C123.243,279.056,126.039,281.311,126.924,285.524z"/>
		<path fill="#333333" d="M209.742,283.158c-0.76-4.469,0.723-6.504,3.766-5.388c0.082-1.251,0.023-2.415,0.27-3.511
			c0.225-0.997,0.718-1.958,1.258-2.834c0.088-0.142,1.408,0.116,1.507,0.408c0.282,0.839,0.49,1.866,0.254,2.682
			c-0.47,1.627-0.947,3.421-1.992,4.67C213.56,280.672,211.718,281.657,209.742,283.158z"/>
		<path fill="#333333" d="M154.231,195.301c-4.841-1.339-9.682-2.678-14.946-4.134c4.205-3.129,9.322-1.006,15.132,3.429
			C154.355,194.831,154.293,195.066,154.231,195.301z"/>
		<path fill="#333333" d="M235.741,245.971c-3.197-3.017-3.174-3.143-0.344-5.222c0.818-0.601,1.552-1.332,2.258-2.067
			c1.287-1.339,2.052-1.44,3.64-0.365C239.459,240.848,237.634,243.362,235.741,245.971z"/>
		<path fill="#333333" d="M182.163,162.907c0.948,2.812-0.611,5.988-4.271,10.171c-0.892-0.528-1.813-1.074-3.59-2.126
			c1.601-0.69,2.702-1.067,3.696-1.632c0.517-0.294,0.922-0.872,1.246-1.402C180.252,166.268,181.195,164.58,182.163,162.907z"/>
		<path fill="#333333" d="M198.011,243.928c-1.255-0.209-2.511-0.417-3.766-0.626c0.14-0.143,0.28-0.287,0.42-0.43
			c-0.605-0.867-1.122-1.817-1.838-2.58c-0.863-0.92-1.895-1.68-2.868-2.521c1.122-2.197,2.247-2.48,3.662-0.57
			c1.518,2.048,3.074,4.068,4.613,6.101C198.16,243.511,198.085,243.719,198.011,243.928z"/>
		<path fill="#333333" d="M121.674,100.059c-5.145,3.527-9.925,6.804-14.686,10.068C107.045,107.527,118.23,99.453,121.674,100.059z
			"/>
		<path fill="#333333" d="M187.676,185.001c-1.745-2.84-5.91-1.796-5.884-5.79c0.782-0.846,1.64-1.773,2.748-2.971
			c0.567,1.691,1.982,3.028-0.391,4.061c1.426,2.784,3.146-0.489,4.874,0.427C188.678,181.825,188.301,183.018,187.676,185.001z"/>
		<path fill="#333333" d="M163.141,170.024c-0.273,1.645-0.723,3.285-0.78,4.937c-0.098,2.826-2.547,1.679-3.803,2.726
			C158.158,174.048,158.158,174.048,163.141,170.024z"/>
		<path fill="#333333" d="M173.699,159.432c-0.68-1.677-1.36-3.353-2.045-5.041c1.919-1.44,3.397-1.259,5.966,0.873
			c-0.948,1.397-1.911,2.815-2.873,4.233C174.397,159.476,174.048,159.454,173.699,159.432z"/>
		<path fill="#333333" d="M160.904,222.181c-0.528-1.169-1.209-2.297-1.536-3.519c-0.26-0.97-0.197-2.071-0.063-3.085
			c0.075-0.568,0.586-1.079,0.901-1.616c0.586,0.383,1.382,0.633,1.721,1.171c1.378,2.185,0.853,4.419,0.004,6.612
			C161.589,221.89,161.246,222.035,160.904,222.181z"/>
		<path fill="#333333" d="M117.741,203.863c0,2.193,0.167,3.713-0.082,5.163c-0.099,0.579-1.209,1.49-1.697,1.398
			c-1.251-0.237-2.422-0.932-3.591-1.512c-0.091-0.045-0.045-0.76,0.143-0.915C114.047,206.727,115.63,205.516,117.741,203.863z"/>
		<path fill="#333333" d="M171.771,216.962c-0.931,1.164-1.578,2.646-2.208,2.639c-2.302-0.027-2.585-2.004-2.417-3.725
			c0.106-1.086,0.939-2.101,1.447-3.147C169.566,214.024,170.538,215.319,171.771,216.962z"/>
		<path fill="#333333" d="M249.03,225.591c1.496,1.075,1.492,3.103-0.067,4.488c-0.504,0.447-1.064,0.856-1.472,1.381
			c-1.911,2.46-2.087,2.467-3.615,0.276C245.65,229.62,247.34,227.605,249.03,225.591z"/>
		<path fill="#333333" d="M157.775,218.29c0.833,2.36,1.641,4.431,2.258,6.558c0.145,0.501-0.309,1.674-0.564,1.698
			c-0.678,0.062-1.55-0.152-2.072-0.585C155.958,224.767,156.019,220.379,157.775,218.29z"/>
		<path fill="#333333" d="M165.384,217.917c2.524,2.213,3.199,5.245,1.773,7.968C164.166,224.382,163.373,220.82,165.384,217.917z"
			/>
		<path fill="#333333" d="M203.181,268.399c0.712,3.471,2.335,5.947,6.447,5.762c-1.575,1.793-4.05,2.034-5.606,0.821
			C201.602,273.096,201.291,270.966,203.181,268.399z"/>
		<path fill="#333333" d="M171.809,166.354c1.502-1.565,1.512-4.238,4.484-3.212c0.143,0.049,1.054-1.304,1.105-2.039
			c0.052-0.744-0.519-1.532-0.886-2.477c1.948,0.986,2.651,2.415,2.172,4.062C178.001,165.033,175.153,166.738,171.809,166.354z"/>
		<path fill="#333333" d="M148.374,207.867c-0.591,0.691-1.3,2.042-1.751,1.96c-2.013-0.364-2.64-2.042-2.434-3.875
			c0.09-0.801,1.044-2.239,1.23-2.181C147.146,204.308,148.615,205.22,148.374,207.867z"/>
		<path fill="#333333" d="M154.428,201.292c0.667,1.815,1.465,3.597,1.925,5.463c0.143,0.582-0.627,1.39-0.979,2.094
			c-0.734-0.468-2.029-0.864-2.1-1.417c-0.256-2.005-0.101-4.063-0.101-6.101C153.592,201.319,154.01,201.305,154.428,201.292z"/>
		<path fill="#333333" d="M149.1,209.366c0.345-0.757,0.642-1.41,0.94-2.063c0.579,0.401,1.24,0.724,1.715,1.223
			c0.579,0.61,1.259,1.313,1.425,2.078c0.192,0.885-0.127,1.881-0.225,2.829c-0.896-0.306-2.071-0.364-2.616-0.98
			C149.663,211.689,149.507,210.463,149.1,209.366z"/>
		<path fill="#333333" d="M141.36,211.51c0.203-1.167,0.177-1.921,0.489-2.489c0.203-0.369,0.898-0.468,1.373-0.688
			c0.723,1.756,1.446,3.511,2.169,5.267c-0.835,0.21-2.056,0.863-2.426,0.54C142.148,213.429,141.76,212.225,141.36,211.51z"/>
		<path fill="#333333" d="M162.941,223.509c1.752,1.823,1.47,4.062,1.204,6.239c-0.05,0.411-0.744,0.924-1.226,1.043
			c-0.368,0.091-1.007-0.257-1.289-0.603C160.628,228.961,161.48,224.626,162.941,223.509z"/>
		<path fill="#333333" d="M148.097,211.408c0.799,1.319,1.84,2.546,2.275,3.96c0.221,0.717-0.529,1.868-1.111,2.611
			c-0.163,0.208-1.448-0.143-1.935-0.564C145.837,216.125,146.257,212.873,148.097,211.408z"/>
		<path fill="#333333" d="M164.36,194.717c1.02,0.681,2.278,1.092,2.348,1.651c0.174,1.408-0.128,2.894-0.402,4.317
			c-0.037,0.194-1.437,0.379-1.476,0.28c-0.508-1.285-0.976-2.604-1.243-3.956C163.486,196.507,163.938,195.897,164.36,194.717z"/>
		<path fill="#333333" d="M196.164,394.784c3.722,1.31,7.443,2.621,11.695,4.118C205.515,400.293,197.478,397.387,196.164,394.784z"
			/>
		<path fill="#333333" d="M147.407,182.844c3.104-1.067,6.208-2.134,9.441-3.245c-0.928,2.188-1.673,4.394-4.904,3.834
			c-1.396-0.242-2.869-0.041-4.307-0.041C147.56,183.21,147.484,183.027,147.407,182.844z"/>
		<path fill="#333333" d="M48.449,182.708c1.599-0.576,1.112-4.75,4.194-2.431c0.846,0.636,1.99,1.374,0.835,2.714
			C51.781,184.961,50.158,183.876,48.449,182.708z"/>
		<path fill="#333333" d="M156.236,209.71c0.588,1.615,1.335,3.196,1.68,4.861c0.127,0.617-0.693,1.429-1.082,2.152
			c-0.74-0.588-2.026-1.106-2.111-1.777c-0.211-1.661,0.127-3.393,0.245-5.096C155.391,209.803,155.814,209.757,156.236,209.71z"/>
		<path fill="#333333" d="M147.908,165.06c2.87-1.307,5.611-2.555,8.62-3.925C155.819,164.482,150.282,166.89,147.908,165.06z"/>
		<path fill="#333333" d="M162.028,207.144c-2.213-1.367-2.864-3.406-1.613-5.208c0.322-0.464,1.755-0.799,1.804-0.711
			c0.544,0.984,1.229,2.061,1.236,3.118C163.461,205.209,162.606,206.081,162.028,207.144z"/>
		<path fill="#333333" d="M213.475,293.218c0.191,0.642,0.525,1.281,0.538,1.926c0.019,0.93-0.175,1.868-0.319,2.796
			c-0.083,0.534-0.245,1.055-0.372,1.582c-0.542-0.278-1.141-0.482-1.611-0.852c-0.605-0.476-1.107-1.083-2.194-1.303
			c0-0.87,0-1.74,0-2.828c0.949,0.246,1.656,0.429,2.543,0.659c0.217-0.572,0.442-1.164,0.666-1.756
			C212.976,293.368,213.226,293.293,213.475,293.218z"/>
		<path fill="#333333" d="M149.479,199.858c-1.217,1.232-2.019,2.044-2.82,2.856c-0.507-0.939-1.288-1.835-1.447-2.83
			c-0.166-1.041-0.433-2.834,1.479-2.548C147.55,197.465,148.246,198.691,149.479,199.858z"/>
		<path fill="#333333" d="M139.176,204.908c0.597,1.684,1.286,3.344,1.716,5.069c0.092,0.37-0.834,1.431-1.149,1.375
			c-0.65-0.115-1.618-0.689-1.72-1.217c-0.309-1.59-0.265-3.248-0.359-4.879C138.168,205.14,138.672,205.024,139.176,204.908z"/>
		<path fill="#333333" d="M172.06,206.376c0.167,1.619,0.425,3.237,0.438,4.857c0.003,0.399-0.794,0.804-1.223,1.206
			c-0.646-1.595-1.477-3.151-1.824-4.809c-0.102-0.484,1.171-1.257,1.814-1.897C171.529,205.948,171.794,206.162,172.06,206.376z"/>
		<path fill="#333333" d="M158.921,205.081c0.667,1.594,1.519,3.146,1.902,4.806c0.134,0.58-0.886,1.427-1.38,2.152
			c-0.551-0.543-1.498-1.035-1.576-1.638c-0.218-1.688-0.076-3.423-0.076-5.14C158.168,205.201,158.545,205.141,158.921,205.081z"/>
		<path fill="#333333" d="M165.608,202.891c2.436,2.013,2.271,4.452,2.324,6.789c0.006,0.247-0.534,0.686-0.848,0.712
			c-0.323,0.028-0.882-0.263-0.991-0.547C165.286,207.743,164.425,205.618,165.608,202.891z"/>
		<path fill="#333333" d="M144.236,198.004c-1.118,1.006-2.132,2.049-2.218,1.977c-0.936-0.779-1.949-1.63-2.442-2.693
			c-0.184-0.397,0.935-1.4,1.46-2.126C141.949,195.973,142.862,196.784,144.236,198.004z"/>
		<path fill="#333333" d="M141.954,206.092c-2.758-1.168-2.992-1.885-1.688-5.176C143.478,201.455,143.954,202.913,141.954,206.092z
			"/>
		<path fill="#333333" d="M171.603,225.917c-0.649,1.35-1.143,2.38-1.638,3.409c-0.444-1.075-1.235-2.149-1.241-3.227
			c-0.007-1.253,0.675-2.51,1.057-3.765C170.37,223.492,170.959,224.65,171.603,225.917z"/>
		<path fill="#333333" d="M133.849,201.02c0.932,1.621,1.737,2.735,2.216,3.975c0.236,0.61-0.132,1.453-0.227,2.191
			c-0.844-0.206-2.042-0.133-2.465-0.67C132.124,204.93,132.498,203.191,133.849,201.02z"/>
		<path fill="#333333" d="M163.979,207.496c0.543,2.346,1.001,4.014,1.271,5.712c0.068,0.427-0.463,1.346-0.721,1.347
			c-0.568,0.002-1.476-0.301-1.646-0.722C162.102,211.903,161.895,209.941,163.979,207.496z"/>
		<path fill="#333333" d="M139.377,200.751c-1.002,0.935-1.613,1.504-2.224,2.074c-0.728-0.819-1.886-1.563-2.046-2.481
			c-0.127-0.732,0.963-1.676,1.513-2.526C137.434,198.686,138.25,199.553,139.377,200.751z"/>
		<path fill="#333333" d="M133.159,192.795c0.265,1.651,0.63,3.296,0.72,4.956c0.021,0.387-0.895,1.15-1.375,1.146
			c-0.458-0.004-1.31-0.801-1.291-1.219c0.072-1.623,0.421-3.233,0.666-4.849C132.305,192.818,132.732,192.807,133.159,192.795z"/>
		<path fill="#333333" d="M150.561,199.112c1.658,2.51,1.629,4.23-0.098,5.991C148.508,203.491,148.553,200.749,150.561,199.112z"/>
		<path fill="#333333" d="M245.059,236.73c-1.871-0.832-3.743-1.663-6.013-2.673C243.329,231.631,243.672,231.779,245.059,236.73z"
			/>
		<path fill="#333333" d="M167.305,229.171c0,2.146,0,4.293,0,6.439c-0.286,0.104-0.572,0.209-0.858,0.313
			c-0.472-0.735-1.367-1.493-1.329-2.201c0.085-1.597,0.631-3.17,0.989-4.753C166.506,229.037,166.906,229.104,167.305,229.171z"/>
		<path fill="#333333" d="M167.465,199.303c3.626,0.663,3.147,2.743,2.892,4.415c-0.205,1.341-1.537,1.32-1.994,0.296
			C167.781,202.706,167.781,201.14,167.465,199.303z"/>
		<path fill="#333333" d="M203.989,132.51c-2.105-0.531-3.724-0.899-5.311-1.375c-0.315-0.094-0.769-0.814-0.711-0.886
			c0.397-0.494,0.874-1.203,1.398-1.27C201.749,128.677,202.782,130.362,203.989,132.51z"/>
		<path fill="#333333" d="M165.358,187.702c2.347,1.173,2.008,2.923,1.916,4.484c-0.017,0.285-1.141,0.856-1.373,0.706
			c-0.582-0.377-1.308-1.083-1.319-1.67C164.561,190.165,165.019,189.097,165.358,187.702z"/>
		<path fill="#333333" d="M223.589,241.668c-0.823,1.442-1.358,2.38-1.957,3.43c-1.364-1.382-2.806-2.737-0.827-5.163
			C221.709,240.498,222.657,241.089,223.589,241.668z"/>
		<path fill="#333333" d="M167.015,195.397c0.753-0.819,1.25-1.359,1.746-1.898c0.551,1.142,1.24,2.247,1.57,3.45
			c0.098,0.358-0.808,0.992-1.254,1.5C168.453,197.525,167.828,196.6,167.015,195.397z"/>
		<path fill="#333333" d="M103.889,240.519c-0.615-1.785-1.224-2.829-1.24-3.883c-0.009-0.586,0.969-1.187,1.501-1.781
			c0.575,0.945,1.444,1.841,1.616,2.855C105.869,238.316,104.881,239.108,103.889,240.519z"/>
		<path fill="#333333" d="M206.712,264.102c1.197,1.083,2.109,1.908,3.02,2.734c-0.579,0.516-1.158,1.032-1.737,1.548
			c-0.763-0.867-1.587-1.692-2.233-2.638C205.642,265.568,206.233,264.904,206.712,264.102z"/>
		<path fill="#333333" d="M249.912,214.315c2.473-3.661,3.781-3.764,6.054-0.87C254.024,213.725,252.279,213.975,249.912,214.315z"
			/>
		<path fill="#333333" d="M100.454,207.189c-0.626,1.282-1.029,2.106-1.707,3.494c-0.851-1.544-1.668-3.026-2.484-4.508
			c0.204-0.248,0.408-0.497,0.612-0.745C98.046,206.006,99.217,206.581,100.454,207.189z"/>
		<path fill="#333333" d="M170.677,140.144c-1.49,0.532-2.98,1.064-4.567,1.63c0.033,0.143-0.06-0.26-0.151-0.662
			c-0.174-0.764-0.347-1.528-0.521-2.292c0.742,0.074,1.482,0.186,2.225,0.213c1.019,0.037,2.04,0.009,3.061,0.009
			C170.709,139.409,170.693,139.776,170.677,140.144z"/>
		<path fill="#333333" d="M167.8,182.433c0.363,0.408,0.681,0.6,0.679,0.788c-0.018,1.372-0.101,2.744-0.163,4.115
			c-0.522-0.134-1.449-0.179-1.501-0.416C166.479,185.393,165.884,183.722,167.8,182.433z"/>
		<path fill="#333333" d="M94.819,201.725c2.217,1.274,4.102,2.357,5.987,3.44C98.177,205.281,95.418,205.581,94.819,201.725z"/>
		<path fill="#333333" d="M201.663,242.615c-0.466,1.855-0.912,3.715-1.434,5.554c-0.046,0.163-0.786,0.343-0.864,0.245
			c-0.39-0.49-1.063-1.233-0.916-1.591c0.657-1.6,1.56-3.098,2.374-4.634C201.103,242.332,201.383,242.474,201.663,242.615z"/>
		<path fill="#333333" d="M155.235,281.269c1.801,2.036,3.602,4.071,5.403,6.107c-2.397-0.296-5.673-3.259-6.015-5.503
			c-0.023-0.152,0.426-0.377,0.656-0.568L155.235,281.269z"/>
		<path fill="#333333" d="M156.658,199.047c0.814,1.349,1.518,2.133,1.725,3.031c0.094,0.41-0.794,1.046-1.236,1.58
			c-0.67-0.891-1.427-1.735-1.942-2.708C155.093,200.741,155.855,200.069,156.658,199.047z"/>
		<path fill="#333333" d="M132.013,201.929c-0.748,0.825-1.227,1.353-1.705,1.88c-0.503-0.691-1.382-1.368-1.41-2.077
			c-0.032-0.809,0.696-1.647,1.093-2.473C130.594,200.055,131.197,200.852,132.013,201.929z"/>
		<path fill="#333333" d="M171.026,182.069c0.278,1.518,0.577,3.033,0.796,4.559c0.017,0.119-0.631,0.522-0.78,0.442
			c-0.486-0.263-1.2-0.645-1.257-1.06c-0.167-1.212-0.06-2.462-0.06-3.698C170.159,182.231,170.593,182.15,171.026,182.069z"/>
		<path fill="#333333" d="M162.542,191.801c-0.147,1.742-0.071,3.549-0.551,5.194c-0.19,0.652-1.613,0.946-2.86,1.607
			c1.262-2.769,2.195-4.816,3.128-6.864C162.353,191.759,162.448,191.78,162.542,191.801z"/>
		<path fill="#333333" d="M210.328,261.601c-2.504,0.392-4.817,0.755-7.062,1.107C204.063,260.311,208.165,259.555,210.328,261.601z
			"/>
		<path fill="#333333" d="M140.87,167.599c1.123-3.322,1.957-3.675,5.387-2.524C144.358,165.964,142.943,166.627,140.87,167.599z"/>
		<path fill="#333333" d="M221.02,299.856c-0.888-1.7-1.776-3.401-2.664-5.101c0.382-0.206,0.764-0.413,1.145-0.619
			c0.954,1.665,1.907,3.33,2.861,4.994C221.915,299.373,221.467,299.614,221.02,299.856z"/>
		<path fill="#333333" d="M227.876,271.623c0.695,3.069-0.593,4.419-3.849,4.2C225.378,274.347,226.463,273.164,227.876,271.623z"/>
		<path fill="#333333" d="M132.592,155.271c-0.416-1.326-0.718-2.701-1.278-3.963c-0.561-1.264-1.378-2.414-2.307-3.995
			c0.769,0.058,1.758-0.062,1.849,0.169c0.965,2.471,1.788,4.998,2.649,7.509C133.201,155.084,132.897,155.177,132.592,155.271z"/>
		<path fill="#333333" d="M224.484,265.593c0.68,1.281,1.362,1.975,1.258,2.52c-0.126,0.664-0.913,1.203-1.414,1.796
			c-0.627-0.594-1.645-1.124-1.758-1.804C222.479,267.56,223.487,266.833,224.484,265.593z"/>
		<path fill="#333333" d="M182.403,129.05c1.805-1.059,3.61-2.117,5.529-3.243C188.214,127.793,185.752,129.323,182.403,129.05z"/>
		<path fill="#333333" d="M135.454,192.958c0.936,0.635,1.872,1.27,3.528,2.393c-1.527,0.67-2.406,1.056-3.286,1.441
			c-0.401-1.106-0.802-2.212-1.203-3.318C134.814,193.302,135.134,193.13,135.454,192.958z"/>
		<path fill="#333333" d="M95.746,351.018c-2.148,0.62-3.793,1.095-5.708,1.647C90.78,350.015,92.89,349.438,95.746,351.018z"/>
		<path fill="#333333" d="M166.428,171.698c2.602,0.584,2.785,1.951,2.308,3.448c-0.127,0.4-1.064,0.541-1.629,0.801
			C166.899,174.644,166.691,173.341,166.428,171.698z"/>
		<path fill="#333333" d="M167.998,150.441c-0.144-1.32-0.443-2.381-0.249-3.343c0.057-0.281,1.534-0.425,2.328-0.338
			c0.342,0.038,0.602,0.823,0.899,1.269c-0.405,0.224-0.851,0.398-1.206,0.685C169.278,149.113,168.854,149.596,167.998,150.441z"/>
		<path fill="#333333" d="M171.831,232.895c0,2.033,0,4.065,0,6.098c-0.222,0.011-0.445,0.022-0.667,0.033c0-2.012,0-4.024,0-6.036
			C171.386,232.959,171.609,232.927,171.831,232.895z"/>
		<path fill="#333333" d="M127.919,196.576c0.269-1.809,0.474-3.188,0.707-4.753C130.879,193.27,130.687,194.866,127.919,196.576z"
			/>
		<path fill="#333333" d="M140.466,31.479c1.016-0.855,2.031-1.71,3.047-2.565c0.317,0.551,0.634,1.102,0.952,1.653
			c-1.128,0.612-2.257,1.224-3.385,1.836C140.875,32.095,140.67,31.787,140.466,31.479z"/>
		<path fill="#333333" d="M162.972,159.188c1.151-2.057,3.411-1.986,5.335-2.558c0.118,0.226,0.236,0.453,0.355,0.679
			c-1.744,0.919-3.488,1.837-5.232,2.756C163.277,159.773,163.124,159.48,162.972,159.188z"/>
		<path fill="#333333" d="M78.106,409.93c2.121,1.862,1.554,2.976,0.531,3.946c-0.257,0.243-0.899,0.081-1.363,0.105
			C77.518,412.794,77.762,411.607,78.106,409.93z"/>
		<path fill="#333333" d="M184.595,172.881c0.287-1.357,0.575-2.715,0.862-4.072c0.399,0.072,0.798,0.144,1.196,0.215
			c-0.213,1.34-0.425,2.679-0.638,4.019C185.542,172.989,185.068,172.935,184.595,172.881z"/>
		<path fill="#333333" d="M170.242,188.435c0.419,1.271,0.839,2.542,1.284,3.893c-2.311,0.145-2.768-0.815-2.034-3.646
			C169.742,188.599,169.992,188.517,170.242,188.435z"/>
		<path fill="#333333" d="M155.098,74.248c-3.108-0.032-3.692-1.053-2.405-4.013C153.513,71.602,154.202,72.752,155.098,74.248z"/>
		<path fill="#333333" d="M130.021,180.701c-1.345-1.743-2.332-3.023-3.629-4.704C129.133,176.534,130.5,178.232,130.021,180.701z"
			/>
		<path fill="#333333" d="M121.439,245.74c0.819,0.662,1.638,1.323,2.457,1.985c-1.296,0.15-2.808,2.56-3.561-0.337l-0.047,0.03
			c0.312-0.496,0.623-0.991,0.935-1.487C121.295,245.867,121.367,245.803,121.439,245.74z"/>
		<path fill="#333333" d="M100.288,231.978c0.63,1.122,1.259,2.243,1.974,3.517c-2.548,0.356-3.119-0.463-2.702-3.137
			C99.803,232.231,100.046,232.104,100.288,231.978z"/>
		<path fill="#333333" d="M141.698,185.273c0.232,1.137,0.464,2.274,0.696,3.411c-0.843,0-1.687,0-2.908,0
			c0.692-1.539,1.127-2.506,1.562-3.473C141.265,185.231,141.482,185.252,141.698,185.273z"/>
		<path fill="#333333" d="M127.585,197.632c-0.113,1.256-0.225,2.512-0.394,4.395c-2.539-2.08-1.674-3.35-0.702-4.614
			C126.855,197.485,127.22,197.559,127.585,197.632z"/>
		<path fill="#333333" d="M169.953,180.731c-2.445-1.838-2.325-2.584,0.686-4.031C170.389,178.171,170.188,179.353,169.953,180.731z
			"/>
		<path fill="#333333" d="M159.773,193.008c-0.871,0.644-1.742,1.288-2.869,2.121C156.707,192.066,156.989,191.824,159.773,193.008z
			"/>
		<path fill="#333333" d="M222.442,263.201c0.828-0.454,1.626-1.193,2.493-1.286c0.928-0.1,1.921,0.409,2.577,0.981
			c-1.544,0.278-3.088,0.557-4.632,0.835C222.733,263.554,222.587,263.378,222.442,263.201z"/>
		<path fill="#333333" d="M148.144,221.645c1.282,1.084,2.565,2.168,3.847,3.252c-0.242,0.281-0.484,0.562-0.726,0.843
			c-1.279-1.09-2.557-2.18-3.836-3.27C147.667,222.195,147.906,221.92,148.144,221.645z"/>
		<path fill="#333333" d="M119.256,246.32c-0.273-0.798-0.547-1.595-0.82-2.393c0.24-0.169,0.48-0.337,0.72-0.506
			c0.761,0.773,1.522,1.545,2.283,2.318c-0.072,0.064-0.144,0.127-0.216,0.191c-0.664,0.142-1.327,0.284-1.991,0.426L119.256,246.32
			z"/>
		<path fill="#333333" d="M172.67,292.582c0.158,1.297,0.315,2.594,0.473,3.891c-0.324,0.036-0.649,0.072-0.973,0.109
			c-0.095-1.293-0.191-2.586-0.286-3.878C172.146,292.662,172.408,292.622,172.67,292.582z"/>
		<path fill="#333333" d="M96.369,365.446c-1.507-0.216-3.013-0.431-4.52-0.647c0.041-0.337,0.083-0.675,0.124-1.012
			c1.491,0.138,2.983,0.277,4.474,0.415C96.422,364.617,96.395,365.031,96.369,365.446z"/>
		<path fill="#333333" d="M250.658,225.903c-0.101-0.987-0.201-1.973-0.302-2.96c0.408-0.056,0.815-0.111,1.223-0.167
			c0.178,0.99,0.356,1.98,0.534,2.97C251.628,225.799,251.143,225.851,250.658,225.903z"/>
		<path fill="#333333" d="M161.58,32.343c0.634-0.948,0.989-1.479,1.621-2.424c0.708,1.109,1.223,1.915,1.738,2.721
			c-0.153,0.194-0.307,0.389-0.46,0.583C163.661,32.976,162.844,32.727,161.58,32.343z"/>
		<path fill="#333333" d="M253.32,209.489c0-1.175,0-2.351,0-3.526c0.313-0.01,0.626-0.02,0.939-0.029
			c0.095,1.167,0.191,2.334,0.286,3.501C254.137,209.452,253.729,209.471,253.32,209.489z"/>
		<path fill="#333333" d="M216.458,294.142c0.831,2.733,0.191,3.554-2.376,3.218C214.847,296.324,215.555,295.364,216.458,294.142z"
			/>
		<path fill="#333333" d="M211.691,235.278c0.647-0.676,1.295-1.352,1.942-2.028c0.226,0.483,0.768,1.148,0.615,1.413
			c-0.374,0.649-1.068,1.114-1.634,1.653C212.306,235.97,211.999,235.624,211.691,235.278z"/>
		<path fill="#333333" d="M210.162,271.14c0.783,0.753,1.566,1.506,2.349,2.259c-0.284,0.309-0.568,0.618-0.851,0.928
			c-0.799-0.732-1.598-1.464-2.397-2.196C209.563,271.8,209.863,271.47,210.162,271.14z"/>
		<path fill="#333333" d="M129.68,254.222c-0.89-1.058-1.781-2.116-2.671-3.175c0.181-0.171,0.361-0.342,0.542-0.512
			c0.988,0.994,1.976,1.987,2.964,2.981C130.236,253.751,129.958,253.987,129.68,254.222z"/>
		<path fill="#333333" d="M172.449,198.993c-0.277-1.312-0.553-2.625-0.83-3.937c0.347-0.09,0.695-0.18,1.042-0.269
			c0.36,1.282,0.721,2.565,1.081,3.847C173.311,198.753,172.88,198.873,172.449,198.993z"/>
		<path fill="#333333" d="M137.136,112.722c0.757-0.86,1.515-1.719,2.272-2.579c0.376,0.359,0.751,0.717,1.127,1.076
			c-0.776,0.865-1.551,1.729-2.327,2.594C137.851,113.449,137.493,113.086,137.136,112.722z"/>
		<path fill="#333333" d="M168.233,292.536c0.592,0.691,1.184,1.381,1.776,2.072c-0.301,0.239-0.601,0.477-0.902,0.716
			c-0.521-0.73-1.041-1.459-1.562-2.189C167.774,292.935,168.003,292.735,168.233,292.536z"/>
		<path fill="#333333" d="M231.26,245.405c1.164,1.056,2.937,1.753,2.715,3.624c-0.316,0.166-0.631,0.332-0.947,0.498
			c-0.576-1.385-1.151-2.769-1.727-4.154L231.26,245.405z"/>
		<path fill="#333333" d="M224.804,248.094c0.546-1.008,1.092-2.016,1.637-3.025c0.351,0.186,0.702,0.371,1.054,0.557
			c-0.534,1.015-1.068,2.03-1.602,3.045C225.53,248.48,225.167,248.287,224.804,248.094z"/>
		<path fill="#333333" d="M167.89,162.573c-1.295,1.227-2.768,1.805-4.443,1.651c-0.081-0.29-0.161-0.58-0.242-0.87
			c1.463-0.372,2.926-0.743,4.388-1.115C167.693,162.351,167.791,162.462,167.89,162.573z"/>
		<path fill="#333333" d="M114.489,308.294c-0.885,0.546-1.77,1.092-2.655,1.638c-0.17-0.269-0.34-0.538-0.51-0.806
			c0.88-0.554,1.76-1.108,2.64-1.662C114.139,307.741,114.314,308.018,114.489,308.294z"/>
		<path fill="#333333" d="M166.8,178.005c0,1.081,0,2.161,0,3.242c-0.324,0.016-0.648,0.031-0.972,0.047
			c-0.082-1.06-0.165-2.12-0.247-3.18C165.988,178.077,166.394,178.041,166.8,178.005z"/>
		<path fill="#333333" d="M165.795,155.541c-1.143,0.055-2.287,0.111-3.43,0.166c-0.032-0.338-0.065-0.676-0.097-1.015
			c1.162-0.141,2.324-0.282,3.486-0.423C165.767,154.693,165.781,155.117,165.795,155.541z"/>
		<path fill="#333333" d="M129.06,286.336c0.447,1.13,0.893,2.261,1.34,3.391c-0.243,0.105-0.485,0.21-0.728,0.315
			c-0.618-1.081-1.237-2.161-1.855-3.242C128.232,286.646,128.646,286.491,129.06,286.336z"/>
		<path fill="#333333" d="M155.28,281.305c-0.399-0.6-0.798-1.2-1.197-1.8c0.114-0.138,0.229-0.276,0.343-0.415
			c0.746,0.462,1.492,0.923,2.752,1.703c-1.067,0.261-1.505,0.368-1.943,0.475L155.28,281.305z"/>
		<path fill="#333333" d="M173.398,214.774c0.099,1.281,0.198,2.562,0.297,3.843c-0.25,0.035-0.499,0.07-0.749,0.105
			c-0.254-1.269-0.508-2.538-0.762-3.807C172.589,214.868,172.994,214.821,173.398,214.774z"/>
		<path fill="#333333" d="M98.903,212.076c1.215-0.422,2.431-0.844,3.646-1.265c0.11,0.293,0.219,0.586,0.329,0.879
			c-1.227,0.442-2.455,0.884-3.682,1.326C99.098,212.702,99,212.389,98.903,212.076z"/>
		<path fill="#333333" d="M140.097,150.917c0.05,0.739,0.099,1.479,0.149,2.218c-0.218,0.085-0.436,0.171-0.653,0.256
			c-0.348-0.529-0.875-1.022-0.991-1.598c-0.098-0.488,0.279-1.071,0.445-1.612C139.397,150.426,139.747,150.672,140.097,150.917z"
			/>
		<path fill="#333333" d="M153.915,226.443c0.899,1.115,1.799,2.23,2.698,3.346c-0.183,0.162-0.367,0.325-0.55,0.487
			c-1.016-1.074-2.031-2.148-3.047-3.221C153.316,226.851,153.615,226.647,153.915,226.443z"/>
		<path fill="#333333" d="M142.51,109.855c0.718-0.657,1.437-1.314,2.155-1.971c0.255,0.268,0.51,0.536,0.765,0.804
			c-0.696,0.678-1.392,1.356-2.088,2.034C143.064,110.433,142.787,110.144,142.51,109.855z"/>
		<path fill="#333333" d="M125.727,190.999c-0.099,1.07-0.198,2.141-0.297,3.211c-0.255-0.015-0.51-0.03-0.765-0.044
			c0-1.081,0-2.161,0-3.242C125.02,190.949,125.373,190.974,125.727,190.999z"/>
		<path fill="#333333" d="M183.825,122.426c-0.129-0.6-0.237-0.854-0.185-0.894c0.85-0.635,1.72-1.242,2.585-1.856
			c0.18,0.27,0.361,0.54,0.541,0.809C185.83,121.103,184.895,121.72,183.825,122.426z"/>
		<path fill="#333333" d="M135.85,145.077c0.778-0.286,1.555-0.571,2.333-0.857c0.1,0.443,0.361,1.236,0.275,1.275
			c-0.701,0.322-1.467,0.504-2.213,0.729C136.113,145.842,135.982,145.46,135.85,145.077z"/>
		<path fill="#333333" d="M172.963,203.603c-0.09-1.056-0.181-2.112-0.271-3.169c0.335-0.034,0.671-0.068,1.006-0.102
			c0.14,1.048,0.281,2.096,0.421,3.144C173.733,203.518,173.348,203.56,172.963,203.603z"/>
		<path fill="#333333" d="M175.548,206.198c0.175,1.336,0.35,2.671,0.525,4.007c-0.286,0.039-0.572,0.078-0.858,0.117
			c-0.192-1.341-0.383-2.683-0.575-4.024C174.942,206.264,175.245,206.231,175.548,206.198z"/>
		<path fill="#333333" d="M194.617,182.312c-0.893,1.034-1.787,2.068-2.68,3.102c-0.206-0.179-0.413-0.358-0.619-0.537
			c0.868-1.055,1.735-2.11,2.603-3.165C194.152,181.912,194.385,182.112,194.617,182.312z"/>
		<path fill="#333333" d="M134.814,210.757c0.943,0.55,1.886,1.1,2.829,1.65c-0.163,0.272-0.327,0.543-0.49,0.814
			c-0.944-0.576-1.888-1.152-2.833-1.729C134.485,211.247,134.649,211.002,134.814,210.757z"/>
		<path fill="#333333" d="M174.843,187.982c0.302,1.035,0.605,2.07,0.907,3.104c-0.316,0.097-0.632,0.193-0.948,0.29
			c-0.351-1.041-0.702-2.083-1.053-3.124C174.114,188.162,174.479,188.072,174.843,187.982z"/>
		<path fill="#333333" d="M151.876,189.032c0.887-0.846,1.775-1.692,2.662-2.538c0.18,0.195,0.36,0.389,0.541,0.584
			c-0.906,0.825-1.812,1.65-2.718,2.474C152.199,189.378,152.038,189.205,151.876,189.032z"/>
		<path fill="#333333" d="M134.097,258.078c-0.773-0.704-1.547-1.407-2.32-2.111c0.139-0.165,0.279-0.331,0.418-0.497
			c0.809,0.661,1.618,1.323,2.426,1.984C134.447,257.662,134.272,257.87,134.097,258.078z"/>
		<path fill="#333333" d="M75.427,199.637c-0.065,0.751-0.131,1.501-0.196,2.252c-0.268-0.012-0.536-0.023-0.804-0.035
			c0-0.788,0-1.575,0-2.363C74.76,199.539,75.093,199.588,75.427,199.637z"/>
		<path fill="#333333" d="M94.694,358.987c-0.497-0.823-0.955-1.267-0.98-1.734c-0.016-0.294,0.631-0.885,0.956-0.868
			c0.389,0.02,1.069,0.561,1.055,0.849C95.702,357.704,95.22,358.152,94.694,358.987z"/>
		<path fill="#333333" d="M205.64,237.194c0-1.362,0-2.724,0-4.086c0.194-0.002,0.387-0.004,0.581-0.007c0,1.352,0,2.703,0,4.055
			C206.027,237.169,205.834,237.181,205.64,237.194z"/>
		<path fill="#333333" d="M82.818,413.053c0.148,0.846,0.295,1.692,0.443,2.538c-0.335,0.072-0.67,0.145-1.005,0.217
			c-0.216-0.831-0.431-1.662-0.647-2.493C82.012,413.228,82.415,413.141,82.818,413.053z"/>
		<path fill="#333333" d="M173.503,298.851c0.643,0.595,1.286,1.19,1.929,1.786c-0.171,0.189-0.342,0.379-0.512,0.568
			c-0.654-0.584-1.308-1.167-1.963-1.751C173.139,299.254,173.321,299.053,173.503,298.851z"/>
		<path fill="#333333" d="M152.618,150.512c0.384,0.502,0.621,0.812,0.858,1.123c-0.427,0.313-0.855,0.626-1.282,0.939
			c-0.205-0.303-0.638-0.684-0.566-0.893C151.762,151.286,152.186,150.991,152.618,150.512z"/>
		<path fill="#333333" d="M223.632,294.54c-0.855,0.443-1.402,0.727-2.149,1.114c0-0.929,0-1.559,0-2.525
			C222.283,293.655,222.813,294.003,223.632,294.54z"/>
		<path fill="#333333" d="M153.875,141.283c0.963,0,1.927,0,2.89,0c0.014,0.248,0.027,0.496,0.041,0.744
			c-0.939,0.056-1.878,0.112-2.817,0.169C153.951,141.891,153.913,141.587,153.875,141.283z"/>
		<path fill="#333333" d="M147.377,144.329c-0.838-0.042-1.675-0.085-2.513-0.127c0.004-0.253,0.008-0.507,0.012-0.76
			c0.86,0,1.719,0,2.579,0C147.429,143.737,147.403,144.033,147.377,144.329z"/>
		<path fill="#333333" d="M68.069,192.852c-1.132,0.847-1.471,1.225-1.883,1.341c-0.144,0.04-0.717-0.629-0.658-0.864
			c0.109-0.428,0.487-0.999,0.857-1.091C66.774,192.143,67.284,192.54,68.069,192.852z"/>
		<path fill="#333333" d="M133.85,178.146c-0.585-0.388-1.169-0.776-1.754-1.163c0.133-0.236,0.266-0.472,0.399-0.707
			c0.64,0.313,1.28,0.627,1.92,0.94C134.227,177.526,134.038,177.836,133.85,178.146z"/>
		<path fill="#333333" d="M147.873,32.884c-0.658-0.237-1.315-0.474-1.973-0.711c0.09-0.298,0.18-0.597,0.27-0.895
			c0.707,0.23,1.414,0.459,2.121,0.689C148.152,32.273,148.013,32.579,147.873,32.884z"/>
		<path fill="#333333" d="M164.222,35.335c-0.648-0.191-1.296-0.381-1.944-0.572c0.052-0.248,0.103-0.496,0.155-0.744
			c0.673,0.11,1.346,0.22,2.019,0.329C164.376,34.677,164.299,35.006,164.222,35.335z"/>
		<path fill="#333333" d="M251.982,218.65c0.322-0.63,0.643-1.26,0.965-1.891c0.228,0.104,0.456,0.208,0.685,0.313
			c-0.267,0.668-0.534,1.335-0.801,2.003C252.548,218.933,252.265,218.791,251.982,218.65z"/>
		<path fill="#333333" d="M68.589,196.725c0.171-0.529,0.342-1.058,0.512-1.587c0.349,0.116,0.698,0.232,1.047,0.348
			c-0.207,0.524-0.414,1.048-0.621,1.572C69.215,196.947,68.902,196.836,68.589,196.725z"/>
		<path fill="#333333" d="M125.647,183.899c-0.469-0.579-0.937-1.159-1.406-1.738c0.281-0.261,0.561-0.522,0.842-0.783
			c0.497,0.539,0.994,1.077,1.491,1.616C126.265,183.295,125.956,183.597,125.647,183.899z"/>
		<path fill="#333333" d="M148.425,148.357c0.315,0.943,0.631,1.886,0.946,2.828c-0.373,0.076-0.747,0.153-1.12,0.229
			c0.074-1.032,0.148-2.063,0.222-3.095L148.425,148.357z"/>
		<path fill="#333333" d="M145.441,35.725c0.571-0.483,0.886-0.917,1.288-1.024c0.218-0.058,0.584,0.44,0.883,0.687
			c-0.314,0.312-0.581,0.751-0.959,0.891C146.416,36.367,146.013,36.004,145.441,35.725z"/>
		<path fill="#333333" d="M61.697,188.382c-0.373,0.43-0.736,0.987-0.84,0.942c-0.396-0.17-0.827-0.479-1.001-0.851
			c-0.086-0.182,0.363-0.615,0.57-0.935C60.795,187.783,61.164,188.028,61.697,188.382z"/>
		<path fill="#333333" d="M190.878,142.19c0.11,0.754,0.22,1.508,0.329,2.262c-0.251,0.045-0.502,0.09-0.753,0.135
			c-0.149-0.728-0.297-1.457-0.446-2.185C190.299,142.331,190.589,142.26,190.878,142.19z"/>
		<path fill="#333333" d="M135.303,264.692c-0.629-0.595-1.258-1.19-1.887-1.785c0.205-0.211,0.411-0.422,0.616-0.634
			c0.496,0.727,0.992,1.454,1.487,2.181C135.447,264.534,135.375,264.613,135.303,264.692z"/>
		<path fill="#333333" d="M167.92,168.221c0.041,0.62,0.083,1.239,0.124,1.859c-0.392-0.001-0.784-0.002-1.176-0.003
			c0.071-0.625,0.143-1.249,0.214-1.874C167.362,168.209,167.641,168.215,167.92,168.221z"/>
		<path fill="#333333" d="M175.713,195.643c0-0.702,0-1.404,0-2.106c0.233-0.015,0.466-0.03,0.699-0.045
			c0.067,0.706,0.135,1.413,0.202,2.119C176.314,195.621,176.014,195.632,175.713,195.643z"/>
		<path fill="#333333" d="M195.14,259.235c0.331-0.594,0.662-1.187,0.993-1.781c0.227,0.112,0.454,0.225,0.68,0.337
			c-0.279,0.63-0.557,1.261-0.836,1.891C195.699,259.533,195.419,259.384,195.14,259.235z"/>
		<path fill="#333333" d="M83.197,209.748c0.15-0.615,0.3-1.23,0.449-1.845c0.267,0.045,0.534,0.089,0.802,0.134
			c-0.067,0.632-0.134,1.264-0.201,1.896C83.897,209.871,83.547,209.809,83.197,209.748z"/>
		<path fill="#333333" d="M130.302,256.869c0.325,0.346,0.65,0.693,0.976,1.039c-0.066,0.07-0.133,0.139-0.199,0.209
			c-0.361-0.313-0.723-0.626-1.084-0.939C130.097,257.074,130.199,256.971,130.302,256.869z"/>
		<path fill="#333333" d="M183.643,126.312c-0.561,0.152-1.122,0.304-1.683,0.456c-0.07-0.196-0.14-0.392-0.21-0.588
			c0.532-0.222,1.065-0.444,1.597-0.666C183.446,125.781,183.544,126.046,183.643,126.312z"/>
		<path fill="#333333" d="M205.375,280.134c0.14,0.547,0.28,1.094,0.42,1.641c-0.272,0.06-0.543,0.12-0.815,0.18
			c-0.096-0.558-0.191-1.115-0.287-1.673C204.92,280.233,205.148,280.183,205.375,280.134z"/>
		<path fill="#333333" d="M78.492,204.204c-0.564-0.548-1.128-1.097-1.692-1.645c0.282-0.213,0.563-0.426,0.845-0.639
			c0.363,0.672,0.727,1.345,1.09,2.017C78.655,204.026,78.573,204.115,78.492,204.204z"/>
		<path fill="#333333" d="M181.85,306.029c0.493,0.116,0.986,0.233,1.479,0.349c-0.012,0.118-0.024,0.237-0.036,0.355
			c-0.508,0-1.016,0-1.525,0C181.795,306.498,181.822,306.264,181.85,306.029z"/>
		<path fill="#333333" d="M125.177,197.534c-0.284,0.477-0.569,0.953-0.853,1.43c-0.201-0.091-0.403-0.182-0.604-0.273
			c0.206-0.531,0.411-1.063,0.617-1.594C124.616,197.242,124.896,197.388,125.177,197.534z"/>
		<path fill="#333333" d="M148.473,148.319c-0.341-0.669-0.681-1.339-1.022-2.008c0.325-0.068,0.649-0.136,0.974-0.204
			c0,0.75,0,1.5,0,2.25L148.473,148.319z"/>
		<path fill="#333333" d="M57.748,187.666c0.083-0.565,0.167-1.13,0.25-1.695c0.306,0.065,0.872,0.118,0.876,0.197
			c0.025,0.546-0.067,1.098-0.122,1.648C58.418,187.766,58.083,187.716,57.748,187.666z"/>
		<path fill="#333333" d="M63.855,190.13c-0.079,0.678-0.158,1.356-0.238,2.035c-0.188-0.01-0.377-0.021-0.565-0.031
			c0-0.687,0-1.374,0-2.061C63.32,190.091,63.588,190.111,63.855,190.13z"/>
		<path fill="#333333" d="M175.896,225.354c-0.128-0.526-0.256-1.052-0.384-1.578c0.225-0.075,0.45-0.15,0.675-0.225
			c0.185,0.512,0.369,1.025,0.554,1.537C176.46,225.177,176.178,225.265,175.896,225.354z"/>
		<path fill="#333333" d="M142.105,141.463c-0.424-0.395-0.697-0.65-0.97-0.905c0.208-0.21,0.471-0.628,0.612-0.59
			c0.345,0.094,0.67,0.365,0.914,0.642C142.711,140.667,142.37,141.067,142.105,141.463z"/>
		<path fill="#333333" d="M146.014,85.679c-0.792,0-1.584,0-2.377,0c-0.013-0.096-0.027-0.192-0.04-0.288c0.776,0,1.553,0,2.329,0
			C145.956,85.487,145.985,85.583,146.014,85.679z"/>
		<path fill="#333333" d="M123.151,190.974c-0.234,0.544-0.461,1.093-0.731,1.619c-0.012,0.022-0.626-0.202-0.618-0.24
			c0.118-0.562,0.294-1.112,0.456-1.665C122.556,190.783,122.853,190.878,123.151,190.974z"/>
		<path fill="#333333" d="M145.831,110.721c0.502-0.547,1.005-1.093,1.507-1.64c0.216,0.194,0.432,0.389,0.647,0.583
			c-0.628,0.436-1.257,0.873-1.885,1.309C146.011,110.889,145.921,110.805,145.831,110.721z"/>
		<path fill="#333333" d="M184.952,189.059c-0.543,0.299-1.087,0.597-1.63,0.896c-0.132-0.238-0.263-0.475-0.395-0.713
			c0.566-0.266,1.132-0.531,1.698-0.797C184.734,188.649,184.843,188.854,184.952,189.059z"/>
		<path fill="#333333" d="M81.851,205.832c0,0.629,0,1.258,0,1.887c-0.191,0.018-0.383,0.036-0.574,0.054
			c-0.091-0.613-0.181-1.225-0.272-1.838C81.287,205.901,81.569,205.866,81.851,205.832z"/>
		<path fill="#333333" d="M160.484,181.637c-0.306-0.495-0.578-0.74-0.573-0.979c0.006-0.278,0.256-0.55,0.4-0.825
			c0.243,0.252,0.592,0.468,0.693,0.768C161.068,180.791,160.766,181.105,160.484,181.637z"/>
		<path fill="#333333" d="M154.971,137.869c-0.488-0.317-0.977-0.633-1.465-0.95c0.13-0.201,0.26-0.402,0.391-0.603
			c0.488,0.297,0.977,0.594,1.465,0.891C155.232,137.428,155.101,137.649,154.971,137.869z"/>
		<path fill="#333333" d="M145.695,27.239c-0.467,0.433-0.935,0.865-1.402,1.298c-0.179-0.196-0.357-0.393-0.536-0.589
			c0.474-0.425,0.947-0.85,1.421-1.276C145.35,26.861,145.523,27.05,145.695,27.239z"/>
		<path fill="#333333" d="M164.919,141.338c-0.587,0.273-1.021,0.633-1.222,0.532c-0.296-0.15-0.48-0.613-0.585-0.978
			c-0.024-0.083,0.527-0.496,0.716-0.438C164.157,140.554,164.41,140.902,164.919,141.338z"/>
		<path fill="#333333" d="M71.506,198.954c-0.057-0.525-0.115-1.049-0.172-1.574c0.245-0.042,0.491-0.085,0.736-0.127
			c0.107,0.539,0.213,1.078,0.32,1.617C72.096,198.898,71.801,198.926,71.506,198.954z"/>
		<path fill="#333333" d="M206,270.922c0.54,0.309,1.081,0.619,1.617,0.926c-0.153,0.291-0.263,0.544-0.285,0.537
			c-0.575-0.194-1.14-0.416-1.707-0.633C205.749,271.476,205.874,271.199,206,270.922z"/>
		<path fill="#333333" d="M151.39,179.102c0,0.543,0,1.087,0,1.63c-0.227,0.016-0.454,0.032-0.681,0.048
			c-0.056-0.548-0.113-1.096-0.169-1.645C150.824,179.124,151.107,179.113,151.39,179.102z"/>
		<path fill="#333333" d="M149.666,101.261c0.341,0.64,0.682,1.281,1.024,1.921c-0.219,0.098-0.438,0.195-0.656,0.293
			c-0.229-0.641-0.459-1.283-0.688-1.924C149.452,101.454,149.559,101.357,149.666,101.261z"/>
		<path fill="#333333" d="M170.525,290.092c0.098,0.313,0.245,0.622,0.27,0.941c0.01,0.127-0.252,0.275-0.391,0.413
			c-0.194-0.215-0.387-0.431-0.581-0.646C170.057,290.564,170.291,290.328,170.525,290.092z"/>
		<path fill="#333333" d="M123.906,289.512c-0.395,0.298-0.64,0.621-0.904,0.637c-0.209,0.012-0.441-0.352-0.663-0.549
			c0.257-0.264,0.48-0.596,0.791-0.753C123.23,288.796,123.563,289.208,123.906,289.512z"/>
		<path fill="#333333" d="M142.385,267.512c0.252,0.13,0.504,0.26,0.757,0.39c-0.095,0.17-0.248,0.496-0.277,0.485
			c-0.263-0.097-0.504-0.253-0.752-0.391C142.203,267.834,142.294,267.673,142.385,267.512z"/>
		<path fill="#333333" d="M217.406,286.225c-0.156,0.504-0.311,1.007-0.467,1.511c-0.237-0.056-0.473-0.111-0.71-0.167
			c0.094-0.553,0.188-1.105,0.282-1.658C216.809,286.015,217.108,286.12,217.406,286.225z"/>
		<path fill="#333333" d="M144.992,273.319c0.346,0.385,0.691,0.77,1.037,1.156c-0.084,0.089-0.168,0.178-0.251,0.268
			c-0.418-0.326-0.836-0.651-1.254-0.977C144.679,273.617,144.836,273.468,144.992,273.319z"/>
		<path fill="#333333" d="M229.098,242.612c-0.395-0.461-0.63-0.736-0.866-1.012c0.237-0.181,0.494-0.527,0.708-0.503
			c0.266,0.03,0.609,0.326,0.703,0.585C229.704,241.851,229.379,242.159,229.098,242.612z"/>
		<path fill="#333333" d="M161.039,165.655c-0.235-0.461-0.47-0.922-0.704-1.383c0.205-0.102,0.411-0.203,0.616-0.305
			c0.223,0.467,0.446,0.934,0.67,1.401C161.426,165.463,161.232,165.559,161.039,165.655z"/>
		<path fill="#333333" d="M153.597,161.334c-0.141-0.406-0.303-0.807-0.392-1.224c-0.009-0.043,0.415-0.178,0.638-0.271
			c0.113,0.444,0.227,0.887,0.34,1.331C153.987,161.225,153.792,161.279,153.597,161.334z"/>
		<path fill="#333333" d="M158.603,170.596c0.381,0.466,0.705,0.726,0.814,1.056c0.051,0.154-0.315,0.446-0.492,0.675
			c-0.289-0.243-0.666-0.439-0.828-0.748C158.019,171.429,158.347,171.067,158.603,170.596z"/>
		<path fill="#333333" d="M78.736,203.936c0.332,0.277,0.671,0.546,0.974,0.851c0.018,0.018-0.263,0.331-0.405,0.507
			c-0.271-0.364-0.542-0.727-0.813-1.091C78.573,204.115,78.655,204.026,78.736,203.936z"/>
		<path fill="#333333" d="M156.925,185.289c-0.26,0.214-0.441,0.474-0.598,0.461c-0.168-0.014-0.453-0.305-0.435-0.443
			c0.024-0.188,0.264-0.437,0.454-0.483C156.472,184.794,156.673,185.074,156.925,185.289z"/>
		<path fill="#333333" d="M212.582,262.631c-0.345-0.273-0.69-0.547-1.035-0.82c0.083-0.122,0.167-0.244,0.25-0.366
			c0.392,0.227,0.784,0.455,1.176,0.682C212.843,262.295,212.713,262.463,212.582,262.631z"/>
		<path fill="#333333" d="M85.893,211.855c-0.099-0.575-0.197-1.15-0.296-1.726c0.229-0.043,0.459-0.086,0.688-0.128
			c0.088,0.58,0.176,1.16,0.264,1.74C86.33,211.779,86.111,211.817,85.893,211.855z"/>
		<path fill="#333333" d="M200.053,141.606c-0.26,0.168-0.452,0.292-0.643,0.415c-0.09-0.252-0.247-0.506-0.237-0.754
			c0.004-0.102,0.393-0.293,0.559-0.251C199.869,141.05,199.934,141.368,200.053,141.606z"/>
		<path fill="#333333" d="M218.263,267.027c-0.31-0.458-0.473-0.7-0.637-0.942c0.24-0.15,0.468-0.373,0.726-0.418
			c0.127-0.022,0.456,0.307,0.438,0.444C218.757,266.361,218.534,266.585,218.263,267.027z"/>
		<path fill="#333333" d="M139.465,267.171c-0.246,0.049-0.451,0.132-0.646,0.111c-0.086-0.009-0.148-0.229-0.222-0.353
			c0.196-0.064,0.391-0.162,0.59-0.171C139.258,266.754,139.337,266.972,139.465,267.171z"/>
		<path fill="#333333" d="M223.118,278.832c-0.178,0.238-0.309,0.414-0.441,0.59c-0.191-0.19-0.383-0.381-0.574-0.572
			c0.165-0.15,0.315-0.389,0.5-0.42C222.737,278.409,222.916,278.665,223.118,278.832z"/>
		<path fill="#333333" d="M159.848,283.442c-0.749,0.239-1.006,0.415-1.171,0.351c-0.248-0.096-0.445-0.348-0.628-0.564
			c-0.026-0.03,0.174-0.347,0.231-0.336C158.554,282.946,158.814,283.066,159.848,283.442z"/>
		<path fill="#333333" d="M207.817,284.22c0.055-0.396,0.11-0.791,0.165-1.187c0.149,0.019,0.298,0.039,0.447,0.058
			c-0.052,0.396-0.105,0.793-0.157,1.189C208.12,284.26,207.968,284.24,207.817,284.22z"/>
		<path fill="#333333" d="M139.488,215.287c0.217-0.307,0.344-0.486,0.471-0.665c0.231,0.171,0.52,0.304,0.664,0.529
			c0.062,0.097-0.175,0.386-0.277,0.587C140.086,215.601,139.826,215.465,139.488,215.287z"/>
		<path fill="#333333" d="M231.301,245.373c-0.185-0.502-0.37-1.004-0.555-1.506c0.23-0.027,0.46-0.055,0.69-0.082
			c-0.057,0.539-0.115,1.079-0.174,1.619C231.26,245.405,231.301,245.373,231.301,245.373z"/>
		<path fill="#333333" d="M197.236,248.219c0.259,0.088,0.413,0.14,0.567,0.192c-0.095,0.199-0.16,0.425-0.302,0.581
			c-0.047,0.052-0.428-0.086-0.425-0.12C197.091,248.657,197.172,248.447,197.236,248.219z"/>
		<path fill="#333333" d="M161.736,37.806c-0.377-0.058-0.753-0.117-1.13-0.175c0.052-0.223,0.119-0.643,0.155-0.64
			c0.35,0.025,0.696,0.12,1.042,0.196C161.781,37.393,161.759,37.6,161.736,37.806z"/>
		<path fill="#333333" d="M145.196,169.863c-0.325-0.392-0.674-0.628-0.674-0.863c0-0.258,0.322-0.516,0.504-0.774
			c0.24,0.207,0.628,0.385,0.677,0.63C145.75,169.092,145.447,169.398,145.196,169.863z"/>
		<path fill="#333333" d="M163.371,109.486c-0.438,0.257-0.642,0.457-0.866,0.482c-0.174,0.019-0.373-0.181-0.561-0.283
			c0.141-0.177,0.251-0.448,0.43-0.504C162.546,109.126,162.788,109.293,163.371,109.486z"/>
		<path fill="#333333" d="M155.091,177.536c-0.058,0.136-0.116,0.271-0.173,0.407c-0.173-0.081-0.347-0.161-0.52-0.242
			c0.102-0.116,0.186-0.287,0.313-0.33C154.806,177.338,154.957,177.472,155.091,177.536z"/>
		<path fill="#333333" d="M163.741,112.383c-0.282,0.236-0.441,0.467-0.629,0.494c-0.14,0.02-0.317-0.227-0.478-0.355
			c0.164-0.171,0.302-0.412,0.501-0.487C163.252,111.993,163.467,112.217,163.741,112.383z"/>
		<path fill="#333333" d="M133.771,175.45c0.227-0.208,0.477-0.497,0.521-0.468c0.219,0.143,0.384,0.369,0.568,0.565
			c-0.176,0.123-0.353,0.343-0.528,0.341C134.17,175.887,134.01,175.649,133.771,175.45z"/>
		<path fill="#333333" d="M140.724,175.331c-0.096-0.088-0.192-0.176-0.288-0.264c0.064-0.037,0.157-0.122,0.187-0.104
			c0.112,0.069,0.204,0.172,0.304,0.261C140.859,175.26,140.792,175.295,140.724,175.331z"/>
		<path fill="#333333" d="M175.713,168.754c-0.286,0.151-0.504,0.358-0.635,0.313c-0.167-0.058-0.265-0.319-0.393-0.492
			c0.172-0.125,0.351-0.356,0.514-0.345C175.351,168.238,175.485,168.506,175.713,168.754z"/>
		<path fill="#333333" d="M203.345,242.771c-0.259-0.178-0.442-0.303-0.624-0.428c0.165-0.215,0.33-0.43,0.496-0.645
			c0.156,0.145,0.413,0.273,0.44,0.439C203.685,242.303,203.485,242.508,203.345,242.771z"/>
		<path fill="#333333" d="M106.315,285.513c-0.255,0.18-0.534,0.435-0.58,0.398c-0.206-0.163-0.345-0.411-0.509-0.628
			c0.196-0.102,0.404-0.301,0.585-0.279C105.972,285.024,106.104,285.287,106.315,285.513z"/>
		<path fill="#333333" d="M116.202,108.427c-0.126,0.014-0.253,0.03-0.38,0.031c-0.007,0-0.015-0.129-0.023-0.197
			c0.125-0.013,0.251-0.03,0.376-0.03C116.185,108.231,116.193,108.358,116.202,108.427z"/>
		<path fill="#333333" d="M182.845,148.148c-0.07,0.135-0.138,0.266-0.206,0.397c-0.096-0.081-0.208-0.151-0.28-0.25
			c-0.024-0.033,0.05-0.201,0.084-0.202C182.572,148.088,182.703,148.125,182.845,148.148z"/>
		<path fill="#333333" d="M201.491,265.168c-0.457,0.195-0.678,0.366-0.892,0.357c-0.171-0.007-0.462-0.227-0.467-0.36
			c-0.005-0.17,0.196-0.45,0.359-0.493C200.643,264.632,200.86,264.839,201.491,265.168z"/>
		<path fill="#333333" d="M132.714,261.173c-0.078,0.118-0.157,0.324-0.223,0.32c-0.126-0.007-0.246-0.134-0.368-0.211
			c0.073-0.105,0.145-0.295,0.22-0.297C132.464,260.981,132.589,261.103,132.714,261.173z"/>
		<path fill="#333333" d="M99.027,290.539c0.154,0.293,0.361,0.511,0.318,0.651c-0.052,0.167-0.318,0.267-0.492,0.396
			c-0.127-0.174-0.361-0.354-0.351-0.52C98.511,290.912,98.779,290.773,99.027,290.539z"/>
		<path fill="#333333" d="M122.496,197.097c-0.134,0.242-0.213,0.384-0.293,0.527c-0.169-0.15-0.37-0.279-0.488-0.461
			c-0.036-0.056,0.194-0.385,0.233-0.373C122.142,196.852,122.313,196.986,122.496,197.097z"/>
		<path fill="#333333" d="M212.722,271.246c0.049,0.127,0.098,0.254,0.147,0.38c-0.072,0.023-0.2,0.077-0.207,0.065
			c-0.065-0.117-0.109-0.246-0.159-0.372C212.576,271.295,212.648,271.27,212.722,271.246z"/>
		<path fill="#333333" d="M120.335,247.387c-0.36-0.356-0.719-0.711-1.079-1.067l-0.024,0.037c0.352,0.354,0.704,0.707,1.056,1.061
			L120.335,247.387z"/>
		<path fill="#333333" d="M181.613,300.714c0.181,0.173,0.364,0.306,0.48,0.484c0.035,0.053-0.119,0.23-0.187,0.35
			c-0.171-0.123-0.369-0.224-0.496-0.382C181.37,301.116,181.519,300.913,181.613,300.714z"/>
		<path fill="#333333" d="M147.146,194.982c-0.16,0.057-0.33,0.181-0.453,0.145c-0.121-0.036-0.195-0.233-0.29-0.36
			c0.175-0.078,0.347-0.201,0.525-0.211C146.991,194.552,147.07,194.825,147.146,194.982z"/>
		<path fill="#333333" d="M190.418,309.287c-0.03,0.061-0.044,0.148-0.093,0.177c-0.045,0.027-0.127-0.008-0.193-0.016
			c0.044-0.096,0.088-0.192,0.132-0.288C190.315,309.201,190.366,309.244,190.418,309.287z"/>
		<path fill="#333333" d="M218.201,268.476c-0.103-0.195-0.203-0.384-0.302-0.573c0.147-0.064,0.354-0.221,0.428-0.173
			c0.165,0.107,0.263,0.317,0.388,0.485C218.573,268.287,218.431,268.359,218.201,268.476z"/>
		<path fill="#333333" d="M196.456,250.39c0.066,0.142,0.131,0.283,0.196,0.424c-0.151,0.059-0.316,0.182-0.45,0.155
			c-0.084-0.017-0.123-0.259-0.182-0.399C196.165,250.509,196.31,250.449,196.456,250.39z"/>
		<path fill="#333333" d="M215.864,280.833c-0.258-0.176-0.44-0.3-0.621-0.424c0.165-0.216,0.33-0.432,0.495-0.647
			c0.155,0.145,0.41,0.273,0.436,0.438C216.201,280.368,216.002,280.572,215.864,280.833z"/>
		<path fill="#333333" d="M130.373,159.409c-0.26,0.166-0.442,0.36-0.634,0.372c-0.099,0.006-0.343-0.356-0.301-0.473
			c0.068-0.19,0.317-0.315,0.489-0.467C130.057,159.007,130.186,159.171,130.373,159.409z"/>
		<path fill="#333333" d="M160.63,140.92c-0.282,0.084-0.565,0.168-0.847,0.252c-0.028-0.202-0.056-0.404-0.084-0.606
			c0.291,0,0.583,0,0.874,0C160.591,140.684,160.61,140.802,160.63,140.92z"/>
		<path fill="#333333" d="M167.594,162.24c0.308-0.232,0.616-0.464,0.923-0.697c0.131,0.183,0.262,0.366,0.393,0.549
			c-0.34,0.16-0.68,0.321-1.02,0.481C167.791,162.462,167.693,162.351,167.594,162.24z"/>
		<polygon fill="#333333" points="222.423,276.038 222.234,276.056 222.314,275.882 		"/>
		<path fill="#333333" d="M176.597,149.221c0.034-0.061,0.068-0.121,0.102-0.182c0.032,0.093,0.065,0.186,0.097,0.28
			C176.729,149.286,176.663,149.254,176.597,149.221z"/>
		<path fill="#333333" d="M175.198,142.328c-0.065,0.023-0.131,0.046-0.196,0.069c-0.005-0.104-0.009-0.208-0.014-0.311
			c0.067,0.017,0.153,0.016,0.194,0.058C175.215,142.178,175.195,142.265,175.198,142.328z"/>
		<path fill="#333333" d="M88.404,212.78c0.014,0.14,0.034,0.281,0.032,0.421c0,0.013-0.141,0.023-0.217,0.035
			c-0.01-0.147-0.02-0.295-0.03-0.442C88.261,212.79,88.332,212.785,88.404,212.78z"/>
		<path fill="#333333" d="M150.666,195.708c-0.06-0.054-0.12-0.107-0.18-0.16c0.111-0.079,0.216-0.171,0.338-0.227
			c0.029-0.013,0.114,0.097,0.173,0.151C150.887,195.55,150.776,195.629,150.666,195.708z"/>
		<path fill="#333333" d="M177.545,138.307c-0.131,0.022-0.262,0.042-0.392,0.063c0.002-0.125-0.011-0.254,0.016-0.374
			c0.007-0.032,0.186-0.07,0.202-0.047C177.445,138.057,177.49,138.185,177.545,138.307z"/>
		<path fill="#333333" d="M225.017,243.131c0.03-0.063,0.06-0.125,0.091-0.188c0.064,0.034,0.159,0.054,0.182,0.106
			c0.019,0.042-0.051,0.122-0.081,0.186C225.145,243.2,225.081,243.166,225.017,243.131z"/>
		<path fill="#333333" d="M140.327,193.132c-0.058-0.115-0.114-0.229-0.171-0.344c0.144-0.021,0.289-0.06,0.432-0.054
			c0.046,0.002,0.088,0.123,0.131,0.189C140.588,192.993,140.458,193.063,140.327,193.132z"/>
		<path fill="#333333" d="M162.544,106.797c-0.089,0.121-0.201,0.338-0.247,0.325c-0.2-0.058-0.381-0.183-0.569-0.283
			c0.131-0.089,0.258-0.239,0.396-0.248C162.255,106.58,162.395,106.718,162.544,106.797z"/>
		<polygon fill="#333333" points="143.229,178.662 143.247,178.842 143.076,178.767 		"/>
		<path fill="#333333" d="M149.345,101.551c-0.117-0.333-0.235-0.666-0.352-0.999c0.224,0.236,0.449,0.472,0.673,0.708
			C149.559,101.357,149.452,101.454,149.345,101.551z"/>
		<path fill="#333333" d="M257.003,212.737c0.136,0.071,0.339,0.113,0.369,0.209c0.037,0.118-0.071,0.281-0.116,0.425
			c-0.132-0.066-0.34-0.104-0.375-0.204C256.842,213.053,256.956,212.885,257.003,212.737z"/>
		<path fill="#333333" d="M163.038,115.616c0.3-0.052,0.6-0.105,0.899-0.157c0.023,0.137,0.046,0.275,0.07,0.412
			c-0.3,0.05-0.6,0.101-0.901,0.151C163.084,115.886,163.061,115.751,163.038,115.616z"/>
		<path fill="#333333" d="M124.866,249.311c0.008,0.146,0.023,0.292,0.014,0.437c-0.001,0.015-0.143,0.021-0.22,0.032
			c-0.006-0.15-0.016-0.299-0.007-0.448C124.653,249.32,124.791,249.317,124.866,249.311z"/>
		<path fill="#333333" d="M150.71,53.364c0.69,0.075,1.379,0.151,2.069,0.226c-0.018,0.224-0.036,0.447-0.054,0.671
			c-0.686,0-1.372,0-2.058,0C150.681,53.962,150.695,53.663,150.71,53.364z"/>
	</g>
</g>
</svg>
