<?xml version="1.0" encoding="utf-8"?>
<!-- Generator: Adobe Illustrator 17.1.0, SVG Export Plug-In . SVG Version: 6.00 Build 0)  -->
<!DOCTYPE svg PUBLIC "-//W3C//DTD SVG 1.1//EN" "http://www.w3.org/Graphics/SVG/1.1/DTD/svg11.dtd">
<svg version="1.1" id="Calque_1" xmlns="http://www.w3.org/2000/svg" xmlns:xlink="http://www.w3.org/1999/xlink" x="0px" y="0px"
	 viewBox="0 0 314.869 421.47" enable-background="new 0 0 314.869 421.47" xml:space="preserve">
<g>
	<g>
		<path fill="#333333" d="M271.373,394.317c-1.192,0.849-2.302,1.869-3.602,2.491c-0.968,0.463-2.185,0.392-3.285,0.595
			c-0.903,0.167-1.797,0.387-2.776,0.602c-0.458-0.31-0.981-0.834-1.606-1.023c-0.38-0.115-0.916,0.286-1.381,0.455
			c0.172,0.452,0.231,1.023,0.547,1.324c0.367,0.35,0.959,0.462,1.726,0.797c-4.143,1.06-8.01,2.049-11.897,3.043
			c0-0.389,0-0.681,0-0.958c-1.049-0.288-3.115,1.181-3.729,2.601c-2.352-0.655-3.266-0.261-4.412,1.909
			c-1.774,0-3.556-0.065-5.33,0.029c-0.818,0.043-1.67,0.286-2.42,0.628c-1.73,0.788-3.514,0.912-5.774,0.907
			c0.681-0.627,1.042-0.96,1.759-1.621c-1.522,0.098-2.703,0.417-3.758,0.179c-1.288-0.291-1.216,2.339-2.739,1.104
			c0.6-2.385,2.586-2.741,4.483-3.125c4.713-0.956,9.45-1.8,14.158-2.782c4.57-0.953,9.125-1.98,13.663-3.073
			c0.946-0.228,2.049-0.678,2.618-1.392c0.923-1.158,2.086-1.505,3.364-1.89c0.954-0.288,1.883-0.734,2.736-1.255
			c0.726-0.443,0.494-1.032-0.183-1.565c-2.004,0.762-4.06,1.543-6.134,2.332c-0.177-0.454-0.281-0.721-0.385-0.989
			c-1.754,0.641-3.472,1.136-5.345,0.213c-0.367-0.181-1.164,0.51-2.039,0.634c0.495-0.58,0.922-1.244,1.504-1.718
			c0.58-0.472,1.279-0.88,1.992-1.089c1.433-0.42,2.911-0.686,4.853-1.124c-1.245-1.165-2.165-2.014-3.073-2.877
			c-0.9-0.856-1.873-1.655-2.66-2.606c-1.07-1.295-2.266-1.829-3.906-1.258c-0.428,0.149-0.918,0.121-1.38,0.175
			c0,0,0.011,0.006,0.011,0.006c0.527-0.305,1.028-0.671,1.587-0.897c0.557-0.226,1.036-0.238,1.317-1.049
			c0.203-0.585,1.294-0.863,2.128-1.361c-0.448-0.122-0.874-0.238-1.31-0.356c0.37-1.005,2.243-0.142,2.052-1.864
			c-0.954-0.367-2.436,0.736-2.907-1.073c0.247-0.538,0.548-1.197,0.976-2.131c0.891,0.815,1.716,1.57,2.635,2.411
			c0.157-0.688,0.284-1.249,0.419-1.843c-0.395-0.177-0.795-0.357-1.492-0.67c0.912-0.422,1.569-0.726,2.227-1.03
			c-0.017-0.099-0.033-0.198-0.05-0.297c-2.934,0.304-5.868,0.607-9.001,0.931c0.165-0.637,0.286-1.106,0.426-1.645
			c-0.609-0.262-1.218-0.525-1.924-0.829c-0.929,0.691-1.785,1.516-3.256,0.697c-0.514-0.286-1.66,0.565-2.906,1.046
			c0.602-0.802,1.011-1.347,1.575-2.099c-0.62-0.396-1.105-0.72-1.604-1.021c-1.33-0.802-1.986-2.158-1.544-3.615
			c0.308-1.014-0.084-1.649-0.765-2.253c-0.679-0.602-1.36-1.201-1.898-1.676c0.078-0.878,1.317,0.292,0.982-0.977
			c-0.082-0.311,0.235-0.984,0.5-1.066c0.335-0.104,0.827,0.185,1.207,0.387c0.178,0.094,0.264,0.376,0.373,0.582
			c0.585,1.112,1.361,1.746,2.733,0.858c0.26,0.737,0.458,1.295,0.63,1.782c1.215,0.426,2.372,0.832,3.529,1.236
			c0.147,0.051,0.34,0.175,0.439,0.124c1.917-0.977,3.009,0.536,4.273,1.435c1.052,0.748,2.144,1.203,3.464,1.152
			c1.716-0.066,3.437-0.016,5.154-0.075c0.654-0.022,1.286,0.049,1.709-0.844c0.632-1.334,1.817,0.034,2.745-0.246
			c0.179-0.054,0.536,0.481,0.849,0.781c0.475-0.633,1.05-1.4,1.48-1.973c1.339,0.194,2.441,0.354,3.741,0.542
			c-0.245,0.489-0.461,0.92-0.673,1.345c1.257,0.285,1.319,0.306,1.687-0.769c0.485-1.421,1.315-2.21,2.894-1.952
			c0,2.972,0,5.944,0,8.917c-1.862,0.476-3.7,1.109-5.591,1.384c-1.86,0.271-3.075,0.952-3.318,2.939
			c-0.11,0.9-0.466,1.656-1.705,1.542c-0.044-1.095,1.026-2.061,0.442-3.612c-0.922,1.539-1.655,2.761-2.526,4.214
			c-0.337-0.676-0.544-1.09-0.855-1.712c-0.185,1.007-0.323,1.757-0.461,2.509c0.541,0.955,1.257,1.539,2.455,1.412
			c0.609-0.065,1.24,0.094,1.862,0.121c3.364,0.146,6.702,0.135,9.698-1.757C271.373,385.87,271.373,390.094,271.373,394.317z"/>
		<path fill="#333333" d="M193.189,181.577c-0.532-0.137-1.027-0.264-1.894-0.486c0.673-0.555,1.095-0.902,1.573-1.296
			c0-0.703,0-1.476,0-2.336c-0.457-0.209-0.893-0.408-1.329-0.607c-0.114-0.178-0.227-0.355-0.341-0.533
			c0.656-0.245,1.313-0.489,1.969-0.734c-0.134-0.159-0.268-0.318-0.401-0.478c-0.513-0.116-1.026-0.233-1.538-0.349
			c0.213-0.429,0.486-0.84,0.626-1.291c0.26-0.842,0.442-1.708,0.692-2.706c-0.749,0.035-1.179,0.055-1.589,0.074
			c-0.105-0.191-0.216-0.316-0.244-0.457c-0.125-0.63,1.274-1.156,0.128-1.864c0.621-1.545,0.096-3.076-0.103-4.596
			c-0.222-1.694-0.451-3.405-0.915-5.042c-0.303-1.07,0.078-1.595,0.93-1.993c-0.412-0.75-2.119-0.384-1.312-1.994
			c0.248-0.494-0.363-1.664-0.887-2.252c-1.548-1.739-3.247-3.344-4.898-4.99c-0.095-0.095-0.288-0.092-0.708-0.213
			c-0.217,0.674-0.436,1.355-0.63,1.958c1.738,1.231,3.593,1.857,4.822,3.644c1.277,1.858,1.918,3.645,1.447,5.64
			c-1.444-0.394-2.907-0.811-4.381-1.188c-1.079-0.276-1.937-0.675-1.531-2.195c0.799-0.088,1.612-0.177,2.645-0.29
			c-2.023-0.516-2.023-0.516-3.401,0.213c-0.277,2.304-0.712,4.528-0.768,6.763c-0.059,2.348,0.301,4.704,0.369,7.059
			c0.05,1.739-0.047,3.485-0.131,5.226c-0.145,3.007-0.677,5.944-1.367,8.88c-0.175,0.746,0.254,1.564-0.83,1.882
			c1.049,1.31,1.049,1.31-0.439,2.229c0.227,0.494,0.672,0.998,0.63,1.456c-0.142,1.513-0.532,3.003-0.691,4.516
			c-0.158,1.506-0.28,3.036-0.19,4.542c0.154,2.574-0.405,5.081-0.525,7.627c-0.045,0.945-0.759,1.975-0.531,2.788
			c0.35,1.249-0.42,1.807-1.072,2.56c0.482,0.227,0.816,0.385,1.375,0.649c-0.408,0.307-0.719,0.542-1.052,0.793
			c0.222,0.693,0.911,1.446-0.396,2.011c-0.276,0.119-0.064,1.247-0.18,1.892c-0.131,0.729-0.411,1.43-0.564,2.156
			c-0.146,0.694-0.067,1.47-0.351,2.089c-0.307,0.671,0.555,1.856-1.095,2.078c-0.193-1.918-0.044-3.813,0.18-5.681
			c0.463-3.868,1.04-7.721,1.567-11.581c0.032-0.231,0.102-0.49,0.034-0.697c-1.054-3.24-0.023-6.474,0.021-9.709
			c0.016-1.155-0.049-2.185-0.522-3.351c-0.471-1.158-0.108-2.726,0.118-4.076c0.252-1.507,1.175-2.898,0.7-5.122
			c-1.366,3.441-2.538,6.392-3.868,9.741c-0.868-2.351-0.461-4.365-0.537-6.323c-0.079-2.029-0.018-4.063-0.352-6.097
			c-0.156,7.325-0.312,14.649-0.472,22.148c-0.305-0.248-0.491-0.331-0.488-0.406c0.198-4.91-0.723-9.779-0.29-14.726
			c0.282-3.223-0.338-6.524-0.554-9.79c-0.051-0.777-0.163-1.554-0.15-2.33c0.1-6.091,0.211-12.182,0.348-18.272
			c0.052-2.324,0.178-4.646,0.12-7.003c-0.905,1.923-1.32,4.004-1.076,6.109c0.589,5.091,0.011,10.123-0.405,15.179
			c-0.197,2.385-0.984,4.751-0.405,7.184c0.053,0.223,0.114,0.531,0.007,0.691c-1.215,1.823-0.578,3.956-1.008,5.907
			c-0.133,0.604-0.162,1.241-0.166,1.863c-0.021,3.27-0.077,6.542-0.007,9.811c0.067,3.12,0.173,6.245,0.445,9.352
			c0.351,4.014-0.209,7.897-1.454,11.783c-0.062-0.558-0.168-1.115-0.178-1.673c-0.054-3.275,0.024-6.558-0.174-9.824
			c-0.087-1.437-0.535-2.93-1.16-4.235c-0.645-1.346-0.865-2.638-0.68-4.069c0.033-0.255-0.105-0.532-0.231-1.101
			c-0.622,1.398-1.109,2.493-1.57,3.529c-0.639-2.167-1.396-4.284-1.867-6.463c-0.426-1.974-0.483-4.025-0.803-6.027
			c-0.701-4.388-1.456-8.768-2.215-13.146c-0.124-0.716-0.384-1.409-0.581-2.113c-0.168,0.011-0.336,0.022-0.504,0.033
			c-0.139,0.479-0.394,0.958-0.397,1.438c-0.017,2.417-0.005,4.836,0.068,7.253c0.059,1.949,0.192,3.897,0.345,5.841
			c0.092,1.162,0.325,2.313,0.425,3.475c0.2,2.325,0.373,4.653,0.502,6.983c0.023,0.411-0.222,0.837-0.369,1.346
			c-1.243-0.361-1.49-1.442-1.708-2.199c-0.986-3.439-1.82-6.923-2.63-10.41c-0.524-2.256-0.91-4.543-1.75-6.806
			c-0.483,4.001-0.965,8.001-1.489,12.342c-0.224-0.837-0.441-1.393-0.517-1.968c-0.751-5.716-1.51-11.431-2.198-17.155
			c-0.289-2.4-0.572-4.819-0.579-7.23c-0.009-3.448-1.279-6.506-2.399-9.878c-1.038,0.873-0.769,1.609-0.436,2.416
			c0.746,1.811,0.959,3.702,0.829,5.93c-0.603-1.106-1.051-1.929-1.499-2.752c-0.212,0.052-0.425,0.104-0.637,0.155
			c-0.118,2.528-0.104,5.063,0.011,7.6c0.098,2.173,0.334,4.345,0.309,6.515c-0.011,0.968-0.453,1.954-0.811,2.889
			c-0.358,0.935-0.856,1.816-1.362,2.864c-2.216-1.544-2.746-4.153-3.904-6.349c-0.725-1.375-1.267-2.859-2.096-4.164
			c-1.983-3.12-3.441-6.462-4.632-9.945c-0.654-1.913-1.223-3.918-3.352-4.834c0.026-0.48,0.066-0.864,0.064-1.248
			c-0.006-1.229-1.846-3.291-3.032-3.17c-0.547,0.056-1.091,0.68-1.517,1.153c-0.211,0.234-0.153,0.711-0.28,1.447
			c-0.575-0.561-1.062-0.837-1.242-1.247c-0.81-1.844-2.226-2.473-4.149-2.383c-1.088,0.051-1.092-0.03-1.93-1.192
			c3.134-2.326,6.532-4.455,6.661-9.116c-0.309,0-0.651,0-1.384,0c0.489-0.867,0.875-1.493,1.201-2.148
			c0.327-0.656,0.593-1.341,0.886-2.014c-0.145-0.097-0.289-0.194-0.434-0.291c-0.582,0.472-1.119,1.024-1.763,1.386
			c-0.403,0.226-0.967,0.164-1.458,0.231c-0.062-0.501-0.35-1.133-0.148-1.479c0.824-1.407,1.796-2.728,2.717-4.078
			c0.746-1.094,1.53-2.164,2.227-3.288c0.214-0.345,0.197-0.834,0.334-1.491c-1.789,0.341-2.924,1.323-3.635,2.548
			c-1.116,1.921-1.944,4.01-2.899,6.039c-1.366-1.313-1.297-2.92,0.013-4.359c1.776-1.953,3.353-4.055,4.47-6.828
			c-0.574,0.301-0.853,0.447-1.388,0.727c0.078-1.437,0.146-2.7,0.223-4.114c-0.664,0.507-1.204,0.8-1.576,1.236
			c-0.386,0.452-0.609,1.042-0.917,1.597c-1.003-0.983-1.342-1.872-0.368-3.234c0.938-1.312,1.383-2.967,2.188-4.389
			c0.441-0.78,1.065-1.571,1.807-2.045c2.077-1.327,3.445-2.845,2.778-5.559c-0.393-1.597,0.723-2.741,1.835-3.552
			c1.611-1.175,3.465-1.824,5.504-0.951c0.862,0.369,1.767,0.656,2.582,1.106c1.203,0.664,1.708,1.514,1.843,3.128
			c0.215,2.564,0.53,5.085,0.276,7.667c-0.204,2.077-0.581,4.13-0.266,6.272c0.165,1.122-0.425,2.356-0.697,3.652
			c-0.913-0.138-1.489-0.225-2.064-0.312c-0.131,0.176-0.262,0.352-0.393,0.528c0.414,0.223,0.825,0.453,1.244,0.668
			c1.09,0.559,1.459,1.567,1.69,2.67c0.209,0.994,0.396,1.995,0.664,2.973c0.149,0.545,0.444,1.05,0.673,1.572
			c0.148-0.046,0.295-0.093,0.443-0.139c-0.356-1.954-0.776-3.899-1.04-5.865c-0.119-0.884,0.063-1.81,0.13-2.716
			c0.097-1.294,0.47-2.632,0.252-3.867c-0.231-1.312-0.104-2.459,0.363-3.631c0.62-1.556,2.135-2.176,3.594-1.346
			c0.71,0.404,1.351,1.041,1.831,1.71c0.538,0.751,0.899,1.641,1.267,2.501c1.134,2.647,2.162,5.342,3.368,7.955
			c1.11,2.406,2.008,4.76,0.626,7.356c-0.092,0.172,0.014,0.449,0.043,0.92c0.719,0.272,1.48,0.703,2.29,0.839
			c3.144,0.526,5.762,2.257,8.587,3.532c1.232,0.556,2.671,0.665,4.024,0.935c0.684,0.136,1.539-0.045,2.055,0.304
			c1.941,1.311,4.116,1.74,6.346,2.175c0.897,0.175,1.627,0.618,2.632,0.177c0.649-0.284,1.533-0.018,2.312-0.02
			c2.168-0.007,4.337-0.007,6.505-0.046c0.932-0.017,1.423-0.53,1.424-1.49c0.001-0.938,0.128-1.889,0.021-2.813
			c-0.513-4.413-1.079-8.82-1.654-13.226c-0.036-0.277-0.305-0.523-0.572-0.955c-0.66,0.592-1.245,1.117-1.896,1.701
			c-0.768-0.937-0.503-1.821-0.01-2.477c2.246-2.989,2.057-6.258,1.293-9.628c-0.086-0.379-0.115-0.774-0.137-1.164
			c-0.008-0.137,0.086-0.279,0.229-0.705c0.305,0.613,0.559,1.025,0.723,1.47c0.672,1.833,1.336,3.668,1.964,5.516
			c0.589,1.733,1.478,3.255,2.785,4.556c0.44,0.438,0.679,1.076,1.174,1.894c-0.719,0.059-1.023,0.161-1.28,0.092
			c-1.83-0.49-2.023-0.407-2.042,1.435c-0.027,2.711,0.05,5.422,0.065,8.133c0.009,1.637-0.034,3.275-0.016,4.912
			c0.008,0.759,0.104,1.517,0.17,2.394c1.867,0.012,3.594-0.313,4.741-1.35c1.855-1.679,4.19-2.045,6.323-2.91
			c1.669-0.677,3.533-0.873,5.036-1.219c3.31,6.089,2.262,12.683,3.274,19.015c0.066-0.639,0.132-1.279,0.198-1.918
			c0.125,0.01,0.25,0.02,0.375,0.029c-0.124,1.847-0.247,3.695-0.37,5.537c1.19,0.457,1.85,1.399,1.725,2.481
			c-0.136,1.183-0.875,1.57-2.152,1.255c0.198,3.306,0.235,6.423,0.609,9.499c0.404,3.325-0.246,6.517-0.717,9.747
			c-0.112,0.768-0.368,1.525-0.399,2.294c-0.192,4.755-0.336,9.512-0.506,14.268c-0.013,0.364-0.107,0.724-0.374,1.088
			c-0.372-12.699-1.613-25.279-4.296-37.696c0.394,3.084,0.805,6.167,1.175,9.254c0.185,1.547,0.422,3.103,0.418,4.654
			c-0.022,9.769-0.085,19.537-0.183,29.305c-0.02,2.027-0.305,4.049-0.365,6.077c-0.076,2.571-0.043,5.145-0.066,7.718
			c-0.026,2.882-0.075,5.765-0.089,8.647c-0.004,0.843,0.079,1.686,0.517,2.606c0.178-0.583,0.355-1.166,0.533-1.749
			c0.079,0.006,0.159,0.011,0.238,0.017c0,2.525,0,5.049,0,7.574c-0.073,0.029-0.146,0.058-0.219,0.087
			c-0.16-0.493-0.32-0.985-0.532-1.637c-0.489,4.577,1.417,9.058-0.345,13.974c0.16-8.121-0.594-15.627-1.371-23.146
			c-1.232,2.961,0.2,6.079-1.063,9.067c-0.069-0.638-0.193-1.276-0.198-1.915c-0.043-5.161-0.001-10.323-0.112-15.482
			c-0.086-3.975-0.357-7.946-0.541-11.827c-0.643-0.17-1.335-0.353-2.271-0.6c0.39-0.621,0.645-1.028,0.923-1.471
			c-0.187-0.269-0.404-0.58-0.619-0.889c0.033-0.147,0.024-0.381,0.101-0.414c0.977-0.418,1.057-1.246,1.021-2.137
			c-0.156-3.815-0.277-7.632-0.479-11.445C193.654,187.326,193.399,184.456,193.189,181.577z M164.484,146.453
			c-1.432,0.284-2.791,1.505-3.436,3.074c-0.319,0.776-0.513,1.598,0.518,2.36C162.838,150.186,164.134,148.638,164.484,146.453z"/>
		<path fill="#333333" d="M163.018,380.863c-0.643-0.271-1.299-0.516-1.927-0.819c-1.491-0.718-2.945-1.289-4.674-0.639
			c-0.732,0.275-1.643,0.071-2.491,0.086c-0.018,1.751,0.512,2.541,1.994,3.032c1.43,0.473,2.849,1.351,3.938,2.4
			c1.907,1.838,2.661,2.611,5.376-0.331c-0.229,1.345-0.371,2.186-0.551,3.242c2.625,2.818,5.364,5.775,8.125,8.712
			c0.854,0.908,1.723,1.718,3.092,1.954c1.305,0.224,1.361,1.48,1.594,2.492c-1.004-0.077-1.896-0.05-2.738-0.241
			c-0.653-0.148-1.242-0.572-1.861-0.869c-1.767-0.847-3.307-2.504-5.582-1.56c-0.124,0.052-0.33,0.012-0.456-0.059
			c-3.564-1.993-7.723-0.78-11.422-2.107c-0.608-0.218-1.38,0.007-2.075,0.05c-1.148,0.072-2.296,0.162-2.928,0.207
			c-1.383,0.532-2.304,1.052-3.287,1.231c-2.429,0.443-3.127,1.217-3.003,3.998c-2.148-0.02-3.987-1.105-5.949-1.61
			c-1.908-0.491-3.829-0.909-5.789-1.058c-2.074-0.157-4.158-0.191-6.492-0.289c0.328-0.902,0.542-1.49,0.923-2.539
			c-1.701,0.476-3.088,0.853-4.465,1.26c-0.291,0.086-0.59,0.462-0.815,0.408c-1.71-0.409-2.955,0.697-4.366,1.255
			c-0.29,0.115-0.669,0.371-0.875,0.276c-2.207-1.018-4.125,0.528-6.195,0.647c-0.389,0.022-0.782,0.115-1.165,0.081
			c-1.086-0.097-2.165-0.286-3.252-0.356c-0.96-0.062-1.927-0.013-2.946-0.013c0.113-0.363,0.135-0.606,0.201-0.618
			c4.765-0.903,8.573-3.539,12.244-6.529c1.731-1.41,3.746-2.472,5.864-3.841c0.528,1.724,0.972,3.173,1.467,4.79
			c0.423,0.257,1.065,0.611,1.668,1.023c1.045,0.714,1.649,0.685,2.328-0.365c0.582-0.9,1.006-1.904,1.561-2.98
			c2.489,1.505,4.098-0.447,6.218-1.202c-0.609-1.043-1.122-1.924-1.67-2.863c1.866-0.46,3.024-2.293,5.208-1.597
			c-0.2,0.992-0.41,2.028-0.606,2.999c2.586-0.638,2.839-1.253,3.09-3.594c0.326-3.056-1.108-4.684-3.64-5.794
			c-0.35-0.153-0.626-0.464-0.959-0.665c-1.087-0.658-2.185-1.299-3.557-2.111c0.649-3.625,1.359-7.588,2.095-11.699
			c0.407,0.271,0.879,0.586,1.495,0.997c0-0.433,0-0.724,0-1.027c1.32,0,2.562,0,4.005,0c0.216,0.704,0.436,1.418,0.68,2.213
			c1.398-0.018,2.427-0.756,3.596-1.842c-0.996-0.225-1.77-0.4-2.685-0.606c1.012-0.734,1.818-1.412,2.714-1.938
			c0.814-0.478,1.536-0.22,2.327,0.375c1.872,1.409,3.839,2.698,5.817,3.957c0.638,0.406,1.345,0.276,1.869-0.542
			c-0.846-1.701-2.553-2.176-4.195-2.946c0.033-2.463-1.529-5.293,1.965-6.965c-0.153-1.007-0.306-1.866-1.103-2.786
			c-1.333-1.54-0.773-3.548-0.388-5.35c0.09-0.42,0.871-0.82,1.41-0.993c1.978-0.636,2.232-0.898,2.182-2.939
			c-0.019-0.772-0.134-1.541-0.206-2.325c-0.452-0.058-0.818-0.105-1.174-0.151c-0.049-0.079-0.141-0.175-0.123-0.206
			c0.872-1.472-0.395-2.589-0.584-3.873c-0.388-2.637-0.437-5.324-0.625-7.991c0.158-0.057,0.315-0.113,0.473-0.17
			c1.167,0.929,2.335,1.858,3.704,2.947c-0.077,2.184-1.705,4.551,0.014,7.167c1.087,0.195,2.2,0.741,1.781,2.55
			c-0.088,0.379,0.255,0.86,0.406,1.292c0.204,0.585,0.604,1.172,0.591,1.751c-0.107,5.101,2.314,9.335,4.698,13.532
			c3.474,6.115,7.242,12.053,11.705,17.513c0.937,1.147,2.023,2.17,2.995,3.29c1.273,1.468,2.468,3.005,3.766,4.449
			c0.5,0.556,1.128,1.108,1.81,1.366c1.464,0.554,2.211-0.116,2.079-1.708c-0.039-0.465-0.295-0.985-0.16-1.38
			c0.903-2.634-0.563-4.142-2.462-5.503c-0.5-0.359-0.918-0.832-1.125-1.023c-0.159-1.589-0.288-2.874-0.437-4.366
			c0.235,0.019,0.48,0.038,1.04,0.083c-0.048-2.188-1.575-3.702-2.453-5.481c-0.916-1.855-1.443-3.97-3.656-4.855
			c1.002-0.951,1.564-1.783,0.227-2.899c-0.471-0.394-0.556-1.25-0.881-2.054c0.154-0.096,0.46-0.286,0.766-0.476
			c-0.031-0.144-0.029-0.306-0.099-0.427c-0.194-0.338-0.382-0.69-0.635-0.983c-1.555-1.806-2.348-3.73-2.288-6.274
			c0.057-2.407-0.788-4.836-1.226-7.196c-0.726,0-1.257,0-1.973,0c0.455-1.223,0.824-2.213,1.132-3.039
			c-0.395-0.903-0.724-1.652-1.019-2.328c-0.454-0.068-0.97-0.146-1.487-0.223c0.224-0.643,0.449-1.286,0.689-1.974
			c-1.675-0.273-0.605-1.655-0.643-2.681c2.228,0.061,2.163,0.076,2.628,2.095c0.182,0.789,0.54,1.851,1.144,2.17
			c1.917,1.012,2.194,2.912,2.933,4.386c-0.708,1.272-1.917,2.457-1.803,3.497c0.132,1.205,1.427,2.283,1.991,3.091
			c2.337-0.235,4.345-0.437,6.733-0.677c-0.143,0.813-0.149,1.479-0.389,2.045c-0.27,0.636-0.817,1.151-1.13,1.775
			c-1.165,2.318-2.293,4.659-0.492,7.42c3.568,0.885,4.364-2.518,6.202-4.943c0.273,2.053-1.945,3.554-0.41,5.273
			c-1.72,1.407-1.896,1.582-1.129,3.088c1.9,3.73,3.246,7.732,5.697,11.201c0.775,1.098,1.18,2.541,1.455,3.887
			c0.317,1.551,0.977,2.66,2.253,3.651c0.995,0.772,1.713,1.984,2.328,3.123c0.261,0.483-0.057,1.279-0.123,2.067
			c0.281,0.1,0.709,0.252,1.151,0.408c-0.061,0.383-0.304,0.945-0.143,1.106c0.274,0.275,0.859,0.497,1.212,0.394
			c1.713-0.501,3.893-0.248,5.366,0.777c0.314,0.219,0.578,0.51,0.884,0.785c2.567-1.602,2.961-4.223,3.281-6.798
			c1.236,0.52,2.405,0.888,3.446,1.481c1.276,0.726,2.569,1.507,3.634,2.501c2.451,2.289,4.809,4.682,7.112,7.121
			c0.662,0.701,1.006,1.7,1.565,2.682c-1.034,0.613-1.879,1.114-2.939,1.743c0.539,0.429,0.927,0.739,1.317,1.047
			c0.302,0.239,0.845,0.453,0.871,0.719c0.234,2.333,2.391,3.287,3.577,5.058c-0.468,0.662-1.16,1.055-1.725,0.465
			c-0.888-0.928-1.839-1.981-2.232-3.159c-0.798-2.391-2.438-3.816-4.91-3.67c-0.919,0.054-1.833,0.191-2.996,0.318
			c0.329-0.547,0.633-0.887,0.753-1.283c0.353-1.171-0.236-2.198-1.446-2.455c-0.833-0.176-1.698-0.216-2.552-0.272
			c-1.007-0.065-2.043,0.051-3.02-0.145c-2.706-0.542-5.246,0.182-7.81,0.837c-0.88,2.427-0.88,2.427-3.656,2.388
			c-1.735-0.024-2.947,0.873-3.755,2.454c-0.316,0.617-0.994,1.146-1.63,1.48c-1.014,0.533-2.132,0.869-3.379,1.355
			c-0.185-0.272-0.523-0.6-0.659-0.998c-0.908-2.648-2.99-4.161-5.238-5.527c-0.2-0.121-0.406-0.24-0.581-0.392
			c-2.57-2.226-5.156-4.434-7.688-6.703c-0.643-0.576-1.111-1.349-1.775-2.174c-0.826,0.753-1.578-0.31-2.5-0.601
			c-1.039-0.328-1.072-1.639-2.186-1.863c0.88-2.339-0.481-3.44-2.398-4.679c-0.221,0.942-0.4,1.702-0.579,2.463
			c-1.22-1.305-2.439-2.611-3.672-3.93c-1.08,1.062-0.871,1.701,0.071,2.26C162.004,379.422,163.012,379.677,163.018,380.863z"/>
		<path fill="#333333" d="M70.527,398.997c-0.057,0.454-0.113,0.908-0.192,1.542c1.4,0.118,2.678,0.225,3.956,0.332
			c1.166-1.724,1.661-1.798,3.489-0.805c0.465,0.253,1.118,0.225,1.682,0.214c0.657-0.013,1.31-0.157,1.966-0.229
			c0.209-0.023,0.572,0.071,0.613-0.012c0.98-2.012,2.823-1.332,4.786-1.578c-0.58,0.773-1.021,1.272-1.353,1.835
			c-0.215,0.363-0.479,0.922-0.34,1.206c0.135,0.276,0.76,0.444,1.165,0.435c2.518-0.056,5.042-0.341,7.548-0.215
			c1.659,0.083,3.291,0.725,4.975,1.126c-0.085,0.445-0.174,0.913-0.31,1.632c2.862,0.167,5.559,0.316,8.254,0.488
			c0.525,0.034,1.189-0.02,1.541,0.269c1.227,1.008,2.691,1.074,4.131,1.427c2.646,0.647,5.254,1.497,7.81,2.445
			c2.719,1.008,5.395,2.083,8.363,2.017c0.156-0.004,0.36-0.056,0.462,0.021c1.874,1.405,3.357,0.248,4.848-0.822
			c1.481,1.368,3.339,0.919,5.014,1.208c1.295,0.223,1.229-1.077,1.456-1.856c2.678,0.277,2.678,0.277,3.745-1.172
			c1.279,0.357,2.618,0.731,3.888,1.086c0.809,2.979,1.761,3.405,4.512,2.049c0,0.539,0,1.032,0,1.72
			c1.016-0.032,1.873,0.258,2.298,1.23c1.019-0.933,1.614,0.05,2.309,0.653c2.955-1.991,5.112,0.261,7.709,1.32
			c-0.826,0.832-1.178,1.737-2.693,0.852c-1.178-0.689-2.854-0.466-4.251-0.853c-2.31-0.64-4.72-1.171-6.811-2.272
			c-1.545-0.814-2.985-1.224-4.648-1.141c-0.544,0.027-1.104,0.213-1.627,0.134c-4.753-0.722-9.262,0.604-13.814,1.582
			c-0.942,0.202-1.733,0.374-2.802-0.12c-0.866-0.4-2.521-0.085-3.299,0.555c-1.066,0.877-1.976,0.426-3.092,0.23
			c0.288,0.515,0.463,0.828,0.706,1.264c-0.971,0.191-1.853,0.364-3.001,0.589c0.419-0.862,0.733-1.509,1.123-2.313
			c-1.941-0.475-3.744-0.917-5.547-1.359c-0.129,0.141-0.259,0.283-0.388,0.424c0.625,0.172,1.25,0.344,1.876,0.517
			c-0.153,0.18-0.307,0.36-0.46,0.54c-0.124,0.184-0.227,0.387-0.375,0.548c-0.983,1.066-2.436-0.568-2.982,0.161
			c-1.067,1.425-1.917-0.395-2.786,0.132c-1.38-1.201-3.142-1.055-4.772-1.273c-2.541-0.34-5.112-0.461-7.655-0.791
			c-0.888-0.115-1.829-0.425-2.575-0.908c-2.102-1.363-4.151-2.704-6.744-3.062c-1.018-0.141-1.948-0.924-2.883-1.397
			c-0.325-2.107-0.325-2.107-3.659-2.95c0.548-0.568,0.988-1.025,1.484-1.539c-0.946-0.808-1.917-1.638-2.96-2.529
			c-1.296,1.546-0.073,2.284,1.331,3.456c-0.595,0.296-0.987,0.595-1.423,0.691c-1.669,0.366-3.343,0.766-5.037,0.937
			c-0.575,0.058-1.32-0.404-1.801-0.837c-0.957-0.862-1.981-1.124-3.231-0.956c-1.549,0.208-2.54-0.14-4.057-1.142
			c-0.24-0.158-0.601-0.274-0.869-0.222c-1.429,0.281-2.847,0.621-4.192,0.924c-1.012-0.395-2.056-0.802-3.099-1.209
			c0.855-0.322,1.71-0.644,2.565-0.966c-0.043-0.143-0.087-0.287-0.13-0.43c-1.137,0-2.274,0-3.963,0
			c0.811,0.736,1.185,1.076,1.56,1.416c-4.455,0.735-11.14,0.526-12.576-0.394c0.923-1.736,1.703-2.125,3.494-1.518
			c1.382,0.468,2.626,1.266,4.185,0.277c0.411-0.26,1.848-0.073,1.333,1.35c1.884-0.946,1.949-1.467,0.63-5.631
			c-0.267,0.182-0.518,0.312-0.712,0.501c-0.162,0.157-0.257,0.383-0.377,0.572c-1.378-0.429-2.729-0.849-4.614-1.436
			c1.91-0.756,3.36-1.331,5.025-1.99c0.572,0.212,1.414,0.523,2.371,0.878c-0.126,0.694-0.246,1.356-0.381,2.102
			c1.41,1.044,2.901-0.118,4.309,0.223c1.377,0.333,2.798,0.485,4.44,0.755c-0.66-1.98-2.57-3.641-1.578-6.159
			c-1.828-0.156-3.715,0.938-4.981-0.637c-0.97-1.206-2.587-2.181-2.016-4.349c-1.399,0.579-1.983-0.15-2.091-1.334
			c-0.069-0.76-0.193-1.302-0.992-1.648c-0.876-0.38-1.038-1.092-0.453-1.916c0.544-0.765,1.111-1.286,2.143-0.732
			c0.577,0.309,1.252,0.436,1.958,0.67c0.034,0.736-0.021,1.641,0.136,2.507c0.319,1.757,0.909,3.166,3.095,3.529
			c1.308,0.217,2.464,1.279,3.718,1.9c2.471,1.224,5.088,1.61,7.851,1.637c1.311,0.013,2.656,0.756,3.91,1.334
			c2.62,1.208,5.065,0.912,7.66-0.229c1.596-0.702,3.438-0.954,5.198-1.149c2.38-0.263,4.542-1.099,6.674-2.074
			c0.481-0.22,0.892-0.607,1.31-0.948c0.932-0.761,1.848-1.542,2.72-2.272c1.069,0.9,1.871,1.575,2.672,2.25
			c-0.086,0.133-0.171,0.267-0.257,0.4c-0.552-0.159-1.104-0.318-1.738-0.5c-0.026,0.269-0.126,0.513-0.053,0.683
			c0.544,1.266,0.38,2.102-1.176,2.359c-0.409,0.067-0.726,0.581-1.141,0.756c-0.835,0.352-1.691,0.773-2.571,0.871
			c-1.234,0.138-2.51-0.115-3.745,0.015c-3.3,0.348-6.587,0.812-9.88,1.23c-2.153,2.1-4.9,1.56-7.503,1.758
			c-0.602,0.046-1.181,0.595-1.741,0.959c-0.559,0.363-1.082,0.782-1.621,1.177c0.085-1.276,1.713-1.954,1.44-3.69
			c-1.102,0.766-2.04,1.7-3.235,0.855c-1.062-0.75-2.028-0.412-3.088,0.034c-0.093,2.121,1.126,3.271,2.62,4.17
			C69.097,399.869,69.812,399.433,70.527,398.997z"/>
		<path fill="#333333" d="M174.142,13.108c1.346,1.008,2.484,1.743,3.483,2.634c1.828,1.632,3.123,3.576,3.288,6.072
			c-5.181,2.098-6.077,3.333-4.933,6.909c0.359-0.512,0.63-0.897,0.817-1.163c1.302,0.237,2.545,0.464,4.094,0.746
			c0.846,2.459,1.33,5.24,0.802,8.142c-0.39,2.142-0.651,4.328-1.271,6.404c-0.641,2.147-1.508,4.257-2.532,6.252
			c-1.001,1.95-3.088,1.844-4.936,1.974c-0.689,0.048-1.417-0.057-2.088-0.238c-3.457-0.933-6.937-1.804-10.332-2.929
			c-1.519-0.503-2.949-1.426-4.256-2.381c-1.4-1.023-1.741-2.714-2.012-4.34c-0.152-0.915-0.024-1.899-0.292-2.769
			c-1.295-4.222-0.536-8.438,0.556-12.437c1.617-5.926,5.498-10.478,12.112-11.065c2.008-0.178,3.981-0.586,6.018-0.364
			C173.533,14.649,174.456,14.56,174.142,13.108z M159.814,26.706c1.079,1.633,2.51,2.11,3.864,2.568
			c1.992,0.674,3.37-1.247,5.2-1.294c-0.166-2.304,0.793-3.516,3.158-3.693c-2.395-1.175-4.763-1.594-7.319-1.449
			c0.183,0.388,0.336,0.71,0.424,0.897C163.375,24.719,161.654,25.679,159.814,26.706z M176.718,36.446
			c-4.704-0.706-4.884-0.684-6.628,0.814C173.067,38.996,175.652,38.679,176.718,36.446z M169.682,43.008
			c2.452-1.336,5.013-2.099,7.938-1.722c-0.471-0.607-0.984-1.21-1.604-1.355C173.236,39.28,171.318,40.788,169.682,43.008z
			 M172.176,45.684c0.053,0.191,0.106,0.381,0.159,0.572c1.19-0.191,2.404-0.291,3.565-0.596c1.388-0.365,1.438-0.593,1.079-2.478
			c-0.291,0.065-0.613,0.065-0.858,0.203C174.795,44.133,173.489,44.914,172.176,45.684z"/>
		<path fill="#333333" d="M51.268,357.233c1.063-0.332,2.349-0.188,2.858-1.541c1.277,1.246,2.24,1.561,3.256,0.612
			c1.552-1.449,3.534-1.462,5.494-2.302c-0.108,1.207-0.464,1.95-1.406,2.403c-0.908,0.436-1.483,1.035-1.26,2.213
			c0.2,1.056-0.72,1.465-1.478,1.854c-0.696,0.357-1.498,0.549-1.361,1.628c0.014,0.113-0.59,0.244-0.815,0.463
			c-0.393,0.382-0.714,0.838-1.065,1.263l0.012-0.018c-1.021,0.299-2.042,0.598-3.141,0.92c-0.393-0.109-0.983-0.272-1.572-0.435
			c0.219-0.46,0.438-0.92,0.648-1.36c-2.761-1.785-2.761-1.785-3.909,0.046c1.477,1.557,1.477,1.557,3.284,1.294
			c-0.093,0.825-0.186,1.651-0.293,2.602c-0.466,0.134-1.003,0.289-1.725,0.497c1.443,1.691,0.968,4.15,2.92,5.369
			c-1.104,0.328-2.207,0.656-3.311,0.984c-0.113,0.108-0.21,0.282-0.342,0.313c-1.621,0.386-2.857,1.15-3.676,2.738
			c-0.679,1.317-1.919,0.346-3.017,0.304c0.182-2.647,1.929-4.236,3.706-6.102c0.293,0.525,0.499,0.894,0.797,1.43
			c0.4-0.19,1.025-0.289,1.26-0.646c0.321-0.488,0.66-1.52,0.446-1.713c-1.172-1.055,0.151-1.936,0.171-3.257
			c-0.949,0.747-1.636,1.288-2.638,2.077c0.244-0.965,0.41-1.623,0.592-2.345c-1.641-0.333-1.316,1.395-2.32,1.835
			c-0.987-1.175,1.077-2.009,0.329-3.043c-1.518,0.59-2.169,1.161-4.287,3.802c-1.186-0.422-0.256-1.332-0.505-2.167
			c-2.341,1.644-4.102,3.75-5.874,5.86c-0.989,1.177-2.106,2.247-3.165,3.366c-0.475,0.502-1.059,0.945-1.38,1.531
			c-0.205,0.374-0.21,1.164,0.041,1.401c0.289,0.273,1.104,0.363,1.436,0.145c0.819-0.539,1.492-1.3,2.496-1.826
			c-0.353,0.682-0.707,1.363-1.274,2.458c0.698-0.354,1.035-0.528,1.375-0.696c0.477-0.236,0.951-0.638,1.436-0.654
			c0.466-0.016,1.149,0.252,1.36,0.614c0.193,0.332-0.043,0.987-0.231,1.442c-0.139,0.337-0.589,0.541-0.748,0.876
			c-0.191,0.404-0.327,0.894-0.287,1.329c0.031,0.338,0.308,0.715,0.58,0.958c0.848,0.76,1.746,1.465,2.801,2.338
			c-0.484,1.002-1.143,2.367-1.778,3.683c1.514,1.412,3.775,0.174,5.088,1.846c-0.739,1.407-1.839,2.758-0.212,4.474
			c-1.51,1.041-2.877,1.983-4.339,2.991c-2.206-1.416-4.431-0.213-6.888-0.268c0.448-0.277,0.882-0.58,1.346-0.826
			c1.878-0.997,1.941-1.624,0.458-3.06c-0.83-0.804-1.507-1.767-2.253-2.658c-0.598-0.715-1.184-1.44-1.8-2.14
			c-0.714-0.813-1.546-1.538-2.158-2.419c-0.662-0.951-1.289-1.848-2.201-2.634c-0.751-0.647-1.183-1.802-1.469-2.813
			c-0.269-0.952-0.068-2.027-0.244-3.018c-0.221-1.239,0.309-1.895,1.352-2.39c1.534-0.727,2.569-1.855,3.278-3.48
			c0.432-0.99,1.476-1.801,2.407-2.465c1.763-1.256,2.721-2.82,2.973-5.009c0.216-1.878,1.771-2.726,3.846-2.332
			c-0.153,0.434-0.261,0.863-0.453,1.25c-0.2,0.403-0.481,0.766-0.797,1.256c1.559-0.347,1.559-0.347,4.437-4.479
			c-1.393-0.786-2.779-1.569-4.214-2.379c1.417-1.045,3.608-0.984,4.78,0.473c1.176,1.462,2.267,1.315,3.674,0.678
			c0.994-0.45,2.089-0.694,3.046-1.204c0.718-0.383,1.29-1.042,2.164-1.777c-1.983-1.961-3.911-3.582-5.869-5.132
			c0.901-0.804,1.418-1.08,2.769-0.215c2.032,1.301,4.339,1.446,6.555,2.049c-0.961,1.588-0.961,1.588,0.299,3.155
			c-0.582,0.178-1.178,0.539-1.742,0.494c-1.141-0.09-1.558,0.593-2.135,1.39c1.199-0.069,2.209-0.128,3.295-0.191
			C50.886,358.391,51.077,357.812,51.268,357.233z"/>
		<path fill="#333333" d="M217.407,253.062c-1.737-1.006-1.67-3.182-3.039-4.836c0,1.45,0,2.579,0,3.707
			c-1.573-3.134-2.498-6.422-3.026-9.837c-0.341,4.665,1.247,9.182,0.772,13.83c-1.158-3.073-1.61-6.235-1.821-9.499
			c-0.301-4.653-0.971-9.282-1.46-13.924c-0.466-4.423-0.914-8.848-1.345-13.274c-0.219-2.251-0.367-4.51-0.585-6.761
			c-0.042-0.439-0.256-0.861-0.509-1.666c-0.184,0.91-0.287,1.419-0.39,1.929c0.198-4.675,0.442-9.339,2.406-14.23
			c0.371,0.814,0.587,1.159,0.689,1.535c0.384,1.421,0.811,2.837,1.074,4.282c0.572,3.139,1.079,6.29,1.565,9.443
			c0.546,3.542,0.973,7.105,1.592,10.634c0.211,1.203,1.026,2.297,1.251,3.499c0.385,2.06,0.51,4.168,0.77,6.252
			c0.14,1.12,0.284,2.243,0.512,3.347c0.711,3.437,1.563,6.849,2.166,10.304c0.436,2.496,0.575,5.045,0.809,7.573
			c0.024,0.262-0.203,0.547-0.526,1.346c-0.385-1.547-0.648-2.602-0.911-3.658L217.407,253.062z"/>
		<path fill="#333333" d="M209.891,274.651c-0.736-1.282-1.429-2.591-2.221-3.837c-0.631-0.991-1.226-1.953-1.084-3.402
			c0.527,0.108,1.267,0.139,1.289,0.282c0.342,2.208,2.497,3.191,3.336,5.131c1.031,2.385,2.712,4.482,3.999,6.767
			c2.033,3.609,5.278,6.094,8.198,8.851c1.673,1.58,3.309,3.164,4.724,4.966c0.495,0.63,0.813,1.399,1.211,2.105
			c-0.146,0.096-0.292,0.193-0.438,0.289c-0.619-0.694-1.238-1.389-1.857-2.083c-0.143,0.094-0.285,0.189-0.428,0.283
			c0.814,1.33,1.416,2.884,2.51,3.919c0.871,0.824,0.977,2.207,2.306,2.691c0.565,0.206,0.353,1.027-0.348,1.173
			c-0.491,0.102-1.04-0.07-1.657,0.017c2.414,0.683,4.547,1.759,5.525,4.185c0.433,1.074,0.443,2.256-0.238,3.695
			c-0.942-0.958-1.774-1.731-2.522-2.578c-2.301-2.605-5.084-4.621-7.954-6.518c-6.244-4.129-11.082-9.577-15.048-15.856
			c-2.369-3.751-4.752-7.495-7.041-11.294c-0.575-0.954-0.813-2.11-0.88-3.308c2.513,3.969,4.886,8.037,7.579,11.879
			c2.689,3.835,5.109,7.948,9.093,10.706c-1.309-1.641-2.657-3.253-3.919-4.93c-2.823-3.75-5.228-7.77-7.069-12.078
			c-0.739-1.729-0.891-3.708-0.939-5.744c1.294,1.561,2.588,3.121,3.882,4.682c-0.097,4.876,3.091,10.956,6.5,12.212
			c-0.667-0.698-1.338-1.253-1.827-1.938c-1.794-2.514-3.838-4.909-3.634-8.344C210.974,275.955,210.259,275.293,209.891,274.651z"
			/>
		<path fill="#333333" d="M140.458,212.2c-1.697-2.595-3.379-5.201-5.113-7.772c-0.209-0.31-0.702-0.429-1.488-0.881
			c1.174,2.804,1.025,5.177,0.284,7.622c-0.322,1.06-0.054,2.299-0.054,3.646c-0.808-0.515-1.82-0.27-2.67-1.196
			c-1.043-1.136-2.292-0.652-2.799,0.925c-0.284,0.883-0.308,1.848-0.574,2.739c-0.913,3.066-1.883,6.115-2.825,9.173
			c-0.113,0.366-0.357,0.806-0.249,1.107c0.708,1.98-0.208,3.654-0.849,5.41c-0.317,0.869-0.374,1.829-0.61,2.731
			c-0.413,1.572-0.842,3.14-1.321,4.692c-0.778,2.519-1.502,5.062-2.432,7.525c-1.365,3.615-2.023,7.469-4.354,10.77
			c-1.31,1.855-1.816,4.286-2.625,6.48c-0.466,1.266-0.813,2.576-1.213,3.866c-0.417,0.141-0.983,0.334-1.933,0.656
			c0.199-0.967,0.291-1.77,0.53-2.526c2.497-7.899,4.995-15.797,7.537-23.682c3.453-10.711,6.945-21.41,10.423-32.113
			c0.168-0.518,0.366-1.025,0.683-1.907c0.279,0.693,0.449,1.114,0.702,1.741c0.789-0.85,0.742-1.834,0.384-2.568
			c-0.595-1.22-0.241-2.274,0.111-3.391c0.983-3.115,1.964-6.23,3.048-9.67c1.484,1.337,2.287,2.842,2.544,4.271
			c0.313,1.747,0.773,3.298,1.775,4.739c0.288,0.415,0.361,0.979,0.696,1.949c0.185-0.883,0.268-1.276,0.397-1.895
			c1.502,1.512,1.961,3.36,2.475,5.18C140.777,210.615,140.617,211.407,140.458,212.2z"/>
		<path fill="#333333" d="M151.841,106.168c-0.284-2.101-0.539-3.984-0.824-6.092c2.197,0.211,4.511,0.111,6.719,1.001
			c0.847,0.341,1.681,0.884,2.595,0.035c0.176-0.163,0.909-0.084,1.022,0.103c0.686,1.134,2.024,1.106,2.936,1.255
			c1.288,0.211,1.038,0.836,1.086,1.43c0.501-0.119,1.261-0.524,1.528-0.312c0.424,0.338,0.518,1.088,0.749,1.658
			c0.159-0.088,0.484-0.267,0.703-0.388c1.128,0.701,2.133,1.396,3.205,1.965c0.631,0.334,1.536,0.555,1.177,1.394
			c-0.25,0.586-1.043,0.985-1.665,1.345c-0.281,0.163-0.735,0.028-1.107,0.028c-0.1,2.971-2.206,5.345-5.31,5.9
			c-3.647,0.653-7.205-0.064-10.564-1.343c-2.238-0.852-3.372-3.157-4.719-5.056c-0.483-0.68-0.189-1.36,0.505-1.798
			C150.464,106.922,151.082,106.599,151.841,106.168z"/>
		<path fill="#333333" d="M192.452,101.381c0.52-0.867,0.451-1.903-0.373-2.241c-0.687-0.282-1.675,0.168-2.648,0.312
			c1.146-4.069,4.695-6.11,7.473-9.031c0.426,0.383,0.916,0.656,1.154,1.073c0.576,1.009,1.078,2.067,1.521,3.142
			c0.191,0.464,0.406,1.205,0.185,1.499c-0.829,1.1-0.11,1.693,0.879,2.441c-0.68,0.214-1.385,0.523-1.437,0.438
			c-0.453-0.751-0.791-1.573-1.227-2.513c-0.074,0.07-0.244,0.245-0.427,0.406c-0.232,0.204-0.473,0.397-0.756,0.633
			c0.395,0.279,0.912,0.483,1.152,0.862c0.212,0.336,0.116,0.867,0.16,1.36c0.042,0.017,0.179,0.114,0.32,0.122
			c0.895,0.049,2.452-0.167,2.572,0.156c0.525,1.418,0.819,2.989,0.827,4.507c0.005,0.942-0.564,1.934-1.032,2.821
			c-0.655,1.24-1.798,1.575-3.177,1.076c-0.36-0.13-0.696-0.327-0.993-0.469c-5.07,2.639-5.07,2.639-7.167,2.348
			c-1.394-2.116-0.653-3.768,1.062-5.284c1.039-0.919,1.97-1.959,3.142-3.139c-0.532-0.167-0.792-0.248-1.051-0.329
			C192.555,101.507,192.503,101.444,192.452,101.381z"/>
		<path fill="#333333" d="M55.491,363.824c2.837-1,5.695-0.262,8.524,0.005c0.842,0.08,1.659,0.82,2.412,1.364
			c1.002,0.725,1.99,1.492,2.866,2.36c0.493,0.489,0.749,1.217,1.199,1.986c0.314,0.038,0.954,0.008,1.515,0.203
			c1.295,0.451,1.785,1.347,1.633,2.727c-0.073,0.669-0.153,1.338-0.277,2.425c1.198-0.743,2.014-1.283,2.865-1.76
			c0.373-0.209,0.873-0.489,1.223-0.394c1.764,0.479,3.498,1.071,5.503,1.706c-1.027,2.042-1.883,3.94-2.951,5.709
			c-0.228,0.377-1.333,0.554-1.852,0.353c-0.939-0.363-1.645-0.207-2.384,0.316c-0.346-0.353-0.691-0.707-1.037-1.06
			c-0.055-0.683-0.109-1.367-0.188-2.358c-0.565,0.389-0.892,0.614-0.967,0.666c-1.129-0.759-2.064-1.68-3.183-2.066
			c-1.398-0.482-1.791-1.269-1.598-2.714c-2.618,0.179-3.706-2.092-5.405-3.434c-1.747-1.379-3.444-2.827-5.253-4.118
			c-0.4-0.286-1.178-0.042-1.908-0.042c-0.234-0.612-0.478-1.251-0.723-1.89L55.491,363.824z"/>
		<path fill="#333333" d="M88.471,315.104c0.831-1.041,1.73-1.491,2.941-1.82c3.359-0.91,6.663-2.065,9.922-3.296
			c3.787-1.431,7.682-2.721,11.217-4.647c8.826-4.81,17.7-9.579,25.712-15.729c1.043-0.8,1.925-1.807,2.936-2.653
			c0.836-0.699,1.355-1.961,3.012-1.773c-0.655,1.611-1.636,2.77-2.869,3.698c-3.301,2.486-6.658,4.897-9.953,7.392
			c-4.568,3.459-9.552,6.201-14.694,8.683c-5.827,2.812-11.404,6.165-17.606,8.167c-1.185,0.383-2.383,0.725-3.582,1.063
			c-1.419,0.401-2.847,0.767-4.266,1.169C90.353,315.61,89.467,316.032,88.471,315.104z"/>
		<path fill="#333333" d="M212.985,117.188c1.493,0.776,2.997,1.527,3.393,3.611c-0.613-0.041-1.115-0.074-1.618-0.107
			c-0.942,2.513-0.351,3.409,3.042,4.482c0,0.333,0.054,0.71-0.015,1.064c-0.072,0.37-0.262,0.716-0.518,1.374
			c-1.544-1.226-2.96-2.351-4.643-3.687c-1.237,1.679-2.471,3.356-3.706,5.033c-0.152-0.037-0.303-0.074-0.455-0.111
			c0-1.046-0.231-2.156,0.042-3.125c0.964-3.427,0.737-7.16,2.754-10.328c0.651-1.022,0.185-1.995-1.377-3.969
			c-0.77,0.604,0.672,1.943-0.796,2.299c-0.061-0.205-0.198-0.419-0.169-0.608c0.449-2.913,0.284-5.672-1.409-8.264
			c-0.552-0.846-0.568-2.042-0.869-3.232c1.17-0.047,1.565,0.562,1.835,1.316c0.368,1.027,0.664,2.084,1.086,3.087
			c0.807,1.917,1.423,3.936,3.299,5.228c0.943,0.649,1.35,1.592,0.813,2.86C213.271,115.063,213.202,116.159,212.985,117.188z"/>
		<path fill="#333333" d="M188.314,221.151c-0.558-3.144-1.182-6.277-1.653-9.434c-0.367-2.459-0.577-4.944-0.8-7.423
			c-0.342-3.795-0.658-7.594-0.944-11.394c-0.198-2.64-0.354-5.284-0.481-7.928c-0.169-3.498-0.305-6.998-0.427-10.499
			c-0.028-0.82,0.058-1.643,0.092-2.465c0.159-0.02,0.318-0.039,0.477-0.059c0.169,0.455,0.451,0.901,0.489,1.367
			c0.367,4.497,0.637,9.003,1.048,13.496c0.382,4.179,0.91,8.344,1.357,12.518c0.266,2.477,0.568,4.953,0.735,7.438
			c0.267,3.966,0.472,7.937,0.613,11.909c0.029,0.813-0.337,1.64-0.521,2.461L188.314,221.151z"/>
		<path fill="#333333" d="M159.135,63.393c-0.417-1.523-2.104-1.392-3.083-2.67c-0.233,0.624-0.39,1.043-0.547,1.463
			c-0.155-0.114-0.309-0.229-0.464-0.343c-0.155-0.962-0.31-1.925-0.512-3.18c0.814,0.342,1.397,0.586,1.98,0.831
			c0.046-0.06,0.092-0.119,0.139-0.179c-0.684-0.576-1.443-1.085-2.031-1.747c-0.565-0.636-1.449-1.348-0.274-2.536
			c0.865,0.808,1.695,1.588,2.53,2.363c2.996,2.778,6.672,3.59,10.589,3.478c1.75-0.05,3.339-0.693,4.318-2.371
			c0.34-0.582,0.902-1.034,1.382-1.567c0.755,1.206,0.674,2.051-0.326,2.948c-1.202,1.079-2.432,2.138-4.072,2.521
			c-1.122,0.302-2.025,0.881-2.508,1.989c-0.586,0.142-1.172,0.284-1.771,0.429c0.19,0.311,0.378,0.618,0.635,1.037
			c-0.632,0-1.153,0-1.865,0c0.795,0.608,1.373,1.05,2.127,1.627c-1.336,0.989-2.082,0.199-2.815-0.409
			c-0.821-0.681-1.59-1.424-2.382-2.14C159.834,64.425,159.484,63.909,159.135,63.393z"/>
		<path fill="#333333" d="M166.254,64.395c0.483-1.108,1.386-1.687,2.508-1.989c0.869,0.344,1.044,0.975,0.968,1.872
			c-0.103,1.22-0.026,2.454-0.026,3.622c2.508,0.603,2.8,0.358,4.898-4.123c0.181,1.07,0.626,1.964,0.349,2.401
			c-0.681,1.076-1.519,2.387-2.605,2.815c-4.357,1.719-8.806,1.464-13.176-0.161c-0.653-0.243-1.254-0.623-1.89-0.914
			c-0.85-0.389-1.515-0.824-1.011-1.944c0.546-1.214,1.31-0.644,2.398-0.042c-0.66-1.181-1.123-2.009-1.824-3.263
			c1.058,0.334,1.675,0.53,2.292,0.725c0.35,0.516,0.699,1.032,1.049,1.547c1.573,3.274,2.537,3.921,5.334,3.553
			C165.762,67.136,166.008,65.766,166.254,64.395z"/>
		<path fill="#333333" d="M152.18,16.546c-1.114-2.509,0.299-4.502,1.414-6.507c0.523-0.941,1.435-1.662,1.997-2.588
			c0.842-1.387,2.143-1.408,3.475-1.382c0.354,0.007,0.763,0.199,1.044,0.43c0.871,0.718,1.127,2.773,0.647,4.173
			c-0.445,1.299-1.46,1.868-2.675,1.92c-1.475,0.063-2.521-0.677-2.85-2.219c-0.012-0.055-0.102-0.093-0.512-0.057
			c0.249,0.813,0.364,1.702,0.775,2.422c0.741,1.299,0.417,2.443-0.345,3.483c-0.815,1.112-1.936,0.69-2.985,0.308L152.18,16.546z"
			/>
		<path fill="#333333" d="M183.721,73.28c-0.488,0.194-0.756,0.3-1.089,0.432c-0.078-0.251-0.264-0.557-0.189-0.648
			c1.616-1.947,3.262-3.869,5.241-6.195c0.139,2.843-1.288,4.606-1.894,6.607c-0.63,2.08-1.296,4.149-1.977,6.213
			c-0.664,2.014-1.367,4.015-2.438,5.953c-0.504-1.545-1.009-3.09-1.418-4.344c0.11-2.217,0.245-4.213,0.296-6.211
			c0.045-1.759-0.001-3.521,0.78-5.176c0.704,2.52,0.497,5.029,0.053,7.543c-0.393,2.23-0.333,2.76,0.486,4.582
			C182.283,79.138,182.97,76.341,183.721,73.28z"/>
		<path fill="#333333" d="M229.339,400.036c-0.67-1.587-1.161-2.718-1.625-3.86c-0.426-1.049,0.006-1.576,1.06-1.846
			c0.947-0.243,2.197,0.028,2.612-1.321c0.022-0.072,0.303-0.131,0.433-0.093c2.47,0.737,5.332-0.118,7.814,2.049
			C236.254,396.782,232.259,396.899,229.339,400.036z"/>
		<path fill="#333333" d="M188.046,164.333c-0.26-0.832-0.464-1.487-0.756-2.421c-0.907,1.015-2.004,1.217-2.722,0.275
			c-0.686-0.9-2.547-1.399-1.534-3.157c2.144-0.647,3.809,0.585,5.549,1.331c0.402,0.173,0.681,0.985,0.74,1.533
			c0.115,1.069,0.034,2.159,0.034,3.596c-1.9,1.162-4.108,1.638-6.713,0.796c0.125-0.81,0.237-1.538,0.403-2.617
			C184.67,163.885,186.3,164.101,188.046,164.333z"/>
		<path fill="#333333" d="M112.113,304.053c1.942-4.713,11.264-11.12,15.432-10.666c-0.453,1.262-1.614,1.544-2.586,1.739
			c-2.021,0.406-3.449,1.655-4.399,3.239c-1.039,1.734-2.539,2.701-4.193,3.579C115.026,302.657,113.647,303.297,112.113,304.053z"
			/>
		<path fill="#333333" d="M110.265,300.673c-0.517,0.567-0.755,0.943-1.091,1.181c-3.988,2.83-7.962,5.681-12.007,8.427
			c-1.042,0.707-2.294,1.244-4.074,0.57c1.842-1.989,3.516-3.737,5.765-4.852c3.471-1.721,6.945-3.435,10.423-5.142
			C109.459,300.769,109.686,300.777,110.265,300.673z"/>
		<path fill="#333333" d="M140.458,212.2c0.159-0.792,0.319-1.585,0.478-2.377c0.34,0.303,0.803,0.542,1,0.92
			c1.762,3.375,3.477,6.775,5.167,10.09c-0.679,0.764-1.285,1.445-1.815,2.041c-0.143-0.547-0.346-1.323-0.549-2.098
			c-0.132-0.002-0.265-0.004-0.397-0.007c-0.244,0.589-0.488,1.178-0.745,1.798c-0.979-2.091-0.979-2.091-0.406-3.508
			C142.195,216.56,141.326,214.38,140.458,212.2z"/>
		<path fill="#333333" d="M48.407,373.724c1.104-0.328,2.207-0.656,3.311-0.984c0.665,2.251,0.828,4.492-0.2,7.031
			c-0.294-0.592-0.472-0.953-0.756-1.525c-0.874,1.863-2.63-0.3-3.485,0.941c-0.686-0.576-1.259-1.056-1.914-1.605
			c0.498-0.983,0.775-2.093,2.207-2.384C47.933,375.124,48.132,374.237,48.407,373.724z"/>
		<path fill="#333333" d="M255.653,348.491c-0.113,1.246-0.249,2.762-0.388,4.298c-2.321,0.721-3.403-0.683-4.518-2.292
			c0.323-0.698,0.675-1.459,1.062-2.295c-0.657-0.312-1.298-0.615-2.027-0.961c-0.657,0.435-1.357,0.898-2.537,1.679
			c0.562-1.446,1.344-2.072,2.036-2.678c0.305-0.267,1.02-0.268,1.464-0.126c0.654,0.209,1.218,0.684,1.846,0.993
			C253.437,347.524,254.308,347.888,255.653,348.491z"/>
		<path fill="#333333" d="M165.42,407.429c0.11-0.401,0.221-0.81,0.373-1.366c1.042,0.937,0.712,1.855,0.398,2.953
			c-3.809-1.019-8.254,0.463-11.206-3.336c0.625-1.327,1.583-1.475,2.734-1.119c0.961,0.297,1.921,0.6,2.881,0.9
			c0.221,0.069,0.482,0.088,0.657,0.22C163.467,407.351,163.463,407.356,165.42,407.429z"/>
		<path fill="#333333" d="M205.104,413.303c-0.133-0.025-0.436-0.118-0.743-0.133c-0.818-0.04-1.767-0.166-1.765-1.109
			c0.001-0.74,0.388-1.705,0.941-2.167c0.918-0.768,1.993-1.408,3.402-0.65c0.54,0.29,1.471,0.007,2.17-0.198
			c0.684-0.202,1.3-0.638,2.038-1.019c0.51,1.141,0.039,1.637-0.579,2.002c-0.938,0.554-1.934,1.009-2.87,1.565
			C206.849,412.095,206.047,412.676,205.104,413.303z"/>
		<path fill="#333333" d="M213.625,166.581c-0.075,8.041-3.599,15.147-4.538,22.79c-0.155-0.008-0.31-0.015-0.465-0.023
			c0-0.456-0.072-0.925,0.011-1.365c0.637-3.373,1.345-6.734,1.942-10.114c0.228-1.287,0.221-2.616,0.33-3.925
			c0.025-0.305,0.026-0.631,0.136-0.909C211.857,170.958,212.697,168.891,213.625,166.581z"/>
		<path fill="#333333" d="M113.672,299.784c-2.796,4.614-6.736,7.668-12.114,8.765C105.301,305.226,109.717,302.82,113.672,299.784z
			"/>
		<path fill="#333333" d="M97.056,376.287c-0.889-0.336-1.673-0.665-2.479-0.925c-0.686-0.222-1.273-0.305-1.76,0.55
			c-0.518,0.91-1.129,0.429-1.66-0.251c0.392-1.025,1.293-1.044,2.118-1.028c2.06,0.039,3.914-0.428,5.8-1.364
			c2.903-1.441,3.818-1.263,6.561,0.181c-1.044,0.625-1.942,0.324-2.895,0.138c-0.507-0.099-1.313,0.024-1.6,0.367
			c-0.76,0.91-1.532,1.44-2.782,1.348C97.986,375.276,97.566,375.883,97.056,376.287z"/>
		<path fill="#333333" d="M120.236,82.38c-0.571,0.571-1.185,1.185-1.68,1.68c0.394,1.306,2.312,1.147,1.851,2.451
			c-0.262,0.741-1.315,1.185-1.967,1.81c-0.531,0.509-0.994,1.087-1.862,2.05c-0.096-1.124-0.228-1.7-0.177-2.26
			c0.118-1.318,0.312-2.63,0.495-3.941C117.237,81.737,117.891,81.411,120.236,82.38z"/>
		<path fill="#333333" d="M149.58,72.868c0.647,0.448,1.367,0.82,1.928,1.358c1.644,1.578,3.217,3.217,5.727,3.307
			c0.362,0.013,0.931,0.212,1.035,0.472c0.636,1.601,2.227,2.13,3.669,2.998c-0.944,0.999-1.682,0.579-2.32,0.236
			c-2.811-1.51-5.643-2.988-7.807-5.447c-0.783-0.89-1.725-1.64-2.595-2.455C149.337,73.18,149.459,73.024,149.58,72.868z"/>
		<path fill="#333333" d="M135.012,286.893c-0.016-0.406,0.036-1.151,1.195-1.045c0.692,0.646,0.407,1.331-0.168,1.771
			c-3.085,2.362-6.222,4.649-10.518,4.362C128.633,290.313,131.744,288.645,135.012,286.893z"/>
		<path fill="#333333" d="M156.114,72.574c2.553,0.771,8.542,7.907,9.925,11.338c-0.488-0.196-0.87-0.233-1.059-0.444
			c-1.503-1.676-3.018-3.347-4.435-5.096C159.015,76.483,157.587,74.511,156.114,72.574z"/>
		<path fill="#333333" d="M129.326,387.869c-0.14-2.532,0.161-3.54,1.675-6.044c1.352-0.096,2.022,0.944,2.651,1.848
			c0.599,0.863,0.133,1.723-1.034,2.023C131.278,386.04,129.833,386.139,129.326,387.869z"/>
		<path fill="#333333" d="M247.863,353.547c-2.191-0.616-3.172-2.35-4.814-3.123c-0.215-0.101-0.413-0.781-0.289-0.954
			c0.287-0.396,1.025-0.988,1.147-0.899c1.173,0.845,2.343,1.734,3.325,2.786C247.654,351.807,247.632,352.672,247.863,353.547z"/>
		<path fill="#333333" d="M169.795,96.131c0.117-0.615,0.263-1.227,0.342-1.847c0.087-0.68,0.112-1.368,0.177-2.216
			c0.592-0.131,1.23-0.273,2.119-0.47c0.172,1.163,0.701,2.384,0.376,3.305c-0.245,0.695-1.583,1.004-2.434,1.485
			C170.182,96.302,169.988,96.216,169.795,96.131z"/>
		<path fill="#333333" d="M213.186,177.623c-0.079,3.311-0.968,6.446-2.089,9.53C209.946,183.575,211.977,180.688,213.186,177.623z"
			/>
		<path fill="#333333" d="M181.884,60.236c0.767,0.115,1.198,0.179,1.963,0.294c-0.497,1.074-0.941,2.034-1.617,3.496
			c-0.371-0.981-0.468-1.414-0.683-1.777c-1.681-2.845-1.688-2.841,0.153-5.657C182.737,57.674,182.939,58.761,181.884,60.236z"/>
		<path fill="#333333" d="M188.299,221.139c0.414,3.471,0.847,6.94,1.237,10.413c0.292,2.603,0.53,5.212,0.354,7.862
			c-0.693-5.266-1.419-10.528-2.042-15.802c-0.093-0.791,0.299-1.639,0.467-2.461L188.299,221.139z"/>
		<path fill="#333333" d="M249.76,409.831c-2.715-0.303-5.382-0.751-7.98-2.274C244.301,406.928,246.226,407.443,249.76,409.831z"/>
		<path fill="#333333" d="M178.898,408.492c2.073-2.591,4.576-2.174,7.107-1.553c0.026,0.184,0.052,0.368,0.078,0.551
			C183.688,407.824,181.293,408.158,178.898,408.492z"/>
		<path fill="#333333" d="M142.28,72.549c-2.452,0.331-3.417-0.741-4.33-2.382c1.328-0.593,2.554-1.14,3.78-1.688
			C140.686,69.892,140.621,71.103,142.28,72.549z"/>
		<path fill="#333333" d="M266.59,363.897c-1.108,0.207-2.215,0.415-3.555,0.666c-0.987-1.297,0.872-2.473,0.371-3.826
			c1.545-0.173,0.923,1.081,1.255,1.453c0.882,0.173,1.643,0.323,2.404,0.472c-0.106,0.36-0.211,0.72-0.317,1.08L266.59,363.897z"/>
		<path fill="#333333" d="M164.045,3.827c0.672,2.649,2.788,3.881,4.93,5.154c-2.142,0.943-3.16,0.599-3.985-1.289
			C164.466,6.49,163.55,5.381,164.045,3.827z"/>
		<path fill="#333333" d="M258.004,359.183c1.161,0.228,2.249,0.442,3.337,0.656c-0.024,0.207-0.048,0.414-0.073,0.621
			c-0.845-0.043-1.69-0.087-2.736-0.141c-0.335,0.928-0.493,2.341-2.543,2.179c-0.193-0.194-0.613-0.615-0.903-0.906
			c0.147-1.232,0.736-1.331,2.287-0.583C257.566,360.45,257.754,359.906,258.004,359.183z"/>
		<path fill="#333333" d="M167.707,135.549c-0.989,0.588-1.935,1.278-2.986,1.717c-0.433,0.181-1.352,0.009-1.593-0.329
			c-0.551-0.771,0.122-1.415,0.799-1.583c1.168-0.29,2.394-0.341,3.596-0.492C167.584,135.091,167.645,135.32,167.707,135.549z"/>
		<path fill="#333333" d="M248.089,346.294c-0.749-0.495-1.446-1.119-2.261-1.451c-0.825-0.336-1.768-0.383-2.649-0.555
			c-0.061-1.147,0.449-1.406,1.299-1.327c1.925,0.179,3.196,1.197,4.002,2.831C248.35,345.959,248.219,346.127,248.089,346.294z"/>
		<path fill="#333333" d="M178.78,79.606c-1.179-2.804-1.776-7.344-1.162-8.832C178.978,73.725,179.594,78.41,178.78,79.606z"/>
		<path fill="#333333" d="M145.984,75.183c2.518-0.526,4.631-0.368,6.127,2.175C149.783,77.212,147.857,76.515,145.984,75.183z"/>
		<path fill="#333333" d="M194.783,232.918c0.18,2.344,0.374,4.553,0.487,6.766c0.013,0.253-0.386,0.593-0.671,0.759
			c-0.094,0.054-0.576-0.281-0.633-0.501c-0.134-0.518-0.125-1.075-0.161-1.617c-0.093-1.393-0.139-2.791-0.282-4.179
			C193.444,233.377,193.625,232.944,194.783,232.918z"/>
		<path fill="#333333" d="M148.794,87.528c-2.9-0.825-5.8-1.65-8.7-2.475c3.411-1.012,6.037,0.867,8.894,1.894
			C148.923,87.141,148.859,87.335,148.794,87.528z"/>
		<path fill="#333333" d="M152.165,16.53c0.093,0.759,0.302,1.525,0.254,2.275c-0.099,1.564-0.494,1.725-2.294,1.129
			c0.047-2.486,0.285-2.88,2.055-3.388L152.165,16.53z"/>
		<path fill="#333333" d="M39.239,385.444c1.842,0.995,2.286,2.258,2.105,3.958c-1.148-0.641-2.18-1.217-3.479-1.943
			C38.261,386.877,38.695,386.242,39.239,385.444z"/>
		<path fill="#333333" d="M194.79,211.268c0,2.33,0,4.309,0,6.419c-0.679-0.333-1.209-0.593-1.929-0.946
			c0.364-0.479,0.65-0.856,0.947-1.248c-0.399-0.527-1.594-0.989-0.228-1.832c0.107-0.066,0.155-0.458,0.067-0.576
			C192.723,211.849,193.724,211.731,194.79,211.268z"/>
		<path fill="#333333" d="M182.756,98.595c-0.052,1.812-0.817,3.187-2.798,4.739c-0.04-0.635-0.234-1.154-0.065-1.491
			c0.665-1.326,0.707-1.305,0.053-2.655c0.565-0.222,1.122-0.44,1.679-0.658C182.002,98.551,182.379,98.573,182.756,98.595z"/>
		<path fill="#333333" d="M217.401,253.057c-0.702,3.66,0.859,7.154,0.459,10.829c-0.475-2.899-0.98-5.793-1.404-8.699
			c-0.122-0.836-0.103-1.749,0.951-2.124L217.401,253.057z"/>
		<path fill="#333333" d="M246.963,383.989c0.276,0.531,0.532,1.075,0.835,1.591c0.295,0.502,0.638,0.976,1.007,1.534
			c-1.724,0.867-2.412-0.805-3.554-1.09c-0.163-1.302,0.709-1.725,1.723-2.029L246.963,383.989z"/>
		<path fill="#333333" d="M173.053,418.981c-1.37,2.007-2.485,1.965-5.769,0C169.389,418.981,171.03,418.981,173.053,418.981z"/>
		<path fill="#333333" d="M161.457,82.286c2.118,1.094,3.266,3.037,4.892,4.465C163.637,86.307,161.708,84.521,161.457,82.286z"/>
		<path fill="#333333" d="M249.355,406.266c1.701,0.174,3.221-0.886,4.409,0.811C251.882,408.607,251.882,408.607,249.355,406.266z"
			/>
		<path fill="#333333" d="M74.729,379.763c0.346,0.353,0.691,0.707,1.037,1.06c-0.511,1.176-1.301,1.929-2.895,1.789
			C73.012,381.298,73.338,380.22,74.729,379.763z"/>
		<path fill="#333333" d="M40.784,394.798c1.136-0.372,2.144-0.702,3.406-1.115c0.304,0.701,0.619,1.427,0.934,2.152
			c-0.09,0.064-0.181,0.128-0.271,0.193c-0.393-0.304-0.786-0.608-1.268-0.981c-0.453,0.509-0.851,0.956-1.261,1.418
			C41.829,395.93,41.358,395.42,40.784,394.798z"/>
		<path fill="#333333" d="M209.98,152.037c-0.487-1.715-0.904-3.185-1.404-4.944c0.52,0.087,1.145,0.086,1.172,0.212
			C210.063,148.801,211.884,150.186,209.98,152.037z"/>
		<path fill="#333333" d="M150.582,41.095c0.366,1.503,0.644,2.645,0.984,4.044C148.569,43.756,148.385,43.113,150.582,41.095z"/>
		<path fill="#333333" d="M182.756,98.595c-0.377-0.022-0.754-0.044-1.131-0.066c0.373-0.484,0.812-0.932,1.101-1.462
			c0.282-0.517,0.411-1.117,0.605-1.677c1.682,0.561,1.69,0.609,0.681,2.863C183.503,98.391,183.13,98.493,182.756,98.595z"/>
		<path fill="#333333" d="M192.607,101.569c-0.045,0.064-0.082,0.136-0.137,0.19c-0.626,0.606-1.297,1.267-2.214,0.696
			c-0.296-0.184-0.534-0.856-0.436-1.202c0.255-0.897,0.664-1.796,1.886-1.563c1.125,0.202-0.755,1.669,0.746,1.692
			C192.503,101.444,192.555,101.507,192.607,101.569z"/>
		<path fill="#333333" d="M141.762,281.827c-1.033,1.377-1.737,2.317-2.477,3.304C137.948,283.644,138.76,282.48,141.762,281.827z"
			/>
		<path fill="#333333" d="M91.395,357.983c-1.675,2.171-3.557,0.893-5.065,1.372C87.798,358.779,89.108,357.631,91.395,357.983z"/>
		<path fill="#333333" d="M121.939,298.905c0.812-2.457,2.834-2.803,4.935-3.025C125.229,296.888,123.584,297.897,121.939,298.905z"
			/>
		<path fill="#333333" d="M266.748,363.742c0.758,0,1.516,0,2.38,0c0.199,0.907,0.228,1.698-0.937,1.898
			c-1.391,0.24-1.389-0.865-1.601-1.743L266.748,363.742z"/>
		<path fill="#333333" d="M116.147,139.598c-0.577,1.363-1.154,2.725-1.792,4.232C113.719,142.195,114.16,140.953,116.147,139.598z"
			/>
		<path fill="#333333" d="M192.012,82.231c-0.183-1.915,0.504-3.055,1.267-4.305C193.928,79.695,193.928,79.695,192.012,82.231z"/>
		<path fill="#333333" d="M190.255,133.92c0.458,0.81,0.944,1.307,0.976,1.832c0.03,0.499-0.348,1.078-0.687,1.512
			c-0.113,0.144-0.828,0.074-0.983-0.123c-0.463-0.588,0.109-0.845,0.458-1.268C190.302,135.529,190.168,134.839,190.255,133.92z"/>
		<path fill="#333333" d="M215.182,131.6c1.794,0.203,1.86,0.296,1.739,2.42C215.748,133.581,215.279,132.775,215.182,131.6z"/>
		<path fill="#333333" d="M258.51,362.634c1.225-1.696,2.256-0.6,3.32-0.386C261.439,363.151,261.439,363.151,258.51,362.634z"/>
	</g>
</g>
</svg>
