<?xml version="1.0" encoding="iso-8859-1"?>
<!-- Generator: Adobe Illustrator 16.0.0, SVG Export Plug-In . SVG Version: 6.00 Build 0)  -->
<!DOCTYPE svg PUBLIC "-//W3C//DTD SVG 1.1//EN" "http://www.w3.org/Graphics/SVG/1.1/DTD/svg11.dtd">
<svg version="1.1" id="Capa_1" xmlns="http://www.w3.org/2000/svg" xmlns:xlink="http://www.w3.org/1999/xlink" x="0px" y="0px"
	 width="46px" height="46px" viewBox="0 0 46 46" style="enable-background:new 0 0 46 46;" xml:space="preserve">
<g>
	<path d="M44.675,0H41.22c-0.426,0-0.799,0.381-0.799,0.807v3.455c0,0.426-0.316,0.768-0.742,0.768h-4.454
		c-0.427,0-0.839-0.342-0.839-0.768V0.807C34.384,0.381,34.108,0,33.683,0h-3.454c-0.427,0-0.782,0.381-0.782,0.807v12.967
		l-5.271-4.465c-0.679-0.576-1.674-0.576-2.354,0l-5.271,4.465V0.807C16.55,0.381,16.24,0,15.814,0h-3.455
		c-0.426,0-0.748,0.381-0.748,0.807v3.455c0,0.426-0.368,0.768-0.793,0.768H6.366c-0.426,0-0.789-0.342-0.789-0.768V0.807
		C5.579,0.381,5.25,0,4.824,0H1.371C0.944,0,0.64,0.381,0.64,0.807v44.421c0,0.427,0.305,0.771,0.731,0.771h17.011v-8.276
		c0-2.55,2.068-4.617,4.619-4.617c2.549,0,4.618,2.067,4.618,4.617V46h17.057c0.427,0,0.686-0.344,0.686-0.77V0.807
		C45.359,0.381,45.101,0,44.675,0z"/>
</g>
<g>
</g>
<g>
</g>
<g>
</g>
<g>
</g>
<g>
</g>
<g>
</g>
<g>
</g>
<g>
</g>
<g>
</g>
<g>
</g>
<g>
</g>
<g>
</g>
<g>
</g>
<g>
</g>
<g>
</g>
</svg>
