<?xml version="1.0" encoding="utf-8"?>
<!-- Generator: Adobe Illustrator 17.0.0, SVG Export Plug-In . SVG Version: 6.00 Build 0)  -->
<!DOCTYPE svg PUBLIC "-//W3C//DTD SVG 1.1//EN" "http://www.w3.org/Graphics/SVG/1.1/DTD/svg11.dtd">

<?xml-stylesheet type="text/css" href="http://www.eveoniris.com/templates/protostar/css/cartes.css" ?>
<svg version="1.1" id="Calque_1" xmlns="http://www.w3.org/2000/svg" xmlns:xlink="http://www.w3.org/1999/xlink" x="0px" y="0px"
	 viewBox="0 0 2001 1390" width="2001" height="1390" preserveAspectRatio="xMinYMin meet" overflow="hidden" enable-background="new 0 0 2001 1390" xml:space="preserve" onload="init(evt)">

	 <script type="text/ecmascript"> 
    <![CDATA[

	function init(evt)
	{
	    if ( window.svgDocument == null )
	    {
		svgDocument = evt.target.ownerDocument;
	    }

	    tooltip = svgDocument.getElementById('tooltip');
	}

	function ShowTooltip(evt)
	{
	    tooltip.setAttributeNS(null,"x",0);
	    tooltip.setAttributeNS(null,"y",50);
		   tooltip.firstChild.data = evt.target.getAttribute("id");
	    tooltip.setAttributeNS(null,"visibility","visible");
	}

	function HideTooltip(evt)
	{
	    tooltip.setAttributeNS(null,"visibility","hidden");
	}

    ]]>
  </script>

<g id="fond_carte">
	
		<image overflow="visible" enable-background="new    " width="2001" height="1390" xlink:href="/img/hyboree.jpg"  transform="matrix(1.008 0 0 1.0084 -3 -5.7087)">
	</image>
</g>
<g id="noms-regions">
	<g>
		<g>
			<g>
				<text transform="matrix(1 0 0 1 322.3633 117.7986)" fill="#2D2408" font-family="'TrajanPro3-Bold'" font-size="26.669">Vanaheim</text>
				<text transform="matrix(1 0 0 1 531.7715 117.7986)" fill="#2D2408" font-family="'TrajanPro3-Bold'" font-size="26.669">Asgard</text>
				<text transform="matrix(1 0 0 1 751.5002 216.302)" fill="#2D2408" font-family="'TrajanPro3-Bold'" font-size="35">Hyperborée</text>
				<text transform="matrix(1 0 0 1 796.6553 748.9844)" fill="#2D2408" font-family="'TrajanPro3-Bold'" font-size="60.8856">Turan</text>
				<text transform="matrix(1 0 0 1 1461.6631 503.7726)" fill="#2D2408" font-family="'TrajanPro3-Bold'" font-size="60.8856">Khitaï</text>
				<text transform="matrix(1 0 0 1 1826.5535 1315.2317)" fill="#2D2408" font-family="'TrajanPro3-Bold'" font-size="60.8856">Mu</text>
				<text transform="matrix(1 0 0 1 1255.2266 158.4999)" fill="#2D2408" font-family="'TrajanPro3-Bold'" font-size="40">Pathénie</text>
				<text transform="matrix(1 0 0 1 1260.947 981.5029)" fill="#2D2408" font-family="'TrajanPro3-Bold'" font-size="30">Vendhya</text>
				<text transform="matrix(1 0 0 1 363.3503 348.1248)" fill="#2D2408" font-family="'TrajanPro3-Bold'" font-size="35">Cimmérie</text>
				
					<text transform="matrix(0.9995 -0.0309 0.0309 0.9995 656.5342 413.4856)" fill="#2D2408" font-family="'TrajanPro3-Bold'" font-size="25">Brythunie</text>
				<text transform="matrix(1 0 0 1 263.8287 534.1312)" fill="#2D2408" font-family="'TrajanPro3-Bold'" font-size="35">Aquilonie</text>
				<text transform="matrix(1 0 0 1 149.8828 713.4072)" fill="#2D2408" font-family="'TrajanPro3-Bold'" font-size="26.669">Zingara</text>
				<text transform="matrix(0.6034 0.7974 -0.7974 0.6034 105.2042 751.8225)" enable-background="new    "><tspan x="0" y="0" fill="#2D2408" font-family="'TrajanPro3-Bold'" font-size="15">Îles</tspan><tspan x="-37.252" y="18" fill="#2D2408" font-family="'TrajanPro3-Bold'" font-size="15">Barachanes</tspan></text>
				<text transform="matrix(1 0 0 1 332.2988 723.0078)" fill="#2D2408" font-family="'TrajanPro3-Bold'" font-size="26.669">Argos</text>
				<path fill="none" d="M326.964,88.297c0,0,179.207-107.204,339.212,0"/>
				
					<text transform="matrix(0.9829 -0.184 0.184 0.9829 431.2373 49.0235)" fill="#2D2408" font-family="'TrajanPro3-Bold'" font-size="26.669">N</text>
				
					<text transform="matrix(0.9829 -0.184 0.184 0.9829 455.6659 44.4698)" fill="#2D2408" font-family="'TrajanPro3-Bold'" font-size="26.669">o</text>
				
					<text transform="matrix(0.9829 -0.184 0.184 0.9829 478.2245 41.785)" fill="#2D2408" font-family="'TrajanPro3-Bold'" font-size="26.669">r</text>
				
					<text transform="matrix(0.9829 -0.184 0.184 0.9829 497.7844 40.5812)" fill="#2D2408" font-family="'TrajanPro3-Bold'" font-size="26.669">d</text>
				
					<text transform="matrix(0.9829 -0.184 0.184 0.9829 520.2378 40.6874)" fill="#2D2408" font-family="'TrajanPro3-Bold'" font-size="26.669">h</text>
				
					<text transform="matrix(0.9829 -0.184 0.184 0.9829 543.65 42.6936)" fill="#2D2408" font-family="'TrajanPro3-Bold'" font-size="26.669">e</text>
				
					<text transform="matrix(0.9829 -0.184 0.184 0.9829 559.9833 45.1968)" fill="#2D2408" font-family="'TrajanPro3-Bold'" font-size="26.669">i</text>
				
					<text transform="matrix(0.9829 -0.184 0.184 0.9829 571.4916 47.2735)" fill="#2D2408" font-family="'TrajanPro3-Bold'" font-size="26.669">m</text>
				<path fill="none" d="M163.647,631.706c0,0,9.601-183.483,168.548-340.296"/>
				
					<text transform="matrix(0.1565 -0.9877 0.9877 0.1565 165.1454 616.024)" fill="#2D2408" font-family="'TrajanPro3-Bold'" font-size="26.669">T</text>
				
					<text transform="matrix(0.1565 -0.9877 0.9877 0.1565 168.2656 596.5699)" fill="#2D2408" font-family="'TrajanPro3-Bold'" font-size="26.669">e</text>
				
					<text transform="matrix(0.1565 -0.9877 0.9877 0.1565 171.489 580.315)" fill="#2D2408" font-family="'TrajanPro3-Bold'" font-size="26.669">r</text>
				
					<text transform="matrix(0.1565 -0.9877 0.9877 0.1565 176.0512 561.1138)" fill="#2D2408" font-family="'TrajanPro3-Bold'" font-size="26.669">r</text>
				
					<text transform="matrix(0.1565 -0.9877 0.9877 0.1565 181.3398 542.0943)" fill="#2D2408" font-family="'TrajanPro3-Bold'" font-size="26.669">e</text>
				
					<text transform="matrix(0.1565 -0.9877 0.9877 0.1565 186.3039 526.2418)" fill="#2D2408" font-family="'TrajanPro3-Bold'" font-size="26.669">s</text>
				
					<text transform="matrix(0.1565 -0.9877 0.9877 0.1565 190.8574 513.0074)" fill="#2D2408" font-family="'TrajanPro3-Bold'" font-size="26.669"> </text>
				
					<text transform="matrix(0.1565 -0.9877 0.9877 0.1565 193.3337 506.062)" fill="#2D2408" font-family="'TrajanPro3-Bold'" font-size="26.669">S</text>
				
					<text transform="matrix(0.1565 -0.9877 0.9877 0.1565 198.7819 491.8384)" fill="#2D2408" font-family="'TrajanPro3-Bold'" font-size="26.669">a</text>
				
					<text transform="matrix(0.1565 -0.9877 0.9877 0.1565 205.7538 475.0913)" fill="#2D2408" font-family="'TrajanPro3-Bold'" font-size="26.669">u</text>
				
					<text transform="matrix(0.1565 -0.9877 0.9877 0.1565 214.5078 456.024)" fill="#2D2408" font-family="'TrajanPro3-Bold'" font-size="26.669">v</text>
				
					<text transform="matrix(0.1565 -0.9877 0.9877 0.1565 222.582 439.8277)" fill="#2D2408" font-family="'TrajanPro3-Bold'" font-size="26.669">a</text>
				
					<text transform="matrix(0.1565 -0.9877 0.9877 0.1565 231.1432 423.8355)" fill="#2D2408" font-family="'TrajanPro3-Bold'" font-size="26.669">g</text>
				
					<text transform="matrix(0.1565 -0.9877 0.9877 0.1565 242.2529 404.8589)" fill="#2D2408" font-family="'TrajanPro3-Bold'" font-size="26.669">e</text>
				
					<text transform="matrix(0.1565 -0.9877 0.9877 0.1565 251.1196 390.7691)" fill="#2D2408" font-family="'TrajanPro3-Bold'" font-size="26.669">s</text>
				
					<text transform="matrix(0.1565 -0.9877 0.9877 0.1565 258.8764 379.1568)" fill="#2D2408" font-family="'TrajanPro3-Bold'" font-size="26.669"> </text>
				
					<text transform="matrix(0.1565 -0.9877 0.9877 0.1565 263.0053 373.062)" fill="#2D2408" font-family="'TrajanPro3-Bold'" font-size="26.669">P</text>
				
					<text transform="matrix(0.1565 -0.9877 0.9877 0.1565 274.3925 357.4536)" fill="#2D2408" font-family="'TrajanPro3-Bold'" font-size="26.669">i</text>
				
					<text transform="matrix(0.1565 -0.9877 0.9877 0.1565 281.5634 348.0132)" fill="#2D2408" font-family="'TrajanPro3-Bold'" font-size="26.669">c</text>
				
					<text transform="matrix(0.1565 -0.9877 0.9877 0.1565 294.113 332.5562)" fill="#2D2408" font-family="'TrajanPro3-Bold'" font-size="26.669">t</text>
				
					<text transform="matrix(0.1565 -0.9877 0.9877 0.1565 305.9179 318.9312)" fill="#2D2408" font-family="'TrajanPro3-Bold'" font-size="26.669">e</text>
				
					<text transform="matrix(0.1565 -0.9877 0.9877 0.1565 317.183 306.6802)" fill="#2D2408" font-family="'TrajanPro3-Bold'" font-size="26.669">s</text>
				<path fill="none" d="M537.346,441.087c0,0,25.602,69.339,173.882,85.341"/>
				
					<text transform="matrix(0.806 0.5919 -0.5919 0.806 561.3016 472.4023)" fill="#2D2408" font-family="'TrajanPro3-Bold'" font-size="28">N</text>
				
					<text transform="matrix(0.806 0.5919 -0.5919 0.806 584.2128 488.6533)" fill="#2D2408" font-family="'TrajanPro3-Bold'" font-size="28">é</text>
				
					<text transform="matrix(0.806 0.5919 -0.5919 0.806 600.7762 497.8689)" fill="#2D2408" font-family="'TrajanPro3-Bold'" font-size="28">m</text>
				
					<text transform="matrix(0.806 0.5919 -0.5919 0.806 626.5282 508.3195)" fill="#2D2408" font-family="'TrajanPro3-Bold'" font-size="28">é</text>
				
					<text transform="matrix(0.806 0.5919 -0.5919 0.806 644.0721 513.9885)" fill="#2D2408" font-family="'TrajanPro3-Bold'" font-size="28">d</text>
				
					<text transform="matrix(0.806 0.5919 -0.5919 0.806 667.9432 519.7099)" fill="#2D2408" font-family="'TrajanPro3-Bold'" font-size="28">i</text>
				
					<text transform="matrix(0.806 0.5919 -0.5919 0.806 680.7616 522.2263)" fill="#2D2408" font-family="'TrajanPro3-Bold'" font-size="28">e</text>
				<path fill="none" d="M445.271,663.708c0,0,41.604-32.003,144.012-32.003"/>
				
					<text transform="matrix(0.9417 -0.3363 0.3363 0.9417 464.7292 652.7454)" fill="#2D2408" font-family="'TrajanPro3-Bold'" font-size="26.6662">O</text>
				
					<text transform="matrix(0.9417 -0.3363 0.3363 0.9417 488.2894 644.5263)" fill="#2D2408" font-family="'TrajanPro3-Bold'" font-size="26.6662">p</text>
				
					<text transform="matrix(0.9417 -0.3363 0.3363 0.9417 505.4489 639.987)" fill="#2D2408" font-family="'TrajanPro3-Bold'" font-size="26.6662">h</text>
				
					<text transform="matrix(0.9417 -0.3363 0.3363 0.9417 528.6503 635.8647)" fill="#2D2408" font-family="'TrajanPro3-Bold'" font-size="26.6662">i</text>
				
					<text transform="matrix(0.9417 -0.3363 0.3363 0.9417 540.3207 634.2531)" fill="#2D2408" font-family="'TrajanPro3-Bold'" font-size="26.6662">r</text>
				<path fill="none" d="M610.02,610.037c0,0,135.478,6.401,193.083-119.477"/>
				
					<text transform="matrix(0.9756 -0.2196 0.2196 0.9756 649.6768 606.8745)" fill="#2D2408" font-family="'TrajanPro3-Bold'" font-size="26.669">C</text>
				
					<text transform="matrix(0.9756 -0.2196 0.2196 0.9756 672.1693 601.789)" fill="#2D2408" font-family="'TrajanPro3-Bold'" font-size="26.669">o</text>
				
					<text transform="matrix(0.9756 -0.2196 0.2196 0.9756 695.0938 593.9874)" fill="#2D2408" font-family="'TrajanPro3-Bold'" font-size="26.669">r</text>
				
					<text transform="matrix(0.9756 -0.2196 0.2196 0.9756 713.9831 585.2121)" fill="#2D2408" font-family="'TrajanPro3-Bold'" font-size="26.669">i</text>
				
					<text transform="matrix(0.9756 -0.2196 0.2196 0.9756 725.5208 579.0367)" fill="#2D2408" font-family="'TrajanPro3-Bold'" font-size="26.669">n</text>
				
					<text transform="matrix(0.9756 -0.2196 0.2196 0.9756 745.1855 565.3779)" fill="#2D2408" font-family="'TrajanPro3-Bold'" font-size="26.669">t</text>
				
					<text transform="matrix(0.9756 -0.2196 0.2196 0.9756 760.0539 552.6695)" fill="#2D2408" font-family="'TrajanPro3-Bold'" font-size="26.669">h</text>
				
					<text transform="matrix(0.9756 -0.2196 0.2196 0.9756 776.6507 534.0421)" fill="#2D2408" font-family="'TrajanPro3-Bold'" font-size="26.669">i</text>
				
					<text transform="matrix(0.9756 -0.2196 0.2196 0.9756 784.4048 523.7951)" fill="#2D2408" font-family="'TrajanPro3-Bold'" font-size="26.669">e</text>
				<path fill="none" d="M768.499,619.971c0,0,88.541-41.604,91.741-140.812"/>
				
					<text transform="matrix(0.7771 -0.6294 0.6294 0.7771 790.1529 606.872)" fill="#2D2408" font-family="'TrajanPro3-Bold'" font-size="26.669">Z</text>
				
					<text transform="matrix(0.7771 -0.6294 0.6294 0.7771 806.3941 593.5903)" fill="#2D2408" font-family="'TrajanPro3-Bold'" font-size="26.669">a</text>
				
					<text transform="matrix(0.7771 -0.6294 0.6294 0.7771 820.511 579.5956)" fill="#2D2408" font-family="'TrajanPro3-Bold'" font-size="26.669">m</text>
				
					<text transform="matrix(0.7771 -0.6294 0.6294 0.7771 836.8648 557.6664)" fill="#2D2408" font-family="'TrajanPro3-Bold'" font-size="26.669">o</text>
				
					<text transform="matrix(0.7771 -0.6294 0.6294 0.7771 848.273 535.6655)" fill="#2D2408" font-family="'TrajanPro3-Bold'" font-size="26.669">r</text>
				
					<text transform="matrix(0.7771 -0.6294 0.6294 0.7771 855.23 515.3222)" fill="#2D2408" font-family="'TrajanPro3-Bold'" font-size="26.669">a</text>
				<text transform="matrix(1 0 0 1 558.1494 694.376)" fill="#2D2408" font-family="'TrajanPro3-Bold'" font-size="26.669">Koth</text>
				
					<text transform="matrix(0.2973 -0.9548 0.9548 0.2973 1842.9215 538.5176)" fill="#2D2408" font-family="'TrajanPro3-Bold'" font-size="15">Lemuria</text>
				<text transform="matrix(1 0 0 1 1598.1233 846.8261)" fill="#2D2408" font-family="'TrajanPro3-Bold'" font-size="20">Kambuja</text>
				
					<text transform="matrix(0.398 -0.9174 0.9174 0.398 780.5565 1176.7228)" fill="#2D2408" font-family="'TrajanPro3-Bold'" font-size="18">Zembabwei</text>
				
					<text transform="matrix(0.398 -0.9174 0.9174 0.398 818.4994 1002.5041)" fill="#2D2408" font-family="'TrajanPro3-Bold'" font-size="20">Punt</text>
				<text transform="matrix(1 0 0 1 474.2888 953.7328)" fill="#2D2408" font-family="'TrajanPro3-Bold'" font-size="22">Kush</text>
				<text transform="matrix(1 0 0 1 577.1454 950.5486)" fill="#2D2408" font-family="'TrajanPro3-Bold'" font-size="18">Darfar</text>
				<text transform="matrix(1 0 0 1 863.5 979.326)" fill="#2D2408" font-family="'TrajanPro3-Bold'" font-size="15">Drujistan</text>
				<text transform="matrix(1 0 0 1 1039.8254 903.3882)" fill="#2D2408" font-family="'TrajanPro3-Bold'" font-size="15">Venjipur</text>
				
					<text transform="matrix(0.2592 0.9658 -0.9658 0.2592 1347.4321 619.5001)" fill="#2D2408" font-family="'TrajanPro3-Bold'" font-size="15">Khusan</text>
				<text transform="matrix(1 0 0 1 1128.7959 938.8547)" fill="#2D2408" font-family="'TrajanPro3-Bold'" font-size="15">Kosala</text>
				<text transform="matrix(1 0 0 1 1347.4314 846.4346)" fill="#2D2408" font-family="'TrajanPro3-Bold'" font-size="15">Meru</text>
				<text transform="matrix(1 0 0 1 1161.2303 895.8074)" fill="#2D2408" font-family="'TrajanPro3-Bold'" font-size="8">Afghulistan</text>
				<text transform="matrix(1 0 0 1 1418.0308 899.7533)" fill="#2D2408" font-family="'TrajanPro3-Bold'" font-size="8">Uttara</text>
				<text transform="matrix(1 0 0 1 1422.7507 909.3533)" fill="#2D2408" font-family="'TrajanPro3-Bold'" font-size="8">Kuru</text>
				<text transform="matrix(1 0 0 1 690.7213 953.7326)" fill="#2D2408" font-family="'TrajanPro3-Bold'" font-size="25">Keshan</text>
				<text transform="matrix(1 0 0 1 564.3893 806.5228)" fill="#2D2408" font-family="'TrajanPro3-Bold'" font-size="35">Shem</text>
				<text transform="matrix(1 0 0 1 570.1452 886.5484)" fill="#2D2408" font-family="'TrajanPro3-Bold'" font-size="35">Stygie</text>
				<text transform="matrix(1 0 0 1 511.8263 1080.4995)" fill="#2D2408" font-family="'TrajanPro3-Bold'" font-size="35">Royaumes</text>
				<text transform="matrix(1 0 0 1 553.4243 1122.4995)" fill="#2D2408" font-family="'TrajanPro3-Bold'" font-size="35">Noirs</text>
				
					<text transform="matrix(0.739 -0.6738 0.6738 0.739 744.1155 696.1617)" fill="#2D2408" font-family="'TrajanPro3-Bold'" font-size="16.0034">Khauran</text>
				
					<text transform="matrix(0.9922 -0.1249 0.1249 0.9922 653.5356 737.324)" fill="#2D2408" font-family="'TrajanPro3-Bold'" font-size="16.0014">Khoraja</text>
				<g>
					<path fill="none" d="M885.506,1091.566c0,0,75.494-89.699,180.994-127.132"/>
					
						<text transform="matrix(0.6809 -0.7323 0.7323 0.6809 886.9732 1089.702)" fill="#2D2408" font-family="'TrajanPro3-Bold'" font-size="34.996">I</text>
					
						<text transform="matrix(0.6809 -0.7323 0.7323 0.6809 898.3699 1077.3146)" fill="#2D2408" font-family="'TrajanPro3-Bold'" font-size="34.996">r</text>
					
						<text transform="matrix(0.6809 -0.7323 0.7323 0.6809 916.8215 1059.2788)" fill="#2D2408" font-family="'TrajanPro3-Bold'" font-size="34.996">a</text>
					
						<text transform="matrix(0.6809 -0.7323 0.7323 0.6809 934.47 1043.4359)" fill="#2D2408" font-family="'TrajanPro3-Bold'" font-size="34.996">n</text>
					
						<text transform="matrix(0.6809 -0.7323 0.7323 0.6809 957.4653 1025.0867)" fill="#2D2408" font-family="'TrajanPro3-Bold'" font-size="34.996">i</text>
					
						<text transform="matrix(0.6809 -0.7323 0.7323 0.6809 969.9135 1015.8835)" fill="#2D2408" font-family="'TrajanPro3-Bold'" font-size="34.996">s</text>
					
						<text transform="matrix(0.6809 -0.7323 0.7323 0.6809 984.8596 1005.5687)" fill="#2D2408" font-family="'TrajanPro3-Bold'" font-size="34.996">t</text>
					
						<text transform="matrix(0.6809 -0.7323 0.7323 0.6809 1004.8344 993.1743)" fill="#2D2408" font-family="'TrajanPro3-Bold'" font-size="34.996">a</text>
					
						<text transform="matrix(0.6809 -0.7323 0.7323 0.6809 1025.5017 981.7786)" fill="#2D2408" font-family="'TrajanPro3-Bold'" font-size="34.996">n</text>
				</g>
				<g>
					<path fill="none" d="M1145.344,828.179c0,0,60.656,6.631,120.656,62.226"/>
					
						<text transform="matrix(0.9781 0.2083 -0.2083 0.9781 1145.0671 827.7949)" fill="#2D2408" font-family="'TrajanPro3-Bold'" font-size="20.0014">G</text>
					
						<text transform="matrix(0.9781 0.2083 -0.2083 0.9781 1162.6049 831.5698)" fill="#2D2408" font-family="'TrajanPro3-Bold'" font-size="20.0014">h</text>
					
						<text transform="matrix(0.9781 0.2083 -0.2083 0.9781 1179.3845 836.8981)" fill="#2D2408" font-family="'TrajanPro3-Bold'" font-size="20.0014">u</text>
					
						<text transform="matrix(0.9781 0.2083 -0.2083 0.9781 1193.9152 842.7443)" fill="#2D2408" font-family="'TrajanPro3-Bold'" font-size="20.0014">l</text>
					
						<text transform="matrix(0.9781 0.2083 -0.2083 0.9781 1204.991 847.9636)" fill="#2D2408" font-family="'TrajanPro3-Bold'" font-size="20.0014">i</text>
					
						<text transform="matrix(0.9781 0.2083 -0.2083 0.9781 1212.8445 852.0345)" fill="#2D2408" font-family="'TrajanPro3-Bold'" font-size="20.0014">s</text>
					
						<text transform="matrix(0.9781 0.2083 -0.2083 0.9781 1221.8671 857.138)" fill="#2D2408" font-family="'TrajanPro3-Bold'" font-size="20.0014">t</text>
					
						<text transform="matrix(0.9781 0.2083 -0.2083 0.9781 1233.2222 864.3318)" fill="#2D2408" font-family="'TrajanPro3-Bold'" font-size="20.0014">a</text>
					
						<text transform="matrix(0.9781 0.2083 -0.2083 0.9781 1244.2832 872.1152)" fill="#2D2408" font-family="'TrajanPro3-Bold'" font-size="20.0014">n</text>
				</g>
				<g>
					<path fill="none" d="M1177.147,302.458c0,0,93.801,195.583,44.438,427.535"/>
					
						<text transform="matrix(0.3052 0.9523 -0.9523 0.3052 1190.6259 333.6387)" fill="#2D2408" font-family="'TrajanPro3-Bold'" font-size="60.8856">H</text>
					
						<text transform="matrix(0.3052 0.9523 -0.9523 0.3052 1208.4198 390.2644)" fill="#2D2408" font-family="'TrajanPro3-Bold'" font-size="60.8856">y</text>
					
						<text transform="matrix(0.3052 0.9523 -0.9523 0.3052 1217.8837 427.7478)" fill="#2D2408" font-family="'TrajanPro3-Bold'" font-size="60.8856">r</text>
					
						<text transform="matrix(0.3052 0.9523 -0.9523 0.3052 1226.4315 471.7303)" fill="#2D2408" font-family="'TrajanPro3-Bold'" font-size="60.8856">k</text>
					
						<text transform="matrix(0.3052 0.9523 -0.9523 0.3052 1232.4696 517.7337)" fill="#2D2408" font-family="'TrajanPro3-Bold'" font-size="60.8856">a</text>
					
						<text transform="matrix(0.3052 0.9523 -0.9523 0.3052 1235.661 558.7164)" fill="#2D2408" font-family="'TrajanPro3-Bold'" font-size="60.8856">n</text>
					
						<text transform="matrix(0.3052 0.9523 -0.9523 0.3052 1235.827 609.7752)" fill="#2D2408" font-family="'TrajanPro3-Bold'" font-size="60.8856">i</text>
					
						<text transform="matrix(0.3052 0.9523 -0.9523 0.3052 1234.7303 636.5696)" fill="#2D2408" font-family="'TrajanPro3-Bold'" font-size="60.8856">e</text>
				</g>
				<g>
					<path fill="none" d="M481.72,426.752c0,0,97.177-12.017,173.78-111.077"/>
					
						<text transform="matrix(0.9606 -0.2781 0.2781 0.9606 498.2902 423.362)" fill="#2D2408" font-family="'TrajanPro3-Bold'" font-size="15.0014">R</text>
					
						<text transform="matrix(0.9606 -0.2781 0.2781 0.9606 510.2766 419.8868)" fill="#2D2408" font-family="'TrajanPro3-Bold'" font-size="15.0014">o</text>
					
						<text transform="matrix(0.9606 -0.2781 0.2781 0.9606 522.438 415.631)" fill="#2D2408" font-family="'TrajanPro3-Bold'" font-size="15.0014">y</text>
					
						<text transform="matrix(0.9606 -0.2781 0.2781 0.9606 531.3424 412.1239)" fill="#2D2408" font-family="'TrajanPro3-Bold'" font-size="15.0014">a</text>
					
						<text transform="matrix(0.9606 -0.2781 0.2781 0.9606 540.6824 408.0646)" fill="#2D2408" font-family="'TrajanPro3-Bold'" font-size="15.0014">u</text>
					
						<text transform="matrix(0.9606 -0.2781 0.2781 0.9606 551.3173 402.9575)" fill="#2D2408" font-family="'TrajanPro3-Bold'" font-size="15.0014">m</text>
					
						<text transform="matrix(0.9606 -0.2781 0.2781 0.9606 563.7997 396.1647)" fill="#2D2408" font-family="'TrajanPro3-Bold'" font-size="15.0014">e</text>
					
						<text transform="matrix(0.9606 -0.2781 0.2781 0.9606 571.8491 391.3608)" fill="#2D2408" font-family="'TrajanPro3-Bold'" font-size="15.0014"> </text>
					
						<text transform="matrix(0.9606 -0.2781 0.2781 0.9606 575.3787 389.1963)" fill="#2D2408" font-family="'TrajanPro3-Bold'" font-size="15.0014">F</text>
					
						<text transform="matrix(0.9606 -0.2781 0.2781 0.9606 583.403 383.9472)" fill="#2D2408" font-family="'TrajanPro3-Bold'" font-size="15.0014">r</text>
					
						<text transform="matrix(0.9606 -0.2781 0.2781 0.9606 592.4793 377.5559)" fill="#2D2408" font-family="'TrajanPro3-Bold'" font-size="15.0014">o</text>
					
						<text transform="matrix(0.9606 -0.2781 0.2781 0.9606 602.6494 369.7509)" fill="#2D2408" font-family="'TrajanPro3-Bold'" font-size="15.0014">n</text>
					
						<text transform="matrix(0.9606 -0.2781 0.2781 0.9606 612.3362 361.6252)" fill="#2D2408" font-family="'TrajanPro3-Bold'" font-size="15.0014">t</text>
					
						<text transform="matrix(0.9606 -0.2781 0.2781 0.9606 619.8539 354.8261)" fill="#2D2408" font-family="'TrajanPro3-Bold'" font-size="15.0014">i</text>
					
						<text transform="matrix(0.9606 -0.2781 0.2781 0.9606 624.7028 350.2453)" fill="#2D2408" font-family="'TrajanPro3-Bold'" font-size="15.0014">è</text>
					
						<text transform="matrix(0.9606 -0.2781 0.2781 0.9606 631.3303 343.6428)" fill="#2D2408" font-family="'TrajanPro3-Bold'" font-size="15.0014">r</text>
					
						<text transform="matrix(0.9606 -0.2781 0.2781 0.9606 638.9274 335.5253)" fill="#2D2408" font-family="'TrajanPro3-Bold'" font-size="15.0014">e</text>
				</g>
			</g>
		</g>
	</g>
</g>
<g id="inactif">
	<polygon fill="#BE2326" points="1831.707,451.466 1838.439,447.265 1844.639,442 1851,442 1851,446.147 1847.022,449.009 
		1850.491,454 1853.15,454 1857.406,454 1860,454 1860,462 1864.853,462 1866.98,462 1871.236,462 1876,464.232 1876,471.679 
		1878,474.871 1878,479.126 1873.288,483.382 1870.134,489.765 1869.621,496.978 1868.576,501 1862.725,501 1861.129,506.638 
		1864.321,516 1870.172,516 1870.704,522 1865.917,522 1863.789,527 1859.533,532 1855.278,532 1852.618,541.469 1848.363,537.958 
		1846.235,541.617 1844.107,549 1832.937,549 1827,549 1827,544.022 1827,539.767 1819,536.575 1819,530.192 1824.851,527 
		1819,523.277 1819,520.617 1819,518.489 1826.234,515.83 1825.596,511.574 1820.49,511.042 1817.936,508.383 1813.202,507.851 
		1815.888,501.893 1817.511,497 1823.362,497 1818.575,493.117 1823.894,488.249 1828.149,483.954 1829.745,487.125 
		1833.469,486.051 1835.596,482.855 1832.405,480.725 1835.065,475.936 1834.533,469.02 1840.384,467.956 1840.916,462.648 
		1836.66,460 1830.809,460 1831.873,456.531 	"/>
	<polygon fill="#BE2326" points="1690.379,30 1695.698,30 1697.117,33 1701.018,33 1703,33 1703,37 1697.826,37 1693.571,33.5 	"/>
	<polygon fill="#BE2326" points="1707.844,28.364 1709.529,34 1713.784,34 1718.133,29.694 1720,27.871 1720,24 1716.976,24 
		1714.272,26.492 	"/>
	<polygon fill="#BE2326" points="1713,39 1718.039,39 1721,39 1721,42.942 1723,45.779 1723,50 1719.103,50 1713,47.552 	"/>
	<polygon fill="#BE2326" points="1751,66 1757.402,66 1759,67.765 1759,73.794 1759,78 1756.339,78 1755.531,72.617 1751,68.475 	
		"/>
	<polygon fill="#BE2326" points="1784.029,37.667 1781.177,44.826 1776.382,50.211 1778.325,54 1785,54 1785,51.453 1788,51.807 
		1788,54.644 1791.943,49.857 1795,47.907 1795,45.07 1789.529,44.538 1785,42.233 1785,37.623 	"/>
	<polygon fill="#BE2326" points="1798.062,50.528 1802.24,44.873 1805,46.134 1805,55 1808.468,55 1806.34,59 1803.149,59 
		1797.829,59 	"/>
	<polygon fill="#BE2326" points="1792.937,58.368 1795,61.382 1795,66.347 1787.9,71 1786.127,71 1785.771,64.684 	"/>
	<polygon fill="#BE2326" points="1759.738,106.131 1765,103.582 1765,100 1769,100 1769,102.518 1769,107.838 1771,110.675 
		1771,114.221 1765,117.412 1765,112.093 1759.776,111.029 	"/>
	<path fill="#BE2326" d="M1782,157.839v6.383l-5.213,5.319l-2.931-3.192C1773.856,166.35,1776,160.322,1782,157.839z"/>
	<polygon fill="#BE2326" points="1786.127,159 1790.382,159 1795.17,164.005 1790.648,166.507 1785.813,161.069 	"/>
	<polygon fill="#BE2326" points="1785,170 1790.382,170 1792.155,173.798 1789.141,176 1785,176 	"/>
	<path fill="#BE2326" d="M1792.51,202h5.319c0,0,6.383,0.172,1.773,4.782s-4.965,1.416-4.433,6.735s-3.014,3.9-3.014,3.9
		l-1.664-3.547l3.083-4.081l-1.418-3.361L1792.51,202z"/>
	<path fill="#BE2326" d="M1902.797,351.817c1.064-0.355,5.674,0,5.674,0l1.418,8.511c0,0-4.255,4.255-9.929,2.128
		c0,0-6.029-4.881,0-5.1C1905.989,357.137,1902.797,351.817,1902.797,351.817z"/>
	<polygon fill="#BE2326" points="1880.811,363 1884.002,363 1887.903,359 1890,359 1890,363.165 1884,366.711 1884,370 
		1880.811,370 1878.151,367.564 	"/>
	<path fill="#BE2326" d="M1845.703,387.634l9.575-6.029l1.773,3.014l-3.546,3.014l-2.128,3.901l-1.418,3.901l-4.255,2.128
		l-3.192-4.61C1842.512,392.953,1845.349,391.18,1845.703,387.634z"/>
	<polygon fill="#BE2326" points="1774.198,425.756 1780,429.125 1780,438.699 1774.379,442.423 1770,437.636 1770,432.316 
		1771.611,428.415 	"/>
	<path fill="#BE2326" d="M1812.856,442.556c0,0-6.716,3.05,2.15,7.66l2.505,2.784h-2.66l1.064,4h4.255l6.383-4.629
		C1826.554,452.371,1823.628,441.625,1812.856,442.556z"/>
	<path fill="#BE2326" d="M1820.17,460.642l4.447-1.928l3.383,3.391v5.319l-3.915,1.064
		C1824.085,468.488,1818.82,465.93,1820.17,460.642z"/>
	<polygon fill="#BE2326" points="1877.44,489.333 1881.784,484.762 1884,486.573 1884,492 1880.811,492 1880.711,497 1882.938,497 
		1886.928,498.436 1882.307,501.878 1878.151,500 1875,500 1875,492.957 	"/>
	<path fill="#BE2326" d="M1872.433,511.666l8.312-6.32l3.258,3.654h4.255h3.989h4.521c0,0,2.231,0.712,2.231,1.51s0,7.979,0,7.979
		l-0.584,4.42l-5.371,3.09h-4.787l-5.851-4.021l1.33-2.809l-0.532-3.476l-0.798-1.756l-2.66-1.581l-1.596,1.337l-3.192-0.794
		L1872.433,511.666z"/>
	<polygon fill="#BE2326" points="1786,515.905 1790.984,513.515 1795.17,515 1797.829,515 1800.755,513.515 1803.415,514.71 
		1804.744,517.987 1802.351,523.025 1799.159,524.348 1795.502,526.472 1794.106,524.342 1790.648,522.48 1787.593,522.745 
		1786,519.933 	"/>
	<path fill="#BE2326" d="M1756.206,595.65l4.721-3.872c0,0,1.828-2.468,6.084-0.074c4.255,2.394-0.017,6.377-0.017,6.377
		l-4.523,2.919h-6.132L1756.206,595.65z"/>
	<polygon fill="#BE2326" points="1719.635,610 1722.827,617.261 1724.423,620 1727.614,620 1730.274,618.182 1733.997,613.892 
		1735.327,610 1731.87,610 1729.742,610.057 1723.625,611.824 1723.093,610 	"/>
	<path fill="#BE2326" d="M1237,1049h6.556l3.444,1.422v4.255l-2.38,2.323h-2.128c0,0-1.15-5.949-4.076-4.619l-1.416-1.427L1237,1049
		L1237,1049z"/>
	<polygon fill="#BE2326" points="1236.109,1058 1239.301,1058 1241.943,1060.062 1239,1062.922 1239,1067 1240.364,1067 
		1241.827,1068.286 1238.968,1070.125 1236.219,1069.05 1235,1066.646 1235,1064.252 1236.884,1061.392 	"/>
	<path fill="#BE2326" d="M1245.219,1066.062c-1.862,0.532-0.334,3.938-0.334,3.938h3.99l4.125-2.025v-1.596L1245.219,1066.062z"/>
	<path fill="#BE2326" d="M1243.889,1080.875l1.395-2.474c0,0,3.582-2.4,4.389-5.4h2.394l0.532,3.937l-2.394,2.135l0.266,1.766
		l-3.192,2.545L1243.889,1080.875z"/>
	<polygon fill="#BE2326" points="1248.377,1087.391 1252.599,1083.401 1257.12,1085.396 1259.514,1090.05 1255.524,1092.71 
		1252.599,1096.966 1248.377,1098.827 1247.279,1096.434 1250.737,1094.306 1249.673,1091.114 1247.279,1089.253 	"/>
	<polygon fill="#BE2326" points="1232,1083.401 1237.711,1082.072 1241.598,1083.401 1239.984,1087.657 1238.113,1089.519 
		1236.612,1091.114 1232.903,1092.178 1234.047,1088.987 1232,1087.125 	"/>
	<polygon fill="#BE2326" points="1039,1032.602 1043.58,1030.164 1048.386,1032.136 1050,1035.527 1050,1040 1051,1040 
		1051,1044.038 1049.668,1047.762 1045.19,1045.102 1040.646,1042.265 1041.685,1038.963 1039,1035.527 	"/>
	<polygon fill="#BE2326" points="1051,1049.624 1054.278,1048.12 1058.089,1053 1060,1053 1060,1055.741 1053.86,1057.337 
		1051,1052.549 	"/>
	<polygon fill="#BE2326" points="1042.486,1051 1044.613,1051 1047.45,1057.16 1044.968,1058 1041.422,1058 	"/>
	<polygon fill="#BE2326" points="1039.826,1048.161 1038.673,1052.381 1030.783,1057 1028.655,1057 1030.428,1052.58 
		1034.241,1050.869 	"/>
	<polygon fill="#BE2326" points="1029,1030.208 1029,1035.527 1032.995,1037.301 1036.322,1040.492 1032.222,1041.911 
		1027.833,1040.492 1023,1036.059 1023,1034.464 	"/>
	<polygon fill="#BE2326" points="1010.725,1032.956 1018,1030.164 1018,1036.591 1021.208,1042 1022,1042 1022,1044.038 
		1016.639,1046.521 1014.358,1047.762 1010.899,1041.911 1014,1038.963 1014,1036.591 	"/>
	<polygon fill="#BE2326" points="1019.081,1051 1022.272,1051 1022.804,1054.7 1027.237,1061.446 1023.868,1065 1019.081,1065 
		1014,1058.401 1014,1054.677 	"/>
	<polygon fill="#BE2326" points="1021.208,1068 1023.336,1068 1022.168,1071.711 1021,1075.245 1021,1078.082 1018.001,1082.072 
		1014.108,1083.401 1011.053,1082.072 1014.513,1075.688 1020.742,1073.307 	"/>
	<polygon fill="#BE2326" points="1029,1081 1029,1075.954 1027.675,1070.103 1030.204,1067.975 1031.957,1070.103 
		1036.157,1068.108 1038.789,1070.103 1036.116,1074.093 1033.006,1078.743 1029.985,1081 	"/>
	<polygon fill="#BE2326" points="1036,1083.401 1036,1088.721 1039,1091.114 1039,1096 1044.613,1096 1047,1089.519 1047,1087.657 
		1047.314,1083.401 1044.368,1080.742 1041.602,1078.348 	"/>
	<polygon fill="#BE2326" points="1041.51,1066.114 1044.436,1073.295 1047.45,1075.688 1049.223,1070.901 1051.528,1070.103 
		1049.578,1067.975 1051.528,1064.252 1047.45,1062.479 1046.519,1064.784 	"/>
	<polygon fill="#BE2326" points="1056.936,1065.911 1058.975,1062 1062.699,1062 1066.954,1062.151 1069.437,1064.088 
		1066.954,1067.842 1063.32,1070 1058.443,1070 	"/>
	<polygon fill="#BE2326" points="815.617,1150.07 819.549,1154.68 821,1157.872 821,1163.191 815.782,1164.61 811,1162.482 
		813.087,1157.34 812.711,1152.198 	"/>
	<polygon fill="#BE2326" points="811,1195.816 815.835,1194.398 817.321,1198.653 814.12,1202.909 810.923,1206.1 806.706,1202.199 
		811,1200.249 	"/>
	<path fill="#BE2326" d="M535,1267.45v6.383l3,1.773v3.546l-3.784,2.482l-8.216-3.192v-5.674l4.068,1.773l0.604-7.092
		C530.672,1267.45,528,1263.904,535,1267.45z"/>
	<polygon fill="#BE2326" points="513.899,1238.282 509.389,1246.333 512.858,1248 516,1248 516,1253 519,1253 519,1258 524,1258 
		524,1252.556 527.117,1247.901 523.599,1244.045 517,1242.272 517,1239.789 	"/>
	<polygon fill="#BE2326" points="507.362,1253 509.49,1253 508.722,1257.299 512,1261.067 512,1264 507.362,1264 505.234,1261.026 
		507.007,1258.698 	"/>
	<polygon fill="#BE2326" points="484,1229.793 489.475,1232.136 492.822,1239 494.595,1239 497.734,1241.966 503,1242.981 
		503,1248.3 499.915,1251 495.659,1251 492.113,1247.833 488.567,1246.183 483.868,1242.986 486.085,1240.379 486.505,1238.283 
		484,1233.761 	"/>
	<path fill="#BE2326" d="M475.538,1214.434l3.462,1.95v4.255l5,2.128v3.192l-4.188,3.834l-4.045-2.77l-2.065-4.909
		C473.702,1222.114,472.17,1216.739,475.538,1214.434z"/>
	<polygon fill="#BE2326" points="465.782,1197.944 469.859,1196.526 475,1200.072 475,1204.682 477.912,1209.292 474.847,1211.774 
		467.877,1209.292 465.721,1204.15 467.614,1201.845 	"/>
	<polygon fill="#BE2326" points="485,1206.81 489.266,1204.15 492.108,1206.81 488.554,1210.356 485,1208.937 	"/>
	<polygon fill="#BE2326" points="488,1217 493.532,1217 496.723,1221.624 493.957,1223.586 488,1222.114 	"/>
	<path fill="#BE2326" d="M499.737,1223.435l7.713,3.035l4.211,5.419l-3.568,2.135l-4.632-5.024h-3.546
		C499.915,1229,496.368,1229.053,499.737,1223.435z"/>
	<polygon fill="#BE2326" points="509.48,1204.164 510.546,1211.781 517,1214.434 517,1216 523.32,1216 525.802,1209.898 
		523.32,1206.949 520.483,1204 513.745,1204 	"/>
	<polygon fill="#BE2326" points="520,1220 527.575,1220 528.107,1223.245 524.674,1226.375 520,1223.92 	"/>
	<polygon fill="#BE2326" points="387.145,1005 393.528,1005 395,1009.64 395,1013 400.975,1013 402.394,1016 398.848,1016 
		394.592,1016 390.264,1018.937 387,1020.633 387,1013.186 390.53,1012.92 389.37,1010.349 386.662,1009.536 	"/>
	<polygon fill="#BE2326" points="446.721,861 448,861 448,865.309 448.051,869 443.53,869 446.456,865 	"/>
	<polygon fill="#BE2326" points="448.849,877 455.232,877 457.715,883.3 453.282,887.482 450.977,882 446.721,882 	"/>
	<path fill="#BE2326" d="M336,799.35v6.383l4.384,2.128l-1.886,6.383l-5.992-2.482C332.506,811.761,329,806.629,336,799.35z"/>
	<polygon fill="#BE2326" points="328,801.477 328,805.733 325.391,806.797 326.746,810.343 324.01,811.761 319.973,808.924 
		317,806.797 317,804.669 320.476,802 325.441,802 	"/>
	<path fill="#BE2326" d="M80.132,840.1c0.578-1.141,7.004-0.1,7.004-0.1h5.319H93v5.096v4.255l2.347,4.965l4.653,1.418v3.192
		l-3.861,3.901l-4.747,3.546L87,864.245v-4.255l0.866-3.074L86.781,852h-2.837l-2.128,2.133l-1.684-1.239l-1.862-3.323l2.128-3.556
		C80.398,846.015,78.092,844.124,80.132,840.1z"/>
	<path fill="#BE2326" d="M159.478,774h4.255l4.61,3.366l2.128,4.381L167.989,784h-3.192l0.177-3h-4.433
		C160.542,781,157.35,778,159.478,774z"/>
	<polygon fill="#BE2326" points="232.852,285.978 234.641,280.244 237.853,276.49 240,279.12 240,282.311 236,283.375 236,285.503 
		236.841,290 232.885,290 	"/>
	<polygon fill="#BE2326" points="277.567,142 281.823,142 283,145.073 283,150 280.759,150 281.025,146 	"/>
	<polygon fill="#BE2326" points="259.481,111 264,111 264,115.285 264,121.668 261.741,124.86 259.414,126.084 256.29,118 
		260.545,118 260.279,114.855 	"/>
	<polygon fill="#BE2326" points="269.528,118.393 267.342,121.974 269.411,125 270,125 270,121.668 	"/>
	<polygon fill="#BE2326" points="267.884,104.025 271,106.774 271,114 271.184,114 269.743,110.653 267.06,106.497 	"/>
	<polygon fill="#BE2326" points="261.667,57.26 267,61.382 267,66.347 264.5,69.184 262,65.638 262,63.155 260.094,61.028 	"/>
	<polygon fill="#BE2326" points="249.907,50 252.034,50 254.517,55.425 252.212,59.825 249.907,65 244,65 244,58.9 249.258,54.716 	
		"/>
	<polygon fill="#BE2326" points="260,38.686 256.15,40.46 258.215,45.07 260.11,49.857 264,52.517 264,48.261 260,45.602 	"/>
	<polygon fill="#BE2326" points="1102.701,251.725 1106,256.247 1106,263.162 1102.701,261.034 1099.51,255.183 	"/>
	<polygon fill="#BE2326" points="1123.339,268 1116,268 1116,274.864 1119.882,280 1123,280 1123,274.864 	"/>
	<polygon fill="#BE2326" points="1126.638,268.283 1131,271.673 1131,275 1126.531,275 	"/>
	<polygon fill="#BE2326" points="1093.768,592.783 1097,594.378 1097,598.279 1100,600.407 1100,606.79 1097.086,610.691 
		1093.875,607.854 1090,605.372 1090,601.471 1091.441,596.506 	"/>
	<polygon fill="#BE2326" points="1089.296,617 1094.615,617 1095.147,621.736 1098.87,625.965 1097.097,632.336 1094.083,633.748 
		1091.423,630.198 1089.296,629.487 1089.828,625.32 1087.877,621.382 	"/>
	<polygon fill="#BE2326" points="1115.003,644.176 1119.438,650 1123,650 1123,652.536 1123,655.728 1125,659.274 1125,663 
		1121.212,663 1116.601,656.97 1117.662,653.29 1115,651.472 1115,645.089 	"/>
	<polygon fill="#BE2326" points="1066,666.056 1069,668.14 1069,672.75 1073.74,676.651 1075.667,679.842 1070.833,683.034 
		1066,679.842 1066,674.877 1066,672.75 	"/>
	<polygon fill="#BE2326" points="1096,729 1103,729 1103,734.454 1109,738 1109,746.156 1100.638,742.255 1096,739.419 	"/>
	<polygon fill="#BE2326" points="179.184,784.373 179.09,784.459 179.16,785.209 179.16,784.459 	"/>
	<polygon fill="#BE2326" points="751,655.728 747.536,661.848 744.828,669.026 739.219,674.545 733.135,677.714 725.91,679.133 
		734,683.034 734,690.835 743.291,694.563 747.086,699 755.242,699 764.108,693 770.136,693 775.456,678.353 780.42,674.155 
		782.548,668.831 788.222,662.546 798.861,661.362 802.407,653.088 805.953,647.205 809.122,643.576 813,633.741 813,624.876 
		808.679,629.663 798.096,625.319 791.031,635.426 779.697,639.504 771.193,643.835 759.498,644 757.909,644 751,648.635 	"/>
	<polygon fill="#BE2326" points="621.195,747 628.642,747 637.153,751 646.728,751 660.558,751 666.232,746.213 674.034,751 
		678.644,751 688.219,755 700.985,755 709.496,750 721.199,750 730.773,746.216 726.44,741.315 735.738,740.276 743.54,741.687 
		748.171,739.18 752.76,727.541 745.667,720.27 737.866,717.061 729.588,708 720.844,708 712.17,702.475 698,706.793 698,716.013 
		687.79,714.837 685.027,711 678.266,711 670.133,711 660.558,711 652.757,717.743 647.083,722.517 640.699,721.06 635.026,729 
		628.958,729 621.55,733.057 615.167,733.844 608.429,738 604.635,738 609.847,747 	"/>
	<a>
		<polygon fill="#BE2326" points="574.74,960 580.768,960 588.925,964.518 603.11,969.823 609.581,973 620.131,973 627.933,976 
			642.473,976 651.338,972.518 658.105,967.674 667,963.268 667,953.61 671.669,943.578 665.523,930 660.558,930 656.054,925.212 
			653.466,926.474 645.664,923.649 635.026,921 623.323,921 616.94,915 608.429,915 600.982,910.368 594.599,916.43 
			580.768,915.338 569.066,922.772 564.139,930.212 564,929.635 564,935.524 568.749,939.425 565.982,949.354 564.444,953.723 
			568.361,955.652 		"/>
	</a>
	<a>
		<path fill="#BE2326" d="M793.896,1182.695l-9.22,4.351L774.392,1182h-6.29l-6.121-6.39l2.794-10.952L764,1146.169v-18.086
			l-2.761-11.348L755,1105.388l-4-4.965v-4.787l2.632-8.624l5.257-18.996l5.068-15.186l-5.1-10.758l8.884-5.773L775.27,1021h-7.169
			l-3.284-7.872L756.306,1001H746v-5h-12.39l-7.624-6.833l-5.142-7.603L716.943,976H705.95l-9.22-3.724L692.474,976h-9.929
			l-2.837-4.036l-7.802-6.817l-6.857-0.738l-6.708,3.355l-7.004,4.738L642.473,976h-14.539l-7.802-3h-10.55l-6.472-3.312
			l-14.185-4.977L580.768,960h-6.029l-6.427-4.348l-3.966-1.795l-1.131,3.366l-9.043,7.768l-7.092,5.657l-18.972,10.594L517.641,989
			H504.17l-5.885-4.308l-6.305-2.775l-8.555,4.287l-11.333,3.03l-6.002-1.117l1.555,2.281c0,0-1.419,4.124-1.419,5.188
			c0,1.064-1.418,3.835-1.418,3.835l-6.029,3.159l-6.029,5.658l-3.747,6.02l-8.003,6.02v5.674l3.836,5.319l2.184,1.773l0.737,2.837
			l-1.582,6.738l-1.323,3.546l-0.661,4.965l1.797,2.128l-2.116,3.371l1.43,3.371h4.61l5.674,2.037l3.192,1.917l-2.482,4.045h-4.255
			l-1.418,3.347l6.029,5.653h4.965l2.482,3.112l2.128,5.546l7.092,5.964l1.418,4.932l-4.61,1.757l-6.304-2.49l-3.822,2.474v4.255
			l-1.94,2.837l0.891,3.901l0.347,4.965l0.702,2.128v6.383l-1.231,1.773l0.892,4.795l5.502,2.667h4.965h4.255l-1.418,3.45
			l-1.419,3.421l2.482,4.13h3.546h5.319l3.901,3.801l1.064,6.599l-2.128,6.669l-3.192,1.384l-3.901,3.855l1.418,6.692h3.901
			l1.418,2.245l3.192,3.339l6.029,4.595l0.709,2.822h5.674l1.418-3.901l2.128,0.089l1.064,2.881l2.837,3.44l4.965,1.49h3.546
			l3.546,2.078l4.255,1.837l7.092-3.16l1.418,4.626l-3.546,4.618l-3.192,4.259l1.773,3.194l3.546,1.774l1.418,3.901l-2.482,6.029
			l2.482,2.128l4.255,3.192l5.674,6.212l3.192,2.311H548v5.662l-4.095,2.837l1.765,6.383l3.542,1.773l2.392,5.674l6.072,3.901
			l5.341,2.128l6.039-1.773l3.906,2.531l6.743,2.885h3.192l1.773,2.345l-3.901,1.439l2.502,4.088l0.729,5.861v4.61l-0.286,4.328
			l7.338,4.328h4.61l3.901,1.612l3.546-1.588l5.319-0.439l6.029-1.461l12.057-7.823l2.837,0.699l4.965,0.349l3.546-3.194
			l2.482-2.838l3.901,2.482l7.092-1.419l4.61-2.286l6.029,0.906h7.092l4.61-1.881l3.192-3.512l2.611,0.727l-4.482,3.564v4.255
			l7.407,3.192l9.466-2.128l5.797-2.128l6.799-4.965l1.804,4.61l6.399,0.355l7.455-3.546l4.614-3.901l6.74-0.709l6.739,1.064
			l5.32-1.064l2.128-6.383l-2.482-2.128l2.482-0.709l3.901-5.674l-3.192-3.901l4.61-0.355l4.965-1.773l1.67-3.901l2.379-3.192
			v-5.319v-3.192l4.979-1.064l10.203-0.709l6.874-0.355l4.004,0.709l2.94-3.546v-5.674v-3.192l2.714-0.709l2.332-4.61l1.521-5.674
			l3.952-5.674l6.191-8.156l2.29-2.837v-5.319l1.057-3.546l1.943-4.61v-0.656l-9.35,5.621L793.896,1182.695z"/>
	</a>
	<polygon fill="#BE2326" points="842.834,1106.988 842.124,1096 831.84,1096 830.598,1087.174 829,1075.688 829,1069.571 
		824.303,1064.784 820.625,1058.401 817.323,1057.337 812.04,1050.953 817.34,1047.762 823.681,1041.911 820.408,1038.963 
		826,1036.059 826,1027.016 820.675,1030.164 816.277,1021.33 811,1024.889 811,1030.208 801.739,1036.059 784.652,1030.081 
		776.519,1021 775.27,1021 767.758,1036.298 758.89,1042.03 764.022,1052.808 759.019,1068.005 753.632,1087.007 751,1095.636 
		751,1100.423 755.337,1105.388 761.109,1116.736 764,1128.084 764,1146.169 764.774,1164.609 761.643,1175.61 768.101,1182 
		774.392,1182 784.676,1187.046 793.896,1182.743 801.65,1183.428 811,1177.784 811,1171.702 807.147,1165.673 801.763,1160.709 
		803.326,1156.453 804.817,1151.843 809.108,1150.779 812.141,1148.652 818.356,1144.396 820.133,1139.786 826.164,1135.176 
		833.612,1135.531 841.415,1134.112 845.316,1129.502 851.699,1122.41 854.536,1125.956 850.635,1115.408 	"/>
	<a>
		<polygon fill="#BE2326" points="1192.671,899.597 1187,903.608 1187,910.346 1181,912.119 1181,907.509 1176.107,910.346 
			1172.552,915.311 1169.045,911.764 1161.618,907.509 1156.309,903.254 1150.64,907.509 1139.295,903.963 1132.913,900.026 
			1125.467,905 1119,905 1119,907.864 1119,913 1112.701,913 1109,913 1109,915.311 1096,917.438 1096,924.886 1096,930.205 
			1091.997,932.465 1088,940.134 1088,943.625 1090.275,947.113 1096.809,949 1100.582,949.709 1104,942.971 1104,937.652 
			1109.326,930.914 1111.9,928.786 1113.896,934.46 1118.593,936.588 1124,936.233 1124,940.844 1126.063,945.454 1135.517,949.709 
			1140.599,954.674 1139.239,958.22 1136.076,962.475 1134.673,967.795 1135.563,969.922 1140,970.632 1140,974.887 1140,979.143 
			1135.127,982.689 1135.262,986.59 1136.925,989.781 1142.558,990.136 1145,992.618 1145,995.101 1149.684,997.664 1154.546,1002 
			1159.511,1002 1164.691,998.107 1172,991.909 1172,986.59 1176.483,982.689 1177.532,976.306 1180,973.114 1180,961.057 
			1185.802,955.738 1191.806,951.837 1195.403,948.291 1199,942.617 1199,936.588 1201,926.659 1201,921.694 1201,917.438 
			1201.938,917.89 1197.678,907.509 		"/>
	</a>
	<a>
		<path fill="#BE2326" d="M1131,883v-9.579l-11.1-3.502l-4.797-4.255l-13.081,6.383l-10.09,4.077l-11.512-5.496l-10.994,5.496
			L1054,864.245v-12.057l-0.62,2.351l-2.209,5.45l-7.712,5.674l-3.501,10.46l-6.361,4.434l-2.116,11.348l5.679,8.153l-5.314,3.942
			h-10.284l-4.211,7.118c0,0,0.24,5.401,1.087,10.692l2.326,0.489l3.103-5.299h11.171l9.397,1.372l10.816-1.885l14.185,5.795
			l11.703,1.479l6.544,2.867l5.305,3.422l0.216,0.146l-1.358,2.264l4.153-2.256v-1.994v-3.325v-7.447l13-2.128V913h3.701h6.3v-5.136
			V905h6.467l7.447-4.974l0.995,0.683l2.091-5.967V883H1131z"/>
	</a>
	<a>
		<path fill="#BE2326" d="M1340,837.649v-5.319l-2.83-6.383l3.441-4.787l0.708-0.887l-7.036-9.22l-8.483-5.049l-10.625-9.136
			l-6.376-2.128l-10.635,5.674l-10.637,5.457L1271.216,806h-9.929l-5.287-4.523v-9.922l-8.189,0.444h-9.641l-1.529,5.795
			l-9.043,3.205h-10.284l-7.802-3.84l-7.84,1.716L1191.427,806h-6.738l-6.029-6h-6.383h-10.639l-4.997-3.416L1152,786.106
			l-4.173-3.862c-0.878,0.031-1.614,0.107-1.614,0.107l-2.926,1.311l-2.926,3.721l-0.798,3.143l-2.926,4.473h-1.596l-3.458-5.006
			l-2.128,0.688l-2.394,0.61l-2.394,2.3l0.798,4.474l-0.241,0.433l5.093,16.811l-6.319,6.38V830h6v5.166l-5,3.546v5.674l6.351,4.965
			l2.643,9.22l2.492,9.22l-5.487,3.901V883h5v11.743l-1.604,4.588l9.07-3.967l6.921,0.798l7.487-3.835l3.743-2.548l6.925,2.548
			l5.132-7.336l8.324-6.915v-6.915l11.554-5.16h11.703h9.043l-0.118,9.495l-1.182,3.644v4.255l9.427,2.66l7.506,3.724l-1.433,5.585
			l4.071,4.233l2.64,6.51l6.597-3.031l2.338-3.48l3.129-4.145l0.967,4.607l3.825,3.942h17.022h7.802l9.93-3.676l8.511-7.73
			L1306.32,884h10.284l5.674-5.622l7.093-5.604l7.802-6.392l4.255-9.225l-1.637-1.148l-5.456-3.82l7.093-4.256l-4.965-4.256
			l4.515-3.546L1340,837.649z"/>
	</a>
	<polygon fill="#BE2326" points="1228.662,895.363 1230.258,889.778 1222.427,886.055 1213,883.395 1213,879.139 1214.182,875.495 
		1214.3,866 1205.257,866 1193.554,866 1182,871.16 1182,878.076 1173.681,884.991 1168.458,892.326 1161.59,889.778 
		1157.891,892.326 1150.456,896.161 1143.62,895.363 1134.712,899.33 1134.226,900.495 1139.297,903.963 1150.645,907.509 
		1156.319,903.254 1161.638,907.509 1169.085,911.764 1172.632,915.311 1176.107,910.346 1181,907.509 1181,912.119 1187,910.346 
		1187,903.608 1192.671,899.597 1197.545,907.62 1200.409,915 1214.477,915 1221.569,910.545 1232.208,907.564 1235.25,906.135 
		1232.651,899.61 	"/>
	<a>
		<polygon fill="#BE2326" points="1400,835.521 1400,830.202 1394.83,825.867 1387.178,821 1381.149,821 1372.284,819 1364.836,819 
			1355.616,814.548 1348.879,821 1340.836,821 1337.17,825.867 1340,832.329 1340,837.649 1340.982,840.131 1336.242,843.677 
			1337.113,844.328 1341.375,847.933 1334.311,852.188 1339.781,856.007 1344.882,855.025 1349.229,861.408 1354.905,864.245 
			1352.779,867.791 1356.325,872.339 1364.836,876 1374.057,876 1379.021,871.541 1383.256,869.107 1385.05,868 1391.788,868 
			1397.462,865.059 1401.008,856.451 1401.82,848.773 1406,848.287 1406,840.131 		"/>
	</a>
	<a>
		<polygon fill="#BE2326" points="1387.71,628.165 1384.518,625.589 1383.099,617.032 1387,611.046 1387,603.599 1387,598.279 
			1387,592.783 1380.667,586.075 1377.348,590.893 1369.823,586.167 1363.95,589.48 1357.811,593.27 1350.286,596.595 
			1346.213,606.258 1334.336,616.897 1336.643,629.663 1337.175,637.642 1334.339,647.232 1332.388,653.112 1330.535,662.643 
			1334,670.622 1334,672.75 1334,683 1337.708,683 1341.432,688.159 1350.74,696.191 1355.794,702.329 1359.517,709 1370.954,709 
			1376.007,702.311 1377.071,696.307 1380.263,691.444 1380.794,683.072 1384.518,677.556 1390.901,671.163 1388.773,666.061 
			1390.901,662.645 1387.71,659.453 1387.791,653.113 1390,646.153 1390,640.834 1387.178,635 1390.901,635 		"/>
	</a>
	<a>
		<path fill="#BE2326" d="M788.122,1008.931L796,998.292v-8.511v-13.298l6.661-3.724l-3.141-4.931l-2.812-5.707l6.307-8.398
			l8.791,3.433l5.195-6.738v-7.048l-0.799-13.165L808,924.886v-9.575l3.336-4.451l-4.366-8.991l-6.699-2.272l-12.283,2.726
			l-3.847-1.675L784,901.481v9.575l-9.591,6.383l-8.741,0.709l-6.099-4.255l-12.447-2.128l-12.784-2.128l-9.229-1.418l-7.097-7.092
			c-10.639-3.546-17.733,6.383-17.733,6.383l-7.803,9.476L682.899,916h-9.575l-4.255,6.039l-7.092,0.847l-5.923,2.213l4.505,4.901
			h4.965l6.147,13.578L667,953.61v9.658l-2.187,1.202l6.975,0.799l7.861,6.696l2.896,4.036h9.929l4.255-3.724l9.22,3.724h10.993
			l3.901,5.738l5.142,7.308L733.61,996H746v5h10.306l8.511,12.128l3.284,7.872h8.418l3.851-8.606L788.122,1008.931z"/>
	</a>
	<a>
		<path fill="#BE2326" d="M801.739,1036.059l9.261-5.851v-5.319l6.298-4.255l3.348-10.284l5.863-5.142l7.808-5.452l3.549-5.718
			l12.059-4.787l4.965-7.979l5.674-7.802l1.52-7.147L859,967.44v-5.319c0,0-0.547-7.092-3.384-7.802
			c-2.837-0.709-2.12-4.965-2.12-4.965L859,939.78v-4.255V924h-6.946l-7.447-7h-13.121l-11.348-3h-8.087l-0.714-2.998L808,915.311
			v9.575l8.201,5.319L817,943.37v7.048l-5.188,6.738l-8.904-3.433l-6.235,8.398l2.867,5.707l3.106,4.931L796,976.483v13.298v8.511
			l-7.878,10.639l-7.751,3.546l-3.876,8.688l8.145,8.998L801.739,1036.059z"/>
	</a>
	<a>
		<polygon fill="#BE2326" points="1456.329,883 1451.364,883 1444.38,878.765 1437.889,875.45 1432.924,882.348 1429.614,886.95 
			1424,890.842 1424,892.326 1417,890.842 1417,896.959 1412.505,900.066 1424.523,916.569 1426.009,918 1434.52,918 1437.179,918 
			1440.371,914.794 1444.38,917.604 1447.374,919.638 1449.589,915.955 1455.973,908.895 1453.846,902.528 1455.974,894.38 
			1460.23,887.292 1461.413,892.879 1461,893.037 1461,882.331 		"/>
	</a>
	<a>
		<path fill="#BE2326" d="M1087.683,926.659l-6.544-2.837l-11.703-1.419l-14.185-5.674l-10.816,1.643l-9.397-1.372h-11.171
			l-3.103,5.184l-12.678-5.697l-8.156-4.843l-8.865-4.195l-14.185,4.286l-4.255,9.235l-11.348,9.7L942.482,937h-8.156l-5.674,5.823
			l-7.802-1.034l-7.13,2.11l10.676,3.959l6.915,4.142h6.915l3.192,2.248l11.209,6.395l5.103,6.928l4.255,8.977l-9.359,10.428
			l-19.986,15.055l-11.791,0.544L915.886,990h-9.575l-3.192,3.171l-19.859,8.767l-15.603-9.358l-8.511,4.275l-11.355-6.767
			l-9.922,3.945l-3.546,5.721l-7.802,5.453l-5.851,5.143l-3.325,10.284l-1.023,0.697l4.353,8.834l5.325-3.147v9.043l-5.591,2.903
			l3.278,2.948l-6.34,5.851l-5.295,3.192l5.294,6.383l3.324,1.064l3.633,6.383l4.697,4.787v6.117l1.598,11.486l1.243,8.826h10.284
			l0.709,10.988l7.802,8.42l3.901,10.593l2.837-0.732l4.61-3.203l3.901,0.704l3.901,1.77l4.965-0.711l4.965-0.142l2.837-3.688h3.546
			c0,0,7.092-6.331,6.383-5.267c-0.709,1.064,6.738-5.914,6.738-5.914l1.773-4.375l4.61,0.649l4.61-2.867l2.837-3.207l3.901,1.056
			c0,0,3.192-1.777,3.192-0.713s8.156-2.484,8.156-2.484l2.837-2.483l3.11-6.029l2.755-0.355v-3.546l5.844-8.156l1.947-3.192
			l3.633,0.709l1.817-6.738l2.504-4.61l4.621-5.319l-4.25-2.837l0.712-8.865l3.548-3.546l6.738-1.419l5.039-2.482l1.847-4.61v-4.255
			l4.979,2.482l6.479,0.709l6.254-0.355l4.013-5.796l7.205-1.186h5.319l4.61-5.109l-1.418-2.998l4.255-1.528l3.546-4.365h2.837
			l2.128-6.62l3.192,1.743l1.418,2.999l4.61-0.451l5.674,1.016l3.546,1.749l7.447,1.052l2.161-1.779l0.743-3.552v-4.61l3-1.419
			v3.546l8.839-1.419l3.622-3.192l0.465-4.965l5.075-7.447v-11.702l-1.402-12.057l2.756-6.738l6.432-0.709l5.432-4.255l2.334-4.965
			l1.448-0.158v-6.934l5.355-9.929L1087.683,926.659z"/>
	</a>
	<a>
		<polygon fill="#BE2326" points="867.657,992.618 883.26,1002.016 903.119,993.171 906.311,990 915.886,990 920.85,1002.568 
			932.642,1001.937 952.628,986.905 961.986,976.463 957.731,967.43 952.628,960.376 941.418,954.245 938.227,952 931.312,952 
			924.397,947.799 913.721,944.043 909.503,945.23 900.992,949.42 891.771,960.735 875.459,967.456 869.785,963.547 
			862.069,966.326 860.565,973.471 854.891,981.271 849.926,989.25 847.791,990.097 859.146,996.874 		"/>
	</a>
	<a>
		<polygon fill="#BE2326" points="1232.983,29.456 1258,63.222 1258,87.624 1240.759,126.056 1232,145.073 1232,175.925 
			1257.725,204.515 1282.877,233.909 1303.669,280.716 1341.407,318.576 1370.676,326.126 1390.895,331.342 1423.393,312.193 
			1440.948,289.227 1471.267,271.939 1477.65,233.909 1498.44,204.515 1488.821,162.361 1498.44,124.328 1512.756,87.197 
			1485.629,58.472 1483.995,-1 1229.562,-1 		"/>
	</a>
	<a>
		<polygon fill="#BE2326" points="1644.685,774.171 1638,781.219 1638,788.711 1640.696,795.094 1644.437,797.338 1641.441,801 
			1635,801 1635,798.286 1631.217,796.513 1626.4,794.385 1622.218,796.513 1618.709,795.803 1613.408,796.513 1610.268,794.03 
			1605,794.385 1605,799.35 1600.38,800.945 1597,806.797 1597,813.18 1600.337,814.953 1598.016,817.081 1596.59,824.528 
			1592.617,827.365 1589,833.039 1589,838.713 1584.702,842 1578.673,842 1573.708,844.878 1571.581,851.37 1577.609,854.616 
			1576.587,859.872 1577,859.635 1577,863.181 1586.614,864.954 1588.672,865.309 1585.978,867.791 1586.403,872.401 
			1587.503,880.203 1588.939,885.877 1593.913,889.069 1603.138,891.551 1610.587,888.714 1613.425,891.551 1610.589,895.807 
			1608.085,896.516 1607,900.062 1607,906.8 1607.848,915.311 1611,920.985 1611,925.949 1607.337,928.786 1601.871,938.007 
			1604.989,939.78 1610.094,942.617 1617.966,942.262 1627.576,939.07 1635.041,938.716 1641.078,934.815 1643.919,928.786 
			1648.531,920.63 1651.015,912.474 1652.434,909.637 1650.306,906.445 1652.434,902.19 1649.243,897.225 1650.307,888.714 
			1648.179,883.395 1652.434,878.076 1654.562,875.239 1659.881,875.593 1668.038,873.111 1678.677,870.274 1686.707,867.437 
			1688,862.118 1688,855.734 1691.938,857.626 1696.762,862 1704.209,862 1706,855.025 1706,847.223 1711.266,846.16 1716,837.649 
			1716,831.265 1714.094,824.173 1710.57,824.528 1702.602,823.464 1698.796,814.244 1695.651,811.052 1688.228,812.471 
			1687.885,809.279 1690.728,806.087 1687.894,803.25 1683.285,802.544 1681.159,799 1678.677,799 1675.485,790.398 
			1670.52,789.022 1670.166,785.32 1665.91,785.597 1662.719,787.331 1658.463,786.957 1655.626,784.82 1656.335,781.269 
			1658.211,779.766 1655.076,775.945 		"/>
	</a>
	<polygon fill="#BE2326" points="2014,1074.777 2005.833,1089 1987.197,1089 1965.92,1089 1956.345,1089 1946,1089 1946,1095.104 
		1946,1100.423 1946,1105.742 1937.17,1101.842 1931,1105.742 1931,1112 1923.365,1112 1920,1114.608 1920,1122 1912.727,1122 
		1907.959,1116.442 1900,1113.189 1900,1123 1893.577,1123 1886.839,1111.446 1881.875,1114.091 1879.037,1118.25 
		1873.364,1116.074 1870.373,1118.178 1861,1122.232 1861,1114.253 1861,1109.998 1854,1110.352 1854,1114.253 1842.074,1122.232 
		1836,1132.339 1836,1139.786 1830.656,1132.339 1825.413,1135.176 1822.083,1144.396 1817.226,1151.489 1821.535,1156.453 
		1824.399,1164.145 1821.589,1169 1816.979,1169 1812.723,1169 1807,1178.44 1807,1189 1799.957,1189 1793,1189 1793,1195.107 
		1787,1201.845 1787,1206.81 1787,1210.001 1781.162,1217 1776.552,1217 1773.662,1211.993 1769,1211.774 1769,1218.512 
		1765.559,1229 1756.339,1229 1749.955,1229 1742.154,1236 1729.742,1236 1723.359,1236 1717,1239.435 1717,1245 1712.72,1245 
		1704,1245 1704,1253 1698,1253 1698,1260 1693.571,1260 1687,1260 1687,1269.578 1683.636,1277.025 1678.142,1285.399 
		1671.229,1292 1665.91,1292 1656.335,1295.949 1653.498,1288.26 1643.569,1292.217 1640.767,1296.146 1633,1305.394 1633,1316.388 
		1633,1322.771 1640,1329.509 1640,1342.984 1636.731,1361.184 1632.398,1373 1623.356,1373 1620,1379.156 1620,1384.475 
		1627.791,1390.489 1624.244,1396 2014,1396 	"/>
</g>
<a id="semi">
	<g>
		<a xlink:href="http://www.eveoniris.com/index.php/stygie" target="_top">
			<path fill="#E8D918" d="M774.392,827.01l-9.043-1.33l-7.447-2.128l-11.171-1.509l-8.245,6.297l-9.575,0.532l-3.99-1.862
				l-13.032,4.255l-14.628,2.926l-5.851-4.079l-4.787,3.281l-10.639,0.442c-15.958-1.596-20.745,4.165-20.745,4.165h-12.766
				l-8.511-5.319L616.94,838h-9.575l-5.319-6.825c-1.596,2.128-14.894,3.769-14.894,3.769l-6.383-6.445L569.066,835h-9.575
				l-4.787-7.84L541.405,832h-12.766l-5.896-4.756l-6.095-2.759l-1.49,3.259l-3.544-1.145L507.007,829h-3.901l-7.447-0.552
				l-3.192-2.492l-3.192-3.374l-2.482,3.386L483.247,829h-5.674h-4.255h-3.192l-9.575-2h-3.192l-0.355,3.621L450.622,833h-4.965
				l-3.192,4.589l1.773,4.411h9.929l-0.355,4.473l-1.419,3.389l0.355,4.177l3.546,3.862l-3.192,3.527l2.128,4.6l3.546,2.123
				l3.546,4.608l-2.482,3.411l1.064,4.83h3.901l0.355,3.768l-3.546,1.441l0.355,6.572l-1.418,3.818l1.418,2.795l-1.773,5.299
				l0.275,5.18l8.856,6.127h9.309l14.894,5.241l6.383-6.157l17.022-2.014l14.539,2.337L542.469,922h13.83l7.447,8.092l5.319-7.391
				l11.703-7.419l13.83,1.078l6.383-6l7.447,4.639h8.511l6.383,6h11.703l10.639,2.741l7.802,2.877l8.511-3.526l7.092-1.064
				l4.255-6.028h9.575l9.575,0.985l7.802-9.703c0,0,7.092-9.816,17.731-6.27l7.092,7.149l9.22,1.447l12.766,2.142l12.412,2.135
				l6.029,4.259l8.882-0.707l9.591-6.381v-9.575l4.505-10.284l-6.136-3.945l6.631-5.386v-4.854l-0.123-7.979l-9.548-4.255
				l5.899-4.255l3.771-8.334v-7.092l-7.925-8.511l3.219-5.674l-3.71-6.383l1.022-1.287L774.392,827.01z"/>
		</a>
		<a xlink:href="http://www.eveoniris.com/index.php/kush" target="_top">
			<path fill="#E8D918" d="M483.425,986.235l8.555-4.255l6.305,2.712L504.17,989h13.471l10.466-7.766l18.972-10.665l7.092-5.643
				l9.043-7.786l2.571-7.794l2.964-9.926L564,935.524v-5.889L556.3,922h-13.83l-10.993-6.536l-14.539-2.337l-17.022,2.156
				l-6.383,5.944L478.637,916h-9.309l-8.856-6.129l0.434,9.123l1.419,4.365l-3.192,3.246l-4.61,2.155l-2.837,3.914l1.064,4.262
				l-0.355,6.273l0.709,3.791h3.192l-0.355,3.748l1.773,2.849l2.482,5.148l-0.355,6.773l2.482,7.482h5.674l5.319-3.578l3.727-1.523
				l1.954-0.104v3.901v3.901l-4.969,4.911L469.772,984c0,0-3.901-2-3.901,0c0,1-0.709,3.334-0.709,3.334l0.927,1.074l6.002,0.983
				L483.425,986.235z"/>
		</a>
		<a xlink:href="http://www.eveoniris.com/index.php/vendhya" target="_top">
			<path fill="#E8D918" d="M1437.179,918h-2.66h-8.511l-1.361-1.431l0,0l-13.835-19.869l-8.813-5.859v-9.043l-9.805-3.092
				l-3.307-5.752l-5.575-4.011l-4.263,2.596l-4.993,4.459h-9.22l-8.511-3.661l-3.546-4.401l2.128-3.619l-5.674-2.874l-4.344-6.401
				l-5.094,0.973l1.637,1.141l-4.255,9.218l-7.802,6.382l-7.093,5.621l-5.674,5.621h-10.284l-10.993,8.363l-8.511,7.98l-9.93,3.657
				h-7.802h-17.022l-3.823-3.942l-0.965-4.376l-3.124,4.029l-2.328,3.422l-9.619,4.404l-10.639,3.022l-7.092,4.44h-14.068l1.264,3
				l1.634,0.557l3.458,6.001l3.679,5.107l4.743,3.334h6.029l1.418-3.614l3.901,1.119l7.093,3.042l6.383-3.976l1.773,6.346
				l-2.482,4.946l1.064,5.665l-2.128,3.896l-2.482,3.189l1.064,3.545l-2.483,5.673l0.709,2.837l4.61,6.738l5.173,3.546l5.172-1.064
				v4.255l-2.779,1.773l1.182,3.546l2.009,3.901l1.625,5.592l5.703,2.046h2.837l1.418,2.831l-3.901,8.064l-2.482,5.273l2.837,3.169
				l3.952,6.726l3.598,3.535v6.738v12.766l3,7.447v5.319v2.128l4.089,1.418l3.911-0.354v4.255l4,6.738v6.029l-2.498,4.255
				l2.74,3.546l3.055,1.773l4.625,3.546l1.078,6.029v8.511l4.35,5.319c0,0,3.327,6.383,4.746,7.802
				c1.418,1.418,10.174,2.837,10.174,2.837l4.106,2.128l1.624,1.773v3.546l3.198,3.901l4.347,8.511l2.883,1.419l3.215,3.192
				c0,0,2.494-0.709,2.139,0.354c-0.354,1.064,4.351-3.901,4.351-3.901l1.868,1.419v4.255l4.077,1.703h4.61l3.546-3.954l1.773,1.48
				l4.255,0.208l1.418-2.201l1.419,1.737l6.401-1.792l2.5-5.338v-3.546l4.798-3.901l3.202-2.128v-4.61v-3.192l2.631-6.029
				l2.646-4.61l3.096-2.482l4.03,0.355l3.412-4.255l5.185-4.61v-8.156l-3-6.738v-8.156l5.688,0.354l4.883-1.418l2.264-2.482
				l4.5-8.866l1.663-6.029v-4.965l-5.407-0.355l-3.147-0.709l1.441-2.128l2.139-2.837l-0.704-3.546l-4.253-0.709l-2.836-3.546
				l-0.354-4.965l3.901,0.709l3.901-2.128l3.192-2.837l5.319-10.993l2.128-5.674l-2.128-4.255l4.61,0.709l4.255-3.901l3.546-4.61
				l4.965-7.092l-3.192-4.61l-2.558-3.901l4.18-2.482v-4.61l3.234-7.092l3.766-7.092v-8.156l-5.996,0.355l-1.668-4.255l4.84-4.965
				l-3.431-4.61l2.54-3.901l-1.39-8.156l4.624,0.355l2.091-2.389l0.389-0.093v-5.319l-0.138-0.023l3.009-1.972l1.529-5.029
				l-4.02-3.069L1437.179,918z"
				/>
		</a>
		<a xlink:href="http://www.eveoniris.com/index.php/turan" target="_top">
			<path fill="#E8D918" d="M1133.978,858.571l-2.627-9.22l-6.351-4.965v-5.674l5-3.546V830h-6v-8.309l6.319-6.383l-5.061-16.815
				l-1.371,2.469l-1.072,3.449l-3.462,1.592l-3.725-1.332l-0.267-3.193l3.989-1.064l0.532-3.458l-0.611-4.522l-3.271-1.862v-6.117
				l-0.005-3.458l-3.995-0.532v2.926l-2,6.117v4.521l-2.373,4.787l-2.649,4.787l-4.782,2.394l-2.923-2.66l-3.572-4.787l-5.7-0.532
				v-1.862l5-6.649v-6.649l-0.788-3.724l2-3.458l-0.197-12.234l-1.295-5.851l-2.376-2.128l1.072-4.255l-0.794-7.979l-4.045-5.585
				l-4.577,0.532v-6.915l2.584-6.117l-1.501-3.989l-1.681-3.724l-5.696-0.798L1074,714.24v-3.192l-1.395-2.66l-1.894-2.926
				l-2.557,0.532l-4.153-3.99v-6.915l-1.714-6.383l-2.409-0.798l-1.877-6.915v-5.053l-2.97-4.521l-5.873-2.926l-5.995-1.064
				l-3.397-4.255l-6.353-5.585l-5.073-4.255l-5.339-5.585v-4.787l-7-3.724v-9.043l-2.183-5.851l2.233-23.937l4.707-3.989
				l5.818-3.192l3.425-4.521v-5.319l-1.736-4.521l-4.193-3.458l2.957-1.862l5.069-1.064c0,0,3.465-0.532,2.667-1.064
				c-0.798-0.532,1.866-5.585,1.866-5.585l-3.456-5.053l-1.329-5.053l2.66-4.521l2.926-3.724l3.192-2.128l-0.266-6.383l-1.064-4.787
				l3.724,1.064l3.458-2.394l4.255-3.059l4.521-2.793h4.255l1.862-2.394l1.862-4.521l1.064-3.604l3.192,0.519h2.66l3.724-2.713
				l4.521-3.75l2.394-7.194l2.66-4.528l1.33-6.918l-3.458-5.587l-3.458-0.267l0.532-2.926l5.036-0.532l3.573-3.192v-6.649
				l-1.512-9.043l-1.421-3.99l3.944-0.266l4.166-1.33l0.288-4.255l2.405-1.064l0.803-3.724l-2.125-3.458l-1.86-11.968l-2.393-3.458
				l-1.197,2.128l-2.792,0.266l-1.081-4.255l2.775-1.596v-8.245l3.01-2.394c0,0,0.441-6.915,1.505-7.979s2.747-5.319,2.747-5.319
				l1.374-4.521l-0.244-5.585l-5.06-2.926l-3.331-5.053v-4.521l2.212-3.989l1.505-7.979l0.876-6.649l1.408-7.979v-6.383
				l-3.448-1.064l-0.261,1.862l-3.012-1.835l-3.722,4.583l-6.383,4.255l-4.964,6.383l-7.801,1.418l-8.511,5.674l-11.348,1.418
				l-9.22,3.546l-7.092,7.092l-8.511,2.128l-9.22,15.603l-9.575-2.128l-5.319-4.255l-5.674-6.383l-9.93,1.418l-6.383,6.383
				l-10.639,3.546l-7.802,3.546l-13.477-2.837l-9.222-4.255l-6.387-7.092l-11.356,2.128l-14.911,6.383l-16.346,2.837l-7.159,2.837
				l-1.091-0.127l-11.083-1.292L859,405.72v7.447l-7.468,0.709L843,415.294v5.674l-5-0.355v-3.901l-9.09-4.85l-0.016,0.588
				l5.107,8.517V429h6.351l3.901,5.914l7.092,4.597l5.264,12.538l7.392,9.347v1.039v2.862l7,8.866v8.156v13.83v9.575l6,11.468
				v10.873l-10.079,6.383l2.141,10.639l5.681,5.791l-2.833,18.324l-8.509,7.092l-10.735,3.546l5.771,8.79l2.837,7.371h-8.156
				l-6.029,5.395l-9.929-3.996l-6.254,7.178l5.094,9.306V618h-9.479l-4.965,4h-4.61L813,628.938v4.804l-3.878,9.841l-3.224,3.635
				l-3.518,5.896l-3.532,8.298l-10.632,1.233l-5.67,6.383l-2.126,5.519l-4.964,3.808L770.136,693h-6.029l-8.866,6h-8.156
				l-3.795-4.437l-9.29-3.728v-7.802l-7.567-3.901L727,686.58v7.979l8.309,7.447l-5.7,5.055l8.384,9.662l7.738,3.546l7.061,7.27
				l-4.981,12.589l8.503-3.124l5.311,9.997h8.156l6.383,7.025l-2.128,3.202l4.965,5.635l6.329,10.619l3.669,7.782v14.185
				l-6.772,6.029l2.776,18.086l-4.419,4.965l3.464,6.383l-2.932,5.674l7.884,8.511v7.092l-3.935,8.334l-5.736,4.255l9.711,4.255
				l-0.04,7.979v4.854l-6.772,5.386l6.322,3.945l-4.564,9.452l4.012,1.675l12.169-2.726l6.533,2.414L812.051,914h8.087l11.348,3
				h13.121l7.447,7H859v11.524v4.255l-5.512,9.575c0,0-0.701,4.255,2.135,4.965c2.837,0.709,3.377,7.802,3.377,7.802v5.319
				l10.8-3.901l5.666,3.901l16.309-6.738l9.218-11.348l8.51-4.255l11.347-3.546l7.801,1.27l5.674-5.823h8.156l18.795-6.323
				l11.348-9.456l4.255-9.338l14.185-4.314l8.865,4.226l8.156,4.95l10.351,4.842c-0.846-5.29-1.087-10.465-1.087-10.465l4.211-7.122
				h10.284l5.319-3.942l-5.674-7.922l2.128-11.463l6.383-4.492l3.546-10.489l7.802-5.688l2.029-5.458l0.62-2.359v12.057
				l15.432,11.879l10.819-5.496l11.612,5.496l10.155-4.077l13.143-6.383l4.728,4.255l11.111,3.502v-1.729l5.478-3.901
				L1133.978,858.571z" />
		</a>
		<a xlink:href="http://www.eveoniris.com/index.php/zamora" target="_top">
			<polygon fill="#E8D918" points="877,517.191 871,505.723 871,496.148 871,482.318 871,474.162 864,465.296 864,462.435 
				864,461.395 856.608,451.998 851.273,439.409 844.216,434.914 840.351,429 834,429 834,420.968 828.816,412.451 828.896,411.863 
				828.614,411.748 825.105,412.457 825.763,418.131 828.525,425.933 823.492,430.189 824,437.636 824,447.21 828,452.53 
				828,461.041 828,470.615 824.144,471.317 826.093,476.6 824.534,482.828 822.779,488.779 817.858,494.059 814,499.34 
				814,505.723 814,511 809.499,511 806.662,514 806,514 806,518.489 808.081,524 812.691,524 811.272,529.667 808.79,531.525 
				809.789,537.596 806,539.767 806,544.022 806,550.405 806.662,557 798,557 798,563 793.541,563 789.64,566.721 786.561,569.556 
				781,572.746 781,575.938 776.898,580.903 773.867,584.804 768,586.931 768,593 760.562,593 756,596.861 756,600.407 
				749.327,602.535 742.39,604.308 739,607.854 739,614.237 732.635,617 727.582,617 726.174,624.927 721.199,629.423 
				719.862,634.931 721.199,636 726.44,636 733,639.77 733,635.426 740.348,641 746.377,641 749.923,644 759.498,644 771.2,643.835 
				779.711,639.63 791.059,635.489 798.151,625.351 808.679,629.679 813,624.876 813,628.938 816.946,622 821.556,622 826.521,618 
				836,618 836,613.882 830.906,604.662 837.269,597.57 847.144,601.395 853.118,596 861.274,596 858.437,588.629 852.666,579.668 
				863.402,576.207 871.913,569.157 874.75,550.855 869.076,545.075 866.921,534.442 877,528.064 			"/>
		</a>
		<a xlink:href="http://www.eveoniris.com/index.php/asgard" target="_top">
			<polygon fill="#E8D918" points="680.993,251.725 675.186,248.622 668.876,239.966 667,237.629 667,223.799 667,216.352 667,206 
				672.615,206 676.738,195.75 679.776,188.985 688,180.18 688,172.733 688,166.35 688,149.86 692,145.073 692,134.434 
				689.044,126.056 685.128,121.36 689.507,108.857 686.729,99.681 680.369,91.88 683.914,84.078 691.336,79.823 687.373,69.184 
				683.256,63.222 690,56.772 690,46.134 690,38.686 690,31.239 698.119,24.856 693.252,14.218 688.508,11.026 683.642,2.619 
				688.352,-1 499.453,-1 500.7,3.849 492.765,19.672 496,28.048 496,46.134 492,49.857 492,63.155 496.423,69.184 492.75,82.305 
				486.525,92.944 493,104.025 493,118.476 493.49,131.243 486.916,145.073 493.889,149.86 487.115,165.286 481.38,179.117 
				490.914,191.883 481,204.515 481,216.352 490.917,234.438 483.307,242.06 481.376,244.012 491.047,251.725 491.395,263.162 
				506.293,255.919 521.19,257.444 531.83,256.338 544.597,264 556.3,264 564.81,268.368 568.193,267.418 579.705,264 597.79,264 
				611.62,272 627.578,272 635.557,280.613 647.161,276.342 662.686,271.913 669.069,276.381 684.549,269.511 683.365,267.946 			
				" />
		</a>
		<a xlink:href="http://www.eveoniris.com/index.php/khitai" target="_top">
			<path fill="#E8D918" d="M1485.629,58.472l27.127,28.777l-14.316,37.104l-9.619,38.02l9.619,42.148l-20.789,29.391l-6.383,38.028
				l-30.319,17.287l-17.553,22.966l-32.839,19.148L1370,326.126v21.081l20.557,27.89l-20.042,35.41l10.193,31.99l-10.064,14.013
				l10.15,12.491h17.022l7.184,24.247v19.922l8.956,14.495l21.029,35.056l-6.769,13.572l-3.787,14.357l4.247,11.087l-5.323,15.16
				l1.451,8.422l-2.804,8.422V653.6l8.388,9.043l-0.664,11.902l10.276,8.489v10.993l3.223,7.979l20.777,6.915v11.702l-9.953,16.224
				l4.157,15.692l14.796,7.447v10.639l6,11.603v8.61l19,15.164v8.241l10.282,6.915l4.386,4.787l5.32,13.83l-9.553,16.231
				l9.586,9.834l3.046,9.461l0.952-1.837l4.744-1.773l-1.706,4.965l1.807,3.901l7.464,1.773l2.845-2.482l4.26-0.709l7.095-1.064
				l5.675-1.419l11.969-10.639l10.454-6.119l0.983-5.229l-6.029-3.192l2.128-6.601l4.965-2.878h6.029l4.298-3.287v-5.674
				l3.702-5.674l3.846-2.837l1.701-7.447l2.035-2.128L1597,813.18v-6.383l3.38-5.851l4.62-1.596v-4.965l5.277-0.355l3.215,2.482
				l5.287-0.709l3.53,0.709l4.247-2.128l4.666,2.128l3.779,1.773V801h6.441l3.192-3.662l-3.937-2.23l-2.696-6.397v-7.491
				l6.685-7.048l10.391,1.773l3.037,3.822l1.719-1.337l3.925,2.836l2.14,0.709l4.616-0.355l1.067-5.319l-1.062-9.22l-3.9-2.128
				l-5.674-0.355l-0.709-2.837l4.61-1.064l3.901-4.61l-4.255-6.738l3.901-0.355l1.773,3.192l4.965-0.355l4.255-5.319l0.709-2.482
				l6.738-6.029l-1.419-3.546l-4.964-0.709l2.128-2.131l0.709-4.613h2.837l4.255,5h4.255l8.156-13.756l3.192-5.548l2.482-2.419
				l-2.128-8.125l-3.901-1.669l-6.028-1.455l1.064-2.501l4.61-2.846l-0.355-9.934l-4.61-1.775l-3.546-8.157l3.901-5.32l-1.419-5.32
				l-2.837-2.128l-0.355-9.575l-4.964-3.546l-4.255-1.418l0.709-4.965l-5.674-7.802l-1.418-5.319l-5.319,1.064l1.418-5.319
				l7.447-7.092l7.447-10.284l1.418-4.965l6.029,1.418l5.319,1.419l6.029-4.255l6.383,1.773l4.078,2.128l3.369-1.773l5.674-3.546
				l9.575,1.064l7.447-0.355l3.546-3.901l6.738-5.674l3.546-11.348l-4.61-1.773l-1.064-2.128l3.901-0.355l3.901-1.418l7.447-3.546
				l1.773-4.965l-2.837-4.255l2.837-0.709l4.479-4.61l3.77-5.319V546h-4.703l1.064-3.915l1.064-3.287l-1.773-3.949l0.709-5.698
				l3.32-4.622l3.32-3.913v-7.447l-3.94-1.064l1.842-4.255l-4.221-0.709l-4.947,2.482c0,0-6.729-3.546-6.729-2.128
				c0,1.419-4.251,4.61-4.251,4.61l-4.608-4.965l-3.9,1.418l-4.255,3.901l-6.028-0.355l-3.546-3.546l0.355-8.156l-3.901-1.419
				l-4.255-0.709l-4.61-4.965l6.383,0.709l3.192,1.064l5.319-0.709l3.192-7.092l7.092-2.837l14.185,1.418l4.171,1.064l3.462-2.482
				v-5.319l5.492-3.192l-2.662-3.546l-0.622-4.255l3.945,1.419l2.504-4.61l-1.762-5.319l-5.314-1.773l0.712-7.092l-4.254-2.837
				l-1.772-10.284l-1.773-4.61l7.447-8.511l-0.355-4.965l-3.192-2.128l-0.354-7.225l-4.61-1.197h-2.837l3.192-5.452l4.965-6.361
				l6.028-4.954c0,0,6.738,2.311,5.497,2.665c-1.241,0.355-1.596,4.524-1.596,4.524l5.319,0.666l4.242,0.688l1.759-1.795v5.674
				l5.776,1.064l10.779-0.709l15.141-3.546l5.443-4.255l6.8-9.22l5.705-6.738l1.789-4.255l3.199,1.064l6.387-2.128l4.257-5.319
				l4.717-0.355l4.007-2.837v-4.255l2.787,1.418L1885,353.945v-4.61l4.493,1.773l7.507-2.482v-4.61l4.583,1.418l6.99-0.709
				l4.913-3.546l7.953-8.156l3.489-6.738l2.071-2.837v-3.901l-3.857-4.255l-6.095-2.482l-5.884-0.355l-4.538,0.355l-4.219-3.546
				l-4.237-3.192l1.073-6.029l-6.379-7.536l-3.542-1.507h-5.319l-4.255-3.901l-3.192,0.266l-1.418-4.832l2.837-3.302l-3.192-3.247
				l-3.901-2.155l-7.092-3.56l-6.029-0.716l-3.192,1.415l-3.901,2.481l0.709,1.772l-2.837,1.418l-1.064-3.192l1.064-3.901
				l-3.546-1.419l-5.884,2.128l-4.11-1.418v-3.546l-2.716,0.709l-3.22,0.355l-6.752,4.255l-3.73,3.901l-4.17,2.482l-7.05,1.064
				l-1.397-4.61l0.72-4.255l-3.541-4.255l-4.607-0.709l-0.708,2.128l-3.191-3.192l-4.109-2.837l-5.528,3.192v3.901l-3.072-1.064
				l-2.334-6.029l0.784-4.965l1.81-3.546l5.338,0.355l2.492-2.482l-1.059-5.319l-2.835-3.901l-2.127-4.255l1.419-1.418l-1.064-2.128
				l2.483-4.255l-0.709-4.61l-1.418-6.029l-1.627-7.802l1.919-5.674v-4.965l1.184-7.802l-2.688-6.029l0.429-8.511l-2.445-3.546
				l-4.592,0.709l-2.118,1.773l-3.542-3.192l-2.835-3.901l-1.063-9.575l-3.9-1.773l-1.773-3.901l-3.546-4.255l-3.192,0.709
				l-2.128-3.546l5.674-2.837l1.773-4.61l-0.355-4.61l-4.61-2.837l2.837-3.546l-0.709-8.156l-2.482-5.674l1.418-1.773l0.354-3.901
				l-1.773-6.029l0.709-5.319l5.319-2.837l1.419-4.61l-2.128-7.802l-4.965-1.773l-9.22-7.092l-5.674-1.418l0.354-5.319l-1.064-5.319
				l-3.546-1.064l-2.837-1.773l-8.865-6.383l-6.383-0.709l-2.128,3.192l-5.674,1.419l-7.447,1.773l-0.355-4.255l3.901-2.517
				l-1.77-5.714h-8.865l-6.738-3.245l-3.901-3.13l1.773-3.87l-1.064-4.772l-7.093-3.273l-6.029-2.523l-2.482-6.758l-3.192-3.556
				l-4.632,2.477L1657,13.863V5.707l-2.903-3.546l-4.023-0.605L1648.681-1h-164.685L1485.629,58.472z"/>
		</a>
		<a xlink:href="http://www.eveoniris.com/index.php/hyperboree" target="_top">
			<path fill="#E8D918" d="M1116.424,222.38l-3.369-4.255l-10.461-6.383l-10.107-7.802l-2.837-7.092l6.383-3.546
				c0,0,0-10.639-2.128-10.639s-9.929-7.802-9.929-7.802l-6.383-14.894l1.418-10.639l1.419-13.476l-7.093-7.092l-3.546-13.476
				c0,0,9.929,0.709,9.929-2.837s2.128-12.766,2.128-12.766l-10.639-2.128l6.383-12.057l2.837-14.894l-2.837-7.092
				c0,0,4.255-1.418,5.674-3.546c1.419-2.128,9.93-7.802,9.93-7.802s16.667-2.128,12.589-6.383s-0.177-10.639-3.192-12.766
				c-3.014-2.128-8.688-5.674-8.688-5.674s-9.929-12.662-9.929-17.627c0-3.1,1.106-7.712,1.937-10.712H688.352l-4.654,3.619
				l4.92,8.459l4.854,3.166l4.647,10.626L690,31.239v7.447v7.447v10.639l-6.742,6.45l3.899,5.962l4.077,10.639l-7.359,4.255
				l-3.502,7.802l6.405,7.802l2.848,9.176l-4.25,12.503l3.667,4.696l2.957,8.378v10.639l-4,4.787v16.49v6.383v7.447l-8.224,8.866
				l-3.226,6.704L672.615,206H667v10.352v7.447v13.83l1.876,2.337l6.192,8.657l5.866,3.103l0.438,2.794l1.978,13.43l1.192,1.568
				l3.64,4.815l-4.769,4.787l-5.133,3.69l-0.014,0.033l-2.818,6.383l-1.919,6.206L667,298.269v7.447l-5,6.738v9.22l-6,4.255v5.319
				l3.875,5.053L657.367,341h-6.383l-3.192,6.118l-0.631,0.74l10.072,3.826l3.18,3.875l5.397,6.63l21.311-6.361L709.496,350h15.958
				l14.894-6.982l21.277,2.094l14.894-1.081l14.894,11.08L807.372,363h23.405L823,378.059v20.213l5.799,13.476l9.201,4.965v3.901
				l5,0.355v-5.674l8.532-1.419l7.468-0.709v-7.447l4.151-6.738l12.182,1.419l7.155-2.837l16.344-2.837l14.91-6.383l11.356-2.128
				l6.387,7.092l9.222,4.255l13.477,2.837l7.802-3.546l10.639-3.546l6.383-6.383l9.93-1.418l5.674,6.383l5.319,4.255l9.575,2.128
				l9.22-15.603l8.511-2.128l7.092-7.092l9.22-3.546l11.348-1.418l8.511-5.674l7.802-1.418l4.965-6.383l6.383-4.255l3.724-4.583
				l-0.044-0.027l1.795-2.66l3.624-0.798l1.347-2.926l1.338-5.851l1.866-13.032l1.598-6.649l-2.659-5.851l-2.925-5.053l-2.659-1.33
				l0.532-2.926l2.926-3.724l2.66-6.383l2.66-4.787l-1.064-3.989l-1.596-6.383l-0.532-9.841l1.33-8.511l1.596-5.851l4.521-2.926
				l6.117-4.255l4.521-3.192l-0.025-4.787l5.344-6.383l0.186,0.325l0.08-0.325L1116.424,222.38z"/>
		</a>
		<a xlink:href="http://www.eveoniris.com/index.php/hyrkanie" target="_top">
			<path fill="#E8D918" d="M1508.458,856.007l9.575-16.231l-5.276-13.83l-4.474-4.787L1498,814.244v-8.241l-19-15.164v-8.61
				l-6-11.603v-10.639l-14.719-7.447l-4.189-15.692l9.907-16.224v-11.702l-20.777-6.915l-3.223-7.979v-10.993l-10.072-8.489
				l0.5-11.902L1422,653.6v-19.859l2.802-8.422l-1.657-8.422l5.421-15.16l-4.204-11.087l3.796-14.357l6.748-13.572l-20.956-35.056
				L1405,513.17v-19.922L1397.816,469h-17.022l-10.107-12.491l10.107-14.017l-10.107-31.987l19.87-35.409L1370,347.207v-21.081
				l-28.912-7.55l-37.542-37.861l-20.658-46.806l-25.205-29.394L1232,175.925v-30.852l8.759-19.017L1258,87.624V63.222
				l-25.017-33.766L1229.562-1h-143.648c-0.831,3-1.937,7.611-1.937,10.712c0,4.965,9.929,17.679,9.929,17.679
				s5.674,3.52,8.688,5.648s-0.886,8.498,3.192,12.753s-12.589,6.377-12.589,6.377s-8.511,5.671-9.93,7.798
				c-1.418,2.128-5.674,3.545-5.674,3.545l2.837,7.092l-2.837,14.894l-6.383,12.057l10.639,2.128c0,0-2.128,9.22-2.128,12.766
				s-9.929,2.837-9.929,2.837l3.546,13.476l7.093,7.092l-1.419,13.476l-1.418,10.639l6.383,14.894c0,0,7.802,7.802,9.929,7.802
				c2.128,0,2.128,10.639,2.128,10.639l-6.383,3.546l2.837,7.092l10.107,7.802l10.461,6.383l3.369,4.255l2.394,5.674l0.016,0.325
				l4.166,7.122V243h5v9h-5.725l-0.1,7.862l7.015,4.138H1138v4.481v7.447l11.021,9.575l5.777,9.575l-15.735,12.766L1134,320.079
				v11.171l7.957,7.751h-3.724l-3.034,5.965l-2.818,10.017L1135.2,365h3.034l-3.034,7.859l-6.609,10.313l5.409,10.313v11.171v17.554
				v11.171l-2.405,7.447l6.245,4.787l1.111,4.255l-4.951,4.787v11.703l5,14.362V489h7.744l-0.532,4.904l5.394,4.58l5.394,5.112
				v8.511V516h-10v6.213l-2,11.703v11.171l-4.389,8.511l-5.611,4.787V567h6.425l2.66,3.139l-0.532,2.899l1.596,5.705l-3.192,5.778
				l-5.438,2.091l-3.833,3.705l2.314,7.961V607h5.361l-1.064,6.544l3.192,5.134l5.319,4.695l1.064,3.145l-3.724,3.7l-1.064,5.84
				l1.862,1.856l-1.33,4.253l0.532,4.52l-1.596,3.191l1.33,4.255l1.596,2.394l-1.862,3.989l-2.66,3.723l0.532,5.053l1.064,4.255
				l-2.394,5.492l-0.266,4.96h5.851l5.851,1.899l3.458,1.101h5.585l-1.596,3.931l-5.319,2.069h-4.787H1145v4.484V705h-2.511
				l-6.489,0.198v3.724v3.458V719h-3.086h-3.192l-0.532,2.142l-1.33,4.528l2.128,5.456l2.926,4.457l-1.064,5.819l0.532,5.395
				l-2.394,2.204h-3.458l1.33,3.1l0.532,3.677l2.128,6.493l3.458,3.646l2.394,5.546l3.192,1.576l4.787,3.448l4.787,2.655
				c0,0,2.128,3.455,0.798,3.189c-0.595-0.119-1.398-0.127-2.109-0.101l4.173,3.847l4.642,10.508l4.997,3.416h10.639h6.383l6.029,6
				h6.738l10.246-7.137l7.84-1.768l7.802,3.906h10.284l9.043-3.205l1.529-5.795h9.641l8.189-0.444v9.922l5.287,4.523h9.929
				l16.313-0.129l10.639-5.523l10.639-5.641l6.383,2.144l10.639,9.144l8.511,5.053l7.093,9.143l-0.596,0.809h8.043l6.738-6.452
				l9.22,4.452h7.447l8.865,2h6.029l7.652,4.867l5.17,4.335v5.319l6,4.61v8.156l-4.18,0.482l-0.76,7.674l-3.572,8.615l-5.7,2.941
				h-6.738l-1.794,0.961l5.518,4.003l3.422,5.748l9.805,3.088v9.043l8.813,6.117l1.807,3.107l4.38-3.107v-6.117l7,1.484v-1.484
				l5.614-3.901l3.073-4.61l5.083-6.915l6.551,3.349l7.043,4.235h4.965l4.671-0.669v10.706l7.741,5.963h10.993l-2.128,3.811
				l2.128,3.236l6.383,2.668L1497.82,905h7.447l9.733-8.484v-8.866l3.556-8.866l2.158-3.482l-2.861-9.461L1508.458,856.007z
				 M1390,640.834v5.319l-2.209,6.959l-0.307,6.339l3.304,3.192l-2.071,3.413l2.156,5.098l-6.369,6.383l-3.717,5.497l-0.528,8.334
				l-3.19,4.787l-1.063,6.157l-5.052,6.689h-11.437l-3.724-6.689l-5.053-6.004l-9.309-8.072l-3.724-5.235H1334v-10.25v-2.128
				l-3.465-7.979l1.991-9.53l1.882-5.88l2.803-9.59l-0.549-7.979l-2.314-12.766l11.876-10.639l4.076-9.663l7.535-3.325l6.161-3.79
				l5.917-3.313l7.613,4.726l3.142-4.818l6.333,6.707v5.497v5.319v7.447l-3.901,5.851l1.241,8.422l3.28,2.846l3.28,6.835h-3.724
				L1390,640.834z"/>
		</a>
		<a xlink:href="http://www.eveoniris.com/index.php/vanaheim" target="_top">
			<path fill="#E8D918" d="M496.29,69.184L492,63.155V49.857l4-3.724V28.048l-3.235-8.428l7.622-15.771L499.453-1H269v4.579v4.255
				v6.383v5.319l-5,9.22v6.738l7.049,3.901l-2.858,7.802l6.372,7.802l3.791,9.22L270,67.056v4.61L265.333,81h6.915l3.901,8.011
				l-0.709,6.045l4.388,4.795l-4.8,5.589l5.972,2.752v8.156l-4,5.319v9.575l5.869,6.738l5.949,7.092l-4.561,7.802l-1.926,6.383
				l-1.318,7.092l5.724,3.546l-1.393,7.092l3.537,5.674l2.119,5.674v14.185v7.447l3.834,6.738l-0.224,0.917
				c-1.512-1.798-3.964-3.569-6.847-1.321c-4.837,3.772-4.763,7.702-4.763,7.702v7.255h5.295l-0.56,0.696l-0.709,2.406l10.755,3.64
				H307v4.948L316.93,253H326v4.843l6.902,10.472l9.561,5.685h9.159h0.416l7.447,2.227l13.83,6.5l8.511-11.027l10.639,4.3H407v6.311
				l7.892-1.596l5.99-8.777l8.118,2.394v-5.851l12.318,6.915l11.212-3.458l13.053-3.458l6.527,3.458l5.391-3.99l13.866-4.787
				l-0.321-11.437l-9.634-7.713l1.968-1.952l7.535-7.622L481,216.352v-11.837l9.931-12.632l-9.592-12.766l5.805-13.83l6.859-15.426
				l-6.831-4.787l6.313-13.83L493,118.476v-14.451l-6.35-11.082l6.084-10.639L496.29,69.184z"/>
		</a>
		<a xlink:href="http://www.eveoniris.com/index.php/barachanes" target="_top">
			<path fill="#E8D918" d="M100,737.25h10.75l27.75,22.25v12L121,779l-9-1.5c0,0-13.75-11.75-14.75-29.75L100,737.25z"/>
		</a>
	</g>
</a>
<g id="actif">
	<a xlink:href="http://www.eveoniris.com/index.php/carte-ophir" target="_top">
		<polygon id="Ophir" fill="#30B44A" points="551,617 551,607.854 551,595.442 544.597,588 537,588 537,579.13 538.195,577.763 531.306,576.43 
			521.192,581 515.163,581 506.298,586 498.851,586 490,586 490,593.314 487.148,591 480.411,591 475.446,603.151 468.469,609.854 
			461.616,617 454.878,617 452.041,625 443.53,625 432,625 432,630.195 426,639.77 426,648.635 414.993,657.856 407,663.175 
			407,669.026 402.028,681.648 390.717,687.001 386.798,690.467 390.337,693 400.975,693 408.068,686.155 414.451,681.58 
			422.962,678.938 427.217,685.419 438.565,684.049 449.381,678.399 459.842,669.014 471.9,664.942 483.957,662.817 
			495.305,656.469 500.979,660.247 508.071,657 513.745,657 534.313,656.788 542.824,651.657 555.59,652.274 564.101,652.937 
			573.367,647.24 578.995,647.938 596.726,648.641 604.528,645.092 610.911,643.672 619.422,645.799 635.557,643.671 
			647.083,644.38 657.012,647.217 664.814,645.089 674.743,643.671 683.254,639.504 685.352,636.769 688.219,633.032 
			673.325,635.869 664.104,639.504 657.721,636.578 659.849,630.904 656.303,624.521 646.373,621.684 635.557,624.521 
			628.958,625.94 618.713,628.067 605.947,630.195 596.017,631.644 586.797,626 573.321,626 569.917,617 565.874,617 		"
			
   onmousemove="ShowTooltip(evt)"
    onmouseout="HideTooltip()"/>
			
			
	</a>
	<a xlink:href="http://www.eveoniris.com/index.php/carte-zingara" target="_top">
		<polygon id="Zingara" fill="#30B44A" points="198.841,772 216.572,769.862 223.31,764 228.629,764 239.977,767.163 255.382,763.55 266,756.795 
			266,748.816 271,745.092 271,739.241 285.014,729 292.461,729 299.908,722 309.483,722 317.462,714.397 328.101,709.636 
			331.824,700 336,700 336,691.246 340.526,683.402 349.739,680.579 354.763,675.642 363.986,669.138 369.831,665.171 
			372.098,661.848 372,661.41 372,656.792 372,652.182 364.147,653.6 351.133,657.146 340.592,661.402 336.26,659.983 
			331.904,655.019 327.198,650.054 321,646.153 321,652.891 327.21,659.274 322.336,666.366 317.239,664.239 312.918,664.948 
			317.406,668.821 312.675,675 300.972,675 291.397,675 284.66,675 278.631,669 269.765,669 263.382,663.516 254.871,658.558 
			245.651,653.449 238.204,651 227.211,651 223.31,644 212.671,644 205.224,644 199.938,637.38 191.663,630 188,630 188,642 
			181.819,642 169,639.504 169,652 158.414,652 148.839,659 139.265,659 133.147,664.798 123.839,669 116.309,669 115.793,674.202 
			117.987,681 123.307,681 129.335,675.9 134.3,672.374 141.392,671.143 146.002,673.542 143.52,675.628 138.91,674.544 
			134.655,678.499 126.144,686 121.179,686 116.924,690.279 108.058,687.898 104.866,692.381 102.739,699.41 100.966,705.761 
			102.739,711.419 108.413,713.184 109.476,717.081 107.349,719.562 106.994,725.345 111.959,729 116.924,729 119.051,729 
			118.697,734.298 120.115,738.035 123.307,740 128.626,740 130.754,740 133.945,740 137,736.227 137,739.773 137.157,745.564 
			137.846,751 140.329,751 143.52,751 148.13,753.809 152.386,756.532 155.577,755 157.35,755 159.124,759.71 160.897,761.621 
			158.769,764.705 159.478,768.594 164.443,770 169.053,770 171.535,775.411 172.599,781 175.436,781 178.982,783.969 
			179.09,784.15 191.394,772 		"
			onmousemove="ShowTooltip(evt)"
    onmouseout="HideTooltip()"/>
	</a>
	<a xlink:href="http://www.eveoniris.com/index.php/carte-aquilonie" target="_top">
		<polygon id="Aquilonie" fill="#30B44A" points="542.234,509.624 548,505.723 548,499 542.824,499 538.891,492.964 544,488.701 544,481.254 
			540.342,471 544,471 544,466.36 544,457.14 536.415,451.468 540,441.891 540,434.71 532.098,428.072 526.027,434.71 
			523.432,440.118 512.915,442.955 500.64,447.92 491.728,447.212 480.765,452 472.609,452 469,448.274 469,440.118 480,434.444 
			480,428 473.318,428 468.469,421 458.424,421 449.913,419.78 444.594,412 433.955,412 421.189,418 410.55,418 400.975,418 
			393.528,418 382.89,421 369.059,421 362.676,428 357.818,428 345.654,435.532 346.718,442 341.399,442 330.76,447 320.122,447 
			302.036,458.542 284.482,471.367 281.025,481 270.12,481 264,486.573 264,495.084 256.155,501.467 250.903,508.915 
			240.83,517.425 236.415,526.468 232,538.703 232,549.341 225,555.725 225,564.235 232.367,569.555 225.168,573.81 219,581.257 
			219,587.641 219,597 210.544,597 206.543,599.477 196,606.79 196,615.301 196,630 191.663,630 199.938,637.38 205.224,644 
			212.671,644 223.31,644 227.211,651 238.204,651 245.651,653.453 254.871,658.846 263.382,663.657 269.765,669 278.631,669 
			284.66,675 291.397,675 300.972,675 312.675,675 317.462,668.821 313.029,664.846 317.462,664.188 322.781,666.341 
			327.21,659.261 321,652.891 321,646.153 327.21,650.054 331.484,655.019 336.087,659.983 340.578,661.402 351.273,657.146 
			364.119,653.6 372,652.182 372,656.792 372,661.41 372,665.303 372,675.941 377.888,679.133 383.758,688.619 386.679,691.246 
			390.624,687.001 402.004,681.648 407,669.026 407,663.175 414.993,657.856 426,648.635 426,639.77 432,630.195 432,625 
			443.53,625 452.041,625 454.878,617 461.616,617 468.469,609.679 475.446,603.176 480.411,591 487.148,591 490,593.314 490,586 
			498.851,586 506.298,586 515.163,581 521.192,581 531.476,576.43 537.535,577.832 541,570.619 541,562.108 536.903,557.852 
			530.976,550.051 537.565,545.795 534.188,540.831 532.123,533.738 537.443,529.483 537,522.745 537,516.716 		"
			onmousemove="ShowTooltip(evt)"
    onmouseout="HideTooltip()"/>
	</a>
	<a xlink:href="http://www.eveoniris.com/index.php/carte-koth" target="_top">
		<polygon id="Koth" fill="#30B44A" points="431.827,691 443.53,693 448.849,693 455.587,698.035 462.679,702.592 468.469,713 477.574,713 
			483.691,719.298 488.212,724 500.979,724 510.908,728.443 523.674,732 534,732 534,723.815 537.253,725.234 543.411,727.539 
			548.259,731.307 559.846,738 573.321,738 585.024,738 595.308,741.147 600.273,738 608.429,738 615.167,733.479 621.55,733.278 
			628.958,729 635.026,729 640.699,721 647.083,722.762 652.757,717.926 660.558,711 670.133,711 678.266,711 685.027,711 
			687.79,714.837 698,716.013 698,706.793 712.17,702.475 720.844,708 729.588,708 729.355,707.398 735.309,702.175 727,694.559 
			727,686.58 726.681,679.133 733.421,677.714 739.411,674.545 745.022,669.026 747.568,661.848 751,655.728 751,648.635 
			757.909,644 749.923,644 746.377,641 740.348,641 733,635.426 733,639.77 726.44,636 721.199,636 718.716,635 710.56,635 
			704.531,636.715 701.694,641 693.538,641 688.219,633.913 685.352,637.21 683.254,639.724 674.743,643.781 664.814,645.144 
			657.012,647.244 647.083,644.394 635.557,643.678 619.422,645.802 610.911,643.672 604.528,645.09 596.726,648.636 
			578.995,647.926 573.367,647.217 564.101,652.891 555.59,652.182 542.824,651.472 534.313,656.788 513.745,657 508.071,657 
			500.979,660.248 495.305,656.655 483.957,662.913 471.9,664.994 459.842,669.049 449.381,678.435 438.565,684.103 
			429.211,685.086 426.508,691 		"
			onmousemove="ShowTooltip(evt)"
    onmouseout="HideTooltip()"/>
	</a>
	<a xlink:href="http://www.eveoniris.com/index.php/carte-argos" target="_top">
		<polygon id="Argos" fill="#30B44A" points="502.397,769.207 504.613,761.405 506.83,755.022 504.613,746.156 501.482,740.261 505,732.326 
			505,725.739 500.979,724 488.212,724 483.691,719.298 477.574,713 468.469,713 462.679,702.982 455.587,698.39 448.849,693 
			443.53,693 431.827,691 426.508,691 429.211,685.083 427.217,685.424 422.962,679.087 414.451,681.947 408.068,686.144 
			400.975,693 390.337,693 386.777,690.467 383.954,688.229 377.888,678.938 372,675.941 372,665.303 372,661.41 372.108,661.848 
			369.654,665.171 363.926,669.138 354.79,675.642 349.868,680.579 340.514,683.402 336,691.246 336,700 331.824,700 
			328.101,709.691 317.462,714.427 309.483,722 299.908,722 292.461,729 285.014,729 271,739.241 271,745.092 266,748.816 
			266,756.795 255.382,763.477 239.878,767.163 228.629,764 223.31,764 216.572,769.862 198.841,772 191.394,772 178.605,783.731 
			178,784.459 178,785.209 179.337,788 183.947,788 185.72,790.749 186.075,795.227 184.302,798.968 187.848,802 193.522,802 
			199.905,804 205.224,804 210.898,797.331 214.799,792.489 214.444,796.922 216.927,801 223.31,801 229.339,794.944 
			235.012,796.083 242.105,795.589 247.07,799.065 252.389,796.193 255.581,795.112 266.574,789.074 274.021,789.779 
			280.049,787.649 282.532,792.258 289.27,795.161 295.298,797 299.908,797 304.164,793.299 307.355,790.473 311.965,786.755 
			318.703,780.995 320.497,776.697 323,775.235 323,779.136 320.586,782.328 315.744,788.711 313.5,794.03 313.265,796.158 
			317.225,797.222 322.929,795.803 324.894,796.513 333.944,795.449 340.745,792.257 344,791.902 344,797.222 352.038,804 
			358.421,804 364.804,804 371.896,806.905 382.89,812.162 391.046,816 397.784,816 405.231,810.6 407.004,815.8 414.451,821 
			422.253,821 427.572,821 431.118,814.342 441.402,798.867 446.367,792.725 454.169,789.122 460.552,788.385 464.098,785.888 
			481.474,785.172 491.049,779.135 		"
			onmousemove="ShowTooltip(evt)"
    onmouseout="HideTooltip()"/>
	</a>
	<a xlink:href="http://www.eveoniris.com/index.php/carte-shem" target="_top">
		<path id="Shem" fill="#30B44A" d="M528.639,832h12.766l13.298-4.84l4.787,7.84h9.575l11.703-6.478l6.383,6.47c0,0,13.298-1.688,14.894-3.815
			l5.319,6.823h9.575l17.022-5.319l8.511,5.319h12.766c0,0,4.787-5.761,20.745-4.165l10.639-0.487l4.787-3.259l5.851,4.091
			l14.628-2.92l13.032-4.253l3.99,1.863l9.575-0.531l8.245-6.296l11.171,1.509l7.447,2.128l9.043,1.33l7.132-3.77l3.152-3.677
			l-2.448-18.086l6.772-6.029v-14.185l-3.669-7.802l-6.001-10.639l-5.128-5.674l2.046-3.124L769.782,747h-8.156l-5.319-9.997
			l-8.511,3.202l0.375-0.991l-4.631,2.484l-7.802-1.428l-9.298,1.019l4.333,4.929L721.199,750h-11.703l-8.511,5h-12.766l-9.575-4
			h-4.61l-7.802-4.787L660.558,751h-13.83h-9.575l-8.511-4h-7.447h-11.348l-5.213-9h-4.362l-4.965,3.147L585.024,738h-11.703
			h-13.476l-11.525-6.693l-4.787-3.546l-6.281-2.416l-3.252-1.53V732h-10.326l-13.681-3.915L505,725.739v6.587l-3.518,7.935
			l2.674,5.896l2.445,8.866l-2.102,6.383l-2.159,7.802l-11.319,9.929l-9.56,6.037l-15.951,4.961l-7.443,5.672l-6.381,1.063
			l-5.318,6.737l-4.964,5.674l-2.482-0.355l-1.064,4.61l-6.383,8.511l7.447,3.546l8.511-2.128l10.993-6.342l2.837,2.878H468v1.691
			l6.294-1.773l6.782-3.192l11.193-0.355l7.192,2.128l8.561,2.837l5.344,0.709l3.559,1.773l-0.277,0.616l6.096,2.81L528.639,832z"
			onmousemove="ShowTooltip(evt)"
    onmouseout="HideTooltip()"/>
	</a>
	<a xlink:href="http://www.eveoniris.com/index.php/carte-cimmerie" target="_top">
		<polygon id="Cimmérie" fill="#30B44A" points="476.361,410.434 481,401.464 481,396.145 488.596,391.889 494.521,386.849 500.7,385 510.553,385 
			517.469,380 522.256,380 527.575,373 533.958,373 538.746,370 543.533,370 550.98,366.317 556.831,356.86 569.598,349 
			576.513,349 583.428,343 594.599,343 601.514,336.327 606.833,330.064 612.684,325.337 615.344,319.605 623.323,316 630.77,316 
			635.557,309.528 642.473,306.027 652.066,310.659 659,305.716 659,298.269 663.769,293.482 668.015,286.162 672.793,282 
			678.266,282 678.281,282.388 683.415,278.909 688.185,274.227 684.549,269.465 669.069,276.367 662.686,271.926 647.161,276.387 
			635.557,280.61 627.578,272 611.62,272 597.79,264 579.705,264 568.193,267.341 564.81,268.445 556.3,264 544.597,264 
			531.831,256.338 521.192,257.52 506.298,255.957 491.404,263.181 477.574,267.959 472.254,271.944 465.871,268.484 
			453.105,271.94 441.318,275.397 429,268.481 429,274.332 420.839,271.939 414.318,280.716 407,282.311 407,276 392.464,276 
			381.826,271.742 373.315,282.695 359.485,276.336 354.416,274.962 348.677,290.88 338.207,295 331,295 331,304 323,304 
			323,311.036 323,323.802 323,332.313 330.338,343.284 323.845,350 332.888,350 336.08,360.04 341.399,372.773 348.846,382.331 
			349.91,391.1 351.505,396.974 352.038,399 347.782,399 350,409.975 350,420.614 357.402,427.233 357.818,428 362.676,428 
			369.059,421 382.89,421 393.528,418 400.975,418 410.55,418 421.189,418 433.955,412 444.594,412 449.913,419.78 458.424,421 
			468.469,421 470.127,421 		"
			onmousemove="ShowTooltip(evt)"
    onmouseout="HideTooltip()"/>
	</a>
	<a xlink:href="http://www.eveoniris.com/index.php/carte-pictes" target="_top">
		<path id="Terres Sauvages Pictes" fill="#30B44A" d="M350,420.614v-10.639L347.782,399h4.255l-0.533-2.03l-1.595-5.83l-1.064-8.801l-7.447-9.587l-5.319-12.706
			L332.888,350h-9.043l6.493-6.716L323,332.313v-8.511v-12.766V304h8v-9h7.207l10.47-4.106l5.739-16.222L352.038,274h-0.416h-9.159
			l-9.561-5.685L326,257.843V253h-9.07L307,242.948V238h-9.22l-10.763-3.639l-1.715,4.558l-5.02,2.015l-8.406,2.781l-2.474,4.582
			l0.359,6.529L270.12,261h-5.319l-7.642,2.233L252,267.772v6.029l-3,2.128v6.383l-2.295,4.255l-3.187,5.319l-3.373,5.674
			L235,295.432v-3.546l-5.047-0.355l-3.499,2.837l-2.281,3.192l-5.573,4.965c0,0-2.432,4.11-3.141,6.238
			c-0.709,2.128,3.596,6.238,3.596,6.238h4.255l-1.064,1.475l-4.268,1.89L213,320.965v6.029l2.407,3.546l-2.254,3.192l-8.663,3.192
			l-6.341,5.319L195,347.562v4.965l7.387,3.474h1.773l-0.709,2h-2.482L193,359.974v6.383v5.319v3.192l-1.069,7.092l-3.815,4.988
			L181.465,393H176.5l-5.427,0.775L166,397.563v4.965v8.511v7.447l-5.379,5.674L154,427.352v3.901l-4,3.192v3.192l-1.201,6.738
			l4.985,1.773l-4.423,4.61l-1.679,3.901l2.884,3.901l-2.814,2.837l-2.825,5.319l-6.023,14.125l1.779,9.16h2.837l1.064,0.503
			l-2.128,3.177l-4.583,1.411L134,499.34v6.383v7.447l3.846,2.83h-2.837L128,518.844v2.837l5.898,4.546L133.591,529H127v3.32
			l-3,3.546v4.965l-3,7.802v6.029l6.029,3.901l3.99,3.192l-1.197,2.837l-5.208,7.092l-7.403,5.319L113,583.03v5.674l3.014,3.546
			L113,594.733v6.738l-1.85,4.965l3.064,2.482l5.61,3.546l-0.209,4.61l-0.282,6.383l-4.219,3.192l0.373,3.546l3.91,3.901
			l-4.698,2.128L110,641.543v4.61l3.373,8.865l1.243,6.383l1.686,6.37l0.007,1.228h7.529l9.309-4.202l6.117-5.798h9.575l9.575-7H169
			v-12.496L181.819,642H188v-12h3.663H196v-14.699v-8.511l14.544-9.79H219v-9.359v-6.383l6.41-7.447l6.81-4.255l-7.22-5.319v-8.511
			l7-6.383v-10.639l4.432-12.234l4.344-9.043l10.151-8.511l5.207-7.447l7.867-6.383v-8.511l6.12-5.573h10.905l3.458-9.448
			l17.554-12.675L320.122,447h10.639l10.639-5h5.319l-1.064-6.704l12.164-7.607l-0.416-0.612L350,420.614z"
			onmousemove="ShowTooltip(evt)"
    onmouseout="HideTooltip()"/>
	</a>
	<a xlink:href="http://www.eveoniris.com/index.php/carte-brythunie" target="_top">
		<polygon id="Brythunie" fill="#30B44A" points="823,378.059 830.777,363 807.372,363 791.414,355.104 776.519,344.107 761.625,345.125 
			740.348,343.041 725.454,350 709.496,350 687.122,355.818 665.811,362.201 660.414,355.532 657.234,351.604 647.161,347.685 
			642.251,355.144 636,359.264 636,363.165 636,363.393 636,371.676 638.419,375.097 641.963,379.832 650.551,384.088 
			652.008,392.599 646.354,401.11 649.201,411.748 651.333,417.422 652.754,424.515 649.918,431.607 646.373,441.536 
			644.955,447.21 652.047,452.175 650.629,458.558 658.43,462.814 667.473,459.268 671.906,462.814 667.473,471.407 675.452,480 
			685.027,480 693.183,486.478 696.02,496.285 702.404,499 710.56,499 716,503.241 716,511.042 720.372,519.585 725.099,526 
			726.44,526 738.22,526 745,526 745,521.681 754,518.844 754,513.17 760.418,512.461 764,505.368 764,498.276 764,488.701 
			773,485.51 773,482.318 779.724,481.963 785.38,477.708 796,474.162 796,478.062 802.407,478 806.308,478 812.336,475.194 
			823.418,471.841 824.144,471.509 828,470.615 828,461.041 828,452.53 824,447.21 824,437.636 823.487,430.189 828.55,425.933 
			825.763,418.131 825.078,412.457 828.649,411.748 823,398.273 		"
			onmousemove="ShowTooltip(evt)"
    onmouseout="HideTooltip()"/>
	</a>
	<a xlink:href="http://www.eveoniris.com/index.php/carte-corinthie" target="_top">
		<polygon id="Corinthie" fill="#30B44A" points="824.203,471.317 823.418,471.458 812.336,475.194 806.308,478 802.407,478 796,478.062 
			796,474.162 785.595,477.708 779.674,481.963 773,482.318 773,485.51 764,488.701 764,498.276 764,505.368 760.418,512.461 
			754,513.17 754,518.844 745,521.681 745,526 738.22,526 726.44,526 725,532.32 725,536.043 725,536.575 715.475,538.703 
			719.002,544.377 707.511,546.504 699.638,547.214 694.638,543.667 691.783,547.214 694.611,553.791 688.219,557 683.963,557 
			678.266,558.135 674.538,565.397 666,564.235 666,569.2 653,569.555 653,574.165 647.283,577.711 642.223,583.385 635.61,581.967 
			631.506,585.513 625.818,586.222 620.847,586.931 613.752,588.35 610.302,589.062 603,590.832 603,596.151 597.735,601.825 
			589.299,603.953 579,605.726 579,610.336 573.321,617 569.917,617 573.321,626 586.797,626 596.017,631.644 605.947,630.077 
			618.713,628.008 628.958,625.91 635.557,624.506 646.373,621.677 656.303,624.517 659.849,630.902 657.721,636.577 
			664.104,639.503 673.325,635.869 688.219,633.913 693.538,641 701.694,641 704.531,636.715 710.56,635 718.716,635 
			719.862,634.95 721.199,629.668 726.174,625.063 727.582,617 732.635,617 739,614.237 739,607.854 742.334,604.308 
			749.388,602.535 756,600.407 756,596.861 760.562,593 768,593 768,586.931 773.678,584.804 776.497,580.903 781,575.938 
			781,572.746 786.561,569.2 789.83,566.721 793.541,563 798,563 798,557 806.662,557 806,550.405 806,544.022 806,539.767 
			809.789,537.639 809.112,531.61 811.433,529.667 812.691,524 808.081,524 806.129,519.662 806,518.489 806,514 806.662,514 
			809.499,511 814,511 814,505.723 814,499.34 817.861,494.059 822.715,488.779 824.513,482.828 826.104,476.6 		"
			onmousemove="ShowTooltip(evt)"
    onmouseout="HideTooltip()"/>
	</a>
	<a xlink:href="http://www.eveoniris.com/index.php/carte-nemedie" target="_top">
		<polygon id="Némédie" fill="#30B44A" points="725.099,526 720.372,519.585 716,511.042 716,503.241 710.56,499 702.404,499 696.02,495.934 
			693.183,486.526 685.027,480 675.452,480 667.473,471.407 671.906,463.165 667.473,459.443 658.43,462.902 650.629,458.602 
			652.047,452.197 644.954,447.221 646.372,441.542 649.918,431.61 652.752,424.516 651.33,417.423 649.194,411.749 646.34,401.11 
			651.981,392.599 650.496,384.088 641.852,379.832 638.198,375.097 635.557,376.995 627.224,380.542 618.004,384.088 
			611.026,390.529 607.931,392.599 603,401.464 603,405.365 596.121,413.167 588,415.294 588,421 576.158,421 563.747,428 
			562.897,428 553.463,428 547.079,421.204 533.604,427.647 532.098,428.131 540,434.71 540,441.891 536.415,451.468 544,457.14 
			544,466.36 544,471 540.342,471 544,481.254 544,488.701 538.891,492.964 542.824,499 548,499 548,505.723 542.234,509.624 
			537,516.716 537,522.745 537.474,529.483 532.015,533.738 534.228,540.831 537.772,545.795 531.455,550.051 536.892,557.852 
			541,562.108 541,570.619 537.194,577.763 537,579.13 537,588 544.597,588 551,595.442 551,607.854 551,617 565.874,617 
			569.917,617 573.321,617 579,610.336 579,605.726 589.725,603.953 597.426,601.825 603,596.151 603,590.832 610.3,589.062 
			613.322,588.35 620.628,586.931 625.699,586.222 631.426,585.513 635.531,581.967 642.105,583.385 647.276,577.711 653,574.165 
			653,569.555 666,569.2 666,564.235 674.538,564.945 678.164,558.135 683.963,557 688.219,557 694.602,553.791 691.765,547.666 
			694.602,543.893 699.567,547.327 707.368,546.561 718.716,544.405 715.475,538.717 725,536.575 725,536.043 725,532.32 
			726.44,526 		"
			onmousemove="ShowTooltip(evt)"
    onmouseout="HideTooltip()"/>
	</a>
	<a xlink:href="http://www.eveoniris.com/index.php/carte-frontiere" target="_top">
		<polygon id="Royaume Frontière" fill="#30B44A" points="672.793,282 668.005,286.162 663.769,293.271 659,298.269 659,305.716 652.066,310.504 
			642.482,305.716 635.562,309.528 630.77,316 623.323,316 615.344,319.635 612.684,325.708 606.833,330.34 601.514,336.404 
			594.599,343 583.428,343 576.513,349 569.598,349 556.831,356.88 550.98,366.366 543.533,370 538.746,370 533.958,373 
			527.575,373 522.256,380 517.469,380 510.553,385 500.7,385 494.595,386.849 488.744,392.162 487.533,392.633 481,396.145 
			481,401.464 476.361,410.434 470.127,421 468.469,421 473.318,428 480,428 480,434.444 469,440.118 469,448.274 472.609,452 
			480.765,452 491.758,447.212 500.7,447.92 513.036,442.955 523.674,440.118 526.511,434.71 533.067,428.072 533.604,427.529 
			547.079,421.204 553.463,428 562.897,428 563.747,428 576.158,421 588,421 588,415.294 596.121,413.167 603,405.365 603,401.464 
			607.931,392.599 610.6,390.529 617.791,384.088 627.117,380.542 635.504,376.995 638.392,375.097 636,371.676 636,363.393 
			636,363.165 636,359.264 642.251,355.142 647.272,347.681 647.847,347.118 650.983,341 657.367,341 660.292,336.302 
			659.314,335.363 656,331.249 656,325.93 662,321.674 662,312.454 667,305.716 667,298.269 673.529,295.432 675.33,288.805 
			678.266,282 		"   
			onmousemove="ShowTooltip(evt)"
    onmouseout="HideTooltip()"/>
	</a>
</g> 

<text class="tooltip" id="tooltip"
      x="0" y="0" visibility="hidden">test</text>
</svg>
